<?xml version="1.0" encoding="UTF-8" standalone="no"?>
<!-- Created with Inkscape (http://www.inkscape.org/) -->

<svg
   xmlns:dc="http://purl.org/dc/elements/1.1/"
   xmlns:cc="http://creativecommons.org/ns#"
   xmlns:rdf="http://www.w3.org/1999/02/22-rdf-syntax-ns#"
   xmlns:svg="http://www.w3.org/2000/svg"
   xmlns="http://www.w3.org/2000/svg"
   xmlns:sodipodi="http://sodipodi.sourceforge.net/DTD/sodipodi-0.dtd"
   xmlns:inkscape="http://www.inkscape.org/namespaces/inkscape"
   id="svg7384"
   height="16"
   width="16"
   version="1.1"
   inkscape:version="0.91 r13725"
   sodipodi:docname="battery-missing-symbolic.svg">
  <defs
     id="defs10" />
  <sodipodi:namedview
     pagecolor="#ffffff"
     bordercolor="#666666"
     borderopacity="1"
     objecttolerance="10"
     gridtolerance="10"
     guidetolerance="10"
     inkscape:pageopacity="0"
     inkscape:pageshadow="2"
     inkscape:window-width="1078"
     inkscape:window-height="693"
     id="namedview8"
     showgrid="false"
     inkscape:zoom="14.807617"
     inkscape:cx="6.018459"
     inkscape:cy="9.8502741"
     inkscape:window-x="239"
     inkscape:window-y="98"
     inkscape:window-maximized="0"
     inkscape:current-layer="svg7384"
     showguides="true"
     inkscape:guide-bbox="true" />
  <metadata
     id="metadata90">
    <rdf:RDF>
      <cc:Work
         rdf:about="">
        <dc:format>image/svg+xml</dc:format>
        <dc:type
           rdf:resource="http://purl.org/dc/dcmitype/StillImage" />
        <dc:title>Gnome Symbolic Icon Theme</dc:title>
      </cc:Work>
    </rdf:RDF>
  </metadata>
  <title
     id="title9167">Gnome Symbolic Icon Theme</title>
  <rect
     id="rect3743"
     style="fill:#bebebe;fill-opacity:1"
     height="1"
     width="3"
     y="5.999999"
     x="10.000002" />
  <path
     style="color:#bebebe;text-indent:0;text-transform:none;block-progression:tb;fill:#bebebe"
     d="M 0,4.0000001 0,13 l 0.9999998,0 4,0 0,-1 -4,0 0,-6.9999999 13.0000002,0 0,1 0,1 1,0 0,2.9999998 -1,0 L 14,11 l 0,1 0,1 1,0 0,-2 1,0 0,-4.9999999 -1,0 0,-2 z"
     id="path3745"
     inkscape:connector-curvature="0"
     sodipodi:nodetypes="ccccccccccccccccccccccc" />
  <rect
     id="rect3743-5-8"
     style="fill:#bebebe;fill-opacity:1"
     height="5"
     width="3"
     y="5.999999"
     x="2.0000017" />
  <rect
     style="fill:#9d1919;fill-opacity:1;stroke:none"
     id="rect2442"
     width="7"
     height="7.000001"
     x="6.0000014"
     y="7.999999"
     class="error" />
  <path
     inkscape:connector-curvature="0"
     style="fill:#ffffff;fill-opacity:1;stroke:none"
     d="m 7.9893508,8.9822699 -1.007092,1.00709 1.51064,1.5106401 -1.51064,1.51063 1.007092,1.0071 1.510641,-1.51063 1.5106412,1.51063 1.007091,-1.0071 L 10.507086,11.5 12.017724,9.9893599 11.010633,8.9822699 9.4999918,10.4929 7.9893508,8.9822699 Z"
     id="path2444-5" />
  <rect
     id="rect3743-9"
     style="fill:#bebebe;fill-opacity:1"
     height="1"
     width="3"
     y="5.999999"
     x="6.0000014" />
</svg>
