<?xml version="1.0" encoding="UTF-8" standalone="no"?>
<!-- Created with Inkscape (http://www.inkscape.org/) -->

<svg
   xmlns:dc="http://purl.org/dc/elements/1.1/"
   xmlns:cc="http://creativecommons.org/ns#"
   xmlns:rdf="http://www.w3.org/1999/02/22-rdf-syntax-ns#"
   xmlns:svg="http://www.w3.org/2000/svg"
   xmlns="http://www.w3.org/2000/svg"
   xmlns:sodipodi="http://sodipodi.sourceforge.net/DTD/sodipodi-0.dtd"
   xmlns:inkscape="http://www.inkscape.org/namespaces/inkscape"
   id="svg7384"
   height="16"
   width="16"
   version="1.1"
   inkscape:version="0.91 r13725"
   sodipodi:docname="battery-caution-symbolic.svg">
  <defs
     id="defs10" />
  <sodipodi:namedview
     pagecolor="#ffffff"
     bordercolor="#666666"
     borderopacity="1"
     objecttolerance="10"
     gridtolerance="10"
     guidetolerance="10"
     inkscape:pageopacity="0"
     inkscape:pageshadow="2"
     inkscape:window-width="1078"
     inkscape:window-height="693"
     id="namedview8"
     showgrid="false"
     inkscape:zoom="20.85965"
     inkscape:cx="8.1224455"
     inkscape:cy="6.7812193"
     inkscape:window-x="239"
     inkscape:window-y="98"
     inkscape:window-maximized="0"
     inkscape:current-layer="layer9"
     showguides="true"
     inkscape:guide-bbox="true" />
  <metadata
     id="metadata90">
    <rdf:RDF>
      <cc:Work
         rdf:about="">
        <dc:format>image/svg+xml</dc:format>
        <dc:type
           rdf:resource="http://purl.org/dc/dcmitype/StillImage" />
        <dc:title>Gnome Symbolic Icon Theme</dc:title>
      </cc:Work>
    </rdf:RDF>
  </metadata>
  <title
     id="title9167">Gnome Symbolic Icon Theme</title>
  <g
     id="layer9"
     transform="translate(-79.9998,-217.99875)">
    <path
       style="text-indent:0;text-transform:none;block-progression:tb;color:#bebebe;fill:#bebebe"
       d="m 0,4 0,9 1,0 4,0 0,-1 -4,0 0,-7 13,0 0,1 0,1 1,0 0,3 -1,0 0,1 0,1 0,1 1,0 0,-2 1,0 0,-5 -1,0 0,-2 z"
       transform="translate(79.9998,217.99875)"
       id="path3745"
       inkscape:connector-curvature="0"
       sodipodi:nodetypes="ccccccccccccccccccccccc" />
    <rect
       id="rect3743-5-8"
       style="fill:#ff0000;fill-opacity:1"
       height="5"
       width="2"
       y="223.99875"
       x="81.999802"
       class="warning" />
    <rect
       style="fill:#ff7f2a;fill-opacity:1;stroke:none"
       id="rect2442"
       width="7"
       height="7.0000005"
       x="85.999802"
       y="225.99875"
       class="warning" />
    <path
       inkscape:connector-curvature="0"
       style="fill:#ffffff;fill-opacity:1;stroke:none"
       d="m 89.999797,226.99875 -0.999994,0 -3e-6,3 1,-1e-5 z"
       id="path2444-5"
       sodipodi:nodetypes="ccccc" />
    <path
       inkscape:connector-curvature="0"
       style="fill:#ffffff;fill-opacity:1;stroke:none"
       d="m 89.999797,230.99875 -0.999994,0 -3e-6,1 1,-1e-5 z"
       id="path2444-5-3"
       sodipodi:nodetypes="ccccc" />
  </g>
</svg>
