<?xml version="1.0" encoding="UTF-8" standalone="no"?>
<!-- Created with Inkscape (http://www.inkscape.org/) -->

<svg
   xmlns:dc="http://purl.org/dc/elements/1.1/"
   xmlns:cc="http://creativecommons.org/ns#"
   xmlns:rdf="http://www.w3.org/1999/02/22-rdf-syntax-ns#"
   xmlns:svg="http://www.w3.org/2000/svg"
   xmlns="http://www.w3.org/2000/svg"
   xmlns:sodipodi="http://sodipodi.sourceforge.net/DTD/sodipodi-0.dtd"
   xmlns:inkscape="http://www.inkscape.org/namespaces/inkscape"
   id="svg7384"
   height="16"
   width="16"
   version="1.1"
   inkscape:version="0.91 r13725"
   sodipodi:docname="bluetooth-disabled-symbolic.svg">
  <defs
     id="defs313301" />
  <sodipodi:namedview
     pagecolor="#ffffff"
     bordercolor="#666666"
     borderopacity="1"
     objecttolerance="10"
     gridtolerance="10"
     guidetolerance="10"
     inkscape:pageopacity="0"
     inkscape:pageshadow="2"
     inkscape:window-width="1010"
     inkscape:window-height="684"
     id="namedview313299"
     showgrid="false"
     inkscape:zoom="14.349437"
     inkscape:cx="-0.85761434"
     inkscape:cy="15.629931"
     inkscape:window-x="0"
     inkscape:window-y="0"
     inkscape:window-maximized="0"
     inkscape:current-layer="svg7384" />
  <metadata
     id="metadata90">
    <rdf:RDF>
      <cc:Work
         rdf:about="">
        <dc:format>image/svg+xml</dc:format>
        <dc:type
           rdf:resource="http://purl.org/dc/dcmitype/StillImage" />
        <dc:title>Gnome Symbolic Icon Theme</dc:title>
      </cc:Work>
    </rdf:RDF>
  </metadata>
  <title
     id="title9167">Gnome Symbolic Icon Theme</title>
  <g
     id="g10845"
     style="opacity:0.35;fill:#bebebe"
     transform="matrix(0.9978647,0,0,0.9978647,-19.927808,-255.44291)">
    <path
       inkscape:connector-curvature="0"
       id="path10847"
       d="M 67.875,317 A 1.0001,1.0001 0 0 0 67,318 l 0,3.5625 -1.2812,-1.2812 a 1.0165,1.0165 0 1 0 -1.4375,1.4375 l 2.718,2.72 0,1.125 -2.7188,2.7188 a 1.0165,1.0165 0 1 0 1.4375,1.4375 l 1.282,-1.28 0,3.56 a 1.0001,1.0001 0 0 0 1.7188,0.71875 l 2.281,-2.28 0,-3.44 1.4375,0 -2,-2 2.2812,-2.2812 a 1.0001,1.0001 0 0 0 0,-1.4375 l -4,-4 a 1.0001,1.0001 0 0 0 -0.844,-0.28 z M 69,320.44 70.562,322 69,323.56 l 0,-3.125 z m 0,6 1.562,1.56 -1.562,1.56 0,-3.125 z"
       style="color:#000000;text-indent:0;text-transform:none;block-progression:tb;fill:#bebebe"
       transform="translate(-41,-61)" />
    <rect
       id="rect10849"
       style="opacity:0.98000004;fill:#bebebe"
       height="1"
       width="1"
       y="259"
       x="23" />
    <rect
       id="rect10851"
       style="opacity:0.98000004;fill:#bebebe"
       height="1"
       width="1"
       y="268"
       x="23" />
    <rect
       id="rect10853"
       style="opacity:0.98000004;fill:#bebebe"
       height="1"
       width="1"
       y="270.97"
       x="26" />
    <rect
       id="rect10855"
       style="opacity:0.98000004;fill:#bebebe"
       height="1"
       width="1"
       y="256.03"
       x="26" />
  </g>
  <path
     inkscape:connector-curvature="0"
     id="path3761-2-3-5-4-8-9-8-0-9"
     style="color:#bebebe;fill:#bebebe"
     d="M 11,11 12.375,11 13.5,12.0938 14.5938,11 16,11 16,12.4688 14.9062,13.5313 16,14.5938 16,16 14.5625,16 13.5,14.9375 12.4375,16 11,16 11,14.5938 12.0625,13.5313 11,12.4688 11,11 Z" />
</svg>
