<?xml version="1.0" encoding="UTF-8" standalone="no"?>
<!-- Created with Inkscape (http://www.inkscape.org/) -->

<svg
   xmlns:dc="http://purl.org/dc/elements/1.1/"
   xmlns:cc="http://creativecommons.org/ns#"
   xmlns:rdf="http://www.w3.org/1999/02/22-rdf-syntax-ns#"
   xmlns:svg="http://www.w3.org/2000/svg"
   xmlns="http://www.w3.org/2000/svg"
   xmlns:sodipodi="http://sodipodi.sourceforge.net/DTD/sodipodi-0.dtd"
   xmlns:inkscape="http://www.inkscape.org/namespaces/inkscape"
   id="svg7384"
   height="16"
   width="16"
   version="1.1"
   inkscape:version="0.91 r13725"
   sodipodi:docname="bluetooth-active-symbolic.svg">
  <defs
     id="defs313286" />
  <sodipodi:namedview
     pagecolor="#ffffff"
     bordercolor="#666666"
     borderopacity="1"
     objecttolerance="10"
     gridtolerance="10"
     guidetolerance="10"
     inkscape:pageopacity="0"
     inkscape:pageshadow="2"
     inkscape:window-width="1054"
     inkscape:window-height="700"
     id="namedview313284"
     showgrid="false"
     inkscape:zoom="30.018555"
     inkscape:cx="8"
     inkscape:cy="8"
     inkscape:window-x="0"
     inkscape:window-y="0"
     inkscape:window-maximized="0"
     inkscape:current-layer="svg7384" />
  <metadata
     id="metadata90">
    <rdf:RDF>
      <cc:Work
         rdf:about="">
        <dc:format>image/svg+xml</dc:format>
        <dc:type
           rdf:resource="http://purl.org/dc/dcmitype/StillImage" />
        <dc:title>Gnome Symbolic Icon Theme</dc:title>
      </cc:Work>
    </rdf:RDF>
  </metadata>
  <title
     id="title9167">Gnome Symbolic Icon Theme</title>
  <g
     id="layer9"
     transform="matrix(0.99806876,0,0,0.99806876,-40.891941,-316.38062)">
    <path
       id="path3807"
       style="color:#000000;text-indent:0;text-transform:none;block-progression:tb;fill:#bebebe"
       d="M 47.875,317 A 1.0001,1.0001 0 0 0 47,318 l 0,3.5625 -1.2812,-1.2812 a 1.0165,1.0165 0 1 0 -1.4375,1.4375 l 2.718,2.72 0,1.125 -2.7188,2.7188 a 1.0165,1.0165 0 1 0 1.4375,1.4375 l 1.282,-1.28 0,3.56 a 1.0001,1.0001 0 0 0 1.7188,0.71875 l 4,-4 a 1.0001,1.0001 0 0 0 0,-1.4375 l -2.281,-2.28 2.2812,-2.2812 a 1.0001,1.0001 0 0 0 0,-1.4375 l -4,-4 a 1.0001,1.0001 0 0 0 -0.844,-0.28 z M 49,320.44 50.562,322 49,323.56 l 0,-3.125 z m 0,6 1.562,1.56 -1.562,1.56 0,-3.125 z"
       inkscape:connector-curvature="0" />
    <rect
       id="rect3940"
       style="opacity:0.98000004;fill:#bebebe"
       height="1"
       width="1"
       y="320"
       x="44" />
    <rect
       id="rect3942"
       style="opacity:0.98000004;fill:#bebebe"
       height="1"
       width="1"
       y="329"
       x="44" />
    <rect
       id="rect3944"
       style="opacity:0.98000004;fill:#bebebe"
       height="1"
       width="1"
       y="332"
       x="47" />
    <rect
       id="rect3946"
       style="opacity:0.98000004;fill:#bebebe"
       height="1"
       width="1"
       y="317"
       x="47" />
  </g>
</svg>
