<?xml version="1.0" encoding="UTF-8" standalone="no"?>
<!-- Created with Inkscape (http://www.inkscape.org/) -->

<svg
   xmlns:dc="http://purl.org/dc/elements/1.1/"
   xmlns:cc="http://creativecommons.org/ns#"
   xmlns:rdf="http://www.w3.org/1999/02/22-rdf-syntax-ns#"
   xmlns:svg="http://www.w3.org/2000/svg"
   xmlns="http://www.w3.org/2000/svg"
   xmlns:sodipodi="http://sodipodi.sourceforge.net/DTD/sodipodi-0.dtd"
   xmlns:inkscape="http://www.inkscape.org/namespaces/inkscape"
   id="svg7384"
   height="16"
   width="16"
   version="1.1"
   inkscape:version="0.91 r13725"
   sodipodi:docname="keyboard-brightness-symbolic.svg">
  <defs
     id="defs313491" />
  <sodipodi:namedview
     pagecolor="#ffffff"
     bordercolor="#666666"
     borderopacity="1"
     objecttolerance="10"
     gridtolerance="10"
     guidetolerance="10"
     inkscape:pageopacity="0"
     inkscape:pageshadow="2"
     inkscape:window-width="640"
     inkscape:window-height="480"
     id="namedview313489" />
  <metadata
     id="metadata90">
    <rdf:RDF>
      <cc:Work
         rdf:about="">
        <dc:format>image/svg+xml</dc:format>
        <dc:type
           rdf:resource="http://purl.org/dc/dcmitype/StillImage" />
        <dc:title>Gnome Symbolic Icon Theme</dc:title>
      </cc:Work>
    </rdf:RDF>
  </metadata>
  <title
     id="title9167">Gnome Symbolic Icon Theme</title>
  <g
     id="layer9"
     transform="translate(-101 -318)">
    <g
       id="g5432"
       transform="translate(20 44)">
      <rect
         id="rect5434"
         style="color:#bebebe;enable-background:new;fill:#bebebe"
         rx=".5625"
         ry=".5625"
         height="2"
         width="2.9723"
         y="284"
         x="81" />
      <rect
         id="rect5436"
         style="color:#bebebe;enable-background:new;fill:#bebebe"
         rx=".5625"
         ry=".5625"
         height="2"
         width="3.0165"
         y="284"
         x="93.984" />
    </g>
    <g
       id="g5438"
       transform="matrix(.70711 -.70711 .70711 .70711 -155.46 190.41)">
      <rect
         id="rect5442"
         style="color:#bebebe;enable-background:new;fill:#bebebe"
         rx=".5625"
         ry=".5625"
         height="2"
         width="3.0165"
         y="284"
         x="93.984" />
    </g>
    <g
       id="g5444"
       transform="matrix(0 -1 1 0 -176 418)">
      <rect
         id="rect5448"
         style="color:#bebebe;enable-background:new;fill:#bebebe"
         rx=".5625"
         ry=".5625"
         height="2"
         width="3.0165"
         y="284"
         x="93.984" />
    </g>
    <g
       id="g5450"
       transform="matrix(-.70711 -.70711 .70711 -.70711 -29.593 593.46)">
      <rect
         id="rect5454"
         style="color:#bebebe;enable-background:new;fill:#bebebe"
         rx=".5625"
         ry=".5625"
         height="2"
         width="3.0165"
         y="284"
         x="93.984" />
    </g>
    <path
       id="path7977"
       style="color:#000000;fill:#bebebe"
       d="m107.25 327c-0.16704 0.009-0.32215 0.11722-0.37496 0.26083l-0.83643 2.217c-0.10137 0.23354 0.12645 0.52786 0.4038 0.52166 0 0 1.0705 0.00012 2.567 0.00012s2.567-0.00012 2.567-0.00012c0.27735 0.006 0.50517-0.28812 0.4038-0.52166l-0.83643-2.217c-0.0727-0.19298-0.33686-0.30615-0.54801-0.23475-0.21274 0.0692-0.82049 0.26083-1.5863 0.26083-0.76585 0-1.3736-0.19167-1.5863-0.26083-0.0548-0.0194-0.11421-0.0284-0.17305-0.026z" />
  </g>
</svg>
