<?xml version="1.0" encoding="UTF-8" standalone="no"?>
<!-- Created with Inkscape (http://www.inkscape.org/) -->

<svg
   xmlns:dc="http://purl.org/dc/elements/1.1/"
   xmlns:cc="http://creativecommons.org/ns#"
   xmlns:rdf="http://www.w3.org/1999/02/22-rdf-syntax-ns#"
   xmlns:svg="http://www.w3.org/2000/svg"
   xmlns="http://www.w3.org/2000/svg"
   xmlns:sodipodi="http://sodipodi.sourceforge.net/DTD/sodipodi-0.dtd"
   xmlns:inkscape="http://www.inkscape.org/namespaces/inkscape"
   id="svg7384"
   height="16"
   width="16"
   version="1.1"
   inkscape:version="0.91 r13725"
   sodipodi:docname="network-wired-acquiring-symbolic.svg">
  <defs
     id="defs313919" />
  <sodipodi:namedview
     pagecolor="#ffffff"
     bordercolor="#666666"
     borderopacity="1"
     objecttolerance="10"
     gridtolerance="10"
     guidetolerance="10"
     inkscape:pageopacity="0"
     inkscape:pageshadow="2"
     inkscape:window-width="640"
     inkscape:window-height="480"
     id="namedview313917" />
  <metadata
     id="metadata90">
    <rdf:RDF>
      <cc:Work
         rdf:about="">
        <dc:format>image/svg+xml</dc:format>
        <dc:type
           rdf:resource="http://purl.org/dc/dcmitype/StillImage" />
        <dc:title>Gnome Symbolic Icon Theme</dc:title>
      </cc:Work>
    </rdf:RDF>
  </metadata>
  <title
     id="title9167">Gnome Symbolic Icon Theme</title>
  <g
     id="layer9"
     transform="translate(-161 -197)">
    <path
       id="rect12689-2"
       style="opacity:.35;color:#bebebe;text-indent:0pt;text-transform:none;fill:#bebebe"
       d="m165.75 197c-0.9522 0-1.75 0.7978-1.75 1.75v4.5c0 0.26247 0.0485 0.52447 0.15625 0.75h10.688c0.10776-0.22553 0.15625-0.48753 0.15625-0.75v-4.5c0-0.9522-0.7978-1.75-1.75-1.75h-7.5zm0.25 2h7v4h-7v-4zm2 9.9375v1.0625h-5v2h13v-2h-5v-1.0625h-3z" />
    <path
       id="path4955-1"
       style="fill:#bebebe"
       d="m29 209a1 1 0 1 1 -2 0 1 1 0 1 1 2 0z"
       transform="matrix(1.5,0,0,1.5,123.5,-107)" />
    <path
       id="path4957-2"
       style="fill:#bebebe"
       d="m29 209a1 1 0 1 1 -2 0 1 1 0 1 1 2 0z"
       transform="matrix(1.5,0,0,1.5,127.5,-107)" />
    <path
       id="path4959-4"
       style="fill:#bebebe"
       d="m29 209a1 1 0 1 1 -2 0 1 1 0 1 1 2 0z"
       transform="matrix(1.5 0 0 1.5 131.5 -107)" />
  </g>
</svg>
