<?xml version="1.0" encoding="UTF-8" standalone="no"?>
<!-- Created with Inkscape (http://www.inkscape.org/) -->

<svg
   xmlns:dc="http://purl.org/dc/elements/1.1/"
   xmlns:cc="http://creativecommons.org/ns#"
   xmlns:rdf="http://www.w3.org/1999/02/22-rdf-syntax-ns#"
   xmlns:svg="http://www.w3.org/2000/svg"
   xmlns="http://www.w3.org/2000/svg"
   xmlns:sodipodi="http://sodipodi.sourceforge.net/DTD/sodipodi-0.dtd"
   xmlns:inkscape="http://www.inkscape.org/namespaces/inkscape"
   id="svg7384"
   height="16"
   width="16"
   version="1.1"
   inkscape:version="0.91 r13725"
   sodipodi:docname="network-wireless-encrypted-symbolic.svg">
  <defs
     id="defs313979" />
  <sodipodi:namedview
     pagecolor="#ffffff"
     bordercolor="#666666"
     borderopacity="1"
     objecttolerance="10"
     gridtolerance="10"
     guidetolerance="10"
     inkscape:pageopacity="0"
     inkscape:pageshadow="2"
     inkscape:window-width="640"
     inkscape:window-height="480"
     id="namedview313977" />
  <metadata
     id="metadata90">
    <rdf:RDF>
      <cc:Work
         rdf:about="">
        <dc:format>image/svg+xml</dc:format>
        <dc:type
           rdf:resource="http://purl.org/dc/dcmitype/StillImage" />
        <dc:title>Gnome Symbolic Icon Theme</dc:title>
      </cc:Work>
    </rdf:RDF>
  </metadata>
  <title
     id="title9167">Gnome Symbolic Icon Theme</title>
  <g
     id="layer9"
     transform="translate(-361 -177)">
    <path
       id="path4215"
       style="color:#bebebe;fill:#bebebe"
       d="m364 184c-0.554 0-1 0.446-1 1v0.53125 5.4688h12v-5.4688-0.53c0-0.554-0.446-1-1-1h-10z" />
    <path
       id="rect4217"
       style="block-progression:tb;text-indent:0;color:#bebebe;text-transform:none;fill:#bebebe"
       d="m368 178c-1.6447 0-3 1.3553-3 3v7c0 1.6447 1.3553 3 3 3h2c1.6447 0 3-1.3553 3-3v-7c0-1.6447-1.3553-3-3-3h-2zm0 2h2c0.5713 0 1 0.4287 1 1v7c0 0.5713-0.4287 1-1 1h-2c-0.5713 0-1-0.4287-1-1v-7c0-0.5713 0.4287-1 1-1z" />
  </g>
</svg>
