<?xml version="1.0" encoding="UTF-8" standalone="no"?>
<!-- Created with Inkscape (http://www.inkscape.org/) -->

<svg
   xmlns:dc="http://purl.org/dc/elements/1.1/"
   xmlns:cc="http://creativecommons.org/ns#"
   xmlns:rdf="http://www.w3.org/1999/02/22-rdf-syntax-ns#"
   xmlns:svg="http://www.w3.org/2000/svg"
   xmlns="http://www.w3.org/2000/svg"
   xmlns:sodipodi="http://sodipodi.sourceforge.net/DTD/sodipodi-0.dtd"
   xmlns:inkscape="http://www.inkscape.org/namespaces/inkscape"
   id="svg7384"
   height="16"
   width="16"
   version="1.1"
   inkscape:version="0.91 r13725"
   sodipodi:docname="network-wireless-acquiring-symbolic.svg">
  <sodipodi:namedview
     pagecolor="#ffffff"
     bordercolor="#666666"
     borderopacity="1"
     objecttolerance="10"
     gridtolerance="10"
     guidetolerance="10"
     inkscape:pageopacity="0"
     inkscape:pageshadow="2"
     inkscape:window-width="640"
     inkscape:window-height="480"
     id="namedview313959" />
  <metadata
     id="metadata90">
    <rdf:RDF>
      <cc:Work
         rdf:about="">
        <dc:format>image/svg+xml</dc:format>
        <dc:type
           rdf:resource="http://purl.org/dc/dcmitype/StillImage" />
        <dc:title>Gnome Symbolic Icon Theme</dc:title>
      </cc:Work>
    </rdf:RDF>
  </metadata>
  <title
     id="title9167">Gnome Symbolic Icon Theme</title>
  <defs
     id="defs7386">
    <clipPath
       id="clipPath6259-6-8-2-1-6-6"
       clipPathUnits="userSpaceOnUse">
      <rect
         id="rect6261-4-9-2-0-9-0"
         style="color:#bebebe;fill:#bebebe"
         height="4.8735"
         width="1.8763"
         y="221.5"
         x="26.999" />
    </clipPath>
    <clipPath
       id="clipPath3157-7-0"
       clipPathUnits="userSpaceOnUse">
      <rect
         id="rect3159-5-5"
         style="color:#bebebe;fill:#bebebe"
         height="5.2159"
         width="1.7386"
         y="221.33"
         x="28.125" />
    </clipPath>
  </defs>
  <g
     id="layer9"
     transform="translate(-141 -177)">
    <path
       id="path4175"
       style="opacity:.35;fill:#bebebe"
       d="m29 209a1 1 0 1 1 -2 0 1 1 0 1 1 2 0z"
       transform="matrix(1.5 0 0 1.5 106.5 -124)" />
    <path
       id="path4181"
       style="opacity:.35;block-progression:tb;text-indent:0;color:#000000;text-transform:none;fill:#bebebe"
       d="m27.062 221.31a0.37504 0.37504 0 0 0 -0.125 0.625c1.1015 1.1015 1.1015 2.8985 0 4a0.37565 0.37565 0 1 0 0.53125 0.53125c1.3881-1.3881 1.3881-3.6744 0-5.0625a0.37504 0.37504 0 0 0 -0.40625 -0.0937z"
       clip-path="url(#clipPath6259-6-8-2-1-6-6)"
       transform="matrix(0 -2.6667 2.6667 0 -448.67 255)" />
    <path
       id="path4955"
       style="fill:#bebebe"
       d="m29 209a1 1 0 1 1 -2 0 1 1 0 1 1 2 0z"
       transform="matrix(1.5 0 0 1.5 102.5 -128)" />
    <path
       id="path4957"
       style="fill:#bebebe"
       d="m29 209a1 1 0 1 1 -2 0 1 1 0 1 1 2 0z"
       transform="matrix(1.5 0 0 1.5 106.5 -128)" />
    <path
       id="path4959"
       style="fill:#bebebe"
       d="m29 209a1 1 0 1 1 -2 0 1 1 0 1 1 2 0z"
       transform="matrix(1.5 0 0 1.5 110.5 -128)" />
    <path
       id="path3745-5-4-5-6"
       style="opacity:.35;block-progression:tb;text-indent:0;color:#000000;text-transform:none;fill:#bebebe"
       d="m27.125 221.09a0.5796 0.5796 0 0 0 -0.34375 1c1.0233 1.0233 1.0233 2.6642 0 3.6875a0.5796 0.5796 0 1 0 0.8125 0.8125c1.4663-1.4663 1.4663-3.8462 0-5.3125a0.5796 0.5796 0 0 0 -0.46875 -0.1875z"
       clip-path="url(#clipPath3157-7-0)"
       transform="matrix(0 -1.7255 1.7255 0 -237.9 231.53)" />
  </g>
</svg>
