<?xml version="1.0" encoding="UTF-8" standalone="no"?>
<!-- Created with Inkscape (http://www.inkscape.org/) -->

<svg
   xmlns:dc="http://purl.org/dc/elements/1.1/"
   xmlns:cc="http://creativecommons.org/ns#"
   xmlns:rdf="http://www.w3.org/1999/02/22-rdf-syntax-ns#"
   xmlns:svg="http://www.w3.org/2000/svg"
   xmlns="http://www.w3.org/2000/svg"
   xmlns:sodipodi="http://sodipodi.sourceforge.net/DTD/sodipodi-0.dtd"
   xmlns:inkscape="http://www.inkscape.org/namespaces/inkscape"
   id="svg3200"
   height="24"
   width="24"
   version="1.0"
   inkscape:version="0.91 r13725"
   sodipodi:docname="network-transmit-receive.svg">
  <defs
     id="defs8" />
  <sodipodi:namedview
     pagecolor="#ffffff"
     bordercolor="#666666"
     borderopacity="1"
     objecttolerance="10"
     gridtolerance="10"
     guidetolerance="10"
     inkscape:pageopacity="0"
     inkscape:pageshadow="2"
     inkscape:window-width="1440"
     inkscape:window-height="854"
     id="namedview6"
     showgrid="false"
     inkscape:zoom="9.8333333"
     inkscape:cx="-4.0169492"
     inkscape:cy="11.79661"
     inkscape:window-x="0"
     inkscape:window-y="0"
     inkscape:window-maximized="1"
     inkscape:current-layer="svg3200" />
  <metadata
     id="metadata8">
    <rdf:RDF>
      <cc:Work
         rdf:about="">
        <dc:format>image/svg+xml</dc:format>
        <dc:type
           rdf:resource="http://purl.org/dc/dcmitype/StillImage" />
        <dc:title />
      </cc:Work>
    </rdf:RDF>
  </metadata>
  <path
     inkscape:connector-curvature="0"
     sodipodi:nodetypes="ccccccccccc"
     id="path6972-6"
     d="m 14.499999,16 -4.9999989,0 0,2 -5.0000002,0 0,2 5.0000002,0 4.9999989,0 5.000001,0 0,-2 -5.000001,0 z"
     style="fill:#e1e1e1;fill-opacity:1;fill-rule:nonzero;stroke:none" />
  <path
     inkscape:connector-curvature="0"
     id="path6974-8"
     d="M 12,3.7090413 A 14.149229,14.149229 0 0 0 2,7.8582717 L 3.4291351,9.287407 A 12.127911,12.127911 0 0 1 12,5.7303597 12.127911,12.127911 0 0 1 20.570862,9.287407 L 22,7.8582717 A 14.149229,14.149229 0 0 0 12,3.7090413 Z"
     style="opacity:1;fill:#e1e1e1;fill-opacity:1;stroke:none;stroke-width:1;stroke-linecap:round;stroke-miterlimit:4;stroke-dasharray:none;stroke-opacity:1" />
  <path
     inkscape:connector-curvature="0"
     id="path6976-8"
     d="M 12,7.7516787 A 10.106592,10.106592 0 0 0 4.8582707,10.716543 l 1.4291352,1.429135 A 8.0852738,8.0852738 0 0 1 12,9.772997 a 8.0852738,8.0852738 0 0 1 5.712594,2.372681 l 1.429132,-1.429135 A 10.106592,10.106592 0 0 0 12,7.7516787 Z"
     style="opacity:1;fill:#e1e1e1;fill-opacity:1;stroke:none;stroke-width:1;stroke-linecap:round;stroke-miterlimit:4;stroke-dasharray:none;stroke-opacity:1" />
  <path
     inkscape:connector-curvature="0"
     id="path6978-5"
     d="M 12,11.794315 A 6.0639553,6.0639553 0 0 0 7.716541,13.574813 L 9.1417281,15 A 4.042637,4.042637 0 0 1 12,13.815635 4.042637,4.042637 0 0 1 14.85827,15 l 1.425187,-1.425187 A 6.0639553,6.0639553 0 0 0 12,11.794315 Z"
     style="opacity:1;fill:#e1e1e1;fill-opacity:1;stroke:none;stroke-width:1;stroke-linecap:round;stroke-miterlimit:4;stroke-dasharray:none;stroke-opacity:1" />
</svg>
