<?xml version="1.0" encoding="UTF-8" standalone="no"?>
<!-- Created with Inkscape (http://www.inkscape.org/) -->

<svg
   xmlns:dc="http://purl.org/dc/elements/1.1/"
   xmlns:cc="http://creativecommons.org/ns#"
   xmlns:rdf="http://www.w3.org/1999/02/22-rdf-syntax-ns#"
   xmlns:svg="http://www.w3.org/2000/svg"
   xmlns="http://www.w3.org/2000/svg"
   xmlns:sodipodi="http://sodipodi.sourceforge.net/DTD/sodipodi-0.dtd"
   xmlns:inkscape="http://www.inkscape.org/namespaces/inkscape"
   id="svg7384"
   height="16"
   width="16"
   version="1.1"
   inkscape:version="0.91 r13725"
   sodipodi:docname="network-cellular-signal-none-symbolic.svg">
  <defs
     id="defs313746" />
  <sodipodi:namedview
     pagecolor="#ffffff"
     bordercolor="#666666"
     borderopacity="1"
     objecttolerance="10"
     gridtolerance="10"
     guidetolerance="10"
     inkscape:pageopacity="0"
     inkscape:pageshadow="2"
     inkscape:window-width="640"
     inkscape:window-height="480"
     id="namedview313744" />
  <metadata
     id="metadata90">
    <rdf:RDF>
      <cc:Work
         rdf:about="">
        <dc:format>image/svg+xml</dc:format>
        <dc:type
           rdf:resource="http://purl.org/dc/dcmitype/StillImage" />
        <dc:title>Gnome Symbolic Icon Theme</dc:title>
      </cc:Work>
    </rdf:RDF>
  </metadata>
  <title
     id="title9167">Gnome Symbolic Icon Theme</title>
  <g
     id="layer9"
     transform="translate(-121 -257)">
    <path
       id="path4064"
       style="opacity:.35;fill-rule:evenodd;block-progression:tb;text-indent:0;color:#000000;text-transform:none;fill:#bebebe"
       d="m133 257v1.5 7 1.5h3v-1.5-7-1.5h-3z" />
    <path
       id="path4066"
       style="opacity:.35;fill-rule:evenodd;block-progression:tb;text-indent:0;color:#000000;text-transform:none;fill:#bebebe"
       d="m129 260v12.062h2v-5.0625h1v-7h-3z" />
    <path
       id="path4068"
       style="opacity:.35;fill-rule:evenodd;block-progression:tb;text-indent:0;color:#000000;text-transform:none;fill:#bebebe"
       d="m125 262.94v1.5 6.0938 1.5h3v-1.5-6.0938-1.5h-3z" />
    <path
       id="path4070"
       style="opacity:.35;fill-rule:evenodd;block-progression:tb;text-indent:0;color:#000000;text-transform:none;fill:#bebebe"
       d="m121 265.97v1.5 3.0625 1.5h3v-1.5-3.0625-1.5h-3z" />
    <path
       id="path3761-2-3-5-4-8-9-8-0-1"
       style="color:#bebebe;fill:#bebebe"
       d="m132 268h1.375l1.125 1.0938 1.0938-1.0938h1.4062v1.4688l-1.0938 1.0625 1.0938 1.0625v1.4062h-1.4375l-1.0625-1.0625-1.0625 1.0625h-1.4375v-1.4062l1.0625-1.0625-1.0625-1.0625v-1.4688z" />
  </g>
</svg>
