<?xml version="1.0" encoding="UTF-8" standalone="no"?>
<!-- Created with Inkscape (http://www.inkscape.org/) -->

<svg
   xmlns:dc="http://purl.org/dc/elements/1.1/"
   xmlns:cc="http://creativecommons.org/ns#"
   xmlns:rdf="http://www.w3.org/1999/02/22-rdf-syntax-ns#"
   xmlns:svg="http://www.w3.org/2000/svg"
   xmlns="http://www.w3.org/2000/svg"
   xmlns:sodipodi="http://sodipodi.sourceforge.net/DTD/sodipodi-0.dtd"
   xmlns:inkscape="http://www.inkscape.org/namespaces/inkscape"
   id="svg7384"
   height="16"
   width="16"
   version="1.1"
   inkscape:version="0.91 r13725"
   sodipodi:docname="network-cellular-edge-symbolic.svg">
  <defs
     id="defs313700" />
  <sodipodi:namedview
     pagecolor="#ffffff"
     bordercolor="#666666"
     borderopacity="1"
     objecttolerance="10"
     gridtolerance="10"
     guidetolerance="10"
     inkscape:pageopacity="0"
     inkscape:pageshadow="2"
     inkscape:window-width="640"
     inkscape:window-height="480"
     id="namedview313698" />
  <title
     id="title9167">Gnome Symbolic Icon Theme</title>
  <metadata
     id="metadata90">
    <rdf:RDF>
      <cc:Work
         rdf:about="">
        <dc:format>image/svg+xml</dc:format>
        <dc:type
           rdf:resource="http://purl.org/dc/dcmitype/StillImage" />
        <dc:title>Gnome Symbolic Icon Theme</dc:title>
      </cc:Work>
    </rdf:RDF>
  </metadata>
  <g
     id="layer9"
     transform="translate(-101 -237)">
    <path
       id="rect7047"
       style="color:#bebebe;fill:#bebebe"
       d="m103.06 237c-1.1507 0-2.0625 0.91177-2.0625 2.0625v11.875c0 1.1507 0.91177 2.0625 2.0625 2.0625h11.875c1.1507 0 2.0625-0.91177 2.0625-2.0625v-11.875c0-1.1507-0.91177-2.0625-2.0625-2.0625h-11.875zm3.9375 3h0.0937 5.9062v2h-6v2h6v2h-6v2c-0.00036-0.00045 0.0315 0.0001 0.0313 0h5.9688v2h-6c-0.6248 0-0.99413-0.24118-1.3438-0.5625-0.33108-0.30424-0.64399-0.78976-0.625-1.4375h-0.0313v-0.0937-5.8438-0.0625h0.0313c-0.013-0.4751 0.11013-0.99964 0.46875-1.4062 0.35357-0.40089 0.93419-0.583 1.5-0.5625v-0.0313z" />
  </g>
</svg>
