<?xml version="1.0" encoding="UTF-8" standalone="no"?>
<!-- Created with Inkscape (http://www.inkscape.org/) -->

<svg
   xmlns:dc="http://purl.org/dc/elements/1.1/"
   xmlns:cc="http://creativecommons.org/ns#"
   xmlns:rdf="http://www.w3.org/1999/02/22-rdf-syntax-ns#"
   xmlns:svg="http://www.w3.org/2000/svg"
   xmlns="http://www.w3.org/2000/svg"
   xmlns:sodipodi="http://sodipodi.sourceforge.net/DTD/sodipodi-0.dtd"
   xmlns:inkscape="http://www.inkscape.org/namespaces/inkscape"
   id="svg7384"
   height="16"
   width="16"
   version="1.1"
   inkscape:version="0.91 r13725"
   sodipodi:docname="network-offline-symbolic.svg">
  <defs
     id="defs313830" />
  <sodipodi:namedview
     pagecolor="#ffffff"
     bordercolor="#666666"
     borderopacity="1"
     objecttolerance="10"
     gridtolerance="10"
     guidetolerance="10"
     inkscape:pageopacity="0"
     inkscape:pageshadow="2"
     inkscape:window-width="640"
     inkscape:window-height="480"
     id="namedview313828" />
  <metadata
     id="metadata90">
    <rdf:RDF>
      <cc:Work
         rdf:about="">
        <dc:format>image/svg+xml</dc:format>
        <dc:type
           rdf:resource="http://purl.org/dc/dcmitype/StillImage" />
        <dc:title>Gnome Symbolic Icon Theme</dc:title>
      </cc:Work>
    </rdf:RDF>
  </metadata>
  <title
     id="title9167">Gnome Symbolic Icon Theme</title>
  <g
     id="layer9"
     transform="translate(-341 -177)">
    <g
       id="g4172-7-1"
       style="opacity:.35"
       transform="translate(321 -40)">
      <g
         id="g4166-5-5">
        <path
           id="rect12675-3-8-70-9"
           d="m101.75-36c-0.9522 0-1.75 0.7978-1.75 1.75v4.5c0 0.9522 0.7978 1.75 1.75 1.75h0.125l-0.78125 1.5625-0.71875 1.4375h1.625 6 1.625l-0.71875-1.4375-0.79-1.562h0.125c0.9522 0 1.75-0.7978 1.75-1.75v-4.5c0-0.9522-0.7978-1.75-1.75-1.75h-6.5zm0.25 2h6v4h-6v-4z"
           style="block-progression:tb;text-indent:0;color:#bebebe;text-transform:none;fill:#bebebe"
           transform="translate(-80 257)" />
      </g>
      <path
         id="rect12675-3-8-5-2-9"
         d="m308.75 199c-0.9522 0-1.75 0.7978-1.75 1.75v0.25h2 0.25 5.75v4h-3v3h3.625l-0.5-1h0.125c0.9522 0 1.75-0.7978 1.75-1.75v-4.5c0-0.9522-0.7978-1.75-1.75-1.75h-6.5z"
         style="color:#bebebe;text-indent:0pt;text-transform:none;fill:#bebebe"
         transform="translate(-281 19)" />
    </g>
    <path
       id="path3761-2-3-5-4-8-9-8-0"
       style="color:#bebebe;fill:#bebebe"
       d="m352 188h1.375l1.125 1.0938 1.0938-1.0938h1.4062v1.4688l-1.0938 1.0625 1.0938 1.0625v1.4062h-1.4375l-1.0625-1.0625-1.0625 1.0625h-1.4375v-1.4062l1.0625-1.0625-1.0625-1.0625v-1.4688z" />
  </g>
</svg>
