<?xml version="1.0" encoding="UTF-8" standalone="no"?>
<!-- Created with Inkscape (http://www.inkscape.org/) -->

<svg
   xmlns:dc="http://purl.org/dc/elements/1.1/"
   xmlns:cc="http://creativecommons.org/ns#"
   xmlns:rdf="http://www.w3.org/1999/02/22-rdf-syntax-ns#"
   xmlns:svg="http://www.w3.org/2000/svg"
   xmlns="http://www.w3.org/2000/svg"
   xmlns:sodipodi="http://sodipodi.sourceforge.net/DTD/sodipodi-0.dtd"
   xmlns:inkscape="http://www.inkscape.org/namespaces/inkscape"
   id="svg7384"
   height="16"
   width="16"
   version="1.1"
   inkscape:version="0.91 r13725"
   sodipodi:docname="network-transmit-receive-symbolic.svg">
  <defs
     id="defs313868" />
  <sodipodi:namedview
     pagecolor="#ffffff"
     bordercolor="#666666"
     borderopacity="1"
     objecttolerance="10"
     gridtolerance="10"
     guidetolerance="10"
     inkscape:pageopacity="0"
     inkscape:pageshadow="2"
     inkscape:window-width="640"
     inkscape:window-height="480"
     id="namedview313866" />
  <metadata
     id="metadata90">
    <rdf:RDF>
      <cc:Work
         rdf:about="">
        <dc:format>image/svg+xml</dc:format>
        <dc:type
           rdf:resource="http://purl.org/dc/dcmitype/StillImage" />
        <dc:title>Gnome Symbolic Icon Theme</dc:title>
      </cc:Work>
    </rdf:RDF>
  </metadata>
  <title
     id="title9167">Gnome Symbolic Icon Theme</title>
  <g
     id="layer9"
     transform="translate(-241 -177)">
    <g
       id="g4172"
       transform="translate(221 -40)">
      <g
         id="g4166">
        <path
           id="rect12675-3-8"
           d="m1.75-36c-0.9522 0-1.75 0.798-1.75 1.75v4.5c0 0.9522 0.7978 1.75 1.75 1.75h0.125l-0.78125 1.5625-0.7188 1.438h1.625 6 1.625l-0.7188-1.438-0.7812-1.562h0.125c0.9522 0 1.75-0.7978 1.75-1.75v-4.5c0-0.952-0.7978-1.75-1.75-1.75h-6.5zm0.25 2h6v4h-6v-4z"
           style="block-progression:tb;text-indent:0;color:#bebebe;text-transform:none;fill:#bebebe"
           transform="translate(20,257)" />
      </g>
      <path
         id="rect12675-3-8-5"
         style="color:#bebebe;text-indent:0pt;text-transform:none;fill:#bebebe"
         d="m27.75 218c-0.9522 0-1.75 0.7978-1.75 1.75v0.25h2 0.25 5.75v4h-3v3.25c0 0.6591-0.25164 1.2698-0.65625 1.75h5.2812l-1.5-3h0.125c0.9522 0 1.75-0.7978 1.75-1.75v-4.5c0-0.9522-0.7978-1.75-1.75-1.75h-6.5z" />
    </g>
  </g>
</svg>
