<?xml version="1.0" encoding="UTF-8" standalone="no"?>
<!-- Created with Inkscape (http://www.inkscape.org/) -->

<svg
   xmlns:dc="http://purl.org/dc/elements/1.1/"
   xmlns:cc="http://creativecommons.org/ns#"
   xmlns:rdf="http://www.w3.org/1999/02/22-rdf-syntax-ns#"
   xmlns:svg="http://www.w3.org/2000/svg"
   xmlns="http://www.w3.org/2000/svg"
   xmlns:sodipodi="http://sodipodi.sourceforge.net/DTD/sodipodi-0.dtd"
   xmlns:inkscape="http://www.inkscape.org/namespaces/inkscape"
   id="svg7384"
   height="16"
   width="16"
   version="1.1"
   inkscape:version="0.91 r13725"
   sodipodi:docname="network-wireless-connected-symbolic.svg">
  <defs
     id="defs313969" />
  <sodipodi:namedview
     pagecolor="#ffffff"
     bordercolor="#666666"
     borderopacity="1"
     objecttolerance="10"
     gridtolerance="10"
     guidetolerance="10"
     inkscape:pageopacity="0"
     inkscape:pageshadow="2"
     inkscape:window-width="640"
     inkscape:window-height="480"
     id="namedview313967" />
  <metadata
     id="metadata90">
    <rdf:RDF>
      <cc:Work
         rdf:about="">
        <dc:format>image/svg+xml</dc:format>
        <dc:type
           rdf:resource="http://purl.org/dc/dcmitype/StillImage" />
        <dc:title>Gnome Symbolic Icon Theme</dc:title>
      </cc:Work>
    </rdf:RDF>
  </metadata>
  <title
     id="title9167">Gnome Symbolic Icon Theme</title>
  <g
     id="layer9"
     transform="translate(-161 -177)">
    <path
       id="path4194"
       style="fill:#bebebe"
       d="m29 209a1 1 0 1 1 -2 0 1 1 0 1 1 2 0z"
       transform="matrix(1.5 0 0 1.5 126.5 -124)" />
    <path
       id="path4196"
       style="opacity:.35;color:#000000;fill:#bebebe"
       d="m168 179.03v0.96875h1v-0.9375c-0.33513-0.0249-0.66549-0.04-1-0.0312zm1 0.96875v1h1v-1zm1 0h1v-0.59375c-0.32368-0.0906-0.66802-0.16063-1-0.21875zm1 0v1h1v-1zm1 0h0.5625c-0.18106-0.0863-0.3754-0.17503-0.5625-0.25zm0 1v1h1v-1zm1 0h1v-0.125c-0.32384-0.24122-0.64126-0.46102-1-0.65625zm1 0v1h0.96875v-0.3125c-0.23982-0.24809-0.50857-0.47247-0.78125-0.6875zm0 1h-1v1h1zm0 1zm-1 0h-1v1h1zm0 1zm-1 0h-1v1h1zm0 1zm-1 0h-1v1h1zm0 1zm-1 0h-1v0.9375h1zm-1 0v-1h-1v1zm-1 0h-1v0.9375h1zm-1 0v-1h-1v1zm-1 0zm0-1v-1h-1v1zm-1 0zm0-1v-1h-1v1zm-1 0zm0-1v-1h-1v1zm-1 0zm0-1v-1h-0.28125c-0.22994 0.20986-0.45439 0.44281-0.65625 0.6875v0.3125zm0-1h1v-0.9375c-0.35691 0.20127-0.68209 0.45781-1 0.71875zm1 0v1h1v-1zm1 0h1v-1h-1zm0-1v-0.40625c-0.307 0.11822-0.58708 0.25092-0.875 0.40625zm1 0h1v-0.875c-0.33626 0.0441-0.67368 0.0756-1 0.15625zm1 0v1h1v-1zm1 1v1h1v-1zm1 1v1h1v-1zm1 0h1v-1h-1zm1 0v1h1v-1zm0 1h-1v1h1zm-1 1h-1v1h1zm-1 0v-1h-1v1zm-1 0h-1v1h1zm-1 0v-1h-1v1zm-1-1v-1h-1v1zm0-1h1v-1h-1zm1 0v1h1v-1z" />
  </g>
</svg>
