<?xml version="1.0" encoding="UTF-8" standalone="no"?>
<!-- Created with Inkscape (http://www.inkscape.org/) -->

<svg
   xmlns:dc="http://purl.org/dc/elements/1.1/"
   xmlns:cc="http://creativecommons.org/ns#"
   xmlns:rdf="http://www.w3.org/1999/02/22-rdf-syntax-ns#"
   xmlns:svg="http://www.w3.org/2000/svg"
   xmlns="http://www.w3.org/2000/svg"
   xmlns:sodipodi="http://sodipodi.sourceforge.net/DTD/sodipodi-0.dtd"
   xmlns:inkscape="http://www.inkscape.org/namespaces/inkscape"
   width="16"
   height="16"
   id="svg2"
   version="1.1"
   inkscape:version="0.91 r13725"
   sodipodi:docname="nm-device-wired.svg">
  <defs
     id="defs4" />
  <sodipodi:namedview
     id="base"
     pagecolor="#ffffff"
     bordercolor="#666666"
     borderopacity="1.0"
     inkscape:pageopacity="0.0"
     inkscape:pageshadow="2"
     inkscape:zoom="5.7812503"
     inkscape:cx="14.703662"
     inkscape:cy="13.848453"
     inkscape:document-units="px"
     inkscape:current-layer="svg2"
     showgrid="false"
     inkscape:window-width="944"
     inkscape:window-height="549"
     inkscape:window-x="411"
     inkscape:window-y="154"
     inkscape:window-maximized="0" />
  <metadata
     id="metadata7">
    <rdf:RDF>
      <cc:Work
         rdf:about="">
        <dc:format>image/svg+xml</dc:format>
        <dc:type
           rdf:resource="http://purl.org/dc/dcmitype/StillImage" />
        <dc:title />
      </cc:Work>
    </rdf:RDF>
  </metadata>
  <path
     style="fill:#c8c8c8;fill-opacity:1;fill-rule:nonzero;stroke:none"
     d="M 9.5999996,12 6.4,12 l 0,1 -3.9,0 0,1.5 3.9,0 3.1999996,0 3.9000004,0 0,-1.5 -3.9000004,0 z"
     id="rect2823"
     sodipodi:nodetypes="ccccccccccc"
     inkscape:connector-curvature="0" />
  <path
     style="fill:#bebebe;fill-opacity:1;stroke:none"
     d="M 1.1e-7,5.4016 1.2121339,6.76 C 4.9609623,2.5586 11.039039,2.5586 14.787866,6.76 L 16,5.4016 C 11.581738,0.4499 4.4182621,0.4499 0,5.4016 Z"
     id="path2871"
     inkscape:connector-curvature="0" />
  <path
     style="fill:#bebebe;fill-opacity:1;stroke:none"
     d="m 2.4242677,7.4921 1.2121338,1.3584 c 2.4099613,-2.7008 6.3172351,-2.7008 8.7273165,0 L 13.575732,7.4921 C 10.496338,4.041 5.5036625,4.041 2.4242675,7.4921 Z"
     id="path3647"
     inkscape:connector-curvature="0" />
  <path
     style="fill:#bebebe;fill-opacity:1;stroke:none"
     d="M 4.8485357,9.6416 6.0606693,11 C 7.1317632,9.7997 8.8683562,9.7997 9.9394506,11 L 11.151584,9.6416 C 9.4110565,7.691 6.5890629,7.691 4.8485357,9.6416 Z"
     id="path3651"
     inkscape:connector-curvature="0" />
</svg>
