<?xml version="1.0" encoding="UTF-8" standalone="no"?>
<!-- Created with Inkscape (http://www.inkscape.org/) -->

<svg
   xmlns:dc="http://purl.org/dc/elements/1.1/"
   xmlns:cc="http://creativecommons.org/ns#"
   xmlns:rdf="http://www.w3.org/1999/02/22-rdf-syntax-ns#"
   xmlns:svg="http://www.w3.org/2000/svg"
   xmlns="http://www.w3.org/2000/svg"
   xmlns:sodipodi="http://sodipodi.sourceforge.net/DTD/sodipodi-0.dtd"
   xmlns:inkscape="http://www.inkscape.org/namespaces/inkscape"
   width="16"
   height="16"
   id="svg2"
   version="1.1"
   inkscape:version="0.91 r13725"
   sodipodi:docname="nm-no-connection.svg">
  <defs
     id="defs4" />
  <sodipodi:namedview
     id="base"
     pagecolor="#ffffff"
     bordercolor="#666666"
     borderopacity="1.0"
     inkscape:pageopacity="0.0"
     inkscape:pageshadow="2"
     inkscape:zoom="8.1759222"
     inkscape:cx="15.98411"
     inkscape:cy="4.0708086"
     inkscape:document-units="px"
     inkscape:current-layer="svg2"
     showgrid="false"
     inkscape:window-width="944"
     inkscape:window-height="549"
     inkscape:window-x="411"
     inkscape:window-y="154"
     inkscape:window-maximized="0" />
  <metadata
     id="metadata7">
    <rdf:RDF>
      <cc:Work
         rdf:about="">
        <dc:format>image/svg+xml</dc:format>
        <dc:type
           rdf:resource="http://purl.org/dc/dcmitype/StillImage" />
        <dc:title />
      </cc:Work>
    </rdf:RDF>
  </metadata>
  <path
     style="fill:#c8c8c8;fill-opacity:1;fill-rule:nonzero;stroke:none"
     d="m 9.5999993,12 -3.199999,0 0,1 -3.9,0 0,1.5 3.9,0 3.199999,0 3.9000007,0 0,-1.5 -3.9000007,0 z"
     id="rect2823"
     sodipodi:nodetypes="ccccccccccc"
     inkscape:connector-curvature="0" />
  <path
     style="fill:#bebebe;fill-opacity:1;stroke:none"
     d="m 1e-7,5.4016001 1.2121338,1.3584 c 3.7488284,-4.2014 9.8269051,-4.2014 13.5757321,0 L 16,5.4016001 c -4.418262,-4.9517 -11.5817377,-4.9517 -16,0 z"
     id="path2871"
     inkscape:connector-curvature="0" />
  <path
     style="fill:#bebebe;fill-opacity:1;stroke:none"
     d="M 2.4242673,7.4921001 3.6364013,8.8505 c 2.409962,-2.7007999 6.317236,-2.7007999 8.7273167,0 l 1.212014,-1.3583999 c -3.079394,-3.4511 -8.0720697,-3.4511 -11.1514647,0 z"
     id="path3647"
     inkscape:connector-curvature="0" />
  <path
     style="fill:#bebebe;fill-opacity:1;stroke:none"
     d="M 4.8485353,9.6416 6.0606693,11 c 1.071094,-1.2003 2.807687,-1.2003 3.878782,0 L 11.151584,9.6416 c -1.7405277,-1.9505999 -4.5625207,-1.9505999 -6.3030487,0 z"
     id="path3651"
     inkscape:connector-curvature="0" />
  <path
     inkscape:connector-curvature="0"
     style="fill:#000000;fill-opacity:1;stroke:none"
     d="m 9.4000003,8.0000001 -1.4,1.3999999 2.1000007,2.1 -2.1000007,2.1 1.4,1.4 L 11.5,12.9 13.600001,15 15,13.6 12.900001,11.5 15,9.4 13.600001,8.0000001 11.5,10.1 9.4000003,8.0000001 Z"
     id="path2444" />
  <rect
     style="fill:#9d1919;fill-opacity:1;stroke:none"
     id="rect2442"
     width="7"
     height="7.000001"
     x="8"
     y="7.9999824"
     class="error" />
  <path
     inkscape:connector-curvature="0"
     style="fill:#ffffff;fill-opacity:1;stroke:none"
     d="m 9.9893613,8.9823 -1.007092,1.0071 1.5106397,1.5106 -1.5106397,1.5106 1.007092,1.0072 1.5106397,-1.5106 1.510641,1.5106 1.007092,-1.0072 L 12.507096,11.5 14.017734,9.9894 13.010642,8.9823 11.500001,10.4929 9.9893623,8.9823 Z"
     id="path2444-5" />
</svg>
