<?xml version="1.0" encoding="UTF-8" standalone="no"?>
<!-- Created with Inkscape (http://www.inkscape.org/) -->

<svg
   xmlns:dc="http://purl.org/dc/elements/1.1/"
   xmlns:cc="http://creativecommons.org/ns#"
   xmlns:rdf="http://www.w3.org/1999/02/22-rdf-syntax-ns#"
   xmlns:svg="http://www.w3.org/2000/svg"
   xmlns="http://www.w3.org/2000/svg"
   xmlns:sodipodi="http://sodipodi.sourceforge.net/DTD/sodipodi-0.dtd"
   xmlns:inkscape="http://www.inkscape.org/namespaces/inkscape"
   id="svg7384"
   height="16"
   width="16"
   version="1.1"
   inkscape:version="0.91 r13725"
   sodipodi:docname="preferences-desktop-accessibility-symbolic.svg">
  <defs
     id="defs9" />
  <sodipodi:namedview
     pagecolor="#ffffff"
     bordercolor="#666666"
     borderopacity="1"
     objecttolerance="10"
     gridtolerance="10"
     guidetolerance="10"
     inkscape:pageopacity="0"
     inkscape:pageshadow="2"
     inkscape:window-width="1089"
     inkscape:window-height="770"
     id="namedview7"
     showgrid="false"
     inkscape:zoom="14.75"
     inkscape:cx="-1.1525424"
     inkscape:cy="8"
     inkscape:window-x="0"
     inkscape:window-y="23"
     inkscape:window-maximized="0"
     inkscape:current-layer="svg7384" />
  <title
     id="title9167">Gnome Symbolic Icon Theme</title>
  <metadata
     id="metadata90">
    <rdf:RDF>
      <cc:Work
         rdf:about="">
        <dc:format>image/svg+xml</dc:format>
        <dc:type
           rdf:resource="http://purl.org/dc/dcmitype/StillImage" />
        <dc:title>Gnome Symbolic Icon Theme</dc:title>
      </cc:Work>
    </rdf:RDF>
  </metadata>
  <g
     id="layer11"
     transform="matrix(0.875,0,0,0.875,-35.735125,-332.375)">
    <path
       id="path3850"
       style="fill:#bebebe"
       d="m 49.983,381 c -4.4183,0 -8,3.5817 -8,8 0,4.4183 3.5817,8 8,8 4.4183,0 8,-3.5817 8,-8 0,-4.4183 -3.5817,-8 -8,-8 z m 0,1.9432 c 1.1213,0 2.0301,0.9088 2.0301,2.0301 0,1.1213 -0.9088,2.0301 -2.0301,2.0301 -1.1213,0 -2.0301,-0.9088 -2.0301,-2.0301 0,-1.1213 0.9088,-2.0301 2.0301,-2.0301 z m -4.7974,4.1202 c 3.2067,-0.0458 6.4129,-0.0154 9.6195,0.0113 0,0 0.43092,-0.008 0.43092,0.42408 v 0.20861 c 0,0.23 -0.236,0.29 -0.236,0.29 l -2.9852,0.57817 v 2.1109 l 1.3547,3.9064 c 0.1368,0.22572 -0.15839,0.2902 -0.15839,0.2902 l -0.5265,0.005 c -0.25317,0 -0.34809,-0.21303 -0.34809,-0.21303 l -2.0718,-3.5916 c -0.22228,-0.5041 -0.23617,-0.43981 -0.44654,7.7e-4 l -2.1689,3.5862 c -0.07254,0.21764 -0.3556,0.22239 -0.3556,0.22239 l -0.5703,-0.009 c 0,0 -0.20848,-0.006 -0.16065,-0.20918 l 1.3875,-3.9888 v -2.1109 l -2.8919,-0.5548 c -0.23245,-0.0787 -0.32884,-0.29434 -0.32884,-0.29434 v -0.21764 c 0,0 -0.0097,-0.44343 0.45567,-0.44343 z"
       inkscape:connector-curvature="0" />
  </g>
</svg>
