<?xml version="1.0" encoding="UTF-8" standalone="no"?>
<!-- Created with Inkscape (http://www.inkscape.org/) -->

<svg
   xmlns:dc="http://purl.org/dc/elements/1.1/"
   xmlns:cc="http://creativecommons.org/ns#"
   xmlns:rdf="http://www.w3.org/1999/02/22-rdf-syntax-ns#"
   xmlns:svg="http://www.w3.org/2000/svg"
   xmlns="http://www.w3.org/2000/svg"
   xmlns:sodipodi="http://sodipodi.sourceforge.net/DTD/sodipodi-0.dtd"
   xmlns:inkscape="http://www.inkscape.org/namespaces/inkscape"
   id="svg7384"
   height="16"
   width="16"
   version="1.1"
   inkscape:version="0.91 r13725"
   sodipodi:docname="software-update-urgent-symbolic.svg">
  <defs
     id="defs314145" />
  <sodipodi:namedview
     pagecolor="#ffffff"
     bordercolor="#666666"
     borderopacity="1"
     objecttolerance="10"
     gridtolerance="10"
     guidetolerance="10"
     inkscape:pageopacity="0"
     inkscape:pageshadow="2"
     inkscape:window-width="640"
     inkscape:window-height="480"
     id="namedview314143" />
  <metadata
     id="metadata90">
    <rdf:RDF>
      <cc:Work
         rdf:about="">
        <dc:format>image/svg+xml</dc:format>
        <dc:type
           rdf:resource="http://purl.org/dc/dcmitype/StillImage" />
        <dc:title>Gnome Symbolic Icon Theme</dc:title>
      </cc:Work>
    </rdf:RDF>
  </metadata>
  <title
     id="title9167">Gnome Symbolic Icon Theme</title>
  <g
     id="layer9"
     transform="translate(-181 -257)">
    <path
       id="path16909"
       style="enable-background:new;fill:#f57900;fill-rule:evenodd"
       d="m189 257.06-2.2647 3.4125-3.4125-1.1478 1.1478 3.4125-3.4125 2.2647 3.4125 2.2647-1.1478 3.4125 3.4125-1.1478 2.2647 3.4125 2.2647-3.4125 3.4125 1.1478-1.1478-3.4125 3.4125-2.2647-3.4125-2.2647 1.1478-3.4125-3.4125 1.1478zm-0.99273 4.033h1.9855v4.9326h-1.9855zm1.0238 5.6462c0.70247 0 1.2719 0.56947 1.2719 1.2719 0 0.70247-0.56947 1.2719-1.2719 1.2719-0.70247 0-1.2719-0.56947-1.2719-1.2719 0-0.70247 0.56947-1.2719 1.2719-1.2719z"
       class="warning" />
  </g>
</svg>
