<?xml version="1.0" encoding="UTF-8" standalone="no"?>
<!-- Created with Inkscape (http://www.inkscape.org/) -->

<svg
   xmlns:dc="http://purl.org/dc/elements/1.1/"
   xmlns:cc="http://creativecommons.org/ns#"
   xmlns:rdf="http://www.w3.org/1999/02/22-rdf-syntax-ns#"
   xmlns:svg="http://www.w3.org/2000/svg"
   xmlns="http://www.w3.org/2000/svg"
   xmlns:sodipodi="http://sodipodi.sourceforge.net/DTD/sodipodi-0.dtd"
   xmlns:inkscape="http://www.inkscape.org/namespaces/inkscape"
   id="svg3181"
   height="16"
   width="16"
   version="1.0"
   inkscape:version="0.91 r13725"
   sodipodi:docname="stock_weather-fog.svg">
  <defs
     id="defs8" />
  <sodipodi:namedview
     pagecolor="#ffffff"
     bordercolor="#666666"
     borderopacity="1"
     objecttolerance="10"
     gridtolerance="10"
     guidetolerance="10"
     inkscape:pageopacity="0"
     inkscape:pageshadow="2"
     inkscape:window-width="640"
     inkscape:window-height="480"
     id="namedview6" />
  <metadata
     id="metadata8">
    <rdf:RDF>
      <cc:Work
         rdf:about="">
        <dc:format>image/svg+xml</dc:format>
        <dc:type
           rdf:resource="http://purl.org/dc/dcmitype/StillImage" />
        <dc:title />
      </cc:Work>
    </rdf:RDF>
  </metadata>
  <path
     id="path3645-5"
     style="opacity:.3;stroke-width:1.5;stroke:#000;stroke-linecap:round;fill:none"
     d="m2.5 13c1.5-1.5 3.5-1.5 5.5 0 2.0669 1.5502 4 1.5 5.5 0.000002m-11-3.9999c1.5-1.5 3.5-1.5 5.5 0 2.0669 1.5502 4 1.5 5.5 0.000001m-11-4c1.5-1.5 3.5-1.5 5.5 0 2.0669 1.5502 4 1.5 5.5 0" />
  <path
     id="path3645"
     style="stroke-width:1.5;stroke:#dfdbd2;stroke-linecap:round;fill:none"
     d="m2.5 12c1.5-1.5 3.5-1.5 5.5 0 2.0669 1.5502 4 1.5 5.5 0.000002m-11-3.9999c1.5-1.5 3.5-1.5 5.5 0 2.0669 1.5502 4 1.5 5.5 0.000001m-11-4c1.5-1.5 3.5-1.5 5.5 0 2.0669 1.5502 4 1.5 5.5 0" />
</svg>
