<?xml version="1.0" encoding="UTF-8" standalone="no"?>
<!-- Created with Inkscape (http://www.inkscape.org/) -->

<svg
   xmlns:dc="http://purl.org/dc/elements/1.1/"
   xmlns:cc="http://creativecommons.org/ns#"
   xmlns:rdf="http://www.w3.org/1999/02/22-rdf-syntax-ns#"
   xmlns:svg="http://www.w3.org/2000/svg"
   xmlns="http://www.w3.org/2000/svg"
   xmlns:sodipodi="http://sodipodi.sourceforge.net/DTD/sodipodi-0.dtd"
   xmlns:inkscape="http://www.inkscape.org/namespaces/inkscape"
   id="svg7384"
   height="16"
   width="16"
   version="1.1"
   inkscape:version="0.91 r13725"
   sodipodi:docname="weather-clouds-night-symbolic.svg">
  <defs
     id="defs12" />
  <sodipodi:namedview
     pagecolor="#ffffff"
     bordercolor="#666666"
     borderopacity="1"
     objecttolerance="10"
     gridtolerance="10"
     guidetolerance="10"
     inkscape:pageopacity="0"
     inkscape:pageshadow="2"
     inkscape:window-width="1003"
     inkscape:window-height="597"
     id="namedview10"
     showgrid="false"
     inkscape:zoom="20.85965"
     inkscape:cx="7.9226218"
     inkscape:cy="7.647711"
     inkscape:window-x="163"
     inkscape:window-y="23"
     inkscape:window-maximized="0"
     inkscape:current-layer="layer9" />
  <metadata
     id="metadata90">
    <rdf:RDF>
      <cc:Work
         rdf:about="">
        <dc:format>image/svg+xml</dc:format>
        <dc:type
           rdf:resource="http://purl.org/dc/dcmitype/StillImage" />
        <dc:title>Gnome Symbolic Icon Theme</dc:title>
      </cc:Work>
    </rdf:RDF>
  </metadata>
  <title
     id="title9167">Gnome Symbolic Icon Theme</title>
  <g
     id="layer9"
     transform="translate(-141,-277)">
    <path
       style="fill:#bebebe;fill-opacity:1;fill-rule:nonzero;stroke:none"
       d="M 5.65625 2.4375 C 3.13497 2.69356 1.15625 4.84866 1.15625 7.4375 C 1.15625 8.38189 1.42187 9.24937 1.875 10 C 1.9257 9.996 1.97957 10 2.03125 10 C 2.09015 10 2.13105 10.02625 2.1875 10.03125 C 2.1835 9.97525 2.15625 9.93345 2.15625 9.875 C 2.15625 8.21703 3.4983 6.875 5.15625 6.875 L 5.1875 6.875 L 5.25 6.875 L 5.3125 6.90625 C 5.3232 6.90675 5.33305 6.90565 5.34375 6.90625 C 5.62306 6.92205 5.87999 7.00385 6.125 7.09375 C 6.2174 7.03505 6.30756 6.98618 6.40625 6.9375 C 6.95518 6.27928 7.73424 5.90625 8.625 5.90625 C 8.7028 5.89925 8.77899 5.89495 8.8125 5.90625 C 9.7463 5.96465 10.51933 6.49183 11.03125 7.25 C 11.07115 7.2339 11.11605 7.23505 11.15625 7.21875 C 11.04547 4.55536 8.84686 2.4375 6.15625 2.4375 C 5.98366 2.4375 5.82434 2.4204 5.65625 2.4375 z M 6.40625 3.40625 C 6.98662 3.40625 7.46875 3.88837 7.46875 4.46875 C 7.46875 5.04913 6.98662 5.53125 6.40625 5.53125 C 5.82588 5.53125 5.375 5.04913 5.375 4.46875 C 5.375 3.88837 5.82588 3.40625 6.40625 3.40625 z M 3.375 4.84375 C 3.80559 4.84375 4.15625 5.19441 4.15625 5.625 C 4.15625 6.05559 3.80559 6.40625 3.375 6.40625 C 2.94441 6.40625 2.59375 6.05559 2.59375 5.625 C 2.59375 5.19441 2.94441 4.84375 3.375 4.84375 z "
       transform="translate(141,277)"
       id="path2989" />
    <path
       style="color:#000000;fill:#bebebe;stroke:none"
       d="m 149.62932,283.52667 c -0.73366,0 -1.39421,0.34682 -1.875,0.875 0.2875,0.19682 0.54107,0.43593 0.75,0.71875 0.24708,-0.0903 0.49166,-0.1875 0.78125,-0.1875 1.27299,0 2.26356,0.98262 2.40625,2.21875 0.91481,0.16727 1.65625,0.88264 1.65625,1.84375 0,0.30964 0.12167,0.40378 0.29776,0.34927 0.46126,-0.14279 1.29599,-1.30548 1.29599,-2.28677 0,-1.28962 -0.95114,-2.34375 -2.125,-2.34375 -0.33552,0 -0.65533,0.0979 -0.9375,0.25 -0.45696,-0.85226 -1.28292,-1.4375 -2.25,-1.4375 z"
       id="path5094-5-03-1-6"
       inkscape:connector-curvature="0"
       sodipodi:nodetypes="sccsccscscs" />
    <path
       style="color:#000000;fill:#f4f4f4;fill-opacity:1"
       d="M 5.15625 7.28125 C 3.71448 7.28125 2.5625 8.43322 2.5625 9.875 C 2.5625 10.10307 2.60135 10.32038 2.65625 10.53125 C 2.46828 10.45825 2.25053 10.40625 2.03125 10.40625 C 1.16617 10.40625 0.46875 11.10368 0.46875 11.96875 C 0.46875 12.83383 1.16617 13.5625 2.03125 13.5625 L 10.375 13.5625 C 11.106714 13.5625 11.702914 13.053187 11.875 12.375 C 11.872007 12.365475 11.87762 12.353305 11.875 12.34375 C 11.844606 12.232909 11.84375 12.110155 11.84375 12 C 11.84375 11.29604 11.30746 10.78675 10.59375 10.65625 L 10.25 10.5625 L 10.1875 10.21875 C 10.07158 9.2145 9.29694 8.4375 8.28125 8.4375 C 8.10354 8.4375 7.94331 8.50025 7.6875 8.59375 L 7.3125 8.71875 L 7.09375 8.40625 C 6.91967 8.17061 6.71357 7.9801 6.46875 7.8125 L 6 7.5 L 6.03125 7.46875 C 5.75717 7.3681082 5.4675421 7.28125 5.15625 7.28125 z "
       transform="translate(141,277)"
       id="path3867" />
  </g>
</svg>
