<?xml version="1.0" encoding="UTF-8" standalone="no"?>
<!-- Created with Inkscape (http://www.inkscape.org/) -->

<svg
   xmlns:dc="http://purl.org/dc/elements/1.1/"
   xmlns:cc="http://creativecommons.org/ns#"
   xmlns:rdf="http://www.w3.org/1999/02/22-rdf-syntax-ns#"
   xmlns:svg="http://www.w3.org/2000/svg"
   xmlns="http://www.w3.org/2000/svg"
   xmlns:sodipodi="http://sodipodi.sourceforge.net/DTD/sodipodi-0.dtd"
   xmlns:inkscape="http://www.inkscape.org/namespaces/inkscape"
   id="svg7384"
   height="16"
   width="16"
   version="1.1"
   inkscape:version="0.91 r13725"
   sodipodi:docname="weather-showers-symbolic.svg">
  <defs
     id="defs4541" />
  <sodipodi:namedview
     pagecolor="#ffffff"
     bordercolor="#666666"
     borderopacity="1"
     objecttolerance="10"
     gridtolerance="10"
     guidetolerance="10"
     inkscape:pageopacity="0"
     inkscape:pageshadow="2"
     inkscape:window-width="1078"
     inkscape:window-height="643"
     id="namedview4539"
     showgrid="false"
     inkscape:zoom="14.75"
     inkscape:cx="-1.1525424"
     inkscape:cy="8"
     inkscape:window-x="0"
     inkscape:window-y="23"
     inkscape:window-maximized="0"
     inkscape:current-layer="svg7384" />
  <metadata
     id="metadata90">
    <rdf:RDF>
      <cc:Work
         rdf:about="">
        <dc:format>image/svg+xml</dc:format>
        <dc:type
           rdf:resource="http://purl.org/dc/dcmitype/StillImage" />
        <dc:title>Gnome Symbolic Icon Theme</dc:title>
      </cc:Work>
    </rdf:RDF>
  </metadata>
  <title
     id="title9167">Gnome Symbolic Icon Theme</title>
  <g
     id="layer9"
     transform="matrix(0.81931568,0,0,0.81931568,-179.60498,-225.49873)">
    <path
       id="path5094-5-04-4-6-4"
       style="color:#000000;fill:#bebebe"
       d="m 230.47,277 c -1.2731,0 -2.3072,0.97301 -2.4482,2.2188 -0.33,-0.12 -0.66,-0.22 -1.03,-0.22 -1.6431,0 -2.9751,1.3432 -2.9751,3 0,0.0982 0.0218,0.1855 0.0309,0.28125 -0.3,-0.18 -0.65,-0.28 -1.02,-0.28 -1.0954,0 -1.9834,0.89543 -1.9834,2 0,1.10457 0.888,2 1.9834,2 h 12.396 c 0.82155,0 1.4875,-0.67157 1.4875,-1.5 0,-0.82843 -0.66599,-1.5 -1.4875,-1.5 -0.20539,0 -0.41085,0.0491 -0.58882,0.125 0.0522,-0.20194 0.0929,-0.40658 0.0929,-0.625 0,-1.2294 -0.88592,-2.2282 -2.0454,-2.4375 0.0416,-0.18136 0.062,-0.36843 0.062,-0.5625 0,-1.3807 -1.11,-2.5 -2.4792,-2.5 z"
       inkscape:connector-curvature="0" />
    <path
       id="path6561-2"
       style="text-indent:0;text-transform:none;block-progression:tb;color:#000000;fill:#bebebe"
       d="m 223.41,287 a 0.49617,0.49617 0 0 0 -0.41,0.41 l -1,4.9062 a 0.49617,0.49617 0 1 0 0.96875,0.1875 l 1,-4.9062 a 0.49617,0.49617 0 0 0 -0.56,-0.6 z"
       inkscape:connector-curvature="0" />
    <path
       id="use6826"
       style="text-indent:0;text-transform:none;block-progression:tb;color:#000000;fill:#bebebe"
       d="m 225.41,287 a 0.49617,0.49617 0 0 0 -0.41,0.41 l -1,4.9062 a 0.49617,0.49617 0 1 0 0.96875,0.1875 l 1.03,-4.92 a 0.49617,0.49617 0 0 0 -0.59,-0.59 z"
       inkscape:connector-curvature="0" />
    <path
       id="use6826-1"
       style="text-indent:0;text-transform:none;block-progression:tb;color:#000000;fill:#bebebe"
       d="m 227.41,287 a 0.49617,0.49617 0 0 0 -0.41,0.41 l -1,4.9062 a 0.50871314,0.50871314 0 1 0 1,0.1875 l 1,-4.9062 a 0.49617,0.49617 0 0 0 -0.59,-0.6 z"
       inkscape:connector-curvature="0" />
    <path
       id="use6826-1-0"
       style="text-indent:0;text-transform:none;block-progression:tb;color:#000000;fill:#bebebe"
       d="m 229.41,287 a 0.49617,0.49617 0 0 0 -0.41,0.41 l -1,4.9062 a 0.50871314,0.50871314 0 1 0 1,0.1875 l 1,-4.9062 a 0.49617,0.49617 0 0 0 -0.59,-0.6 z"
       inkscape:connector-curvature="0" />
    <path
       id="use6826-1-0-0"
       style="text-indent:0;text-transform:none;block-progression:tb;color:#000000;fill:#bebebe"
       d="m 231.41,287 a 0.49617,0.49617 0 0 0 -0.375,0.40625 l -1.04,4.9 a 0.50871314,0.50871314 0 1 0 1,0.1875 l 1,-4.9062 a 0.49617,0.49617 0 0 0 -0.59,-0.59 z"
       inkscape:connector-curvature="0" />
    <path
       id="use6826-1-0-0-6"
       style="text-indent:0;text-transform:none;block-progression:tb;color:#000000;fill:#bebebe"
       d="m 233.41,287 a 0.49617,0.49617 0 0 0 -0.375,0.40625 l -1,4.9062 a 0.49617,0.49617 0 1 0 0.96,0.18 l 1,-4.9062 a 0.49617,0.49617 0 0 0 -0.59,-0.59 z"
       inkscape:connector-curvature="0" />
  </g>
</svg>
