<?xml version="1.0" encoding="UTF-8" standalone="no"?>
<!-- Created with Inkscape (http://www.inkscape.org/) -->

<svg
   xmlns:dc="http://purl.org/dc/elements/1.1/"
   xmlns:cc="http://creativecommons.org/ns#"
   xmlns:rdf="http://www.w3.org/1999/02/22-rdf-syntax-ns#"
   xmlns:svg="http://www.w3.org/2000/svg"
   xmlns="http://www.w3.org/2000/svg"
   xmlns:sodipodi="http://sodipodi.sourceforge.net/DTD/sodipodi-0.dtd"
   xmlns:inkscape="http://www.inkscape.org/namespaces/inkscape"
   id="svg7384"
   height="16"
   width="16"
   version="1.1"
   inkscape:version="0.91 r13725"
   sodipodi:docname="weather-severe-alert-symbolic.svg">
  <defs
     id="defs4596" />
  <sodipodi:namedview
     pagecolor="#ffffff"
     bordercolor="#666666"
     borderopacity="1"
     objecttolerance="10"
     gridtolerance="10"
     guidetolerance="10"
     inkscape:pageopacity="0"
     inkscape:pageshadow="2"
     inkscape:window-width="1312"
     inkscape:window-height="749"
     id="namedview4594"
     showgrid="false"
     inkscape:zoom="29.5"
     inkscape:cx="3.7375412"
     inkscape:cy="7.7970149"
     inkscape:window-x="0"
     inkscape:window-y="23"
     inkscape:window-maximized="0"
     inkscape:current-layer="layer9" />
  <metadata
     id="metadata90">
    <rdf:RDF>
      <cc:Work
         rdf:about="">
        <dc:format>image/svg+xml</dc:format>
        <dc:type
           rdf:resource="http://purl.org/dc/dcmitype/StillImage" />
        <dc:title>Gnome Symbolic Icon Theme</dc:title>
      </cc:Work>
    </rdf:RDF>
  </metadata>
  <title
     id="title9167">Gnome Symbolic Icon Theme</title>
  <g
     id="layer9"
     transform="matrix(0.81491418,0,0,0.81491418,-146.00142,-225.04916)">
    <path
       id="path5094-5-04-4-6-4-8-1"
       style="color:#000000;fill:#bebebe"
       d="m 189.29619,278.84197 c -1.2838,0 -2.3266,0.97301 -2.4688,2.2188 -0.33,-0.12 -0.66,-0.22 -1.03,-0.22 -1.6568,0 -3,1.3432 -3,3 0,0.0982 0.0221,0.1855 0.0312,0.28125 -0.3,-0.18 -0.66,-0.28 -1.03,-0.28 -1.1046,0 -2,0.89543 -2,2 0,1.10457 0.89543,2 2,2 h 5 v -2.125 c 0,-1.0103 0.86465,-1.875 1.875,-1.875 h 5.0625 c -0.20912,-0.9858 -0.99904,-1.7583 -2,-1.9375 0.0419,-0.18136 0.0625,-0.36843 0.0625,-0.5625 0,-1.3807 -1.1193,-2.5 -2.5,-2.5 z"
       inkscape:connector-curvature="0" />
    <path
       id="path10898-2"
       style="color:#bebebe;fill:#f57900"
       d="m 188.82493,284.75289 c -0.6043,0 -1.07374,0.46945 -1.07374,1.07372 v 7.66952 c 0,0.60429 0.46944,1.07374 1.07374,1.07374 h 7.66952 c 0.6043,0 1.07372,-0.46945 1.07372,-1.07374 v -7.66952 c 0,-0.60427 -0.46942,-1.07372 -1.07372,-1.07372 h -7.66952 z m 2.60763,1.22712 h 2.45424 v 4.90849 h -2.45424 v -4.90849 z m 0,6.13561 h 2.45424 v 1.22713 h -2.45424 v -1.22713 z"
       class="warning"
       inkscape:connector-curvature="0" />
  </g>
</svg>
