<?xml version="1.0" encoding="UTF-8" standalone="no"?>
<!-- Created with Inkscape (http://www.inkscape.org/) -->

<svg
   xmlns:dc="http://purl.org/dc/elements/1.1/"
   xmlns:cc="http://creativecommons.org/ns#"
   xmlns:rdf="http://www.w3.org/1999/02/22-rdf-syntax-ns#"
   xmlns:svg="http://www.w3.org/2000/svg"
   xmlns="http://www.w3.org/2000/svg"
   xmlns:sodipodi="http://sodipodi.sourceforge.net/DTD/sodipodi-0.dtd"
   xmlns:inkscape="http://www.inkscape.org/namespaces/inkscape"
   id="svg7384"
   height="16"
   width="16"
   version="1.1"
   inkscape:version="0.91 r13725"
   sodipodi:docname="weather-storm-symbolic.svg">
  <defs
     id="defs5529" />
  <sodipodi:namedview
     pagecolor="#ffffff"
     bordercolor="#666666"
     borderopacity="1"
     objecttolerance="10"
     gridtolerance="10"
     guidetolerance="10"
     inkscape:pageopacity="0"
     inkscape:pageshadow="2"
     inkscape:window-width="718"
     inkscape:window-height="854"
     id="namedview5527"
     showgrid="false"
     inkscape:zoom="7.375"
     inkscape:cx="0.90501349"
     inkscape:cy="23.550858"
     inkscape:window-x="0"
     inkscape:window-y="23"
     inkscape:window-maximized="0"
     inkscape:current-layer="layer9" />
  <metadata
     id="metadata90">
    <rdf:RDF>
      <cc:Work
         rdf:about="">
        <dc:format>image/svg+xml</dc:format>
        <dc:type
           rdf:resource="http://purl.org/dc/dcmitype/StillImage" />
        <dc:title>Gnome Symbolic Icon Theme</dc:title>
      </cc:Work>
    </rdf:RDF>
  </metadata>
  <title
     id="title9167">Gnome Symbolic Icon Theme</title>
  <g
     id="layer9"
     transform="matrix(0.81596751,0,0,0.81596751,-211.5137,-224.55564)">
    <path
       id="path5094-5-04-4-6-4-1-4"
       style="color:#000000;fill:#bebebe"
       d="m 270.51,277.04 c -1.273,0 -2.307,0.9731 -2.448,2.219 -0.32401,-0.12209 -0.65635,-0.21877 -1.0226,-0.21877 -1.6429,0 -2.9748,1.3433 -2.9748,3.0003 0,0.0982 0.0219,0.18552 0.0309,0.28128 -0.29709,-0.17926 -0.65102,-0.28128 -1.0225,-0.28128 -1.0953,0 -1.9832,0.89552 -1.9832,2.0002 0,1.10468 0.88791,2.0002 1.9832,2.0002 h 4.989 v -1.5001 c -0.0163,-0.7855 0.67759,-1.5151 1.4564,-1.5314 0.79948,-0.0169 1.5351,0.72507 1.5184,1.5314 v 1.5001 h 4.4312 c 0.82146,0 1.4874,-0.67163 1.4874,-1.5001 0,-0.82851 -0.66593,-1.5001 -1.4874,-1.5001 -0.20538,0 -0.41082,0.0491 -0.58878,0.12501 0.0521,-0.20196 0.0929,-0.40662 0.0929,-0.62506 0,-1.2295 -0.88584,-2.2284 -2.0452,-2.4377 0.0416,-0.18137 0.062,-0.36846 0.062,-0.56255 0,-1.3808 -1.1099,-2.5002 -2.479,-2.5002 z"
       inkscape:connector-curvature="0" />
    <path
       id="path1891-5-8-3"
       style="text-indent:0;text-transform:none;block-progression:tb;color:#000000;fill:#bebebe;enable-background:new"
       d="m 269.41,283.94 a 0.49935,0.49935 0 0 0 -0.40625,0.5 v 2.5 h -2.4688 -0.5 v 0.5 1.5 h -1.5 -0.21875 l -0.15625,0.15625 -1.9688,2 a 0.49935,0.49935 0 1 0 0.6875,0.6875 l 1.8438,-1.8438 h 1.3125 v 2.5 a 0.5,0.5 0 0 0 1,0 v -2.9375 a 0.49935,0.49935 0 0 0 0,-0.125 v -1.4375 h 1.9688 v 0.5 0.21875 l 0.15625,0.125 1.8438,1.8438 v 1.8125 a 0.5,0.5 0 0 0 1,0 v -1.5 h 1.3125 l 1.8125,1.8438 a 0.49935,0.49935 0 1 0 0.71875,-0.6875 l -2,-2 -0.125,-0.15625 h -0.21875 -1.8125 l -1.6875,-1.7188 v -0.625 a 0.49935,0.49935 0 0 0 0,-0.3125 v -2.8438 a 0.49935,0.49935 0 0 0 -0.59375,-0.5 z"
       inkscape:connector-curvature="0" />
  </g>
</svg>
