<?xml version="1.0" encoding="UTF-8" standalone="no"?>
<!-- Created with Inkscape (http://www.inkscape.org/) -->

<svg
   xmlns:dc="http://purl.org/dc/elements/1.1/"
   xmlns:cc="http://creativecommons.org/ns#"
   xmlns:rdf="http://www.w3.org/1999/02/22-rdf-syntax-ns#"
   xmlns:svg="http://www.w3.org/2000/svg"
   xmlns="http://www.w3.org/2000/svg"
   xmlns:sodipodi="http://sodipodi.sourceforge.net/DTD/sodipodi-0.dtd"
   xmlns:inkscape="http://www.inkscape.org/namespaces/inkscape"
   id="svg7384"
   height="16"
   width="16"
   version="1.1"
   inkscape:version="0.91 r13725"
   sodipodi:docname="weather-few-clouds-night-symbolic.svg">
  <defs
     id="defs12" />
  <sodipodi:namedview
     pagecolor="#ffffff"
     bordercolor="#666666"
     borderopacity="1"
     objecttolerance="10"
     gridtolerance="10"
     guidetolerance="10"
     inkscape:pageopacity="0"
     inkscape:pageshadow="2"
     inkscape:window-width="1003"
     inkscape:window-height="597"
     id="namedview10"
     showgrid="false"
     inkscape:zoom="14.75"
     inkscape:cx="1.6193087"
     inkscape:cy="8"
     inkscape:window-x="60"
     inkscape:window-y="23"
     inkscape:window-maximized="0"
     inkscape:current-layer="layer9" />
  <metadata
     id="metadata90">
    <rdf:RDF>
      <cc:Work
         rdf:about="">
        <dc:format>image/svg+xml</dc:format>
        <dc:type
           rdf:resource="http://purl.org/dc/dcmitype/StillImage" />
        <dc:title>Gnome Symbolic Icon Theme</dc:title>
      </cc:Work>
    </rdf:RDF>
  </metadata>
  <title
     id="title9167">Gnome Symbolic Icon Theme</title>
  <g
     id="layer9"
     transform="translate(-141,-277)">
    <path
       style="fill:#bebebe;fill-opacity:1;fill-rule:nonzero;stroke:none"
       d="M 5.8125 2.59375 C 3.2912223 2.8497982 1.3125 5.0049 1.3125 7.59375 C 1.3125 9.04203 1.91623 10.3374 2.90625 11.25 C 3.17027 10.47305 3.91902 9.90625 4.78125 9.90625 C 4.82875 9.90625 4.86025 9.9334 4.90625 9.9375 C 4.90225 9.8817 4.875 9.8395 4.875 9.78125 C 4.875 8.12328 6.2483 6.78125 7.90625 6.78125 L 7.96875 6.78125 L 8.0625 6.8125 C 8.97454 6.8632 9.74041 7.34141 10.25 8.03125 C 10.49768 7.94055 10.74078 7.8125 11.03125 7.8125 C 11.12605 7.8125 11.22134 7.83275 11.3125 7.84375 C 11.3165 7.76235 11.3125 7.67575 11.3125 7.59375 C 11.3125 4.83232 9.07393 2.59375 6.3125 2.59375 C 6.1399113 2.59375 5.9805852 2.5766801 5.8125 2.59375 z M 6.5625 3.5625 C 7.142867 3.5625 7.625 4.044633 7.625 4.625 C 7.625 5.205367 7.142867 5.6875 6.5625 5.6875 C 5.982133 5.6875 5.53125 5.205367 5.53125 4.625 C 5.53125 4.044633 5.982133 3.5625 6.5625 3.5625 z M 3.53125 5.9375 C 4.2613892 5.9375 4.84375 6.5511108 4.84375 7.28125 C 4.84375 8.0113892 4.2613892 8.59375 3.53125 8.59375 C 2.8011108 8.59375 2.1875 8.0113892 2.1875 7.28125 C 2.1875 6.5511108 2.8011108 5.9375 3.53125 5.9375 z M 7.90625 7.5625 C 6.68066 7.5625 5.6875 8.55565 5.6875 9.78125 C 5.6875 9.85975 5.70505 9.94887 5.71875 10.03125 C 6.16128 9.05728 7.14358 8.375 8.28125 8.375 L 8.28125 8.40625 C 8.9289583 8.40625 9.5030444 8.6060412 9.96875 8.96875 L 9.78125 8.65625 C 9.39987 8.00878 8.71292 7.5625 7.90625 7.5625 z M 9.96875 8.96875 C 10.237997 9.1784497 10.479301 9.4496035 10.65625 9.75 C 10.72485 9.7163 10.80314 9.7155 10.875 9.6875 C 11.02759 9.35343 11.11439 8.99856 11.1875 8.625 C 11.136 8.62 11.08407 8.625 11.03125 8.625 C 10.7763 8.625 10.51809 8.6963 10.28125 8.8125 L 9.96875 8.96875 z M 4.78125 10.71875 C 4.16562 10.71875 3.67634 11.1803 3.625 11.78125 C 3.75648 11.86595 3.89202 11.95888 4.03125 12.03125 C 4.28799 11.873 4.58254 11.75 4.90625 11.75 C 5.14213 11.75 5.36032 11.8277 5.5625 11.90625 C 5.5035 11.67942 5.46875 11.43284 5.46875 11.1875 C 5.46875 11.0906 5.4903 11.00068 5.5 10.90625 L 5.25 10.8125 C 5.09512 10.7524 4.93692 10.71875 4.78125 10.71875 z "
       transform="translate(141,277)"
       id="path2989" />
    <path
       id="path5094-5-03-1-6"
       style="color:#000000;fill:#bebebe"
       d="m 148.89564,284.15107 c -1.44177,0 -2.61059,1.16881 -2.61059,2.61059 0,0.22807 0.043,0.44178 0.0979,0.65265 -0.18797,-0.073 -0.39682,-0.12532 -0.6161,-0.12532 -0.86508,0 -1.56635,0.70128 -1.56635,1.56636 0,0.86508 0.70127,1.56635 1.56635,1.56635 h 8.3539 c 0.86508,0 1.56635,-0.70127 1.56635,-1.56635 0,-0.86509 -0.70127,-1.56636 -1.56635,-1.56636 0,-1.15347 -0.93504,-2.08846 -2.08847,-2.08846 -0.32969,0 -0.63645,0.0924 -0.91372,0.22843 -0.44901,-0.76229 -1.26352,-1.27398 -2.21378,-1.27398 z"
       inkscape:connector-curvature="0" />
  </g>
</svg>
