<?xml version="1.0" encoding="UTF-8" standalone="no"?>
<!-- Created with Inkscape (http://www.inkscape.org/) -->

<svg
   xmlns:dc="http://purl.org/dc/elements/1.1/"
   xmlns:cc="http://creativecommons.org/ns#"
   xmlns:rdf="http://www.w3.org/1999/02/22-rdf-syntax-ns#"
   xmlns:svg="http://www.w3.org/2000/svg"
   xmlns="http://www.w3.org/2000/svg"
   xmlns:sodipodi="http://sodipodi.sourceforge.net/DTD/sodipodi-0.dtd"
   xmlns:inkscape="http://www.inkscape.org/namespaces/inkscape"
   id="svg7384"
   height="16"
   width="16"
   version="1.1"
   inkscape:version="0.91 r13725"
   sodipodi:docname="weather-snow-symbolic.svg">
  <defs
     id="defs4664" />
  <sodipodi:namedview
     pagecolor="#ffffff"
     bordercolor="#666666"
     borderopacity="1"
     objecttolerance="10"
     gridtolerance="10"
     guidetolerance="10"
     inkscape:pageopacity="0"
     inkscape:pageshadow="2"
     inkscape:window-width="1201"
     inkscape:window-height="801"
     id="namedview4662"
     showgrid="false"
     inkscape:zoom="14.75"
     inkscape:cx="-1.220339"
     inkscape:cy="8"
     inkscape:window-x="0"
     inkscape:window-y="23"
     inkscape:window-maximized="0"
     inkscape:current-layer="svg7384" />
  <metadata
     id="metadata90">
    <rdf:RDF>
      <cc:Work
         rdf:about="">
        <dc:format>image/svg+xml</dc:format>
        <dc:type
           rdf:resource="http://purl.org/dc/dcmitype/StillImage" />
        <dc:title>Gnome Symbolic Icon Theme</dc:title>
      </cc:Work>
    </rdf:RDF>
  </metadata>
  <title
     id="title9167">Gnome Symbolic Icon Theme</title>
  <g
     id="layer9"
     transform="matrix(0.81702581,0,0,0.81702581,-195.47969,-224.83028)">
    <path
       id="path5094-5-04-4-6-4-1"
       style="color:#000000;fill:#bebebe"
       d="m 250.54,277 c -1.2767,0 -2.3137,0.97301 -2.4551,2.2188 -0.32,-0.12 -0.66,-0.22 -1.02,-0.22 -1.6477,0 -2.9834,1.3432 -2.9834,3 0,0.0982 0.022,0.1855 0.031,0.28125 -0.3,-0.18 -0.66,-0.28 -1.03,-0.28 -1.0985,0 -1.9889,0.89543 -1.9889,2 0,1.10457 0.89047,2 1.9889,2 h 1.0255 a 1.4918,1.5002 0 0 1 1.8025,-1.9062 1.4918,1.5002 0 0 1 0.031,0 1.4918,1.5002 0 0 1 1.3363,-0.4375 1.4918,1.5002 0 0 1 0.83908,-0.59375 1.4918,1.5002 0 0 1 1.3985,-1.0938 1.4918,1.5002 0 0 1 1.4606,1.0938 1.4918,1.5002 0 0 1 0.83908,0.59375 1.4918,1.5002 0 0 1 1.3985,0.40625 1.4918,1.5002 0 0 1 1.7714,1.9375 h 0.52831 c 0.82384,0 1.4917,-0.67157 1.4917,-1.5 0,-0.82843 -0.66785,-1.5 -1.4917,-1.5 -0.20597,0 -0.412,0.0491 -0.59047,0.125 0.0523,-0.20194 0.0932,-0.40658 0.0932,-0.625 0,-1.2294 -0.88839,-2.2282 -2.0511,-2.4375 0.0417,-0.18136 0.0622,-0.36843 0.0622,-0.5625 0,-1.3807 -1.1131,-2.5 -2.4862,-2.5 z"
       inkscape:connector-curvature="0" />
    <path
       id="path7750"
       style="text-indent:0;text-transform:none;block-progression:tb;color:#000000;fill:#bebebe"
       d="m 249.44,282.94 a 0.50005,0.50005 0 0 0 -0.44,0.53 v 0.65625 l -0.28125,-0.125 a 0.50316382,0.50316382 0 1 0 -0.4375,0.90625 l 0.72,0.34 v 1.8125 l -1.6562,-1.0312 0.0625,-0.875 a 0.50219013,0.50219013 0 1 0 -1,-0.0937 l -0.0312,0.40625 -0.59375,-0.375 a 0.50005,0.50005 0 1 0 -0.54,0.84 l 0.65625,0.40625 -0.3125,0.25 a 0.50316382,0.50316382 0 1 0 0.59375,0.8125 l 0.65625,-0.5 1.6875,1.0312 -1.7188,1.0625 -0.65625,-0.46875 a 0.50005,0.50005 0 1 0 -0.59375,0.78125 l 0.34375,0.25 -0.6875,0.40625 a 0.5118231,0.5118231 0 1 0 0.53125,0.875 l 0.625,-0.375 0.0312,0.375 a 0.50098,0.50098 0 1 0 1,-0.0625 l -0.0625,-0.90625 1.6562,-1.0312 v 1.8125 l -0.72,0.32 a 0.50316382,0.50316382 0 1 0 0.4375,0.90625 l 0.28125,-0.125 v 0.6875 a 0.50005,0.50005 0 1 0 1,0 v -0.6875 l 0.28125,0.125 a 0.50539588,0.50539588 0 1 0 0.44,-0.91 l -0.72,-0.34 v -1.8125 l 1.6562,1 -0.0625,0.9375 a 0.5002433,0.5002433 0 1 0 1,0.0312 l 0.0312,-0.375 0.59375,0.375 a 0.50005,0.50005 0 1 0 0.53125,-0.84375 l -0.6875,-0.40625 0.34375,-0.25 a 0.50316,0.50316 0 1 0 -0.59,-0.81 l -0.65625,0.5 -1.6875,-1.0312 1.6875,-1.0312 0.6875,0.46875 a 0.50005,0.50005 0 1 0 0.5625,-0.8125 l -0.3125,-0.21875 0.6875,-0.4375 a 0.5118231,0.5118231 0 1 0 -0.53125,-0.875 l -0.625,0.375 -0.0312,-0.375 a 0.50098,0.50098 0 1 0 -1,0.0625 l 0.0625,0.90625 -1.6562,1.0312 v -1.8125 l 0.71875,-0.34375 a 0.50316,0.50316 0 1 0 -0.44,-0.9 l -0.28,0.12 v -0.65625 a 0.50005,0.50005 0 0 0 -0.5625,-0.53125 z"
       inkscape:connector-curvature="0" />
  </g>
</svg>
