<?xml version="1.0" encoding="UTF-8" standalone="no"?>
<!-- Created with Inkscape (http://www.inkscape.org/) -->

<svg
   xmlns:dc="http://purl.org/dc/elements/1.1/"
   xmlns:cc="http://creativecommons.org/ns#"
   xmlns:rdf="http://www.w3.org/1999/02/22-rdf-syntax-ns#"
   xmlns:svg="http://www.w3.org/2000/svg"
   xmlns="http://www.w3.org/2000/svg"
   xmlns:sodipodi="http://sodipodi.sourceforge.net/DTD/sodipodi-0.dtd"
   xmlns:inkscape="http://www.inkscape.org/namespaces/inkscape"
   version="1.0"
   width="32"
   height="32"
   id="svg3479"
   inkscape:version="0.91 r13725"
   sodipodi:docname="avatar-default.svg">
  <metadata
     id="metadata44">
    <rdf:RDF>
      <cc:Work
         rdf:about="">
        <dc:format>image/svg+xml</dc:format>
        <dc:type
           rdf:resource="http://purl.org/dc/dcmitype/StillImage" />
        <dc:title />
      </cc:Work>
    </rdf:RDF>
  </metadata>
  <sodipodi:namedview
     pagecolor="#ffffff"
     bordercolor="#666666"
     borderopacity="1"
     objecttolerance="10"
     gridtolerance="10"
     guidetolerance="10"
     inkscape:pageopacity="0"
     inkscape:pageshadow="2"
     inkscape:window-width="1325"
     inkscape:window-height="758"
     id="namedview42"
     showgrid="false"
     inkscape:zoom="2.0984831"
     inkscape:cx="-16.925434"
     inkscape:cy="51.752325"
     inkscape:window-x="23"
     inkscape:window-y="94"
     inkscape:window-maximized="0"
     inkscape:current-layer="layer1" />
  <defs
     id="defs3481" />
  <g
     id="layer1"
     transform="translate(0,8)">
    <rect
       style="opacity:1;fill:#737373;fill-opacity:1;stroke:none;stroke-width:12;stroke-linecap:square;stroke-linejoin:miter;stroke-miterlimit:4;stroke-dasharray:none;stroke-opacity:1"
       id="rect4236-5"
       width="19.999893"
       height="19.999893"
       x="6.0001211"
       y="-17.999922"
       transform="scale(1,-1)" />
    <path
       sodipodi:nodetypes="cccc"
       inkscape:connector-curvature="0"
       id="path51471"
       d="M 25.999893,-1.9999263 6.0000006,17.999972 l 19.9998924,1e-6 z"
       style="opacity:1;fill:#696969;fill-opacity:1;stroke:none;stroke-width:12;stroke-linecap:square;stroke-linejoin:miter;stroke-miterlimit:4;stroke-dasharray:none;stroke-opacity:1"
       inkscape:transform-center-x="2.259685" />
    <path
       style="opacity:1;fill:#5f5f5f;fill-opacity:1;stroke:none;stroke-width:12;stroke-linecap:square;stroke-linejoin:miter;stroke-miterlimit:4;stroke-dasharray:none;stroke-opacity:1"
       d="M 25.999884,17.999919 5.9999856,-1.9999733 l 0,19.9998923 z"
       id="path4526-4-9-2"
       inkscape:connector-curvature="0"
       sodipodi:nodetypes="cccc"
       inkscape:transform-center-y="-2.2596853" />
    <rect
       style="opacity:1;fill:#696969;fill-opacity:1;fill-rule:evenodd;stroke:none;stroke-width:12;stroke-linecap:square;stroke-linejoin:miter;stroke-miterlimit:4;stroke-dasharray:none;stroke-opacity:1"
       id="rect22781"
       width="6"
       height="6"
       x="6.9999738"
       y="-21.000002"
       transform="matrix(0,1,-1,0,0,0)" />
    <path
       inkscape:connector-curvature="0"
       style="fill:#ffffff;fill-opacity:1;stroke:none"
       d="m 13.921542,7.8111116 c 0.197098,0.908293 0.296147,1.789627 0.182292,2.6979164 -1.333002,1.123931 -4.6065664,1.528109 -4.6121674,2.490035 l -0.291666,2.03691 6.7996664,-0.07291 6.8,0.07291 L 22.508,12.999063 C 22.5024,12.037137 19.228502,11.632959 17.8955,10.509028 17.781645,9.6007386 17.8807,8.7194046 18.077792,7.8111116 l -2.078125,0 z"
       id="path3766-6"
       sodipodi:nodetypes="ccccccccccc" />
    <path
       inkscape:connector-curvature="0"
       d="m 15.999836,0.78401573 c -1.914116,0 -3.465815,1.47663397 -3.465815,3.29816497 0.01498,0.674105 0.07141,1.4749249 0.462106,3.2981509 0.231053,0.706752 2.29195,2.591413 2.310542,2.8269964 0.448098,0.235583 1.155273,0.235583 1.617383,0 0,-0.2355834 1.848436,-2.1202444 2.079489,-2.8269964 0.439642,-1.8948804 0.438521,-2.5914049 0.462106,-3.2981509 0,-1.821531 -1.551698,-3.29816497 -3.465813,-3.29816497 z"
       id="path3764-1"
       style="fill:#ffffff;fill-opacity:1;stroke:none" />
    <rect
       style="opacity:1;fill:#8c8c8c;fill-opacity:1;stroke:none;stroke-width:1;stroke-linecap:round;stroke-miterlimit:4;stroke-dasharray:none;stroke-opacity:1"
       id="rect4140-1"
       width="22"
       height="22"
       x="39.21299"
       y="-1.2113758" />
    <rect
       y="-0.21137579"
       x="40.21299"
       height="20"
       width="20"
       id="rect21562-3-9"
       style="opacity:1;fill:#ffffff;fill-opacity:1;fill-rule:evenodd;stroke:none;stroke-width:12;stroke-linecap:square;stroke-linejoin:miter;stroke-miterlimit:4;stroke-dasharray:none;stroke-opacity:1" />
    <path
       inkscape:connector-curvature="0"
       style="fill:#a5a5a5;fill-opacity:1;stroke:none"
       d="m 48.134696,9.6002175 c 0.197098,0.9082935 0.296147,1.7896275 0.182292,2.6979175 -1.333002,1.123931 -4.606565,1.528109 -4.612166,2.490035 l -0.291666,2.03691 6.799666,-0.07291 6.8,0.07291 -0.291667,-2.03691 c -0.0056,-0.961926 -3.279498,-1.366104 -4.6125,-2.490035 -0.113855,-0.90829 -0.0148,-1.789624 0.182292,-2.6979175 l -2.078125,0 z"
       id="path3766-6-3-4"
       sodipodi:nodetypes="ccccccccccc" />
    <path
       inkscape:connector-curvature="0"
       d="m 50.212991,2.5731215 c -1.914117,0 -3.465816,1.476634 -3.465816,3.298164 0.01498,0.674106 0.0714,1.474926 0.462106,3.298152 0.231053,0.706752 2.291951,2.5914135 2.310543,2.8269975 0.448098,0.235583 1.155273,0.235583 1.617383,0 0,-0.235584 1.848436,-2.1202455 2.079489,-2.8269975 0.439642,-1.894881 0.438521,-2.591406 0.462106,-3.298152 0,-1.82153 -1.551698,-3.298164 -3.465813,-3.298164 z"
       id="path3764-1-6-7"
       style="fill:#a5a5a5;fill-opacity:1;stroke:none" />
    <rect
       style="opacity:1;fill:#5f5f5f;fill-opacity:1;stroke:none;stroke-width:1;stroke-linecap:round;stroke-miterlimit:4;stroke-dasharray:none;stroke-opacity:1"
       id="rect4140-4"
       width="22"
       height="22"
       x="67.5177"
       y="-2.390739" />
    <rect
       y="-1.3907391"
       x="68.5177"
       height="20"
       width="20"
       id="rect21562-3-4"
       style="opacity:1;fill:#ffffff;fill-opacity:1;fill-rule:evenodd;stroke:none;stroke-width:12;stroke-linecap:square;stroke-linejoin:miter;stroke-miterlimit:4;stroke-dasharray:none;stroke-opacity:1" />
    <path
       inkscape:connector-curvature="0"
       style="fill:#696969;fill-opacity:1;stroke:none"
       d="m 76.439414,8.4208545 c 0.197098,0.908293 0.296147,1.7896275 0.182292,2.6979175 -1.333002,1.123931 -4.606566,1.528109 -4.612167,2.490035 l -0.291666,2.03691 6.799667,-0.07291 6.799997,0.07291 -0.29166,-2.03691 c -0.006,-0.961926 -3.2795,-1.366104 -4.612504,-2.490035 -0.113855,-0.90829 -0.0148,-1.7896245 0.182294,-2.6979175 l -2.078127,0 z"
       id="path3766-6-3-3"
       sodipodi:nodetypes="ccccccccccc" />
    <path
       inkscape:connector-curvature="0"
       d="m 78.517709,1.3937575 c -1.914117,0 -3.465816,1.476634 -3.465816,3.298164 0.01498,0.674106 0.0714,1.474926 0.462106,3.298153 0.231053,0.706752 2.291951,2.5914135 2.310543,2.8269975 0.448098,0.235583 1.155273,0.235583 1.617383,0 0,-0.235584 1.848432,-2.1202455 2.079492,-2.8269975 0.43964,-1.894882 0.43852,-2.591407 0.4621,-3.298153 0,-1.82153 -1.551695,-3.298164 -3.46581,-3.298164 z"
       id="path3764-1-6-0"
       style="fill:#696969;fill-opacity:1;stroke:none" />
    <rect
       style="opacity:1;fill:#5f5f5f;fill-opacity:1;stroke:none;stroke-width:1;stroke-linecap:round;stroke-miterlimit:4;stroke-dasharray:none;stroke-opacity:1"
       id="rect4140-4-7"
       width="22"
       height="22"
       x="-27.880892"
       y="-2.5234654" />
    <rect
       y="-1.5234653"
       x="-26.880892"
       height="20"
       width="20"
       id="rect21562-3-4-8"
       style="opacity:1;fill:#ffffff;fill-opacity:1;fill-rule:evenodd;stroke:none;stroke-width:12;stroke-linecap:square;stroke-linejoin:miter;stroke-miterlimit:4;stroke-dasharray:none;stroke-opacity:1" />
    <path
       inkscape:connector-curvature="0"
       style="fill:#696969;fill-opacity:1;stroke:none"
       d="m -18.959183,8.2881285 c 0.197098,0.908293 0.296147,1.7896275 0.182292,2.6979175 -1.333002,1.123931 -4.606565,1.528109 -4.612166,2.490035 l -0.291666,2.03691 6.799666,-0.07291 6.799997,0.07291 -0.29166,-2.03691 c -0.006,-0.961926 -3.2795,-1.366104 -4.612504,-2.490035 -0.113855,-0.90829 -0.0148,-1.7896245 0.182294,-2.6979175 l -2.078127,0 z"
       id="path3766-6-3-3-6"
       sodipodi:nodetypes="ccccccccccc" />
    <path
       inkscape:connector-curvature="0"
       d="m -16.880888,1.2610312 c -1.914117,0 -3.465816,1.476634 -3.465816,3.298164 0.01498,0.674106 0.0714,1.474926 0.462106,3.2981533 0.231053,0.706752 2.291951,2.5914135 2.310543,2.8269975 0.448098,0.235583 1.155273,0.235583 1.617383,0 0,-0.235584 1.848432,-2.1202455 2.079492,-2.8269975 0.43964,-1.8948823 0.43852,-2.5914073 0.4621,-3.2981533 0,-1.82153 -1.551695,-3.298164 -3.46581,-3.298164 z"
       id="path3764-1-6-0-8"
       style="fill:#696969;fill-opacity:1;stroke:none" />
  </g>
</svg>
