<?xml version="1.0" encoding="UTF-8" standalone="no"?>
<!-- Created with Inkscape (http://www.inkscape.org/) -->

<svg
   xmlns:dc="http://purl.org/dc/elements/1.1/"
   xmlns:cc="http://creativecommons.org/ns#"
   xmlns:rdf="http://www.w3.org/1999/02/22-rdf-syntax-ns#"
   xmlns:svg="http://www.w3.org/2000/svg"
   xmlns="http://www.w3.org/2000/svg"
   xmlns:xlink="http://www.w3.org/1999/xlink"
   xmlns:sodipodi="http://sodipodi.sourceforge.net/DTD/sodipodi-0.dtd"
   xmlns:inkscape="http://www.inkscape.org/namespaces/inkscape"
   width="64"
   height="64"
   id="svg2"
   version="1.1"
   inkscape:version="0.91 r13725"
   sodipodi:docname="folder-publicshare.svg">
  <defs
     id="defs4">
    <linearGradient
       id="linearGradient7881"
       inkscape:collect="always">
      <stop
         id="stop7883"
         offset="0"
         style="stop-color:#81cdf3;stop-opacity:1" />
      <stop
         id="stop7885"
         offset="1"
         style="stop-color:#a7daf7;stop-opacity:1" />
    </linearGradient>
    <linearGradient
       inkscape:collect="always"
       xlink:href="#linearGradient7881"
       id="linearGradient7768"
       x1="29.339367"
       y1="1044.2124"
       x2="29.339367"
       y2="1021.2756"
       gradientUnits="userSpaceOnUse"
       gradientTransform="matrix(1.4,0,0,1.3913043,-1.6,-409.66347)" />
  </defs>
  <sodipodi:namedview
     id="base"
     pagecolor="#ffffff"
     bordercolor="#27cc00"
     borderopacity="1"
     inkscape:pageopacity="0.0"
     inkscape:pageshadow="2"
     inkscape:zoom="1.8568893"
     inkscape:cx="7.8082569"
     inkscape:cy="63.94584"
     inkscape:document-units="px"
     inkscape:current-layer="layer1"
     showgrid="false"
     borderlayer="false"
     inkscape:showpageshadow="false"
     showborder="true"
     inkscape:snap-from-guide="false"
     objecttolerance="1"
     gridtolerance="1"
     guidetolerance="5"
     inkscape:window-width="1440"
     inkscape:window-height="852"
     inkscape:window-x="0"
     inkscape:window-y="0"
     inkscape:window-maximized="1"
     showguides="true"
     inkscape:guide-bbox="true"
     inkscape:snap-object-midpoints="true"
     inkscape:snap-center="true">
    <inkscape:grid
       type="xygrid"
       id="grid2985"
       empspacing="5"
       visible="true"
       enabled="true"
       snapvisiblegridlinesonly="true" />
  </sodipodi:namedview>
  <metadata
     id="metadata7">
    <rdf:RDF>
      <cc:Work
         rdf:about="">
        <dc:format>image/svg+xml</dc:format>
        <dc:type
           rdf:resource="http://purl.org/dc/dcmitype/StillImage" />
        <dc:title />
      </cc:Work>
    </rdf:RDF>
  </metadata>
  <g
     inkscape:label="Layer 1"
     inkscape:groupmode="layer"
     id="layer1"
     transform="translate(0,-988.3622)">
    <path
       sodipodi:nodetypes="ccccc"
       inkscape:connector-curvature="0"
       id="path7252-38-6"
       d="m 60,1011.3622 0,32 -56,0 0,-32 z"
       style="fill:url(#linearGradient7768);fill-opacity:1;stroke:none" />
    <path
       sodipodi:nodetypes="ccccccc"
       inkscape:connector-curvature="0"
       id="path7254-8-1"
       d="m 60,1005.3622 -32,0 0,-4 -24,0 0,9 56,0 z"
       style="fill:#a3d9f7;fill-opacity:1;stroke:none" />
    <rect
       y="1005.3622"
       x="7"
       height="1"
       width="18"
       id="rect7256-8-3"
       style="opacity:1;fill:#ffffff;fill-opacity:1;fill-rule:evenodd;stroke:none;stroke-width:12;stroke-linecap:square;stroke-linejoin:miter;stroke-miterlimit:4;stroke-dasharray:none;stroke-opacity:1" />
    <rect
       style="opacity:1;fill:#ffffff;fill-opacity:1;fill-rule:evenodd;stroke:none;stroke-width:12;stroke-linecap:square;stroke-linejoin:miter;stroke-miterlimit:4;stroke-dasharray:none;stroke-opacity:1"
       id="rect7258-8-8"
       width="56"
       height="1"
       x="4"
       y="1010.3622" />
    <circle
       style="fill:#ffffff;fill-opacity:1;stroke:none"
       id="path5613-66"
       cx="44"
       cy="1027.3622"
       r="13" />
    <path
       inkscape:connector-curvature="0"
       style="fill:#81cdf3;fill-opacity:1;fill-rule:nonzero;stroke:none"
       id="path6534-4-9"
       d="m 45.683626,1017.6802 -1.273994,0 -1.427841,0.2191 c 0.122721,-0.029 0.247443,-0.059 0.374218,-0.083 l -0.126894,-0.3111 -0.549404,0.027 -0.299625,0.2236 -0.419404,0.014 -0.398669,0.138 -0.190367,0.07 -0.06254,0.066 -0.275786,0.023 -0.202749,0.3275 -0.163413,-0.4638 -0.09348,0.1743 -0.0226,0.4972 -0.37577,0.2516 -0.260327,0.5059 0.412907,0.049 0.202749,-0.3277 0.06904,-0.1217 c 0.197048,-0.1095 0.386419,-0.234 0.586248,-0.3377 l 0.413517,0.1971 c 0.257509,0.2272 0.516627,0.4575 0.774405,0.6845 l 0.45841,-0.3345 -0.442919,-0.2562 -0.163414,-0.4637 -0.779062,-0.185 -0.0071,-0.094 0.332423,0.1135 0.221315,-0.1773 0.441687,-0.04 c 0.107942,-0.038 0.212564,-0.063 0.320362,-0.091 l -0.299622,0.2235 0.889239,0.7905 -0.04767,0.4017 -0.422512,0.3387 0.381299,1.082 0.364933,-0.1604 0.511044,-0.6242 c 0.628359,-0.1191 1.200606,-0.2754 1.803606,-0.4709 l -0.06625,0.2512 0.263392,0.2349 0.543842,-0.287 -0.216655,-0.322 -0.364934,0.1603 -0.103385,-0.049 c 0.0261,-0.014 0.04991,-0.019 0.07614,-0.029 l 0.658704,-1.2549 -1.043076,-0.5681 z m -5.152983,1.3875 0.378226,0.3411 0.341091,0.04 0.04118,-0.3467 -0.391226,-0.2316 -0.369267,0.1969 0,0 z m 9.560838,0.8944 -0.757718,0.096 -0.503599,0.2549 -0.0325,0.2738 -0.792396,0.3873 0.0591,0.729 0.467698,-0.2593 0.232443,0.3425 0.283518,0.2187 0.260323,-0.5061 -0.07086,-0.323 0.133722,-0.2063 0.478535,-0.3504 0.197477,0.023 -0.24949,0.4148 -0.04767,0.4015 c 0.183419,-0.029 0.364942,-0.026 0.549406,-0.027 l -0.546009,0.3056 -0.0619,0.2147 -0.632988,0.4247 -0.575088,-0.2163 0.04118,-0.3469 -0.290958,0.1505 0.08883,0.3253 -0.430875,-0.052 -0.281058,0.374 -0.326245,0.2944 -0.533622,0.048 0.268348,0.3465 0.03496,0.3188 -0.377,-0.045 -0.53517,0.2141 -0.09535,0.8032 0.41472,0.4934 c -0.419134,0.3814 -0.847606,0.7663 -1.24896,1.1663 l -0.534267,0.9732 0.171469,0.2426 -0.421893,0.4867 0.28442,0.9781 c 0.283762,0.4169 0.56976,0.8317 0.853009,1.2489 l 0.534558,-0.3623 0.167134,0.279 0.561795,-0.285 0.155679,0.222 0.520616,0.061 0.264016,0.3831 -0.253207,0.5993 0.309197,0.4626 -0.104643,0.728 0.206437,0.5613 -0.251655,0.4331 c -0.05812,0.325 -0.11191,0.6357 -0.150775,0.9633 0.105738,0.4621 0.212015,0.9235 0.308552,1.3881 l 0.02318,0.7248 -0.04334,0.365 0.287235,0.034 0.445408,-0.2249 0.502667,0.06 0.855854,-0.7685 -0.05509,-0.3027 0.556847,-0.3968 -0.327155,-0.4646 0.492149,-0.3119 0.463366,-0.2227 0.223482,-0.1956 -0.06715,-0.5079 0.147372,-1.2412 0.432114,-0.7263 0.487204,-0.4234 0.605459,-1.113 0.03685,-0.3102 c 0,0 -0.120175,-0.3075 -0.167746,-0.4292 l 0.698295,-0.3614 0.172789,-0.3971 -0.402519,-0.5289 -0.2592,0.3736 -0.692197,0.056 -1.067907,-0.8948 1.18384,-1.9059 0.832096,0.9052 0.499977,0.7591 c 0.180279,0.2113 0.354964,0.4004 0.507288,0.6343 l 0.326251,-0.2944 c 0.042,-0.3538 -0.142497,-2.1467 -0.813934,-3.7253 -0.671496,-1.578 -1.997879,-3.1066 -1.997876,-3.1066 l -0.131547,0.188 -0.446966,0.3912 -0.439815,-0.5892 0.502664,0.059 0.263714,-0.2279 -0.911843,-0.2934 -0.463042,-0.24 z m -10.817499,-1.0435 -0.235878,0.4532 c 0,0 -0.320564,0.015 -0.40362,0.026 -1.144552,0.8428 -3.470074,2.6898 -4.4205,6.5658 0.0083,0.093 0.267406,0.661 0.267406,0.661 l 0.733555,0.5685 0.763892,0.3129 0.291248,0.4605 0.472938,0.4633 0.311689,-0.019 0.202427,0.1354 -0.0086,0.074 -0.384762,0.7875 -0.274559,0.3192 0.05232,0.1728 -0.257549,0.6359 0.516862,1.3203 0.61067,0.6832 0.253175,0.4744 -0.144278,0.9086 0.154746,0.5367 -0.332458,0.9603 c 0,0 -0.02779,-0.014 -0.01081,0.091 0.01721,0.1026 1.10884,0.9106 1.190092,0.8632 0.08111,-0.049 0.15662,-0.093 0.15662,-0.093 l -0.04583,-0.2275 0.339864,-0.2558 0.144526,-0.2976 0.504216,-0.1068 0.489692,-0.9044 -0.07735,-0.2683 0.299014,-0.3718 0.589642,-0.059 0.369592,-0.6596 0.03004,-0.8664 0.524666,-0.5857 0.14983,-0.6486 c -0.578919,-0.3837 -1.145196,-0.7746 -1.718438,-1.1667 l -0.23367,-0.6388 -0.54135,-0.1938 -0.207662,-0.8577 -0.746885,0 -0.589934,-0.5513 -0.753706,0.5213 -0.01081,0.091 c -0.197207,-0.083 -0.438213,-0.1218 -0.60665,-0.2572 l -0.0916,-0.4552 0.05635,-0.4746 -0.473263,-7e-4 c 0.07345,-0.2979 0.160314,-0.6001 0.234023,-0.8979 l -0.269285,-0.033 -0.310461,0.3149 -0.266501,0.098 -0.350991,-0.2639 0.02044,-0.4789 0.132491,-0.5027 0.608531,-0.372 0.448808,0.053 0.120106,-0.2449 0.541349,0.1938 0.350053,0.5784 0.175835,-0.8677 0.789611,-0.5172 0.327183,-0.6091 0.564576,-0.1551 0.339248,-0.404 0.697358,-0.046 0.401777,-0.4707 c -0.337613,-0.04 -0.685665,-0.081 -1.02328,-0.1218 l 0.683126,-0.2336 0.448803,0.053 0.598315,-0.1327 0.04051,0.5788 0.29901,-0.3719 -0.263396,-0.235 0.09997,-0.2288 -0.207376,-0.2467 -0.242663,-0.1026 0.104341,-0.2653 -0.151963,-0.4068 -0.470483,0.1301 0.11299,-0.3384 -0.483772,-0.3722 -0.49959,0.6813 0.0056,0.2598 -0.434574,0.134 -0.318517,0.5362 -0.0628,-0.5444 -0.665463,-0.3751 -0.07797,-0.4166 1.016486,-0.4348 0.460584,-0.3527 0.09225,-0.4703 -0.218208,-0.1556 -0.300854,-0.072 -7e-6,0 z m 7.597505,1.7906 -0.03468,0.292 0.139898,0.2019 -0.05201,0.438 -0.159116,0.5735 0.477599,-0.036 0.382269,-0.3062 -0.270513,-0.3283 c -0.06715,-0.2798 -0.138764,-0.5336 -0.232119,-0.8051 l -0.251332,-0.03 z m -0.464302,0.5372 -0.298076,0.057 0.009,0.5378 0.400838,-0.1561 -0.111732,-0.439 0,0 z"
       sodipodi:nodetypes="ccccccccccccccccccccccccccccccccccccccccccccccccccccccccccccccccccccccccccccccccccccccccccccccccccccccccccccccccccccccccccccccccccccccccccccccccccccccccccccccccccccccccccccccccccccccccccccccccccccccccccccccccccccccccccccccccccccccccccccccccccccccccccccccccccccccccccc" />
  </g>
</svg>
