<?xml version="1.0" encoding="UTF-8" standalone="no"?>
<!-- Created with Inkscape (http://www.inkscape.org/) -->

<svg
   xmlns:dc="http://purl.org/dc/elements/1.1/"
   xmlns:cc="http://creativecommons.org/ns#"
   xmlns:rdf="http://www.w3.org/1999/02/22-rdf-syntax-ns#"
   xmlns:svg="http://www.w3.org/2000/svg"
   xmlns="http://www.w3.org/2000/svg"
   xmlns:sodipodi="http://sodipodi.sourceforge.net/DTD/sodipodi-0.dtd"
   xmlns:inkscape="http://www.inkscape.org/namespaces/inkscape"
   version="1.0"
   width="64"
   height="64"
   id="svg3310"
   inkscape:version="0.91 r13725"
   sodipodi:docname="media-cdrom.svg">
  <metadata
     id="metadata55592">
    <rdf:RDF>
      <cc:Work
         rdf:about="">
        <dc:format>image/svg+xml</dc:format>
        <dc:type
           rdf:resource="http://purl.org/dc/dcmitype/StillImage" />
      </cc:Work>
    </rdf:RDF>
  </metadata>
  <sodipodi:namedview
     pagecolor="#ffffff"
     bordercolor="#666666"
     borderopacity="1"
     objecttolerance="10"
     gridtolerance="10"
     guidetolerance="10"
     inkscape:pageopacity="0"
     inkscape:pageshadow="2"
     inkscape:window-width="1440"
     inkscape:window-height="852"
     id="namedview55590"
     showgrid="false"
     inkscape:zoom="4.8758545"
     inkscape:cx="73.43172"
     inkscape:cy="55.635432"
     inkscape:window-x="0"
     inkscape:window-y="0"
     inkscape:window-maximized="1"
     inkscape:current-layer="svg3310" />
  <defs
     id="defs3312" />
  <circle
     style="opacity:1;fill:#cccccc;fill-opacity:1;fill-rule:evenodd;stroke:none;stroke-width:2;stroke-linecap:square;stroke-linejoin:miter;stroke-miterlimit:4;stroke-dasharray:none;stroke-opacity:1"
     id="path4197"
     cx="32"
     cy="32"
     r="28" />
  <path
     inkscape:connector-curvature="0"
     d="M 31.999997,4.7499994 C 16.895709,4.7499994 4.7499917,16.895715 4.7499917,32 c 0,15.104287 12.1457173,27.250005 27.2500053,27.250005 15.10428,0 27.25,-12.145718 27.25,-27.250005 0,-15.104285 -12.14572,-27.2500006 -27.25,-27.2500006 l 0,0 0,0 z"
     id="path3272-6"
     style="opacity:0.5;fill:none;stroke:none;stroke-width:0.99999994;stroke-miterlimit:4;stroke-opacity:1" />
  <circle
     r="27"
     cy="32"
     cx="32"
     id="circle4199"
     style="opacity:1;fill:#ffffff;fill-opacity:1;fill-rule:evenodd;stroke:none;stroke-width:2;stroke-linecap:square;stroke-linejoin:miter;stroke-miterlimit:4;stroke-dasharray:none;stroke-opacity:1" />
  <circle
     style="opacity:1;fill:#cccccc;fill-opacity:1;fill-rule:evenodd;stroke:none;stroke-width:2;stroke-linecap:square;stroke-linejoin:miter;stroke-miterlimit:4;stroke-dasharray:none;stroke-opacity:1"
     id="circle4201"
     cx="32"
     cy="32"
     r="26" />
  <rect
     style="opacity:1;fill:#ffffff;fill-opacity:1;fill-rule:evenodd;stroke:none;stroke-width:2;stroke-linecap:square;stroke-linejoin:miter;stroke-miterlimit:4;stroke-dasharray:none;stroke-opacity:1"
     id="rect4219"
     width="4"
     height="54"
     x="-45.712811"
     y="-38.712814"
     transform="matrix(-0.8660254,-0.5,0.5,-0.8660254,0,0)" />
  <rect
     y="-38.712814"
     x="-45.712811"
     height="54"
     width="1"
     id="rect4223"
     style="opacity:1;fill:#acacac;fill-opacity:1;fill-rule:evenodd;stroke:none;stroke-width:2;stroke-linecap:square;stroke-linejoin:miter;stroke-miterlimit:4;stroke-dasharray:none;stroke-opacity:1"
     transform="matrix(-0.8660254,-0.5,0.5,-0.8660254,0,0)" />
  <rect
     style="opacity:1;fill:#cfcfcf;fill-opacity:1;fill-rule:evenodd;stroke:none;stroke-width:2;stroke-linecap:square;stroke-linejoin:miter;stroke-miterlimit:4;stroke-dasharray:none;stroke-opacity:1"
     id="rect4225"
     width="1"
     height="54"
     x="-44.712811"
     y="-38.712814"
     transform="matrix(-0.8660254,-0.5,0.5,-0.8660254,0,0)" />
  <rect
     y="-38.712814"
     x="-43.712811"
     height="54"
     width="1"
     id="rect4227"
     style="opacity:1;fill:#e6e6e6;fill-opacity:1;fill-rule:evenodd;stroke:none;stroke-width:2;stroke-linecap:square;stroke-linejoin:miter;stroke-miterlimit:4;stroke-dasharray:none;stroke-opacity:1"
     transform="matrix(-0.8660254,-0.5,0.5,-0.8660254,0,0)" />
  <circle
     r="11.000001"
     cy="32"
     cx="32"
     id="circle4203"
     style="opacity:1;fill:#ffffff;fill-opacity:1;fill-rule:evenodd;stroke:none;stroke-width:2;stroke-linecap:square;stroke-linejoin:miter;stroke-miterlimit:4;stroke-dasharray:none;stroke-opacity:1" />
  <circle
     style="opacity:1;fill:#cccccc;fill-opacity:1;fill-rule:evenodd;stroke:none;stroke-width:2;stroke-linecap:square;stroke-linejoin:miter;stroke-miterlimit:4;stroke-dasharray:none;stroke-opacity:1"
     id="circle4205"
     cx="32"
     cy="32"
     r="10" />
  <circle
     r="9"
     cy="32"
     cx="32"
     id="circle4207"
     style="opacity:1;fill:#ffffff;fill-opacity:1;fill-rule:evenodd;stroke:none;stroke-width:2;stroke-linecap:square;stroke-linejoin:miter;stroke-miterlimit:4;stroke-dasharray:none;stroke-opacity:1" />
  <circle
     style="opacity:1;fill:#cccccc;fill-opacity:1;fill-rule:evenodd;stroke:none;stroke-width:2;stroke-linecap:square;stroke-linejoin:miter;stroke-miterlimit:4;stroke-dasharray:none;stroke-opacity:1"
     id="circle4257"
     cx="32"
     cy="32"
     r="5" />
  <circle
     r="4"
     cy="32"
     cx="32"
     id="circle4259"
     style="opacity:1;fill:#ffffff;fill-opacity:1;fill-rule:evenodd;stroke:none;stroke-width:2;stroke-linecap:square;stroke-linejoin:miter;stroke-miterlimit:4;stroke-dasharray:none;stroke-opacity:1" />
  <path
     style="opacity:1;fill:#ffffff;fill-opacity:1;fill-rule:evenodd;stroke:none;stroke-width:2;stroke-linecap:square;stroke-linejoin:miter;stroke-miterlimit:4;stroke-dasharray:none;stroke-opacity:1"
     d="M 32 5 A 27 27 0 0 0 5 32 A 27 27 0 0 0 32 59 A 27 27 0 0 0 59 32 A 27 27 0 0 0 32 5 z M 32 6 A 26 26 0 0 1 58 32 A 26 26 0 0 1 32 58 A 26 26 0 0 1 6 32 A 26 26 0 0 1 32 6 z "
     id="circle4229" />
</svg>
