<?xml version="1.0" encoding="UTF-8" standalone="no"?>
<!-- Created with Inkscape (http://www.inkscape.org/) -->

<svg
   xmlns:dc="http://purl.org/dc/elements/1.1/"
   xmlns:cc="http://creativecommons.org/ns#"
   xmlns:rdf="http://www.w3.org/1999/02/22-rdf-syntax-ns#"
   xmlns:svg="http://www.w3.org/2000/svg"
   xmlns="http://www.w3.org/2000/svg"
   xmlns:sodipodi="http://sodipodi.sourceforge.net/DTD/sodipodi-0.dtd"
   xmlns:inkscape="http://www.inkscape.org/namespaces/inkscape"
   id="svg3330"
   height="22"
   width="14"
   version="1.1"
   inkscape:version="0.91 r13725"
   sodipodi:docname="xfce4-mixer-record.svg">
  <defs
     id="defs9" />
  <sodipodi:namedview
     pagecolor="#ffffff"
     bordercolor="#666666"
     borderopacity="1"
     objecttolerance="10"
     gridtolerance="10"
     guidetolerance="10"
     inkscape:pageopacity="0"
     inkscape:pageshadow="2"
     inkscape:window-width="640"
     inkscape:window-height="480"
     id="namedview7" />
  <metadata
     id="metadata3335">
    <rdf:RDF>
      <cc:Work
         rdf:about="">
        <dc:format>image/svg+xml</dc:format>
        <dc:type
           rdf:resource="http://purl.org/dc/dcmitype/StillImage" />
        <dc:title />
      </cc:Work>
    </rdf:RDF>
  </metadata>
  <g
     id="layer1"
     transform="translate(-4,6)">
    <path
       id="path3122-6"
       style="opacity:.3;color:#000000"
       d="m11-4c-1.662 0-3 1.338-3 3v8c0 1.662 1.338 3 3 3s3-1.338 3-3v-8c0-1.662-1.338-3-3-3zm-6 7v1h1v3c0 2.4238 1.7175 4.4415 4 4.9062v2.094h-1v1h4v-1h-1v-2.0938c2.283-0.464 4-2.4822 4-4.906v-3h1v-1h-1-1v4c0 2.216-1.784 4-4 4s-4-1.784-4-4v-4h-1-1z" />
    <path
       id="path3122"
       style="color:#000000;fill:#dfdbd2"
       d="m11 1c-1.662 0-3 1.338-3 3v8c0 1.662 1.338 3 3 3s3-1.338 3-3v-8c0-1.662-1.338-3-3-3zm-6 7v1h1v3c0 2.4238 1.7175 4.4415 4 4.9062v2.094h-1v1h4v-1h-1v-2.0938c2.283-0.464 4-2.482 4-4.906v-3h1v-1h-1-1v4c0 2.216-1.784 4-4 4s-4-1.784-4-4v-4h-1-1z"
       transform="translate(0,-6)" />
  </g>
</svg>
