<?xml version="1.0" encoding="UTF-8" standalone="no"?>
<!-- Created with Inkscape (http://www.inkscape.org/) -->

<svg
   xmlns:dc="http://purl.org/dc/elements/1.1/"
   xmlns:cc="http://creativecommons.org/ns#"
   xmlns:rdf="http://www.w3.org/1999/02/22-rdf-syntax-ns#"
   xmlns:svg="http://www.w3.org/2000/svg"
   xmlns="http://www.w3.org/2000/svg"
   xmlns:sodipodi="http://sodipodi.sourceforge.net/DTD/sodipodi-0.dtd"
   xmlns:inkscape="http://www.inkscape.org/namespaces/inkscape"
   width="16"
   height="16"
   id="svg3867"
   version="1.1"
   inkscape:version="0.91 r13725"
   sodipodi:docname="applications-utilities-symbolic.svg">
  <defs
     id="defs3869" />
  <sodipodi:namedview
     id="base"
     pagecolor="#ffffff"
     bordercolor="#666666"
     borderopacity="1.0"
     inkscape:pageopacity="0.0"
     inkscape:pageshadow="2"
     inkscape:zoom="24.1875"
     inkscape:cx="2.5038936"
     inkscape:cy="16.108043"
     inkscape:current-layer="layer1"
     showgrid="true"
     inkscape:grid-bbox="true"
     inkscape:document-units="px"
     inkscape:window-width="1440"
     inkscape:window-height="854"
     inkscape:window-x="0"
     inkscape:window-y="0"
     inkscape:window-maximized="1"
     showguides="true"
     inkscape:guide-bbox="true" />
  <metadata
     id="metadata3872">
    <rdf:RDF>
      <cc:Work
         rdf:about="">
        <dc:format>image/svg+xml</dc:format>
        <dc:type
           rdf:resource="http://purl.org/dc/dcmitype/StillImage" />
        <dc:title />
      </cc:Work>
    </rdf:RDF>
  </metadata>
  <g
     id="layer1"
     inkscape:label="Layer 1"
     inkscape:groupmode="layer"
     transform="translate(0,-32)">
    <path
       style="fill:#f299e2;fill-opacity:1;stroke:none;stroke-width:2;stroke-miterlimit:4;stroke-dasharray:none;stroke-opacity:1"
       d="m 26.837169,29.895124 0,16 16,0 0,-16 -16,0 z m 1,1 14,0 0,14 -14,0 0,-14 z"
       id="rect4284"
       inkscape:connector-curvature="0" />
    <rect
       style="fill:#f299e2;fill-opacity:1;stroke:none;stroke-width:2;stroke-miterlimit:4;stroke-dasharray:none;stroke-opacity:1"
       id="rect4286"
       width="4"
       height="12"
       x="32.83717"
       y="31.895124" />
    <rect
       y="-40.83717"
       x="35.895123"
       height="12"
       width="4"
       id="rect4288"
       style="fill:#f299e2;fill-opacity:1;stroke:none;stroke-width:2;stroke-miterlimit:4;stroke-dasharray:none;stroke-opacity:1"
       transform="matrix(0,1,-1,0,0,0)" />
    <path
       style="fill:#f7cb63;fill-opacity:1"
       d="m -29.871515,13.41899 0,2 0,10 14,0 0,-10 0,-2 -14,0 z m 1,1 12,0 0,5 0,5 -12,0 0,-5 0,-5 z"
       id="path4191"
       inkscape:connector-curvature="0" />
    <path
       style="fill:#f7cb63;fill-opacity:1;stroke:none"
       d="m -25.871515,13.41899 0,4 0,4 6,0 0,-4 0,-4 -6,0 z m 1,1 4,0 0,3 0,3 -4,0 0,-3 0,-3 z"
       id="rect14394"
       inkscape:connector-curvature="0" />
    <path
       style="fill:#f7cb63;fill-opacity:1;stroke:none"
       d="m -29.871515,16.41899 0,1 5,0 0,-1 -5,0 z m 9,0 0,1 5,0 0,-1 -5,0 z"
       id="rect14396"
       inkscape:connector-curvature="0" />
    <path
       sodipodi:nodetypes="ccccc"
       inkscape:connector-curvature="0"
       id="path4165"
       d="m -28.871515,16.41899 1,0 0,1 -1,0 z"
       style="fill:#ffffff;fill-opacity:1;stroke:none" />
    <path
       style="fill:#ffffff;fill-opacity:1;stroke:none"
       d="m -17.871515,16.41899 1,0 0,1 -1,0 z"
       id="path4167"
       inkscape:connector-curvature="0"
       sodipodi:nodetypes="ccccc" />
    <path
       inkscape:connector-curvature="0"
       style="fill:#f7cb63;fill-opacity:1"
       d="m 14.98426,13.525705 0,2 0,10 14,0 0,-10 0,-2 -14,0 z m 1,1 12,0 0,5 0,5 -12,0 0,-5 0,-5 z"
       id="path4191-5" />
    <path
       inkscape:connector-curvature="0"
       style="fill:#f7cb63;fill-opacity:1;stroke:none"
       d="m 19.98426,13.525705 0,4 0,4 4,0 0,-4 0,-4 -4,0 z m 1,1 2,0 0,3 0,3 -2,0 0,-3 0,-3 z"
       id="rect14394-6" />
    <path
       inkscape:connector-curvature="0"
       style="fill:#f7cb63;fill-opacity:1;stroke:none"
       d="m 14.98426,16.525705 0,1 6,0 0,-1 -6,0 z m 8,0 0,1 6,0 0,-1 -6,0 z"
       id="rect14396-2" />
    <path
       sodipodi:nodetypes="ccccc"
       inkscape:connector-curvature="0"
       id="path4165-9"
       d="m 15.98426,16.525705 1,0 0,1 -1,0 z"
       style="fill:#ffffff;fill-opacity:1;stroke:none" />
    <path
       style="fill:#ffffff;fill-opacity:1;stroke:none"
       d="m 26.98426,16.525705 1,0 0,1 -1,0 z"
       id="path4167-1"
       inkscape:connector-curvature="0"
       sodipodi:nodetypes="ccccc" />
    <path
       id="path4221"
       d="m 14.98426,13.525705 0,2 0,10 14,0 0,-10 0,-2 -14,0 z m 1,1 12,0 0,5 0,5 -12,0 0,-5 0,-5 z"
       style="fill:#f7cb63;fill-opacity:1"
       inkscape:connector-curvature="0" />
    <path
       id="path4223"
       d="m 19.98426,13.525705 0,4 0,4 4,0 0,-4 0,-4 -4,0 z m 1,1 2,0 0,3 0,3 -2,0 0,-3 0,-3 z"
       style="fill:#f7cb63;fill-opacity:1;stroke:none"
       inkscape:connector-curvature="0" />
    <path
       id="path4225"
       d="m 14.98426,16.525705 0,1 6,0 0,-1 -6,0 z m 8,0 0,1 6,0 0,-1 -6,0 z"
       style="fill:#f7cb63;fill-opacity:1;stroke:none"
       inkscape:connector-curvature="0" />
    <path
       style="fill:#ffffff;fill-opacity:1;stroke:none"
       d="m 15.98426,16.525705 1,0 0,1 -1,0 z"
       id="path4227"
       inkscape:connector-curvature="0"
       sodipodi:nodetypes="ccccc" />
    <path
       sodipodi:nodetypes="ccccc"
       inkscape:connector-curvature="0"
       id="path4229"
       d="m 26.98426,16.525705 1,0 0,1 -1,0 z"
       style="fill:#ffffff;fill-opacity:1;stroke:none" />
    <path
       inkscape:connector-curvature="0"
       style="fill:#8c8c8c;fill-opacity:1"
       d="m 0.99999975,34 0,2 0,10 L 15,46 15,36 15,34 0.99999975,34 Z M 1.9999998,35 14,35 l 0,5 0,5 -12.0000002,0 0,-5 0,-5 z"
       id="path4191-2" />
    <path
       inkscape:connector-curvature="0"
       style="fill:#8c8c8c;fill-opacity:1;stroke:none"
       d="m 5.9999998,34 0,4 0,4 4,0 0,-4 0,-4 -4,0 z m 1,1 2,0 0,3 0,3 -2,0 0,-3 0,-3 z"
       id="rect14394-7" />
    <path
       style="fill:#8c8c8c;fill-opacity:1;stroke:none"
       d="m 2,37 0,1 4,0 0,-1 z"
       id="path4248"
       inkscape:connector-curvature="0" />
    <path
       style="fill:#8c8c8c;fill-opacity:1;stroke:none"
       d="m 10,37 0,1 4,0 0,-1 z"
       id="rect14396-0"
       inkscape:connector-curvature="0" />
  </g>
</svg>
