<?xml version="1.0" encoding="UTF-8" standalone="no"?>
<!-- Created with Inkscape (http://www.inkscape.org/) -->

<svg
   xmlns:dc="http://purl.org/dc/elements/1.1/"
   xmlns:cc="http://creativecommons.org/ns#"
   xmlns:rdf="http://www.w3.org/1999/02/22-rdf-syntax-ns#"
   xmlns:svg="http://www.w3.org/2000/svg"
   xmlns="http://www.w3.org/2000/svg"
   xmlns:sodipodi="http://sodipodi.sourceforge.net/DTD/sodipodi-0.dtd"
   xmlns:inkscape="http://www.inkscape.org/namespaces/inkscape"
   id="svg7384"
   height="16"
   width="16"
   version="1.1"
   inkscape:version="0.91 r13725"
   sodipodi:docname="folder-pictures-symbolic.svg">
  <defs
     id="defs10" />
  <sodipodi:namedview
     pagecolor="#ffffff"
     bordercolor="#666666"
     borderopacity="1"
     objecttolerance="10"
     gridtolerance="10"
     guidetolerance="10"
     inkscape:pageopacity="0"
     inkscape:pageshadow="2"
     inkscape:window-width="1440"
     inkscape:window-height="849"
     id="namedview8"
     showgrid="false"
     inkscape:zoom="10.01294"
     inkscape:cx="40.900675"
     inkscape:cy="0.7164279"
     inkscape:window-x="0"
     inkscape:window-y="0"
     inkscape:window-maximized="1"
     inkscape:current-layer="svg7384"
     inkscape:snap-bbox="true"
     inkscape:bbox-nodes="true"
     inkscape:bbox-paths="true"
     inkscape:snap-bbox-edge-midpoints="false" />
  <metadata
     id="metadata90">
    <rdf:RDF>
      <cc:Work
         rdf:about="">
        <dc:format>image/svg+xml</dc:format>
        <dc:type
           rdf:resource="http://purl.org/dc/dcmitype/StillImage" />
        <dc:title>Gnome Symbolic Icon Theme</dc:title>
      </cc:Work>
    </rdf:RDF>
  </metadata>
  <title
     id="title9167">Gnome Symbolic Icon Theme</title>
  <path
     style="fill:#8c8c8c;fill-opacity:1;stroke:none"
     d="m 21.473508,3 0,10 14,0 0,-10 -14,0 z m 1,1 12,0 0,8 -12,0 0,-8 z"
     id="path4856"
     inkscape:connector-curvature="0" />
  <path
     style="fill:#8c8c8c;fill-opacity:1;stroke:none"
     d="m 26.473508,7 0,3 3,0 0,-3 -3,0 z m 1,1 1,0 0,1 -1,0 0,-1 z"
     id="path4842"
     inkscape:connector-curvature="0" />
  <path
     style="fill:#8c8c8c;fill-opacity:1;stroke:none"
     d="m 31.473508,5 0,1 2,0 0,-1 z"
     id="path4870"
     inkscape:connector-curvature="0"
     sodipodi:nodetypes="ccccc" />
  <path
     inkscape:connector-curvature="0"
     style="fill:#8c8c8c;fill-opacity:1;stroke:none"
     d="M 1,1 1,15 15,15 15,1 1,1 Z M 2,2 14,2 14,14 2,14 2,2 Z"
     id="path4856-3-6" />
  <path
     inkscape:connector-curvature="0"
     style="fill:#8c8c8c;fill-opacity:1;stroke:none"
     d="m 3,3 0,8 10,0 0,-8 z M 9.25,4.5 12,10 4,10 5.75,6.5 7,9 Z"
     id="path4167-7"
     sodipodi:nodetypes="ccccccccccc" />
  <path
     inkscape:connector-curvature="0"
     style="fill:#8c8c8c;fill-opacity:1;stroke:none"
     d="m 20.464462,-14.968985 0,13.99999996 14,0 0,-13.99999996 -14,0 z m 1,1 12,0 0,12 -12,0 0,-12 z"
     id="path4856-3-6-7" />
  <path
     inkscape:connector-curvature="0"
     style="fill:#8c8c8c;fill-opacity:1;stroke:none"
     d="m 22.464462,-12.968985 0,7.9999999 10,0 0,-7.9999999 z m 1,1 2.8125,0 c 0.02552,0.140501 0.0386,0.282981 0.03906,0.425781 -1.39e-4,1.339665 -1.086118,2.4256427 -2.425782,2.425781 -0.142858,-0.00111 -0.285339,-0.014837 -0.425781,-0.04102 z m 6,1 2.5,4.9999999 -7.5,0 2.5,-3.1484379 0.966797,1.216797 z"
     id="path4167-7-5"
     sodipodi:nodetypes="ccccccccccccccccc" />
  <path
     inkscape:connector-curvature="0"
     style="fill:#8c8c8c;fill-opacity:1;stroke:none"
     d="m 39.63965,-14.26989 0,14.00000036 14,0 0,-14.00000036 -14,0 z m 1,1 12,0 0,12.0000004 -12,0 0,-12.0000004 z"
     id="path4856-3-6-3" />
  <path
     inkscape:connector-curvature="0"
     style="fill:#8c8c8c;fill-opacity:1;stroke:none"
     d="m 41.63965,-12.26989 0,8.0000004 10,0 0,-8.0000004 z m 1,1 2.8125,0 c 0.02553,0.140501 0.0386,0.282981 0.03906,0.425781 -1.39e-4,1.3396651 -1.086117,2.4256431 -2.425782,2.4257814 -0.142858,-0.00111 -0.285339,-0.014837 -0.425781,-0.04102 z m 5.5,2.0000004 2.5,4 -5,0 z"
     id="path4167-7-56"
     sodipodi:nodetypes="ccccccccccccccc" />
  <path
     inkscape:connector-curvature="0"
     style="fill:#8c8c8c;fill-opacity:1;stroke:none"
     d="m 39.939263,3.7068491 0,13.9999999 14,0 0,-13.9999999 -14,0 z m 1,1 12,0 0,11.9999999 -12,0 0,-11.9999999 z"
     id="path4856-3-6-9" />
  <path
     inkscape:connector-curvature="0"
     style="fill:#8c8c8c;fill-opacity:1;stroke:none"
     d="m 41.939263,5.7068491 0,7.9999999 10,0 0,-7.9999999 z m 9,1 0,5.9999999 -8,0 0,-5.9999999 z"
     id="path4167-7-1"
     sodipodi:nodetypes="cccccccccc" />
  <path
     inkscape:connector-curvature="0"
     style="fill:#8c8c8c;fill-opacity:1;stroke:none"
     d="m 48.189263,7.7068493 -1.25,2.9999997 -1.25,-1.4999997 -1.75,2.4999997 6,0 z"
     id="path4188-2"
     sodipodi:nodetypes="cccccc" />
</svg>
