<?xml version="1.0" encoding="UTF-8" standalone="no"?>
<!-- Created with Inkscape (http://www.inkscape.org/) -->

<svg
   xmlns:dc="http://purl.org/dc/elements/1.1/"
   xmlns:cc="http://creativecommons.org/ns#"
   xmlns:rdf="http://www.w3.org/1999/02/22-rdf-syntax-ns#"
   xmlns:svg="http://www.w3.org/2000/svg"
   xmlns="http://www.w3.org/2000/svg"
   xmlns:sodipodi="http://sodipodi.sourceforge.net/DTD/sodipodi-0.dtd"
   xmlns:inkscape="http://www.inkscape.org/namespaces/inkscape"
   id="svg7384"
   height="16"
   width="16"
   version="1.1"
   inkscape:version="0.91 r13725"
   sodipodi:docname="folder-videos-symbolic.svg">
  <defs
     id="defs10" />
  <sodipodi:namedview
     pagecolor="#ffffff"
     bordercolor="#666666"
     borderopacity="1"
     objecttolerance="10"
     gridtolerance="10"
     guidetolerance="10"
     inkscape:pageopacity="0"
     inkscape:pageshadow="2"
     inkscape:window-width="1440"
     inkscape:window-height="854"
     id="namedview8"
     showgrid="false"
     inkscape:zoom="7.0802175"
     inkscape:cx="17.612085"
     inkscape:cy="-3.4037311"
     inkscape:window-x="0"
     inkscape:window-y="0"
     inkscape:window-maximized="1"
     inkscape:current-layer="svg7384"
     inkscape:snap-bbox="true"
     inkscape:bbox-nodes="true"
     inkscape:bbox-paths="true"
     inkscape:snap-bbox-edge-midpoints="false" />
  <metadata
     id="metadata90">
    <rdf:RDF>
      <cc:Work
         rdf:about="">
        <dc:format>image/svg+xml</dc:format>
        <dc:type
           rdf:resource="http://purl.org/dc/dcmitype/StillImage" />
        <dc:title>Gnome Symbolic Icon Theme</dc:title>
      </cc:Work>
    </rdf:RDF>
  </metadata>
  <title
     id="title9167">Gnome Symbolic Icon Theme</title>
  <path
     style="fill:#8c8c8c;fill-opacity:1;stroke:none;stroke-width:2;stroke-miterlimit:4;stroke-dasharray:none;stroke-opacity:1"
     d="M 2 1 L 2 15 L 14 15 L 14 1 L 2 1 z M 3 2 L 4 2 L 4 4 L 3 4 L 3 2 z M 5 2 L 11 2 L 11 7 L 11 8 L 5 8 L 5 7 L 5 2 z M 12 2 L 13 2 L 13 4 L 12 4 L 12 2 z M 3 5 L 4 5 L 4 6 L 3 6 L 3 5 z M 12 5 L 13 5 L 13 6 L 12 6 L 12 5 z M 3 7 L 4 7 L 4 9 L 3 9 L 3 7 z M 12 7 L 13 7 L 13 9 L 12 9 L 12 7 z M 5 9 L 11 9 L 11 14 L 5 14 L 5 9 z M 3 10 L 4 10 L 4 11 L 3 11 L 3 10 z M 12 10 L 13 10 L 13 11 L 12 11 L 12 10 z M 3 12 L 4 12 L 4 14 L 3 14 L 3 12 z M 12 12 L 13 12 L 13 14 L 12 14 L 12 12 z "
     id="rect6206" />
</svg>
