<?xml version="1.0" encoding="UTF-8" standalone="no"?>
<!-- Created with Inkscape (http://www.inkscape.org/) -->

<svg
   xmlns:dc="http://purl.org/dc/elements/1.1/"
   xmlns:cc="http://creativecommons.org/ns#"
   xmlns:rdf="http://www.w3.org/1999/02/22-rdf-syntax-ns#"
   xmlns:svg="http://www.w3.org/2000/svg"
   xmlns="http://www.w3.org/2000/svg"
   xmlns:sodipodi="http://sodipodi.sourceforge.net/DTD/sodipodi-0.dtd"
   xmlns:inkscape="http://www.inkscape.org/namespaces/inkscape"
   version="1.0"
   width="16"
   height="16"
   id="svg3540"
   inkscape:version="0.91 r13725"
   sodipodi:docname="media-optical-symbolic.svg">
  <metadata
     id="metadata174409">
    <rdf:RDF>
      <cc:Work
         rdf:about="">
        <dc:format>image/svg+xml</dc:format>
        <dc:type
           rdf:resource="http://purl.org/dc/dcmitype/StillImage" />
      </cc:Work>
    </rdf:RDF>
  </metadata>
  <sodipodi:namedview
     pagecolor="#ffffff"
     bordercolor="#666666"
     borderopacity="1"
     objecttolerance="10"
     gridtolerance="10"
     guidetolerance="10"
     inkscape:pageopacity="0"
     inkscape:pageshadow="2"
     inkscape:window-width="1179"
     inkscape:window-height="846"
     id="namedview174407"
     showgrid="false"
     inkscape:zoom="23.335794"
     inkscape:cx="5.2783657"
     inkscape:cy="4.0756908"
     inkscape:window-x="213"
     inkscape:window-y="4"
     inkscape:window-maximized="0"
     inkscape:current-layer="svg3540" />
  <defs
     id="defs3542" />
  <path
     style="opacity:1;fill:#8c8c8c;fill-opacity:1;fill-rule:evenodd;stroke:none;stroke-width:1;stroke-linecap:square;stroke-linejoin:miter;stroke-miterlimit:4;stroke-dasharray:none;stroke-opacity:1"
     d="M 8 0.5 C 3.857865 0.5 0.5 3.857864 0.5 8 C 0.5 12.142135 3.857865 15.5 8 15.5 C 12.142135 15.5 15.5 12.142135 15.5 8 C 15.5 3.857864 12.142135 0.5 8 0.5 z M 8 6 C 9.1045694 6 10 6.89543 10 8 C 10 9.10457 9.1045694 10 8 10 C 6.8954306 10 6 9.10457 6 8 C 6 6.89543 6.8954306 6 8 6 z "
     id="path4187-2-0" />
  <path
     style="opacity:1;fill:#ffffff;fill-opacity:1;fill-rule:evenodd;stroke:none;stroke-width:1;stroke-linecap:square;stroke-linejoin:miter;stroke-miterlimit:4;stroke-dasharray:none;stroke-opacity:1"
     d="M 8 1.5 C 4.4101497 1.5 1.5 4.4101488 1.5 8 C 1.5 11.58985 4.4101497 14.5 8 14.5 C 11.58985 14.5 14.5 11.58985 14.5 8 C 14.5 4.4101488 11.58985 1.5 8 1.5 z M 8 6 C 9.1045694 6 10 6.89543 10 8 C 10 9.10457 9.1045694 10 8 10 C 6.8954306 10 6 9.10457 6 8 C 6 6.89543 6.8954306 6 8 6 z "
     id="path5323" />
  <path
     style="opacity:1;fill:#8c8c8c;fill-opacity:1;stroke:none;stroke-width:2.25;stroke-linecap:round;stroke-miterlimit:4;stroke-dasharray:none;stroke-opacity:1"
     d="M 8 5.5 A 2.5 2.5 0 0 0 5.5 8 A 2.5 2.5 0 0 0 8 10.5 A 2.5 2.5 0 0 0 10.5 8 A 2.5 2.5 0 0 0 8 5.5 z M 8 6 A 2 2 0 0 1 10 8 A 2 2 0 0 1 8 10 A 2 2 0 0 1 6 8 A 2 2 0 0 1 8 6 z "
     id="circle4136" />
</svg>
