<?xml version="1.0" encoding="UTF-8" standalone="no"?>
<!-- Created with Inkscape (http://www.inkscape.org/) -->

<svg
   xmlns:dc="http://purl.org/dc/elements/1.1/"
   xmlns:cc="http://creativecommons.org/ns#"
   xmlns:rdf="http://www.w3.org/1999/02/22-rdf-syntax-ns#"
   xmlns:svg="http://www.w3.org/2000/svg"
   xmlns="http://www.w3.org/2000/svg"
   xmlns:sodipodi="http://sodipodi.sourceforge.net/DTD/sodipodi-0.dtd"
   xmlns:inkscape="http://www.inkscape.org/namespaces/inkscape"
   width="16"
   height="16"
   id="svg2"
   version="1.1"
   inkscape:version="0.91 r13725"
   sodipodi:docname="user-home-symbolic.svg">
  <defs
     id="defs4" />
  <sodipodi:namedview
     id="base"
     pagecolor="#ffffff"
     bordercolor="#40ff20"
     borderopacity="1"
     inkscape:pageopacity="0.0"
     inkscape:pageshadow="2"
     inkscape:zoom="17.522959"
     inkscape:cx="11.877243"
     inkscape:cy="5.5617375"
     inkscape:document-units="px"
     inkscape:current-layer="layer1"
     showgrid="false"
     objecttolerance="2"
     gridtolerance="2"
     guidetolerance="2"
     inkscape:showpageshadow="false"
     inkscape:window-width="1440"
     inkscape:window-height="854"
     inkscape:window-x="0"
     inkscape:window-y="0"
     inkscape:window-maximized="1">
    <inkscape:grid
       type="xygrid"
       id="grid2996"
       empspacing="5"
       visible="true"
       enabled="true"
       snapvisiblegridlinesonly="true" />
  </sodipodi:namedview>
  <metadata
     id="metadata7">
    <rdf:RDF>
      <cc:Work
         rdf:about="">
        <dc:format>image/svg+xml</dc:format>
        <dc:type
           rdf:resource="http://purl.org/dc/dcmitype/StillImage" />
        <dc:title />
      </cc:Work>
    </rdf:RDF>
  </metadata>
  <g
     inkscape:label="Layer 1"
     inkscape:groupmode="layer"
     id="layer1"
     transform="translate(0,-1036.3622)">
    <path
       style="color:#000000;fill:#8c8c8c;fill-opacity:1;enable-background:new"
       d="M 8 1 L 0 7 L 2 7 L 2 15 L 14 15 L 14 7 L 16 7 L 8 1 z M 8 2.3222656 L 10.5 4.1621094 L 13 6 L 13 14 L 3 14 L 3 6 L 5.5 4.1621094 L 8 2.3222656 z "
       transform="translate(0,1036.3622)"
       id="rect5149" />
    <rect
       y="1046.3622"
       x="7"
       height="4"
       width="2"
       id="rect5534"
       style="fill:#8c8c8c;fill-opacity:1;stroke:none;stroke-width:2;stroke-miterlimit:4;stroke-dasharray:none;stroke-opacity:1" />
    <path
       style="color:#000000;fill:#8c8c8c;fill-opacity:1;enable-background:new"
       d="M 28 1 L 20 7 L 22 7 L 22 15 L 34 15 L 34 7 L 36 7 L 28 1 z M 28 2.3222656 L 30.5 4.1621094 L 33 6 L 33 14 L 23 14 L 23 6 L 25.5 4.1621094 L 28 2.3222656 z "
       transform="translate(0,1036.3622)"
       id="path5538" />
    <rect
       style="fill:#8c8c8c;fill-opacity:1;stroke:none;stroke-width:2;stroke-miterlimit:4;stroke-dasharray:none;stroke-opacity:1"
       id="rect5544"
       width="4"
       height="5"
       x="26"
       y="1045.3622" />
    <rect
       y="1046.3622"
       x="27"
       height="5"
       width="2"
       id="rect5546"
       style="fill:#ffffff;fill-opacity:1;stroke:none;stroke-width:2;stroke-miterlimit:4;stroke-dasharray:none;stroke-opacity:1" />
  </g>
</svg>
