<?xml version="1.0" encoding="UTF-8" standalone="no"?>
<!-- Created with Inkscape (http://www.inkscape.org/) -->

<svg
   xmlns:dc="http://purl.org/dc/elements/1.1/"
   xmlns:cc="http://creativecommons.org/ns#"
   xmlns:rdf="http://www.w3.org/1999/02/22-rdf-syntax-ns#"
   xmlns:svg="http://www.w3.org/2000/svg"
   xmlns="http://www.w3.org/2000/svg"
   xmlns:sodipodi="http://sodipodi.sourceforge.net/DTD/sodipodi-0.dtd"
   xmlns:inkscape="http://www.inkscape.org/namespaces/inkscape"
   version="1.1"
   width="48"
   height="48"
   id="svg3889"
   inkscape:version="0.91 r13725"
   sodipodi:docname="gnome-netstatus-idle.svg">
  <metadata
     id="metadata29">
    <rdf:RDF>
      <cc:Work
         rdf:about="">
        <dc:format>image/svg+xml</dc:format>
        <dc:type
           rdf:resource="http://purl.org/dc/dcmitype/StillImage" />
        <dc:title />
      </cc:Work>
    </rdf:RDF>
  </metadata>
  <sodipodi:namedview
     pagecolor="#ffffff"
     bordercolor="#666666"
     borderopacity="1"
     objecttolerance="10"
     gridtolerance="10"
     guidetolerance="10"
     inkscape:pageopacity="0"
     inkscape:pageshadow="2"
     inkscape:window-width="1440"
     inkscape:window-height="854"
     id="namedview27"
     showgrid="false"
     inkscape:zoom="3.120931"
     inkscape:cx="46.386045"
     inkscape:cy="22.762671"
     inkscape:window-x="0"
     inkscape:window-y="0"
     inkscape:window-maximized="1"
     inkscape:current-layer="svg3889" />
  <defs
     id="defs3891" />
  <path
     style="display:inline;opacity:1;fill:#b190bb;fill-opacity:1;stroke:none;stroke-width:12;stroke-linecap:square;stroke-linejoin:miter;stroke-miterlimit:4;stroke-dasharray:none;stroke-opacity:1"
     d="m 8.4436512,8.4436508 a 21.999999,21.999999 0 0 0 0,31.1126982 21.999999,21.999999 0 0 0 31.1126978,0 21.999999,21.999999 0 0 0 0,-31.1126982 21.999999,21.999999 0 0 0 -31.1126978,0 z"
     id="rect4236-5-9"
     inkscape:connector-curvature="0" />
  <path
     style="display:inline;opacity:1;fill:#9469a2;fill-opacity:1;stroke:none;stroke-width:12;stroke-linecap:square;stroke-linejoin:miter;stroke-miterlimit:4;stroke-dasharray:none;stroke-opacity:1"
     d="m 2.0145028,23.999999 a 21.999999,21.999999 0 0 0 6.4291484,15.55635 21.999999,21.999999 0 0 0 31.1126978,0 21.999999,21.999999 0 0 0 6.429146,-15.55635 l -43.9709922,0 z"
     id="path12749"
     inkscape:connector-curvature="0" />
  <path
     style="color:#000000;display:inline;overflow:visible;visibility:visible;fill:#ffffff;fill-opacity:1;fill-rule:nonzero;stroke:none;stroke-width:1;stroke-linecap:butt;stroke-linejoin:round;stroke-miterlimit:4;stroke-dasharray:none;stroke-dashoffset:0.06;stroke-opacity:1;marker:none;enable-background:accumulate"
     id="path4348"
     d="M 27.5,19 19,9.5 10.5,19 l 4.500145,0 -2.9e-4,9 8,0 2.9e-4,-9 z"
     inkscape:connector-curvature="0"
     sodipodi:nodetypes="cccccccc" />
  <path
     sodipodi:nodetypes="cccccccc"
     inkscape:connector-curvature="0"
     d="m 20.5,30 8.5,9.5 8.5,-9.5 -4.500145,0 2.9e-4,-9 -8,0 -2.9e-4,9 z"
     id="path19308"
     style="color:#000000;display:inline;overflow:visible;visibility:visible;fill:#ffffff;fill-opacity:1;fill-rule:nonzero;stroke:none;stroke-width:1;stroke-linecap:butt;stroke-linejoin:round;stroke-miterlimit:4;stroke-dasharray:none;stroke-dashoffset:0.06;stroke-opacity:1;marker:none;enable-background:accumulate" />
</svg>
