<?xml version="1.0" encoding="UTF-8" standalone="no"?>
<!-- Created with Inkscape (http://www.inkscape.org/) -->

<svg
   xmlns:dc="http://purl.org/dc/elements/1.1/"
   xmlns:cc="http://creativecommons.org/ns#"
   xmlns:rdf="http://www.w3.org/1999/02/22-rdf-syntax-ns#"
   xmlns:svg="http://www.w3.org/2000/svg"
   xmlns="http://www.w3.org/2000/svg"
   xmlns:sodipodi="http://sodipodi.sourceforge.net/DTD/sodipodi-0.dtd"
   xmlns:inkscape="http://www.inkscape.org/namespaces/inkscape"
   version="1.0"
   width="20"
   height="20"
   id="svg3786"
   inkscape:version="0.91 r13725"
   sodipodi:docname="drive-harddisk.svg">
  <metadata
     id="metadata124981">
    <rdf:RDF>
      <cc:Work
         rdf:about="">
        <dc:format>image/svg+xml</dc:format>
        <dc:type
           rdf:resource="http://purl.org/dc/dcmitype/StillImage" />
        <dc:title />
      </cc:Work>
    </rdf:RDF>
  </metadata>
  <sodipodi:namedview
     pagecolor="#ffffff"
     bordercolor="#666666"
     borderopacity="1"
     objecttolerance="10"
     gridtolerance="10"
     guidetolerance="10"
     inkscape:pageopacity="0"
     inkscape:pageshadow="2"
     inkscape:window-width="1440"
     inkscape:window-height="855"
     id="namedview124979"
     showgrid="false"
     inkscape:zoom="16"
     inkscape:cx="-11.270643"
     inkscape:cy="9.120618"
     inkscape:window-x="0"
     inkscape:window-y="0"
     inkscape:window-maximized="1"
     inkscape:current-layer="svg3786"
     showguides="false" />
  <defs
     id="defs3788" />
  <path
     style="opacity:1;fill:#a6a6a6;fill-opacity:1;stroke:none;stroke-width:1;stroke-linecap:round;stroke-miterlimit:4;stroke-dasharray:none;stroke-opacity:1"
     d="m 5,3 10,0 c 0.554,0 0.953993,0.4479136 1,1 l 1,12 c 0.04601,0.552086 -0.446,1 -1,1 L 4,17 C 3.446,17 2.9539928,16.552086 3,16 L 4,4 C 4.0460072,3.4479136 4.446,3 5,3 Z"
     id="rect4158"
     inkscape:connector-curvature="0"
     sodipodi:nodetypes="sssssssss" />
  <path
     style="opacity:1;fill:#ffffff;fill-opacity:1;stroke:none;stroke-width:1;stroke-linecap:round;stroke-miterlimit:4;stroke-dasharray:none;stroke-opacity:1"
     d="m 5.5,4 9,0 c 0.277,0 0.474922,0.2241376 0.5,0.5 l 1,11 c 0.02508,0.275862 -0.223,0.5 -0.5,0.5 l -11,0 C 4.223,16 3.9749216,15.775862 4,15.5 L 5,4.5 C 5.0250784,4.2241376 5.223,4 5.5,4 Z"
     id="rect4210"
     inkscape:connector-curvature="0"
     sodipodi:nodetypes="sssssssss" />
  <rect
     style="opacity:1;fill:#a6a6a6;fill-opacity:1;fill-rule:evenodd;stroke:none;stroke-width:1;stroke-linecap:square;stroke-linejoin:miter;stroke-miterlimit:4;stroke-dasharray:none;stroke-opacity:1"
     id="rect4143"
     width="12"
     height="1"
     x="4"
     y="12" />
  <rect
     y="14"
     x="5"
     height="1"
     width="10"
     id="rect4162"
     style="opacity:1;fill:#a6a6a6;fill-opacity:1;fill-rule:evenodd;stroke:none;stroke-width:1;stroke-linecap:square;stroke-linejoin:miter;stroke-miterlimit:4;stroke-dasharray:none;stroke-opacity:1" />
</svg>
