<?xml version="1.0" encoding="UTF-8" standalone="no"?>
<!-- Created with Inkscape (http://www.inkscape.org/) -->

<svg
   xmlns:dc="http://purl.org/dc/elements/1.1/"
   xmlns:cc="http://creativecommons.org/ns#"
   xmlns:rdf="http://www.w3.org/1999/02/22-rdf-syntax-ns#"
   xmlns:svg="http://www.w3.org/2000/svg"
   xmlns="http://www.w3.org/2000/svg"
   xmlns:sodipodi="http://sodipodi.sourceforge.net/DTD/sodipodi-0.dtd"
   xmlns:inkscape="http://www.inkscape.org/namespaces/inkscape"
   version="1.0"
   width="32"
   height="32"
   id="svg3479"
   inkscape:version="0.91 r13725"
   sodipodi:docname="avatar-default.svg">
  <metadata
     id="metadata44">
    <rdf:RDF>
      <cc:Work
         rdf:about="">
        <dc:format>image/svg+xml</dc:format>
        <dc:type
           rdf:resource="http://purl.org/dc/dcmitype/StillImage" />
        <dc:title />
      </cc:Work>
    </rdf:RDF>
  </metadata>
  <sodipodi:namedview
     pagecolor="#ffffff"
     bordercolor="#666666"
     borderopacity="1"
     objecttolerance="10"
     gridtolerance="10"
     guidetolerance="10"
     inkscape:pageopacity="0"
     inkscape:pageshadow="2"
     inkscape:window-width="1325"
     inkscape:window-height="758"
     id="namedview42"
     showgrid="false"
     inkscape:zoom="5.9354065"
     inkscape:cx="-2.2322062"
     inkscape:cy="17.332167"
     inkscape:window-x="23"
     inkscape:window-y="92"
     inkscape:window-maximized="0"
     inkscape:current-layer="svg3479" />
  <defs
     id="defs3481" />
  <rect
     style="opacity:1;fill:#5f5f5f;fill-opacity:1;stroke:none;stroke-width:1;stroke-linecap:round;stroke-miterlimit:4;stroke-dasharray:none;stroke-opacity:1"
     id="rect4140-4-7"
     width="22"
     height="22"
     x="5"
     y="5" />
  <rect
     y="6"
     x="6"
     height="20"
     width="20"
     id="rect21562-3-4-8"
     style="opacity:1;fill:#ffffff;fill-opacity:1;fill-rule:evenodd;stroke:none;stroke-width:12;stroke-linecap:square;stroke-linejoin:miter;stroke-miterlimit:4;stroke-dasharray:none;stroke-opacity:1" />
  <path
     inkscape:connector-curvature="0"
     style="fill:#696969;fill-opacity:1;stroke:none"
     d="m 13.921712,15.811595 c 0.197098,0.908293 0.296147,1.789627 0.182292,2.697917 -1.333002,1.123931 -4.6065653,1.528109 -4.6121663,2.490035 l -0.291666,2.03691 6.7996663,-0.07291 6.799997,0.07291 -0.29166,-2.03691 c -0.006,-0.961926 -3.2795,-1.366104 -4.612504,-2.490035 -0.113855,-0.90829 -0.0148,-1.789624 0.182294,-2.697917 l -2.078127,0 z"
     id="path3766-6-3-3-6"
     sodipodi:nodetypes="ccccccccccc" />
  <path
     inkscape:connector-curvature="0"
     d="m 16.000007,8.7844965 c -1.914117,0 -3.465816,1.4766345 -3.465816,3.2981645 0.01498,0.674106 0.0714,1.474926 0.462106,3.298154 0.231053,0.706752 2.291951,2.591413 2.310543,2.826997 0.448098,0.235583 1.155273,0.235583 1.617383,0 0,-0.235584 1.848432,-2.120245 2.079492,-2.826997 0.43964,-1.894883 0.43852,-2.591408 0.4621,-3.298154 0,-1.82153 -1.551695,-3.2981645 -3.46581,-3.2981645 z"
     id="path3764-1-6-0-8"
     style="fill:#696969;fill-opacity:1;stroke:none" />
</svg>
