<?xml version="1.0" encoding="UTF-8" standalone="no"?>
<!-- Created with Inkscape (http://www.inkscape.org/) -->

<svg
   xmlns:dc="http://purl.org/dc/elements/1.1/"
   xmlns:cc="http://creativecommons.org/ns#"
   xmlns:rdf="http://www.w3.org/1999/02/22-rdf-syntax-ns#"
   xmlns:svg="http://www.w3.org/2000/svg"
   xmlns="http://www.w3.org/2000/svg"
   xmlns:sodipodi="http://sodipodi.sourceforge.net/DTD/sodipodi-0.dtd"
   xmlns:inkscape="http://www.inkscape.org/namespaces/inkscape"
   version="1.0"
   width="32"
   height="32"
   id="svg3479"
   inkscape:version="0.91 r13725"
   sodipodi:docname="avatar-default.svg">
  <metadata
     id="metadata44">
    <rdf:RDF>
      <cc:Work
         rdf:about="">
        <dc:format>image/svg+xml</dc:format>
        <dc:type
           rdf:resource="http://purl.org/dc/dcmitype/StillImage" />
        <dc:title />
      </cc:Work>
    </rdf:RDF>
  </metadata>
  <sodipodi:namedview
     pagecolor="#ffffff"
     bordercolor="#666666"
     borderopacity="1"
     objecttolerance="10"
     gridtolerance="10"
     guidetolerance="10"
     inkscape:pageopacity="0"
     inkscape:pageshadow="2"
     inkscape:window-width="1325"
     inkscape:window-height="758"
     id="namedview42"
     showgrid="false"
     inkscape:zoom="2.0984831"
     inkscape:cx="-16.925434"
     inkscape:cy="51.752325"
     inkscape:window-x="23"
     inkscape:window-y="94"
     inkscape:window-maximized="0"
     inkscape:current-layer="layer1" />
  <defs
     id="defs3481" />
  <g
     id="layer1"
     transform="translate(0,8)">
    <rect
       style="opacity:1;fill:#5f5f5f;fill-opacity:1;stroke:none;stroke-width:1;stroke-linecap:round;stroke-miterlimit:4;stroke-dasharray:none;stroke-opacity:1"
       id="rect4140-4-7"
       width="22"
       height="22"
       x="5"
       y="-3" />
    <rect
       y="-2"
       x="6"
       height="20"
       width="20"
       id="rect21562-3-4-8"
       style="opacity:1;fill:#ffffff;fill-opacity:1;fill-rule:evenodd;stroke:none;stroke-width:12;stroke-linecap:square;stroke-linejoin:miter;stroke-miterlimit:4;stroke-dasharray:none;stroke-opacity:1" />
    <path
       inkscape:connector-curvature="0"
       style="fill:#696969;fill-opacity:1;stroke:none"
       d="m 13.921711,7.8115943 c 0.197098,0.908293 0.296147,1.789627 0.182292,2.6979167 -1.333002,1.123931 -4.6065656,1.528109 -4.6121666,2.490035 l -0.291666,2.03691 6.7996666,-0.07291 6.799997,0.07291 -0.29166,-2.03691 c -0.006,-0.961926 -3.2795,-1.366104 -4.612504,-2.490035 -0.113855,-0.9082897 -0.0148,-1.7896237 0.182294,-2.6979167 l -2.078127,0 z"
       id="path3766-6-3-3-6"
       sodipodi:nodetypes="ccccccccccc" />
    <path
       inkscape:connector-curvature="0"
       d="m 16.000006,0.7844965 c -1.914117,0 -3.465816,1.476634 -3.465816,3.298164 0.01498,0.674106 0.0714,1.474926 0.462106,3.2981538 0.231053,0.706752 2.291951,2.591413 2.310543,2.8269967 0.448098,0.235583 1.155273,0.235583 1.617383,0 0,-0.2355837 1.848432,-2.1202447 2.079492,-2.8269967 0.43964,-1.8948828 0.43852,-2.5914078 0.4621,-3.2981538 0,-1.82153 -1.551695,-3.298164 -3.46581,-3.298164 z"
       id="path3764-1-6-0-8"
       style="fill:#696969;fill-opacity:1;stroke:none" />
  </g>
</svg>
