<?xml version="1.0" encoding="UTF-8" standalone="no"?>
<!-- Created with Inkscape (http://www.inkscape.org/) -->

<svg
   xmlns:dc="http://purl.org/dc/elements/1.1/"
   xmlns:cc="http://creativecommons.org/ns#"
   xmlns:rdf="http://www.w3.org/1999/02/22-rdf-syntax-ns#"
   xmlns:svg="http://www.w3.org/2000/svg"
   xmlns="http://www.w3.org/2000/svg"
   xmlns:sodipodi="http://sodipodi.sourceforge.net/DTD/sodipodi-0.dtd"
   xmlns:inkscape="http://www.inkscape.org/namespaces/inkscape"
   version="1.0"
   width="32"
   height="32"
   id="svg3479"
   inkscape:version="0.91 r13725"
   sodipodi:docname="avatar-default.svg">
  <metadata
     id="metadata44">
    <rdf:RDF>
      <cc:Work
         rdf:about="">
        <dc:format>image/svg+xml</dc:format>
        <dc:type
           rdf:resource="http://purl.org/dc/dcmitype/StillImage" />
        <dc:title />
      </cc:Work>
    </rdf:RDF>
  </metadata>
  <sodipodi:namedview
     pagecolor="#ffffff"
     bordercolor="#666666"
     borderopacity="1"
     objecttolerance="10"
     gridtolerance="10"
     guidetolerance="10"
     inkscape:pageopacity="0"
     inkscape:pageshadow="2"
     inkscape:window-width="1325"
     inkscape:window-height="758"
     id="namedview42"
     showgrid="false"
     inkscape:zoom="2.9677032"
     inkscape:cx="33.118376"
     inkscape:cy="-12.870106"
     inkscape:window-x="23"
     inkscape:window-y="94"
     inkscape:window-maximized="0"
     inkscape:current-layer="layer1" />
  <defs
     id="defs3481" />
  <g
     id="layer1"
     transform="translate(0,8)">
    <rect
       style="opacity:1;fill:#737373;fill-opacity:1;stroke:none;stroke-width:12;stroke-linecap:square;stroke-linejoin:miter;stroke-miterlimit:4;stroke-dasharray:none;stroke-opacity:1"
       id="rect4236-5"
       width="19.999893"
       height="19.999893"
       x="6.0001221"
       y="-17.99992"
       transform="scale(1,-1)" />
    <path
       sodipodi:nodetypes="cccc"
       inkscape:connector-curvature="0"
       id="path51471"
       d="M 25.999893,-1.9999261 6,17.999972 l 19.999893,1e-6 z"
       style="opacity:1;fill:#696969;fill-opacity:1;stroke:none;stroke-width:12;stroke-linecap:square;stroke-linejoin:miter;stroke-miterlimit:4;stroke-dasharray:none;stroke-opacity:1"
       inkscape:transform-center-x="2.259685" />
    <path
       style="opacity:1;fill:#5f5f5f;fill-opacity:1;stroke:none;stroke-width:12;stroke-linecap:square;stroke-linejoin:miter;stroke-miterlimit:4;stroke-dasharray:none;stroke-opacity:1"
       d="M 25.999884,17.999919 5.9999849,-1.9999733 l 0,19.9998923 z"
       id="path4526-4-9-2"
       inkscape:connector-curvature="0"
       sodipodi:nodetypes="cccc"
       inkscape:transform-center-y="-2.2596853" />
    <rect
       style="opacity:1;fill:#696969;fill-opacity:1;fill-rule:evenodd;stroke:none;stroke-width:12;stroke-linecap:square;stroke-linejoin:miter;stroke-miterlimit:4;stroke-dasharray:none;stroke-opacity:1"
       id="rect22781"
       width="6"
       height="6"
       x="6.9999733"
       y="-21"
       transform="matrix(0,1,-1,0,0,0)" />
    <path
       inkscape:connector-curvature="0"
       style="fill:#ffffff;fill-opacity:1;stroke:none"
       d="m 13.921541,7.8111114 c 0.197098,0.908293 0.296147,1.789627 0.182292,2.6979166 -1.333002,1.123931 -4.606566,1.528109 -4.612167,2.490035 L 9.2,15.035973 l 6.799666,-0.07291 6.8,0.07291 -0.291667,-2.03691 c -0.0056,-0.961926 -3.279498,-1.366104 -4.6125,-2.490035 -0.113855,-0.9082896 -0.0148,-1.7896236 0.182292,-2.6979166 l -2.078125,0 z"
       id="path3766-6"
       sodipodi:nodetypes="ccccccccccc" />
    <path
       inkscape:connector-curvature="0"
       d="m 15.999835,0.78401565 c -1.914116,0 -3.465815,1.47663425 -3.465815,3.29816445 0.01498,0.6741058 0.07141,1.4749253 0.462106,3.2981513 0.231053,0.706752 2.29195,2.591413 2.310542,2.8269966 0.448098,0.235583 1.155273,0.235583 1.617383,0 0,-0.2355836 1.848436,-2.1202446 2.079489,-2.8269966 0.439642,-1.8948804 0.438521,-2.5914054 0.462106,-3.2981513 0,-1.8215302 -1.551698,-3.29816445 -3.465813,-3.29816445 z"
       id="path3764-1"
       style="fill:#ffffff;fill-opacity:1;stroke:none" />
  </g>
</svg>
