<?xml version="1.0" encoding="UTF-8" standalone="no"?>
<!-- Created with Inkscape (http://www.inkscape.org/) -->

<svg
   xmlns:dc="http://purl.org/dc/elements/1.1/"
   xmlns:cc="http://creativecommons.org/ns#"
   xmlns:rdf="http://www.w3.org/1999/02/22-rdf-syntax-ns#"
   xmlns:svg="http://www.w3.org/2000/svg"
   xmlns="http://www.w3.org/2000/svg"
   xmlns:sodipodi="http://sodipodi.sourceforge.net/DTD/sodipodi-0.dtd"
   xmlns:inkscape="http://www.inkscape.org/namespaces/inkscape"
   version="1.0"
   width="48"
   height="48"
   id="svg3366"
   inkscape:version="0.91 r13725"
   sodipodi:docname="firefox.svg">
  <metadata
     id="metadata118050">
    <rdf:RDF>
      <cc:Work
         rdf:about="">
        <dc:format>image/svg+xml</dc:format>
        <dc:type
           rdf:resource="http://purl.org/dc/dcmitype/StillImage" />
        <dc:title />
      </cc:Work>
    </rdf:RDF>
  </metadata>
  <sodipodi:namedview
     pagecolor="#ffffff"
     bordercolor="#666666"
     borderopacity="1"
     objecttolerance="10"
     gridtolerance="10"
     guidetolerance="10"
     inkscape:pageopacity="0"
     inkscape:pageshadow="2"
     inkscape:window-width="1440"
     inkscape:window-height="852"
     id="namedview118048"
     showgrid="false"
     inkscape:zoom="2.0240935"
     inkscape:cx="160.50009"
     inkscape:cy="-42.007189"
     inkscape:window-x="0"
     inkscape:window-y="0"
     inkscape:window-maximized="1"
     inkscape:current-layer="svg3366"
     inkscape:object-nodes="true" />
  <defs
     id="defs3368" />
  <circle
     style="opacity:1;fill:#ffb923;fill-opacity:1;fill-rule:evenodd;stroke:none;stroke-width:1;stroke-linecap:square;stroke-linejoin:miter;stroke-miterlimit:4;stroke-dasharray:none;stroke-opacity:1"
     id="path21321"
     cx="24"
     cy="24"
     r="20" />
  <path
     inkscape:connector-curvature="0"
     style="fill:#ffffff;fill-opacity:1"
     d="m 35.148281,32.558827 c 0.848354,-1.591765 1.994075,-2.527574 2.615036,-3.629564 0.82212,-1.469323 2.387643,-5.588662 1.206942,-8.920859 0.542243,2.081532 0.367326,4.198049 -1.346881,5.265053 0.559748,-1.469315 0.900839,-4.687823 0.332347,-7.591475 -0.37607,-1.889123 -1.556778,-3.577095 -2.317671,-4.101848 0.708416,0.533506 1.276908,2.431374 1.259411,3.305962 -1.478059,-2.492587 -3.900689,-4.88023 -7.556488,-5.886013 2.842431,1.871628 3.90069,3.463392 4.565382,4.880231 -0.760899,-0.778389 -2.055297,-1.583013 -2.938637,-1.652978 1.311886,0.979541 3.515866,3.883192 3.279728,8.282408 -0.341091,-0.708423 -0.953306,-1.819158 -1.390605,-2.20398 0.472278,4.320498 0.0612,5.247562 -0.227394,6.393284 -0.0612,-0.524761 -0.253636,-0.927072 -0.358588,-1.163211 0,0 -0.0525,1.346873 -0.927064,3.270984 -0.664692,1.460571 -1.346881,1.906613 -1.652985,1.854137 -0.07872,-0.0087 -0.122442,-0.04372 -0.122442,-0.04372 0.01747,-0.192408 0.04372,-0.384823 -0.0087,-0.516009 0,0 -0.27987,0.09621 -0.463541,0.349836 -0.06997,0.104952 -0.166173,0.20116 -0.288615,0.297367 -0.01747,0.01748 0.20116,-0.27987 0.183663,-0.271125 -0.104952,0.08745 -0.227393,0.192407 -0.341091,0.314849 -0.428553,0.446043 -0.822119,0.944562 -1.023272,0.80463 0.183662,-0.0612 0.341091,-0.297367 0.376078,-0.533505 -0.166173,0.122442 -0.594727,0.437298 -1.556779,0.585981 -0.393566,0.0612 -2.064048,0.367325 -4.294263,-0.752154 0.323601,-0.03495 0.813376,-0.148676 1.180708,0.06997 -0.367332,-0.402311 -1.268163,-0.323594 -1.906621,-0.524754 -0.55974,-0.174917 -1.285653,-0.96205 -1.705453,-1.355617 1.714206,0.4198 3.533357,0.113696 4.58287,-0.603472 1.067004,-0.725912 1.696717,-1.259418 2.256457,-1.128225 0.559739,0.122443 0.935809,-0.437297 0.498519,-0.944561 -0.437298,-0.507272 -1.504302,-1.180709 -2.947383,-0.82212 -1.110735,0.279869 -2.046552,1.16321 -3.60333,0.550995 -0.09621,-0.03495 -0.192415,-0.07872 -0.288614,-0.131194 -0.09621,-0.0525 0.3236,0.0612 0.218648,0 -0.297367,-0.113697 -0.839609,-0.35858 -0.979548,-0.454788 -0.02625,-0.01747 0.227394,0.04372 0.201159,0.02625 -1.478067,-0.874596 -1.38186,-1.574275 -1.38186,-2.002821 0,-0.349843 0.209905,-0.813375 0.603472,-1.032023 0.209896,0.07872 0.341091,0.148683 0.341091,0.148683 0,0 -0.09621,-0.148683 -0.157429,-0.227394 0.01747,-0.0087 0.02625,-0.0087 0.04372,-0.01747 0.174919,0.0612 0.568485,0.201159 0.760893,0.306111 0.271125,0.131187 0.358587,0.271126 0.358587,0.271126 0,0 0.0612,-0.04372 0,-0.174918 -0.02625,-0.0612 -0.122441,-0.227393 -0.384822,-0.384822 0.0087,0 0.0087,0 0.0087,0 0.139939,0.0525 0.288615,0.122442 0.446043,0.218649 0.0525,-0.236146 0.148683,-0.48103 0.08746,-0.909583 -0.05249,-0.306104 -0.04372,-0.376069 -0.113698,-0.489767 -0.0612,-0.09621 0.01748,-0.131193 0.113698,-0.05249 -0.02625,-0.07872 -0.0612,-0.148684 -0.09621,-0.227402 0,0 0,0 0,0 0.07871,-0.37607 2.30018,-1.539281 2.466353,-1.661723 0.227393,-0.166172 0.46354,-0.428553 0.612216,-0.734665 0.104952,-0.192408 0.18367,-0.463532 0.166173,-0.865844 -0.01747,-0.288614 -0.183662,-0.463532 -2.553816,-0.437298 -0.647194,0.0087 -1.067004,-0.367332 -1.320631,-0.725913 -0.05249,-0.07871 -0.09621,-0.148684 -0.139939,-0.218649 -0.0525,-0.09621 -0.09621,-0.192407 -0.122441,-0.262381 0.279869,-1.023271 0.848354,-1.915358 1.731695,-2.64127 0.05249,-0.04372 -0.209904,0.02625 -0.157428,-0.01747 0.0612,-0.05251 0.437297,-0.236147 0.507263,-0.271126 0.08746,-0.0525 -0.411057,-0.18367 -0.830865,-0.09621 -0.428546,0.08746 -0.507263,0.139932 -0.734658,0.253629 0.08746,-0.0962 0.376078,-0.236138 0.306112,-0.227394 -0.46354,0.104952 -1.014535,0.411064 -1.478067,0.734666 0,-0.04372 0,-0.07872 0.0087,-0.139939 -0.218649,0.113696 -0.752147,0.524761 -0.883341,0.830865 0,-0.06997 0,-0.104952 -0.0087,-0.174918 -0.148675,0.139931 -0.297359,0.306104 -0.428546,0.481029 0,0 0,0.0087 -0.0087,0.0087 -1.381853,-0.341091 -2.553809,-0.262381 -3.542102,0.05249 -0.236139,-0.166173 -0.612215,-0.428553 -1.206942,-1.346881 -0.03495,-0.05251 -0.03495,0.122449 -0.06997,0.06997 -0.236139,-0.419808 -0.428553,-1.136977 -0.454787,-1.64424 0,0 -0.384823,0.218648 -0.629714,1.005782 -0.04372,0.139939 -0.07871,0.21865 -0.104952,0.297367 -0.0087,0.02625 0.01747,-0.253636 0.0087,-0.227401 -0.04372,0.09621 -0.18367,0.253636 -0.227394,0.428554 -0.03495,0.131193 -0.08746,0.209904 -0.104952,0.376077 0,0 0,0.0087 -0.0087,0.0087 0,-0.04372 -0.0087,-0.192407 -0.01748,-0.166173 -0.113698,0.288615 -0.209904,0.620961 -0.297359,0.997038 -0.122442,0.594726 -0.244891,1.408094 -0.166174,2.440119 0,0.08745 0.0087,0.166173 0.0087,0.236139 -0.376078,0.516008 -0.6122163,0.953306 -0.7084239,1.171956 -0.4547875,0.883341 -0.9183199,2.247711 -1.2943973,4.364228 0,0 0.2536357,-0.795886 0.7521547,-1.696716 -0.3673326,1.136977 -0.664692,2.903651 -0.4897742,5.553675 0.00877,-0.08746 0.087455,-0.7609 0.2798699,-1.66173 0.0962,1.766682 0.5160084,3.926931 1.8891238,6.279587 1.049515,1.792916 3.804482,5.955986 10.722519,7.512764 -0.760891,-0.218649 -1.233176,-0.655947 -1.233176,-0.655947 0,0 2.588803,0.830865 4.469174,0.760899 -0.594719,-0.104952 -0.708416,-0.384822 -0.708416,-0.384822 0,0 6.708133,0.376077 9.02581,-2.78121 -0.795878,0.927073 -2.798699,1.189445 -3.559598,1.19819 1.154466,-1.058259 3.708282,-1.040762 6.48074,-3.76075 1.521798,-1.495557 1.679227,-2.632534 1.8454,-3.690793 -0.218649,1.38186 -1.548033,2.22147 -2.929894,2.98237 z"
     id="path20638" />
</svg>
