<?xml version="1.0" encoding="UTF-8" standalone="no"?>
<!-- Created with Inkscape (http://www.inkscape.org/) -->

<svg
   xmlns:dc="http://purl.org/dc/elements/1.1/"
   xmlns:cc="http://creativecommons.org/ns#"
   xmlns:rdf="http://www.w3.org/1999/02/22-rdf-syntax-ns#"
   xmlns:svg="http://www.w3.org/2000/svg"
   xmlns="http://www.w3.org/2000/svg"
   xmlns:sodipodi="http://sodipodi.sourceforge.net/DTD/sodipodi-0.dtd"
   xmlns:inkscape="http://www.inkscape.org/namespaces/inkscape"
   version="1.1"
   width="48"
   height="48"
   id="svg4405"
   inkscape:version="0.91 r13725"
   sodipodi:docname="gimp.svg"
   inkscape:output_extension="org.inkscape.output.svg.inkscape"
   sodipodi:version="0.32">
  <metadata
     id="metadata46">
    <rdf:RDF>
      <cc:Work
         rdf:about="">
        <dc:format>image/svg+xml</dc:format>
        <dc:type
           rdf:resource="http://purl.org/dc/dcmitype/StillImage" />
      </cc:Work>
    </rdf:RDF>
  </metadata>
  <sodipodi:namedview
     pagecolor="#ffffff"
     bordercolor="#666666"
     borderopacity="1"
     objecttolerance="10"
     gridtolerance="10"
     guidetolerance="10"
     inkscape:pageopacity="0"
     inkscape:pageshadow="2"
     inkscape:window-width="1440"
     inkscape:window-height="852"
     id="namedview44"
     showgrid="false"
     inkscape:zoom="4.6385965"
     inkscape:cx="57.393928"
     inkscape:cy="37.595422"
     inkscape:window-x="0"
     inkscape:window-y="0"
     inkscape:window-maximized="1"
     inkscape:current-layer="svg4405" />
  <defs
     id="defs4407" />
  <circle
     style="opacity:1;fill:#2dcb8b;fill-opacity:1;fill-rule:evenodd;stroke:none;stroke-width:1;stroke-linecap:square;stroke-linejoin:miter;stroke-miterlimit:4;stroke-dasharray:none;stroke-opacity:1"
     id="path4340"
     cx="24"
     cy="24"
     r="20" />
  <path
     id="path4894-7"
     inkscape:connector-curvature="0"
     d="m 16.236974,14.042919 c 0,0 1.892855,4.836508 7.172419,5.111799 11.064176,0.574472 13.446517,-5.058533 13.787897,-5.871445 0.341388,-0.812911 0.755547,-0.653805 0.794086,0.124817 1.070793,33.093906 -26.438958,16.80614 -27.023477,11.138514 5.808008,-1.23012 4.669445,-4.535225 4.669445,-4.535225 l 0.59963,-5.968462 z"
     style="color:#000000;display:inline;overflow:visible;visibility:visible;fill:#ffffff;fill-opacity:1;fill-rule:evenodd;stroke:#ffffff;stroke-width:0.40566123;stroke-linecap:butt;stroke-linejoin:miter;stroke-miterlimit:10;stroke-dasharray:none;stroke-dashoffset:0;stroke-opacity:1;marker:none" />
  <path
     inkscape:connector-curvature="0"
     d="m 19.372166,28.384262 c 4.597639,0.819367 7.963685,0.788271 9.631584,-0.462067 -0.374007,-0.64989 -1.038346,-1.385005 -1.038346,-1.385005 0,0 1.854457,-0.204166 2.789556,1.436838 0.582776,1.938644 -0.2649,1.890148 -0.517136,3.097192 -0.304521,-1.10639 -0.981363,-1.57075 -1.047798,-2.005562 -1.566835,2.111371 -8.092451,0.90708 -9.81786,-0.681396 z"
     style="color:#000000;display:inline;overflow:visible;visibility:visible;fill:#4bbb8e;fill-opacity:1;fill-rule:evenodd;stroke:none;stroke-width:0.9999997;marker:none"
     id="path6480-0-1"
     sodipodi:nodetypes="ccccccc" />
  <path
     inkscape:connector-curvature="0"
     d="m 21.444053,21.508794 a 3.1954444,3.2076537 3.7578829 0 1 -6.371928,-0.49196 3.1954444,3.2076537 3.7578829 1 1 6.371928,0.49196 z"
     style="color:#000000;display:inline;overflow:visible;visibility:visible;fill:#ffffff;fill-opacity:1;fill-rule:evenodd;stroke:#ffffff;stroke-width:0.40566126;stroke-linecap:butt;stroke-linejoin:miter;stroke-miterlimit:10;stroke-dasharray:none;stroke-dashoffset:0;stroke-opacity:1;marker:none"
     id="path4357-6-0" />
  <path
     id="path4898-6"
     inkscape:connector-curvature="0"
     d="M 15.004503,22.223774 A 4.8054485,3.4081156 58.915517 0 1 9.1925362,25.785129 4.8054485,3.4081156 58.915517 1 1 15.004503,22.223774 Z"
     style="color:#000000;display:inline;overflow:visible;visibility:visible;fill:#ffffff;fill-opacity:1;fill-rule:evenodd;stroke:#ffffff;stroke-width:0.4056614;stroke-linecap:butt;stroke-linejoin:miter;stroke-miterlimit:10;stroke-dasharray:none;stroke-dashoffset:0;stroke-opacity:1;marker:none" />
  <path
     id="path4900-0"
     inkscape:connector-curvature="0"
     d="m 28.551022,22.407189 a 3.7511728,3.7655055 3.7578854 0 1 -7.480088,-0.577508 3.7511728,3.7655055 3.7578854 1 1 7.480088,0.577508 z"
     style="color:#000000;display:inline;overflow:visible;visibility:visible;fill:#ffffff;fill-opacity:1;fill-rule:evenodd;stroke:#ffffff;stroke-width:0.40566123;stroke-linecap:butt;stroke-linejoin:miter;stroke-miterlimit:10;stroke-dasharray:none;stroke-dashoffset:0;stroke-opacity:1;marker:none" />
  <ellipse
     cy="22.31683"
     cx="19.176712"
     style="fill:#4bbb8e;fill-opacity:1;stroke:none"
     id="path5480"
     rx="2.4300489"
     ry="2.4319291" />
  <ellipse
     cy="22.930389"
     cx="25.83943"
     style="fill:#4bbb8e;fill-opacity:1;stroke:none"
     id="path5480-7"
     rx="2.5122962"
     ry="2.51424" />
  <ellipse
     cy="21.83338"
     cx="24.94338"
     id="path5504"
     style="fill:#ffffff;fill-opacity:1;stroke:none"
     rx="2.1826477"
     ry="2.1843367" />
  <ellipse
     cy="20.959869"
     cx="18.576378"
     id="path5506"
     style="fill:#ffffff;fill-opacity:1;stroke:none"
     rx="2.1547463"
     ry="2.1564136" />
  <path
     sodipodi:nodetypes="sccccs"
     inkscape:connector-curvature="0"
     id="path4369"
     d="m 27.218081,29.60917 c -0.264567,0.01097 -0.333278,0.342474 -0.08398,0.617187 2.227994,2.04726 3.839192,2.895044 6.419922,4.248047 l 0.314453,-0.507812 C 31.870043,32.15764 30.072362,30.942399 27.544257,29.718545 27.417459,29.637475 27.306275,29.605512 27.218086,29.60917 Z"
     style="color:#000000;display:inline;overflow:visible;visibility:visible;fill:#4bbb8e;fill-opacity:1;fill-rule:nonzero;stroke:none;stroke-width:0.40566155;stroke-linecap:round;stroke-linejoin:miter;stroke-miterlimit:4;stroke-dasharray:none;stroke-dashoffset:0;stroke-opacity:1;marker:none" />
  <path
     style="color:#000000;display:inline;overflow:visible;visibility:visible;fill:#ffffff;fill-opacity:1;fill-rule:nonzero;stroke:#ffffff;stroke-width:0.40566155;stroke-linecap:round;stroke-linejoin:miter;stroke-miterlimit:4;stroke-dasharray:none;stroke-dashoffset:0;stroke-opacity:1;marker:none"
     d="m 27.794159,29.108233 c -0.264567,0.01097 -0.333278,0.342474 -0.08398,0.617187 2.227994,2.04726 3.839192,2.895044 6.419922,4.248047 l 0.314453,-0.507812 c -1.998433,-1.808952 -3.796114,-3.024193 -6.324219,-4.248047 -0.126798,-0.08107 -0.237982,-0.113033 -0.326171,-0.109375 z"
     id="path6937-0-8-2-7"
     inkscape:connector-curvature="0"
     sodipodi:nodetypes="sccccs" />
  <path
     inkscape:connector-curvature="0"
     d="m 36.978628,37.227082 c -0.09279,-2.215559 0.154786,-3.976461 -1.801361,-3.809207 -1.576383,0.134784 -2.251768,2.108439 -0.816993,2.644212 1.382142,0.516118 2.618354,1.164995 2.618354,1.164995 z"
     style="color:#000000;display:inline;overflow:visible;visibility:visible;fill:#ffffff;fill-opacity:1;fill-rule:nonzero;stroke:#ffffff;stroke-width:0.39989087;stroke-miterlimit:4;stroke-dasharray:none;stroke-opacity:1;marker:none"
     id="path6933-1-6-2-3" />
</svg>
