<?xml version="1.0" encoding="UTF-8" standalone="no"?>
<!-- Created with Inkscape (http://www.inkscape.org/) -->

<svg
   xmlns:dc="http://purl.org/dc/elements/1.1/"
   xmlns:cc="http://creativecommons.org/ns#"
   xmlns:rdf="http://www.w3.org/1999/02/22-rdf-syntax-ns#"
   xmlns:svg="http://www.w3.org/2000/svg"
   xmlns="http://www.w3.org/2000/svg"
   xmlns:sodipodi="http://sodipodi.sourceforge.net/DTD/sodipodi-0.dtd"
   xmlns:inkscape="http://www.inkscape.org/namespaces/inkscape"
   version="1.1"
   width="48"
   height="48"
   id="svg4405"
   inkscape:version="0.91 r13725"
   sodipodi:docname="adobe-reader.svg"
   inkscape:output_extension="org.inkscape.output.svg.inkscape"
   sodipodi:version="0.32">
  <metadata
     id="metadata46">
    <rdf:RDF>
      <cc:Work
         rdf:about="">
        <dc:format>image/svg+xml</dc:format>
        <dc:type
           rdf:resource="http://purl.org/dc/dcmitype/StillImage" />
      </cc:Work>
    </rdf:RDF>
  </metadata>
  <sodipodi:namedview
     pagecolor="#ffffff"
     bordercolor="#666666"
     borderopacity="1"
     objecttolerance="10"
     gridtolerance="10"
     guidetolerance="10"
     inkscape:pageopacity="0"
     inkscape:pageshadow="2"
     inkscape:window-width="1440"
     inkscape:window-height="875"
     id="namedview44"
     showgrid="false"
     inkscape:zoom="11.36734"
     inkscape:cx="10.012559"
     inkscape:cy="24"
     inkscape:window-x="0"
     inkscape:window-y="0"
     inkscape:window-maximized="1"
     inkscape:current-layer="svg4405" />
  <defs
     id="defs4407" />
  <rect
     style="fill:#d64440;fill-opacity:1;stroke:none;stroke-width:1;stroke-linecap:round;stroke-linejoin:round;stroke-miterlimit:4;stroke-dasharray:none;stroke-dashoffset:0;stroke-opacity:1"
     id="rect5505"
     y="6"
     x="6"
     ry="1.8947368"
     rx="1.8947368"
     height="36"
     width="36" />
  <path
     style="fill:#ffffff;fill-opacity:1;fill-rule:evenodd;stroke:none"
     id="path6711"
     d="M 27.611842,6.0000003 C 15.341301,16.544798 8.3315861,18.03324 5.9999999,18.197369 l 0,3.789473 C 7.759881,21.740743 12.183547,20.886196 16.894737,17.930921 22.935774,14.141448 30.157893,6.9473687 30.157893,6.9473687 28.177173,10.838575 27.600374,24.256585 27.562104,42 l 12.661579,0 C 41.21502,42 42,41.21502 42,40.223684 39.652703,35.375132 38.118727,28.3655 36.967103,22.105263 35.984204,14.635226 37.435579,8.1042341 37.973683,6.0000003 l -10.361841,0 z M 5.9999999,24.372919 l 0,4.197057 c 5.0941621,0 12.9256361,6.122173 16.7141631,13.430024 l 3.182188,0 C 24.116217,35.35645 9.8864361,24.372919 5.9999999,24.372919 Z"
     inkscape:connector-curvature="0" />
</svg>
