<?xml version="1.0" encoding="UTF-8" standalone="no"?>
<!-- Created with Inkscape (http://www.inkscape.org/) -->

<svg
   xmlns:dc="http://purl.org/dc/elements/1.1/"
   xmlns:cc="http://creativecommons.org/ns#"
   xmlns:rdf="http://www.w3.org/1999/02/22-rdf-syntax-ns#"
   xmlns:svg="http://www.w3.org/2000/svg"
   xmlns="http://www.w3.org/2000/svg"
   xmlns:sodipodi="http://sodipodi.sourceforge.net/DTD/sodipodi-0.dtd"
   xmlns:inkscape="http://www.inkscape.org/namespaces/inkscape"
   version="1.0"
   width="48"
   height="48"
   id="svg3786"
   inkscape:version="0.91 r13725"
   sodipodi:docname="gnome-disks.svg">
  <metadata
     id="metadata124981">
    <rdf:RDF>
      <cc:Work
         rdf:about="">
        <dc:format>image/svg+xml</dc:format>
        <dc:type
           rdf:resource="http://purl.org/dc/dcmitype/StillImage" />
        <dc:title />
      </cc:Work>
    </rdf:RDF>
  </metadata>
  <sodipodi:namedview
     pagecolor="#ffffff"
     bordercolor="#666666"
     borderopacity="1"
     objecttolerance="10"
     gridtolerance="10"
     guidetolerance="10"
     inkscape:pageopacity="0"
     inkscape:pageshadow="2"
     inkscape:window-width="1440"
     inkscape:window-height="854"
     id="namedview124979"
     showgrid="false"
     inkscape:zoom="7.8125"
     inkscape:cx="32.968171"
     inkscape:cy="14.764684"
     inkscape:window-x="0"
     inkscape:window-y="0"
     inkscape:window-maximized="1"
     inkscape:current-layer="svg3786"
     showguides="false"
     inkscape:snap-object-midpoints="true"
     inkscape:snap-center="true" />
  <defs
     id="defs3788" />
  <path
     style="fill:#969696;fill-opacity:1"
     d="m 10,4 28,0 c 1.662,0 2.902404,1.340868 3,3 l 2,34 c 0.0976,1.659132 -1.338,3 -3,3 L 8,44 C 6.338,44 4.902404,42.659132 5,41 L 7,7 C 7.097596,5.340868 8.338,4 10,4 Z"
     id="rect4216"
     inkscape:connector-curvature="0"
     sodipodi:nodetypes="sssssssss" />
  <path
     style="fill:#ffffff;fill-opacity:1"
     d="m 10.5,5 27,0 c 1.385,0 2.416214,1.1175366 2.5,2.5 l 2,33 c 0.08379,1.382463 -1.115,2.5 -2.5,2.5 l -31,0 C 7.115,43 5.9162143,41.882463 6,40.5 L 8,7.5 C 8.0837857,6.1175366 9.115,5 10.5,5 Z"
     id="rect4218"
     inkscape:connector-curvature="0"
     sodipodi:nodetypes="sssssssss" />
  <rect
     y="-11.828428"
     x="-33.112701"
     height="18"
     width="4"
     id="rect48446"
     style="opacity:1;fill:#b9b9b9;fill-opacity:1;stroke:none;stroke-width:12;stroke-linecap:square;stroke-linejoin:miter;stroke-miterlimit:4;stroke-dasharray:none;stroke-opacity:1"
     transform="matrix(-0.70710678,-0.70710678,-0.70710678,0.70710678,0,0)" />
  <rect
     style="opacity:1;fill:#a0a0a0;fill-opacity:1;fill-rule:evenodd;stroke:none;stroke-width:1;stroke-linecap:square;stroke-linejoin:miter;stroke-miterlimit:4;stroke-dasharray:none;stroke-opacity:1"
     id="rect4258-8-6"
     width="32"
     height="1"
     x="7.9999995"
     y="39" />
  <rect
     y="35"
     x="5.9999995"
     height="1"
     width="36"
     id="rect4260-1-6"
     style="opacity:1;fill:#a0a0a0;fill-opacity:1;fill-rule:evenodd;stroke:none;stroke-width:1;stroke-linecap:square;stroke-linejoin:miter;stroke-miterlimit:4;stroke-dasharray:none;stroke-opacity:1" />
  <rect
     transform="scale(-1,1)"
     style="opacity:1;fill:#b9b9b9;fill-opacity:1;stroke:none;stroke-width:12;stroke-linecap:square;stroke-linejoin:miter;stroke-miterlimit:4;stroke-dasharray:none;stroke-opacity:1"
     id="rect4200"
     width="4"
     height="18"
     x="-26.000002"
     y="11" />
  <rect
     transform="matrix(0,-1,-1,0,0,0)"
     style="opacity:1;fill:#b9b9b9;fill-opacity:1;stroke:none;stroke-width:12;stroke-linecap:square;stroke-linejoin:miter;stroke-miterlimit:4;stroke-dasharray:none;stroke-opacity:1"
     id="rect48448"
     width="4"
     height="18"
     x="-22"
     y="-33.000004" />
  <rect
     y="-40.112701"
     x="0.82842988"
     height="18"
     width="4"
     id="rect48450"
     style="opacity:1;fill:#b9b9b9;fill-opacity:1;stroke:none;stroke-width:12;stroke-linecap:square;stroke-linejoin:miter;stroke-miterlimit:4;stroke-dasharray:none;stroke-opacity:1"
     transform="matrix(0.70710678,-0.70710678,-0.70710678,-0.70710678,0,0)" />
  <circle
     r="6"
     cy="20"
     cx="24"
     id="circle48461"
     style="opacity:1;fill:#b9b9b9;fill-opacity:1;fill-rule:evenodd;stroke:none;stroke-width:1;stroke-linecap:square;stroke-linejoin:miter;stroke-miterlimit:4;stroke-dasharray:none;stroke-opacity:1" />
  <circle
     style="opacity:1;fill:#ffffff;fill-opacity:1;fill-rule:evenodd;stroke:none;stroke-width:1;stroke-linecap:square;stroke-linejoin:miter;stroke-miterlimit:4;stroke-dasharray:none;stroke-opacity:1"
     id="path48444"
     cx="24"
     cy="20"
     r="2.5" />
</svg>
