<?xml version="1.0" encoding="UTF-8" standalone="no"?>
<!-- Created with Inkscape (http://www.inkscape.org/) -->

<svg
   xmlns:dc="http://purl.org/dc/elements/1.1/"
   xmlns:cc="http://creativecommons.org/ns#"
   xmlns:rdf="http://www.w3.org/1999/02/22-rdf-syntax-ns#"
   xmlns:svg="http://www.w3.org/2000/svg"
   xmlns="http://www.w3.org/2000/svg"
   xmlns:xlink="http://www.w3.org/1999/xlink"
   xmlns:sodipodi="http://sodipodi.sourceforge.net/DTD/sodipodi-0.dtd"
   xmlns:inkscape="http://www.inkscape.org/namespaces/inkscape"
   version="1.0"
   width="48"
   height="48"
   id="svg4569"
   sodipodi:version="0.32"
   inkscape:version="0.91 r13725"
   sodipodi:docname="gtk-theme-config.svg"
   inkscape:output_extension="org.inkscape.output.svg.inkscape">
  <metadata
     id="metadata46">
    <rdf:RDF>
      <cc:Work
         rdf:about="">
        <dc:format>image/svg+xml</dc:format>
        <dc:type
           rdf:resource="http://purl.org/dc/dcmitype/StillImage" />
        <dc:title />
      </cc:Work>
    </rdf:RDF>
  </metadata>
  <sodipodi:namedview
     inkscape:window-height="855"
     inkscape:window-width="1440"
     inkscape:pageshadow="2"
     inkscape:pageopacity="0.0"
     guidetolerance="10.0"
     gridtolerance="10.0"
     objecttolerance="10.0"
     borderopacity="1.0"
     bordercolor="#666666"
     pagecolor="#ffffff"
     id="base"
     showgrid="false"
     showguides="true"
     inkscape:guide-bbox="true"
     inkscape:zoom="7.6999985"
     inkscape:cx="42.183347"
     inkscape:cy="-0.41304132"
     inkscape:window-x="0"
     inkscape:window-y="0"
     inkscape:current-layer="svg4569"
     inkscape:window-maximized="1">
    <inkscape:grid
       type="xygrid"
       id="grid2421"
       empspacing="5"
       visible="true"
       enabled="true"
       snapvisiblegridlinesonly="true" />
  </sodipodi:namedview>
  <defs
     id="defs4571">
    <linearGradient
       id="linearGradient3342-5">
      <stop
         id="stop3344-6"
         style="stop-color:#ffffff;stop-opacity:0"
         offset="0" />
      <stop
         id="stop3346-1"
         style="stop-color:#ffffff;stop-opacity:1"
         offset="1" />
    </linearGradient>
    <linearGradient
       inkscape:collect="always"
       xlink:href="#linearGradient3342-5"
       id="linearGradient3153-2"
       gradientUnits="userSpaceOnUse"
       gradientTransform="matrix(0.29941064,0.03554535,-0.03554452,0.2994039,17.533966,16.066318)"
       x1="20"
       y1="43"
       x2="20"
       y2="2.6887112" />
  </defs>
  <path
     style="opacity:1;fill:#e55f5f;fill-opacity:1;fill-rule:evenodd;stroke:none;stroke-width:1;stroke-linecap:square;stroke-linejoin:miter;stroke-miterlimit:4;stroke-dasharray:none;stroke-opacity:1"
     d="M 24,24 Z M 24,24 11.632813,11.632812 C 8.3500505,14.911763 6.5038085,19.360168 6.5000005,24 c 0.08335,1.850188 0.06237,1.502555 0.01172,0 z"
     id="path19126"
     inkscape:connector-curvature="0"
     sodipodi:nodetypes="ccccccc" />
  <path
     style="opacity:1;fill:#e2f848;fill-opacity:1;fill-rule:evenodd;stroke:none;stroke-width:1;stroke-linecap:square;stroke-linejoin:miter;stroke-miterlimit:4;stroke-dasharray:none;stroke-opacity:1"
     d="m 24.000002,6.5000015 0,17.4999995 L 36.365853,11.63415 A 17.5,17.5 0 0 0 24.000002,6.5000015 Z"
     id="path4793"
     inkscape:connector-curvature="0" />
  <path
     id="path4798"
     d="m 11.625633,11.625633 12.374369,12.374368 0,-17.4879545 A 17.5,17.5 0 0 0 11.625633,11.625632 Z"
     style="opacity:1;fill:#f7be52;fill-opacity:1;fill-rule:evenodd;stroke:none;stroke-width:1;stroke-linecap:square;stroke-linejoin:miter;stroke-miterlimit:4;stroke-dasharray:none;stroke-opacity:1"
     inkscape:connector-curvature="0" />
  <path
     id="path4800"
     d="m 36.37437,11.625634 -12.374369,12.374368 17.487954,0 A 17.5,17.5 0 0 0 36.37437,11.625634 Z"
     style="opacity:1;fill:#48f260;fill-opacity:1;fill-rule:evenodd;stroke:none;stroke-width:1;stroke-linecap:square;stroke-linejoin:miter;stroke-miterlimit:4;stroke-dasharray:none;stroke-opacity:1"
     inkscape:connector-curvature="0" />
  <path
     inkscape:connector-curvature="0"
     style="opacity:1;fill:#40e0f2;fill-opacity:1;fill-rule:evenodd;stroke:none;stroke-width:1;stroke-linecap:square;stroke-linejoin:miter;stroke-miterlimit:4;stroke-dasharray:none;stroke-opacity:1"
     d="m 41.5,24.000003 -17.5,-1e-6 12.365851,12.365851 A 17.5,17.5 0 0 0 41.5,24.000003 Z"
     id="path4802" />
  <path
     id="path4804"
     d="M 36.374367,36.374369 23.999999,24 l 0,17.487954 a 17.5,17.5 0 0 0 12.374368,-5.113585 z"
     style="opacity:1;fill:#5c72f8;fill-opacity:1;fill-rule:evenodd;stroke:none;stroke-width:1;stroke-linecap:square;stroke-linejoin:miter;stroke-miterlimit:4;stroke-dasharray:none;stroke-opacity:1"
     inkscape:connector-curvature="0" />
  <path
     inkscape:connector-curvature="0"
     style="opacity:1;fill:#b45bf4;fill-opacity:1;fill-rule:evenodd;stroke:none;stroke-width:1;stroke-linecap:square;stroke-linejoin:miter;stroke-miterlimit:4;stroke-dasharray:none;stroke-opacity:1"
     d="m 23.999999,41.499999 1e-6,-17.5 -12.365852,12.365852 a 17.5,17.5 0 0 0 12.36585,5.134148 z"
     id="path4806" />
  <path
     id="path4808"
     d="m 11.625631,36.374366 12.37437,-12.374368 -17.4879545,10e-7 a 17.5,17.5 0 0 0 5.1135845,12.374367 z"
     style="opacity:1;fill:#fa6adc;fill-opacity:1;fill-rule:evenodd;stroke:none;stroke-width:1;stroke-linecap:square;stroke-linejoin:miter;stroke-miterlimit:4;stroke-dasharray:none;stroke-opacity:1"
     inkscape:connector-curvature="0" />
  <rect
     style="fill:#ffffff;fill-opacity:1;stroke:none"
     id="rect3129-7-9-3"
     width="4"
     height="16"
     x="22"
     y="16" />
  <path
     d="m 29.957578,24.707017 c -0.39063,3.2904 -3.37479,5.6412 -6.6648,5.2506 -3.290306,-0.3906 -5.640977,-3.3747 -5.250354,-6.6651 0.390609,-3.2902 3.374594,-5.6407 6.664894,-5.2501 3.29001,0.3906 5.64087,3.3744 5.25026,6.6646 l 0,0 z"
     id="path6495-4-4-9"
     style="fill:#ffffff;fill-opacity:1;fill-rule:nonzero;stroke:url(#linearGradient3153-2);stroke-width:0;stroke-miterlimit:4;stroke-dasharray:none"
     inkscape:connector-curvature="0" />
  <rect
     y="-7.9999347"
     x="31.941168"
     height="16"
     width="4"
     id="rect5182"
     style="fill:#ffffff;fill-opacity:1;stroke:none"
     transform="matrix(0.70710678,0.70710678,-0.70710678,0.70710678,0,0)" />
  <rect
     y="-41.941166"
     x="-1.9999347"
     height="16"
     width="4"
     id="rect5186"
     style="fill:#ffffff;fill-opacity:1;stroke:none"
     transform="matrix(-0.70710678,0.70710678,-0.70710678,-0.70710678,0,0)" />
  <rect
     transform="matrix(0,1,-1,0,0,0)"
     style="fill:#ffffff;fill-opacity:1;stroke:none"
     id="rect5184"
     width="4"
     height="16"
     x="22.000122"
     y="-32" />
  <circle
     cy="24.000122"
     cx="24"
     id="path3842-9"
     style="fill:#74ccf8;fill-opacity:1;stroke:none"
     r="2.5" />
</svg>
