<?xml version="1.0" encoding="UTF-8" standalone="no"?>
<!-- Created with Inkscape (http://www.inkscape.org/) -->

<svg
   xmlns:dc="http://purl.org/dc/elements/1.1/"
   xmlns:cc="http://creativecommons.org/ns#"
   xmlns:rdf="http://www.w3.org/1999/02/22-rdf-syntax-ns#"
   xmlns:svg="http://www.w3.org/2000/svg"
   xmlns="http://www.w3.org/2000/svg"
   xmlns:sodipodi="http://sodipodi.sourceforge.net/DTD/sodipodi-0.dtd"
   xmlns:inkscape="http://www.inkscape.org/namespaces/inkscape"
   width="48px"
   height="48px"
   id="svg2429"
   sodipodi:version="0.32"
   inkscape:version="0.91 r13725"
   sodipodi:docname="minecraft.svg"
   inkscape:output_extension="org.inkscape.output.svg.inkscape"
   version="1.1">
  <defs
     id="defs2431" />
  <sodipodi:namedview
     id="base"
     pagecolor="#ffffff"
     bordercolor="#666666"
     borderopacity="1.0"
     inkscape:pageopacity="0.0"
     inkscape:pageshadow="2"
     inkscape:zoom="1.1796875"
     inkscape:cx="202.89793"
     inkscape:cy="35.933167"
     inkscape:current-layer="layer1"
     showgrid="true"
     inkscape:grid-bbox="true"
     inkscape:document-units="px"
     inkscape:window-width="1287"
     inkscape:window-height="783"
     inkscape:window-x="135"
     inkscape:window-y="27"
     showguides="true"
     inkscape:guide-bbox="true"
     inkscape:window-maximized="0" />
  <metadata
     id="metadata2434">
    <rdf:RDF>
      <cc:Work
         rdf:about="">
        <dc:format>image/svg+xml</dc:format>
        <dc:type
           rdf:resource="http://purl.org/dc/dcmitype/StillImage" />
        <dc:title />
      </cc:Work>
    </rdf:RDF>
  </metadata>
  <g
     id="layer1"
     inkscape:label="Layer 1"
     inkscape:groupmode="layer">
    <rect
       style="fill:#807035;fill-opacity:1;stroke:none"
       id="rect13648"
       width="4"
       height="4"
       x="-44"
       y="20"
       transform="scale(-1,1)" />
    <rect
       y="20"
       x="-40"
       height="4"
       width="4"
       id="rect13650"
       style="fill:#807035;fill-opacity:1;stroke:none"
       transform="scale(-1,1)" />
    <rect
       y="20"
       x="-36"
       height="4"
       width="4"
       id="rect13652"
       style="fill:#807035;fill-opacity:1;stroke:none"
       transform="scale(-1,1)" />
    <rect
       style="fill:#7a6b32;fill-opacity:1;stroke:none"
       id="rect13654"
       width="4"
       height="4"
       x="-32"
       y="20"
       transform="scale(-1,1)" />
    <rect
       style="fill:#7a6b32;fill-opacity:1;stroke:none"
       id="rect13656"
       width="4"
       height="4"
       x="-28"
       y="20"
       transform="scale(-1,1)" />
    <rect
       style="fill:#92803a;fill-opacity:1;stroke:none"
       id="rect13658"
       width="4"
       height="4"
       x="-24"
       y="20"
       transform="scale(-1,1)" />
    <rect
       y="20"
       x="-20"
       height="4"
       width="4"
       id="rect13660"
       style="fill:#7a6b32;fill-opacity:1;stroke:none"
       transform="scale(-1,1)" />
    <rect
       style="fill:#756730;fill-opacity:1;stroke:none"
       id="rect13662"
       width="4"
       height="4"
       x="-16"
       y="20"
       transform="scale(-1,1)" />
    <rect
       y="20"
       x="-12"
       height="4"
       width="4"
       id="rect13664"
       style="fill:#7a6b32;fill-opacity:1;stroke:none"
       transform="scale(-1,1)" />
    <rect
       y="20"
       x="-8"
       height="4"
       width="4"
       id="rect13666"
       style="fill:#7a6b32;fill-opacity:1;stroke:none"
       transform="scale(-1,1)" />
    <rect
       y="40"
       x="4"
       height="4"
       width="4"
       id="rect5211-35-1"
       style="fill:#7a6b32;fill-opacity:1;stroke:none" />
    <rect
       style="fill:#625729;fill-opacity:1;stroke:none"
       id="rect5213-1-2"
       width="4"
       height="4"
       x="8"
       y="40" />
    <rect
       style="fill:#7a6b32;fill-opacity:1;stroke:none"
       id="rect5215-53-0"
       width="4"
       height="4"
       x="12"
       y="40" />
    <rect
       y="40"
       x="16"
       height="4"
       width="4"
       id="rect5217-75-4"
       style="fill:#7a6b32;fill-opacity:1;stroke:none" />
    <rect
       y="40"
       x="20"
       height="4"
       width="4"
       id="rect5221-68-1"
       style="fill:#7a6b32;fill-opacity:1;stroke:none" />
    <rect
       y="40"
       x="24"
       height="4"
       width="4"
       id="rect5223-12-7"
       style="fill:#7a6b32;fill-opacity:1;stroke:none" />
    <rect
       style="fill:#7a6b32;fill-opacity:1;stroke:none"
       id="rect5225-92-4"
       width="4"
       height="4"
       x="28"
       y="40" />
    <rect
       y="40"
       x="32"
       height="4"
       width="4"
       id="rect5227-01-2"
       style="fill:#73652f;fill-opacity:1;stroke:none" />
    <rect
       style="fill:#7a6b32;fill-opacity:1;stroke:none"
       id="rect5229-6-8"
       width="4"
       height="4"
       x="36"
       y="40" />
    <rect
       style="fill:#695c2b;fill-opacity:1;stroke:none"
       id="rect5231-37-4"
       width="4"
       height="4"
       x="40"
       y="40" />
    <rect
       style="fill:#70622e;fill-opacity:1;stroke:none"
       id="rect5233-21-3"
       width="4"
       height="4"
       x="4"
       y="36" />
    <rect
       y="36"
       x="8"
       height="4"
       width="4"
       id="rect5235-04-5"
       style="fill:#7a6b32;fill-opacity:1;stroke:none" />
    <rect
       y="36"
       x="12"
       height="4"
       width="4"
       id="rect5237-16-3"
       style="fill:#7a6b32;fill-opacity:1;stroke:none" />
    <rect
       style="fill:#66592a;fill-opacity:1;stroke:none"
       id="rect5239-29-7"
       width="4"
       height="4"
       x="16"
       y="36" />
    <rect
       style="fill:#7a6b32;fill-opacity:1;stroke:none"
       id="rect5243-66-5"
       width="4"
       height="4"
       x="20"
       y="36" />
    <rect
       style="fill:#6e612d;fill-opacity:1;stroke:none"
       id="rect5245-04-4"
       width="4"
       height="4"
       x="24"
       y="36" />
    <rect
       y="36"
       x="28"
       height="4"
       width="4"
       id="rect5247-35-7"
       style="fill:#7a6b32;fill-opacity:1;stroke:none" />
    <rect
       style="fill:#7a6b32;fill-opacity:1;stroke:none"
       id="rect5249-160-4"
       width="4"
       height="4"
       x="32"
       y="36" />
    <rect
       y="36"
       x="36"
       height="4"
       width="4"
       id="rect5251-4-5"
       style="fill:#73652f;fill-opacity:1;stroke:none" />
    <rect
       y="36"
       x="40"
       height="4"
       width="4"
       id="rect5253-38-0"
       style="fill:#7a6b32;fill-opacity:1;stroke:none" />
    <rect
       style="fill:#7a6b32;fill-opacity:1;stroke:none"
       id="rect5255-2-5"
       width="4"
       height="4"
       x="4"
       y="32" />
    <rect
       y="32"
       x="8"
       height="4"
       width="4"
       id="rect5257-4-9"
       style="fill:#7a6b32;fill-opacity:1;stroke:none" />
    <rect
       y="32"
       x="12"
       height="4"
       width="4"
       id="rect5259-94-1"
       style="fill:#92803a;fill-opacity:1;stroke:none" />
    <rect
       style="fill:#7a6b32;fill-opacity:1;stroke:none"
       id="rect5261-34-4"
       width="4"
       height="4"
       x="16"
       y="32" />
    <rect
       style="fill:#70622e;fill-opacity:1;stroke:none"
       id="rect5265-6-7"
       width="4"
       height="4"
       x="20"
       y="32" />
    <rect
       style="fill:#7a6b32;fill-opacity:1;stroke:none"
       id="rect5267-5-5"
       width="4"
       height="4"
       x="24"
       y="32" />
    <rect
       y="32"
       x="28"
       height="4"
       width="4"
       id="rect5269-22-7"
       style="fill:#70622e;fill-opacity:1;stroke:none" />
    <rect
       style="fill:#8b7a39;fill-opacity:1;stroke:none"
       id="rect5271-24-1"
       width="4"
       height="4"
       x="32"
       y="32" />
    <rect
       y="32"
       x="36"
       height="4"
       width="4"
       id="rect5273-349-5"
       style="fill:#7a6b32;fill-opacity:1;stroke:none" />
    <rect
       y="32"
       x="40"
       height="4"
       width="4"
       id="rect5275-62-0"
       style="fill:#7a6b32;fill-opacity:1;stroke:none" />
    <rect
       y="28"
       x="16"
       height="4"
       width="4"
       id="rect5283-3-3"
       style="fill:#847436;fill-opacity:1;stroke:none" />
    <rect
       style="fill:#887738;fill-opacity:1;stroke:none"
       id="rect5295-6-7"
       width="4"
       height="4"
       x="36"
       y="28" />
    <rect
       style="fill:#7a6b32;fill-opacity:1;stroke:none"
       id="rect5299-8-4"
       width="4"
       height="4"
       x="4"
       y="28" />
    <rect
       y="28"
       x="8"
       height="4"
       width="4"
       id="rect5301-1-5"
       style="fill:#70622e;fill-opacity:1;stroke:none" />
    <rect
       y="28"
       x="12"
       height="4"
       width="4"
       id="rect5303-64-1"
       style="fill:#7a6b32;fill-opacity:1;stroke:none" />
    <rect
       style="fill:#907e3a;fill-opacity:1;stroke:none"
       id="rect5309-63-5"
       width="4"
       height="4"
       x="20"
       y="28" />
    <rect
       style="fill:#7a6b32;fill-opacity:1;stroke:none"
       id="rect5311-52-5"
       width="4"
       height="4"
       x="24"
       y="28" />
    <rect
       y="28"
       x="28"
       height="4"
       width="4"
       id="rect5313-42-5"
       style="fill:#7a6b32;fill-opacity:1;stroke:none" />
    <rect
       style="fill:#7a6b32;fill-opacity:1;stroke:none"
       id="rect5315-824-9"
       width="4"
       height="4"
       x="32"
       y="28" />
    <rect
       y="28"
       x="40"
       height="4"
       width="4"
       id="rect5319-231-3"
       style="fill:#7a6b32;fill-opacity:1;stroke:none" />
    <rect
       y="24"
       x="4"
       height="4"
       width="4"
       id="rect5321-57-0"
       style="fill:#807035;fill-opacity:1;stroke:none" />
    <rect
       style="fill:#807035;fill-opacity:1;stroke:none"
       id="rect5323-70-3"
       width="4"
       height="4"
       x="8"
       y="24" />
    <rect
       style="fill:#807035;fill-opacity:1;stroke:none"
       id="rect5325-29-0"
       width="4"
       height="4"
       x="12"
       y="24" />
    <rect
       y="24"
       x="16"
       height="4"
       width="4"
       id="rect5327-5-5"
       style="fill:#7a6b32;fill-opacity:1;stroke:none" />
    <rect
       y="24"
       x="20"
       height="4"
       width="4"
       id="rect5331-62-0"
       style="fill:#7a6b32;fill-opacity:1;stroke:none" />
    <rect
       y="24"
       x="24"
       height="4"
       width="4"
       id="rect5333-97-5"
       style="fill:#92803a;fill-opacity:1;stroke:none" />
    <rect
       style="fill:#7a6b32;fill-opacity:1;stroke:none"
       id="rect5335-94-1"
       width="4"
       height="4"
       x="28"
       y="24" />
    <rect
       y="24"
       x="32"
       height="4"
       width="4"
       id="rect5337-92"
       style="fill:#756730;fill-opacity:1;stroke:none" />
    <rect
       style="fill:#7a6b32;fill-opacity:1;stroke:none"
       id="rect5339-37-7"
       width="4"
       height="4"
       x="36"
       y="24" />
    <rect
       style="fill:#7a6b32;fill-opacity:1;stroke:none"
       id="rect5341-2-9"
       width="4"
       height="4"
       x="40"
       y="24" />
    <rect
       style="fill:#695c2b;fill-opacity:1;stroke:none"
       id="rect5365-63-7"
       width="4"
       height="4"
       x="4"
       y="16" />
    <rect
       y="16"
       x="8"
       height="4"
       width="4"
       id="rect5367-9-6"
       style="fill:#72642f;fill-opacity:1;stroke:none" />
    <rect
       y="16"
       x="12"
       height="4"
       width="4"
       id="rect5369-36-2"
       style="fill:#7f6f34;fill-opacity:1;stroke:none" />
    <rect
       style="fill:#554a23;fill-opacity:1;stroke:none"
       id="rect5371-4-3"
       width="4"
       height="4"
       x="16"
       y="16" />
    <rect
       style="fill:#6b5e2c;fill-opacity:1;stroke:none"
       id="rect5375-52-6"
       width="4"
       height="4"
       x="20"
       y="16" />
    <rect
       style="fill:#746631;fill-opacity:1;stroke:none"
       id="rect5377-63-0"
       width="4"
       height="4"
       x="24"
       y="16" />
    <rect
       y="16"
       x="28"
       height="4"
       width="4"
       id="rect5379-6-3"
       style="fill:#7f6f34;fill-opacity:1;stroke:none" />
    <rect
       style="fill:#887638;fill-opacity:1;stroke:none"
       id="rect5381-1-7"
       width="4"
       height="4"
       x="32"
       y="16" />
    <rect
       y="16"
       x="36"
       height="4"
       width="4"
       id="rect5383-522-5"
       style="fill:#6e612d;fill-opacity:1;stroke:none" />
    <rect
       y="16"
       x="40"
       height="4"
       width="4"
       id="rect5385-31-3"
       style="fill:#756630;fill-opacity:1;stroke:none" />
    <rect
       style="fill:#78bf63;fill-opacity:1;stroke:none"
       id="rect5387-9-2"
       width="4"
       height="4"
       x="4"
       y="12.000004" />
    <rect
       y="12.000004"
       x="8"
       height="4"
       width="4"
       id="rect5389-53-2"
       style="fill:#5caa46;fill-opacity:1;stroke:none" />
    <rect
       y="12.000004"
       x="12"
       height="4"
       width="4"
       id="rect5391-9-7"
       style="fill:#65592a;fill-opacity:1;stroke:none" />
    <rect
       style="fill:#63b44c;fill-opacity:1;stroke:none"
       id="rect5393-00-0"
       width="4"
       height="4"
       x="16"
       y="12.000004" />
    <rect
       style="fill:#5ead47;fill-opacity:1;stroke:none"
       id="rect5397-32-4"
       width="4"
       height="4"
       x="20"
       y="12.000004" />
    <rect
       style="fill:#72642f;fill-opacity:1;stroke:none"
       id="rect5399-94-5"
       width="4"
       height="4"
       x="24"
       y="12.000004" />
    <rect
       y="12.000004"
       x="28"
       height="4"
       width="4"
       id="rect5401-64-5"
       style="fill:#5ead47;fill-opacity:1;stroke:none" />
    <rect
       style="fill:#6e612d;fill-opacity:1;stroke:none"
       id="rect5403-10-1"
       width="4"
       height="4"
       x="32"
       y="12.000004" />
    <rect
       y="12.000004"
       x="36"
       height="4"
       width="4"
       id="rect5405-4"
       style="fill:#695d2b;fill-opacity:1;stroke:none" />
    <rect
       y="12.000004"
       x="40"
       height="4"
       width="4"
       id="rect5407-16-8"
       style="fill:#5ead47;fill-opacity:1;stroke:none" />
    <rect
       style="fill:#50943d;fill-opacity:1;stroke:none"
       id="rect5409-9-3"
       width="4"
       height="4"
       x="4"
       y="8.0000038" />
    <rect
       y="8.0000038"
       x="8"
       height="4"
       width="4"
       id="rect5411-45-7"
       style="fill:#5ead47;fill-opacity:1;stroke:none" />
    <rect
       y="8.0000038"
       x="12"
       height="4"
       width="4"
       id="rect5413-41-8"
       style="fill:#5ead47;fill-opacity:1;stroke:none" />
    <rect
       style="fill:#5aa644;fill-opacity:1;stroke:none"
       id="rect5415-92-9"
       width="4"
       height="4"
       x="16"
       y="8.0000038" />
    <rect
       style="fill:#53993f;fill-opacity:1;stroke:none"
       id="rect5419-56-9"
       width="4"
       height="4"
       x="20"
       y="8.0000038" />
    <rect
       style="fill:#6ab954;fill-opacity:1;stroke:none"
       id="rect5421-32-6"
       width="4"
       height="4"
       x="24"
       y="8.0000038" />
    <rect
       y="8.0000038"
       x="28"
       height="4"
       width="4"
       id="rect5423-87-0"
       style="fill:#4c8b39;fill-opacity:1;stroke:none" />
    <rect
       style="fill:#5a4f25;fill-opacity:1;stroke:none"
       id="rect5425-799-9"
       width="4"
       height="4"
       x="32"
       y="8.0000038" />
    <rect
       y="8.0000038"
       x="36"
       height="4"
       width="4"
       id="rect5427-33-8"
       style="fill:#69b852;fill-opacity:1;stroke:none" />
    <rect
       y="8.0000038"
       x="40"
       height="4"
       width="4"
       id="rect5429-03-7"
       style="fill:#549a3f;fill-opacity:1;stroke:none" />
    <rect
       style="fill:#73bd5e;fill-opacity:1;stroke:none"
       id="rect5453-53-0"
       width="4"
       height="4"
       x="4"
       y="4" />
    <rect
       y="4"
       x="8"
       height="4"
       width="4"
       id="rect5455-7-7"
       style="fill:#4e993a;fill-opacity:1;stroke:none" />
    <rect
       y="4"
       x="12"
       height="4"
       width="4"
       id="rect5457-6-6"
       style="fill:#6aac56;fill-opacity:1;stroke:none" />
    <rect
       style="fill:#57a142;fill-opacity:1;stroke:none"
       id="rect5459-0-3"
       width="4"
       height="4"
       x="16"
       y="4" />
    <rect
       style="fill:#7dc267;fill-opacity:1;stroke:none"
       id="rect5461-31-3"
       width="4"
       height="4"
       x="20"
       y="4" />
    <rect
       style="fill:#53993e;fill-opacity:1;stroke:none"
       id="rect5463-16-2"
       width="4"
       height="4"
       x="24"
       y="4" />
    <rect
       y="4"
       x="28"
       height="4"
       width="4"
       id="rect5465-2-3"
       style="fill:#559d40;fill-opacity:1;stroke:none" />
    <rect
       style="fill:#4e8f3a;fill-opacity:1;stroke:none"
       id="rect5467-87-6"
       width="4"
       height="4"
       x="32"
       y="4" />
    <rect
       y="4"
       x="36"
       height="4"
       width="4"
       id="rect5469-85-1"
       style="fill:#60b148;fill-opacity:1;stroke:none" />
    <rect
       y="4"
       x="40"
       height="4"
       width="4"
       id="rect5471-39-8"
       style="fill:#70bc5c;fill-opacity:1;stroke:none" />
    <path
       id="path11056-46-9"
       d="m 11.999997,28 0,1.5 0,1.5 1.5,0 1.5,0 0,-1.5 0,-1.5 -1.5,0 -1.5,0 z"
       style="fill:#3b3319;fill-opacity:1;stroke:none"
       inkscape:connector-curvature="0" />
    <path
       id="path11058-6-4"
       d="m 17.999997,28 0,1.5 0,1.5 1.5,0 1.5,0 0,-1.5 0,-1.5 -1.5,0 -1.5,0 z"
       style="fill:#d9b7a4;fill-opacity:1;stroke:none"
       inkscape:connector-curvature="0" />
    <path
       inkscape:connector-curvature="0"
       style="fill:#d9b7a4;fill-opacity:1;stroke:none"
       d="m 20.999997,28 0,1.5 0,1.5 1.500003,0 1.5,0 0,-1.5 0,-1.5 -1.5,0 -1.500003,0 z"
       id="path11060-0-1" />
    <path
       id="path11062-1-8"
       d="m 30,28 0,1.5 0,1.5 1.5,0 1.5,0 0,-1.5 0,-1.5 -1.5,0 -1.5,0 z"
       style="fill:#d9b7a4;fill-opacity:1;stroke:none"
       inkscape:connector-curvature="0" />
    <path
       id="path11064-9-4"
       d="m 11.999997,34 0,1.5 0,1.5 1.5,0 1.5,0 0,-1.5 0,-1.5 -1.5,0 -1.5,0 z"
       style="fill:#d9b7a4;fill-opacity:1;stroke:none"
       inkscape:connector-curvature="0" />
    <path
       id="path11066-0-7"
       d="m 17.999997,34 0,1.5 0,1.5 1.5,0 1.5,0 0,-1.5 0,-1.5 -1.5,0 -1.5,0 z"
       style="fill:#1966a9;fill-opacity:1;stroke:none"
       inkscape:connector-curvature="0" />
    <path
       inkscape:connector-curvature="0"
       style="fill:#d9b7a4;fill-opacity:1;stroke:none"
       d="m 20.999997,34 0,1.5 0,1.5 1.500003,0 1.5,0 0,-1.5 0,-1.5 -1.5,0 -1.500003,0 z"
       id="path11068-9-3" />
    <path
       inkscape:connector-curvature="0"
       style="fill:#d5af9a;fill-opacity:1;stroke:none"
       d="m 11.999997,37 0,3 0,3 1.5,0 1.5,0 0,-3 0,-3 -1.5,0 -1.5,0 z"
       id="path11070-8-1" />
    <path
       id="path11072-08-8"
       d="m 20.999997,37 0,1.5 0,1.5 1.500003,0 1.5,0 0,-1.5 0,-1.5 -1.5,0 -1.500003,0 z"
       style="fill:#b88365;fill-opacity:1;stroke:none"
       inkscape:connector-curvature="0" />
    <path
       inkscape:connector-curvature="0"
       style="fill:#d5af9a;fill-opacity:1;stroke:none"
       d="m 30,37 0,3 0,3 1.5,0 1.5,0 0,-3 0,-3 -1.5,0 -1.5,0 z"
       id="path11074-1-0" />
    <path
       id="path11082-5-9"
       d="m 20.999997,40 0,1.5 0,1.5 1.500003,0 1.5,0 0,-1.5 0,-1.5 -1.5,0 -1.500003,0 z"
       style="fill:#cca48d;fill-opacity:1;stroke:none"
       inkscape:connector-curvature="0" />
    <path
       inkscape:connector-curvature="0"
       style="fill:#d9b7a4;fill-opacity:1;stroke:none"
       d="m 17.999997,31 0,1.5 0,1.5 1.5,0 1.5,0 0,-1.5 0,-1.5 -1.5,0 -1.5,0 z"
       id="path11084-8-4" />
    <path
       id="path11086-7-7"
       d="m 17.999997,22 0,3 0,3 1.5,0 1.5,0 0,-3 0,-3 -1.5,0 -1.5,0 z"
       style="fill:#3b3319;fill-opacity:1;stroke:none"
       inkscape:connector-curvature="0" />
    <path
       id="path11088-2-9"
       d="m 20.999997,31 0,1.5 0,1.5 1.500003,0 1.5,0 0,-1.5 0,-1.5 -1.5,0 -1.500003,0 z"
       style="fill:#d9b7a4;fill-opacity:1;stroke:none"
       inkscape:connector-curvature="0" />
    <path
       id="path11090-3-3"
       d="m 17.999997,41 0,1 0,1 1.5,0 1.5,0 0,-1 0,-1 -1.5,0 -1.5,0 z"
       style="fill:#694339;fill-opacity:1;stroke:none"
       inkscape:connector-curvature="0" />
    <path
       inkscape:connector-curvature="0"
       style="fill:#694339;fill-opacity:1;stroke:none"
       d="m 30,41 0,1 0,1 -1.5,0 -1.5,0 0,-1 0,-1 1.5,0 1.5,0 z"
       id="path11092-4-9" />
    <path
       id="path11094-8-7"
       d="m 20.999997,43 0,1.5 0,1.5 1.500003,0 1.5,0 0,-1.5 0,-1.5 -1.5,0 -1.500003,0 z"
       style="fill:#694339;fill-opacity:1;stroke:none"
       inkscape:connector-curvature="0" />
    <path
       id="path11096-30-3"
       d="m 20.999997,22 0,3 0,3 1.500003,0 1.5,0 0,-3 0,-3 -1.5,0 -1.500003,0 z"
       style="fill:#3b3319;fill-opacity:1;stroke:none"
       inkscape:connector-curvature="0" />
    <path
       id="path11098-1-0"
       d="m 30,22 0,3 0,3 1.5,0 1.5,0 0,-3 0,-3 -1.5,0 -1.5,0 z"
       style="fill:#3b3319;fill-opacity:1;stroke:none"
       inkscape:connector-curvature="0" />
    <path
       inkscape:connector-curvature="0"
       style="fill:#3b3319;fill-opacity:1;stroke:none"
       d="m 11.999997,22 0,3 0,3 1.5,0 1.5,0 0,-3 0,-3 -1.5,0 -1.5,0 z"
       id="path11100-7-7" />
    <path
       inkscape:connector-curvature="0"
       style="fill:#d9b7a4;fill-opacity:1;stroke:none"
       d="m 14.999997,28 0,1.5 0,1.5 1.5,0 1.5,0 0,-1.5 0,-1.5 -1.5,0 -1.5,0 z"
       id="path11102-8-3" />
    <path
       inkscape:connector-curvature="0"
       style="fill:#3b3319;fill-opacity:1;stroke:none"
       d="m 33,28 0,1.5 0,1.5 1.5,0 1.5,0 0,-1.5 0,-1.5 -1.5,0 -1.5,0 z"
       id="path11104-3-0" />
    <path
       inkscape:connector-curvature="0"
       style="fill:#d9b7a4;fill-opacity:1;stroke:none"
       d="m 11.999997,31 0,1.5 0,1.5 1.5,0 1.5,0 0,-1.5 0,-1.5 -1.5,0 -1.5,0 z"
       id="path11106-7-7" />
    <path
       inkscape:connector-curvature="0"
       style="fill:#ffffff;fill-opacity:1;stroke:none"
       d="m 14.999997,34 0,1.5 0,1.5 1.5,0 1.5,0 0,-1.5 0,-1.5 -1.5,0 -1.5,0 z"
       id="path11108-51-9" />
    <path
       id="path11110-2-3"
       d="m 14.999997,31 0,1.5 0,1.5 1.5,0 1.5,0 0,-1.5 0,-1.5 -1.5,0 -1.5,0 z"
       style="fill:#d9b7a4;fill-opacity:1;stroke:none"
       inkscape:connector-curvature="0" />
    <path
       inkscape:connector-curvature="0"
       style="fill:#ffffff;fill-opacity:1;stroke:none"
       d="m 30,34 0,1.5 0,1.5 1.5,0 1.5,0 0,-1.5 0,-1.5 -1.5,0 -1.5,0 z"
       id="path11112-9-0" />
    <path
       id="path11114-1-3"
       d="m 30,31 0,1.5 0,1.5 1.5,0 1.5,0 0,-1.5 0,-1.5 -1.5,0 -1.5,0 z"
       style="fill:#d9b7a4;fill-opacity:1;stroke:none"
       inkscape:connector-curvature="0" />
    <path
       id="path11116-6-8"
       d="m 33,34 0,1.5 0,1.5 1.5,0 1.5,0 0,-1.5 0,-1.5 -1.5,0 -1.5,0 z"
       style="fill:#d9b7a4;fill-opacity:1;stroke:none"
       inkscape:connector-curvature="0" />
    <path
       inkscape:connector-curvature="0"
       style="fill:#d9b7a4;fill-opacity:1;stroke:none"
       d="m 33,31 0,1.5 0,1.5 1.5,0 1.5,0 0,-1.5 0,-1.5 -1.5,0 -1.5,0 z"
       id="path11118-7-6" />
    <path
       id="path11120-9-4"
       d="m 27,34 0,1.5 0,1.5 1.5,0 1.5,0 0,-1.5 0,-1.5 -1.5,0 -1.5,0 z"
       style="fill:#1966a9;fill-opacity:1;stroke:none"
       inkscape:connector-curvature="0" />
    <path
       inkscape:connector-curvature="0"
       style="fill:#d5af9a;fill-opacity:1;stroke:none"
       d="m 17.999997,37 0,1.5 0,1.5 1.5,0 1.5,0 0,-1.5 0,-1.5 -1.5,0 -1.5,0 z"
       id="path11122-98-9" />
    <path
       id="path11124-0-5"
       d="m 30,37 0,1.5 0,1.5 -1.5,0 -1.5,0 0,-1.5 0,-1.5 1.5,0 1.5,0 z"
       style="fill:#d5af9a;fill-opacity:1;stroke:none"
       inkscape:connector-curvature="0" />
    <path
       inkscape:connector-curvature="0"
       style="fill:#d1a891;fill-opacity:1;stroke:none"
       d="m 11.999997,43 0,1.5 0,1.5 1.5,0 1.5,0 0,-1.5 0,-1.5 -1.5,0 -1.5,0 z"
       id="path11126-1-0" />
    <path
       inkscape:connector-curvature="0"
       style="fill:#d1a891;fill-opacity:1;stroke:none"
       d="m 30,43 0,1.5 0,1.5 1.5,0 1.5,0 0,-1.5 0,-1.5 -1.5,0 -1.5,0 z"
       id="path11128-7-2" />
    <path
       inkscape:connector-curvature="0"
       style="fill:#694339;fill-opacity:1;stroke:none"
       d="m 27,43 0,1.5 0,1.5 1.5,0 1.5,0 0,-1.5 0,-1.5 -1.5,0 -1.5,0 z"
       id="path11130-9-5" />
    <path
       id="path11134-3-6"
       d="m 17.999997,43 0,1.5 0,1.5 1.5,0 1.5,0 0,-1.5 0,-1.5 -1.5,0 -1.5,0 z"
       style="fill:#694339;fill-opacity:1;stroke:none"
       inkscape:connector-curvature="0" />
    <path
       id="path11138-7-9"
       d="m 27,28 0,1.5 0,1.5 1.5,0 1.5,0 0,-1.5 0,-1.5 -1.5,0 -1.5,0 z"
       style="fill:#d9b7a4;fill-opacity:1;stroke:none"
       inkscape:connector-curvature="0" />
    <path
       inkscape:connector-curvature="0"
       style="fill:#d9b7a4;fill-opacity:1;stroke:none"
       d="m 27,31 0,1.5 0,1.5 1.5,0 1.5,0 0,-1.5 0,-1.5 -1.5,0 -1.5,0 z"
       id="path11140-0-9" />
    <path
       id="path11142-8-7"
       d="m 27,22 0,3 0,3 1.5,0 1.5,0 0,-3 0,-3 -1.5,0 -1.5,0 z"
       style="fill:#3b3319;fill-opacity:1;stroke:none"
       inkscape:connector-curvature="0" />
    <path
       id="path11144-7-9"
       d="m 14.999997,22 0,3 0,3 1.5,0 1.5,0 0,-3 0,-3 -1.5,0 -1.5,0 z"
       style="fill:#3b3319;fill-opacity:1;stroke:none"
       inkscape:connector-curvature="0" />
    <path
       inkscape:connector-curvature="0"
       style="fill:#3b3319;fill-opacity:1;stroke:none"
       d="m 33,22 0,3 0,3 1.5,0 1.5,0 0,-3 0,-3 -1.5,0 -1.5,0 z"
       id="path11146-9-9" />
    <path
       id="path11148-2-8"
       d="m 33,37 0,3 0,3 1.5,0 1.5,0 0,-3 0,-3 -1.5,0 -1.5,0 z"
       style="fill:#d5af9a;fill-opacity:1;stroke:none"
       inkscape:connector-curvature="0" />
    <path
       id="path11150-1-3"
       d="m 14.999997,37 0,3 0,3 1.5,0 1.5,0 0,-3 0,-3 -1.5,0 -1.5,0 z"
       style="fill:#d5af9a;fill-opacity:1;stroke:none"
       inkscape:connector-curvature="0" />
    <path
       id="path11156-4-8"
       d="m 33,43 0,1.5 0,1.5 1.5,0 1.5,0 0,-1.5 0,-1.5 -1.5,0 -1.5,0 z"
       style="fill:#d1a891;fill-opacity:1;stroke:none"
       inkscape:connector-curvature="0" />
    <path
       id="path11158-16-0"
       d="m 14.999997,43 0,1.5 0,1.5 1.5,0 1.5,0 0,-1.5 0,-1.5 -1.5,0 -1.5,0 z"
       style="fill:#d1a891;fill-opacity:1;stroke:none"
       inkscape:connector-curvature="0" />
    <path
       id="path11160-6-6"
       d="m 24,28 0,1.5 0,1.5 1.5,0 1.5,0 0,-1.5 0,-1.5 -1.5,0 -1.5,0 z"
       style="fill:#d9b7a4;fill-opacity:1;stroke:none"
       inkscape:connector-curvature="0" />
    <path
       id="path11162-2-9"
       d="m 24,34 0,1.5 0,1.5 1.5,0 1.5,0 0,-1.5 0,-1.5 -1.5,0 -1.5,0 z"
       style="fill:#d9b7a4;fill-opacity:1;stroke:none"
       inkscape:connector-curvature="0" />
    <path
       inkscape:connector-curvature="0"
       style="fill:#d9b7a4;fill-opacity:1;stroke:none"
       d="m 24,31 0,1.5 0,1.5 1.5,0 1.5,0 0,-1.5 0,-1.5 -1.5,0 -1.5,0 z"
       id="path11164-3-7" />
    <path
       inkscape:connector-curvature="0"
       style="fill:#3b3319;fill-opacity:1;stroke:none"
       d="m 24,22 0,3 0,3 1.5,0 1.5,0 0,-3 0,-3 -1.5,0 -1.5,0 z"
       id="path11166-4-2" />
    <path
       inkscape:connector-curvature="0"
       style="fill:#b88365;fill-opacity:1;stroke:none"
       d="m 24,37 0,1.5 0,1.5 1.5,0 1.5,0 0,-1.5 0,-1.5 -1.5,0 -1.5,0 z"
       id="path11168-8-9" />
    <path
       inkscape:connector-curvature="0"
       style="fill:#cca48d;fill-opacity:1;stroke:none"
       d="m 24,40 0,1.5 0,1.5 1.5,0 1.5,0 0,-1.5 0,-1.5 -1.5,0 -1.5,0 z"
       id="path11170-0-5" />
    <path
       inkscape:connector-curvature="0"
       style="fill:#694339;fill-opacity:1;stroke:none"
       d="m 24,43 0,1.5 0,1.5 1.5,0 1.5,0 0,-1.5 0,-1.5 -1.5,0 -1.5,0 z"
       id="path11172-1-7" />
    <rect
       transform="scale(-1,1)"
       style="fill:#7a6b32;fill-opacity:1;stroke:none"
       id="rect13668"
       width="1"
       height="4"
       x="-1"
       y="20" />
    <rect
       style="fill:#7a6b32;fill-opacity:1;stroke:none"
       id="rect13670"
       width="1"
       height="4"
       x="0"
       y="40" />
    <rect
       y="36"
       x="0"
       height="4"
       width="1"
       id="rect13672"
       style="fill:#70622e;fill-opacity:1;stroke:none" />
    <rect
       y="32"
       x="0"
       height="4"
       width="1"
       id="rect13674"
       style="fill:#7a6b32;fill-opacity:1;stroke:none" />
    <rect
       y="28"
       x="0"
       height="4"
       width="1"
       id="rect13676"
       style="fill:#7a6b32;fill-opacity:1;stroke:none" />
    <rect
       style="fill:#807035;fill-opacity:1;stroke:none"
       id="rect13678"
       width="1"
       height="4"
       x="0"
       y="24" />
    <rect
       y="16"
       x="0"
       height="4"
       width="1"
       id="rect13680"
       style="fill:#695c2b;fill-opacity:1;stroke:none" />
    <rect
       y="12.000004"
       x="0"
       height="4"
       width="1"
       id="rect13682"
       style="fill:#78bf63;fill-opacity:1;stroke:none" />
    <rect
       y="8.0000038"
       x="0"
       height="4"
       width="1"
       id="rect13684"
       style="fill:#50943d;fill-opacity:1;stroke:none" />
    <rect
       y="4"
       x="0"
       height="4"
       width="1"
       id="rect13686"
       style="fill:#73bd5e;fill-opacity:1;stroke:none" />
    <rect
       style="fill:#50943d;fill-opacity:1;stroke:none"
       id="rect13688"
       width="1"
       height="4"
       x="0"
       y="0" />
    <rect
       style="fill:#70622e;fill-opacity:1;stroke:none"
       id="rect13690"
       width="1"
       height="4"
       x="0"
       y="44" />
    <rect
       y="20"
       x="-48"
       height="4"
       width="1"
       id="rect13692"
       style="fill:#7a6b32;fill-opacity:1;stroke:none"
       transform="scale(-1,1)" />
    <rect
       y="40"
       x="47"
       height="4"
       width="1"
       id="rect13694"
       style="fill:#7a6b32;fill-opacity:1;stroke:none" />
    <rect
       style="fill:#70622e;fill-opacity:1;stroke:none"
       id="rect13696"
       width="1"
       height="4"
       x="47"
       y="36" />
    <rect
       style="fill:#7a6b32;fill-opacity:1;stroke:none"
       id="rect13698"
       width="1"
       height="4"
       x="47"
       y="32" />
    <rect
       style="fill:#7a6b32;fill-opacity:1;stroke:none"
       id="rect13700"
       width="1"
       height="4"
       x="47"
       y="28" />
    <rect
       y="24"
       x="47"
       height="4"
       width="1"
       id="rect13702"
       style="fill:#807035;fill-opacity:1;stroke:none" />
    <rect
       style="fill:#695c2b;fill-opacity:1;stroke:none"
       id="rect13704"
       width="1"
       height="4"
       x="47"
       y="16" />
    <rect
       style="fill:#78bf63;fill-opacity:1;stroke:none"
       id="rect13706"
       width="1"
       height="4"
       x="47"
       y="12.000004" />
    <rect
       style="fill:#50943d;fill-opacity:1;stroke:none"
       id="rect13708"
       width="1"
       height="4"
       x="47"
       y="8.0000038" />
    <rect
       style="fill:#73bd5e;fill-opacity:1;stroke:none"
       id="rect13710"
       width="1"
       height="4"
       x="47"
       y="4" />
    <rect
       y="0"
       x="47"
       height="4"
       width="1"
       id="rect13712"
       style="fill:#50943d;fill-opacity:1;stroke:none" />
    <rect
       y="44"
       x="47"
       height="4"
       width="1"
       id="rect13714"
       style="fill:#70622e;fill-opacity:1;stroke:none" />
    <rect
       y="0"
       x="4"
       height="1"
       width="4"
       id="rect13716"
       style="fill:#73bd5e;fill-opacity:1;stroke:none" />
    <rect
       style="fill:#4e993a;fill-opacity:1;stroke:none"
       id="rect13718"
       width="4"
       height="1"
       x="8"
       y="0" />
    <rect
       style="fill:#6aac56;fill-opacity:1;stroke:none"
       id="rect13720"
       width="4"
       height="1"
       x="12"
       y="0" />
    <rect
       y="0"
       x="16"
       height="1"
       width="4"
       id="rect13722"
       style="fill:#57a142;fill-opacity:1;stroke:none" />
    <rect
       y="0"
       x="20"
       height="1"
       width="4"
       id="rect13724"
       style="fill:#7dc267;fill-opacity:1;stroke:none" />
    <rect
       y="0"
       x="24"
       height="1"
       width="4"
       id="rect13726"
       style="fill:#53993e;fill-opacity:1;stroke:none" />
    <rect
       style="fill:#559d40;fill-opacity:1;stroke:none"
       id="rect13728"
       width="4"
       height="1"
       x="28"
       y="0" />
    <rect
       y="0"
       x="32"
       height="1"
       width="4"
       id="rect13730"
       style="fill:#4e8f3a;fill-opacity:1;stroke:none" />
    <rect
       style="fill:#60b148;fill-opacity:1;stroke:none"
       id="rect13732"
       width="4"
       height="1"
       x="36"
       y="0" />
    <rect
       style="fill:#70bc5c;fill-opacity:1;stroke:none"
       id="rect13734"
       width="4"
       height="1"
       x="40"
       y="0" />
    <rect
       y="0"
       x="44"
       height="1"
       width="4"
       id="rect13736"
       style="fill:#60b148;fill-opacity:1;stroke:none" />
    <rect
       y="0"
       x="0"
       height="1"
       width="4"
       id="rect13738"
       style="fill:#4e993a;fill-opacity:1;stroke:none" />
    <rect
       style="fill:#7a6b32;fill-opacity:1;stroke:none"
       id="rect13740"
       width="4"
       height="1"
       x="4"
       y="47" />
    <rect
       y="47"
       x="8"
       height="1"
       width="4"
       id="rect13742"
       style="fill:#625729;fill-opacity:1;stroke:none" />
    <rect
       y="47"
       x="12"
       height="1"
       width="4"
       id="rect13744"
       style="fill:#7a6b32;fill-opacity:1;stroke:none" />
    <rect
       style="fill:#7a6b32;fill-opacity:1;stroke:none"
       id="rect13746"
       width="4"
       height="1"
       x="16"
       y="47" />
    <rect
       style="fill:#7a6b32;fill-opacity:1;stroke:none"
       id="rect13748"
       width="4"
       height="1"
       x="20"
       y="47" />
    <rect
       style="fill:#7a6b32;fill-opacity:1;stroke:none"
       id="rect13750"
       width="4"
       height="1"
       x="24"
       y="47" />
    <rect
       y="47"
       x="28"
       height="1"
       width="4"
       id="rect13752"
       style="fill:#7a6b32;fill-opacity:1;stroke:none" />
    <rect
       style="fill:#73652f;fill-opacity:1;stroke:none"
       id="rect13754"
       width="4"
       height="1"
       x="32"
       y="47" />
    <rect
       y="47"
       x="36"
       height="1"
       width="4"
       id="rect13756"
       style="fill:#7a6b32;fill-opacity:1;stroke:none" />
    <rect
       y="47"
       x="40"
       height="1"
       width="4"
       id="rect13758"
       style="fill:#695c2b;fill-opacity:1;stroke:none" />
    <rect
       style="fill:#625729;fill-opacity:1;stroke:none"
       id="rect13760"
       width="4"
       height="1"
       x="0"
       y="47" />
    <rect
       style="fill:#7a6b32;fill-opacity:1;stroke:none"
       id="rect13762"
       width="4"
       height="1"
       x="44"
       y="47" />
    <path
       inkscape:connector-curvature="0"
       style="fill:#d5af9a;fill-opacity:1;stroke:none"
       d="m 18,40 0,0.5 0,0.5 1.5,0 1.5,0 0,-0.5 0,-0.5 -1.5,0 -1.5,0 z"
       id="path14383" />
    <path
       id="path14385"
       d="m 27,40 0,0.5 0,0.5 1.5,0 1.5,0 0,-0.5 0,-0.5 -1.5,0 -1.5,0 z"
       style="fill:#d5af9a;fill-opacity:1;stroke:none"
       inkscape:connector-curvature="0" />
  </g>
</svg>
