<?xml version="1.0" encoding="UTF-8" standalone="no"?>
<!-- Created with Inkscape (http://www.inkscape.org/) -->

<svg
   xmlns:dc="http://purl.org/dc/elements/1.1/"
   xmlns:cc="http://creativecommons.org/ns#"
   xmlns:rdf="http://www.w3.org/1999/02/22-rdf-syntax-ns#"
   xmlns:svg="http://www.w3.org/2000/svg"
   xmlns="http://www.w3.org/2000/svg"
   xmlns:sodipodi="http://sodipodi.sourceforge.net/DTD/sodipodi-0.dtd"
   xmlns:inkscape="http://www.inkscape.org/namespaces/inkscape"
   version="1.0"
   width="48"
   height="48"
   id="svg3479"
   inkscape:version="0.91 r13725"
   sodipodi:docname="mugshot.svg">
  <metadata
     id="metadata44">
    <rdf:RDF>
      <cc:Work
         rdf:about="">
        <dc:format>image/svg+xml</dc:format>
        <dc:type
           rdf:resource="http://purl.org/dc/dcmitype/StillImage" />
        <dc:title />
      </cc:Work>
    </rdf:RDF>
  </metadata>
  <sodipodi:namedview
     pagecolor="#ffffff"
     bordercolor="#666666"
     borderopacity="1"
     objecttolerance="10"
     gridtolerance="10"
     guidetolerance="10"
     inkscape:pageopacity="0"
     inkscape:pageshadow="2"
     inkscape:window-width="1440"
     inkscape:window-height="852"
     id="namedview42"
     showgrid="false"
     inkscape:zoom="5.9354064"
     inkscape:cx="8.4928686"
     inkscape:cy="16.998202"
     inkscape:window-x="0"
     inkscape:window-y="0"
     inkscape:window-maximized="1"
     inkscape:current-layer="svg3479" />
  <defs
     id="defs3481" />
  <rect
     style="opacity:1;fill:#737373;fill-opacity:1;stroke:none;stroke-width:12;stroke-linecap:square;stroke-linejoin:miter;stroke-miterlimit:4;stroke-dasharray:none;stroke-opacity:1"
     id="rect4236-5"
     width="35.999752"
     height="35.999752"
     x="6.000248"
     y="-41.999828"
     ry="3"
     rx="3"
     transform="scale(1,-1)" />
  <path
     style="opacity:1;fill:#696969;fill-opacity:1;stroke:none;stroke-width:12;stroke-linecap:square;stroke-linejoin:miter;stroke-miterlimit:4;stroke-dasharray:none;stroke-opacity:1"
     d="M 41.123047 6.8769531 L 6.8769531 41.123047 C 7.4192031 41.665297 8.169 42 9 42 L 39 42 C 40.662 42 42 40.662 42 39 L 42 9 C 42 8.169 41.665297 7.4192031 41.123047 6.8769531 z "
     id="path51471" />
  <path
     style="opacity:1;fill:#797979;fill-opacity:1;stroke:none;stroke-width:12;stroke-linecap:square;stroke-linejoin:miter;stroke-miterlimit:4;stroke-dasharray:none;stroke-opacity:1"
     d="M 6.8769531 6.8769531 C 6.3347031 7.4192031 6 8.169 6 9 L 6 39 C 6 40.662 7.338 42 9 42 L 39 42 C 39.831 42 40.580797 41.665297 41.123047 41.123047 L 6.8769531 6.8769531 z "
     id="path4526-4-9-2" />
  <path
     inkscape:connector-curvature="0"
     style="opacity:1;fill:#737373;fill-opacity:1;stroke:none;stroke-width:12;stroke-linecap:square;stroke-linejoin:miter;stroke-miterlimit:4;stroke-dasharray:none;stroke-opacity:1"
     d="m 9.0000002,42 c -0.831,0 -1.5807969,-0.334703 -2.1230469,-0.876953 L 24,24 41.123047,41.123047 C 40.580797,41.665297 39.831,42 39,42 L 9.0000002,42 Z"
     id="rect4236-5-6" />
  <rect
     style="opacity:1;fill:#696969;fill-opacity:1;fill-rule:evenodd;stroke:none;stroke-width:12;stroke-linecap:square;stroke-linejoin:miter;stroke-miterlimit:4;stroke-dasharray:none;stroke-opacity:1"
     id="rect22781"
     width="10"
     height="10"
     x="22.999937"
     y="-32"
     transform="matrix(0,1,-1,0,0,0)" />
  <rect
     transform="matrix(0,1,-1,0,0,0)"
     y="-25"
     x="22.999937"
     height="10"
     width="10"
     id="rect3253"
     style="opacity:1;fill:#797979;fill-opacity:1;fill-rule:evenodd;stroke:none;stroke-width:12;stroke-linecap:square;stroke-linejoin:miter;stroke-miterlimit:4;stroke-dasharray:none;stroke-opacity:1" />
  <path
     inkscape:connector-curvature="0"
     style="fill:#ffffff;fill-opacity:1;stroke:none"
     d="m 19.916897,23.805731 c 0.387227,1.784471 0.581825,3.515977 0.35814,5.300442 -2.618874,2.208122 -9.050254,3.002188 -9.061258,4.892027 L 10.640759,38 23.99967,37.856757 37.359242,38 36.786219,33.9982 c -0.01108,-1.889839 -6.443039,-2.683905 -9.061913,-4.892027 -0.223683,-1.784465 -0.02908,-3.515971 0.35814,-5.300442 l -4.082774,0 z"
     id="path3766-6"
     sodipodi:nodetypes="ccccccccccc" />
  <path
     inkscape:connector-curvature="0"
     d="m 24.000004,10 c -3.760553,0 -6.809088,2.901057 -6.809088,6.479714 0.02943,1.324377 0.140297,2.8977 0.907873,6.479689 0.453935,1.388514 4.502862,5.0912 4.539387,5.554035 0.880354,0.462837 2.2697,0.462837 3.17758,0 0,-0.462835 3.631515,-4.165521 4.085452,-5.554035 0.86374,-3.722764 0.861538,-5.091187 0.907875,-6.479689 C 30.809083,12.901057 27.76055,10 23.999998,10 Z"
     id="path3764-1"
     style="fill:#ffffff;fill-opacity:1;stroke:none" />
</svg>
