<?xml version="1.0" encoding="UTF-8" standalone="no"?>
<!-- Created with Inkscape (http://www.inkscape.org/) -->

<svg
   xmlns:dc="http://purl.org/dc/elements/1.1/"
   xmlns:cc="http://creativecommons.org/ns#"
   xmlns:rdf="http://www.w3.org/1999/02/22-rdf-syntax-ns#"
   xmlns:svg="http://www.w3.org/2000/svg"
   xmlns="http://www.w3.org/2000/svg"
   xmlns:sodipodi="http://sodipodi.sourceforge.net/DTD/sodipodi-0.dtd"
   xmlns:inkscape="http://www.inkscape.org/namespaces/inkscape"
   width="48"
   height="48"
   id="svg2"
   version="1.1"
   inkscape:version="0.91 r13725"
   sodipodi:docname="truecrypt.svg">
  <defs
     id="defs4" />
  <sodipodi:namedview
     id="base"
     pagecolor="#ffffff"
     bordercolor="#666666"
     borderopacity="1.0"
     inkscape:pageopacity="0.0"
     inkscape:pageshadow="2"
     inkscape:zoom="5.1044271"
     inkscape:cx="63.421705"
     inkscape:cy="0.51330063"
     inkscape:document-units="px"
     inkscape:current-layer="layer1"
     showgrid="false"
     inkscape:window-width="1440"
     inkscape:window-height="855"
     inkscape:window-x="0"
     inkscape:window-y="0"
     inkscape:window-maximized="1" />
  <metadata
     id="metadata7">
    <rdf:RDF>
      <cc:Work
         rdf:about="">
        <dc:format>image/svg+xml</dc:format>
        <dc:type
           rdf:resource="http://purl.org/dc/dcmitype/StillImage" />
        <dc:title />
      </cc:Work>
    </rdf:RDF>
  </metadata>
  <g
     inkscape:label="Layer 1"
     inkscape:groupmode="layer"
     id="layer1"
     transform="translate(0,-1004.3622)">
    <rect
       style="fill:#324aa4;fill-opacity:1;stroke:none"
       id="rect3857"
       width="32"
       height="42"
       x="8"
       y="1007.3622" />
    <rect
       y="1008.3622"
       x="9"
       height="40"
       width="30"
       id="rect3836"
       style="fill:#8abae6;fill-opacity:1;stroke:none" />
    <rect
       style="fill:#29498c;fill-opacity:1;stroke:none"
       id="rect2996"
       width="26"
       height="36"
       x="11"
       y="1010.3622" />
    <rect
       style="fill:#ffffff;fill-opacity:1;stroke:none"
       id="rect3778"
       width="4"
       height="4"
       x="12"
       y="1016.3622" />
    <path
       style="fill:#8abae6;fill-opacity:1;stroke:none"
       d="m 12,1041.3622 4,0 0,4 -4,0 z"
       id="path4247"
       inkscape:connector-curvature="0" />
    <path
       inkscape:connector-curvature="0"
       id="path4253"
       d="m 12,1036.3622 4,0 0,4 -4,0 z"
       style="fill:#8abae6;fill-opacity:1;stroke:none" />
    <path
       inkscape:connector-curvature="0"
       id="path4255"
       d="m 12,1031.3622 4,0 0,4 -4,0 z"
       style="fill:#8abae6;fill-opacity:1;stroke:none" />
    <path
       style="fill:#8abae6;fill-opacity:1;stroke:none"
       d="m 12,1026.3622 4,0 0,4 -4,0 z"
       id="path4257"
       inkscape:connector-curvature="0" />
    <path
       inkscape:connector-curvature="0"
       id="path4259"
       d="m 12,1021.3622 4,0 0,4 -4,0 z"
       style="fill:#8abae6;fill-opacity:1;stroke:none" />
    <path
       style="fill:#8abae6;fill-opacity:1;stroke:none"
       d="m 12,1011.3622 4,0 0,4 -4,0 z"
       id="path4261"
       inkscape:connector-curvature="0" />
    <rect
       y="1011.3622"
       x="17"
       height="4"
       width="4"
       id="rect4263"
       style="fill:#ffffff;fill-opacity:1;stroke:none" />
    <rect
       style="fill:#ffffff;fill-opacity:1;stroke:none"
       id="rect4265"
       width="4"
       height="4"
       x="17"
       y="1021.3622" />
    <path
       inkscape:connector-curvature="0"
       id="path4267"
       d="m 17,1016.3622 4,0 0,4 -4,0 z"
       style="fill:#8abae6;fill-opacity:1;stroke:none" />
    <path
       style="fill:#8abae6;fill-opacity:1;stroke:none"
       d="m 17,1036.3622 4,0 0,4 -4,0 z"
       id="path4271"
       inkscape:connector-curvature="0" />
    <path
       style="fill:#8abae6;fill-opacity:1;stroke:none"
       d="m 17,1031.3622 4,0 0,4 -4,0 z"
       id="path4273"
       inkscape:connector-curvature="0" />
    <path
       inkscape:connector-curvature="0"
       id="path4275"
       d="m 17,1026.3622 4,0 0,4 -4,0 z"
       style="fill:#8abae6;fill-opacity:1;stroke:none" />
    <rect
       y="1041.3622"
       x="17"
       height="4"
       width="4"
       id="rect4277"
       style="fill:#ffffff;fill-opacity:1;stroke:none" />
    <rect
       y="1021.3622"
       x="22"
       height="4"
       width="4"
       id="rect4279"
       style="fill:#ffffff;fill-opacity:1;stroke:none" />
    <rect
       style="fill:#ffffff;fill-opacity:1;stroke:none"
       id="rect4281"
       width="4"
       height="4"
       x="22"
       y="1026.3622" />
    <rect
       y="1031.3622"
       x="22"
       height="4"
       width="4"
       id="rect4283"
       style="fill:#ffffff;fill-opacity:1;stroke:none" />
    <rect
       style="fill:#ffffff;fill-opacity:1;stroke:none"
       id="rect4285"
       width="4"
       height="4"
       x="22"
       y="1036.3622" />
    <rect
       y="1041.3622"
       x="22"
       height="4"
       width="4"
       id="rect4287"
       style="fill:#ffffff;fill-opacity:1;stroke:none" />
    <rect
       style="fill:#ffffff;fill-opacity:1;stroke:none"
       id="rect4289"
       width="4"
       height="4"
       x="22"
       y="1011.3622" />
    <path
       style="fill:#8abae6;fill-opacity:1;stroke:none"
       d="m 22,1016.3622 4,0 0,4 -4,0 z"
       id="path4291"
       inkscape:connector-curvature="0" />
    <rect
       y="1011.3622"
       x="27"
       height="4"
       width="4"
       id="rect4293"
       style="fill:#ffffff;fill-opacity:1;stroke:none" />
    <rect
       style="fill:#ffffff;fill-opacity:1;stroke:none"
       id="rect4295"
       width="4"
       height="4"
       x="27"
       y="1021.3622" />
    <path
       inkscape:connector-curvature="0"
       id="path4297"
       d="m 27,1016.3622 4,0 0,4 -4,0 z"
       style="fill:#8abae6;fill-opacity:1;stroke:none" />
    <path
       inkscape:connector-curvature="0"
       id="path4299"
       d="m 27,1041.3622 4,0 0,4 -4,0 z"
       style="fill:#8abae6;fill-opacity:1;stroke:none" />
    <path
       style="fill:#8abae6;fill-opacity:1;stroke:none"
       d="m 27,1036.3622 4,0 0,4 -4,0 z"
       id="path4301"
       inkscape:connector-curvature="0" />
    <path
       style="fill:#8abae6;fill-opacity:1;stroke:none"
       d="m 27,1031.3622 4,0 0,4 -4,0 z"
       id="path4303"
       inkscape:connector-curvature="0" />
    <path
       inkscape:connector-curvature="0"
       id="path4305"
       d="m 27,1026.3622 4,0 0,4 -4,0 z"
       style="fill:#8abae6;fill-opacity:1;stroke:none" />
    <path
       style="fill:#8abae6;fill-opacity:1;stroke:none"
       d="m 32,1041.3622 4,0 0,4 -4,0 z"
       id="path4307"
       inkscape:connector-curvature="0" />
    <path
       inkscape:connector-curvature="0"
       id="path4309"
       d="m 32,1036.3622 4,0 0,4 -4,0 z"
       style="fill:#8abae6;fill-opacity:1;stroke:none" />
    <path
       inkscape:connector-curvature="0"
       id="path4311"
       d="m 32,1031.3622 4,0 0,4 -4,0 z"
       style="fill:#8abae6;fill-opacity:1;stroke:none" />
    <path
       style="fill:#8abae6;fill-opacity:1;stroke:none"
       d="m 32,1026.3622 4,0 0,4 -4,0 z"
       id="path4313"
       inkscape:connector-curvature="0" />
    <path
       inkscape:connector-curvature="0"
       id="path4315"
       d="m 32,1021.3622 4,0 0,4 -4,0 z"
       style="fill:#8abae6;fill-opacity:1;stroke:none" />
    <rect
       y="1016.3622"
       x="32"
       height="4"
       width="4"
       id="rect4317"
       style="fill:#ffffff;fill-opacity:1;stroke:none" />
    <path
       inkscape:connector-curvature="0"
       id="path4319"
       d="m 32,1011.3622 4,0 0,4 -4,0 z"
       style="fill:#8abae6;fill-opacity:1;stroke:none" />
  </g>
</svg>
