<?xml version="1.0" encoding="UTF-8" standalone="no"?>
<!-- Created with Inkscape (http://www.inkscape.org/) -->

<svg
   xmlns:dc="http://purl.org/dc/elements/1.1/"
   xmlns:cc="http://creativecommons.org/ns#"
   xmlns:rdf="http://www.w3.org/1999/02/22-rdf-syntax-ns#"
   xmlns:svg="http://www.w3.org/2000/svg"
   xmlns="http://www.w3.org/2000/svg"
   xmlns:xlink="http://www.w3.org/1999/xlink"
   xmlns:sodipodi="http://sodipodi.sourceforge.net/DTD/sodipodi-0.dtd"
   xmlns:inkscape="http://www.inkscape.org/namespaces/inkscape"
   version="1.1"
   width="48"
   height="48"
   id="svg3759"
   inkscape:version="0.91 r13725"
   sodipodi:docname="web-browser.svg">
  <metadata
     id="metadata37">
    <rdf:RDF>
      <cc:Work
         rdf:about="">
        <dc:format>image/svg+xml</dc:format>
        <dc:type
           rdf:resource="http://purl.org/dc/dcmitype/StillImage" />
        <dc:title />
      </cc:Work>
    </rdf:RDF>
  </metadata>
  <sodipodi:namedview
     pagecolor="#ffffff"
     bordercolor="#666666"
     borderopacity="1"
     objecttolerance="10"
     gridtolerance="10"
     guidetolerance="10"
     inkscape:pageopacity="0"
     inkscape:pageshadow="2"
     inkscape:window-width="963"
     inkscape:window-height="506"
     id="namedview35"
     showgrid="false"
     inkscape:zoom="1.5388635"
     inkscape:cx="43.662299"
     inkscape:cy="48.293828"
     inkscape:window-x="187"
     inkscape:window-y="131"
     inkscape:window-maximized="0"
     inkscape:current-layer="layer1" />
  <defs
     id="defs3761">
    <linearGradient
       id="linearGradient4873-9">
      <stop
         id="stop4875-7"
         style="stop-color:#ffffff;stop-opacity:0;"
         offset="0" />
      <stop
         id="stop4877-7"
         style="stop-color:#ffffff;stop-opacity:0.43650794;"
         offset="1" />
    </linearGradient>
    <linearGradient
       inkscape:collect="always"
       xlink:href="#linearGradient4873-9"
       id="linearGradient3778-1"
       gradientUnits="userSpaceOnUse"
       gradientTransform="matrix(0.74852659,0.08886334,-0.08886132,0.74850954,7.8349311,4.1657089)"
       x1="20"
       y1="43"
       x2="20"
       y2="2.6887112" />
  </defs>
  <g
     id="layer1">
    <circle
       r="20"
       style="opacity:1;fill:#479fd0;fill-opacity:1;fill-rule:evenodd;stroke:none;stroke-width:0.1;stroke-linecap:square;stroke-linejoin:miter;stroke-miterlimit:4;stroke-dasharray:none;stroke-opacity:1"
       id="path4160"
       cx="24"
       cy="24" />
    <path
       d="M 38.893943,25.767636 C 37.917375,33.993595 30.456971,39.870399 22.231958,38.893947 14.006191,37.917407 8.1295111,30.457171 9.1060691,22.231291 10.082593,14.005707 17.542539,8.1295319 25.768306,9.1060769 33.993319,10.082532 39.870466,17.542055 38.893943,25.767636 l 0,0 z"
       id="path6495"
       style="fill:#ffffff;fill-opacity:1;fill-rule:nonzero;stroke:url(#linearGradient3778-1);stroke-width:0;stroke-miterlimit:4;stroke-dasharray:none"
       inkscape:connector-curvature="0" />
    <path
       d="m 27.406631,11.765241 -1.635248,-0.203012 -1.86751,0.05853 c 0.161936,-0.01674 0.327001,-0.03775 0.493777,-0.0509 l -0.114302,-0.419477 -0.709671,-0.05068 -0.419632,0.240306 -0.539388,-0.05813 -0.53339,0.114651 -0.255341,0.0601 -0.09068,0.07578 -0.35765,-0.01384 -0.311497,0.389059 -0.137387,-0.620912 -0.147218,0.20885 -0.10668,0.634809 -0.521761,0.264352 -0.413274,0.60899 0.52249,0.127436 0.311497,-0.389058 0.1076,-0.145083 c 0.270027,-0.109182 0.532684,-0.240057 0.805452,-0.342018 l 0.500132,0.317778 c 0.295154,0.331811 0.591857,0.668118 0.887399,0.999631 l 0.640789,-0.357679 -0.528661,-0.398161 -0.137385,-0.62091 -0.971367,-0.35928 0.0053,-0.121051 0.409078,0.197672 0.311858,-0.193172 0.573373,0.01746 c 0.144584,-0.03234 0.282712,-0.04737 0.425625,-0.06752 l -0.419632,0.24033 1.018251,1.15392 -0.123951,0.508224 -0.595367,0.368774 0.320561,1.448792 0.493597,-0.148849 0.753662,-0.721773 c 0.825277,-0.05404 1.584501,-0.165999 2.38926,-0.322865 l -0.124321,0.312333 0.301491,0.342759 0.743118,-0.283793 -0.227881,-0.447181 -0.493596,0.148849 -0.125043,-0.07943 c 0.03486,-0.007 0.0671,-0.01693 0.102142,-0.02406 l 1.04177,-1.508136 -1.250507,-0.892386 z m -6.832878,0.976875 0.43234,0.497046 0.431621,0.105267 0.107052,-0.438923 -0.466146,-0.358439 -0.504861,0.195048 0,0 z m 12.135856,2.641593 -0.98773,0.0038 -0.686404,0.248674 -0.08454,0.346516 -1.077876,0.373476 -0.03799,0.945268 0.640983,-0.259751 0.244976,0.475828 0.329828,0.325194 0.413273,-0.608991 -0.04053,-0.425957 0.20391,-0.243977 0.669156,-0.375254 0.249872,0.06095 -0.385105,0.493485 -0.123919,0.508226 c 0.239893,-0.0073 0.472624,0.02371 0.709679,0.05069 l -0.74876,0.306894 -0.113031,0.266135 -0.87904,0.44644 -0.704583,-0.367639 0.107039,-0.438923 -0.397091,0.147902 0.06327,0.431507 -0.545224,-0.132964 -0.419264,0.436199 -0.464885,0.327176 -0.692589,-0.02206 0.290405,0.486904 -0.0048,0.414882 -0.477049,-0.116352 -0.720583,0.191389 -0.247892,1.016447 0.295316,0.07203 0.199363,0.3668 0.686602,-0.150715 0.379283,-0.568326 0.521949,-0.166401 0.147221,-0.208849 0.772017,-0.0075 0.296222,0.561746 0.375278,0.336275 -0.373831,0.447285 0.414354,-0.02132 0.328394,-0.458363 -0.358914,-0.699412 0.204446,0.04986 0.398358,0.537709 -0.04438,0.576588 0.307658,0.61349 0.29388,-0.711535 0.25533,-0.06012 c 0.179538,0.314243 0.294014,0.67291 0.427613,1.009873 l 0.738382,0.229036 0.364007,0.38248 -0.277695,0.250449 -0.527403,0.28742 -0.636066,-0.155137 -0.77292,-0.482204 -0.442888,-0.05905 -0.40818,0.292053 -0.683306,-1.145657 -0.590999,-0.339938 -0.959559,-0.111634 -0.874145,0.03155 c -0.59771,0.424058 -1.207966,0.851332 -1.785754,1.302215 l -0.837992,1.166234 0.182275,0.33816 -0.617724,0.559126 0.212431,1.300041 c 0.299191,0.57981 0.601613,1.156986 0.900111,1.736984 l 0.742939,-0.381735 0.171007,0.384361 0.765836,-0.278254 0.165172,0.309515 0.658787,0.160665 0.279145,0.533109 -0.418728,0.730033 0.324753,0.642136 -0.24808,0.918496 0.177372,0.753043 -0.390734,0.516586 c -0.125391,0.408251 -0.243023,0.799004 -0.344055,1.213273 0.06354,0.610122 0.127959,1.218997 0.179351,1.830431 l -0.08344,0.934177 -0.112683,0.462024 0.36347,0.08862 0.606993,-0.219136 0.636074,0.15513 1.218903,-0.853056 -0.02354,-0.39734 0.776925,-0.422398 -0.347477,-0.64768 0.680604,-0.323522 0.629712,-0.213573 0.317489,-0.216261 -0.007,-0.662517 c 0.128066,-0.525116 0.255008,-1.04569 0.383114,-1.570873 l 0.668247,-0.864984 0.691693,-0.46766 0.951209,-1.334422 0.0958,-0.392717 c -0.303075,-0.0339 -0.593084,-0.06867 -0.885753,-0.118018 l 0.737122,-0.456581 0.953018,-0.354978 0.555569,-0.402957 0.135209,-0.554426 c -0.05209,-0.21159 -0.101661,-0.437751 -0.154471,-0.649528 l -0.498842,0.367816 -0.210813,-0.418542 -0.347113,-0.45178 0.17467,-0.716136 0.358922,0.699413 0.584823,0.0692 c 0.198506,0.299013 0.39324,0.569324 0.552281,0.893425 l 0.464919,-0.327184 c 0.109217,-0.44761 0.152382,-2.778522 -0.463148,-4.910043 -0.615608,-2.130943 -2.079819,-4.300946 -2.079819,-4.300946 l -0.198266,0.220868 -0.63499,0.432541 -0.472686,-0.825061 0.636074,0.155133 0.374189,-0.251391 -1.124937,-0.519111 -0.557019,-0.380596 z m -13.726033,-3.029413 -0.373651,0.545226 c 0,0 -0.413996,-0.03024 -0.522304,-0.02951 -1.601194,0.903477 -4.875506,2.911607 -6.701198,7.739677 -0.004,0.121318 0.240065,0.890705 0.240065,0.890705 l 0.853055,0.8444 0.931928,0.520988 0.302037,0.636592 0.534838,0.668894 0.403085,0.02488 0.238798,0.205094 -0.0225,0.09239 -0.617003,0.950904 -0.402362,0.366898 0.04017,0.230074 -0.42999,0.776239 0.457404,1.775862 0.677316,0.972868 0.250966,0.648616 -0.327137,1.143971 0.114866,0.713319 -0.57684,1.180974 c 0,0 -0.03384,-0.01969 -0.02819,0.115503 0.006,0.134771 1.281424,1.342609 1.393165,1.294302 0.111733,-0.04974 0.215537,-0.09432 0.215537,-0.09432 l -0.02325,-0.299402 0.476328,-0.275418 0.232078,-0.359458 0.664061,-0.05831 0.770023,-1.08491 -0.05742,-0.356669 0.441985,-0.430646 0.766377,0.0157 0.577571,-0.789288 0.173928,-1.107917 0.765113,-0.670034 0.293693,-0.809476 c -0.683425,-0.58299 -1.349454,-1.173189 -2.024189,-1.766377 l -0.200261,-0.85652 -0.664783,-0.333456 -0.132649,-1.133737 -0.95956,-0.111633 -0.671317,-0.80008 -1.049164,0.551805 -0.02817,0.1155 c -0.240084,-0.138933 -0.543656,-0.224813 -0.738778,-0.424911 l -0.04652,-0.598746 0.146484,-0.600633 -0.607536,-0.07475 c 0.140837,-0.370996 0.299575,-0.745426 0.440719,-1.116274 l -0.340751,-0.08308 -0.4478,0.355818 -0.357471,0.08415 -0.409444,-0.393565 0.10105,-0.611712 0.248624,-0.624668 0.839435,-0.38268 0.567921,0.138501 0.192465,-0.295711 0.664781,0.333458 0.359099,0.797358 0.361295,-1.086693 1.094596,-0.540723 0.515227,-0.730976 0.749112,-0.111017 0.498685,-0.465781 0.902676,0.04883 0.589374,-0.541567 c -0.427216,-0.104184 -0.867641,-0.211607 -1.29486,-0.315798 l 0.913587,-0.193267 0.567918,0.138499 0.788913,-0.07683 -0.03835,0.749377 0.441985,-0.430659 -0.301492,-0.342759 0.164116,-0.278151 -0.227711,-0.34924 -0.295525,-0.169967 0.175381,-0.324356 -0.131567,-0.546066 -0.624263,0.0925 0.197914,-0.41676 -0.563007,-0.553387 -0.747848,0.796617 -0.03344,0.334498 -0.578828,0.103583 -0.492692,0.638568 0.0043,-0.708714 -0.795816,-0.585687 -0.03508,-0.547008 1.373012,-0.399396 0.646434,-0.380799 0.191922,-0.589549 -0.255878,-0.23373 -0.374919,-0.140383 -7e-6,-3e-6 z m 9.475071,3.485648 -0.09013,0.369617 0.148131,0.280872 -0.135209,0.554427 -0.293873,0.711534 0.618808,0.02858 0.538661,-0.333663 -0.296037,-0.463806 c -0.04254,-0.369701 -0.09484,-0.706484 -0.172262,-1.069991 l -0.318032,-0.07758 z m -0.680058,0.617348 -0.39164,0.02685 -0.0725,0.692097 0.539031,-0.137765 -0.07488,-0.581188 0,0 z m 5.174265,7.698906 0.387451,0.779794 0.309464,1.592944 0.296221,0.561744 -0.322773,0.435268 0.256426,0.527563 c -0.169506,-0.02944 -0.333975,-0.05697 -0.505404,-0.09879 -0.149148,-0.741466 -0.231948,-1.472739 -0.299298,-2.226811 l -0.296221,-0.561749 -0.02435,-0.887041 0.19848,-0.122931 0,-2e-6 z"
       id="path6534"
       style="fill:#479fd0;fill-opacity:1;fill-rule:nonzero;stroke:none"
       inkscape:connector-curvature="0" />
  </g>
</svg>
