<?xml version="1.0" encoding="UTF-8" standalone="no"?>
<!-- Created with Inkscape (http://www.inkscape.org/) -->

<svg
   xmlns:dc="http://purl.org/dc/elements/1.1/"
   xmlns:cc="http://creativecommons.org/ns#"
   xmlns:rdf="http://www.w3.org/1999/02/22-rdf-syntax-ns#"
   xmlns:svg="http://www.w3.org/2000/svg"
   xmlns="http://www.w3.org/2000/svg"
   xmlns:sodipodi="http://sodipodi.sourceforge.net/DTD/sodipodi-0.dtd"
   xmlns:inkscape="http://www.inkscape.org/namespaces/inkscape"
   version="1.0"
   width="48"
   height="48"
   id="svg4569"
   sodipodi:version="0.32"
   inkscape:version="0.91 r13725"
   sodipodi:docname="xfce4-panel.svg"
   inkscape:output_extension="org.inkscape.output.svg.inkscape">
  <metadata
     id="metadata46">
    <rdf:RDF>
      <cc:Work
         rdf:about="">
        <dc:format>image/svg+xml</dc:format>
        <dc:type
           rdf:resource="http://purl.org/dc/dcmitype/StillImage" />
        <dc:title />
      </cc:Work>
    </rdf:RDF>
  </metadata>
  <sodipodi:namedview
     inkscape:window-height="854"
     inkscape:window-width="1440"
     inkscape:pageshadow="2"
     inkscape:pageopacity="0.0"
     guidetolerance="10.0"
     gridtolerance="10.0"
     objecttolerance="10.0"
     borderopacity="1.0"
     bordercolor="#666666"
     pagecolor="#ffffff"
     id="base"
     showgrid="false"
     showguides="true"
     inkscape:guide-bbox="true"
     inkscape:zoom="5.230593"
     inkscape:cx="27.852077"
     inkscape:cy="34.435138"
     inkscape:window-x="0"
     inkscape:window-y="0"
     inkscape:current-layer="svg4569"
     inkscape:window-maximized="1">
    <inkscape:grid
       type="xygrid"
       id="grid2421"
       empspacing="5"
       visible="true"
       enabled="true"
       snapvisiblegridlinesonly="true" />
  </sodipodi:namedview>
  <defs
     id="defs4571" />
  <rect
     width="18"
     height="34"
     x="3"
     y="5.9999995"
     id="rect39888"
     style="fill:#414141;fill-opacity:1;stroke:none;stroke-width:0.29979977;stroke-linecap:round;stroke-linejoin:round;stroke-miterlimit:4;stroke-dasharray:none;stroke-dashoffset:0.5;stroke-opacity:1" />
  <rect
     style="fill:#414141;fill-opacity:1;stroke:none;stroke-width:0.29979977;stroke-linecap:round;stroke-linejoin:round;stroke-miterlimit:4;stroke-dasharray:none;stroke-dashoffset:0.5;stroke-opacity:1"
     id="rect39249"
     y="26"
     x="3"
     height="14"
     width="42" />
  <rect
     width="18"
     height="8"
     x="25"
     y="29"
     id="rect39890"
     style="fill:#8d8d8d;fill-opacity:1;stroke:none;stroke-width:0.29979977;stroke-linecap:round;stroke-linejoin:round;stroke-miterlimit:4;stroke-dasharray:none;stroke-dashoffset:0.5;stroke-opacity:1" />
  <rect
     style="fill:#e2e2e2;fill-opacity:1;stroke:none;stroke-width:0.29979977;stroke-linecap:round;stroke-linejoin:round;stroke-miterlimit:4;stroke-dasharray:none;stroke-dashoffset:0.5;stroke-opacity:1"
     id="rect39892"
     y="7"
     x="4"
     height="19"
     width="16" />
  <rect
     width="10"
     height="1"
     x="7"
     y="11"
     id="rect39894"
     style="fill:#494949;fill-opacity:1;stroke:none;stroke-width:0.29979977;stroke-linecap:round;stroke-linejoin:round;stroke-miterlimit:4;stroke-dasharray:none;stroke-dashoffset:0.5;stroke-opacity:1" />
  <rect
     style="fill:#494949;fill-opacity:1;stroke:none;stroke-width:0.29979977;stroke-linecap:round;stroke-linejoin:round;stroke-miterlimit:4;stroke-dasharray:none;stroke-dashoffset:0.5;stroke-opacity:1"
     id="rect39896"
     y="14"
     x="7"
     height="1"
     width="10" />
  <rect
     style="fill:#494949;fill-opacity:1;stroke:none;stroke-width:0.29979977;stroke-linecap:round;stroke-linejoin:round;stroke-miterlimit:4;stroke-dasharray:none;stroke-dashoffset:0.5;stroke-opacity:1"
     id="rect39898"
     y="17"
     x="7"
     height="1"
     width="10" />
  <rect
     width="10"
     height="1"
     x="7"
     y="20"
     id="rect39900"
     style="fill:#494949;fill-opacity:1;stroke:none;stroke-width:0.29979977;stroke-linecap:round;stroke-linejoin:round;stroke-miterlimit:4;stroke-dasharray:none;stroke-dashoffset:0.5;stroke-opacity:1" />
  <circle
     style="opacity:1;fill:#c8c8c8;fill-opacity:1;stroke:none;stroke-width:1;stroke-linecap:round;stroke-miterlimit:4;stroke-dasharray:none;stroke-opacity:1"
     id="path8747"
     cx="12"
     cy="33"
     r="4" />
  <path
     inkscape:connector-curvature="0"
     d="m 13.415611,30.760722 c -0.230258,0.03496 -0.342739,1.460942 -0.239842,1.653646 0.176104,-0.114983 0.438754,-0.664682 0.52071,-0.85207 -0.06393,0.173871 -0.144091,0.998313 -0.111085,1.007968 0.06956,0.09304 1.013408,-1.46306 0.739092,-1.57412 -0.03943,-0.01597 -0.304378,0.470685 -0.525128,0.966941 0.0025,-0.212276 0.174011,-0.853681 0.104142,-1.048361 -0.139785,-0.04141 -0.405519,0.567747 -0.514397,0.852701 -0.03404,-0.144704 0.149345,-0.936508 0.02651,-1.006705 z m -2.082206,0.150217 c -0.06981,0.0017 -0.124565,0.02283 -0.143905,0.02272 -0.446883,0.06279 -0.313079,0.689444 -0.123708,1.276842 0.01617,0.150361 -0.139939,0.08742 -0.241735,-0.07006 -0.343322,-0.840234 -0.495044,-0.813118 -0.590768,-0.837553 -0.09169,-0.0189 -0.4103883,0.14862 -0.4033128,0.48852 0.00118,0.09764 0.1227984,0.557766 0.1237072,0.700591 -0.4024956,0.691316 -0.5663412,1.375407 -0.061852,2.082837 0.5087256,0.674098 2.0228026,0.696597 2.2936456,0.537749 0.103329,-0.07258 1.648512,-0.83387 2.004573,-1.129148 0.530815,-0.43899 -0.01379,-0.992064 -0.142011,-1.069191 -1.099775,-0.719295 -2.223905,-0.569475 -2.238735,-0.683549 -0.0078,-0.131852 -0.0032,-0.49842 -0.02209,-0.628638 -0.07464,-0.60597 -0.300224,-0.69475 -0.453807,-0.691123 z m 1.491438,2.248833 c -0.03872,0.211508 -0.463447,0.684143 -0.595187,0.821143 0.09906,-0.111781 0.875139,-0.531229 0.897514,-0.503668 0.112706,0.02814 -0.921845,1.370668 -1.130413,1.16071 -0.02998,-0.03018 0.229129,-0.402851 0.653254,-0.728995 -0.194764,0.08447 -0.760392,0.39429 -0.966941,0.405207 -0.09228,-0.112869 0.501274,-0.490001 0.628007,-0.706903 -0.146602,0.02461 -0.920948,0.388426 -1.033213,0.302328 -0.05687,-0.225848 1.300724,-0.621161 1.546979,-0.749822 z"
     id="path602-2-0"
     style="fill:#353535;fill-opacity:1;fill-rule:evenodd;stroke:none" />
</svg>
