<?xml version="1.0" encoding="UTF-8" standalone="no"?>
<!-- Created with Inkscape (http://www.inkscape.org/) -->

<svg
   xmlns:dc="http://purl.org/dc/elements/1.1/"
   xmlns:cc="http://creativecommons.org/ns#"
   xmlns:rdf="http://www.w3.org/1999/02/22-rdf-syntax-ns#"
   xmlns:svg="http://www.w3.org/2000/svg"
   xmlns="http://www.w3.org/2000/svg"
   xmlns:sodipodi="http://sodipodi.sourceforge.net/DTD/sodipodi-0.dtd"
   xmlns:inkscape="http://www.inkscape.org/namespaces/inkscape"
   version="1.0"
   width="64"
   height="64"
   id="svg3366"
   inkscape:version="0.91 r13725"
   sodipodi:docname="palemoon.svg">
  <metadata
     id="metadata118050">
    <rdf:RDF>
      <cc:Work
         rdf:about="">
        <dc:format>image/svg+xml</dc:format>
        <dc:type
           rdf:resource="http://purl.org/dc/dcmitype/StillImage" />
        <dc:title />
      </cc:Work>
    </rdf:RDF>
  </metadata>
  <sodipodi:namedview
     pagecolor="#ffffff"
     bordercolor="#666666"
     borderopacity="1"
     objecttolerance="10"
     gridtolerance="10"
     guidetolerance="10"
     inkscape:pageopacity="0"
     inkscape:pageshadow="2"
     inkscape:window-width="1440"
     inkscape:window-height="854"
     id="namedview118048"
     showgrid="false"
     inkscape:zoom="1.1783556"
     inkscape:cx="102.29885"
     inkscape:cy="36.743899"
     inkscape:window-x="0"
     inkscape:window-y="0"
     inkscape:window-maximized="1"
     inkscape:current-layer="svg3366"
     inkscape:object-nodes="true"
     inkscape:snap-object-midpoints="true" />
  <defs
     id="defs3368" />
  <circle
     style="opacity:1;fill:#f8ad2b;fill-opacity:1;fill-rule:evenodd;stroke:none;stroke-width:1;stroke-linecap:square;stroke-linejoin:miter;stroke-miterlimit:4;stroke-dasharray:none;stroke-opacity:1"
     id="circle5480"
     cx="32"
     cy="32"
     r="28" />
  <circle
     r="26"
     cy="32"
     cx="32"
     id="circle5504"
     style="opacity:1;fill:#ffffff;fill-opacity:1;fill-rule:evenodd;stroke:none;stroke-width:1;stroke-linecap:square;stroke-linejoin:miter;stroke-miterlimit:4;stroke-dasharray:none;stroke-opacity:1" />
  <circle
     r="23"
     cy="32"
     cx="-32"
     id="circle5482"
     style="opacity:1;fill:#f8ad2b;fill-opacity:1;fill-rule:evenodd;stroke:none;stroke-width:1;stroke-linecap:square;stroke-linejoin:miter;stroke-miterlimit:4;stroke-dasharray:none;stroke-opacity:1"
     transform="scale(-1,1)" />
  <ellipse
     style="opacity:1;fill:#fcdda8;fill-opacity:1;fill-rule:evenodd;stroke:none;stroke-width:1;stroke-linecap:square;stroke-linejoin:miter;stroke-miterlimit:4;stroke-dasharray:none;stroke-opacity:1"
     id="ellipse5484"
     cx="18.54916"
     cy="44.554817"
     rx="6.8536992"
     ry="5.2152719" />
  <ellipse
     cy="45.632309"
     cx="29.565807"
     id="ellipse5486"
     style="opacity:1;fill:#fcdda8;fill-opacity:1;fill-rule:evenodd;stroke:none;stroke-width:1;stroke-linecap:square;stroke-linejoin:miter;stroke-miterlimit:4;stroke-dasharray:none;stroke-opacity:1"
     rx="7.8561301"
     ry="5.2152719" />
  <ellipse
     ry="6.1132526"
     rx="8.7429485"
     style="opacity:1;fill:#fcdda8;fill-opacity:1;fill-rule:evenodd;stroke:none;stroke-width:1;stroke-linecap:square;stroke-linejoin:miter;stroke-miterlimit:4;stroke-dasharray:none;stroke-opacity:1"
     id="ellipse5488"
     cx="43.558586"
     cy="44.91394" />
  <path
     style="opacity:1;fill:#fcdda8;fill-opacity:1;fill-rule:evenodd;stroke:none;stroke-width:1;stroke-linecap:square;stroke-linejoin:miter;stroke-miterlimit:4;stroke-dasharray:none;stroke-opacity:1"
     d="m 23.919925,42.852534 c -4.558372,5.88e-4 -9.288285,2.501955 -9.287613,5.715752 8.25e-4,3.213043 5.006385,5.19148 9.287613,5.922519 0.202539,1.12e-4 0.40502,-0.0056 0.607027,-0.0154 1.489417,0.889237 3.377584,1.3776 5.329296,1.378383 1.503264,-0.0014 2.977253,-0.293174 4.262901,-0.84245 1.010464,0.298858 2.095227,0.452858 3.191007,0.45304 4.558372,4.76e-4 10.462816,-2.847684 10.463656,-6.061468 6.72e-4,-3.214554 -5.90422,-5.577278 -10.463656,-5.576802 -1.502327,0.0028 -2.975308,0.293524 -4.260159,0.84245 -1.011317,-0.299096 -2.097045,-0.45311 -3.193749,-0.453026 -0.200747,6.16e-4 -0.401408,0.007 -0.601552,0.01736 -1.490468,-0.890806 -3.380847,-1.37991 -5.334771,-1.38033 z"
     id="path5490"
     inkscape:connector-curvature="0"
     sodipodi:nodetypes="ccccccccccccc" />
  <circle
     r="1.4000001"
     style="opacity:1;fill:#ffda8b;fill-opacity:1;fill-rule:evenodd;stroke:none;stroke-width:1;stroke-linecap:square;stroke-linejoin:miter;stroke-miterlimit:4;stroke-dasharray:none;stroke-opacity:1"
     id="circle5492"
     cx="-16.599998"
     cy="32"
     transform="scale(-1,1)" />
  <circle
     cy="16.599998"
     cx="-27.799999"
     id="circle5494"
     style="opacity:1;fill:#ffda8b;fill-opacity:1;fill-rule:evenodd;stroke:none;stroke-width:1;stroke-linecap:square;stroke-linejoin:miter;stroke-miterlimit:4;stroke-dasharray:none;stroke-opacity:1"
     r="1.4000001"
     transform="scale(-1,1)" />
  <circle
     r="1.4000001"
     style="opacity:1;fill:#ffda8b;fill-opacity:1;fill-rule:evenodd;stroke:none;stroke-width:1;stroke-linecap:square;stroke-linejoin:miter;stroke-miterlimit:4;stroke-dasharray:none;stroke-opacity:1"
     id="circle5496"
     cx="-20.799999"
     cy="23.599998"
     transform="scale(-1,1)" />
  <circle
     transform="scale(-1,1)"
     cy="32"
     cx="-26.400002"
     id="circle5498"
     style="opacity:1;fill:#ffda8b;fill-opacity:1;fill-rule:evenodd;stroke:none;stroke-width:1;stroke-linecap:square;stroke-linejoin:miter;stroke-miterlimit:4;stroke-dasharray:none;stroke-opacity:1"
     r="1.4000001" />
  <circle
     r="7"
     transform="scale(-1,1)"
     cy="25"
     cx="-39"
     id="circle5500"
     style="opacity:1;fill:#ffe8b9;fill-opacity:1;fill-rule:evenodd;stroke:none;stroke-width:1;stroke-linecap:square;stroke-linejoin:miter;stroke-miterlimit:4;stroke-dasharray:none;stroke-opacity:1" />
  <path
     style="opacity:1;fill:#ffffff;fill-opacity:1;fill-rule:evenodd;stroke:none;stroke-width:1;stroke-linecap:square;stroke-linejoin:miter;stroke-miterlimit:4;stroke-dasharray:none;stroke-opacity:1"
     d="M 32 6 A 26 26 0 0 0 6 32 A 26 26 0 0 0 32 58 A 26 26 0 0 0 58 32 A 26 26 0 0 0 32 6 z M 32 9 A 23 23 0 0 1 55 32 A 23 23 0 0 1 32 55 A 23 23 0 0 1 9 32 A 23 23 0 0 1 32 9 z "
     id="circle4153" />
</svg>
