<?xml version="1.0" encoding="UTF-8" standalone="no"?>
<!-- Created with Inkscape (http://www.inkscape.org/) -->

<svg
   xmlns:dc="http://purl.org/dc/elements/1.1/"
   xmlns:cc="http://creativecommons.org/ns#"
   xmlns:rdf="http://www.w3.org/1999/02/22-rdf-syntax-ns#"
   xmlns:svg="http://www.w3.org/2000/svg"
   xmlns="http://www.w3.org/2000/svg"
   xmlns:sodipodi="http://sodipodi.sourceforge.net/DTD/sodipodi-0.dtd"
   xmlns:inkscape="http://www.inkscape.org/namespaces/inkscape"
   id="svg7384"
   height="16"
   width="16"
   version="1.1"
   inkscape:version="0.91 r13725"
   sodipodi:docname="applications-multimedia.svg">
  <defs
     id="defs10" />
  <sodipodi:namedview
     pagecolor="#ffffff"
     bordercolor="#666666"
     borderopacity="1"
     objecttolerance="10"
     gridtolerance="10"
     guidetolerance="10"
     inkscape:pageopacity="0"
     inkscape:pageshadow="2"
     inkscape:window-width="1440"
     inkscape:window-height="854"
     id="namedview8"
     showgrid="false"
     inkscape:zoom="14.160435"
     inkscape:cx="6.7175229"
     inkscape:cy="7.329751"
     inkscape:window-x="0"
     inkscape:window-y="0"
     inkscape:window-maximized="1"
     inkscape:current-layer="svg7384"
     inkscape:snap-bbox="true"
     inkscape:bbox-nodes="true"
     inkscape:bbox-paths="true"
     inkscape:snap-bbox-edge-midpoints="false" />
  <metadata
     id="metadata90">
    <rdf:RDF>
      <cc:Work
         rdf:about="">
        <dc:format>image/svg+xml</dc:format>
        <dc:type
           rdf:resource="http://purl.org/dc/dcmitype/StillImage" />
        <dc:title>Gnome Symbolic Icon Theme</dc:title>
      </cc:Work>
    </rdf:RDF>
  </metadata>
  <title
     id="title9167">Gnome Symbolic Icon Theme</title>
  <path
     style="fill:#f7f7f7;fill-opacity:1;stroke:none"
     d="M 9,0 9,1 9,3 6,3 6,4 6,6 3,6 3,7 3,9 0,9 l 0,1 0,6 1,0 14,0 1,0 0,-9 0,-1 -3,0 0,-5 0,-1 z"
     id="path14115-6"
     inkscape:connector-curvature="0"
     sodipodi:nodetypes="ccccccccccccccccccccc" />
  <path
     sodipodi:nodetypes="ccccc"
     inkscape:connector-curvature="0"
     id="path4741-3-3"
     d="m 1.0000001,13 0,2 2,0 0,-2 z"
     style="fill:#8c8c8c;fill-opacity:1;stroke:none" />
  <path
     style="fill:#8c8c8c;fill-opacity:1;stroke:none"
     d="m 4.0000001,13 0,2 2,0 0,-2 z"
     id="path4826-2-6"
     inkscape:connector-curvature="0"
     sodipodi:nodetypes="ccccc" />
  <path
     style="fill:#8c8c8c;fill-opacity:1;stroke:none"
     d="m 7.0000001,13 0,2 2,0 0,-2 z"
     id="path4828-5-7"
     inkscape:connector-curvature="0"
     sodipodi:nodetypes="ccccc" />
  <path
     sodipodi:nodetypes="ccccc"
     inkscape:connector-curvature="0"
     id="path4830-6-5"
     d="m 10,13 0,2 2,0 0,-2 z"
     style="fill:#8c8c8c;fill-opacity:1;stroke:none" />
  <path
     style="fill:#8c8c8c;fill-opacity:1;stroke:none"
     d="m 13,13 0,2 2,0 0,-2 z"
     id="path4832-3-3"
     inkscape:connector-curvature="0"
     sodipodi:nodetypes="ccccc" />
  <path
     style="fill:#8c8c8c;fill-opacity:1;stroke:none"
     d="m 1.0000001,9.9999998 0,2.0000002 2,0 0,-2.0000002 z"
     id="path4834-9-5"
     inkscape:connector-curvature="0"
     sodipodi:nodetypes="ccccc" />
  <path
     sodipodi:nodetypes="ccccc"
     inkscape:connector-curvature="0"
     id="path4836-4-6"
     d="m 4.0000001,9.9999998 0,2.0000002 2,0 0,-2.0000002 z"
     style="fill:#8c8c8c;fill-opacity:1;stroke:none" />
  <path
     sodipodi:nodetypes="ccccc"
     inkscape:connector-curvature="0"
     id="path4838-1-2"
     d="m 7.0000001,9.9999998 0,2.0000002 2,0 0,-2.0000002 z"
     style="fill:#8c8c8c;fill-opacity:1;stroke:none" />
  <path
     style="fill:#8c8c8c;fill-opacity:1;stroke:none"
     d="M 10,9.9999998 10,12 l 2,0 0,-2.0000002 z"
     id="path4840-8-9"
     inkscape:connector-curvature="0"
     sodipodi:nodetypes="ccccc" />
  <path
     sodipodi:nodetypes="ccccc"
     inkscape:connector-curvature="0"
     id="path4842-0-1"
     d="M 13,9.9999998 13,12 l 2,0 0,-2.0000002 z"
     style="fill:#8c8c8c;fill-opacity:1;stroke:none" />
  <path
     style="fill:#8c8c8c;fill-opacity:1;stroke:none"
     d="m 4.0000001,6.9999998 0,2 2,0 0,-2 z"
     id="path4844-4-2"
     inkscape:connector-curvature="0"
     sodipodi:nodetypes="ccccc" />
  <path
     style="fill:#8c8c8c;fill-opacity:1;stroke:none"
     d="m 7.0000001,6.9999998 0,2 2,0 0,-2 z"
     id="path4846-4-7"
     inkscape:connector-curvature="0"
     sodipodi:nodetypes="ccccc" />
  <path
     sodipodi:nodetypes="ccccc"
     inkscape:connector-curvature="0"
     id="path4848-7-0"
     d="m 10,6.9999998 0,2 2,0 0,-2 z"
     style="fill:#8c8c8c;fill-opacity:1;stroke:none" />
  <path
     style="fill:#8c8c8c;fill-opacity:1;stroke:none"
     d="m 10,4 0,2 2,0 0,-2 z"
     id="path4850-4-9"
     inkscape:connector-curvature="0"
     sodipodi:nodetypes="ccccc" />
  <path
     sodipodi:nodetypes="ccccc"
     inkscape:connector-curvature="0"
     id="path4852-5-3"
     d="m 7.0000001,4 0,2 2,0 0,-2 z"
     style="fill:#8c8c8c;fill-opacity:1;stroke:none" />
  <path
     sodipodi:nodetypes="ccccc"
     inkscape:connector-curvature="0"
     id="path4854-0-6"
     d="M 10,0.99999999 10,3 12,3 12,0.99999999 Z"
     style="fill:#8c8c8c;fill-opacity:1;stroke:none" />
  <path
     sodipodi:nodetypes="ccccc"
     inkscape:connector-curvature="0"
     id="path4856-6-0"
     d="m 13,6.9999998 0,2 2,0 0,-2 z"
     style="fill:#8c8c8c;fill-opacity:1;stroke:none" />
</svg>
