<?xml version="1.0" encoding="UTF-8" standalone="no"?>
<!-- Created with Inkscape (http://www.inkscape.org/) -->

<svg
   xmlns:dc="http://purl.org/dc/elements/1.1/"
   xmlns:cc="http://creativecommons.org/ns#"
   xmlns:rdf="http://www.w3.org/1999/02/22-rdf-syntax-ns#"
   xmlns:svg="http://www.w3.org/2000/svg"
   xmlns="http://www.w3.org/2000/svg"
   xmlns:sodipodi="http://sodipodi.sourceforge.net/DTD/sodipodi-0.dtd"
   xmlns:inkscape="http://www.inkscape.org/namespaces/inkscape"
   id="svg7384"
   height="16"
   width="16"
   version="1.1"
   inkscape:version="0.91 r13725"
   sodipodi:docname="applications-office.svg">
  <defs
     id="defs10" />
  <sodipodi:namedview
     pagecolor="#ffffff"
     bordercolor="#666666"
     borderopacity="1"
     objecttolerance="10"
     gridtolerance="10"
     guidetolerance="10"
     inkscape:pageopacity="0"
     inkscape:pageshadow="2"
     inkscape:window-width="1116"
     inkscape:window-height="609"
     id="namedview8"
     showgrid="false"
     inkscape:zoom="5.6628115"
     inkscape:cx="21.224835"
     inkscape:cy="-13.694565"
     inkscape:window-x="281"
     inkscape:window-y="215"
     inkscape:window-maximized="0"
     inkscape:current-layer="svg7384"
     showguides="true"
     inkscape:guide-bbox="true" />
  <metadata
     id="metadata90">
    <rdf:RDF>
      <cc:Work
         rdf:about="">
        <dc:format>image/svg+xml</dc:format>
        <dc:type
           rdf:resource="http://purl.org/dc/dcmitype/StillImage" />
        <dc:title>Gnome Symbolic Icon Theme</dc:title>
      </cc:Work>
    </rdf:RDF>
  </metadata>
  <title
     id="title9167">Gnome Symbolic Icon Theme</title>
  <path
     id="path8134-9"
     style="fill:#474747;fill-opacity:1"
     d="m 7.9999971,12.999997 3.9999989,0 0,-0.999998 -3.9999989,0 z m 0,-2.000004 3.9999989,0 0,-0.999998 -3.9999989,0 z m 0,-1.9999952 3.9999989,0 0,-0.9999975 -3.9999989,0 z m 0,-2.0000038 4.0000079,0 0,-0.9999975 -4.0000079,0 z M 4.9999959,2.7e-6 l 0,14.9999973 9.0000131,-8e-6 0,-14.9999983 z m 2.0000037,4.9999963 6.0000034,0 0,8.999995 -6.0000034,0 z"
     inkscape:connector-curvature="0"
     sodipodi:nodetypes="cccccccccccccccccccccccccccccc" />
  <path
     style="fill:#474747;fill-opacity:1;stroke:none"
     d="M 2.4999996,-6.3e-6 C 2.2230008,-6.3e-6 2,0.2229947 2,0.4999937 l 0,1.5 0,6.0000003 -0.5,0 c -0.276999,0 -0.5,0.2230012 -0.5,0.5 l 0,6.5 2.9999996,0 0,-15.0000003 z"
     id="rect3200"
     inkscape:connector-curvature="0"
     sodipodi:nodetypes="csccsccccc" />
</svg>
