<?xml version="1.0" encoding="UTF-8" standalone="no"?>
<!-- Created with Inkscape (http://www.inkscape.org/) -->

<svg
   xmlns:dc="http://purl.org/dc/elements/1.1/"
   xmlns:cc="http://creativecommons.org/ns#"
   xmlns:rdf="http://www.w3.org/1999/02/22-rdf-syntax-ns#"
   xmlns:svg="http://www.w3.org/2000/svg"
   xmlns="http://www.w3.org/2000/svg"
   xmlns:sodipodi="http://sodipodi.sourceforge.net/DTD/sodipodi-0.dtd"
   xmlns:inkscape="http://www.inkscape.org/namespaces/inkscape"
   id="svg7384"
   height="16"
   width="16"
   version="1.1"
   inkscape:version="0.91 r13725"
   sodipodi:docname="applications-internet.svg">
  <defs
     id="defs10" />
  <sodipodi:namedview
     pagecolor="#ffffff"
     bordercolor="#666666"
     borderopacity="1"
     objecttolerance="10"
     gridtolerance="10"
     guidetolerance="10"
     inkscape:pageopacity="0"
     inkscape:pageshadow="2"
     inkscape:window-width="1116"
     inkscape:window-height="609"
     id="namedview8"
     showgrid="false"
     inkscape:zoom="14.16563"
     inkscape:cx="5.6603994"
     inkscape:cy="5.1973389"
     inkscape:window-x="322"
     inkscape:window-y="60"
     inkscape:window-maximized="0"
     inkscape:current-layer="svg7384" />
  <metadata
     id="metadata90">
    <rdf:RDF>
      <cc:Work
         rdf:about="">
        <dc:format>image/svg+xml</dc:format>
        <dc:type
           rdf:resource="http://purl.org/dc/dcmitype/StillImage" />
        <dc:title>Gnome Symbolic Icon Theme</dc:title>
      </cc:Work>
    </rdf:RDF>
  </metadata>
  <title
     id="title9167">Gnome Symbolic Icon Theme</title>
  <path
     inkscape:connector-curvature="0"
     style="fill:#474747;fill-opacity:1;fill-rule:nonzero;stroke:none"
     d="m 12.343666,5.2499976 -0.15625,0.09375 -0.25,0 -0.21875,0.03125 -0.09375,0.03125 -0.0625,0.03125 -0.15625,0 -0.125,0.15625 -0.0625,-0.25 -0.0625,0.09375 -0.03125,0.25 -0.21875,0.125 -0.1875,0.25 0.21875,0.0625 0.15625,-0.15625 0,-0.03125 0.03125,-0.03125 c 0.114473,-0.046286 0.228122,-0.1130176 0.34375,-0.15625 l 0.21875,0.125 c 0.125121,0.1406781 0.249713,0.2969619 0.375,0.4375 l 0.25,-0.15625 -0.21875,-0.15625 -0.0625,-0.28125 -0.40625,-0.15625 0,-0.03125 0.1875,0.0625 0.125,-0.0625 0.25,0 c 0.06125,-0.013737 0.126917,-0.022763 0.1875,-0.03125 l -0.1875,0.09375 0.4375,0.5 0.46875,-0.28125 0.90625,0.0625 0,-0.3125 -0.03125,-0.03125 -0.6875,-0.09375 -0.59375,0.03125 -0.03125,-0.1875 -0.3125,-0.03125 z m -1.25,0.71875 0.15625,0.1875 0.1875,0.0625 0.0625,-0.1875 -0.21875,-0.15625 -0.1875,0.09375 z m -0.6875,-0.1875 -0.15625,0.25 c 0,0 -0.17284,-0.031512 -0.21875,-0.03125 C 9.3523712,6.3829994 7.961382,7.234494 7.1874162,9.281248 c -0.00175,0.05145 0.09375,0.375 0.09375,0.375 l 0.375,0.375 0.375,0.21875 0.15625,0.25 0.21875,0.3125 0.15625,0 0.09375,0.09375 0,0.03125 -0.25,0.40625 -0.1875,0.15625 0.03125,0.09375 -0.1875,0.3125 0.1875,0.78125 0.28125,0.40625 0.125,0.28125 -0.15625,0.46875 0.0625,0.3125 -0.25,0.5 c 0,0 -0.00236,-0.02562 0,0.03125 0.00131,0.02857 0.139062,0.176457 0.28125,0.3125 l 0.53125,0 0.0625,-0.03125 0.09375,-0.15625 0.28125,-0.03125 0.3125,-0.46875 0,-0.125 0.1874998,-0.1875 0.3125,0 0.25,-0.34375 0.0625,-0.46875 0.34375,-0.28125 0.09375,-0.34375 c -0.289703,-0.247145 -0.557713,-0.498524 -0.84375,-0.75 l -0.09375,-0.34375 -0.2812498,-0.15625 -0.03125,-0.46875 -0.4375,-0.0625 -0.28125,-0.34375 -0.4375,0.25 0,0.03125 c -0.1017681,-0.05889 -0.2297888,-0.07142 -0.3125,-0.15625 l -0.03125,-0.28125 0.0625,-0.25 -0.25,-0.03125 c 0.059761,-0.157277 0.1276519,-0.311535 0.1875,-0.46875 l -0.15625,-0.03125 -0.1875,0.15625 -0.15625,0.03125 -0.15625,-0.15625 0.03125,-0.28125 0.09375,-0.25 0.375,-0.15625 0.25,0.0625 0.0625,-0.125 0.28125,0.125 0.15625,0.34375 0.15625,-0.46875 0.46875,-0.21875 0.21875,-0.3125 0.3124998,-0.0625 0.21875,-0.1875 0.375,0.03125 0.25,-0.25 c -0.181111,-0.0441 -0.381389,-0.08083 -0.5625,-0.125 l 0.40625,-0.09375 0.25,0.0625 0.3125,-0.03125 0,0.3125 0.1875,-0.15625 -0.125,-0.15625 0.0625,-0.125 -0.09375,-0.15625 -0.125,-0.0625 0.0625,-0.125 -0.0625,-0.25 -0.25,0.0625 0.09375,-0.1875 -0.25,-0.2500004 -0.3125,0.3437504 -0.03125,0.15625 -0.25,0.03125 -0.1875,0.28125 0,-0.3125 -0.3437498,-0.25 0,-0.2187504 0.5624998,-0.1875 0.28125,-0.15625 0.09375,-0.25 -0.125,-0.09375 -0.15625,-0.0625 z m 3.03125,1.5000004 -0.03125,0.15625 0.0625,0.09375 -0.0625,0.25 -0.125,0.3125 0.28125,0 0.21875,-0.15625 -0.125,-0.1875 c -0.01802,-0.156717 -0.02969,-0.283392 -0.0625,-0.4375 l -0.15625,-0.03125 z m -0.4375,0.25 -0.03125,0.3125 0.21875,-0.0625 -0.03125,-0.25 -0.15625,0 z m 0.90625,0.625 -0.1875,0.1875 -0.1875,0.15625 -0.28125,-0.03125 0.125,0.21875 -0.03125,0.1875 -0.1875,-0.0625 -0.3125,0.09375 -0.09375,0.40625 0.125,0.03125 0.09375,0.15625 0.28125,-0.0625 0.15625,-0.21875 0.21875,-0.09375 0.0625,-0.0625 0.3125,-0.03125 0,-0.84375 -0.09375,-0.03125 z m -0.59375,1.4375 -0.375,0.03125 c -0.253383,0.179771 -0.50506,0.371362 -0.75,0.5625 l -0.375,0.46875 0.09375,0.15625 -0.25,0.25 0.0625,0.53125 c 0.126827,0.245806 0.279711,0.504124 0.40625,0.75 l 0.3125,-0.15625 0.0625,0.15625 0.3125,-0.125 0.09375,0.125 0.28125,0.0625 0.09375,0.25 -0.15625,0.3125 0.125,0.25 -0.09375,0.40625 0.0625,0.3125 -0.15625,0.21875 c -0.0532,0.173078 -0.113411,0.324375 -0.15625,0.5 0.01182,0.113415 0.01597,0.229265 0.03125,0.34375 l 1.0625,0 0,-5.125 -0.03125,-0.0625 -0.25,-0.15625 -0.40625,-0.0625 z"
     id="path6534" />
  <path
     style="fill:#474747;fill-opacity:1"
     d="m 5,0 0,15 2.7186662,0 c -1.2057721,-1.299395 -1.8503483,-3.101785 -1.625,-5.000002 0.407536,-3.4328069 3.535865,-5.8762952 6.9687498,-5.4687504 0.326938,0.038813 0.630212,0.1016591 0.937747,0.1875 L 13.999916,0 Z"
     id="path13021-3"
     inkscape:connector-curvature="0"
     sodipodi:nodetypes="cccssccc" />
  <path
     style="fill:#474747;fill-opacity:1;stroke:none"
     d="m 2.5,2e-7 c -0.2769988,0 -0.5,0.2230012 -0.5,0.5 l 0,1.5 0,6 -0.5,0 c -0.2769988,0 -0.5,0.2230012 -0.5,0.5 L 1,15 4,15 4,2e-7 Z"
     id="rect3200"
     inkscape:connector-curvature="0"
     sodipodi:nodetypes="csccsccccc" />
</svg>
