<?xml version="1.0" encoding="UTF-8" standalone="no"?>
<!-- Created with Inkscape (http://www.inkscape.org/) -->

<svg
   xmlns:dc="http://purl.org/dc/elements/1.1/"
   xmlns:cc="http://creativecommons.org/ns#"
   xmlns:rdf="http://www.w3.org/1999/02/22-rdf-syntax-ns#"
   xmlns:svg="http://www.w3.org/2000/svg"
   xmlns="http://www.w3.org/2000/svg"
   xmlns:sodipodi="http://sodipodi.sourceforge.net/DTD/sodipodi-0.dtd"
   xmlns:inkscape="http://www.inkscape.org/namespaces/inkscape"
   id="svg7384"
   height="16"
   width="16"
   version="1.1"
   inkscape:version="0.91 r13725"
   sodipodi:docname="applications-multimedia.svg">
  <defs
     id="defs10" />
  <sodipodi:namedview
     pagecolor="#ffffff"
     bordercolor="#666666"
     borderopacity="1"
     objecttolerance="10"
     gridtolerance="10"
     guidetolerance="10"
     inkscape:pageopacity="0"
     inkscape:pageshadow="2"
     inkscape:window-width="670"
     inkscape:window-height="435"
     id="namedview8"
     showgrid="false"
     inkscape:zoom="5.2149125"
     inkscape:cx="8.8019091"
     inkscape:cy="5.3522553"
     inkscape:window-x="634"
     inkscape:window-y="228"
     inkscape:window-maximized="0"
     inkscape:current-layer="svg7384"
     inkscape:snap-bbox="true"
     inkscape:object-nodes="true"
     inkscape:snap-smooth-nodes="true" />
  <metadata
     id="metadata90">
    <rdf:RDF>
      <cc:Work
         rdf:about="">
        <dc:format>image/svg+xml</dc:format>
        <dc:type
           rdf:resource="http://purl.org/dc/dcmitype/StillImage" />
        <dc:title>Gnome Symbolic Icon Theme</dc:title>
      </cc:Work>
    </rdf:RDF>
  </metadata>
  <title
     id="title9167">Gnome Symbolic Icon Theme</title>
  <path
     style="fill:#474747;fill-opacity:1;stroke:none"
     d="m 5.000007,-6e-6 0,14.999998 8.999996,0 0,-0.625492 c -0.975385,-0.049 -1.749998,-0.856056 -1.749998,-1.843751 0,-0.987704 0.774499,-1.794648 1.749998,-1.843751 l 0,-2.687505 -3.999999,0 0,4.500002 c 0,1.019334 -0.632658,1.843751 -1.843743,1.843751 -1.019334,0 -1.843751,-0.824417 -1.843751,-1.843751 0,-1.019335 0.824417,-1.843751 1.843751,-1.843751 0.305794,0 0.589784,0.08715 0.843745,0.218751 l 0,-1.218749 0,-3.656248 4.999997,0 0,-5.999504 z"
     id="rect3974"
     inkscape:connector-curvature="0"
     sodipodi:nodetypes="ccccscccsssscccccc" />
  <path
     style="fill:#474747;fill-opacity:1;stroke:none"
     d="m 2.5,-3e-7 c -0.2769988,0 -0.5,0.223001 -0.5,0.5 l 0,1.5 0,6 -0.5,0 C 1.2230012,7.9999997 1,8.2230012 1,8.5 l 0,6.5 2.9999995,0 0,-15.0000003 z"
     id="rect3200"
     inkscape:connector-curvature="0"
     sodipodi:nodetypes="csccsccccc" />
</svg>
