<?xml version="1.0" encoding="UTF-8" standalone="no"?>
<!-- Created with Inkscape (http://www.inkscape.org/) -->

<svg
   xmlns:dc="http://purl.org/dc/elements/1.1/"
   xmlns:cc="http://creativecommons.org/ns#"
   xmlns:rdf="http://www.w3.org/1999/02/22-rdf-syntax-ns#"
   xmlns:svg="http://www.w3.org/2000/svg"
   xmlns="http://www.w3.org/2000/svg"
   xmlns:sodipodi="http://sodipodi.sourceforge.net/DTD/sodipodi-0.dtd"
   xmlns:inkscape="http://www.inkscape.org/namespaces/inkscape"
   version="1.0"
   width="16"
   height="16"
   id="svg3540"
   inkscape:version="0.91 r13725"
   sodipodi:docname="preferences-desktop.svg">
  <metadata
     id="metadata174409">
    <rdf:RDF>
      <cc:Work
         rdf:about="">
        <dc:format>image/svg+xml</dc:format>
        <dc:type
           rdf:resource="http://purl.org/dc/dcmitype/StillImage" />
        <dc:title />
      </cc:Work>
    </rdf:RDF>
  </metadata>
  <sodipodi:namedview
     pagecolor="#ffffff"
     bordercolor="#666666"
     borderopacity="1"
     objecttolerance="10"
     gridtolerance="10"
     guidetolerance="10"
     inkscape:pageopacity="0"
     inkscape:pageshadow="2"
     inkscape:window-width="1440"
     inkscape:window-height="854"
     id="namedview174407"
     showgrid="false"
     inkscape:zoom="5.8339484"
     inkscape:cx="12.887897"
     inkscape:cy="-15.54288"
     inkscape:window-x="0"
     inkscape:window-y="0"
     inkscape:window-maximized="1"
     inkscape:current-layer="svg3540"
     showguides="false" />
  <defs
     id="defs3542" />
  <path
     style="opacity:1;fill:#8c8c8c;fill-opacity:1;stroke:none;stroke-width:1;stroke-linecap:round;stroke-miterlimit:4;stroke-dasharray:none;stroke-opacity:1"
     d="M 6 0 L 6 8 C 6 6.895432 6.895432 6 8 6 C 9.10457 6 10 6.895432 10 8 L 10 0 L 6 0 z M 10 8 C 10 9.10457 9.10457 10 8 10 C 6.895432 10 6 9.10457 6 8 L 6 16 L 10 16 L 10 8 z "
     id="rect4466-8-7" />
  <path
     style="opacity:1;fill:#8c8c8c;fill-opacity:1;fill-rule:evenodd;stroke:none;stroke-width:1;stroke-linecap:square;stroke-linejoin:miter;stroke-miterlimit:4;stroke-dasharray:none;stroke-opacity:1"
     d="M 8 1.5 C 4.41015 1.5 1.5 4.410148 1.5 8 C 1.5 11.589853 4.41015 14.5 8 14.5 C 11.589851 14.5 14.5 11.589853 14.5 8 C 14.5 4.410148 11.589851 1.5 8 1.5 z M 8 6 C 9.10457 6 10 6.895432 10 8 C 10 9.10457 9.10457 10 8 10 C 6.895432 10 6 9.10457 6 8 C 6 6.895432 6.895432 6 8 6 z "
     id="path4474-0-8" />
  <path
     style="opacity:1;fill:#ffffff;fill-opacity:1;stroke:none;stroke-width:1;stroke-linecap:round;stroke-miterlimit:4;stroke-dasharray:none;stroke-opacity:1"
     d="M 7 1 L 7 6.2773438 C 7.29506 6.1057639 7.6340895 6 8 6 C 8.3659111 6 8.70494 6.1057639 9 6.2773438 L 9 1 L 7 1 z M 7 9.7226562 L 7 15 L 9 15 L 9 9.7226562 C 8.70494 9.894236 8.3659111 10 8 10 C 7.6340895 10 7.29506 9.894236 7 9.7226562 z "
     id="rect4478-0-9" />
  <path
     style="opacity:1;fill:#8c8c8c;fill-opacity:1;stroke:none;stroke-width:1;stroke-linecap:round;stroke-miterlimit:4;stroke-dasharray:none;stroke-opacity:1"
     d="M 12.242188 0.9296875 L 6.5859375 6.5859375 C 6.9478665 6.2240088 7.447716 6 8 6 C 9.10457 6 10 6.895432 10 8 C 10 8.552285 9.7759913 9.0521337 9.4140625 9.4140625 L 15.070312 3.7578125 L 12.242188 0.9296875 z M 9.4140625 9.4140625 C 9.0521337 9.7759913 8.552285 10 8 10 C 6.895432 10 6 9.10457 6 8 C 6 7.447716 6.2240085 6.9478662 6.5859375 6.5859375 L 0.9296875 12.242188 L 3.7578125 15.070312 L 9.4140625 9.4140625 z "
     id="rect4274-6-7" />
  <path
     style="opacity:1;fill:#ffffff;fill-opacity:1;stroke:none;stroke-width:1;stroke-linecap:round;stroke-miterlimit:4;stroke-dasharray:none;stroke-opacity:1"
     d="M 12.242188 2.34375 L 8.5117188 6.0742188 C 9.2022847 6.2577739 9.7422262 6.797716 9.9257812 7.4882812 L 13.65625 3.7578125 L 12.242188 2.34375 z M 6.0742188 8.5117188 L 2.34375 12.242188 L 3.7578125 13.65625 L 7.4882812 9.9257812 C 6.7977159 9.7422262 6.2577741 9.2022847 6.0742188 8.5117188 z "
     id="rect4276-7-0" />
  <path
     style="opacity:1;fill:#8c8c8c;fill-opacity:1;stroke:none;stroke-width:1;stroke-linecap:round;stroke-miterlimit:4;stroke-dasharray:none;stroke-opacity:1"
     d="M 0 6 L 0 10 L 8 10 C 6.895432 10 6 9.10457 6 8 C 6 6.895432 6.895432 6 8 6 L 0 6 z M 8 6 C 9.10457 6 10 6.895432 10 8 C 10 9.10457 9.10457 10 8 10 L 16 10 L 16 6 L 8 6 z "
     id="rect4278-8-9" />
  <path
     style="opacity:1;fill:#ffffff;fill-opacity:1;stroke:none;stroke-width:1;stroke-linecap:round;stroke-miterlimit:4;stroke-dasharray:none;stroke-opacity:1"
     d="M 1 7 L 1 9 L 6.2773438 9 C 6.1057637 8.70494 6 8.3659111 6 8 C 6 7.6340895 6.1057637 7.2950599 6.2773438 7 L 1 7 z M 9.7226562 7 C 9.894236 7.2950599 10 7.6340895 10 8 C 10 8.3659111 9.894236 8.70494 9.7226562 9 L 15 9 L 15 7 L 9.7226562 7 z "
     id="rect4280-2-5" />
  <path
     style="opacity:1;fill:#8c8c8c;fill-opacity:1;stroke:none;stroke-width:1;stroke-linecap:round;stroke-miterlimit:4;stroke-dasharray:none;stroke-opacity:1"
     d="M 3.7578125 0.9296875 L 0.9296875 3.7578125 L 6.5859375 9.4140625 C 6.2240085 9.0521337 6 8.552285 6 8 C 6 6.895432 6.895432 6 8 6 C 8.552285 6 9.0521337 6.2240088 9.4140625 6.5859375 L 3.7578125 0.9296875 z M 9.4140625 6.5859375 C 9.7759913 6.9478662 10 7.447716 10 8 C 10 9.10457 9.10457 10 8 10 C 7.447716 10 6.9478665 9.7759913 6.5859375 9.4140625 L 12.242188 15.070312 L 15.070312 12.242188 L 9.4140625 6.5859375 z "
     id="rect4282-7-7" />
  <path
     style="opacity:1;fill:#ffffff;fill-opacity:1;stroke:none;stroke-width:1;stroke-linecap:round;stroke-miterlimit:4;stroke-dasharray:none;stroke-opacity:1"
     d="M 3.7578125 2.34375 L 2.34375 3.7578125 L 6.0742188 7.4882812 C 6.2577741 6.797716 6.7977159 6.2577739 7.4882812 6.0742188 L 3.7578125 2.34375 z M 9.9257812 8.5117188 C 9.7422262 9.2022847 9.2022847 9.7422262 8.5117188 9.9257812 L 12.242188 13.65625 L 13.65625 12.242188 L 9.9257812 8.5117188 z "
     id="rect4284-6-7" />
  <path
     style="opacity:1;fill:#ffffff;fill-opacity:1;fill-rule:evenodd;stroke:none;stroke-width:1;stroke-linecap:square;stroke-linejoin:miter;stroke-miterlimit:4;stroke-dasharray:none;stroke-opacity:1"
     d="M 8 2.5 C 4.962434 2.5 2.5 4.962433 2.5 8 C 2.5 11.037567 4.962434 13.5 8 13.5 C 11.037565 13.5 13.5 11.037567 13.5 8 C 13.5 4.962433 11.037565 2.5 8 2.5 z M 8 6 C 9.10457 6 10 6.895432 10 8 C 10 9.10457 9.10457 10 8 10 C 6.895432 10 6 9.10457 6 8 C 6 6.895432 6.895432 6 8 6 z "
     id="path4476-2-7" />
  <path
     style="opacity:1;fill:#8c8c8c;fill-opacity:1;fill-rule:evenodd;stroke:none;stroke-width:1;stroke-linecap:square;stroke-linejoin:miter;stroke-miterlimit:4;stroke-dasharray:none;stroke-opacity:1"
     d="M 8 5 C 6.343147 5 5 6.343146 5 8 C 5 9.656855 6.343147 11 8 11 C 9.656854 11 11 9.656855 11 8 C 11 6.343146 9.656854 5 8 5 z M 8 6 C 9.10457 6 10 6.895432 10 8 C 10 9.10457 9.10457 10 8 10 C 6.895432 10 6 9.10457 6 8 C 6 6.895432 6.895432 6 8 6 z "
     id="path4486-2-7" />
</svg>
