<?xml version="1.0" encoding="UTF-8" standalone="no"?>
<!-- Created with Inkscape (http://www.inkscape.org/) -->

<svg
   xmlns:dc="http://purl.org/dc/elements/1.1/"
   xmlns:cc="http://creativecommons.org/ns#"
   xmlns:rdf="http://www.w3.org/1999/02/22-rdf-syntax-ns#"
   xmlns:svg="http://www.w3.org/2000/svg"
   xmlns="http://www.w3.org/2000/svg"
   xmlns:sodipodi="http://sodipodi.sourceforge.net/DTD/sodipodi-0.dtd"
   xmlns:inkscape="http://www.inkscape.org/namespaces/inkscape"
   id="svg7384"
   height="16"
   width="16"
   version="1.1"
   inkscape:version="0.91 r13725"
   sodipodi:docname="folder-download.svg">
  <defs
     id="defs10" />
  <sodipodi:namedview
     pagecolor="#ffffff"
     bordercolor="#666666"
     borderopacity="1"
     objecttolerance="10"
     gridtolerance="10"
     guidetolerance="10"
     inkscape:pageopacity="0"
     inkscape:pageshadow="2"
     inkscape:window-width="1116"
     inkscape:window-height="609"
     id="namedview8"
     showgrid="false"
     inkscape:zoom="13.638537"
     inkscape:cx="21.31291"
     inkscape:cy="4.5403915"
     inkscape:window-x="321"
     inkscape:window-y="126"
     inkscape:window-maximized="0"
     inkscape:current-layer="g14154"
     showguides="true"
     inkscape:guide-bbox="true" />
  <metadata
     id="metadata90">
    <rdf:RDF>
      <cc:Work
         rdf:about="">
        <dc:format>image/svg+xml</dc:format>
        <dc:type
           rdf:resource="http://purl.org/dc/dcmitype/StillImage" />
        <dc:title>Gnome Symbolic Icon Theme</dc:title>
      </cc:Work>
    </rdf:RDF>
  </metadata>
  <title
     id="title9167">Gnome Symbolic Icon Theme</title>
  <g
     id="layer13"
     transform="matrix(0,-0.87497266,0.87497266,0,-153.3896,401.63133)">
    <g
       id="g14154"
       transform="matrix(1.0343423,0,0,1,226.18678,-820)">
      <path
         style="fill:#dcdcdc;fill-opacity:1"
         d="m 225.1042,1001.0223 -16.57378,0 -4.2e-4,10.2861 16.5742,0 z m -4.97226,6.8573 -1.31212,1.1429 -3.66014,0 0,-2.2858 3.66014,0 z m -6.07679,-4.0001 0,1.5536 c 0.0329,0.4081 -0.125,0.5236 -0.41435,0.8036 l -1.69195,1.643 1.72648,1.8214 c 0.2477,0.2562 0.38207,0.6188 0.37982,1.0001 l -4.1e-4,0.6069 -0.24088,0 -1.2536,3e-4 -2.33748,-2.2858 c -0.5066,-0.5069 -0.5066,-1.7788 0,-2.2858 l 2.69331,-2.4287 c 0.23334,-0.2614 0.542,-0.4299 0.89777,-0.4286 z"
         id="path8982"
         inkscape:connector-curvature="0"
         sodipodi:nodetypes="ccccccccccccccccccccccccc" />
      <path
         style="fill:#dcdcdc;fill-opacity:1;stroke:none"
         d="m 225.1042,997.59362 -8.83957,0 0,-1.14285 -7.73463,0 0,3.42865 16.5742,0 z"
         id="rect3967"
         inkscape:connector-curvature="0"
         sodipodi:nodetypes="ccccccc" />
    </g>
  </g>
</svg>
