<?xml version="1.0" encoding="UTF-8" standalone="no"?>
<!-- Created with Inkscape (http://www.inkscape.org/) -->

<svg
   xmlns:dc="http://purl.org/dc/elements/1.1/"
   xmlns:cc="http://creativecommons.org/ns#"
   xmlns:rdf="http://www.w3.org/1999/02/22-rdf-syntax-ns#"
   xmlns:svg="http://www.w3.org/2000/svg"
   xmlns="http://www.w3.org/2000/svg"
   xmlns:xlink="http://www.w3.org/1999/xlink"
   xmlns:sodipodi="http://sodipodi.sourceforge.net/DTD/sodipodi-0.dtd"
   xmlns:inkscape="http://www.inkscape.org/namespaces/inkscape"
   version="1.0"
   width="48"
   height="48"
   id="svg4486"
   sodipodi:version="0.32"
   inkscape:version="0.91 r13725"
   sodipodi:docname="rar.svg"
   inkscape:output_extension="org.inkscape.output.svg.inkscape">
  <metadata
     id="metadata51">
    <rdf:RDF>
      <cc:Work
         rdf:about="">
        <dc:format>image/svg+xml</dc:format>
        <dc:type
           rdf:resource="http://purl.org/dc/dcmitype/StillImage" />
        <dc:title />
      </cc:Work>
    </rdf:RDF>
  </metadata>
  <sodipodi:namedview
     inkscape:window-height="462"
     inkscape:window-width="1162"
     inkscape:pageshadow="2"
     inkscape:pageopacity="0.0"
     guidetolerance="10.0"
     gridtolerance="10.0"
     objecttolerance="10.0"
     borderopacity="1.0"
     bordercolor="#666666"
     pagecolor="#ffffff"
     id="base"
     showgrid="false"
     inkscape:zoom="2.2421875"
     inkscape:cx="17.612125"
     inkscape:cy="38.557761"
     inkscape:window-x="276"
     inkscape:window-y="168"
     inkscape:current-layer="svg4486"
     inkscape:window-maximized="0"
     showguides="true"
     inkscape:guide-bbox="true" />
  <defs
     id="defs4488">
    <linearGradient
       id="linearGradient4110">
      <stop
         style="stop-color:#efc65b;stop-opacity:1"
         offset="0"
         id="stop4112" />
      <stop
         style="stop-color:#fbd277;stop-opacity:1"
         offset="1"
         id="stop4114" />
    </linearGradient>
    <linearGradient
       inkscape:collect="always"
       xlink:href="#linearGradient4110"
       id="linearGradient4108"
       gradientUnits="userSpaceOnUse"
       gradientTransform="matrix(1.2165207,0,0,0.67950897,-5.9382299,15.767855)"
       x1="33.138153"
       y1="31.029055"
       x2="33.138153"
       y2="9.4101439" />
  </defs>
  <path
     style="fill:url(#linearGradient4108);fill-opacity:1"
     d="m 6,12 -2.9999164,4 0,29 41.9998324,0 0,-29 -3,-4 z"
     id="path4191"
     inkscape:connector-curvature="0"
     sodipodi:nodetypes="ccccccc" />
  <path
     style="fill:#ffffff;fill-opacity:1;stroke:none"
     d="m 22,12 4,0 1,4 0,7 -6,0 0,-7 z"
     id="rect14394"
     inkscape:connector-curvature="0"
     sodipodi:nodetypes="ccccccc" />
  <path
     style="fill:#ffffff;fill-opacity:1;stroke:none"
     d="m 3,16 42,0 0,1 -42,0 z"
     id="rect14396"
     inkscape:connector-curvature="0"
     sodipodi:nodetypes="ccccc" />
  <rect
     style="fill:#ffffff;fill-opacity:1;stroke:none"
     id="rect3124"
     width="36"
     height="17"
     x="6"
     y="25" />
  <path
     inkscape:connector-curvature="0"
     style="font-size:12px;font-style:normal;font-variant:normal;font-weight:bold;font-stretch:normal;text-align:start;line-height:100%;writing-mode:lr-tb;text-anchor:start;fill:#e6b849;fill-opacity:1;stroke:none;display:inline;font-family:URW Gothic L;-inkscape-font-specification:URW Gothic L Semi-Bold"
     d="m 16.605194,37.143326 c 0.532,0 1.064,0 1.596,0 0.01279,-1.352723 -0.02675,-2.707612 0.02198,-4.058859 0.0257,-0.727717 0.701391,-1.253367 1.406016,-1.209141 0,-0.512001 0,-1.024001 0,-1.536001 -0.632953,-0.07305 -1.252553,0.24384 -1.56,0.804001 -0.04486,-0.196612 0.09357,-0.57652 -0.07643,-0.647999 -0.462525,0 -0.92505,0 -1.387575,0 0,2.215999 0,4.431999 0,6.647999 z m 10.57575,-6.647999 c -0.488,0 -0.976,0 -1.464,0 0,0.296 0,0.592 0,0.888 -0.603851,-0.900668 -1.775841,-1.189024 -2.796809,-0.992238 -1.435424,0.202411 -2.575041,1.471005 -2.722567,2.897178 -0.227689,1.443053 0.444728,3.065926 1.818493,3.686514 1.156228,0.543977 2.707803,0.448807 3.58156,-0.565348 0.222972,-0.296895 0.07815,0.349424 0.119323,0.519503 -0.103137,0.340187 0.295515,0.178585 0.496761,0.21439 0.322413,0 0.644826,0 0.967239,0 0,-2.216 0,-4.432 0,-6.647999 z m -3.468,1.307998 c 1.020032,-0.04883 1.911869,0.83476 1.946558,1.84109 0.104805,0.944516 -0.477117,2.01841 -1.483058,2.151161 -0.955762,0.215892 -2.084431,-0.305937 -2.32563,-1.303504 -0.314659,-1.044195 0.225574,-2.375825 1.35415,-2.627433 0.165862,-0.04175 0.337031,-0.06135 0.50798,-0.06131 l 0,-1e-6 z m 4.657874,5.340001 c 0.532,0 1.064001,0 1.596001,0 0.01279,-1.352723 -0.02675,-2.707612 0.02198,-4.058859 0.0257,-0.727717 0.701391,-1.253367 1.406016,-1.209141 0,-0.512001 0,-1.024001 -1e-6,-1.536001 -0.632952,-0.07305 -1.252552,0.243841 -1.559999,0.804001 -0.04486,-0.196612 0.09357,-0.57652 -0.07643,-0.647999 -0.462525,0 -0.92505,0 -1.387576,0 0,2.215999 0,4.431999 0,6.647999 z"
     id="text3329-4" />
</svg>
