<?xml version="1.0" encoding="UTF-8" standalone="no"?>
<!-- Created with Inkscape (http://www.inkscape.org/) -->

<svg
   xmlns:dc="http://purl.org/dc/elements/1.1/"
   xmlns:cc="http://creativecommons.org/ns#"
   xmlns:rdf="http://www.w3.org/1999/02/22-rdf-syntax-ns#"
   xmlns:svg="http://www.w3.org/2000/svg"
   xmlns="http://www.w3.org/2000/svg"
   xmlns:xlink="http://www.w3.org/1999/xlink"
   xmlns:sodipodi="http://sodipodi.sourceforge.net/DTD/sodipodi-0.dtd"
   xmlns:inkscape="http://www.inkscape.org/namespaces/inkscape"
   version="1.0"
   width="48"
   height="48"
   id="svg4486"
   sodipodi:version="0.32"
   inkscape:version="0.91 r13725"
   sodipodi:docname="zip.svg"
   inkscape:output_extension="org.inkscape.output.svg.inkscape">
  <metadata
     id="metadata51">
    <rdf:RDF>
      <cc:Work
         rdf:about="">
        <dc:format>image/svg+xml</dc:format>
        <dc:type
           rdf:resource="http://purl.org/dc/dcmitype/StillImage" />
        <dc:title />
      </cc:Work>
    </rdf:RDF>
  </metadata>
  <sodipodi:namedview
     inkscape:window-height="462"
     inkscape:window-width="1162"
     inkscape:pageshadow="2"
     inkscape:pageopacity="0.0"
     guidetolerance="10.0"
     gridtolerance="10.0"
     objecttolerance="10.0"
     borderopacity="1.0"
     bordercolor="#666666"
     pagecolor="#ffffff"
     id="base"
     showgrid="false"
     inkscape:zoom="2.059231"
     inkscape:cx="65.647548"
     inkscape:cy="-4.9785832"
     inkscape:window-x="90"
     inkscape:window-y="256"
     inkscape:current-layer="svg4486"
     inkscape:window-maximized="0"
     showguides="true"
     inkscape:guide-bbox="true" />
  <defs
     id="defs4488">
    <linearGradient
       id="linearGradient4110">
      <stop
         style="stop-color:#efc65b;stop-opacity:1"
         offset="0"
         id="stop4112" />
      <stop
         style="stop-color:#fbd277;stop-opacity:1"
         offset="1"
         id="stop4114" />
    </linearGradient>
    <linearGradient
       inkscape:collect="always"
       xlink:href="#linearGradient4110"
       id="linearGradient4108"
       gradientUnits="userSpaceOnUse"
       gradientTransform="matrix(1.2165207,0,0,0.67950897,-5.9382299,15.767855)"
       x1="33.138153"
       y1="31.029055"
       x2="33.138153"
       y2="9.4101439" />
  </defs>
  <path
     style="fill:url(#linearGradient4108);fill-opacity:1"
     d="m 6,12 -2.9999164,4 0,29 41.9998324,0 0,-29 -3,-4 z"
     id="path4191"
     inkscape:connector-curvature="0"
     sodipodi:nodetypes="ccccccc" />
  <path
     style="fill:#ffffff;fill-opacity:1;stroke:none"
     d="m 22,12 4,0 1,4 0,7 -6,0 0,-7 z"
     id="rect14394"
     inkscape:connector-curvature="0"
     sodipodi:nodetypes="ccccccc" />
  <path
     style="fill:#ffffff;fill-opacity:1;stroke:none"
     d="m 3,16 42,0 0,1 -42,0 z"
     id="rect14396"
     inkscape:connector-curvature="0"
     sodipodi:nodetypes="ccccc" />
  <rect
     style="fill:#ffffff;fill-opacity:1;stroke:none"
     id="rect3124"
     width="36"
     height="17"
     x="6"
     y="25" />
  <path
     inkscape:connector-curvature="0"
     style="font-size:12px;font-style:normal;font-variant:normal;font-weight:bold;font-stretch:normal;text-align:start;line-height:100%;writing-mode:lr-tb;text-anchor:start;fill:#e6b849;fill-opacity:1;stroke:none;display:inline;font-family:URW Gothic L;-inkscape-font-specification:URW Gothic L Semi-Bold"
     d="m 16.107,37.742999 c 1.688,0 3.376,0 5.064001,0 0,-0.476001 0,-0.952001 0,-1.428002 -1.052001,0 -2.104001,0 -3.156001,0 0.976,-1.264 1.952,-2.528 2.928,-3.792 0,-0.475999 0,-0.951998 0,-1.427997 -1.5,0 -3,0 -4.5,0 0,0.475999 0,0.951998 0,1.427997 0.864,0 1.728,0 2.592001,0 -0.976001,1.264 -1.952001,2.528 -2.928001,3.792 0,0.476001 0,0.952001 0,1.428002 z m 5.93925,0 c 0.532,0 1.064,0 1.596,0 0,-2.216 0,-4.432 0,-6.647999 -0.532,0 -1.064,0 -1.596,0 0,2.215999 0,4.431999 0,6.647999 z m 0,-7.368 c 0.532,0 1.064,0 1.596,0 0,-0.5 0,-1 0,-1.5 -0.532,0 -1.064,0 -1.596,0 0,0.5 0,1 0,1.5 z M 24.929063,39.963 c 0.532,0 1.063999,0 1.595999,0 0,-0.948001 0,-1.896001 0,-2.844002 1.457684,1.412828 4.162499,0.814539 4.979771,-1.017984 0.832227,-1.655121 0.31225,-4.021925 -1.45229,-4.837471 -1.180319,-0.562008 -2.778174,-0.422974 -3.659481,0.611456 -0.02924,-0.245332 0.05846,-0.607607 -0.04372,-0.779999 -0.473428,0 -0.946856,0 -1.420283,0 0,2.956 0,5.912 0,8.868 z m 3.443999,-7.560002 c 1.198389,-0.0437 2.099006,1.203095 1.886663,2.338092 -0.102474,1.112461 -1.284034,1.960654 -2.368213,1.632778 -1.324547,-0.28504 -1.87034,-2.023696 -1.138449,-3.101924 0.344079,-0.545901 0.976963,-0.877247 1.619999,-0.868945 l 0,-1e-6 z"
     id="text3329" />
</svg>
