<?xml version="1.0" encoding="UTF-8" standalone="no"?>
<!-- Created with Inkscape (http://www.inkscape.org/) -->

<svg
   xmlns:dc="http://purl.org/dc/elements/1.1/"
   xmlns:cc="http://creativecommons.org/ns#"
   xmlns:rdf="http://www.w3.org/1999/02/22-rdf-syntax-ns#"
   xmlns:svg="http://www.w3.org/2000/svg"
   xmlns="http://www.w3.org/2000/svg"
   xmlns:xlink="http://www.w3.org/1999/xlink"
   xmlns:sodipodi="http://sodipodi.sourceforge.net/DTD/sodipodi-0.dtd"
   xmlns:inkscape="http://www.inkscape.org/namespaces/inkscape"
   version="1.0"
   width="48"
   height="48"
   id="svg2454"
   inkscape:version="0.91 r13725"
   sodipodi:docname="application-msword.svg">
  <metadata
     id="metadata285568">
    <rdf:RDF>
      <cc:Work
         rdf:about="">
        <dc:format>image/svg+xml</dc:format>
        <dc:type
           rdf:resource="http://purl.org/dc/dcmitype/StillImage" />
      </cc:Work>
    </rdf:RDF>
  </metadata>
  <sodipodi:namedview
     pagecolor="#ffffff"
     bordercolor="#666666"
     borderopacity="1"
     objecttolerance="10"
     gridtolerance="10"
     guidetolerance="10"
     inkscape:pageopacity="0"
     inkscape:pageshadow="2"
     inkscape:window-width="1213"
     inkscape:window-height="715"
     id="namedview285566"
     showgrid="false"
     inkscape:zoom="2.9831067"
     inkscape:cx="43.34413"
     inkscape:cy="-5.5408748"
     inkscape:window-x="186"
     inkscape:window-y="135"
     inkscape:window-maximized="0"
     inkscape:current-layer="svg2454" />
  <defs
     id="defs2456">
    <linearGradient
       inkscape:collect="always"
       xlink:href="#linearGradient4132-8"
       id="linearGradient4138-6"
       x1="-29.694916"
       y1="44.701263"
       x2="-29.694916"
       y2="0.91525328"
       gradientUnits="userSpaceOnUse"
       gradientTransform="matrix(0.86764708,0,0,0.91472876,50.11765,3.255814)" />
    <linearGradient
       inkscape:collect="always"
       id="linearGradient4132-8">
      <stop
         style="stop-color:#6fb6c6;stop-opacity:1"
         offset="0"
         id="stop4134-65" />
      <stop
         style="stop-color:#9dcdd8;stop-opacity:1"
         offset="1"
         id="stop4136-9" />
    </linearGradient>
  </defs>
  <rect
     style="fill:#408eb9;fill-opacity:1;stroke:none"
     id="rect4154-0"
     width="34"
     height="44"
     x="7"
     y="2" />
  <rect
     y="3"
     x="8"
     height="42"
     width="32"
     id="rect4150-2"
     style="fill:#ffffff;fill-opacity:1;stroke:none" />
  <rect
     style="fill:url(#linearGradient4138-6);fill-opacity:1;stroke:none"
     id="rect3362-9"
     width="30"
     height="40"
     x="9"
     y="4" />
  <path
     inkscape:connector-curvature="0"
     d="m 32.392815,40 c -0.864655,0 -1.72931,0 -2.593965,0 -0.476515,-1.984665 -0.988819,-3.961143 -1.440687,-5.95145 -0.144284,-0.626827 -0.296202,-1.699454 -0.380896,-2.085921 -0.275944,2.147732 -0.876031,4.227861 -1.367513,6.32973 C 26.471603,38.86157 26.333453,39.43079 26.195303,40 c -0.867111,0 -1.734224,0 -2.601335,0 -0.864655,-3.663205 -1.72931,-7.326409 -2.593965,-10.989613 0.749203,0 1.498407,0 2.24761,0 0.600804,3.018565 1.280016,6.022133 1.753875,9.065304 0.200929,-1.437126 0.453876,-2.866721 0.824239,-4.269126 0.388484,-1.598725 0.776968,-3.197451 1.165451,-4.796178 0.668143,0 1.336285,0 2.004427,0 0.510093,2.120295 1.03969,4.236095 1.537398,6.359245 0.177139,0.897586 0.317821,1.80214 0.459661,2.706059 0.447001,-2.99229 1.128336,-5.940407 1.714064,-8.906229 -0.01232,-0.28818 0.346967,-0.110339 0.525581,-0.159075 0.584825,0 1.169647,0 1.754471,0 C 34.122125,32.673591 33.25747,36.336795 32.392815,40 z"
     id="text2612-1-38"
     style="font-size:30.51395607px;font-style:normal;font-variant:normal;font-weight:bold;font-stretch:normal;fill:#ffffff;fill-opacity:1;stroke:none;font-family:Droid Sans;-inkscape-font-specification:Droid Sans Bold" />
  <rect
     style="fill:#ffffff;fill-opacity:1;stroke:none"
     id="rect4140-7"
     width="22"
     height="2"
     x="13"
     y="10" />
  <rect
     y="15"
     x="13"
     height="2"
     width="22"
     id="rect4142-3"
     style="fill:#ffffff;fill-opacity:1;stroke:none" />
  <rect
     style="fill:#ffffff;fill-opacity:1;stroke:none"
     id="rect4144-3"
     width="22"
     height="2"
     x="13"
     y="20" />
  <rect
     y="29"
     x="-21.619843"
     height="2"
     width="4.6198473"
     id="rect4146-1"
     style="fill:#ffffff;fill-opacity:1;stroke:none"
     transform="scale(-1,1)" />
</svg>
