<?xml version="1.0" encoding="UTF-8" standalone="no"?>
<!-- Created with Inkscape (http://www.inkscape.org/) -->

<svg
   xmlns:dc="http://purl.org/dc/elements/1.1/"
   xmlns:cc="http://creativecommons.org/ns#"
   xmlns:rdf="http://www.w3.org/1999/02/22-rdf-syntax-ns#"
   xmlns:svg="http://www.w3.org/2000/svg"
   xmlns="http://www.w3.org/2000/svg"
   xmlns:xlink="http://www.w3.org/1999/xlink"
   xmlns:sodipodi="http://sodipodi.sourceforge.net/DTD/sodipodi-0.dtd"
   xmlns:inkscape="http://www.inkscape.org/namespaces/inkscape"
   version="1.0"
   width="48"
   height="48"
   id="svg4486"
   sodipodi:version="0.32"
   inkscape:version="0.91 r13725"
   sodipodi:docname="application-vnd.ms-cab-compressed.svg"
   inkscape:output_extension="org.inkscape.output.svg.inkscape">
  <metadata
     id="metadata51">
    <rdf:RDF>
      <cc:Work
         rdf:about="">
        <dc:format>image/svg+xml</dc:format>
        <dc:type
           rdf:resource="http://purl.org/dc/dcmitype/StillImage" />
        <dc:title />
      </cc:Work>
    </rdf:RDF>
  </metadata>
  <sodipodi:namedview
     inkscape:window-height="556"
     inkscape:window-width="1162"
     inkscape:pageshadow="2"
     inkscape:pageopacity="0.0"
     guidetolerance="10.0"
     gridtolerance="10.0"
     objecttolerance="10.0"
     borderopacity="1.0"
     bordercolor="#666666"
     pagecolor="#ffffff"
     id="base"
     showgrid="false"
     inkscape:zoom="2.5901825"
     inkscape:cx="-36.212102"
     inkscape:cy="-9.5512408"
     inkscape:window-x="58"
     inkscape:window-y="120"
     inkscape:current-layer="svg4486"
     inkscape:window-maximized="0"
     showguides="true"
     inkscape:guide-bbox="true" />
  <defs
     id="defs4488">
    <linearGradient
       id="linearGradient4110">
      <stop
         style="stop-color:#efc65b;stop-opacity:1"
         offset="0"
         id="stop4112" />
      <stop
         style="stop-color:#fbd277;stop-opacity:1"
         offset="1"
         id="stop4114" />
    </linearGradient>
    <linearGradient
       inkscape:collect="always"
       xlink:href="#linearGradient4110"
       id="linearGradient4108"
       gradientUnits="userSpaceOnUse"
       gradientTransform="matrix(1.2165207,0,0,0.67950897,-5.93823,15.767855)"
       x1="33.138153"
       y1="31.029055"
       x2="33.138153"
       y2="9.4101439" />
  </defs>
  <path
     style="fill:url(#linearGradient4108);fill-opacity:1"
     d="m 6,12 -2.999917,4 0,29 41.999833,0 0,-29 -3,-4 z"
     id="path4191"
     inkscape:connector-curvature="0"
     sodipodi:nodetypes="ccccccc" />
  <path
     style="fill:#ffffff;fill-opacity:1;stroke:none"
     d="m 22,12 4,0 1,4 0,7 -6,0 0,-7 z"
     id="rect14394"
     inkscape:connector-curvature="0"
     sodipodi:nodetypes="ccccccc" />
  <path
     style="fill:#ffffff;fill-opacity:1;stroke:none"
     d="m 3,16 42,0 0,1 -42,0 z"
     id="rect14396"
     inkscape:connector-curvature="0"
     sodipodi:nodetypes="ccccc" />
  <rect
     style="fill:#ffffff;fill-opacity:1;stroke:none"
     id="rect3124"
     width="36"
     height="17"
     x="5.9999981"
     y="25" />
  <path
     inkscape:connector-curvature="0"
     d="m 17.599313,35.816 c -0.395999,0.611999 -0.852,0.876 -1.512,0.876 -1.103999,0 -1.932,-0.864001 -1.932,-2.028 0,-1.163999 0.792001,-2.004 1.896,-2.004 0.719999,0 1.224001,0.3 1.548,0.912 l 1.799999,0 c -0.227999,-0.672 -0.443999,-1.020001 -0.899999,-1.44 -0.647999,-0.6 -1.524001,-0.936 -2.448,-0.936 -1.967998,0 -3.504001,1.524002 -3.504001,3.48 0,1.931998 1.584003,3.48 3.552001,3.48 1.547999,0 2.748001,-0.852002 3.299999,-2.34 l -1.799999,0"
     id="path3652"
     style="font-style:normal;font-variant:normal;font-weight:bold;font-stretch:normal;font-size:12px;font-family:'URW Gothic L';-inkscape-font-specification:'Andale Mono Bold';opacity:1;fill:#e6b849;fill-opacity:1;stroke:none" />
  <path
     inkscape:connector-curvature="0"
     d="m 27.254812,31.352 -1.464,0 0,0.888 c -0.551998,-0.732 -1.212001,-1.044 -2.172,-1.044 -1.967998,0 -3.384,1.476002 -3.384,3.504 0,2.003998 1.404002,3.456 3.348,3.456 0.935999,0 1.572001,-0.300001 2.208,-1.02 l 0,0.864 1.464,0 0,-6.648 m -3.468,1.308 c 1.139999,0 1.956,0.852001 1.956,2.064 0,0.479999 -0.192,1.032 -0.48,1.368 -0.323999,0.383999 -0.84,0.6 -1.452,0.6 -1.163999,0 -1.968,-0.792001 -1.968,-1.956 0,-1.211999 0.804001,-2.076 1.944,-2.076"
     id="path3654"
     style="font-style:normal;font-variant:normal;font-weight:bold;font-stretch:normal;font-size:12px;font-family:'URW Gothic L';-inkscape-font-specification:'Andale Mono Bold';opacity:1;fill:#e6b849;fill-opacity:1;stroke:none" />
  <path
     inkscape:connector-curvature="0"
     d="m 28.444687,38 1.464,0 0,-0.852 c 0.684,0.731999 1.320001,1.008 2.304,1.008 1.031999,0 1.848001,-0.384001 2.46,-1.164 0.504,-0.648 0.780001,-1.476001 0.780001,-2.364 0,-2.003998 -1.440003,-3.516 -3.348001,-3.516 -0.863999,0 -1.451999,0.24 -2.064,0.852 l 0,-2.832 -1.596,0 0,8.868 m 3.432,-5.424 c 1.14,0 1.968,0.876001 1.968,2.064 0,1.211999 -0.792001,2.052 -1.932,2.052 -1.151999,0 -1.968,-0.852001 -1.968,-2.064 0,-1.199999 0.816001,-2.052 1.932,-2.052"
     id="path3656"
     style="font-style:normal;font-variant:normal;font-weight:bold;font-stretch:normal;font-size:12px;font-family:'URW Gothic L';-inkscape-font-specification:'Andale Mono Bold';opacity:1;fill:#e6b849;fill-opacity:1;stroke:none" />
</svg>
