<?xml version="1.0" encoding="UTF-8" standalone="no"?>
<!-- Created with Inkscape (http://www.inkscape.org/) -->

<svg
   xmlns:dc="http://purl.org/dc/elements/1.1/"
   xmlns:cc="http://creativecommons.org/ns#"
   xmlns:rdf="http://www.w3.org/1999/02/22-rdf-syntax-ns#"
   xmlns:svg="http://www.w3.org/2000/svg"
   xmlns="http://www.w3.org/2000/svg"
   xmlns:xlink="http://www.w3.org/1999/xlink"
   xmlns:sodipodi="http://sodipodi.sourceforge.net/DTD/sodipodi-0.dtd"
   xmlns:inkscape="http://www.inkscape.org/namespaces/inkscape"
   version="1.0"
   width="48"
   height="48"
   id="svg2454"
   inkscape:version="0.91 r13725"
   sodipodi:docname="application-x-abiword.svg">
  <metadata
     id="metadata285568">
    <rdf:RDF>
      <cc:Work
         rdf:about="">
        <dc:format>image/svg+xml</dc:format>
        <dc:type
           rdf:resource="http://purl.org/dc/dcmitype/StillImage" />
        <dc:title />
      </cc:Work>
    </rdf:RDF>
  </metadata>
  <sodipodi:namedview
     pagecolor="#ffffff"
     bordercolor="#666666"
     borderopacity="1"
     objecttolerance="10"
     gridtolerance="10"
     guidetolerance="10"
     inkscape:pageopacity="0"
     inkscape:pageshadow="2"
     inkscape:window-width="1399"
     inkscape:window-height="655"
     id="namedview285566"
     showgrid="false"
     inkscape:zoom="8.0000001"
     inkscape:cx="11.038641"
     inkscape:cy="22.519004"
     inkscape:window-x="65"
     inkscape:window-y="170"
     inkscape:window-maximized="0"
     inkscape:current-layer="svg2454" />
  <defs
     id="defs2456">
    <linearGradient
       inkscape:collect="always"
       id="linearGradient4132">
      <stop
         style="stop-color:#6fb6c6;stop-opacity:1"
         offset="0"
         id="stop4134" />
      <stop
         style="stop-color:#9dcdd8;stop-opacity:1"
         offset="1"
         id="stop4136" />
    </linearGradient>
    <linearGradient
       inkscape:collect="always"
       xlink:href="#linearGradient4132"
       id="linearGradient4138"
       x1="-29.694916"
       y1="44.701263"
       x2="-29.694916"
       y2="0.91525328"
       gradientUnits="userSpaceOnUse"
       gradientTransform="matrix(0.86764708,0,0,0.91472876,50.117648,3.2558137)" />
  </defs>
  <rect
     style="fill:#408eb9;fill-opacity:1;stroke:none"
     id="rect4154"
     width="34"
     height="44"
     x="7"
     y="2" />
  <rect
     y="3"
     x="8"
     height="42"
     width="32"
     id="rect4150"
     style="fill:#ffffff;fill-opacity:1;stroke:none" />
  <rect
     style="fill:url(#linearGradient4138);fill-opacity:1;stroke:none"
     id="rect3362"
     width="30"
     height="40"
     x="9"
     y="4" />
  <rect
     style="fill:#ffffff;fill-opacity:1;stroke:none"
     id="rect4140"
     width="22"
     height="2"
     x="13"
     y="12" />
  <rect
     y="17"
     x="13"
     height="2"
     width="22"
     id="rect4142"
     style="fill:#ffffff;fill-opacity:1;stroke:none" />
  <rect
     style="fill:#ffffff;fill-opacity:1;stroke:none"
     id="rect4144"
     width="22"
     height="2"
     x="13"
     y="22" />
  <rect
     style="opacity:1;fill:#ffffff;fill-opacity:1;stroke:none;stroke-width:2.25;stroke-linecap:round;stroke-miterlimit:4;stroke-dasharray:none;stroke-opacity:1"
     id="rect3204"
     width="32"
     height="12"
     x="8"
     y="33" />
  <path
     inkscape:connector-curvature="0"
     d="m 16.532831,41.724716 -2.822505,0 L 13.264914,43 l -1.814467,0 2.592766,-7 2.152043,0 2.592766,7 -1.814467,0 -0.440724,-1.275284 z m -2.372404,-1.298728 1.917614,0 -0.956462,-2.784996 -0.961152,2.784996 z"
     style="font-style:normal;font-variant:normal;font-weight:bold;font-stretch:normal;font-size:10.97387791px;line-height:125%;font-family:'Bitstream Vera Sans';-inkscape-font-specification:'Bitstream Vera Sans Bold';letter-spacing:0px;word-spacing:0px;fill:#509ac3;fill-opacity:1;stroke:none;stroke-width:1px;stroke-linecap:butt;stroke-linejoin:miter;stroke-opacity:1"
     id="path3232" />
  <path
     inkscape:connector-curvature="0"
     d="m 22.610448,38.70998 q 0.426657,0 0.647019,-0.187542 0.220362,-0.187542 0.220362,-0.553249 0,-0.361018 -0.220362,-0.548559 -0.220362,-0.192231 -0.647019,-0.192231 l -0.998661,0 0,1.481581 0.998661,0 z m 0.06095,3.061621 q 0.543871,0 0.815809,-0.229739 0.276623,-0.229739 0.276623,-0.693905 0,-0.454789 -0.271936,-0.679839 -0.271935,-0.229739 -0.820496,-0.229739 l -1.059612,0 0,1.833222 1.059612,0 z m 1.6785,-2.51775 q 0.58138,0.168788 0.900201,0.623577 0.318821,0.454789 0.318821,1.115874 0,1.012726 -0.684527,1.509712 Q 24.199864,43 22.802678,43 l -2.995982,0 0,-7 2.70998,0 q 1.458138,0 2.109846,0.440724 0.656397,0.440723 0.656397,1.411252 0,0.511052 -0.239117,0.87207 -0.239116,0.356329 -0.693905,0.529805 z"
     style="font-style:normal;font-variant:normal;font-weight:bold;font-stretch:normal;font-size:10.97387791px;line-height:125%;font-family:'Bitstream Vera Sans';-inkscape-font-specification:'Bitstream Vera Sans Bold';letter-spacing:0px;word-spacing:0px;fill:#509ac3;fill-opacity:1;stroke:none;stroke-width:1px;stroke-linecap:butt;stroke-linejoin:miter;stroke-opacity:1"
     id="path3234" />
  <path
     inkscape:connector-curvature="0"
     d="m 26.544197,36 1.730073,0 1.209644,5.087073 L 30.684183,36 l 1.73945,0 1.200269,5.087073 L 34.833546,36 36.549554,36 34.899186,43 32.81747,43 31.546875,37.678499 30.290345,43 28.208629,43 26.544197,36 Z"
     style="font-style:normal;font-variant:normal;font-weight:bold;font-stretch:normal;font-size:10.97387791px;line-height:125%;font-family:'Bitstream Vera Sans';-inkscape-font-specification:'Bitstream Vera Sans Bold';letter-spacing:0px;word-spacing:0px;fill:#509ac3;fill-opacity:1;stroke:none;stroke-width:1px;stroke-linecap:butt;stroke-linejoin:miter;stroke-opacity:1"
     id="path3236" />
</svg>
