<?xml version="1.0" encoding="UTF-8" standalone="no"?>
<!-- Created with Inkscape (http://www.inkscape.org/) -->

<svg
   xmlns:dc="http://purl.org/dc/elements/1.1/"
   xmlns:cc="http://creativecommons.org/ns#"
   xmlns:rdf="http://www.w3.org/1999/02/22-rdf-syntax-ns#"
   xmlns:svg="http://www.w3.org/2000/svg"
   xmlns="http://www.w3.org/2000/svg"
   xmlns:xlink="http://www.w3.org/1999/xlink"
   xmlns:sodipodi="http://sodipodi.sourceforge.net/DTD/sodipodi-0.dtd"
   xmlns:inkscape="http://www.inkscape.org/namespaces/inkscape"
   version="1.0"
   width="48"
   height="48"
   id="svg2453"
   inkscape:version="0.91 r13725"
   sodipodi:docname="image-gif.svg">
  <metadata
     id="metadata300295">
    <rdf:RDF>
      <cc:Work
         rdf:about="">
        <dc:format>image/svg+xml</dc:format>
        <dc:type
           rdf:resource="http://purl.org/dc/dcmitype/StillImage" />
      </cc:Work>
    </rdf:RDF>
  </metadata>
  <sodipodi:namedview
     pagecolor="#ffffff"
     bordercolor="#666666"
     borderopacity="1"
     objecttolerance="10"
     gridtolerance="10"
     guidetolerance="10"
     inkscape:pageopacity="0"
     inkscape:pageshadow="2"
     inkscape:window-width="1440"
     inkscape:window-height="852"
     id="namedview300293"
     showgrid="false"
     inkscape:zoom="12.156909"
     inkscape:cx="24.471801"
     inkscape:cy="34.225076"
     inkscape:window-x="0"
     inkscape:window-y="0"
     inkscape:window-maximized="1"
     inkscape:current-layer="svg2453" />
  <defs
     id="defs2455">
    <linearGradient
       inkscape:collect="always"
       xlink:href="#linearGradient5472"
       id="linearGradient5478"
       x1="-24.118509"
       y1="-42.924789"
       x2="-24.045452"
       y2="-11.183067"
       gradientUnits="userSpaceOnUse"
       gradientTransform="translate(0.00207178,0.90032149)" />
    <linearGradient
       inkscape:collect="always"
       id="linearGradient5472">
      <stop
         style="stop-color:#3c3c3c;stop-opacity:1"
         offset="0"
         id="stop5474" />
      <stop
         style="stop-color:#9c9c9c;stop-opacity:1"
         offset="1"
         id="stop5476" />
    </linearGradient>
  </defs>
  <rect
     width="43.966335"
     height="36.919918"
     x="-45.959866"
     y="-44.003651"
     transform="matrix(-0.99999834,0.0018218,-9.1379782e-4,-0.99999958,0,0)"
     id="rect3580-6-5"
     style="fill:#838383;fill-opacity:1;stroke:none" />
  <rect
     style="fill:#ffffff;fill-opacity:1;stroke:none"
     id="rect12195-5-8"
     transform="matrix(-0.99999837,0.00180538,-9.2210499e-4,-0.99999957,0,0)"
     y="-43.005421"
     x="-44.960426"
     height="34.924248"
     width="41.967865" />
  <rect
     width="37.929298"
     height="30.849028"
     rx="0"
     ry="0"
     x="-43.02375"
     y="-41.020397"
     transform="matrix(-0.99999207,0.00398251,0.00230162,-0.99999735,0,0)"
     id="rect3582-0-6"
     style="fill:url(#linearGradient5478);fill-opacity:1;stroke:none" />
  <rect
     style="fill:#ffffff;fill-opacity:1;stroke:none"
     id="rect5125"
     width="42"
     height="10"
     x="3.0000002"
     y="33" />
  <path
     inkscape:connector-curvature="0"
     d="m 18.55587,18.237781 0,1.204755 C 17.825434,18.45971 16.938478,18 15.773261,18 13.460217,18 11.895,19.838838 11.895,22.533686 c 0,1.363276 0.399999,2.472919 1.147826,3.265521 0.678261,0.697491 1.652173,1.109644 2.608695,1.109644 1.147826,0 1.947826,-0.443858 2.765218,-1.490093 l 0,0.428006 c 0,1.125495 -0.156522,1.807132 -0.52174,2.266842 -0.382608,0.491413 -1.130434,0.776751 -2.017391,0.776751 -0.660869,0 -1.252173,-0.158521 -1.652174,-0.443858 -0.330435,-0.237781 -0.469564,-0.459709 -0.556521,-0.951123 l -1.478261,0 C 12.347174,29.064729 13.686304,30 15.825434,30 17.181957,30 18.347173,29.603699 18.938478,28.937912 19.63413,28.177014 19.895,27.130779 19.895,25.180977 l 0,-6.943196 -1.33913,0 z m -2.626087,0.982827 c 1.565217,0 2.486956,1.204756 2.486956,3.281374 0,1.981505 -0.939131,3.186261 -2.469566,3.186261 -1.582608,0 -2.539129,-1.220608 -2.539129,-3.233818 0,-1.997357 0.973912,-3.233817 2.521739,-3.233817 z"
     style="font-style:normal;font-variant:normal;font-weight:normal;font-stretch:normal;font-size:16.6038475px;line-height:125%;font-family:'Nimbus Sans L';-inkscape-font-specification:'Nimbus Sans L';letter-spacing:1.42976975px;word-spacing:0px;fill:#ffffff;fill-opacity:1;stroke:none;stroke-width:1px;stroke-linecap:butt;stroke-linejoin:miter;stroke-opacity:1"
     id="path4179" />
  <g
     transform="matrix(1.0568577,0,0,0.94620117,-1.206e-4,0.999998)"
     style="font-style:normal;font-variant:normal;font-weight:normal;font-stretch:normal;font-size:20px;line-height:125%;font-family:'Nimbus Sans L';-inkscape-font-specification:'Nimbus Sans L';letter-spacing:1.93337834px;word-spacing:0px;fill:#ffffff;fill-opacity:1;stroke:none;stroke-width:1px;stroke-linecap:butt;stroke-linejoin:miter;stroke-opacity:1"
     id="text15105">
    <path
       inkscape:connector-curvature="0"
       d="m 23.782307,18.191585 -1.66,0 0,10.48 1.66,0 0,-10.48 z m 0,-4.1 -1.68,0 0,2.1 1.68,0 0,-2.1 z"
       style="font-style:normal;font-variant:normal;font-weight:normal;font-stretch:normal;font-size:20px;font-family:'Nimbus Sans L';-inkscape-font-specification:'Nimbus Sans L';letter-spacing:1.93337834px;fill:#ffffff;fill-opacity:1"
       id="path4176" />
  </g>
  <g
     transform="matrix(1.0568577,0,0,0.94620117,-1.206e-4,0.999998)"
     style="font-style:normal;font-variant:normal;font-weight:normal;font-stretch:normal;font-size:20px;line-height:125%;font-family:'Nimbus Sans L';-inkscape-font-specification:'Nimbus Sans L';letter-spacing:1.93337834px;word-spacing:0px;fill:#ffffff;fill-opacity:1;stroke:none;stroke-width:1px;stroke-linecap:butt;stroke-linejoin:miter;stroke-opacity:1"
     id="text15109">
    <path
       inkscape:connector-curvature="0"
       d="m 32.270077,18.191585 -1.74,0 0,-1.64 c 0,-0.7 0.4,-1.06 1.16,-1.06 0.14,0 0.2,0 0.58,0.02 l 0,-1.38 c -0.38,-0.08 -0.6,-0.1 -0.94,-0.1 -1.54,0 -2.46,0.88 -2.46,2.38 l 0,1.78 -1.4,0 0,1.36 1.4,0 0,9.12 1.66,0 0,-9.12 1.74,0 0,-1.36 z"
       style="font-style:normal;font-variant:normal;font-weight:normal;font-stretch:normal;font-size:20px;font-family:'Nimbus Sans L';-inkscape-font-specification:'Nimbus Sans L';letter-spacing:1.93337834px;fill:#ffffff;fill-opacity:1"
       id="path4173" />
  </g>
</svg>
