<?xml version="1.0" encoding="UTF-8" standalone="no"?>
<!-- Created with Inkscape (http://www.inkscape.org/) -->

<svg
   xmlns:dc="http://purl.org/dc/elements/1.1/"
   xmlns:cc="http://creativecommons.org/ns#"
   xmlns:rdf="http://www.w3.org/1999/02/22-rdf-syntax-ns#"
   xmlns:svg="http://www.w3.org/2000/svg"
   xmlns="http://www.w3.org/2000/svg"
   xmlns:xlink="http://www.w3.org/1999/xlink"
   xmlns:sodipodi="http://sodipodi.sourceforge.net/DTD/sodipodi-0.dtd"
   xmlns:inkscape="http://www.inkscape.org/namespaces/inkscape"
   width="48px"
   height="48px"
   id="svg3867"
   version="1.1"
   inkscape:version="0.91 r13725"
   sodipodi:docname="text-htmlh.svg">
  <defs
     id="defs3869">
    <linearGradient
       inkscape:collect="always"
       xlink:href="#linearGradient4873-3"
       id="linearGradient3778-1"
       gradientUnits="userSpaceOnUse"
       gradientTransform="matrix(0.44911636,0.05331805,-0.05331683,0.44910612,14.30095,11.599417)"
       x1="20"
       y1="43"
       x2="20"
       y2="2.6887112" />
    <linearGradient
       id="linearGradient4873-3">
      <stop
         id="stop4875-3"
         style="stop-color:#ffffff;stop-opacity:1"
         offset="0" />
      <stop
         id="stop4877-8"
         style="stop-color:#ffffff;stop-opacity:0"
         offset="1" />
    </linearGradient>
    <linearGradient
       inkscape:collect="always"
       xlink:href="#linearGradient4132-8"
       id="linearGradient4138-6"
       x1="-29.694916"
       y1="44.701263"
       x2="-29.694916"
       y2="0.91525328"
       gradientUnits="userSpaceOnUse"
       gradientTransform="matrix(0.86764708,0,0,0.91472876,50.117651,3.2558141)" />
    <linearGradient
       inkscape:collect="always"
       id="linearGradient4132-8">
      <stop
         style="stop-color:#98c5da;stop-opacity:1"
         offset="0"
         id="stop4134-65" />
      <stop
         style="stop-color:#b4d5e4;stop-opacity:1"
         offset="1"
         id="stop4136-9" />
    </linearGradient>
  </defs>
  <sodipodi:namedview
     id="base"
     pagecolor="#ffffff"
     bordercolor="#666666"
     borderopacity="1.0"
     inkscape:pageopacity="0.0"
     inkscape:pageshadow="2"
     inkscape:zoom="1.5117187"
     inkscape:cx="40.983156"
     inkscape:cy="53.170841"
     inkscape:current-layer="layer1"
     showgrid="true"
     inkscape:grid-bbox="true"
     inkscape:document-units="px"
     inkscape:window-width="916"
     inkscape:window-height="562"
     inkscape:window-x="147"
     inkscape:window-y="145"
     inkscape:window-maximized="0"
     showguides="true"
     inkscape:guide-bbox="true" />
  <metadata
     id="metadata3872">
    <rdf:RDF>
      <cc:Work
         rdf:about="">
        <dc:format>image/svg+xml</dc:format>
        <dc:type
           rdf:resource="http://purl.org/dc/dcmitype/StillImage" />
        <dc:title />
      </cc:Work>
    </rdf:RDF>
  </metadata>
  <g
     id="layer1"
     inkscape:label="Layer 1"
     inkscape:groupmode="layer">
    <rect
       style="fill:#63a5c9;fill-opacity:1;stroke:none"
       id="rect4154-0"
       width="34"
       height="44"
       x="7"
       y="2" />
    <rect
       y="3"
       x="8"
       height="42"
       width="32"
       id="rect4150-2"
       style="fill:#ffffff;fill-opacity:1;stroke:none" />
    <rect
       style="fill:url(#linearGradient4138-6);fill-opacity:1;stroke:none"
       id="rect3362-9"
       width="30"
       height="40"
       x="9"
       y="4.0000005" />
    <path
       d="m 32.936375,24.560585 c -0.58594,4.93558 -5.062187,8.461669 -9.997201,7.875795 -4.935465,-0.585926 -8.461476,-5.062071 -7.875541,-9.997604 0.585915,-4.935355 5.061887,-8.461063 9.997352,-7.875136 4.935014,0.585874 8.461305,5.061592 7.87539,9.996945 l 0,0 z"
       id="path6495"
       style="fill:#ffffff;fill-opacity:1;fill-rule:nonzero;stroke:url(#linearGradient3778-1);stroke-width:0;stroke-miterlimit:4;stroke-dasharray:none"
       inkscape:connector-curvature="0" />
    <path
       d="m 26.043981,16.15914 -0.98115,-0.121807 -1.120507,0.03512 c 0.09716,-0.01002 0.196201,-0.02266 0.296266,-0.03054 l -0.06858,-0.251687 -0.425803,-0.03041 -0.251779,0.144185 -0.323633,-0.03488 -0.320035,0.06879 -0.153203,0.03606 -0.05441,0.04547 -0.214591,-0.0083 -0.186899,0.233435 -0.08243,-0.372547 -0.08833,0.125311 -0.06401,0.380886 -0.313057,0.158611 -0.247965,0.365394 0.313494,0.07646 0.186898,-0.233436 0.06456,-0.08705 c 0.162014,-0.06551 0.31961,-0.144035 0.483271,-0.205211 l 0.30008,0.190666 c 0.177092,0.199089 0.355114,0.400871 0.53244,0.599779 l 0.384473,-0.21461 -0.317197,-0.238897 -0.08243,-0.372546 -0.582821,-0.215568 0.0032,-0.07263 0.245448,0.118602 0.187116,-0.115901 0.344024,0.01048 c 0.08675,-0.01941 0.169627,-0.02842 0.255374,-0.04051 l -0.251778,0.144186 0.610951,0.692352 -0.07437,0.304935 -0.357221,0.221266 0.192338,0.869276 0.296158,-0.08931 0.452198,-0.433064 c 0.495174,-0.03242 0.950709,-0.0996 1.433565,-0.193722 l -0.07459,0.1874 0.180894,0.205655 0.445871,-0.170276 -0.136733,-0.268309 -0.296158,0.08931 -0.07502,-0.04766 c 0.02091,-0.0042 0.04025,-0.01016 0.06128,-0.01442 l 0.625035,-0.904891 -0.750306,-0.535432 z m -4.099731,0.586125 0.259405,0.298228 0.258972,0.06316 0.06423,-0.263353 -0.279688,-0.215063 -0.302917,0.117029 0,0 z m 7.281523,1.584958 -0.59264,0.0023 -0.411844,0.149202 -0.05072,0.20791 -0.646726,0.224085 -0.0228,0.567161 0.38459,-0.155852 0.146985,0.285497 0.197908,0.195117 0.247963,-0.365395 -0.02431,-0.255574 0.122347,-0.146384 0.401493,-0.225154 0.149931,0.03657 -0.231062,0.296091 -0.07436,0.304936 c 0.143934,-0.0044 0.283573,0.01423 0.425806,0.03041 l -0.449256,0.184137 -0.06782,0.159681 -0.527434,0.267864 -0.42275,-0.220583 0.06422,-0.263354 -0.238256,0.08874 0.03796,0.258905 -0.327135,-0.07978 -0.25156,0.26172 -0.278931,0.196306 -0.415554,-0.01324 0.174244,0.292143 -0.0029,0.248929 -0.28623,-0.06981 -0.43235,0.114833 -0.14874,0.609869 0.17719,0.04322 0.119619,0.22008 0.411962,-0.09043 0.227571,-0.340996 0.313169,-0.09984 0.08833,-0.125309 0.463211,-0.0045 0.177732,0.337048 0.225167,0.201766 -0.224298,0.268371 0.248612,-0.0128 0.197038,-0.275018 -0.215348,-0.419648 0.12267,0.02992 0.239017,0.322626 -0.02661,0.345953 0.184601,0.368094 0.176322,-0.426921 0.153201,-0.03607 c 0.10773,0.188547 0.17641,0.403746 0.256568,0.605924 l 0.443029,0.137421 0.218406,0.229488 -0.16662,0.150271 -0.316437,0.172473 -0.381649,-0.09308 -0.463752,-0.289323 -0.265733,-0.03543 -0.244909,0.175232 -0.409984,-0.687395 -0.3546,-0.203963 -0.575736,-0.06698 -0.524487,0.01893 c -0.358627,0.254435 -0.724781,0.5108 -1.071454,0.78133 l -0.502796,0.699741 0.109367,0.202895 -0.370635,0.335476 0.12746,0.780026 c 0.179514,0.347886 0.360968,0.694192 0.540067,1.042191 l 0.445764,-0.229041 0.102604,0.230618 0.459502,-0.166953 0.09911,0.185708 0.395273,0.0964 0.167486,0.319865 -0.251236,0.438021 0.194851,0.385281 -0.148845,0.5511 0.106419,0.451825 -0.23444,0.309952 c -0.07524,0.244958 -0.145807,0.479403 -0.206434,0.727964 0.03813,0.366074 0.07677,0.731397 0.10761,1.09826 l -0.05007,0.560509 -0.06761,0.277214 0.218082,0.05318 0.364197,-0.131457 0.381645,0.09307 0.731343,-0.511834 -0.01406,-0.238394 0.466155,-0.253434 -0.208485,-0.388606 0.408361,-0.194109 0.377829,-0.12813 0.190496,-0.129762 -0.0042,-0.39751 c 0.07684,-0.315069 0.153013,-0.627415 0.229868,-0.942527 l 0.400948,-0.518989 0.415016,-0.280598 0.570726,-0.800653 0.05748,-0.23563 c -0.18186,-0.02041 -0.355862,-0.04127 -0.531464,-0.07088 l 0.442274,-0.273949 0.571811,-0.212987 0.333344,-0.241774 0.08112,-0.332656 c -0.03126,-0.126955 -0.061,-0.262651 -0.09267,-0.389717 l -0.299318,0.220701 -0.126486,-0.251124 -0.208268,-0.271068 0.104794,-0.429682 0.215354,0.419648 0.350895,0.04152 c 0.119111,0.179406 0.235945,0.341595 0.331367,0.536056 l 0.278936,-0.196311 c 0.06551,-0.2686 0.09141,-1.667148 -0.27791,-2.946062 -0.369363,-1.278567 -1.247891,-2.58057 -1.247891,-2.58057 l -0.118965,0.132521 -0.380993,0.259525 -0.283613,-0.495037 0.381645,0.09308 0.224513,-0.150835 -0.674958,-0.311467 -0.334211,-0.228358 z m -8.23563,-1.81765 -0.224191,0.327136 c 0,0 -0.248399,-0.01814 -0.313383,-0.01769 -0.960717,0.54208 -2.925306,1.746959 -4.020722,4.643804 -0.0024,0.07279 0.144037,0.534423 0.144037,0.534423 l 0.511834,0.506641 0.559157,0.312593 0.181222,0.381955 0.320903,0.401337 0.241852,0.01492 0.143281,0.123056 -0.01352,0.05543 -0.370202,0.570543 -0.241419,0.220138 0.0241,0.138044 -0.257995,0.465744 0.274443,1.065518 0.40639,0.583721 0.150579,0.38917 -0.196284,0.686383 0.06892,0.427992 -0.346104,0.708587 c 0,0 -0.0203,-0.01164 -0.01691,0.0693 0.0036,0.08086 0.768855,0.805565 0.8359,0.77658 0.06704,-0.02982 0.129324,-0.05657 0.129324,-0.05657 l -0.01395,-0.179627 0.285797,-0.165256 0.139247,-0.215686 0.398437,-0.035 0.462014,-0.650947 -0.03445,-0.213997 0.265191,-0.258395 0.459827,0.0093 0.346538,-0.473518 0.104358,-0.66475 0.459068,-0.40202 0.176217,-0.485686 c -0.410034,-0.349725 -0.809652,-0.703845 -1.214493,-1.059758 l -0.120157,-0.513912 -0.39887,-0.200074 -0.07959,-0.680243 -0.575736,-0.06698 -0.402791,-0.480048 -0.629499,0.331083 -0.0169,0.0693 c -0.14405,-0.08336 -0.326194,-0.134888 -0.443267,-0.254947 l -0.02791,-0.359248 0.08789,-0.36038 -0.364522,-0.04485 c 0.0845,-0.222598 0.179741,-0.447256 0.264429,-0.669765 l -0.204452,-0.04985 -0.26868,0.213492 -0.214483,0.05049 -0.245667,-0.236138 0.06063,-0.367028 0.149173,-0.374801 0.503662,-0.229607 0.340753,0.0831 0.115478,-0.177427 0.398869,0.200074 0.215459,0.478415 0.216781,-0.652016 0.656758,-0.324434 0.309136,-0.438586 0.449468,-0.06661 0.299211,-0.279469 0.541606,0.0293 0.353625,-0.324941 c -0.25633,-0.06251 -0.520585,-0.126964 -0.776917,-0.189479 l 0.548153,-0.11596 0.340751,0.0831 0.473348,-0.0461 -0.02302,0.449627 0.26519,-0.258396 -0.180896,-0.205655 0.09847,-0.166891 -0.136628,-0.209544 -0.177301,-0.101981 0.105229,-0.194613 -0.07894,-0.32764 -0.374558,0.0555 0.118749,-0.250056 -0.337805,-0.332033 -0.448709,0.477971 -0.02006,0.200699 -0.347297,0.06215 -0.295616,0.383141 0.0026,-0.425229 -0.477487,-0.351414 -0.02105,-0.328205 0.823808,-0.239638 0.387861,-0.228479 0.115153,-0.35373 -0.153528,-0.140238 -0.224951,-0.08423 -4e-6,-2e-6 z m 5.685048,2.091391 -0.05408,0.22177 0.08887,0.168525 -0.08113,0.332656 -0.176325,0.426921 0.371285,0.01713 0.323199,-0.200192 -0.177624,-0.278284 c -0.02552,-0.221812 -0.05691,-0.423882 -0.103366,-0.641986 l -0.190821,-0.04655 z m -0.408036,0.370409 -0.234983,0.01611 -0.0435,0.415258 0.323418,-0.08266 -0.04493,-0.348713 0,0 z m 3.104563,4.619348 0.232471,0.467877 0.185687,0.955767 0.177731,0.337047 -0.19366,0.26116 0.153856,0.316538 c -0.101706,-0.01767 -0.200381,-0.03418 -0.303244,-0.05927 -0.08948,-0.44488 -0.139157,-0.883644 -0.179575,-1.336088 l -0.177734,-0.33705 -0.0146,-0.532225 0.11908,-0.07376 0,-1e-6 z"
       id="path6534"
       style="fill:#99c5da;fill-opacity:1;fill-rule:nonzero;stroke:none"
       inkscape:connector-curvature="0" />
  </g>
</svg>
