<?xml version="1.0" encoding="UTF-8" standalone="no"?>
<!-- Created with Inkscape (http://www.inkscape.org/) -->

<svg
   xmlns:dc="http://purl.org/dc/elements/1.1/"
   xmlns:cc="http://creativecommons.org/ns#"
   xmlns:rdf="http://www.w3.org/1999/02/22-rdf-syntax-ns#"
   xmlns:svg="http://www.w3.org/2000/svg"
   xmlns="http://www.w3.org/2000/svg"
   xmlns:xlink="http://www.w3.org/1999/xlink"
   xmlns:sodipodi="http://sodipodi.sourceforge.net/DTD/sodipodi-0.dtd"
   xmlns:inkscape="http://www.inkscape.org/namespaces/inkscape"
   version="1.0"
   width="48"
   height="48"
   id="svg4018"
   inkscape:version="0.91 r13725"
   sodipodi:docname="video-x-ms-wmv.svg">
  <metadata
     id="metadata217738">
    <rdf:RDF>
      <cc:Work
         rdf:about="">
        <dc:format>image/svg+xml</dc:format>
        <dc:type
           rdf:resource="http://purl.org/dc/dcmitype/StillImage" />
        <dc:title />
      </cc:Work>
    </rdf:RDF>
  </metadata>
  <sodipodi:namedview
     pagecolor="#ffffff"
     bordercolor="#666666"
     borderopacity="1"
     objecttolerance="10"
     gridtolerance="10"
     guidetolerance="10"
     inkscape:pageopacity="0"
     inkscape:pageshadow="2"
     inkscape:window-width="1174"
     inkscape:window-height="729"
     id="namedview217736"
     showgrid="false"
     inkscape:zoom="3.0855238"
     inkscape:cx="-21.33812"
     inkscape:cy="36.959932"
     inkscape:window-x="120"
     inkscape:window-y="99"
     inkscape:window-maximized="0"
     inkscape:current-layer="svg4018"
     showguides="true"
     inkscape:guide-bbox="true" />
  <defs
     id="defs4020">
    <linearGradient
       inkscape:collect="always"
       xlink:href="#linearGradient16703-64-2-1-5-92-4"
       id="linearGradient16709-9-4-3-4-2-1-22"
       x1="24.625"
       y1="-43.80312"
       x2="24.625"
       y2="-6.125"
       gradientUnits="userSpaceOnUse"
       gradientTransform="matrix(1,0,0,1.0526316,-6.5683594e-6,2.3158057)" />
    <linearGradient
       inkscape:collect="always"
       id="linearGradient16703-64-2-1-5-92-4">
      <stop
         style="stop-color:#e187a6;stop-opacity:1"
         offset="0"
         id="stop16705-6-2-1-8-38-6" />
      <stop
         style="stop-color:#f9a7c5;stop-opacity:1"
         offset="1"
         id="stop16707-92-8-2-5-64-3" />
    </linearGradient>
  </defs>
  <rect
     transform="scale(1,-1)"
     y="-46"
     x="7"
     height="44"
     width="34"
     id="rect5634-0-6-0-7-5-3-00"
     style="fill:#ec92b2;fill-opacity:1;stroke:none" />
  <rect
     y="-45"
     x="8"
     height="42"
     width="32"
     id="rect16630-60-2-5-3"
     style="fill:#ffffff;fill-opacity:1;stroke:none"
     transform="scale(1,-1)" />
  <rect
     style="fill:url(#linearGradient16709-9-4-3-4-2-1-22);fill-opacity:1;stroke:none"
     id="rect3362-9-0-9-7-2-9-9-94-6-5-8-80-0-4"
     width="30"
     height="40"
     x="9"
     y="-44"
     transform="scale(1,-1)" />
  <rect
     style="fill:#ffffff;fill-opacity:1;stroke:none"
     id="rect16697-4-2-3-8-8-0"
     y="-16.000019"
     x="10"
     height="3"
     width="3"
     transform="scale(1,-1)" />
  <rect
     width="3"
     height="3"
     x="10"
     y="-10.000017"
     id="rect16699-1-9-19-2-0-2"
     style="fill:#ffffff;fill-opacity:1;stroke:none"
     transform="scale(1,-1)" />
  <rect
     transform="scale(1,-1)"
     width="3"
     height="3"
     x="10"
     y="-22.000021"
     id="rect16711-80-4-0-5-1-1"
     style="fill:#ffffff;fill-opacity:1;stroke:none" />
  <rect
     style="fill:#ffffff;fill-opacity:1;stroke:none"
     id="rect16697-4-2-6-2-9-6-9"
     y="-16.000019"
     x="-38"
     height="3"
     width="3"
     transform="scale(-1,-1)" />
  <rect
     width="3"
     height="3"
     x="-38"
     y="-10.000017"
     id="rect16699-1-9-3-5-8-5-6"
     style="fill:#ffffff;fill-opacity:1;stroke:none"
     transform="scale(-1,-1)" />
  <rect
     transform="scale(-1,-1)"
     width="3"
     height="3"
     x="-38"
     y="-22.000021"
     id="rect16711-80-4-4-6-6-1-3"
     style="fill:#ffffff;fill-opacity:1;stroke:none" />
  <rect
     y="-15"
     x="-44"
     height="1"
     width="40"
     id="rect4497-4-36-7-7-4-7-37-4-7-0-1-0"
     style="fill:#ffffff;fill-opacity:1;stroke:none"
     transform="matrix(0,-1,-1,0,0,0)" />
  <rect
     y="33"
     x="-44"
     height="1"
     width="40"
     id="rect4497-4-36-7-7-4-7-37-4-0-8-1-3-2"
     style="fill:#ffffff;fill-opacity:1;stroke:none"
     transform="matrix(0,-1,1,0,0,0)" />
  <rect
     y="-45"
     x="8"
     height="14"
     width="32"
     id="rect16701-86-1-2-3-7-4-6-1-6"
     style="fill:#ffffff;fill-opacity:1;stroke:none"
     transform="scale(1,-1)" />
  <rect
     style="fill:#ffffff;fill-opacity:1;stroke:none"
     id="rect5037"
     y="-28.000002"
     x="10"
     height="3"
     width="3"
     transform="scale(1,-1)" />
  <rect
     style="fill:#ffffff;fill-opacity:1;stroke:none"
     id="rect5039"
     y="-28.000002"
     x="-38"
     height="3"
     width="3"
     transform="scale(-1,-1)" />
  <path
     inkscape:connector-curvature="0"
     d="m 9.9999964,36.039157 1.8521196,0 1.00057,4.108725 1.005892,-4.108725 1.591333,0 1.00057,4.066147 1.005892,-4.066147 1.85212,0 -1.570044,5.960844 -2.080973,0 -1.005893,-4.09808 -1.00057,4.09808 -2.080973,0 -1.5700436,-5.960844 z"
     style="font-style:normal;font-weight:bold;font-size:10.89982891px;line-height:125%;font-family:Sans;-inkscape-font-specification:'Sans Bold';letter-spacing:0px;word-spacing:0px;fill:#e878a0;fill-opacity:1;stroke:none"
     id="path4591" />
  <path
     inkscape:connector-curvature="0"
     d="m 26.126208,37.029083 q 0.361909,-0.553507 0.856871,-0.840905 0.500286,-0.29272 1.09637,-0.29272 1.027183,0 1.564723,0.63334 0.53754,0.633339 0.53754,1.841475 l 0,3.629728 -1.915987,0 0,-3.108154 q 0.0053,-0.06919 0.0053,-0.143699 0.0053,-0.07451 0.0053,-0.212888 0,-0.633339 -0.186277,-0.915415 -0.186276,-0.287398 -0.601406,-0.287398 -0.542863,0 -0.840905,0.447064 -0.29272,0.447063 -0.303364,1.29329 l 0,2.9272 -1.915986,0 0,-3.108154 q 0,-0.989926 -0.17031,-1.272002 -0.17031,-0.287398 -0.606729,-0.287398 -0.548184,0 -0.846226,0.452386 -0.298043,0.447063 -0.298043,1.282646 l 0,2.932522 -1.915985,0 0,-5.960844 1.915985,0 0,0.872838 q 0.351264,-0.505607 0.80365,-0.761072 0.457707,-0.255465 1.005892,-0.255465 0.617373,0 1.091048,0.298042 0.473674,0.298043 0.718494,0.835583 z"
     style="font-style:normal;font-weight:bold;font-size:10.89982891px;line-height:125%;font-family:Sans;-inkscape-font-specification:'Sans Bold';letter-spacing:0px;word-spacing:0px;fill:#e878a0;fill-opacity:1;stroke:none"
     id="path4593" />
  <path
     inkscape:connector-curvature="0"
     d="m 31.219532,36.039157 1.90535,0 1.48488,4.119369 1.47957,-4.119369 1.91066,0 -2.34708,5.960844 -2.09162,0 -2.34176,-5.960844 z"
     style="font-style:normal;font-weight:bold;font-size:10.89982891px;line-height:125%;font-family:Sans;-inkscape-font-specification:'Sans Bold';letter-spacing:0px;word-spacing:0px;fill:#e878a0;fill-opacity:1;stroke:none"
     id="path4595" />
</svg>
