<?xml version="1.0" encoding="UTF-8" standalone="no"?>
<!-- Created with Inkscape (http://www.inkscape.org/) -->

<svg
   xmlns:dc="http://purl.org/dc/elements/1.1/"
   xmlns:cc="http://creativecommons.org/ns#"
   xmlns:rdf="http://www.w3.org/1999/02/22-rdf-syntax-ns#"
   xmlns:svg="http://www.w3.org/2000/svg"
   xmlns="http://www.w3.org/2000/svg"
   xmlns:xlink="http://www.w3.org/1999/xlink"
   xmlns:sodipodi="http://sodipodi.sourceforge.net/DTD/sodipodi-0.dtd"
   xmlns:inkscape="http://www.inkscape.org/namespaces/inkscape"
   version="1.0"
   width="48"
   height="48"
   id="svg4018"
   inkscape:version="0.91 r13725"
   sodipodi:docname="video-mp4.svg">
  <metadata
     id="metadata217738">
    <rdf:RDF>
      <cc:Work
         rdf:about="">
        <dc:format>image/svg+xml</dc:format>
        <dc:type
           rdf:resource="http://purl.org/dc/dcmitype/StillImage" />
        <dc:title />
      </cc:Work>
    </rdf:RDF>
  </metadata>
  <sodipodi:namedview
     pagecolor="#ffffff"
     bordercolor="#666666"
     borderopacity="1"
     objecttolerance="10"
     gridtolerance="10"
     guidetolerance="10"
     inkscape:pageopacity="0"
     inkscape:pageshadow="2"
     inkscape:window-width="1174"
     inkscape:window-height="729"
     id="namedview217736"
     showgrid="false"
     inkscape:zoom="3.5234225"
     inkscape:cx="46.028996"
     inkscape:cy="22.015398"
     inkscape:window-x="229"
     inkscape:window-y="121"
     inkscape:window-maximized="0"
     inkscape:current-layer="svg4018"
     showguides="true"
     inkscape:guide-bbox="true" />
  <defs
     id="defs4020">
    <linearGradient
       inkscape:collect="always"
       xlink:href="#linearGradient16703-64-2-1-5-92-4"
       id="linearGradient16709-9-4-3-4-2-1-22"
       x1="24.625"
       y1="-43.80312"
       x2="24.625"
       y2="-6.125"
       gradientUnits="userSpaceOnUse"
       gradientTransform="matrix(1,0,0,1.0526316,-2.4106445e-6,2.3158096)" />
    <linearGradient
       inkscape:collect="always"
       id="linearGradient16703-64-2-1-5-92-4">
      <stop
         style="stop-color:#e187a6;stop-opacity:1"
         offset="0"
         id="stop16705-6-2-1-8-38-6" />
      <stop
         style="stop-color:#f9a7c5;stop-opacity:1"
         offset="1"
         id="stop16707-92-8-2-5-64-3" />
    </linearGradient>
  </defs>
  <rect
     transform="scale(1,-1)"
     y="-46"
     x="7"
     height="44"
     width="34"
     id="rect5634-0-6-0-7-5-3-00"
     style="fill:#ec92b2;fill-opacity:1;stroke:none" />
  <rect
     y="-45"
     x="8"
     height="42"
     width="32"
     id="rect16630-60-2-5-3"
     style="fill:#ffffff;fill-opacity:1;stroke:none"
     transform="scale(1,-1)" />
  <rect
     style="fill:url(#linearGradient16709-9-4-3-4-2-1-22);fill-opacity:1;stroke:none"
     id="rect3362-9-0-9-7-2-9-9-94-6-5-8-80-0-4"
     width="30"
     height="40"
     x="9"
     y="-44"
     transform="scale(1,-1)" />
  <rect
     style="fill:#ffffff;fill-opacity:1;stroke:none"
     id="rect16697-4-2-3-8-8-0"
     y="-16.000015"
     x="10"
     height="3"
     width="3"
     transform="scale(1,-1)" />
  <rect
     width="3"
     height="3"
     x="10"
     y="-10.000015"
     id="rect16699-1-9-19-2-0-2"
     style="fill:#ffffff;fill-opacity:1;stroke:none"
     transform="scale(1,-1)" />
  <rect
     transform="scale(1,-1)"
     width="3"
     height="3"
     x="10"
     y="-22.000015"
     id="rect16711-80-4-0-5-1-1"
     style="fill:#ffffff;fill-opacity:1;stroke:none" />
  <rect
     style="fill:#ffffff;fill-opacity:1;stroke:none"
     id="rect16697-4-2-6-2-9-6-9"
     y="-16.000015"
     x="-38"
     height="3"
     width="3"
     transform="scale(-1,-1)" />
  <rect
     width="3"
     height="3"
     x="-38"
     y="-10.000015"
     id="rect16699-1-9-3-5-8-5-6"
     style="fill:#ffffff;fill-opacity:1;stroke:none"
     transform="scale(-1,-1)" />
  <rect
     transform="scale(-1,-1)"
     width="3"
     height="3"
     x="-38"
     y="-22.000015"
     id="rect16711-80-4-4-6-6-1-3"
     style="fill:#ffffff;fill-opacity:1;stroke:none" />
  <rect
     y="-15"
     x="-44"
     height="1"
     width="40"
     id="rect4497-4-36-7-7-4-7-37-4-7-0-1-0"
     style="fill:#ffffff;fill-opacity:1;stroke:none"
     transform="matrix(0,-1,-1,0,0,0)" />
  <rect
     y="33"
     x="-44"
     height="1"
     width="40"
     id="rect4497-4-36-7-7-4-7-37-4-0-8-1-3-2"
     style="fill:#ffffff;fill-opacity:1;stroke:none"
     transform="matrix(0,-1,1,0,0,0)" />
  <rect
     y="-45"
     x="8"
     height="14"
     width="32"
     id="rect16701-86-1-2-3-7-4-6-1-6"
     style="fill:#ffffff;fill-opacity:1;stroke:none"
     transform="scale(1,-1)" />
  <rect
     style="fill:#ffffff;fill-opacity:1;stroke:none"
     id="rect5037"
     y="-27.999992"
     x="10"
     height="3"
     width="3"
     transform="scale(1,-1)" />
  <rect
     style="fill:#ffffff;fill-opacity:1;stroke:none"
     id="rect5039"
     y="-27.999992"
     x="-38"
     height="3"
     width="3"
     transform="scale(-1,-1)" />
  <path
     inkscape:connector-curvature="0"
     d="m 16.789308,36.487306 q 0.365234,-0.558594 0.864746,-0.848633 0.504883,-0.29541 1.106445,-0.29541 1.036621,0 1.579102,0.63916 0.54248,0.63916 0.54248,1.858398 l 0,3.663086 -1.933594,0 0,-3.136719 q 0.0054,-0.06982 0.0054,-0.145019 0.0054,-0.0752 0.0054,-0.214844 0,-0.63916 -0.187989,-0.923828 -0.187988,-0.290039 -0.606933,-0.290039 -0.547852,0 -0.848633,0.451172 -0.29541,0.451172 -0.306153,1.305176 l 0,2.954101 -1.933593,0 0,-3.136719 q 0,-0.999023 -0.171875,-1.283691 -0.171875,-0.290039 -0.612305,-0.290039 -0.553223,0 -0.854004,0.456543 -0.300781,0.451172 -0.300781,1.294434 l 0,2.959472 -1.933594,0 0,-6.015625 1.933594,0 0,0.88086 q 0.354492,-0.510254 0.811035,-0.768067 0.461914,-0.257812 1.015137,-0.257812 0.623047,0 1.101074,0.300781 0.478027,0.300781 0.725098,0.843262 z"
     style="font-style:normal;font-weight:bold;font-size:11px;line-height:125%;font-family:Sans;-inkscape-font-specification:'Sans Bold';letter-spacing:0px;word-spacing:0px;fill:#e878a0;fill-opacity:1;stroke:none"
     id="path4695" />
  <path
     inkscape:connector-curvature="0"
     d="m 24.60962,40.63379 0,3.158203 -1.922851,0 0,-8.303711 1.922851,0 0,0.88086 q 0.397461,-0.526368 0.88086,-0.773438 0.483398,-0.252441 1.111816,-0.252441 1.111816,0 1.826172,0.88623 0.714355,0.88086 0.714355,2.271973 0,1.391113 -0.714355,2.277344 -0.714356,0.880859 -1.826172,0.880859 -0.628418,0 -1.111816,-0.24707 -0.483399,-0.252442 -0.88086,-0.778809 z m 1.27832,-3.894043 q -0.617675,0 -0.950683,0.456543 -0.327637,0.451172 -0.327637,1.305176 0,0.854004 0.327637,1.310547 0.333008,0.451172 0.950683,0.451172 0.617676,0 0.939942,-0.451172 0.327637,-0.451172 0.327637,-1.310547 0,-0.859375 -0.327637,-1.310547 -0.322266,-0.451172 -0.939942,-0.451172 z"
     style="font-style:normal;font-weight:bold;font-size:11px;line-height:125%;font-family:Sans;-inkscape-font-specification:'Sans Bold';letter-spacing:0px;word-spacing:0px;fill:#e878a0;fill-opacity:1;stroke:none"
     id="path4697" />
  <path
     inkscape:connector-curvature="0"
     d="m 33.697511,35.187501 -2.266602,3.356934 2.266602,0 0,-3.356934 z m -0.34375,-1.702637 2.298828,0 0,5.059571 1.144043,0 0,1.498535 -1.144043,0 0,1.460937 -1.955078,0 0,-1.460937 -3.555664,0 0,-1.772461 3.211914,-4.785645 z"
     style="font-style:normal;font-weight:bold;font-size:11px;line-height:125%;font-family:Sans;-inkscape-font-specification:'Sans Bold';letter-spacing:0px;word-spacing:0px;fill:#e878a0;fill-opacity:1;stroke:none"
     id="path4699" />
</svg>
