<?xml version="1.0" encoding="UTF-8" standalone="no"?>
<!-- Created with Inkscape (http://www.inkscape.org/) -->

<svg
   xmlns:dc="http://purl.org/dc/elements/1.1/"
   xmlns:cc="http://creativecommons.org/ns#"
   xmlns:rdf="http://www.w3.org/1999/02/22-rdf-syntax-ns#"
   xmlns:svg="http://www.w3.org/2000/svg"
   xmlns="http://www.w3.org/2000/svg"
   xmlns:xlink="http://www.w3.org/1999/xlink"
   xmlns:sodipodi="http://sodipodi.sourceforge.net/DTD/sodipodi-0.dtd"
   xmlns:inkscape="http://www.inkscape.org/namespaces/inkscape"
   version="1.0"
   width="48"
   height="48"
   id="svg4018"
   inkscape:version="0.91 r13725"
   sodipodi:docname="video-x-msvideo.svg">
  <metadata
     id="metadata217738">
    <rdf:RDF>
      <cc:Work
         rdf:about="">
        <dc:format>image/svg+xml</dc:format>
        <dc:type
           rdf:resource="http://purl.org/dc/dcmitype/StillImage" />
        <dc:title />
      </cc:Work>
    </rdf:RDF>
  </metadata>
  <sodipodi:namedview
     pagecolor="#ffffff"
     bordercolor="#666666"
     borderopacity="1"
     objecttolerance="10"
     gridtolerance="10"
     guidetolerance="10"
     inkscape:pageopacity="0"
     inkscape:pageshadow="2"
     inkscape:window-width="1440"
     inkscape:window-height="852"
     id="namedview217736"
     showgrid="false"
     inkscape:zoom="6.5163096"
     inkscape:cx="24.74966"
     inkscape:cy="13.737078"
     inkscape:window-x="0"
     inkscape:window-y="0"
     inkscape:window-maximized="1"
     inkscape:current-layer="svg4018"
     showguides="true"
     inkscape:guide-bbox="true" />
  <defs
     id="defs4020">
    <linearGradient
       inkscape:collect="always"
       xlink:href="#linearGradient16703-64-2-1-5-92-4"
       id="linearGradient16709-9-4-3-4-2-1-22"
       x1="24.625"
       y1="-43.80312"
       x2="24.625"
       y2="-6.125"
       gradientUnits="userSpaceOnUse"
       gradientTransform="matrix(1,0,0,1.0526316,-1.2368164e-6,2.3158054)" />
    <linearGradient
       inkscape:collect="always"
       id="linearGradient16703-64-2-1-5-92-4">
      <stop
         style="stop-color:#e187a6;stop-opacity:1"
         offset="0"
         id="stop16705-6-2-1-8-38-6" />
      <stop
         style="stop-color:#f9a7c5;stop-opacity:1"
         offset="1"
         id="stop16707-92-8-2-5-64-3" />
    </linearGradient>
  </defs>
  <rect
     transform="scale(1,-1)"
     y="-46"
     x="7"
     height="44"
     width="34"
     id="rect5634-0-6-0-7-5-3-00"
     style="fill:#ec92b2;fill-opacity:1;stroke:none" />
  <rect
     y="-45"
     x="8"
     height="42"
     width="32"
     id="rect16630-60-2-5-3"
     style="fill:#ffffff;fill-opacity:1;stroke:none"
     transform="scale(1,-1)" />
  <rect
     style="fill:url(#linearGradient16709-9-4-3-4-2-1-22);fill-opacity:1;stroke:none"
     id="rect3362-9-0-9-7-2-9-9-94-6-5-8-80-0-4"
     width="30"
     height="40"
     x="9"
     y="-44"
     transform="scale(1,-1)" />
  <rect
     style="fill:#ffffff;fill-opacity:1;stroke:none"
     id="rect16697-4-2-3-8-8-0"
     y="-16.000019"
     x="10"
     height="3"
     width="3"
     transform="scale(1,-1)" />
  <rect
     width="3"
     height="3"
     x="10"
     y="-10.000019"
     id="rect16699-1-9-19-2-0-2"
     style="fill:#ffffff;fill-opacity:1;stroke:none"
     transform="scale(1,-1)" />
  <rect
     transform="scale(1,-1)"
     width="3"
     height="3"
     x="10"
     y="-22.000021"
     id="rect16711-80-4-0-5-1-1"
     style="fill:#ffffff;fill-opacity:1;stroke:none" />
  <rect
     style="fill:#ffffff;fill-opacity:1;stroke:none"
     id="rect16697-4-2-6-2-9-6-9"
     y="-16.000019"
     x="-38"
     height="3"
     width="3"
     transform="scale(-1,-1)" />
  <rect
     width="3"
     height="3"
     x="-38"
     y="-10.000019"
     id="rect16699-1-9-3-5-8-5-6"
     style="fill:#ffffff;fill-opacity:1;stroke:none"
     transform="scale(-1,-1)" />
  <rect
     transform="scale(-1,-1)"
     width="3"
     height="3"
     x="-38"
     y="-22.000021"
     id="rect16711-80-4-4-6-6-1-3"
     style="fill:#ffffff;fill-opacity:1;stroke:none" />
  <rect
     y="-15"
     x="-44"
     height="1"
     width="40"
     id="rect4497-4-36-7-7-4-7-37-4-7-0-1-0"
     style="fill:#ffffff;fill-opacity:1;stroke:none"
     transform="matrix(0,-1,-1,0,0,0)" />
  <rect
     y="33"
     x="-44"
     height="1"
     width="40"
     id="rect4497-4-36-7-7-4-7-37-4-0-8-1-3-2"
     style="fill:#ffffff;fill-opacity:1;stroke:none"
     transform="matrix(0,-1,1,0,0,0)" />
  <rect
     y="-45"
     x="8"
     height="14"
     width="32"
     id="rect16701-86-1-2-3-7-4-6-1-6"
     style="fill:#ffffff;fill-opacity:1;stroke:none"
     transform="scale(1,-1)" />
  <rect
     style="fill:#ffffff;fill-opacity:1;stroke:none"
     id="rect5037"
     y="-28"
     x="10"
     height="3"
     width="3"
     transform="scale(1,-1)" />
  <rect
     style="fill:#ffffff;fill-opacity:1;stroke:none"
     id="rect5039"
     y="-28"
     x="-38"
     height="3"
     width="3"
     transform="scale(-1,-1)" />
  <path
     d="m 17.451627,38.678507 c -0.465286,3e-6 -0.816324,0.07894 -1.053116,0.236805 -0.232642,0.157872 -0.348961,0.390521 -0.348959,0.697949 -2e-6,0.282505 0.09347,0.504769 0.280415,0.666792 0.191094,0.157871 0.454891,0.236806 0.791391,0.236804 0.419581,2e-6 0.772695,-0.14956 1.059346,-0.448682 0.286641,-0.303273 0.429963,-0.68133 0.429969,-1.134169 l 0,-0.255499 -1.159046,0 m 3.408596,-0.841279 0,4.162772 -2.24955,0 0,-1.21518 C 18.311559,41.208575 17.975062,41.518083 17.60118,41.713343 17.22729,41.904447 16.772394,42 16.236495,42 c -0.722849,0 -1.31068,-0.2098 -1.763498,-0.629401 -0.448663,-0.423755 -0.672995,-0.972143 -0.672995,-1.645168 0,-0.818425 0.280414,-1.418744 0.841245,-1.800959 0.564982,-0.382206 1.449845,-0.573312 2.654593,-0.573316 l 1.314833,0 0,-0.174488 c -6e-6,-0.353124 -0.139174,-0.6107 -0.417506,-0.77273 -0.278342,-0.166173 -0.712465,-0.249262 -1.302371,-0.249267 -0.477747,5e-6 -0.922256,0.04778 -1.333527,0.143329 -0.411278,0.09555 -0.793472,0.238886 -1.146586,0.429987 l 0,-1.701253 c 0.477743,-0.116317 0.957563,-0.203562 1.439463,-0.261731 0.481896,-0.06231 0.963791,-0.09347 1.445694,-0.09347 1.258744,7e-6 2.166458,0.249274 2.723138,0.747804 0.560823,0.494386 0.841237,1.300351 0.841245,2.417897"
     id="path3982"
     inkscape:connector-curvature="0"
     sodipodi:nodetypes="ccccscccccccccscscsccccccccscc"
     style="font-style:normal;font-weight:bold;font-size:10px;line-height:125%;font-family:Sans;-inkscape-font-specification:'Sans Bold';letter-spacing:0px;word-spacing:0px;fill:#e878a0;fill-opacity:1;stroke:none" />
  <path
     d="m 22.069461,35.020502 2.230946,0 1.738643,4.823332 1.732411,-4.823332 2.237179,0 L 27.260462,42 24.811406,42 22.069461,35.020502"
     id="path3984"
     inkscape:connector-curvature="0"
     sodipodi:nodetypes="cccccccc"
     style="font-style:normal;font-weight:bold;font-size:10px;line-height:125%;font-family:Sans;-inkscape-font-specification:'Sans Bold';letter-spacing:0px;word-spacing:0px;fill:#e878a0;fill-opacity:1;stroke:none" />
  <path
     d="m 31.568541,35.618745 2.23146,0 0,6.381255 -2.23146,0 0,-6.381255 m 0,-2.552502 2.23146,0 0,1.276251 -2.23146,0 0,-1.276251"
     id="path3986"
     inkscape:connector-curvature="0"
     sodipodi:nodetypes="cccccccccc"
     style="font-style:normal;font-weight:bold;font-size:10px;line-height:125%;font-family:Sans;-inkscape-font-specification:'Sans Bold';letter-spacing:0px;word-spacing:0px;fill:#e878a0;fill-opacity:1;stroke:none" />
</svg>
