<?xml version="1.0" encoding="UTF-8" standalone="no"?>
<!-- Created with Inkscape (http://www.inkscape.org/) -->

<svg
   xmlns:dc="http://purl.org/dc/elements/1.1/"
   xmlns:cc="http://creativecommons.org/ns#"
   xmlns:rdf="http://www.w3.org/1999/02/22-rdf-syntax-ns#"
   xmlns:svg="http://www.w3.org/2000/svg"
   xmlns="http://www.w3.org/2000/svg"
   xmlns:sodipodi="http://sodipodi.sourceforge.net/DTD/sodipodi-0.dtd"
   xmlns:inkscape="http://www.inkscape.org/namespaces/inkscape"
   version="1.0"
   width="48"
   height="48"
   id="svg3786"
   inkscape:version="0.91 r13725"
   sodipodi:docname="drive-removable-media-usb.svg">
  <metadata
     id="metadata124981">
    <rdf:RDF>
      <cc:Work
         rdf:about="">
        <dc:format>image/svg+xml</dc:format>
        <dc:type
           rdf:resource="http://purl.org/dc/dcmitype/StillImage" />
        <dc:title />
      </cc:Work>
    </rdf:RDF>
  </metadata>
  <sodipodi:namedview
     pagecolor="#ffffff"
     bordercolor="#666666"
     borderopacity="1"
     objecttolerance="10"
     gridtolerance="10"
     guidetolerance="10"
     inkscape:pageopacity="0"
     inkscape:pageshadow="2"
     inkscape:window-width="1440"
     inkscape:window-height="852"
     id="namedview124979"
     showgrid="false"
     inkscape:zoom="4.2727214"
     inkscape:cx="53.227568"
     inkscape:cy="-7.1919606"
     inkscape:window-x="0"
     inkscape:window-y="0"
     inkscape:window-maximized="1"
     inkscape:current-layer="svg3786"
     showguides="false" />
  <defs
     id="defs3788" />
  <path
     style="opacity:1;fill:#a6a6a6;fill-opacity:1;fill-rule:evenodd;stroke:none;stroke-width:1;stroke-linecap:square;stroke-linejoin:miter;stroke-miterlimit:4;stroke-dasharray:none;stroke-opacity:1"
     d="m 9.9999997,5.999999 28.0000013,0 c 1.662,0 2.88944,1.34168 3,3 l 2,30.000002 c 0.11055,1.65832 -1.338,3 -3,3 l -32.0000013,0 c -1.662,0 -3.110554,-1.34168 -3,-3 l 2,-30.000002 c 0.110555,-1.65832 1.338,-3 3,-3 z"
     id="rect4262-7-4"
     inkscape:connector-curvature="0"
     sodipodi:nodetypes="sssssssss" />
  <rect
     style="opacity:1;fill:#ffffff;fill-opacity:1;fill-rule:evenodd;stroke:none;stroke-width:1;stroke-linecap:square;stroke-linejoin:miter;stroke-miterlimit:4;stroke-dasharray:none;stroke-opacity:1"
     id="rect4258-8-6"
     width="32"
     height="2"
     x="8.000001"
     y="37" />
  <rect
     y="33"
     x="6.0000014"
     height="1"
     width="36"
     id="rect4260-1-6"
     style="opacity:1;fill:#ffffff;fill-opacity:1;fill-rule:evenodd;stroke:none;stroke-width:1;stroke-linecap:square;stroke-linejoin:miter;stroke-miterlimit:4;stroke-dasharray:none;stroke-opacity:1" />
  <path
     style="display:inline;fill:#ffffff;fill-opacity:1;stroke:none"
     d="m 23.905341,7.233521 -3.786377,4.543653 2.271826,0 0,9.181966 c -0.1525,-0.01892 -0.182267,-0.02605 -0.425967,-0.09466 -0.354838,-0.0999 -0.739851,-0.225538 -1.041254,-0.378638 -1.087942,-0.552722 -1.781398,-1.500961 -1.987848,-2.650463 l -0.04733,-0.189319 c 0.657498,-0.296481 1.088583,-0.807712 1.088583,-1.372562 0,-0.90914 -1.082287,-1.65654 -2.461145,-1.65654 -1.378858,0 -2.508475,0.7474 -2.508475,1.65654 0,0.681855 0.618468,1.264653 1.514551,1.514551 0.935999,3.197509 3.362652,4.803912 5.868885,5.253599 l 0,1.845859 0,2.129837 c -0.902263,0.393412 -1.514551,1.101385 -1.514551,1.940519 0,1.254696 1.356174,2.271826 3.029101,2.271826 1.672927,0 3.029103,-1.01713 3.029103,-2.271826 0,-0.839134 -0.612288,-1.547107 -1.514551,-1.940519 l 0,-3.549729 0,-3.329321 c 0,0 1.813979,-0.0026 2.606905,-0.380031 1.483164,-0.705896 2.717858,-1.967848 3.626754,-3.336048 0.316783,-0.476866 0.58182,-1.615938 0.58182,-1.615938 l 0.757275,0 0,-3.029103 -4.543653,0 0,3.029103 0.993924,0 0,0.141989 c -0.09617,0.370185 -0.232128,0.797558 -0.331308,0.993924 -1.242287,1.31837 -2.133956,2.121993 -3.691718,2.177167 l 0,-6.342183 2.271827,0 z"
     id="path3218"
     inkscape:connector-curvature="0"
     sodipodi:nodetypes="ccccscccsssccccssscccaacccccccccccc" />
</svg>
