<?xml version="1.0" encoding="UTF-8" standalone="no"?>
<!-- Created with Inkscape (http://www.inkscape.org/) -->

<svg
   xmlns:dc="http://purl.org/dc/elements/1.1/"
   xmlns:cc="http://creativecommons.org/ns#"
   xmlns:rdf="http://www.w3.org/1999/02/22-rdf-syntax-ns#"
   xmlns:svg="http://www.w3.org/2000/svg"
   xmlns="http://www.w3.org/2000/svg"
   xmlns:sodipodi="http://sodipodi.sourceforge.net/DTD/sodipodi-0.dtd"
   xmlns:inkscape="http://www.inkscape.org/namespaces/inkscape"
   id="svg7384"
   height="16"
   width="16"
   version="1.1"
   inkscape:version="0.91 r13725"
   sodipodi:docname="document-open-recent-symbolic.svg">
  <defs
     id="defs10" />
  <sodipodi:namedview
     pagecolor="#ffffff"
     bordercolor="#666666"
     borderopacity="1"
     objecttolerance="10"
     gridtolerance="10"
     guidetolerance="10"
     inkscape:pageopacity="0"
     inkscape:pageshadow="2"
     inkscape:window-width="884"
     inkscape:window-height="480"
     id="namedview8"
     showgrid="false"
     inkscape:zoom="29.5"
     inkscape:cx="9.0301256"
     inkscape:cy="7.6095677"
     inkscape:window-x="347"
     inkscape:window-y="199"
     inkscape:window-maximized="0"
     inkscape:current-layer="layer12" />
  <metadata
     id="metadata90">
    <rdf:RDF>
      <cc:Work
         rdf:about="">
        <dc:format>image/svg+xml</dc:format>
        <dc:type
           rdf:resource="http://purl.org/dc/dcmitype/StillImage" />
        <dc:title>Gnome Symbolic Icon Theme</dc:title>
      </cc:Work>
    </rdf:RDF>
  </metadata>
  <title
     id="title9167">Gnome Symbolic Icon Theme</title>
  <g
     id="layer12"
     transform="matrix(0.86821788,0,0,0.86821788,-32.74035,-595.34258)">
    <path
       id="path3869"
       style="text-indent:0;text-transform:none;block-progression:tb;color:#000000;fill:#bebebe"
       d="m 46.924108,688.01 c -4.1303,0 -7.4866,3.3563 -7.4866,7.4866 0,4.1303 3.3563,7.4866 7.4866,7.4866 4.1303,0 7.4866,-3.3563 7.4866,-7.4866 0,-4.1303 -3.3563,-7.4866 -7.4866,-7.4866 z m 0,1.9732 c 3.0494,0 5.5134,2.464 5.5134,5.5134 0,3.0494 -2.464,5.5134 -5.5134,5.5134 -3.0494,0 -5.5134,-2.464 -5.5134,-5.5134 0,-3.0494 2.464,-5.5134 5.5134,-5.5134 z"
       inkscape:connector-curvature="0" />
    <path
       style="fill:#bebebe;fill-opacity:1;stroke:none"
       d="m 46.906112,690.99245 c -2.470088,0 -4.463166,1.99307 -4.463166,4.46316 0,2.47009 1.993078,4.49916 4.463166,4.49916 2.470087,0 4.499158,-2.02907 4.499158,-4.49916 0,-2.47009 -2.029071,-4.46316 -4.499158,-4.46316 z m 3.023434,2.30356 a 0.50004999,0.50004999 0 0 1 0.359933,0.86384 l -3.023435,3.02344 a 0.50004999,0.50004999 0 0 1 -0.683872,0 l -1.979629,-2.01563 a 0.50004999,0.50004999 0 1 1 0.683872,-0.68387 l 1.65569,1.65569 2.663502,-2.6635 a 0.50004999,0.50004999 0 0 1 0.215959,-0.14397 0.50004999,0.50004999 0 0 1 0.10798,-0.036 z"
       id="path3661"
       inkscape:connector-curvature="0" />
  </g>
</svg>
