<?xml version="1.0" encoding="UTF-8" standalone="no"?>
<!-- Created with Inkscape (http://www.inkscape.org/) -->

<svg
   xmlns:dc="http://purl.org/dc/elements/1.1/"
   xmlns:cc="http://creativecommons.org/ns#"
   xmlns:rdf="http://www.w3.org/1999/02/22-rdf-syntax-ns#"
   xmlns:svg="http://www.w3.org/2000/svg"
   xmlns="http://www.w3.org/2000/svg"
   xmlns:sodipodi="http://sodipodi.sourceforge.net/DTD/sodipodi-0.dtd"
   xmlns:inkscape="http://www.inkscape.org/namespaces/inkscape"
   width="16"
   height="16"
   id="svg2"
   sodipodi:version="0.32"
   inkscape:version="0.91 r13725"
   version="1.0"
   sodipodi:docname="drive-removable-media-usb.svg"
   inkscape:output_extension="org.inkscape.output.svg.inkscape">
  <defs
     id="defs4" />
  <sodipodi:namedview
     id="base"
     pagecolor="#ffffff"
     bordercolor="#666666"
     borderopacity="1.0"
     gridtolerance="10000"
     guidetolerance="10"
     objecttolerance="10"
     inkscape:pageopacity="0.0"
     inkscape:pageshadow="2"
     inkscape:zoom="25.450061"
     inkscape:cx="10.191759"
     inkscape:cy="6.5578104"
     inkscape:document-units="px"
     inkscape:current-layer="layer1"
     showgrid="false"
     inkscape:window-width="1165"
     inkscape:window-height="720"
     inkscape:window-x="141"
     inkscape:window-y="127"
     inkscape:window-maximized="0"
     showguides="true"
     inkscape:guide-bbox="true" />
  <metadata
     id="metadata7">
    <rdf:RDF>
      <cc:Work
         rdf:about="">
        <dc:format>image/svg+xml</dc:format>
        <dc:type
           rdf:resource="http://purl.org/dc/dcmitype/StillImage" />
        <dc:title />
      </cc:Work>
    </rdf:RDF>
  </metadata>
  <g
     inkscape:label="Layer 1"
     inkscape:groupmode="layer"
     id="layer1"
     transform="translate(0,-8)">
    <path
       style="opacity:1;fill:#dcdcdc;fill-opacity:1;fill-rule:evenodd;stroke:none;stroke-width:1;stroke-linecap:square;stroke-linejoin:miter;stroke-miterlimit:4;stroke-dasharray:none;stroke-opacity:1"
       d="M 2.5,1 1,15 15,15 13.5,1 Z M 2,13 l 12,0 0,1 -12,0 z"
       transform="translate(0,8)"
       id="rect4243"
       inkscape:connector-curvature="0"
       sodipodi:nodetypes="cccccccccc" />
    <path
       style="display:inline;fill:#474747;fill-opacity:1;stroke:none"
       d="m 7.9631582,10.33053 -1.4736843,1.768422 0.8842106,0 0,3.573684 c -0.059354,-0.0073 -0.07094,-0.01014 -0.1657896,-0.03685 C 7.0697896,15.596915 6.9199399,15.548013 6.8026318,15.488425 6.3791977,15.273301 6.1092993,14.904241 6.0289476,14.456847 l -0.018421,-0.07369 c 0.2559028,-0.115392 0.4236841,-0.314366 0.4236841,-0.53421 0,-0.353843 -0.4212337,-0.644737 -0.9578948,-0.644737 -0.5366609,0 -0.9763158,0.290894 -0.9763158,0.644737 0,0.265383 0.2407122,0.492211 0.5894737,0.589473 0.3642971,1.244494 1.3087672,1.869716 2.2842107,2.044738 l 0,0.718421 0,0.828947 c -0.3511671,0.153118 -0.5894737,0.428666 -0.5894737,0.755263 0,0.488337 0.5278324,0.884211 1.1789474,0.884211 0.6511143,0 1.1789475,-0.395874 1.1789475,-0.884211 0,-0.326597 -0.2383065,-0.602145 -0.5894737,-0.755263 l 0,-1.381579 0,-1.295795 c 0,0 0.7060132,-10e-4 1.0146251,-0.147911 0.5772579,-0.274739 1.0578089,-0.7659 1.4115579,-1.298412 0.123295,-0.1856 0.226449,-0.628934 0.226449,-0.628934 l 0.294736,0 0,-1.178948 -1.7684205,0 0,1.178948 0.3868415,0 0,0.05527 c -0.03743,0.144079 -0.09034,0.310415 -0.1289474,0.386841 -0.4835065,0.513119 -0.8305502,0.825896 -1.4368416,0.84737 l 0,-2.468422 0.8842104,0 z"
       id="path3218"
       inkscape:connector-curvature="0"
       sodipodi:nodetypes="ccccscccsssccccssscccaacccccccccccc" />
  </g>
</svg>
