<?xml version="1.0" encoding="UTF-8" standalone="no"?>
<!-- Created with Inkscape (http://www.inkscape.org/) -->

<svg
   xmlns:dc="http://purl.org/dc/elements/1.1/"
   xmlns:cc="http://creativecommons.org/ns#"
   xmlns:rdf="http://www.w3.org/1999/02/22-rdf-syntax-ns#"
   xmlns:svg="http://www.w3.org/2000/svg"
   xmlns="http://www.w3.org/2000/svg"
   xmlns:sodipodi="http://sodipodi.sourceforge.net/DTD/sodipodi-0.dtd"
   xmlns:inkscape="http://www.inkscape.org/namespaces/inkscape"
   id="svg7384"
   height="16"
   width="16"
   version="1.1"
   inkscape:version="0.91 r13725"
   sodipodi:docname="folder-publicshare.svg">
  <defs
     id="defs10" />
  <sodipodi:namedview
     pagecolor="#ffffff"
     bordercolor="#666666"
     borderopacity="1"
     objecttolerance="10"
     gridtolerance="10"
     guidetolerance="10"
     inkscape:pageopacity="0"
     inkscape:pageshadow="2"
     inkscape:window-width="1440"
     inkscape:window-height="852"
     id="namedview8"
     showgrid="false"
     inkscape:zoom="33.064389"
     inkscape:cx="7.8993646"
     inkscape:cy="4.4648981"
     inkscape:window-x="0"
     inkscape:window-y="0"
     inkscape:window-maximized="1"
     inkscape:current-layer="layer13" />
  <metadata
     id="metadata90">
    <rdf:RDF>
      <cc:Work
         rdf:about="">
        <dc:format>image/svg+xml</dc:format>
        <dc:type
           rdf:resource="http://purl.org/dc/dcmitype/StillImage" />
        <dc:title>Gnome Symbolic Icon Theme</dc:title>
      </cc:Work>
    </rdf:RDF>
  </metadata>
  <title
     id="title9167">Gnome Symbolic Icon Theme</title>
  <g
     id="layer13"
     transform="matrix(0,-0.87497266,0.87497266,0,-153.3896,401.63133)">
    <path
       style="fill:#dcdcdc;fill-opacity:1"
       d="M 5 0 L 5 15 L 7.5292969 15 A 5.9999999 5.9999999 0 0 1 5.9179688 10.916016 A 5.9999999 5.9999999 0 0 1 11.917969 4.9160156 A 5.9999999 5.9999999 0 0 1 14 5.296875 L 14 0 L 5 0 z "
       transform="matrix(0,1.1428929,-1.1428929,0,459.02158,175.30788)"
       id="path13021-3" />
    <path
       style="fill:#dcdcdc;fill-opacity:1;stroke:none"
       d="m 459.02158,177.59362 -9.14314,0 0,-1.14285 -8.00026,0 0,3.42865 17.1434,0 z"
       id="rect3967"
       inkscape:connector-curvature="0"
       sodipodi:nodetypes="ccccccc" />
    <path
       style="fill:#dcdcdc;fill-opacity:1;fill-rule:nonzero;stroke:none"
       d="m 452.16427,189.36324 -0.0989,-0.18349 0,-0.29358 -0.0331,-0.25687 -0.033,-0.11014 -0.033,-0.0734 0,-0.18349 -0.16484,-0.14679 0.26375,-0.0734 -0.0989,-0.0734 -0.26375,-0.0366 -0.13185,-0.25689 -0.26375,-0.22019 -0.0659,0.25689 0.16485,0.18349 0.033,0 0.0331,0.0368 c 0.0488,0.13442 0.11922,0.26789 0.16483,0.40366 l -0.13187,0.25689 c -0.14841,0.14694 -0.31329,0.29324 -0.46154,0.44038 l 0.16484,0.29358 0.16481,-0.25688 0.29672,-0.0734 0.16485,-0.47707 0.033,0 -0.0659,0.22019 0.0659,0.14679 0,0.29358 c 0.0145,0.072 0.024,0.14903 0.033,0.22017 l -0.0989,-0.22017 -0.52748,0.51376 0.29671,0.55047 -0.0659,1.06424 0.32968,0 0.0328,-0.0366 0.099,-0.80736 -0.0331,-0.69725 0.19782,-0.0368 0.033,-0.36696 z m -0.75827,-1.4679 -0.1978,0.18349 -0.0659,0.22017 0.1978,0.0734 0.16484,-0.25688 -0.0989,-0.22018 z m 0.19781,-0.80734 -0.26374,-0.18349 c 0,0 0.0332,-0.20298 0.033,-0.25689 -0.40406,-0.79713 -1.30234,-2.4306 -3.4616,-3.33947 -0.0542,-0.002 -0.39561,0.11001 -0.39561,0.11001 l -0.39563,0.44037 -0.23077,0.44037 -0.26376,0.18349 -0.32967,0.25689 0,0.18349 -0.0989,0.11013 -0.0331,0 -0.42858,-0.29358 -0.16485,-0.22018 -0.0989,0.0366 -0.32968,-0.22019 -0.8242,0.22019 -0.42857,0.33027 -0.29671,0.14679 -0.49451,-0.18349 -0.3297,0.0734 -0.52747,-0.29358 c 0,0 0.027,-0.004 -0.033,0 -0.03,0.002 -0.18616,0.1633 -0.32968,0.33029 l 0,0.62386 0.0331,0.0734 0.16483,0.11001 0.033,0.3303 0.49453,0.36697 0.13189,0 0.19779,0.22017 0,0.367 0.36265,0.29358 0.4945,0.0734 0.29671,0.40368 0.36267,0.11001 c 0.26073,-0.34021 0.52593,-0.65492 0.79121,-0.99083 l 0.36265,-0.11002 0.16483,-0.33027 0.49453,-0.0368 0.0659,-0.51377 0.36264,-0.33027 -0.26374,-0.51376 -0.0331,0 c 0.0622,-0.11953 0.0753,-0.26985 0.16483,-0.36699 l 0.2967,-0.0368 0.26376,0.0734 0.033,-0.29358 c 0.16593,0.0702 0.32866,0.14989 0.49452,0.22017 l 0.033,-0.18347 -0.16483,-0.22021 -0.033,-0.18348 0.16482,-0.18348 0.29671,0.0367 0.26374,0.11002 0.16484,0.44038 -0.0659,0.29358 0.13189,0.0734 -0.13189,0.33028 -0.36263,0.18348 0.49452,0.18349 0.23078,0.55046 0.32967,0.25689 0.0659,0.36698 0.19782,0.25688 -0.033,0.44037 0.26373,0.29358 c 0.0466,-0.21268 0.0853,-0.44789 0.13187,-0.66056 l 0.0989,0.47707 -0.0659,0.29359 0.033,0.36696 -0.32968,0 0.16485,0.2202 0.16483,-0.1468 0.13187,0.0734 0.16485,-0.11013 0.0659,-0.14679 0.13186,0.0734 0.26375,-0.0734 -0.0659,-0.29359 0.1978,0.11001 0.26375,-0.29359 -0.36263,-0.36697 -0.16486,-0.0367 -0.0328,-0.29359 -0.29671,-0.22017 0.32967,0 0.26373,-0.40369 0.23079,0 0.19781,0.66056 0.16483,0.33029 0.26375,0.11001 0.0989,-0.14679 0.0659,-0.18349 z m -1.58245,3.55967 -0.16485,-0.0368 -0.0989,0.0734 -0.26375,-0.0734 -0.32968,-0.1468 0,0.33028 0.16484,0.25689 0.19781,-0.14679 c 0.16533,-0.0212 0.29896,-0.0348 0.46156,-0.0734 l 0.033,-0.18348 z m -0.26373,-0.51378 -0.3297,-0.0368 0.0659,0.25688 0.26375,-0.0367 0,-0.18349 z m -0.65937,1.06424 -0.19781,-0.22018 -0.16482,-0.22021 0.033,-0.33026 -0.23078,0.14679 -0.1978,-0.0368 0.0659,-0.22017 -0.099,-0.36698 -0.42858,-0.11002 -0.033,0.14679 -0.16483,0.11002 0.0659,0.33028 0.23077,0.18348 0.0989,0.25687 0.0659,0.0734 0.033,0.36697 0.89012,0 0.033,-0.11002 z m -1.51651,-0.69726 -0.033,-0.44037 c -0.18965,-0.29756 -0.39177,-0.59311 -0.59341,-0.88075 l -0.49451,-0.44035 -0.16485,0.11001 -0.26374,-0.29358 -0.56044,0.0734 c -0.25932,0.14893 -0.53184,0.32847 -0.79123,0.47706 l 0.16482,0.36698 -0.16482,0.0734 0.13186,0.36696 -0.13186,0.11002 -0.0659,0.33027 -0.26375,0.11002 -0.32968,-0.18348 -0.26374,0.14679 -0.42859,-0.11002 -0.32966,0.0734 -0.23079,-0.18349 c -0.18259,-0.0625 -0.34218,-0.13317 -0.52747,-0.18348 -0.11966,0.0139 -0.24188,0.0188 -0.36265,0.0366 l 0,1.24772 5.40672,0 0.0659,-0.0366 0.16484,-0.29358 0.0659,-0.47707 z"
       id="path6534"
       inkscape:connector-curvature="0" />
  </g>
</svg>
