<?xml version="1.0" encoding="UTF-8" standalone="no"?>
<!-- Created with Inkscape (http://www.inkscape.org/) -->

<svg
   xmlns:dc="http://purl.org/dc/elements/1.1/"
   xmlns:cc="http://creativecommons.org/ns#"
   xmlns:rdf="http://www.w3.org/1999/02/22-rdf-syntax-ns#"
   xmlns:svg="http://www.w3.org/2000/svg"
   xmlns="http://www.w3.org/2000/svg"
   xmlns:xlink="http://www.w3.org/1999/xlink"
   xmlns:sodipodi="http://sodipodi.sourceforge.net/DTD/sodipodi-0.dtd"
   xmlns:inkscape="http://www.inkscape.org/namespaces/inkscape"
   version="1.0"
   width="16"
   height="16"
   id="svg4569"
   sodipodi:version="0.32"
   inkscape:version="0.91 r13725"
   sodipodi:docname="network.svg"
   inkscape:output_extension="org.inkscape.output.svg.inkscape">
  <metadata
     id="metadata46">
    <rdf:RDF>
      <cc:Work
         rdf:about="">
        <dc:format>image/svg+xml</dc:format>
        <dc:type
           rdf:resource="http://purl.org/dc/dcmitype/StillImage" />
        <dc:title />
      </cc:Work>
    </rdf:RDF>
  </metadata>
  <sodipodi:namedview
     inkscape:window-height="789"
     inkscape:window-width="1438"
     inkscape:pageshadow="2"
     inkscape:pageopacity="0.0"
     guidetolerance="10.0"
     gridtolerance="10.0"
     objecttolerance="10.0"
     borderopacity="1.0"
     bordercolor="#666666"
     pagecolor="#ffffff"
     id="base"
     showgrid="false"
     showguides="true"
     inkscape:guide-bbox="true"
     inkscape:zoom="36.304712"
     inkscape:cx="8.744171"
     inkscape:cy="10.633352"
     inkscape:window-x="0"
     inkscape:window-y="63"
     inkscape:current-layer="svg4569"
     inkscape:window-maximized="0">
    <inkscape:grid
       type="xygrid"
       id="grid2421"
       empspacing="5"
       visible="true"
       enabled="true"
       snapvisiblegridlinesonly="true" />
  </sodipodi:namedview>
  <defs
     id="defs4571">
    <linearGradient
       id="linearGradient3342-5">
      <stop
         id="stop3344-6"
         style="stop-color:#ffffff;stop-opacity:0"
         offset="0" />
      <stop
         id="stop3346-1"
         style="stop-color:#ffffff;stop-opacity:1"
         offset="1" />
    </linearGradient>
    <linearGradient
       inkscape:collect="always"
       xlink:href="#linearGradient3342-5"
       id="linearGradient3778-3-5"
       gradientUnits="userSpaceOnUse"
       gradientTransform="matrix(0.324391,0.03850644,-0.03851007,0.32434564,0.99450585,-0.59386829)"
       x1="20"
       y1="43"
       x2="20"
       y2="2.6887112" />
  </defs>
  <circle
     style="fill:#dcdcdc;fill-opacity:1;stroke:none;stroke-width:2;stroke-miterlimit:4;stroke-dasharray:none;stroke-opacity:1"
     id="path4138"
     cx="8"
     cy="8"
     r="7.5" />
  <path
     style="fill:#ffffff;fill-opacity:1;fill-rule:nonzero;stroke:url(#linearGradient3778-3-5);stroke-width:0;stroke-miterlimit:4;stroke-dasharray:none"
     d="M 7.359375 1.859375 L 7.03125 1.8789062 L 6.8515625 2.0136719 L 6.5976562 2.0175781 L 6.3613281 2.0996094 L 6.2480469 2.1425781 L 6.2089844 2.1835938 L 6.0449219 2.1972656 L 5.921875 2.3964844 L 5.8242188 2.1132812 L 5.7695312 2.2207031 L 5.7558594 2.5214844 L 5.5292969 2.6738281 L 5.3730469 2.9785156 L 5.6210938 3.0078125 L 5.7421875 2.8105469 L 5.7832031 2.7363281 C 5.9013246 2.6702967 6.0169306 2.5940733 6.1367188 2.53125 L 6.3828125 2.6523438 C 6.5371775 2.7899064 6.6931279 2.927053 6.8476562 3.0644531 L 7.1230469 2.8652344 L 6.8554688 2.7070312 L 6.7578125 2.4277344 L 6.2910156 2.3164062 L 6.2871094 2.2597656 L 6.4863281 2.328125 L 6.6191406 2.2207031 L 6.8828125 2.1972656 C 6.9475217 2.1740536 7.0115499 2.158085 7.0761719 2.140625 L 6.8964844 2.2773438 L 7.4296875 2.7558594 L 7.4003906 3 L 7.1484375 3.2050781 L 7.375 3.8574219 L 7.59375 3.7617188 L 7.9023438 3.3847656 C 8.2790162 3.3129708 8.6209511 3.2160941 8.9824219 3.0976562 L 8.9433594 3.25 L 9.1015625 3.3925781 L 9.4257812 3.21875 L 9.296875 3.0234375 L 9.078125 3.1191406 L 9.015625 3.0898438 C 9.031275 3.0847088 9.04677 3.0794987 9.0625 3.0742188 L 9.4570312 2.3144531 L 8.8320312 1.96875 L 8.0683594 1.9667969 L 7.2109375 2.1015625 C 7.284506 2.0846425 7.361504 2.0643611 7.4375 2.0488281 L 7.359375 1.859375 z M 5.7421875 2.8105469 L 5.96875 3.0175781 L 6.1738281 3.0429688 L 6.1972656 2.8300781 L 5.9628906 2.6914062 L 5.7421875 2.8105469 z M 4.9902344 2.7207031 L 4.8476562 2.9941406 C 4.8476563 2.9941406 4.6572089 3.0032656 4.6074219 3.0097656 C 3.9213137 3.5203178 2.5267799 4.6386095 1.9570312 6.9863281 C 1.9620134 7.0429449 2.1152345 7.3886719 2.1152344 7.3886719 L 2.5566406 7.7324219 L 3.0136719 7.921875 L 3.1894531 8.2011719 L 3.4726562 8.4824219 L 3.6582031 8.4707031 L 3.7792969 8.5527344 L 3.7753906 8.5957031 L 3.5449219 9.0742188 L 3.3789062 9.2675781 L 3.4101562 9.3710938 L 3.2578125 9.7558594 L 3.5644531 10.554688 L 3.9316406 10.970703 L 4.0839844 11.257812 L 3.9980469 11.808594 L 4.0898438 12.132812 L 3.890625 12.714844 C 3.890625 12.714844 3.8746156 12.707241 3.8847656 12.769531 C 3.89508 12.831853 4.5489513 13.319786 4.5976562 13.291016 C 4.6462822 13.261596 4.6914062 13.236328 4.6914062 13.236328 L 4.6640625 13.097656 L 4.8691406 12.943359 L 4.9550781 12.763672 L 5.2558594 12.699219 L 5.5507812 12.150391 L 5.5039062 11.988281 L 5.6855469 11.763672 L 6.0371094 11.726562 L 6.2597656 11.328125 L 6.2773438 10.802734 L 6.5917969 10.447266 L 6.6796875 10.056641 C 6.3326534 9.824266 5.9940201 9.5852613 5.6503906 9.3476562 L 5.5117188 8.9628906 L 5.1855469 8.84375 L 5.0625 8.3242188 L 4.6132812 8.3261719 L 4.2597656 7.9941406 L 3.8085938 8.3085938 L 3.8027344 8.3632812 C 3.6845159 8.3122637 3.5384691 8.2909674 3.4375 8.2089844 L 3.3828125 7.9316406 L 3.4179688 7.6445312 L 3.1347656 7.6445312 C 3.1787996 7.4640982 3.2292535 7.281944 3.2734375 7.1015625 L 3.1113281 7.0820312 L 2.9277344 7.2714844 L 2.7675781 7.3300781 L 2.5566406 7.171875 L 2.5703125 6.8828125 L 2.6464844 6.5761719 L 3.0117188 6.3515625 L 3.2832031 6.3828125 L 3.3535156 6.234375 L 3.6796875 6.3535156 L 3.8886719 6.7050781 L 3.9941406 6.1777344 L 4.46875 5.8652344 L 4.6640625 5.4960938 L 5.0019531 5.4003906 L 5.203125 5.15625 L 5.6230469 5.1289062 L 5.8652344 4.8417969 L 5.25 4.7695312 L 5.6601562 4.6289062 L 5.9277344 4.6601562 L 6.2890625 4.5800781 L 6.3105469 4.9316406 L 6.4921875 4.7050781 L 6.3339844 4.5625 L 6.3925781 4.4257812 L 6.2675781 4.2753906 L 6.1230469 4.2128906 L 6.1855469 4.0527344 L 6.0957031 3.8066406 L 5.8125 3.8828125 L 5.8808594 3.6777344 L 5.5917969 3.4550781 L 5.2910156 3.8671875 L 5.2949219 4.0253906 L 5.0332031 4.1035156 L 4.84375 4.4296875 L 4.8046875 4.0996094 L 4.40625 3.8710938 L 4.359375 3.6210938 L 4.96875 3.3574219 L 5.2441406 3.1425781 L 5.2988281 2.8574219 L 5.1699219 2.7636719 L 4.9902344 2.7207031 z M 11.472656 3.3515625 L 11.019531 3.4101562 L 10.71875 3.5644531 L 10.697266 3.7304688 L 10.224609 3.9648438 L 10.257812 4.4082031 L 10.539062 4.25 L 10.677734 4.4570312 L 10.847656 4.5898438 L 11.003906 4.28125 L 10.962891 4.0859375 L 11.042969 3.9628906 L 11.330078 3.7480469 L 11.447266 3.765625 L 11.296875 4.015625 L 11.267578 4.2597656 C 11.377534 4.2427566 11.487079 4.241086 11.597656 4.2402344 L 11.269531 4.4277344 L 11.234375 4.5585938 L 10.855469 4.8144531 L 10.509766 4.6835938 L 10.533203 4.4726562 L 10.361328 4.5644531 L 10.414062 4.7597656 L 10.15625 4.7304688 L 9.9863281 4.9570312 L 9.7910156 5.1347656 L 9.4726562 5.1640625 L 9.6308594 5.3730469 L 9.6523438 5.5664062 L 9.4257812 5.5390625 L 9.1054688 5.6699219 L 9.0488281 6.1582031 L 9.1894531 6.1738281 L 9.3007812 6.3320312 L 9.609375 6.2226562 L 9.75 5.9394531 L 9.9824219 5.8320312 L 10.037109 5.7246094 L 10.392578 5.6796875 L 10.560547 5.921875 L 10.751953 6.0566406 L 10.605469 6.2871094 L 10.792969 6.2539062 L 10.919922 6.0234375 L 10.716797 5.7167969 L 10.8125 5.7285156 L 11.025391 5.9570312 L 11.037109 6.2265625 L 11.212891 6.4941406 L 11.308594 6.1484375 L 11.421875 6.1054688 C 11.522065 6.2414016 11.595458 6.3997369 11.675781 6.5488281 L 12.029297 6.6152344 L 12.21875 6.7734375 L 12.103516 6.9042969 L 11.878906 7.0664062 L 11.576172 7.0332031 L 11.193359 6.8496094 L 10.988281 6.8476562 L 10.814453 7.0078125 L 10.435547 6.5136719 L 10.146484 6.390625 L 9.6972656 6.3925781 L 9.296875 6.4550781 C 9.045621 6.6860171 8.7894214 6.9198296 8.5488281 7.1621094 L 8.2285156 7.75 L 8.3300781 7.8984375 L 8.078125 8.1914062 L 8.2480469 8.7851562 C 8.4181476 9.0377781 8.591923 9.2882651 8.7617188 9.5410156 L 9.0800781 9.3222656 L 9.1796875 9.4902344 L 9.5175781 9.3183594 L 9.6113281 9.453125 L 9.9238281 9.4902344 L 10.080078 9.7226562 L 9.9296875 10.085938 L 10.115234 10.365234 L 10.052734 10.808594 L 10.175781 11.148438 L 10.025391 11.410156 C 9.9905606 11.607042 9.9588469 11.793888 9.9355469 11.992188 C 9.9989299 12.272228 10.061271 12.552645 10.119141 12.833984 L 10.132812 13.273438 L 10.107422 13.494141 L 10.279297 13.515625 L 10.546875 13.378906 L 10.847656 13.414062 L 11.361328 12.949219 L 11.326172 12.765625 L 11.662109 12.525391 L 11.466797 12.244141 L 11.759766 12.054688 L 12.039062 11.919922 L 12.171875 11.800781 L 12.130859 11.494141 L 12.220703 10.742188 L 12.480469 10.302734 L 12.771484 10.044922 L 13.134766 9.3730469 L 13.15625 9.1835938 C 13.014896 9.1848737 12.879599 9.1859875 12.742188 9.1796875 L 13.056641 8.9238281 L 13.474609 8.7050781 L 13.708984 8.4863281 L 13.738281 8.2226562 C 13.702471 8.1272255 13.666989 8.0232004 13.630859 7.9277344 L 13.423828 8.1289062 L 13.302734 7.9453125 L 13.119141 7.7539062 L 13.15625 7.4121094 L 13.361328 7.7167969 L 13.634766 7.7167969 C 13.742833 7.844575 13.848143 7.957933 13.939453 8.0996094 L 14.134766 7.921875 C 14.159946 7.7075899 14.048981 6.6221092 13.646484 5.6660156 C 13.243959 4.7102174 12.449219 3.7832031 12.449219 3.7832031 L 12.371094 3.8964844 L 12.101562 4.1347656 L 11.837891 3.7753906 L 12.140625 3.8125 L 12.298828 3.6757812 L 11.751953 3.4980469 L 11.472656 3.3515625 z M 9.5429688 3.8027344 L 9.5214844 3.9804688 L 9.6074219 4.1035156 L 9.5742188 4.3691406 L 9.4785156 4.7167969 L 9.765625 4.6953125 L 9.9960938 4.5097656 L 9.8320312 4.3085938 C 9.7917712 4.1391412 9.7493194 3.9868741 9.6933594 3.8222656 L 9.5429688 3.8027344 z M 9.265625 4.1289062 L 9.0878906 4.1660156 L 9.0917969 4.4921875 L 9.3339844 4.3964844 L 9.265625 4.1289062 z M 12.076172 7.4179688 L 12.298828 7.7578125 L 12.53125 8.4785156 L 12.697266 8.7246094 L 12.574219 8.9472656 L 12.722656 9.1757812 C 12.643012 9.1716973 12.563632 9.1679531 12.482422 9.1582031 C 12.372315 8.821944 12.293903 8.4873687 12.220703 8.140625 L 12.054688 7.8964844 L 11.992188 7.4863281 L 12.076172 7.4179688 z "
     id="path4140" />
</svg>
