<?xml version="1.0" encoding="UTF-8" standalone="no"?>
<!-- Created with Inkscape (http://www.inkscape.org/) -->

<svg
   xmlns:dc="http://purl.org/dc/elements/1.1/"
   xmlns:cc="http://creativecommons.org/ns#"
   xmlns:rdf="http://www.w3.org/1999/02/22-rdf-syntax-ns#"
   xmlns:svg="http://www.w3.org/2000/svg"
   xmlns="http://www.w3.org/2000/svg"
   xmlns:xlink="http://www.w3.org/1999/xlink"
   xmlns:sodipodi="http://sodipodi.sourceforge.net/DTD/sodipodi-0.dtd"
   xmlns:inkscape="http://www.inkscape.org/namespaces/inkscape"
   version="1.0"
   width="64"
   height="64"
   id="svg4486"
   sodipodi:version="0.32"
   inkscape:version="0.91 r13725"
   sodipodi:docname="application-x-theme.svg"
   inkscape:output_extension="org.inkscape.output.svg.inkscape">
  <metadata
     id="metadata51">
    <rdf:RDF>
      <cc:Work
         rdf:about="">
        <dc:format>image/svg+xml</dc:format>
        <dc:type
           rdf:resource="http://purl.org/dc/dcmitype/StillImage" />
        <dc:title />
      </cc:Work>
    </rdf:RDF>
  </metadata>
  <sodipodi:namedview
     inkscape:window-height="852"
     inkscape:window-width="1440"
     inkscape:pageshadow="2"
     inkscape:pageopacity="0.0"
     guidetolerance="10.0"
     gridtolerance="10.0"
     objecttolerance="10.0"
     borderopacity="1.0"
     bordercolor="#666666"
     pagecolor="#ffffff"
     id="base"
     showgrid="false"
     inkscape:zoom="2.594458"
     inkscape:cx="0.88833892"
     inkscape:cy="33.959505"
     inkscape:window-x="0"
     inkscape:window-y="0"
     inkscape:current-layer="svg4486"
     inkscape:window-maximized="1"
     inkscape:object-nodes="true"
     inkscape:object-paths="true"
     inkscape:snap-intersection-paths="true"
     inkscape:snap-smooth-nodes="true"
     inkscape:snap-midpoints="true" />
  <defs
     id="defs4488">
    <linearGradient
       inkscape:collect="always"
       xlink:href="#linearGradient4132-8-0"
       id="linearGradient4138-6-8"
       x1="-29.694916"
       y1="44.701263"
       x2="-29.694916"
       y2="0.91525328"
       gradientUnits="userSpaceOnUse"
       gradientTransform="matrix(1.2147059,0,0,1.2806203,68.564712,2.9581424)" />
    <linearGradient
       inkscape:collect="always"
       id="linearGradient4132-8-0">
      <stop
         style="stop-color:#6fb6c6;stop-opacity:1"
         offset="0"
         id="stop4134-65-2" />
      <stop
         style="stop-color:#9dcdd8;stop-opacity:1"
         offset="1"
         id="stop4136-9-6" />
    </linearGradient>
    <linearGradient
       inkscape:collect="always"
       xlink:href="#linearGradient4132-8"
       id="linearGradient4138-6"
       x1="-29.694916"
       y1="44.701263"
       x2="-29.694916"
       y2="0.91525328"
       gradientUnits="userSpaceOnUse"
       gradientTransform="matrix(1.2147058,0,0,1.2806203,68.564708,2.9582375)" />
    <linearGradient
       inkscape:collect="always"
       id="linearGradient4132-8">
      <stop
         style="stop-color:#98c5da;stop-opacity:1"
         offset="0"
         id="stop4134-65" />
      <stop
         style="stop-color:#b4d5e4;stop-opacity:1"
         offset="1"
         id="stop4136-9" />
    </linearGradient>
  </defs>
  <rect
     style="fill:#408eb9;fill-opacity:1;stroke:none"
     id="rect4154-0-8"
     width="46"
     height="60"
     x="9"
     y="2" />
  <rect
     y="3"
     x="9.9999962"
     height="58"
     width="44"
     id="rect4150-2-6"
     style="fill:#ffffff;fill-opacity:1;stroke:none" />
  <rect
     style="fill:url(#linearGradient4138-6);fill-opacity:1;stroke:none"
     id="rect3362-9-7"
     width="42"
     height="56"
     x="10.999996"
     y="4" />
  <rect
     style="fill:url(#linearGradient4138-6-8);fill-opacity:1;stroke:none"
     id="rect3362-9"
     width="42"
     height="56"
     x="10.999996"
     y="4" />
  <rect
     style="fill:#ffffff;fill-opacity:1;stroke:none"
     id="rect8087"
     width="28"
     height="5"
     x="18"
     y="49" />
  <rect
     width="8"
     height="3"
     rx="0"
     ry="0"
     x="28"
     y="50"
     id="rect3790"
     style="display:inline;fill:#e13737;fill-opacity:1;stroke:none" />
  <rect
     width="8"
     height="3"
     rx="0"
     ry="0"
     x="19"
     y="-53"
     id="rect3818"
     style="display:inline;fill:#0b9ddb;fill-opacity:1;stroke:none"
     transform="scale(1,-1)" />
  <rect
     width="8"
     height="3"
     rx="0"
     ry="0"
     x="37"
     y="-53"
     id="rect3858"
     style="display:inline;fill:#36a300;fill-opacity:1;stroke:none"
     transform="scale(1,-1)" />
  <path
     inkscape:connector-curvature="0"
     d="m 25.721708,12.960463 c -0.964302,2.439906 -1.928604,4.879814 -2.892907,7.319721 1.932125,0 3.864248,0 5.796371,0 -0.967821,-2.439907 -1.935643,-4.879815 -2.903464,-7.319721 z M 24.51809,11 c 0.805931,0 1.611863,0 2.417792,0 2.002511,4.9028 4.005021,9.805602 6.007533,14.708404 -0.739063,0 -1.478127,0 -2.217188,0 -0.478633,-1.257719 -0.957265,-2.515437 -1.435897,-3.773156 -2.368522,0 -4.737045,0 -7.105567,0 -0.478633,1.257719 -0.957265,2.515437 -1.435897,3.773156 -0.749622,0 -1.499245,0 -2.248866,0 C 20.506031,20.805602 22.51206,15.9028 24.51809,11 Z m 16.006005,9.161964 c -1.238418,0.04797 -2.684346,-0.03445 -3.659686,0.797982 -1.004778,1.071318 -0.507035,3.115117 1.090695,3.409528 1.559891,0.412263 3.38179,-0.275143 4.037009,-1.695931 0.361284,-0.734001 0.600867,-1.806674 0.402142,-2.511579 -0.623386,0 -1.246772,0 -1.87016,0 z m 3.874804,-0.748718 c 0,2.098385 0,4.196771 0,6.295158 -0.647559,0 -1.295119,0 -1.942683,0 0,-0.558257 0,-1.116513 0,-1.674769 -0.80201,1.350209 -2.475629,2.028444 -4.085963,1.960465 -1.71172,0.09279 -3.533713,-0.915323 -3.855132,-2.562372 -0.408906,-1.587589 0.242011,-3.526344 1.978436,-4.1564 1.882742,-0.762001 3.969758,-0.473833 5.962659,-0.53199 0.135764,-1.177044 -0.695081,-2.348591 -1.942684,-2.625438 -1.757003,-0.408797 -3.659535,-0.06015 -5.236787,0.733937 -2e-6,-0.558257 -2e-6,-1.116513 -2e-6,-1.674771 2.181896,-0.768697 4.765052,-1.188884 6.936513,-0.181708 1.72057,0.835522 2.205394,2.754079 2.185646,4.417888 l -3e-6,0 z"
     id="text4036"
     style="font-style:normal;font-weight:normal;font-size:15.32311249px;font-family:'Bitstream Vera Sans';display:inline;fill:#ffffff;fill-opacity:1;stroke:none" />
  <rect
     y="32"
     x="17"
     height="1"
     width="30"
     id="rect4142-3"
     style="fill:#ffffff;fill-opacity:1;stroke:none" />
  <rect
     style="fill:#ffffff;fill-opacity:1;stroke:none"
     id="rect4144-3"
     width="30"
     height="1"
     x="17"
     y="37" />
  <rect
     y="42"
     x="17"
     height="1"
     width="30"
     id="rect8957"
     style="fill:#ffffff;fill-opacity:1;stroke:none" />
</svg>
