<?xml version="1.0" encoding="UTF-8" standalone="no"?>
<!-- Created with Inkscape (http://www.inkscape.org/) -->

<svg
   xmlns:dc="http://purl.org/dc/elements/1.1/"
   xmlns:cc="http://creativecommons.org/ns#"
   xmlns:rdf="http://www.w3.org/1999/02/22-rdf-syntax-ns#"
   xmlns:svg="http://www.w3.org/2000/svg"
   xmlns="http://www.w3.org/2000/svg"
   xmlns:xlink="http://www.w3.org/1999/xlink"
   xmlns:sodipodi="http://sodipodi.sourceforge.net/DTD/sodipodi-0.dtd"
   xmlns:inkscape="http://www.inkscape.org/namespaces/inkscape"
   version="1.0"
   width="64"
   height="64"
   id="svg3578"
   inkscape:version="0.91 r13725"
   sodipodi:docname="application-x-apple-diskimage.svg">
  <metadata
     id="metadata119201">
    <rdf:RDF>
      <cc:Work
         rdf:about="">
        <dc:format>image/svg+xml</dc:format>
        <dc:type
           rdf:resource="http://purl.org/dc/dcmitype/StillImage" />
        <dc:title />
      </cc:Work>
    </rdf:RDF>
  </metadata>
  <sodipodi:namedview
     pagecolor="#ffffff"
     bordercolor="#666666"
     borderopacity="1"
     objecttolerance="10"
     gridtolerance="10"
     guidetolerance="10"
     inkscape:pageopacity="0"
     inkscape:pageshadow="2"
     inkscape:window-width="1440"
     inkscape:window-height="853"
     id="namedview119199"
     showgrid="false"
     inkscape:zoom="2.828427"
     inkscape:cx="83.48016"
     inkscape:cy="-12.258729"
     inkscape:window-x="0"
     inkscape:window-y="0"
     inkscape:window-maximized="1"
     inkscape:current-layer="svg3578"
     inkscape:snap-center="true"
     inkscape:snap-object-midpoints="true"
     inkscape:object-nodes="true"
     inkscape:snap-intersection-paths="true"
     inkscape:object-paths="true"
     inkscape:snap-smooth-nodes="true" />
  <defs
     id="defs3580">
    <linearGradient
       inkscape:collect="always"
       id="linearGradient4667">
      <stop
         style="stop-color:#4da1cc;stop-opacity:1"
         offset="0"
         id="stop4669" />
      <stop
         style="stop-color:#76bce8;stop-opacity:1"
         offset="1"
         id="stop4671" />
    </linearGradient>
    <linearGradient
       inkscape:collect="always"
       xlink:href="#linearGradient4667"
       id="linearGradient16130-1-8-71-5"
       gradientUnits="userSpaceOnUse"
       gradientTransform="matrix(1.272549,0,0,1.0062016,70.305857,9.18141)"
       x1="-29.694916"
       y1="44.701263"
       x2="-29.694916"
       y2="0.91525328" />
  </defs>
  <rect
     style="fill:#4ea1cc;fill-opacity:1;stroke:none"
     id="rect4154-0-5-2-8-1"
     width="50"
     height="50"
     x="7"
     y="7"
     ry="3"
     rx="3" />
  <rect
     y="8"
     x="8"
     height="48"
     width="48"
     id="rect4150-2-6-8-8-2"
     style="fill:#ffffff;fill-opacity:1;stroke:none"
     ry="2.5"
     rx="2.5" />
  <rect
     style="fill:url(#linearGradient16130-1-8-71-5);fill-opacity:1.0;stroke:none"
     id="rect3362-9-2-0-41-0"
     width="44"
     height="44"
     x="10"
     y="10"
     ry="2"
     rx="2" />
  <path
     transform="matrix(-0.50863568,-0.5780342,-1.0605778,1.4852043,54.810508,15.781533)"
     d="M 17.324116,13.199262 14.515612,10.390758 17.324116,7.5822535 20.13262,10.390757 Z"
     inkscape:randomized="0"
     inkscape:rounded="0"
     inkscape:flatsided="true"
     sodipodi:arg2="2.3561945"
     sodipodi:arg1="1.5707963"
     sodipodi:r2="1.9859123"
     sodipodi:r1="2.8085041"
     sodipodi:cy="10.390758"
     sodipodi:cx="17.324116"
     sodipodi:sides="4"
     id="path4509-3"
     style="opacity:1;fill:#ffffff;fill-opacity:1;stroke:none;stroke-width:2.25;stroke-linecap:round;stroke-miterlimit:4;stroke-dasharray:none;stroke-opacity:1"
     sodipodi:type="star" />
  <path
     style="opacity:1;fill:#ffffff;fill-opacity:1;stroke:none;stroke-width:2.25;stroke-linecap:round;stroke-miterlimit:4;stroke-dasharray:none;stroke-opacity:1"
     d="M 28.149911,25.371201 A 12.446695,11.264782 0 0 0 20,35.934685 a 12.446695,11.264782 0 0 0 9.979235,11.028266 6.2233477,5.6323912 0 0 1 2.46746,-0.467532 6.2233477,5.6323912 0 0 1 2.49177,0.475783 A 12.446695,11.264782 0 0 0 44,40.106725 6.2233477,5.6323912 0 0 1 38.569765,34.526589 6.2233477,5.6323912 0 0 1 42.47759,29.301225 12.446695,11.264782 0 0 0 36.74348,25.376701 12.446695,11.264782 0 0 1 32.446695,26.077999 12.446695,11.264782 0 0 1 28.149911,25.371201 Z"
     id="path4511-6"
     inkscape:connector-curvature="0" />
  <path
     sodipodi:type="star"
     style="opacity:1;fill:#ffffff;fill-opacity:1;stroke:none;stroke-width:2.25;stroke-linecap:round;stroke-miterlimit:4;stroke-dasharray:none;stroke-opacity:1"
     id="path4524-7"
     sodipodi:sides="4"
     sodipodi:cx="17.324116"
     sodipodi:cy="10.390758"
     sodipodi:r1="2.8085041"
     sodipodi:r2="1.9859123"
     sodipodi:arg1="1.5707963"
     sodipodi:arg2="2.3561945"
     inkscape:flatsided="true"
     inkscape:rounded="0"
     inkscape:randomized="0"
     d="M 17.324116,13.199262 14.515612,10.390758 17.324116,7.5822535 20.13262,10.390757 Z"
     transform="matrix(0.50863568,-0.5780342,1.0605778,1.4852043,9.1894917,15.781533)" />
  <path
     style="opacity:1;fill:#54a6d1;fill-opacity:1;stroke:none;stroke-width:2.25;stroke-linecap:round;stroke-miterlimit:4;stroke-dasharray:none;stroke-opacity:1"
     d="m 31.969531,45.443077 c -2.0132,0 -3.744735,0.622444 -4.642968,1.528125 l 9.283593,0 C 35.711749,46.065841 33.9823,45.443077 31.969531,45.443077 Z"
     id="path4526-5"
     inkscape:connector-curvature="0" />
</svg>
