<?xml version="1.0" encoding="UTF-8" standalone="no"?>
<!-- Created with Inkscape (http://www.inkscape.org/) -->

<svg
   xmlns:dc="http://purl.org/dc/elements/1.1/"
   xmlns:cc="http://creativecommons.org/ns#"
   xmlns:rdf="http://www.w3.org/1999/02/22-rdf-syntax-ns#"
   xmlns:svg="http://www.w3.org/2000/svg"
   xmlns="http://www.w3.org/2000/svg"
   xmlns:xlink="http://www.w3.org/1999/xlink"
   xmlns:sodipodi="http://sodipodi.sourceforge.net/DTD/sodipodi-0.dtd"
   xmlns:inkscape="http://www.inkscape.org/namespaces/inkscape"
   version="1.0"
   width="64"
   height="64"
   id="svg2453"
   inkscape:version="0.91 r13725"
   sodipodi:docname="application-x-java-archive.svg">
  <metadata
     id="metadata298222">
    <rdf:RDF>
      <cc:Work
         rdf:about="">
        <dc:format>image/svg+xml</dc:format>
        <dc:type
           rdf:resource="http://purl.org/dc/dcmitype/StillImage" />
        <dc:title />
      </cc:Work>
    </rdf:RDF>
  </metadata>
  <sodipodi:namedview
     pagecolor="#ffffff"
     bordercolor="#666666"
     borderopacity="1"
     objecttolerance="10"
     gridtolerance="10"
     guidetolerance="10"
     inkscape:pageopacity="0"
     inkscape:pageshadow="2"
     inkscape:window-width="1440"
     inkscape:window-height="852"
     id="namedview298220"
     showgrid="false"
     inkscape:zoom="3.9999998"
     inkscape:cx="32.978636"
     inkscape:cy="18.779657"
     inkscape:window-x="0"
     inkscape:window-y="0"
     inkscape:window-maximized="1"
     inkscape:current-layer="svg2453"
     inkscape:snap-smooth-nodes="true"
     inkscape:snap-intersection-paths="true"
     inkscape:object-nodes="true" />
  <defs
     id="defs2455">
    <linearGradient
       id="linearGradient4110">
      <stop
         style="stop-color:#efc65b;stop-opacity:1"
         offset="0"
         id="stop4112" />
      <stop
         style="stop-color:#fbd277;stop-opacity:1"
         offset="1"
         id="stop4114" />
    </linearGradient>
    <linearGradient
       inkscape:collect="always"
       xlink:href="#linearGradient4110"
       id="linearGradient4108"
       gradientUnits="userSpaceOnUse"
       gradientTransform="matrix(1.6220276,0,0,0.90601196,-7.91764,21.023807)"
       x1="33.138153"
       y1="31.029055"
       x2="33.138153"
       y2="9.4101439" />
  </defs>
  <path
     style="fill:url(#linearGradient4108);fill-opacity:1"
     d="m 8,16 -3.999888,5 0,39 55.999774,0 0,-39 -4,-5 z"
     id="path4191"
     inkscape:connector-curvature="0"
     sodipodi:nodetypes="ccccccc" />
  <path
     style="fill:#ffffff;fill-opacity:1;stroke:none"
     d="m 29,16 6,0 1,5 0,9 -8,0 0,-9 z"
     id="rect14394"
     inkscape:connector-curvature="0"
     sodipodi:nodetypes="ccccccc" />
  <path
     style="fill:#ffffff;fill-opacity:1;stroke:none"
     d="m 4,21 55.999996,0 0,2 L 4,23 Z"
     id="rect14396"
     inkscape:connector-curvature="0"
     sodipodi:nodetypes="ccccc" />
  <rect
     style="fill:#ffffff;fill-opacity:1;stroke:none"
     id="rect3124"
     width="48"
     height="23"
     x="8"
     y="33" />
  <path
     inkscape:connector-curvature="0"
     d="m 23.383841,40.97301 c -0.0078,2.938886 0.01607,5.8783 -0.01267,8.816837 0.246126,0.918498 -1.083309,0.644146 -0.867345,1.397219 0,0.536648 0,1.073297 0,1.609944 1.451725,0.06936 2.818126,-1.076761 2.937877,-2.540069 0.12576,-3.090721 0.07012,-6.189811 0.07012,-9.283931 -0.709331,0 -1.418665,0 -2.127998,0 z m 0,-0.960001 c 0.709334,0 1.418666,0 2.127999,0 0,-0.666667 0,-1.333333 0,-2 -0.709333,0 -1.418665,0 -2.127999,0 0,0.666667 0,1.333333 0,2 z M 36.22809,40.97301 c -0.650666,0 -1.301333,0 -1.951998,0 0,0.394667 0,0.789334 0,1.184001 -0.781751,-1.164923 -2.28276,-1.569646 -3.613644,-1.341128 -1.917146,0.221096 -3.48781,1.864227 -3.728107,3.761902 -0.352438,1.955519 0.535246,4.189221 2.407238,5.034497 1.541682,0.724985 3.610277,0.600059 4.775414,-0.753797 0.296494,-0.396616 0.104707,0.458915 0.159099,0.684187 -0.138288,0.455021 0.381399,0.252066 0.655862,0.294336 0.432045,0 0.864089,0 1.296136,0 0,-2.954666 0,-5.909333 0,-8.863998 z m -4.623998,1.743998 c 1.360042,-0.0651 2.549158,1.113013 2.595409,2.454787 0.139741,1.259354 -0.636156,2.691212 -1.97741,2.868213 -1.27435,0.287856 -2.779242,-0.407914 -3.100839,-1.738004 -0.419545,-1.39226 0.300764,-3.167767 1.805534,-3.503244 0.221148,-0.05567 0.449373,-0.0818 0.677306,-0.08175 l 0,-1e-6 z m 6.2105,7.12 c 0.709333,0 1.418666,0 2.127998,0 0.01707,-1.80363 -0.03568,-3.610148 0.02932,-5.411811 0.03427,-0.970289 0.935188,-1.671156 1.874688,-1.612188 0,-0.682668 0,-1.365335 0,-2.048002 -0.843956,-0.09747 -1.670058,0.325171 -2.080001,1.072002 -0.03723,-0.267595 0.07228,-0.68191 -0.05045,-0.863999 -0.633849,0 -1.267699,0 -1.901548,0 0,2.954665 0,5.909332 0,8.864 z"
     id="text2427"
     style="font-style:normal;font-variant:normal;font-weight:bold;font-stretch:normal;font-size:12px;line-height:125%;font-family:'URW Gothic L';-inkscape-font-specification:'URW Gothic L Book';text-align:start;writing-mode:lr-tb;text-anchor:start;fill:#eba805;fill-opacity:1;stroke:none" />
</svg>
