<?xml version="1.0" encoding="UTF-8" standalone="no"?>
<!-- Created with Inkscape (http://www.inkscape.org/) -->

<svg
   xmlns:dc="http://purl.org/dc/elements/1.1/"
   xmlns:cc="http://creativecommons.org/ns#"
   xmlns:rdf="http://www.w3.org/1999/02/22-rdf-syntax-ns#"
   xmlns:svg="http://www.w3.org/2000/svg"
   xmlns="http://www.w3.org/2000/svg"
   xmlns:xlink="http://www.w3.org/1999/xlink"
   xmlns:sodipodi="http://sodipodi.sourceforge.net/DTD/sodipodi-0.dtd"
   xmlns:inkscape="http://www.inkscape.org/namespaces/inkscape"
   version="1.0"
   width="64"
   height="64"
   id="svg2453"
   inkscape:version="0.91 r13725"
   sodipodi:docname="application-zip.svg">
  <metadata
     id="metadata298222">
    <rdf:RDF>
      <cc:Work
         rdf:about="">
        <dc:format>image/svg+xml</dc:format>
        <dc:type
           rdf:resource="http://purl.org/dc/dcmitype/StillImage" />
        <dc:title />
      </cc:Work>
    </rdf:RDF>
  </metadata>
  <sodipodi:namedview
     pagecolor="#ffffff"
     bordercolor="#666666"
     borderopacity="1"
     objecttolerance="10"
     gridtolerance="10"
     guidetolerance="10"
     inkscape:pageopacity="0"
     inkscape:pageshadow="2"
     inkscape:window-width="1440"
     inkscape:window-height="852"
     id="namedview298220"
     showgrid="false"
     inkscape:zoom="3.9999998"
     inkscape:cx="49.819996"
     inkscape:cy="20.317346"
     inkscape:window-x="0"
     inkscape:window-y="0"
     inkscape:window-maximized="1"
     inkscape:current-layer="svg2453"
     inkscape:snap-smooth-nodes="true"
     inkscape:snap-intersection-paths="true"
     inkscape:object-nodes="true" />
  <defs
     id="defs2455">
    <linearGradient
       id="linearGradient4110">
      <stop
         style="stop-color:#efc65b;stop-opacity:1"
         offset="0"
         id="stop4112" />
      <stop
         style="stop-color:#fbd277;stop-opacity:1"
         offset="1"
         id="stop4114" />
    </linearGradient>
    <linearGradient
       inkscape:collect="always"
       xlink:href="#linearGradient4110"
       id="linearGradient4108"
       gradientUnits="userSpaceOnUse"
       gradientTransform="matrix(1.6220276,0,0,0.90601196,-7.91764,21.023808)"
       x1="33.138153"
       y1="31.029055"
       x2="33.138153"
       y2="9.4101439" />
  </defs>
  <path
     style="fill:url(#linearGradient4108);fill-opacity:1"
     d="m 8,16.000001 -3.999888,5 0,38.999999 55.999774,0 0,-38.999999 -4,-5 z"
     id="path4191"
     inkscape:connector-curvature="0"
     sodipodi:nodetypes="ccccccc" />
  <path
     style="fill:#ffffff;fill-opacity:1;stroke:none"
     d="m 29,16.000001 6,0 1,5 0,9 -8,0 0,-9 z"
     id="rect14394"
     inkscape:connector-curvature="0"
     sodipodi:nodetypes="ccccccc" />
  <path
     style="fill:#ffffff;fill-opacity:1;stroke:none"
     d="m 4,21.000001 55.999996,0 0,2 -55.999996,0 z"
     id="rect14396"
     inkscape:connector-curvature="0"
     sodipodi:nodetypes="ccccc" />
  <rect
     style="fill:#ffffff;fill-opacity:1;stroke:none"
     id="rect3124"
     width="48"
     height="23"
     x="8"
     y="33" />
  <path
     inkscape:connector-curvature="0"
     style="font-style:normal;font-variant:normal;font-weight:bold;font-stretch:normal;font-size:12px;line-height:100%;font-family:'URW Gothic L';-inkscape-font-specification:'URW Gothic L Semi-Bold';text-align:start;writing-mode:lr-tb;text-anchor:start;display:inline;fill:#e6b849;fill-opacity:1;stroke:none"
     d="m 20.862,50.04 6.751845,0 0,-1.904003 -4.208001,0 3.904,-5.056 0,-1.903996 -6.447844,0 0,1.903996 3.903845,0 -3.903845,5.056 z m 8.771391,0 2.128,0 0,-8.863999 -2.128,0 z m 0,-9.824 2.128,0 0,-2 -2.128,0 z m 4.220609,12.784001 2.127998,0 0,-3.792002 c 1.943579,1.88377 5.549999,1.086052 6.639695,-1.357312 1.109636,-2.206828 0.416333,-5.362567 -1.936387,-6.449962 -1.573758,-0.749344 -3.704232,-0.563965 -4.879308,0.815275 -0.03899,-0.327109 0.07795,-0.810143 -0.05829,-1.039999 l -1.893711,0 z m 4.591998,-10.080002 c 1.597852,-0.05827 2.798675,1.604126 2.515551,3.117456 -0.136632,1.483281 -1.712045,2.614205 -3.157617,2.177037 -1.766063,-0.380053 -2.493787,-2.698261 -1.517932,-4.135899 0.458772,-0.727868 1.302617,-1.169662 2.159998,-1.158594 z"
     id="text3329-0"
     sodipodi:nodetypes="ccccccccccccccccccccccccccccccccccc" />
</svg>
