<?xml version="1.0" encoding="UTF-8" standalone="no"?>
<!-- Created with Inkscape (http://www.inkscape.org/) -->

<svg
   xmlns:dc="http://purl.org/dc/elements/1.1/"
   xmlns:cc="http://creativecommons.org/ns#"
   xmlns:rdf="http://www.w3.org/1999/02/22-rdf-syntax-ns#"
   xmlns:svg="http://www.w3.org/2000/svg"
   xmlns="http://www.w3.org/2000/svg"
   xmlns:xlink="http://www.w3.org/1999/xlink"
   xmlns:sodipodi="http://sodipodi.sourceforge.net/DTD/sodipodi-0.dtd"
   xmlns:inkscape="http://www.inkscape.org/namespaces/inkscape"
   width="64"
   height="64"
   viewBox="0 0 63.999999 63.999999"
   id="svg9170"
   version="1.1"
   inkscape:version="0.91 r13725"
   sodipodi:docname="application-msword.svg">
  <defs
     id="defs9172">
    <linearGradient
       inkscape:collect="always"
       xlink:href="#linearGradient4132"
       id="linearGradient4138"
       x1="-29.694916"
       y1="44.701263"
       x2="-29.694916"
       y2="0.91525328"
       gradientUnits="userSpaceOnUse"
       gradientTransform="matrix(1.2147059,0,0,1.2806203,68.564714,991.32033)" />
    <linearGradient
       inkscape:collect="always"
       id="linearGradient4132">
      <stop
         style="stop-color:#6fb6c6;stop-opacity:1"
         offset="0"
         id="stop4134" />
      <stop
         style="stop-color:#9dcdd8;stop-opacity:1"
         offset="1"
         id="stop4136" />
    </linearGradient>
  </defs>
  <sodipodi:namedview
     id="base"
     pagecolor="#ffffff"
     bordercolor="#666666"
     borderopacity="1.0"
     inkscape:pageopacity="0.0"
     inkscape:pageshadow="2"
     inkscape:zoom="2.8284271"
     inkscape:cx="-34.227765"
     inkscape:cy="69.668938"
     inkscape:document-units="px"
     inkscape:current-layer="layer1"
     showgrid="false"
     units="px"
     inkscape:window-width="1440"
     inkscape:window-height="852"
     inkscape:window-x="0"
     inkscape:window-y="0"
     inkscape:window-maximized="1"
     inkscape:snap-object-midpoints="true"
     inkscape:snap-smooth-nodes="true"
     inkscape:object-nodes="true"
     inkscape:object-paths="true" />
  <metadata
     id="metadata9175">
    <rdf:RDF>
      <cc:Work
         rdf:about="">
        <dc:format>image/svg+xml</dc:format>
        <dc:type
           rdf:resource="http://purl.org/dc/dcmitype/StillImage" />
        <dc:title />
      </cc:Work>
    </rdf:RDF>
  </metadata>
  <g
     inkscape:label="Layer 1"
     inkscape:groupmode="layer"
     id="layer1"
     transform="translate(0,-988.3622)">
    <rect
       style="fill:#408eb9;fill-opacity:1;stroke:none"
       id="rect4154-0"
       width="46"
       height="60"
       x="9"
       y="990.36218" />
    <rect
       y="991.36218"
       x="10"
       height="58"
       width="44"
       id="rect4150-2"
       style="fill:#ffffff;fill-opacity:1;stroke:none" />
    <rect
       style="fill:url(#linearGradient4138);fill-opacity:1;stroke:none"
       id="rect3362"
       width="42"
       height="56"
       x="11"
       y="992.36218" />
    <path
       inkscape:connector-curvature="0"
       d="m 43.290825,1042.3622 c -1.236381,0 -2.472778,0 -3.70916,0 -0.681386,-2.8896 -1.413935,-5.767 -2.060074,-8.6648 -0.206309,-0.9126 -0.423543,-2.4742 -0.544643,-3.0369 -0.394587,3.1271 -1.252662,6.1554 -1.955443,9.2157 -0.197544,0.8285 -0.395088,1.6573 -0.592632,2.486 -1.2399,0 -2.479805,0 -3.719706,0 -1.236389,-5.3333 -2.472778,-10.6666 -3.709167,-15.9998 1.071302,0 2.142605,0 3.213907,0 0.859103,4.3947 1.830322,8.7676 2.507904,13.1982 0.287313,-2.0923 0.649007,-4.1736 1.178598,-6.2154 0.555501,-2.3277 1.111003,-4.6553 1.666503,-6.9828 0.955392,0 1.91078,0 2.866168,0 0.729404,3.0869 1.486676,6.1673 2.198362,9.2583 0.253297,1.3069 0.454458,2.6238 0.657278,3.9399 0.639175,-4.3565 1.613438,-8.6487 2.450987,-12.9666 -0.01759,-0.4196 0.496125,-0.1608 0.751538,-0.2316 0.836247,0 1.672494,0 2.508755,0 -1.236396,5.3332 -2.472778,10.6665 -3.709175,15.9998 z"
       id="text2612-1"
       style="font-style:normal;font-variant:normal;font-weight:bold;font-stretch:normal;font-size:30.51395607px;font-family:'Droid Sans';-inkscape-font-specification:'Droid Sans Bold';fill:#ffffff;fill-opacity:1;stroke:none" />
    <rect
       y="1026.3622"
       x="-28"
       height="3"
       width="6"
       id="rect4146"
       style="fill:#ffffff;fill-opacity:1;stroke:none"
       transform="scale(-1,1)" />
    <rect
       style="fill:#ffffff;fill-opacity:1;stroke:none"
       id="rect4140-7"
       width="30"
       height="2"
       x="17"
       y="1001.3622" />
    <rect
       y="1008.3622"
       x="17"
       height="2"
       width="30"
       id="rect4142-3"
       style="fill:#ffffff;fill-opacity:1;stroke:none" />
    <rect
       style="fill:#ffffff;fill-opacity:1;stroke:none"
       id="rect4924"
       width="30"
       height="2"
       x="17"
       y="1015.3622" />
  </g>
</svg>
