<?xml version="1.0" encoding="UTF-8" standalone="no"?>
<!-- Created with Inkscape (http://www.inkscape.org/) -->

<svg
   xmlns:dc="http://purl.org/dc/elements/1.1/"
   xmlns:cc="http://creativecommons.org/ns#"
   xmlns:rdf="http://www.w3.org/1999/02/22-rdf-syntax-ns#"
   xmlns:svg="http://www.w3.org/2000/svg"
   xmlns="http://www.w3.org/2000/svg"
   xmlns:xlink="http://www.w3.org/1999/xlink"
   xmlns:sodipodi="http://sodipodi.sourceforge.net/DTD/sodipodi-0.dtd"
   xmlns:inkscape="http://www.inkscape.org/namespaces/inkscape"
   version="1.0"
   width="64"
   height="64"
   id="svg2453"
   inkscape:version="0.91 r13725"
   sodipodi:docname="application-x-7z-compressed.svg">
  <metadata
     id="metadata298222">
    <rdf:RDF>
      <cc:Work
         rdf:about="">
        <dc:format>image/svg+xml</dc:format>
        <dc:type
           rdf:resource="http://purl.org/dc/dcmitype/StillImage" />
        <dc:title />
      </cc:Work>
    </rdf:RDF>
  </metadata>
  <sodipodi:namedview
     pagecolor="#ffffff"
     bordercolor="#666666"
     borderopacity="1"
     objecttolerance="10"
     gridtolerance="10"
     guidetolerance="10"
     inkscape:pageopacity="0"
     inkscape:pageshadow="2"
     inkscape:window-width="1440"
     inkscape:window-height="852"
     id="namedview298220"
     showgrid="false"
     inkscape:zoom="3.9999998"
     inkscape:cx="-3.2669017"
     inkscape:cy="1.4257327"
     inkscape:window-x="0"
     inkscape:window-y="0"
     inkscape:window-maximized="1"
     inkscape:current-layer="svg2453"
     inkscape:snap-smooth-nodes="true"
     inkscape:snap-intersection-paths="true"
     inkscape:object-nodes="true" />
  <defs
     id="defs2455">
    <linearGradient
       id="linearGradient4110">
      <stop
         style="stop-color:#efc65b;stop-opacity:1"
         offset="0"
         id="stop4112" />
      <stop
         style="stop-color:#fbd277;stop-opacity:1"
         offset="1"
         id="stop4114" />
    </linearGradient>
    <linearGradient
       inkscape:collect="always"
       xlink:href="#linearGradient4110"
       id="linearGradient4108"
       gradientUnits="userSpaceOnUse"
       gradientTransform="matrix(1.6220276,0,0,0.90601196,-7.91764,21.023808)"
       x1="33.138153"
       y1="31.029055"
       x2="33.138153"
       y2="9.4101439" />
  </defs>
  <path
     style="fill:url(#linearGradient4108);fill-opacity:1"
     d="m 8,16.000001 -3.999888,5 0,38.999999 55.999776,0 0,-38.999999 -4,-5 z"
     id="path4191"
     inkscape:connector-curvature="0"
     sodipodi:nodetypes="ccccccc" />
  <path
     style="fill:#ffffff;fill-opacity:1;stroke:none"
     d="m 29,16.000001 6,0 1,5 0,9 -8,0 0,-9 z"
     id="rect14394"
     inkscape:connector-curvature="0"
     sodipodi:nodetypes="ccccccc" />
  <path
     style="fill:#ffffff;fill-opacity:1;stroke:none"
     d="m 4,21.000001 56,0 0,2 -56,0 z"
     id="rect14396"
     inkscape:connector-curvature="0"
     sodipodi:nodetypes="ccccc" />
  <rect
     style="fill:#ffffff;fill-opacity:1;stroke:none"
     id="rect3124"
     width="48"
     height="23"
     x="8.000001"
     y="33" />
  <path
     inkscape:connector-curvature="0"
     id="text3329"
     style="fill:#e6b849;fill-opacity:1"
     d="m 17.589507,50.040001 2.4,0 4.32,-9.824 0,-2 -6.96,0 0,2 4.72,0 z m 8.0088,0 6.752,0 0,-1.904 -4.208,0 3.904,-5.056 0,-1.904 -6,0 0,1.904 3.456,0 -3.904,5.056 z m 7.918933,0 2.128,0 0,-8.864 -2.128,0 z m 0,-9.824 2.128,0 0,-2 -2.128,0 z m 3.843733,12.384 2.128,0 0,-3.392 c 2.0036,1.946133 5.745467,1.022053 6.734134,-1.5596 1.059,-2.316134 0.11344,-5.5628 -2.4312,-6.415067 -1.5076,-0.54148 -3.4052,-0.28492 -4.478934,0.98264 -0.109586,-0.333907 0.268214,-1.1552 -0.29048,-1.04 l -1.661466,0 z m 4.592,-9.68 c 1.9712,-0.07561 3.1572,2.3556 2.244934,3.990133 -0.761307,1.740933 -3.457867,1.8376 -4.403334,0.219427 -1.12792,-1.682534 0.01948,-4.281734 2.158267,-4.2096 l -1e-6,-2e-6 z"
     sodipodi:nodetypes="cccccccccccccccccccccccccccccccccccccccccccc" />
</svg>
