<?xml version="1.0" encoding="UTF-8" standalone="no"?>
<!-- Created with Inkscape (http://www.inkscape.org/) -->

<svg
   xmlns:dc="http://purl.org/dc/elements/1.1/"
   xmlns:cc="http://creativecommons.org/ns#"
   xmlns:rdf="http://www.w3.org/1999/02/22-rdf-syntax-ns#"
   xmlns:svg="http://www.w3.org/2000/svg"
   xmlns="http://www.w3.org/2000/svg"
   xmlns:xlink="http://www.w3.org/1999/xlink"
   xmlns:sodipodi="http://sodipodi.sourceforge.net/DTD/sodipodi-0.dtd"
   xmlns:inkscape="http://www.inkscape.org/namespaces/inkscape"
   width="64"
   height="64"
   viewBox="0 0 63.999999 63.999999"
   id="svg9170"
   version="1.1"
   inkscape:version="0.91 r13725"
   sodipodi:docname="text-x-python.svg">
  <defs
     id="defs9172">
    <linearGradient
       inkscape:collect="always"
       xlink:href="#linearGradient4132-8"
       id="linearGradient4138-6"
       x1="-29.694916"
       y1="44.701263"
       x2="-29.694916"
       y2="0.91525328"
       gradientUnits="userSpaceOnUse"
       gradientTransform="matrix(1.2147058,0,0,1.2806203,68.56471,991.32042)" />
    <linearGradient
       inkscape:collect="always"
       id="linearGradient4132-8">
      <stop
         style="stop-color:#98c5da;stop-opacity:1"
         offset="0"
         id="stop4134-65" />
      <stop
         style="stop-color:#b4d5e4;stop-opacity:1"
         offset="1"
         id="stop4136-9" />
    </linearGradient>
  </defs>
  <sodipodi:namedview
     id="base"
     pagecolor="#ffffff"
     bordercolor="#666666"
     borderopacity="1.0"
     inkscape:pageopacity="0.0"
     inkscape:pageshadow="2"
     inkscape:zoom="5.6568544"
     inkscape:cx="36.126469"
     inkscape:cy="35.79046"
     inkscape:document-units="px"
     inkscape:current-layer="layer1"
     showgrid="false"
     units="px"
     inkscape:window-width="1440"
     inkscape:window-height="852"
     inkscape:window-x="0"
     inkscape:window-y="0"
     inkscape:window-maximized="1"
     inkscape:snap-object-midpoints="true"
     inkscape:snap-smooth-nodes="true"
     inkscape:object-nodes="true"
     inkscape:object-paths="true" />
  <metadata
     id="metadata9175">
    <rdf:RDF>
      <cc:Work
         rdf:about="">
        <dc:format>image/svg+xml</dc:format>
        <dc:type
           rdf:resource="http://purl.org/dc/dcmitype/StillImage" />
        <dc:title />
      </cc:Work>
    </rdf:RDF>
  </metadata>
  <g
     inkscape:label="Layer 1"
     inkscape:groupmode="layer"
     id="layer1"
     transform="translate(0,-988.3622)">
    <rect
       style="fill:#63a5c9;fill-opacity:1;stroke:none"
       id="rect4154-0"
       width="46"
       height="60"
       x="9"
       y="990.36218" />
    <rect
       y="991.36218"
       x="10"
       height="58"
       width="44"
       id="rect4150-2"
       style="fill:#ffffff;fill-opacity:1;stroke:none" />
    <rect
       style="fill:url(#linearGradient4138-6);fill-opacity:1;stroke:none"
       id="rect3362-9"
       width="42"
       height="56"
       x="11"
       y="992.36218" />
    <rect
       style="fill:#fff1b4;fill-opacity:1;stroke:none"
       id="rect4140-7"
       width="30"
       height="2"
       x="17"
       y="1005.3622" />
    <rect
       y="1012.3622"
       x="17"
       height="2"
       width="30"
       id="rect4142-3"
       style="fill:#fff1b4;fill-opacity:1;stroke:none" />
    <path
       inkscape:connector-curvature="0"
       d="m 29.222775,1037.9813 0,2.3809 -2.344971,0 q -2.355777,0 -3.436407,-0.9313 -1.08063,-0.9311 -1.08063,-2.9736 l 0,-2.0317 q 0,-1.5872 -0.583544,-2.201 -0.583541,-0.6245 -2.118036,-0.6245 l -0.659187,0 0,-2.3597 0.659187,0 q 1.534495,0 2.118036,-0.6136 0.583544,-0.6138 0.583544,-2.2012 l 0,-2.1693 q 0,-2.0424 1.08063,-2.963 1.080633,-0.9311 3.436407,-0.9311 l 2.344971,0 0,2.3809 -0.745636,0 q -1.523692,0 -1.988362,0.4657 -0.453866,0.455 -0.453866,1.9575 l 0,1.7568 q 0,1.6612 -0.486283,2.4127 -0.486284,0.7513 -1.67498,1.0158 1.199502,0.2857 1.67498,1.037 0.486283,0.7513 0.486283,2.4022 l 0,1.7566 q 0,1.5132 0.453866,1.9682 0.46467,0.4657 1.988362,0.4657 l 0.745636,0 z"
       style="font-style:normal;font-variant:normal;font-weight:bold;font-stretch:normal;font-size:15.24584579px;line-height:125%;font-family:sans-serif;-inkscape-font-specification:'sans-serif Bold';letter-spacing:0px;word-spacing:0px;fill:#fff1b4;fill-opacity:1;stroke:none;stroke-width:1px;stroke-linecap:butt;stroke-linejoin:miter;stroke-opacity:1"
       id="path11242" />
    <path
       inkscape:connector-curvature="0"
       d="m 34.777223,1037.9813 0.756443,0 q 1.512883,0 1.966749,-0.4657 0.464669,-0.455 0.464669,-1.9682 l 0,-1.7566 q 0,-1.6509 0.486285,-2.4022 0.486285,-0.7513 1.685786,-1.037 -1.199501,-0.2645 -1.685786,-1.0158 -0.486285,-0.7515 -0.486285,-2.4127 l 0,-1.7568 q 0,-1.5025 -0.464669,-1.9575 -0.453866,-0.4657 -1.966749,-0.4657 l -0.756443,0 0,-2.3809 2.344971,0 q 2.355777,0 3.436408,0.9311 1.080634,0.9206 1.080634,2.963 l 0,2.1693 q 0,1.5874 0.583541,2.2012 0.583541,0.6136 2.118038,0.6136 l 0.659185,0 0,2.3597 -0.659185,0 q -1.534498,0 -2.118038,0.6245 -0.583541,0.6138 -0.583541,2.201 l 0,2.0317 q 0,2.0425 -1.080634,2.9736 -1.080631,0.9313 -3.436408,0.9313 l -2.344971,0 0,-2.3809 z"
       style="font-style:normal;font-variant:normal;font-weight:bold;font-stretch:normal;font-size:15.24584579px;line-height:125%;font-family:sans-serif;-inkscape-font-specification:'sans-serif Bold';letter-spacing:0px;word-spacing:0px;fill:#fff1b4;fill-opacity:1;stroke:none;stroke-width:1px;stroke-linecap:butt;stroke-linejoin:miter;stroke-opacity:1"
       id="path11244" />
  </g>
</svg>
