<?xml version="1.0" encoding="UTF-8" standalone="no"?>
<!-- Created with Inkscape (http://www.inkscape.org/) -->

<svg
   xmlns:dc="http://purl.org/dc/elements/1.1/"
   xmlns:cc="http://creativecommons.org/ns#"
   xmlns:rdf="http://www.w3.org/1999/02/22-rdf-syntax-ns#"
   xmlns:svg="http://www.w3.org/2000/svg"
   xmlns="http://www.w3.org/2000/svg"
   xmlns:xlink="http://www.w3.org/1999/xlink"
   xmlns:sodipodi="http://sodipodi.sourceforge.net/DTD/sodipodi-0.dtd"
   xmlns:inkscape="http://www.inkscape.org/namespaces/inkscape"
   width="64"
   height="64"
   viewBox="0 0 63.999999 63.999999"
   id="svg9170"
   version="1.1"
   inkscape:version="0.91 r13725"
   sodipodi:docname="text-html.svg">
  <defs
     id="defs9172">
    <linearGradient
       inkscape:collect="always"
       id="linearGradient4132-8">
      <stop
         style="stop-color:#98c5da;stop-opacity:1"
         offset="0"
         id="stop4134-65" />
      <stop
         style="stop-color:#b4d5e4;stop-opacity:1"
         offset="1"
         id="stop4136-9" />
    </linearGradient>
    <linearGradient
       inkscape:collect="always"
       xlink:href="#linearGradient4132-8"
       id="linearGradient4138-6-1"
       x1="-29.694916"
       y1="44.701263"
       x2="-29.694916"
       y2="0.91525328"
       gradientUnits="userSpaceOnUse"
       gradientTransform="matrix(1.2147059,0,0,1.2806203,68.564711,991.32033)" />
    <linearGradient
       inkscape:collect="always"
       xlink:href="#linearGradient4873-3"
       id="linearGradient3778-1"
       gradientUnits="userSpaceOnUse"
       gradientTransform="matrix(0.64872335,0.07701492,-0.07701316,0.64870856,17.990267,1003.1725)"
       x1="20"
       y1="43"
       x2="20"
       y2="2.6887112" />
    <linearGradient
       id="linearGradient4873-3">
      <stop
         id="stop4875-3"
         style="stop-color:#ffffff;stop-opacity:1"
         offset="0" />
      <stop
         id="stop4877-8"
         style="stop-color:#ffffff;stop-opacity:0"
         offset="1" />
    </linearGradient>
  </defs>
  <sodipodi:namedview
     id="base"
     pagecolor="#ffffff"
     bordercolor="#666666"
     borderopacity="1.0"
     inkscape:pageopacity="0.0"
     inkscape:pageshadow="2"
     inkscape:zoom="4"
     inkscape:cx="5.1859896"
     inkscape:cy="12.103659"
     inkscape:document-units="px"
     inkscape:current-layer="layer1"
     showgrid="false"
     units="px"
     inkscape:window-width="1440"
     inkscape:window-height="852"
     inkscape:window-x="0"
     inkscape:window-y="0"
     inkscape:window-maximized="1"
     inkscape:snap-object-midpoints="true"
     inkscape:snap-smooth-nodes="true"
     inkscape:object-nodes="true"
     inkscape:object-paths="true" />
  <metadata
     id="metadata9175">
    <rdf:RDF>
      <cc:Work
         rdf:about="">
        <dc:format>image/svg+xml</dc:format>
        <dc:type
           rdf:resource="http://purl.org/dc/dcmitype/StillImage" />
        <dc:title />
      </cc:Work>
    </rdf:RDF>
  </metadata>
  <g
     inkscape:label="Layer 1"
     inkscape:groupmode="layer"
     id="layer1"
     transform="translate(0,-988.3622)">
    <rect
       style="fill:#63a5c9;fill-opacity:1;stroke:none"
       id="rect4154-0"
       width="46"
       height="60"
       x="9"
       y="990.36218" />
    <rect
       y="991.36218"
       x="10"
       height="58"
       width="44"
       id="rect4150-2"
       style="fill:#ffffff;fill-opacity:1;stroke:none" />
    <rect
       style="fill:url(#linearGradient4138-6-1);fill-opacity:1;stroke:none"
       id="rect3362-9-4"
       width="42"
       height="56"
       x="11"
       y="992.36218" />
    <path
       d="m 44.908092,1021.8941 c -0.846358,7.1292 -7.312046,12.2225 -14.440396,11.3763 -7.129001,-0.8464 -12.222127,-7.3121 -11.375777,-14.4411 0.846322,-7.1288 7.311612,-12.2215 14.440614,-11.3752 7.128351,0.8463 12.22188,7.3111 11.375559,14.44 l 0,0 z"
       id="path6495"
       style="fill:#ffffff;fill-opacity:1;fill-rule:nonzero;stroke:url(#linearGradient3778-1);stroke-width:0;stroke-miterlimit:4;stroke-dasharray:none"
       inkscape:connector-curvature="0" />
    <path
       d="m 34.952415,1009.7587 -1.417216,-0.1759 -1.618509,0.051 c 0.140342,-0.015 0.283401,-0.032 0.427939,-0.044 l -0.09906,-0.3636 -0.615048,-0.045 -0.363682,0.2083 -0.467468,-0.05 -0.462273,0.1 -0.221293,0.052 -0.07859,0.066 -0.309964,-0.011 -0.269965,0.3373 -0.119065,-0.5382 -0.127589,0.181 -0.09247,0.5502 -0.452194,0.229 -0.358171,0.5279 0.452824,0.1104 0.269964,-0.3371 0.09326,-0.1257 c 0.234021,-0.095 0.461659,-0.2081 0.698059,-0.2965 l 0.433449,0.2754 c 0.255798,0.2876 0.512941,0.5791 0.769079,0.8664 l 0.555349,-0.31 -0.458173,-0.345 -0.119065,-0.5381 -0.841852,-0.3115 0.0046,-0.1047 0.354535,0.1712 0.270279,-0.1674 0.496924,0.015 c 0.125305,-0.028 0.245017,-0.042 0.368873,-0.059 l -0.363679,0.2083 0.882484,1.0001 -0.107423,0.4404 -0.515986,0.3197 0.277821,1.2556 0.427785,-0.129 0.653174,-0.6255 c 0.71525,-0.047 1.373246,-0.144 2.070704,-0.2798 l -0.107741,0.2707 0.261291,0.2969 0.644037,-0.2459 -0.197505,-0.3875 -0.427783,0.1289 -0.108363,-0.069 c 0.0302,-0.01 0.05815,-0.015 0.08852,-0.021 l 0.902827,-1.3072 -1.083775,-0.7733 z m -5.92183,0.8466 0.374695,0.4308 0.37407,0.091 0.09278,-0.3804 -0.403995,-0.3108 -0.437546,0.1691 0,0 z m 10.517749,2.2894 -0.856035,0 -0.594884,0.2155 -0.07326,0.3003 -0.934159,0.3237 -0.03294,0.8192 0.555519,-0.2252 0.212311,0.4124 0.285868,0.2819 0.358169,-0.5279 -0.03512,-0.369 0.176724,-0.2115 0.579934,-0.3252 0.216567,0.053 -0.333756,0.4277 -0.107408,0.4404 c 0.207903,0 0.409605,0.021 0.615052,0.044 l -0.648925,0.266 -0.09797,0.2308 -0.76185,0.3868 -0.610637,-0.3187 0.09277,-0.3803 -0.344148,0.1285 0.05484,0.374 -0.472528,-0.1155 -0.363365,0.378 -0.402901,0.2835 -0.600243,-0.019 0.251685,0.4219 -0.0043,0.3597 -0.413444,-0.1009 -0.624505,0.1659 -0.214847,0.8808 0.255942,0.061 0.172783,0.3179 0.595055,-0.13 0.328714,-0.4926 0.452356,-0.1444 0.127587,-0.1809 0.669082,-0.015 0.256724,0.4868 0.325241,0.2915 -0.323985,0.3877 0.359105,-0.019 0.28461,-0.3974 -0.311057,-0.6061 0.17719,0.043 0.345245,0.4659 -0.03844,0.4998 0.266645,0.5317 0.254687,-0.6168 0.221291,-0.052 c 0.155609,0.2724 0.254815,0.5833 0.370598,0.8754 l 0.639931,0.1983 0.315475,0.3316 -0.240673,0.217 -0.457076,0.2491 -0.551271,-0.1343 -0.669864,-0.4178 -0.383836,-0.05 -0.353757,0.253 -0.592199,-0.9929 -0.5122,-0.2945 -0.831617,-0.097 -0.757592,0.027 c -0.518018,0.3675 -1.046907,0.7379 -1.547656,1.1286 l -0.72626,1.0107 0.157974,0.2931 -0.535361,0.4846 0.184108,1.1267 c 0.259298,0.5026 0.521399,1.0027 0.780097,1.5053 l 0.643881,-0.3307 0.148205,0.3331 0.663725,-0.2411 0.143159,0.2682 0.57095,0.1387 0.241924,0.462 -0.362896,0.6327 0.28145,0.5565 -0.214997,0.7961 0.153716,0.6526 -0.338636,0.4477 c -0.10868,0.3537 -0.21061,0.6926 -0.298182,1.0515 0.05508,0.5288 0.11089,1.0564 0.155438,1.5864 l -0.07232,0.8096 -0.09767,0.4004 0.315007,0.077 0.526061,-0.1899 0.551265,0.1343 1.056384,-0.7393 -0.02031,-0.3444 0.673334,-0.3661 -0.301144,-0.5613 0.589855,-0.2804 0.545752,-0.185 0.27516,-0.1875 -0.006,-0.5742 c 0.110992,-0.4551 0.221019,-0.9062 0.332033,-1.3613 l 0.579145,-0.7498 0.599469,-0.4053 0.824381,-1.1566 0.08302,-0.3401 c -0.262686,-0.029 -0.514023,-0.059 -0.767671,-0.103 l 0.638841,-0.3958 0.825948,-0.3075 0.481497,-0.3493 0.117174,-0.4806 c -0.04516,-0.1832 -0.08812,-0.3793 -0.133857,-0.5628 l -0.432348,0.3187 -0.182702,-0.3626 -0.300831,-0.3917 0.15137,-0.6205 0.311065,0.6062 0.506848,0.061 c 0.172049,0.2591 0.34081,0.4934 0.478641,0.7742 l 0.402908,-0.2835 c 0.09463,-0.388 0.132036,-2.408 -0.401425,-4.2555 -0.533525,-1.8467 -1.802508,-3.7273 -1.802508,-3.7273 l -0.171839,0.1913 -0.550323,0.3749 -0.409663,-0.715 0.551265,0.1342 0.324297,-0.2178 -0.97494,-0.4499 -0.482749,-0.3298 z m -11.895903,-2.6255 -0.323832,0.4726 c 0,0 -0.358798,-0.026 -0.452665,-0.025 -1.387701,0.7829 -4.22544,2.5234 -5.807706,6.7077 -0.0034,0.1055 0.208053,0.772 0.208053,0.772 l 0.739315,0.7318 0.807672,0.4515 0.261764,0.5517 0.463526,0.5796 0.349343,0.022 0.206961,0.1777 -0.01952,0.08 -0.534736,0.824 -0.348717,0.3181 0.03481,0.1993 -0.372659,0.6727 0.396416,1.5391 0.587009,0.8432 0.217502,0.5622 -0.283521,0.9913 0.09955,0.6182 -0.499928,1.0236 c 0,0 -0.02933,-0.018 -0.02443,0.1 0.0052,0.117 1.110568,1.1637 1.207411,1.1218 0.09683,-0.044 0.1868,-0.082 0.1868,-0.082 l -0.02015,-0.2595 0.412818,-0.2388 0.201135,-0.3113 0.575519,-0.051 0.667353,-0.9404 -0.04976,-0.3091 0.383053,-0.3732 0.664195,0.014 0.500555,-0.684 0.150739,-0.9601 0.663098,-0.5808 0.254535,-0.7014 c -0.592271,-0.5052 -1.169496,-1.0167 -1.754267,-1.5308 l -0.17356,-0.7423 -0.576145,-0.2891 -0.114964,-0.9824 -0.831617,-0.097 -0.581809,-0.6935 -0.909277,0.4783 -0.02441,0.1 c -0.208073,-0.1199 -0.471169,-0.1949 -0.640274,-0.3683 l -0.04031,-0.5189 0.126952,-0.5207 -0.526532,-0.064 c 0.122056,-0.3215 0.259627,-0.646 0.381953,-0.9674 l -0.295319,-0.073 -0.388094,0.3084 -0.309807,0.073 -0.354853,-0.3412 0.08758,-0.5301 0.215472,-0.5414 0.727512,-0.3316 0.492199,0.1199 0.166801,-0.2563 0.576144,0.289 0.311219,0.6911 0.313127,-0.9419 0.948651,-0.4686 0.446529,-0.6335 0.649232,-0.097 0.432193,-0.4036 0.782318,0.043 0.510792,-0.4695 c -0.370254,-0.089 -0.751956,-0.1833 -1.122213,-0.2736 l 0.791776,-0.1676 0.492196,0.12 0.683725,-0.067 -0.03325,0.6494 0.383052,-0.3733 -0.261294,-0.2969 0.142235,-0.2411 -0.197353,-0.3028 -0.256101,-0.1473 0.151997,-0.2811 -0.114023,-0.4733 -0.541028,0.08 0.171526,-0.3612 -0.487941,-0.4796 -0.648134,0.6905 -0.02898,0.2898 -0.50165,0.09 -0.427001,0.5534 0.0037,-0.6143 -0.689703,-0.5076 -0.03041,-0.474 1.189944,-0.3462 0.560243,-0.33 0.166332,-0.5111 -0.221764,-0.2025 -0.324928,-0.1216 -5e-6,0 z m 8.211731,3.0209 -0.07811,0.3203 0.128368,0.2435 -0.117188,0.4806 -0.254692,0.6166 0.536301,0.025 0.466843,-0.2892 -0.256568,-0.4021 c -0.03686,-0.3203 -0.0822,-0.612 -0.149306,-0.9271 l -0.275631,-0.068 z m -0.589384,0.5351 -0.33942,0.024 -0.06283,0.5997 0.467158,-0.12 -0.06491,-0.5035 0,0 z m 4.484366,6.6723 0.335791,0.6759 0.268214,1.3806 0.256723,0.4868 -0.279731,0.3772 0.222237,0.4572 c -0.146909,-0.026 -0.289439,-0.049 -0.438019,-0.085 -0.129249,-0.6427 -0.201005,-1.2763 -0.259386,-1.9299 l -0.256726,-0.4867 -0.02109,-0.769 0.172005,-0.1069 0,0 z"
       id="path6534"
       style="fill:#99c5da;fill-opacity:1;fill-rule:nonzero;stroke:none"
       inkscape:connector-curvature="0" />
  </g>
</svg>
