<?xml version="1.0" encoding="UTF-8" standalone="no"?>
<!-- Created with Inkscape (http://www.inkscape.org/) -->

<svg
   xmlns:dc="http://purl.org/dc/elements/1.1/"
   xmlns:cc="http://creativecommons.org/ns#"
   xmlns:rdf="http://www.w3.org/1999/02/22-rdf-syntax-ns#"
   xmlns:svg="http://www.w3.org/2000/svg"
   xmlns="http://www.w3.org/2000/svg"
   xmlns:xlink="http://www.w3.org/1999/xlink"
   xmlns:sodipodi="http://sodipodi.sourceforge.net/DTD/sodipodi-0.dtd"
   xmlns:inkscape="http://www.inkscape.org/namespaces/inkscape"
   width="64"
   height="64"
   viewBox="0 0 63.999999 63.999999"
   id="svg9170"
   version="1.1"
   inkscape:version="0.91 r13725"
   sodipodi:docname="video-x-msvideo.svg">
  <defs
     id="defs9172">
    <linearGradient
       inkscape:collect="always"
       id="linearGradient16703-64-2-1-5-92-4">
      <stop
         style="stop-color:#e187a6;stop-opacity:1"
         offset="0"
         id="stop16705-6-2-1-8-38-6" />
      <stop
         style="stop-color:#f9a7c5;stop-opacity:1"
         offset="1"
         id="stop16707-92-8-2-5-64-3" />
    </linearGradient>
    <linearGradient
       inkscape:collect="always"
       xlink:href="#linearGradient16703-64-2-1-5-92-4"
       id="linearGradient16709-9-4-3-4-2-1-9"
       x1="24.625"
       y1="-32.915985"
       x2="24.625"
       y2="-6.125"
       gradientUnits="userSpaceOnUse"
       gradientTransform="matrix(1.4,0,0,1.4736842,-1.6,-983.52007)" />
  </defs>
  <sodipodi:namedview
     id="base"
     pagecolor="#ffffff"
     bordercolor="#666666"
     borderopacity="1.0"
     inkscape:pageopacity="0.0"
     inkscape:pageshadow="2"
     inkscape:zoom="16"
     inkscape:cx="32.87495"
     inkscape:cy="9.2114119"
     inkscape:document-units="px"
     inkscape:current-layer="layer1"
     showgrid="false"
     units="px"
     inkscape:window-width="1440"
     inkscape:window-height="852"
     inkscape:window-x="0"
     inkscape:window-y="0"
     inkscape:window-maximized="1"
     inkscape:snap-object-midpoints="true"
     inkscape:snap-smooth-nodes="true"
     inkscape:object-nodes="true"
     inkscape:object-paths="true" />
  <metadata
     id="metadata9175">
    <rdf:RDF>
      <cc:Work
         rdf:about="">
        <dc:format>image/svg+xml</dc:format>
        <dc:type
           rdf:resource="http://purl.org/dc/dcmitype/StillImage" />
        <dc:title />
      </cc:Work>
    </rdf:RDF>
  </metadata>
  <g
     inkscape:label="Layer 1"
     inkscape:groupmode="layer"
     id="layer1"
     transform="translate(0,-988.3622)">
    <rect
       style="fill:#ec92b2;fill-opacity:1;stroke:none"
       id="rect4154-0-9"
       width="46"
       height="60"
       x="9"
       y="990.36218" />
    <rect
       y="991.36218"
       x="10"
       height="58"
       width="44"
       id="rect4150-2-3"
       style="fill:#ffffff;fill-opacity:1;stroke:none" />
    <rect
       style="fill:url(#linearGradient16709-9-4-3-4-2-1-9);fill-opacity:1;stroke:none"
       id="rect3362-9-0-9-7-2-9-9-94-6-5-8-80-0-7"
       width="42"
       height="56"
       x="11"
       y="-1048.3622"
       transform="scale(1,-1)" />
    <rect
       y="-20"
       x="-1048.3622"
       height="1"
       width="56"
       id="rect4497-4-36-7-7-4-7-37-4-7-0-1-0-2"
       style="fill:#ffffff;fill-opacity:1;stroke:none"
       transform="matrix(0,-1,-1,0,0,0)" />
    <rect
       transform="scale(1,-1)"
       width="4"
       height="4"
       x="13"
       y="-1017.3622"
       id="rect7270-8"
       style="fill:#ffffff;fill-opacity:1;stroke:none" />
    <rect
       transform="scale(1,-1)"
       width="4"
       height="4"
       x="13"
       y="-1025.3622"
       id="rect7272-0"
       style="fill:#ffffff;fill-opacity:1;stroke:none" />
    <rect
       style="fill:#ffffff;fill-opacity:1;stroke:none"
       id="rect7274-0"
       y="-1001.3622"
       x="13"
       height="4"
       width="4"
       transform="scale(1,-1)" />
    <rect
       style="fill:#ffffff;fill-opacity:1;stroke:none"
       id="rect7276-3"
       y="-1009.3622"
       x="13"
       height="4"
       width="4"
       transform="scale(1,-1)" />
    <rect
       transform="matrix(0,-1,1,0,0,0)"
       style="fill:#ffffff;fill-opacity:1;stroke:none"
       id="rect7280-1"
       width="56"
       height="1"
       x="-1048.3622"
       y="44" />
    <rect
       style="fill:#ffffff;fill-opacity:1;stroke:none"
       id="rect7284-6"
       y="-1017.3622"
       x="-51"
       height="4"
       width="4"
       transform="scale(-1,-1)" />
    <rect
       style="fill:#ffffff;fill-opacity:1;stroke:none"
       id="rect7286-8"
       y="-1025.3622"
       x="-51"
       height="4"
       width="4"
       transform="scale(-1,-1)" />
    <rect
       transform="scale(-1,-1)"
       width="4"
       height="4"
       x="-51"
       y="-1001.3622"
       id="rect7288-7"
       style="fill:#ffffff;fill-opacity:1;stroke:none" />
    <rect
       transform="scale(-1,-1)"
       width="4"
       height="4"
       x="-51"
       y="-1009.3622"
       id="rect7290-4"
       style="fill:#ffffff;fill-opacity:1;stroke:none" />
    <rect
       y="-1049.3622"
       x="10"
       height="20"
       width="44"
       id="rect16701-86-1-2-3-7-4-6-1-6-3"
       style="fill:#ffffff;fill-opacity:1;stroke:none"
       transform="scale(1,-1)" />
    <path
       d="m 22.904941,1040.6007 c -0.624982,0 -1.096503,0.106 -1.414567,0.318 -0.31249,0.2121 -0.468731,0.5245 -0.46873,0.9376 -10e-7,0.3795 0.125552,0.6779 0.376661,0.8957 0.256681,0.2119 0.611018,0.318 1.063013,0.318 0.563591,0 1.0379,-0.2009 1.422935,-0.6027 0.385023,-0.4074 0.577537,-0.9151 0.577545,-1.5235 l 0,-0.3431 -1.556856,0 m 4.578501,-1.1301 0,5.5916 -3.021645,0 0,-1.6323 c -0.401777,0.5692 -0.853767,0.985 -1.355972,1.2473 -0.502218,0.2567 -1.113245,0.385 -1.833076,0.385 -0.970946,0 -1.760534,-0.2818 -2.368769,-0.8455 C 18.301328,1043.6477 18,1042.911 18,1042.0069 c 0,-1.0993 0.376658,-1.9056 1.129979,-2.419 0.758895,-0.5134 1.947463,-0.7701 3.565706,-0.7701 l 1.766113,0 0,-0.2344 c -8e-6,-0.4743 -0.186942,-0.8203 -0.560804,-1.0379 -0.373874,-0.2233 -0.956998,-0.3348 -1.749372,-0.3348 -0.64172,0 -1.238795,0.064 -1.791223,0.1924 -0.552437,0.129 -1.065809,0.3209 -1.540118,0.5776 l 0,-2.2852 c 0.641714,-0.1562 1.286219,-0.2733 1.933517,-0.3516 0.647293,-0.083 1.294585,-0.1262 1.941887,-0.1262 1.690772,0 2.910033,0.3349 3.657778,1.0044 0.75331,0.6641 1.129968,1.7468 1.129979,3.2478"
       id="path3982"
       inkscape:connector-curvature="0"
       sodipodi:nodetypes="ccccscccccccccscscsccccccccscc"
       style="font-style:normal;font-weight:bold;font-size:10px;line-height:125%;font-family:Sans;-inkscape-font-specification:'Sans Bold';letter-spacing:0px;word-spacing:0px;fill:#e878a0;fill-opacity:1;stroke:none" />
    <path
       d="m 29.107716,1035.6872 2.996656,0 2.335382,6.4787 2.327013,-6.4787 3.005027,0 -3.691412,9.375 -3.289625,0 -3.68304,-9.375"
       id="path3984"
       inkscape:connector-curvature="0"
       sodipodi:nodetypes="cccccccc"
       style="font-style:normal;font-weight:bold;font-size:10px;line-height:125%;font-family:Sans;-inkscape-font-specification:'Sans Bold';letter-spacing:0px;word-spacing:0px;fill:#e878a0;fill-opacity:1;stroke:none" />
    <path
       d="m 41.867087,1036.4908 2.997344,0 0,8.5714 -2.997344,0 0,-8.5714 m 0,-3.4286 2.997344,0 0,1.7142 -2.997344,0 0,-1.7142"
       id="path3986"
       inkscape:connector-curvature="0"
       sodipodi:nodetypes="cccccccccc"
       style="font-style:normal;font-weight:bold;font-size:10px;line-height:125%;font-family:Sans;-inkscape-font-specification:'Sans Bold';letter-spacing:0px;word-spacing:0px;fill:#e878a0;fill-opacity:1;stroke:none" />
  </g>
</svg>
