<?xml version="1.0" encoding="UTF-8" standalone="no"?>
<!-- Created with Inkscape (http://www.inkscape.org/) -->

<svg
   xmlns:dc="http://purl.org/dc/elements/1.1/"
   xmlns:cc="http://creativecommons.org/ns#"
   xmlns:rdf="http://www.w3.org/1999/02/22-rdf-syntax-ns#"
   xmlns:svg="http://www.w3.org/2000/svg"
   xmlns="http://www.w3.org/2000/svg"
   xmlns:sodipodi="http://sodipodi.sourceforge.net/DTD/sodipodi-0.dtd"
   xmlns:inkscape="http://www.inkscape.org/namespaces/inkscape"
   id="svg7384"
   height="16"
   width="16"
   version="1.1"
   inkscape:version="0.91 r13725"
   sodipodi:docname="folder-remote-symbolic.svg">
  <defs
     id="defs10" />
  <sodipodi:namedview
     pagecolor="#ffffff"
     bordercolor="#666666"
     borderopacity="1"
     objecttolerance="10"
     gridtolerance="10"
     guidetolerance="10"
     inkscape:pageopacity="0"
     inkscape:pageshadow="2"
     inkscape:window-width="1116"
     inkscape:window-height="609"
     id="namedview8"
     showgrid="false"
     inkscape:zoom="12.50293"
     inkscape:cx="16.355879"
     inkscape:cy="3.3910473"
     inkscape:window-x="322"
     inkscape:window-y="85"
     inkscape:window-maximized="0"
     inkscape:current-layer="layer13" />
  <metadata
     id="metadata90">
    <rdf:RDF>
      <cc:Work
         rdf:about="">
        <dc:format>image/svg+xml</dc:format>
        <dc:type
           rdf:resource="http://purl.org/dc/dcmitype/StillImage" />
        <dc:title>Gnome Symbolic Icon Theme</dc:title>
      </cc:Work>
    </rdf:RDF>
  </metadata>
  <title
     id="title9167">Gnome Symbolic Icon Theme</title>
  <g
     id="layer13"
     transform="matrix(0,-0.87497266,0.87497266,0,-153.3896,401.63133)">
    <path
       style="fill:#bebebe;fill-opacity:1;fill-rule:nonzero;stroke:none"
       d="M 12.9375 5.25 L 12.78125 5.34375 L 12.53125 5.34375 L 12.3125 5.375 L 12.21875 5.40625 L 12.15625 5.4375 L 12 5.4375 L 11.875 5.59375 L 11.8125 5.34375 L 11.75 5.4375 L 11.71875 5.6875 L 11.5 5.8125 L 11.3125 6.0625 L 11.53125 6.125 L 11.6875 5.96875 L 11.6875 5.9375 L 11.71875 5.90625 C 11.833223 5.8599639 11.946872 5.7932324 12.0625 5.75 L 12.28125 5.875 C 12.406371 6.0156781 12.530963 6.1719619 12.65625 6.3125 L 12.90625 6.15625 L 12.6875 6 L 12.625 5.71875 L 12.21875 5.5625 L 12.21875 5.53125 L 12.40625 5.59375 L 12.53125 5.53125 L 12.78125 5.53125 C 12.842498 5.5175129 12.908167 5.5084872 12.96875 5.5 L 12.78125 5.59375 L 13.21875 6.09375 L 13.6875 5.8125 L 14.59375 5.875 L 14.59375 5.5625 L 14.5625 5.53125 L 13.875 5.4375 L 13.28125 5.46875 L 13.25 5.28125 L 12.9375 5.25 z M 11.6875 5.96875 L 11.84375 6.15625 L 12.03125 6.21875 L 12.09375 6.03125 L 11.875 5.875 L 11.6875 5.96875 z M 11 5.78125 L 10.84375 6.03125 C 10.84375 6.03125 10.67091 5.9997375 10.625 6 C 9.946205 6.3830018 8.5552158 7.2344964 7.78125 9.28125 C 7.7795001 9.3326984 7.875 9.65625 7.875 9.65625 L 8.25 10.03125 L 8.625 10.25 L 8.78125 10.5 L 9 10.8125 L 9.15625 10.8125 L 9.25 10.90625 L 9.25 10.9375 L 9 11.34375 L 8.8125 11.5 L 8.84375 11.59375 L 8.65625 11.90625 L 8.84375 12.6875 L 9.125 13.09375 L 9.25 13.375 L 9.09375 13.84375 L 9.15625 14.15625 L 8.90625 14.65625 C 8.90625 14.65625 8.9038876 14.630627 8.90625 14.6875 C 8.9075625 14.716068 9.045312 14.863957 9.1875 15 L 9.71875 15 L 9.78125 14.96875 L 9.875 14.8125 L 10.15625 14.78125 L 10.46875 14.3125 L 10.46875 14.1875 L 10.65625 14 L 10.96875 14 L 11.21875 13.65625 L 11.28125 13.1875 L 11.625 12.90625 L 11.71875 12.5625 C 11.429047 12.315355 11.161037 12.063976 10.875 11.8125 L 10.78125 11.46875 L 10.5 11.3125 L 10.46875 10.84375 L 10.03125 10.78125 L 9.75 10.4375 L 9.3125 10.6875 L 9.3125 10.71875 C 9.2107319 10.659864 9.0827112 10.647329 9 10.5625 L 8.96875 10.28125 L 9.03125 10.03125 L 8.78125 10 C 8.8410106 9.8427237 8.9089019 9.6884651 8.96875 9.53125 L 8.8125 9.5 L 8.625 9.65625 L 8.46875 9.6875 L 8.3125 9.53125 L 8.34375 9.25 L 8.4375 9 L 8.8125 8.84375 L 9.0625 8.90625 L 9.125 8.78125 L 9.40625 8.90625 L 9.5625 9.25 L 9.71875 8.78125 L 10.1875 8.5625 L 10.40625 8.25 L 10.71875 8.1875 L 10.9375 8 L 11.3125 8.03125 L 11.5625 7.78125 C 11.381389 7.7371514 11.181111 7.7004186 11 7.65625 L 11.40625 7.5625 L 11.65625 7.625 L 11.96875 7.59375 L 11.96875 7.90625 L 12.15625 7.75 L 12.03125 7.59375 L 12.09375 7.46875 L 12 7.3125 L 11.875 7.25 L 11.9375 7.125 L 11.875 6.875 L 11.625 6.9375 L 11.71875 6.75 L 11.46875 6.5 L 11.15625 6.84375 L 11.125 7 L 10.875 7.03125 L 10.6875 7.3125 L 10.6875 7 L 10.34375 6.75 L 10.34375 6.53125 L 10.90625 6.34375 L 11.1875 6.1875 L 11.28125 5.9375 L 11.15625 5.84375 L 11 5.78125 z M 14.03125 7.28125 L 14 7.4375 L 14.0625 7.53125 L 14 7.78125 L 13.875 8.09375 L 14.15625 8.09375 L 14.375 7.9375 L 14.25 7.75 C 14.231976 7.5932836 14.220311 7.4666089 14.1875 7.3125 L 14.03125 7.28125 z M 13.59375 7.53125 L 13.5625 7.84375 L 13.78125 7.78125 L 13.75 7.53125 L 13.59375 7.53125 z M 14.5 8.15625 L 14.3125 8.34375 L 14.125 8.5 L 13.84375 8.46875 L 13.96875 8.6875 L 13.9375 8.875 L 13.75 8.8125 L 13.4375 8.90625 L 13.34375 9.3125 L 13.46875 9.34375 L 13.5625 9.5 L 13.84375 9.4375 L 14 9.21875 L 14.21875 9.125 L 14.28125 9.0625 L 14.59375 9.03125 L 14.59375 8.1875 L 14.5 8.15625 z M 13.90625 9.59375 L 13.53125 9.625 C 13.277867 9.8047719 13.02619 9.9963622 12.78125 10.1875 L 12.40625 10.65625 L 12.5 10.8125 L 12.25 11.0625 L 12.3125 11.59375 C 12.439327 11.839556 12.592211 12.097874 12.71875 12.34375 L 13.03125 12.1875 L 13.09375 12.34375 L 13.40625 12.21875 L 13.5 12.34375 L 13.78125 12.40625 L 13.875 12.65625 L 13.71875 12.96875 L 13.84375 13.21875 L 13.75 13.625 L 13.8125 13.9375 L 13.65625 14.15625 C 13.603052 14.329328 13.542839 14.480625 13.5 14.65625 C 13.511817 14.769665 13.515968 14.885515 13.53125 15 L 14.59375 15 L 14.59375 9.875 L 14.5625 9.8125 L 14.3125 9.65625 L 13.90625 9.59375 z "
       transform="matrix(0,1.1428929,-1.1428929,0,459.02158,175.30788)"
       id="path6534" />
    <path
       style="fill:#bebebe;fill-opacity:1"
       d="m 5.90625,1 c -0.2529546,1.75e-5 -0.4375,0.2070807 -0.4375,0.46875 l 0,13.15625 0,0.25 -0.5,0 0,-5.34375 0,-8.46875 -1.03125,0 c -0.2862911,0 -0.4965001,0.2352467 -0.5,0.53125 l 0,6.9375 -1.09375,0 C 2.0025107,8.53125 1.875,8.7375432 1.875,9 l 0,6 6.4375,2e-6 C 7.1067279,13.700607 6.4621517,11.898217 6.6875,10 7.095036,6.5671935 10.223365,4.1237052 13.65625,4.53125 c 0.326938,0.038813 0.630212,0.1016591 0.937747,0.1875 l -2.47e-4,-3.25 C 14.593729,1.1985059 14.417517,0.9999825 14.15625,1 z"
       transform="matrix(0,1.1428929,-1.1428929,0,459.02158,175.30788)"
       id="path13021-3"
       inkscape:connector-curvature="0"
       sodipodi:nodetypes="cscccccsccssccsscscc" />
  </g>
</svg>
