<?xml version="1.0" encoding="UTF-8" standalone="no"?>
<!-- Created with Inkscape (http://www.inkscape.org/) -->

<svg
   xmlns:dc="http://purl.org/dc/elements/1.1/"
   xmlns:cc="http://creativecommons.org/ns#"
   xmlns:rdf="http://www.w3.org/1999/02/22-rdf-syntax-ns#"
   xmlns:svg="http://www.w3.org/2000/svg"
   xmlns="http://www.w3.org/2000/svg"
   xmlns:sodipodi="http://sodipodi.sourceforge.net/DTD/sodipodi-0.dtd"
   xmlns:inkscape="http://www.inkscape.org/namespaces/inkscape"
   id="svg7384"
   height="16"
   width="16"
   version="1.1"
   inkscape:version="0.91 r13725"
   sodipodi:docname="folder-documents-symbolic.svg">
  <defs
     id="defs10" />
  <sodipodi:namedview
     pagecolor="#ffffff"
     bordercolor="#666666"
     borderopacity="1"
     objecttolerance="10"
     gridtolerance="10"
     guidetolerance="10"
     inkscape:pageopacity="0"
     inkscape:pageshadow="2"
     inkscape:window-width="1116"
     inkscape:window-height="609"
     id="namedview8"
     showgrid="false"
     inkscape:zoom="11.902536"
     inkscape:cx="7.5257212"
     inkscape:cy="3.2549949"
     inkscape:window-x="282"
     inkscape:window-y="240"
     inkscape:window-maximized="0"
     inkscape:current-layer="layer13"
     showguides="true"
     inkscape:guide-bbox="true" />
  <metadata
     id="metadata90">
    <rdf:RDF>
      <cc:Work
         rdf:about="">
        <dc:format>image/svg+xml</dc:format>
        <dc:type
           rdf:resource="http://purl.org/dc/dcmitype/StillImage" />
        <dc:title>Gnome Symbolic Icon Theme</dc:title>
      </cc:Work>
    </rdf:RDF>
  </metadata>
  <title
     id="title9167">Gnome Symbolic Icon Theme</title>
  <g
     id="layer13"
     transform="matrix(0,-0.87497266,0.87497266,0,-153.3896,401.63133)">
    <path
       id="path8134-9"
       style="fill:#bebebe;fill-opacity:1"
       d="m 444.16397,184.45102 0,4.57157 1.14289,0 0,-4.57157 z m 2.28579,0 0,4.57157 1.14289,0 0,-4.57157 z m 2.28578,0 0,4.57157 1.14289,0 0,-4.57157 z m 2.28579,0 0,4.57158 1.14289,0 0,-4.57158 z m 8.00024,-3.42868 -17.14339,0 1e-5,10.28605 17.14339,0 z m -5.71446,2.28579 0,6.85736 -10.28603,0 0,-6.85736 z"
       inkscape:connector-curvature="0"
       sodipodi:nodetypes="cccccccccccccccccccccccccccccc" />
    <rect
       style="fill:#bebebe;fill-opacity:1;stroke:none"
       id="rect3200"
       width="2.2857857"
       height="17.143393"
       x="177.59366"
       y="-459.02158"
       rx="0.57144642"
       ry="0.57144642"
       transform="matrix(0,1,-1,0,0,0)" />
    <rect
       style="fill:#bebebe;fill-opacity:1;stroke:none"
       id="rect3202"
       width="2.2857857"
       height="8.0002499"
       x="176.45078"
       y="-449.87845"
       rx="0.57144642"
       ry="0.57144642"
       transform="matrix(0,1,-1,0,0,0)" />
    <path
       style="fill:#bebebe;fill-opacity:1;stroke:none"
       d="m 456.73582,178.73656 0,-1.14289 -6.85736,0 -2.28578,-0.28572 0,-0.85717 -5.71447,0 0,1.14289 0,1.14289 0,1.1429 17.1434,0 0,-1.1429 z"
       id="rect3674"
       inkscape:connector-curvature="0"
       sodipodi:nodetypes="cccccccccccc" />
  </g>
</svg>
