<?xml version="1.0" encoding="UTF-8" standalone="no"?>
<!-- Created with Inkscape (http://www.inkscape.org/) -->

<svg
   xmlns:dc="http://purl.org/dc/elements/1.1/"
   xmlns:cc="http://creativecommons.org/ns#"
   xmlns:rdf="http://www.w3.org/1999/02/22-rdf-syntax-ns#"
   xmlns:svg="http://www.w3.org/2000/svg"
   xmlns="http://www.w3.org/2000/svg"
   xmlns:sodipodi="http://sodipodi.sourceforge.net/DTD/sodipodi-0.dtd"
   xmlns:inkscape="http://www.inkscape.org/namespaces/inkscape"
   id="svg7384"
   height="16"
   width="16"
   version="1.1"
   inkscape:version="0.91 r13725"
   sodipodi:docname="folder-music.svg">
  <defs
     id="defs10" />
  <sodipodi:namedview
     pagecolor="#ffffff"
     bordercolor="#666666"
     borderopacity="1"
     objecttolerance="10"
     gridtolerance="10"
     guidetolerance="10"
     inkscape:pageopacity="0"
     inkscape:pageshadow="2"
     inkscape:window-width="1440"
     inkscape:window-height="854"
     id="namedview8"
     showgrid="false"
     inkscape:zoom="10.01294"
     inkscape:cx="6.4905988"
     inkscape:cy="12.231956"
     inkscape:window-x="0"
     inkscape:window-y="0"
     inkscape:window-maximized="1"
     inkscape:current-layer="svg7384"
     inkscape:snap-bbox="true"
     inkscape:bbox-nodes="true"
     inkscape:bbox-paths="true"
     inkscape:snap-bbox-edge-midpoints="false" />
  <metadata
     id="metadata90">
    <rdf:RDF>
      <cc:Work
         rdf:about="">
        <dc:format>image/svg+xml</dc:format>
        <dc:type
           rdf:resource="http://purl.org/dc/dcmitype/StillImage" />
        <dc:title>Gnome Symbolic Icon Theme</dc:title>
      </cc:Work>
    </rdf:RDF>
  </metadata>
  <title
     id="title9167">Gnome Symbolic Icon Theme</title>
  <path
     sodipodi:nodetypes="ccccc"
     inkscape:connector-curvature="0"
     id="path4741-3-3"
     d="m 1.0000001,13 0,2 2,0 0,-2 z"
     style="fill:#8c8c8c;fill-opacity:1;stroke:none" />
  <path
     style="fill:#8c8c8c;fill-opacity:1;stroke:none"
     d="m 4.0000001,13 0,2 2,0 0,-2 z"
     id="path4826-2-6"
     inkscape:connector-curvature="0"
     sodipodi:nodetypes="ccccc" />
  <path
     style="fill:#8c8c8c;fill-opacity:1;stroke:none"
     d="m 7,13 0,2 2,0 0,-2 z"
     id="path4828-5-7"
     inkscape:connector-curvature="0"
     sodipodi:nodetypes="ccccc" />
  <path
     sodipodi:nodetypes="ccccc"
     inkscape:connector-curvature="0"
     id="path4830-6-5"
     d="m 10,13 0,2 2,0 0,-2 z"
     style="fill:#8c8c8c;fill-opacity:1;stroke:none" />
  <path
     style="fill:#8c8c8c;fill-opacity:1;stroke:none"
     d="m 13,13 0,2 2,0 0,-2 z"
     id="path4832-3-3"
     inkscape:connector-curvature="0"
     sodipodi:nodetypes="ccccc" />
  <path
     style="fill:#8c8c8c;fill-opacity:1;stroke:none"
     d="m 1.0000001,10 0,2 2,0 0,-2 z"
     id="path4834-9-5"
     inkscape:connector-curvature="0"
     sodipodi:nodetypes="ccccc" />
  <path
     sodipodi:nodetypes="ccccc"
     inkscape:connector-curvature="0"
     id="path4836-4-6"
     d="m 4.0000001,10 0,2 2,0 0,-2 z"
     style="fill:#8c8c8c;fill-opacity:1;stroke:none" />
  <path
     sodipodi:nodetypes="ccccc"
     inkscape:connector-curvature="0"
     id="path4838-1-2"
     d="m 7,10 0,2 2,0 0,-2 z"
     style="fill:#8c8c8c;fill-opacity:1;stroke:none" />
  <path
     style="fill:#8c8c8c;fill-opacity:1;stroke:none"
     d="m 10,10 0,2 2,0 0,-2 z"
     id="path4840-8-9"
     inkscape:connector-curvature="0"
     sodipodi:nodetypes="ccccc" />
  <path
     sodipodi:nodetypes="ccccc"
     inkscape:connector-curvature="0"
     id="path4842-0-1"
     d="m 13,10 0,2 2,0 0,-2 z"
     style="fill:#8c8c8c;fill-opacity:1;stroke:none" />
  <path
     style="fill:#8c8c8c;fill-opacity:1;stroke:none"
     d="m 4.0000001,7 0,2 2,0 0,-2 z"
     id="path4844-4-2"
     inkscape:connector-curvature="0"
     sodipodi:nodetypes="ccccc" />
  <path
     style="fill:#8c8c8c;fill-opacity:1;stroke:none"
     d="M 7,7 7,9 9,9 9,7 Z"
     id="path4846-4-7"
     inkscape:connector-curvature="0"
     sodipodi:nodetypes="ccccc" />
  <path
     sodipodi:nodetypes="ccccc"
     inkscape:connector-curvature="0"
     id="path4848-7-0"
     d="m 10,7 0,2 2,0 0,-2 z"
     style="fill:#8c8c8c;fill-opacity:1;stroke:none" />
  <path
     style="fill:#8c8c8c;fill-opacity:1;stroke:none"
     d="M 10,3.9999999 10,6 12,6 12,3.9999999 Z"
     id="path4850-4-9"
     inkscape:connector-curvature="0"
     sodipodi:nodetypes="ccccc" />
  <path
     sodipodi:nodetypes="ccccc"
     inkscape:connector-curvature="0"
     id="path4852-5-3"
     d="M 7,3.9999999 7,6 9,6 9,3.9999999 Z"
     style="fill:#8c8c8c;fill-opacity:1;stroke:none" />
  <path
     sodipodi:nodetypes="ccccc"
     inkscape:connector-curvature="0"
     id="path4854-0-6"
     d="m 10,0.99999995 0,1.99999995 2,0 0,-1.99999995 z"
     style="fill:#8c8c8c;fill-opacity:1;stroke:none" />
  <path
     sodipodi:nodetypes="ccccc"
     inkscape:connector-curvature="0"
     id="path4856-6-0"
     d="m 13,7 0,2 2,0 0,-2 z"
     style="fill:#8c8c8c;fill-opacity:1;stroke:none" />
  <path
     style="fill:#f7f7f7;fill-opacity:1;stroke:none"
     d="m 3.0000001,7 0,8 1,0 0,-7.9999999 z"
     id="path14115-6"
     inkscape:connector-curvature="0"
     sodipodi:nodetypes="ccccc" />
  <path
     sodipodi:nodetypes="ccccc"
     inkscape:connector-curvature="0"
     id="path14117-2"
     d="M 6.0000001,3.9999999 6.0000001,15 7,15 7,3.9999999 Z"
     style="fill:#f7f7f7;fill-opacity:1;stroke:none" />
  <path
     style="fill:#f7f7f7;fill-opacity:1;stroke:none"
     d="M 9,0.99999995 9,15 10,15 10,0.99999995 Z"
     id="path14119-6"
     inkscape:connector-curvature="0"
     sodipodi:nodetypes="ccccc" />
  <path
     style="fill:#f7f7f7;fill-opacity:1;stroke:none"
     d="M 12,0.99999995 12,15 13,15 13,0.99999995 Z"
     id="path14123-1"
     inkscape:connector-curvature="0"
     sodipodi:nodetypes="ccccc" />
  <path
     sodipodi:nodetypes="ccccc"
     inkscape:connector-curvature="0"
     id="path14125-8"
     d="m 15,9 -10.9999999,0 0,1 L 15,10 Z"
     style="fill:#f7f7f7;fill-opacity:1;stroke:none" />
  <path
     style="fill:#f7f7f7;fill-opacity:1;stroke:none"
     d="m 15,12 -13.9999999,0 0,1 L 15,13 Z"
     id="path14127-7"
     inkscape:connector-curvature="0"
     sodipodi:nodetypes="ccccc" />
  <path
     style="fill:#f7f7f7;fill-opacity:1;stroke:none"
     d="M 12,6 7,6 7,7 12,7 Z"
     id="path14129-9"
     inkscape:connector-curvature="0"
     sodipodi:nodetypes="ccccc" />
  <path
     sodipodi:nodetypes="ccccc"
     inkscape:connector-curvature="0"
     id="path14131-2"
     d="m 12,2.9999999 -2,0 0,1 2,0 z"
     style="fill:#f7f7f7;fill-opacity:1;stroke:none" />
  <path
     sodipodi:nodetypes="ccccc"
     inkscape:connector-curvature="0"
     id="path4262"
     d="m 15,15 -13.9999999,0 0,1 L 15,16 Z"
     style="fill:#f7f7f7;fill-opacity:1;stroke:none" />
  <path
     sodipodi:nodetypes="ccccc"
     inkscape:connector-curvature="0"
     id="path4264"
     d="m 1,10 0,6 -1,0 0,-6 z"
     style="fill:#f7f7f7;fill-opacity:1;stroke:none" />
  <path
     style="fill:#f7f7f7;fill-opacity:1;stroke:none"
     d="m 16,7 0,9 -1,0 0,-8.9999999 z"
     id="path4266"
     inkscape:connector-curvature="0"
     sodipodi:nodetypes="ccccc" />
  <path
     sodipodi:nodetypes="ccccc"
     inkscape:connector-curvature="0"
     id="path4268"
     d="m 16,9 -15.9999999,0 0,1 L 16,10 Z"
     style="fill:#f7f7f7;fill-opacity:1;stroke:none" />
  <path
     style="fill:#f7f7f7;fill-opacity:1;stroke:none"
     d="m 16,6 -12.9999999,0 0,1 L 16,7 Z"
     id="path4270"
     inkscape:connector-curvature="0"
     sodipodi:nodetypes="ccccc" />
  <path
     sodipodi:nodetypes="ccccc"
     inkscape:connector-curvature="0"
     id="path4272"
     d="m 16,6 -12.9999999,0 0,1 L 16,7 Z"
     style="fill:#f7f7f7;fill-opacity:1;stroke:none" />
  <path
     style="fill:#f7f7f7;fill-opacity:1;stroke:none"
     d="m 13,2.9999999 -6.9999999,0 0,1 6.9999999,0 z"
     id="path4274"
     inkscape:connector-curvature="0"
     sodipodi:nodetypes="ccccc" />
  <path
     sodipodi:nodetypes="ccccc"
     inkscape:connector-curvature="0"
     id="path4276"
     d="m 13,-5.0000001e-8 -4,0 L 9,0.99999995 l 4,0 z"
     style="fill:#f7f7f7;fill-opacity:1;stroke:none" />
</svg>
