<?xml version="1.0" encoding="UTF-8" standalone="no"?>
<!-- Created with Inkscape (http://www.inkscape.org/) -->

<svg
   xmlns:dc="http://purl.org/dc/elements/1.1/"
   xmlns:cc="http://creativecommons.org/ns#"
   xmlns:rdf="http://www.w3.org/1999/02/22-rdf-syntax-ns#"
   xmlns:svg="http://www.w3.org/2000/svg"
   xmlns="http://www.w3.org/2000/svg"
   xmlns:sodipodi="http://sodipodi.sourceforge.net/DTD/sodipodi-0.dtd"
   xmlns:inkscape="http://www.inkscape.org/namespaces/inkscape"
   id="svg7384"
   height="16"
   width="16"
   version="1.1"
   inkscape:version="0.91 r13725"
   sodipodi:docname="folder-images.svg">
  <defs
     id="defs10" />
  <sodipodi:namedview
     pagecolor="#ffffff"
     bordercolor="#666666"
     borderopacity="1"
     objecttolerance="10"
     gridtolerance="10"
     guidetolerance="10"
     inkscape:pageopacity="0"
     inkscape:pageshadow="2"
     inkscape:window-width="1116"
     inkscape:window-height="609"
     id="namedview8"
     showgrid="false"
     inkscape:zoom="5.7803956"
     inkscape:cx="0.73050801"
     inkscape:cy="8.7199471"
     inkscape:window-x="159"
     inkscape:window-y="61"
     inkscape:window-maximized="0"
     inkscape:current-layer="layer13"
     inkscape:object-nodes="true" />
  <metadata
     id="metadata90">
    <rdf:RDF>
      <cc:Work
         rdf:about="">
        <dc:format>image/svg+xml</dc:format>
        <dc:type
           rdf:resource="http://purl.org/dc/dcmitype/StillImage" />
        <dc:title>Gnome Symbolic Icon Theme</dc:title>
      </cc:Work>
    </rdf:RDF>
  </metadata>
  <title
     id="title9167">Gnome Symbolic Icon Theme</title>
  <g
     id="layer13"
     transform="matrix(0,-0.87497266,0.87497266,0,-153.3896,401.63133)">
    <path
       id="path4710"
       style="fill:#8C8C8C;fill-opacity:1"
       d="m 459.02158,181.02235 -17.1434,0 1e-5,10.28603 1.14289,0 0,-8.00025 8.03554,0 -0.0714,2.28579 1.17861,0.57144 0,4.57157 -1.14289,0.57145 8.00068,0 z"
       inkscape:connector-curvature="0"
       sodipodi:nodetypes="cccccccccccc" />
    <path
       style="font-size:medium;font-style:normal;font-variant:normal;font-weight:normal;font-stretch:normal;text-indent:0;text-align:start;text-decoration:none;line-height:normal;letter-spacing:normal;word-spacing:normal;text-transform:none;direction:ltr;block-progression:tb;writing-mode:lr-tb;text-anchor:start;baseline-shift:baseline;color:#000000;fill:#8C8C8C;fill-opacity:1;stroke:none;stroke-width:1.37147141;marker:none;visibility:visible;display:inline;overflow:visible;enable-background:accumulate;font-family:Sans;-inkscape-font-specification:Sans"
       d="M 11.0625 8.1875 C 10.364289 8.1875 9.6957238 8.4292412 9.21875 8.90625 C 9.1805662 8.9435063 9.1608739 8.9913512 9.125 9.03125 C 8.7175434 9.4979753 8.5 10.104991 8.5 10.75 C 8.5 11.392419 8.7277318 11.974733 9.125 12.4375 L 9.125 12.46875 C 9.1545578 12.502512 9.1872269 12.530149 9.21875 12.5625 C 9.2240228 12.568946 9.2127722 12.587772 9.21875 12.59375 C 9.3356857 12.710675 9.4551796 12.811085 9.59375 12.90625 C 10.009243 13.202043 10.522909 13.375 11.0625 13.375 C 11.242362 13.375 11.423717 13.349203 11.59375 13.3125 C 11.934058 13.234909 12.254255 13.103445 12.53125 12.90625 C 12.66982 12.811085 12.789314 12.710675 12.90625 12.59375 C 12.912228 12.587772 12.900977 12.568946 12.90625 12.5625 C 12.943505 12.524267 12.965493 12.477696 13 12.4375 C 13.397268 11.974733 13.625 11.392419 13.625 10.75 C 13.625 10.104991 13.407457 9.4979753 13 9.03125 C 12.964126 8.9913512 12.944434 8.9435063 12.90625 8.90625 C 12.427824 8.4400033 11.760728 8.1875 11.0625 8.1875 z M 11.0625 9.4375 C 11.2573 9.4375 11.435957 9.4731956 11.59375 9.53125 C 11.757245 9.5957738 11.911282 9.6955905 12.03125 9.8125 C 12.083725 9.869434 12.144959 9.9293687 12.1875 10 C 12.312533 10.207595 12.375 10.472485 12.375 10.75 C 12.375 10.847384 12.36064 10.940916 12.34375 11.03125 C 12.312503 11.198368 12.26915 11.364486 12.1875 11.5 C 12.18088 11.510988 12.163167 11.520505 12.15625 11.53125 C 12.110133 11.602886 12.058453 11.658762 12 11.71875 C 11.942478 11.777776 11.881285 11.826266 11.8125 11.875 C 11.671575 11.974845 11.51892 12.05476 11.34375 12.09375 C 11.255246 12.112258 11.154576 12.125 11.0625 12.125 C 10.970407 12.125 10.86814 12.11309 10.78125 12.09375 C 10.60608 12.05476 10.453425 11.974845 10.3125 11.875 C 10.245686 11.829881 10.182782 11.77445 10.125 11.71875 C 10.066547 11.658762 10.014867 11.602886 9.96875 11.53125 C 9.9618325 11.520505 9.9441203 11.510988 9.9375 11.5 C 9.8558499 11.364486 9.812497 11.198368 9.78125 11.03125 C 9.7643597 10.940916 9.75 10.847384 9.75 10.75 C 9.75 10.472485 9.8124665 10.207595 9.9375 10 C 9.9458677 9.987363 9.9599281 9.9810376 9.96875 9.96875 C 10.014362 9.8979029 10.06924 9.8370142 10.125 9.78125 C 10.170708 9.7355399 10.227312 9.6932044 10.28125 9.65625 C 10.291994 9.6493325 10.301513 9.6316203 10.3125 9.625 C 10.445127 9.5416396 10.608817 9.4989844 10.78125 9.46875 C 10.871588 9.4518604 10.965098 9.4375 11.0625 9.4375 z "
       id="path2998"
       transform="matrix(0,1.1428929,-1.1428929,0,459.02158,175.30788)" />
    <path
       style="fill:#8C8C8C;fill-opacity:1;stroke:none"
       d="m 459.02158,177.59362 -9.14314,0 0,-1.14285 -8.00026,0 0,3.42865 17.1434,0 z"
       id="rect3967"
       inkscape:connector-curvature="0"
       sodipodi:nodetypes="ccccccc" />
  </g>
</svg>
