<?xml version="1.0" encoding="UTF-8" standalone="no"?>
<!-- Created with Inkscape (http://www.inkscape.org/) -->

<svg
   xmlns:dc="http://purl.org/dc/elements/1.1/"
   xmlns:cc="http://creativecommons.org/ns#"
   xmlns:rdf="http://www.w3.org/1999/02/22-rdf-syntax-ns#"
   xmlns:svg="http://www.w3.org/2000/svg"
   xmlns="http://www.w3.org/2000/svg"
   xmlns:sodipodi="http://sodipodi.sourceforge.net/DTD/sodipodi-0.dtd"
   xmlns:inkscape="http://www.inkscape.org/namespaces/inkscape"
   id="svg7384"
   height="16"
   width="16"
   version="1.1"
   inkscape:version="0.91 r13725"
   sodipodi:docname="folder-videos.svg">
  <defs
     id="defs10" />
  <sodipodi:namedview
     pagecolor="#ffffff"
     bordercolor="#666666"
     borderopacity="1"
     objecttolerance="10"
     gridtolerance="10"
     guidetolerance="10"
     inkscape:pageopacity="0"
     inkscape:pageshadow="2"
     inkscape:window-width="1440"
     inkscape:window-height="855"
     id="namedview8"
     showgrid="false"
     inkscape:zoom="14.584077"
     inkscape:cx="12.802984"
     inkscape:cy="12.858788"
     inkscape:window-x="0"
     inkscape:window-y="0"
     inkscape:window-maximized="1"
     inkscape:current-layer="svg7384"
     showguides="true"
     inkscape:guide-bbox="true" />
  <metadata
     id="metadata90">
    <rdf:RDF>
      <cc:Work
         rdf:about="">
        <dc:format>image/svg+xml</dc:format>
        <dc:type
           rdf:resource="http://purl.org/dc/dcmitype/StillImage" />
        <dc:title>Gnome Symbolic Icon Theme</dc:title>
      </cc:Work>
    </rdf:RDF>
  </metadata>
  <title
     id="title9167">Gnome Symbolic Icon Theme</title>
  <g
     id="layer13"
     transform="matrix(0,-0.87497266,0.87497266,0,-154.3896,401.63133)"
     style="fill:#8C8C8C;fill-opacity:1">
    <g
       id="g14154"
       transform="matrix(1.0343423,0,0,1,226.18678,-820)"
       style="fill:#8C8C8C;fill-opacity:1" />
    <path
       style="fill:#8C8C8C;fill-opacity:1"
       d="M 6,2.8500027e-6 6,15 l 8.999997,0 0,-3.999998 -3.999997,0 0,3 -1,0 0,-2e-6 -1,0 0,2e-6 -1,0 0,-9.0000014 6.999997,0 0,-4.9999977499973 z M 9,6 9,7 10,7 10,6 z m 2,0 0,4.000002 3.999997,0 0,-4.000002 z m -2,2 0,1 1,0 0,-1 z m 0,2 0,1 1,0 0,-1 z m -2.4e-6,2.000002 0,1 1.0000024,0 0,-1 z"
       transform="matrix(0,1.1428929,-1.1428929,0,459.02158,175.30788)"
       id="path4925"
       inkscape:connector-curvature="0"
       sodipodi:nodetypes="cccccccccccccccccccccccccccccccccccccccc" />
  </g>
  <path
     style="fill:#8C8C8C;fill-opacity:1;stroke:none"
     d="M 2,-2e-7 2,8 1,8 1,15 4,15 4,-2e-7 Z"
     id="rect3967"
     inkscape:connector-curvature="0"
     sodipodi:nodetypes="ccccccc" />
</svg>
