<?xml version="1.0" encoding="UTF-8" standalone="no"?>
<!-- Created with Inkscape (http://www.inkscape.org/) -->

<svg
   xmlns:dc="http://purl.org/dc/elements/1.1/"
   xmlns:cc="http://creativecommons.org/ns#"
   xmlns:rdf="http://www.w3.org/1999/02/22-rdf-syntax-ns#"
   xmlns:svg="http://www.w3.org/2000/svg"
   xmlns="http://www.w3.org/2000/svg"
   xmlns:sodipodi="http://sodipodi.sourceforge.net/DTD/sodipodi-0.dtd"
   xmlns:inkscape="http://www.inkscape.org/namespaces/inkscape"
   version="1.1"
   width="16"
   height="16"
   id="svg2415"
   sodipodi:version="0.32"
   inkscape:version="0.91 r13725"
   sodipodi:docname="media-eject.svg"
   inkscape:output_extension="org.inkscape.output.svg.inkscape">
  <metadata
     id="metadata18">
    <rdf:RDF>
      <cc:Work
         rdf:about="">
        <dc:format>image/svg+xml</dc:format>
        <dc:type
           rdf:resource="http://purl.org/dc/dcmitype/StillImage" />
        <dc:title />
        <dc:title />
      </cc:Work>
    </rdf:RDF>
  </metadata>
  <sodipodi:namedview
     inkscape:window-height="748"
     inkscape:window-width="932"
     inkscape:pageshadow="2"
     inkscape:pageopacity="1"
     guidetolerance="10.0"
     gridtolerance="10.0"
     objecttolerance="10.0"
     borderopacity="1.0"
     bordercolor="#666666"
     pagecolor="#ffffff"
     id="base"
     showgrid="false"
     inkscape:zoom="4.9630736"
     inkscape:cx="23.290466"
     inkscape:cy="-0.74211589"
     inkscape:window-x="473"
     inkscape:window-y="31"
     inkscape:current-layer="svg2415"
     inkscape:window-maximized="0" />
  <defs
     id="defs2417" />
  <path
     style="fill:#ffffff;fill-opacity:1;stroke:none"
     d="M 7.9999998,3.0000001 C 5.2385765,3.0000001 2.9999999,5.2385763 2.9999999,8 c 0,2.761424 2.2385766,5 4.9999999,5 C 10.761424,13 13,10.761424 13,8 13,5.2385763 10.761424,3.0000001 7.9999998,3.0000001 Z"
     id="path4215"
     inkscape:connector-curvature="0"
     sodipodi:nodetypes="sssss" />
  <path
     inkscape:connector-curvature="0"
     id="path5788"
     d="m 31.766903,1.8757764 c -3.589851,0 -6.5,2.910149 -6.5,6.5 0,3.5898506 2.910149,6.4999996 6.5,6.4999996 3.589851,0 6.5,-2.910149 6.5,-6.4999996 0,-3.589851 -2.910149,-6.5 -6.5,-6.5 z m -2.640625,2.785714 2.640625,2.640625 2.640625,-2.640625 1.073661,1.073661 -2.640625,2.640625 2.640625,2.6406246 -1.073661,1.073661 -2.640625,-2.6406246 -2.640625,2.6406246 -1.073661,-1.073661 2.640625,-2.6406246 -2.640625,-2.640625 1.073661,-1.073661 z"
     style="fill:#8c8c8c;fill-opacity:1;stroke:none" />
  <path
     sodipodi:nodetypes="sssss"
     style="fill:#ffffff;fill-opacity:1;stroke:none"
     d="m 31.766903,2.8757764 c -3.037566,0 -5.5,2.462434 -5.5,5.5 0,3.0375656 2.462434,5.4999996 5.5,5.4999996 3.037566,0 5.5,-2.462434 5.5,-5.4999996 0,-3.037566 -2.462434,-5.5 -5.5,-5.5 z"
     id="path5790"
     inkscape:connector-curvature="0" />
  <rect
     transform="matrix(0.70710678,0.70710678,-0.70710678,0.70710678,0,0)"
     style="fill:#8c8c8c;fill-opacity:1;stroke:none;stroke-width:2;stroke-miterlimit:4;stroke-dasharray:none;stroke-opacity:1"
     id="rect5792"
     width="1"
     height="8"
     x="27.885162"
     y="-20.540024" />
  <rect
     y="24.385159"
     x="16.040024"
     height="8"
     width="1"
     id="rect5794"
     style="fill:#8c8c8c;fill-opacity:1;stroke:none;stroke-width:2;stroke-miterlimit:4;stroke-dasharray:none;stroke-opacity:1"
     transform="matrix(0.70710678,-0.70710678,0.70710678,0.70710678,0,0)" />
  <text
     xml:space="preserve"
     style="font-style:normal;font-weight:normal;font-size:5px;line-height:125%;font-family:sans-serif;letter-spacing:0px;word-spacing:0px;fill:#000000;fill-opacity:1;stroke:none;stroke-width:1px;stroke-linecap:butt;stroke-linejoin:miter;stroke-opacity:1"
     x="30.605633"
     y="5.9752069"
     id="text4153"
     sodipodi:linespacing="125%"><tspan
       sodipodi:role="line"
       x="30.605633"
       y="5.9752069"
       id="tspan4157">best</tspan></text>
  <path
     inkscape:connector-curvature="0"
     id="path4161"
     d="m 7.9999998,2 c -3.313708,0 -6,2.6862915 -6,6 0,3.313709 2.686292,6 6,6 C 11.313709,14 14,11.313709 14,8 14,4.6862915 11.313709,2 7.9999998,2 Z m -2.4375,2.5714286 2.4375,2.4375 L 10.4375,4.5714286 11.428572,5.5625 8.9910718,8 11.428572,10.4375 10.4375,11.428572 7.9999998,8.9910714 5.5624998,11.428572 4.5714288,10.4375 7.0089288,8 4.5714288,5.5625 5.5624998,4.5714286 Z"
     style="fill:#8c8c8c;fill-opacity:1;stroke:none" />
</svg>
