<?xml version="1.0" encoding="UTF-8" standalone="no"?>
<!-- Created with Inkscape (http://www.inkscape.org/) -->

<svg
   xmlns:dc="http://purl.org/dc/elements/1.1/"
   xmlns:cc="http://creativecommons.org/ns#"
   xmlns:rdf="http://www.w3.org/1999/02/22-rdf-syntax-ns#"
   xmlns:svg="http://www.w3.org/2000/svg"
   xmlns="http://www.w3.org/2000/svg"
   xmlns:xlink="http://www.w3.org/1999/xlink"
   xmlns:sodipodi="http://sodipodi.sourceforge.net/DTD/sodipodi-0.dtd"
   xmlns:inkscape="http://www.inkscape.org/namespaces/inkscape"
   version="1.0"
   width="16"
   height="16"
   id="svg4569"
   sodipodi:version="0.32"
   inkscape:version="0.91 r13725"
   sodipodi:docname="network.svg"
   inkscape:output_extension="org.inkscape.output.svg.inkscape">
  <metadata
     id="metadata46">
    <rdf:RDF>
      <cc:Work
         rdf:about="">
        <dc:format>image/svg+xml</dc:format>
        <dc:type
           rdf:resource="http://purl.org/dc/dcmitype/StillImage" />
        <dc:title />
      </cc:Work>
    </rdf:RDF>
  </metadata>
  <sodipodi:namedview
     inkscape:window-height="789"
     inkscape:window-width="1438"
     inkscape:pageshadow="2"
     inkscape:pageopacity="0.0"
     guidetolerance="10.0"
     gridtolerance="10.0"
     objecttolerance="10.0"
     borderopacity="1.0"
     bordercolor="#666666"
     pagecolor="#ffffff"
     id="base"
     showgrid="false"
     showguides="true"
     inkscape:guide-bbox="true"
     inkscape:zoom="9.076178"
     inkscape:cx="11.210824"
     inkscape:cy="4.322502"
     inkscape:window-x="0"
     inkscape:window-y="61"
     inkscape:current-layer="svg4569"
     inkscape:window-maximized="0"
     inkscape:snap-object-midpoints="true"
     inkscape:snap-center="true">
    <inkscape:grid
       type="xygrid"
       id="grid2421"
       empspacing="5"
       visible="true"
       enabled="true"
       snapvisiblegridlinesonly="true" />
  </sodipodi:namedview>
  <defs
     id="defs4571">
    <linearGradient
       id="linearGradient3342-5">
      <stop
         id="stop3344-6"
         style="stop-color:#ffffff;stop-opacity:0"
         offset="0" />
      <stop
         id="stop3346-1"
         style="stop-color:#ffffff;stop-opacity:1"
         offset="1" />
    </linearGradient>
    <linearGradient
       inkscape:collect="always"
       xlink:href="#linearGradient3342-5"
       id="linearGradient3778-3-5-9"
       gradientUnits="userSpaceOnUse"
       gradientTransform="matrix(0.28653143,0.03401237,-0.03401557,0.28649137,1.6498165,0.49473146)"
       x1="20"
       y1="43"
       x2="20"
       y2="2.6887112" />
  </defs>
  <circle
     style="fill:#8c8c8c;fill-opacity:1;stroke:none;stroke-width:2;stroke-miterlimit:4;stroke-dasharray:none;stroke-opacity:1"
     id="path12632-5"
     cx="8"
     cy="8"
     r="7.5" />
  <circle
     r="6.5"
     cy="8"
     cx="8"
     id="circle12630-6"
     style="fill:#ffffff;fill-opacity:1;stroke:none;stroke-width:2;stroke-miterlimit:4;stroke-dasharray:none;stroke-opacity:1" />
  <path
     style="fill:#8c8c8c;fill-opacity:1;fill-rule:nonzero;stroke:url(#linearGradient3778-3-5-9);stroke-width:0;stroke-miterlimit:4;stroke-dasharray:none"
     d="m 7.2718435,2.6616574 -0.28983,0.017252 -0.158716,0.1190373 -0.224273,0.00345 -0.208746,0.072458 -0.10006,0.037954 -0.0345,0.036229 -0.144915,0.012076 -0.108686,0.175968 -0.08626,-0.2501506 -0.0483,0.094885 -0.01208,0.2656776 -0.20012,0.134563 -0.138015,0.269128 0.219098,0.02588 0.106961,-0.174242 0.03623,-0.06556 c 0.104336,-0.05832 0.20645,-0.125652 0.312257,-0.181144 l 0.217373,0.106961 c 0.136349,0.121508 0.274098,0.242648 0.410592,0.364013 l 0.24325,-0.175968 -0.23635,-0.13974 -0.08626,-0.2467 -0.412318,-0.098335 -0.0035,-0.05003 0.175968,0.060381 0.117312,-0.094885 0.232899,-0.020702 c 0.05716,-0.020503 0.113712,-0.034608 0.170792,-0.05003 l -0.158716,0.1207623 0.470973,0.4226686 -0.02588,0.215647 -0.222548,0.181143 0.20012,0.576209 0.19322,-0.08453 0.272578,-0.33296 c 0.332711,-0.06342 0.634739,-0.148985 0.954023,-0.2536 l -0.0345,0.134563 0.139739,0.125938 0.28638,-0.15354 -0.113862,-0.172518 -0.19322,0.08453 -0.0552,-0.02588 c 0.01382,-0.0045 0.02751,-0.0091 0.0414,-0.0138 l 0.348529,-0.6710932 -0.552056,-0.3053562 -0.674544,-0.00173 -0.757353,0.1190372 c 0.06498,-0.014945 0.132994,-0.03286 0.200121,-0.04658 z m -1.428446,0.8401613 0.20012,0.182868 0.181144,0.02243 0.0207,-0.188045 -0.207021,-0.122487 z m -0.664193,-0.07936 -0.125938,0.241524 c 0,0 -0.16822,0.0081 -0.212197,0.0138 -0.606032,0.450966 -1.837811,1.438742 -2.341064,3.512459 0.0044,0.05001 0.139739,0.355387 0.139739,0.355387 l 0.38989,0.303631 0.403691,0.167342 0.155266,0.2467 0.250151,0.248426 0.163892,-0.01035 0.10696,0.07246 -0.0035,0.03795 -0.20357,0.422668 -0.14664,0.170792 0.0276,0.09143 -0.134564,0.33986 0.270853,0.7056003 0.324333,0.367461 0.134564,0.253601 -0.07591,0.486501 0.08108,0.286378 -0.175968,0.514103 c 0,0 -0.01414,-0.0067 -0.0052,0.04831 0.0091,0.05505 0.829149,0.674632 0.87217,0.649219 0.04295,-0.02599 0.08281,-0.04831 0.08281,-0.04831 l -0.02415,-0.122488 0.181143,-0.136288 0.07591,-0.158716 0.265678,-0.05693 0.260501,-0.484774 -0.0414,-0.14319 0.160442,-0.198395 0.310531,-0.03278 0.19667,-0.351936 0.01553,-0.464072 0.358581,-0.7720023 0.07763,-0.345036 c -0.306538,-0.205255 -0.60565,-0.416365 -0.909175,-0.626239 l -0.122487,-0.33986 -0.288104,-0.105236 -0.108687,-0.458897 -0.39679,0.0017 -0.635565,-0.02386 -0.398516,0.277754 -0.0052,0.0483 c -0.104319,-0.04502 -0.23332,-0.06383 -0.322505,-0.13625 l -0.0483,-0.244975 0.03105,-0.253601 -0.250151,0 c 0.03889,-0.159374 0.08346,-0.32027 0.122487,-0.479599 l -0.14319,-0.01725 -0.162166,0.167343 -0.141465,0.05175 -0.186319,-0.139739 0.01208,-0.255326 0.06728,-0.270853 0.322608,-0.198396 0.2398,0.0276 0.06211,-0.131113 0.288104,0.105236 0.184594,0.310531 0.09316,-0.465797 0.419218,-0.276028 0.172517,-0.326059 0.298456,-0.08453 0.177693,-0.215648 0.370913,-0.02415 0.213922,-0.253601 -0.543431,-0.06383 0.362287,-0.124213 0.23635,0.0276 0.319157,-0.07073 0.01898,0.310532 0.160442,-0.20012 -0.13974,-0.125938 0.05176,-0.120762 -0.110412,-0.132839 -0.127662,-0.05521 0.05521,-0.141464 -0.07936,-0.217372 -0.250151,0.06728 0.06038,-0.181143 -0.255326,-0.19667 -0.265677,0.364012 0.0035,0.139739 -0.231173,0.06901 -0.167342,0.288105 -0.0345,-0.291555 -0.351936,-0.201846 -0.0414,-0.220822 0.538255,-0.232899 0.24325,-0.189769 0.04831,-0.251876 -0.113862,-0.08281 z m 5.7258615,0.557232 -0.400242,0.05176 -0.265676,0.136289 -0.01898,0.14664 -0.4174945,0.207021 0.02933,0.391615 0.2484265,-0.13974 0.122488,0.182869 0.15009,0.117312 0.138014,-0.272578 -0.03622,-0.172517 0.07073,-0.108687 0.2536,-0.189769 0.103511,0.01553 -0.132839,0.220823 -0.02588,0.215647 c 0.09712,-0.01502 0.193883,-0.0165 0.291555,-0.01725 l -0.289824,0.165616 -0.03106,0.115587 -0.334684,0.225998 -0.305356,-0.115586 0.02071,-0.186319 -0.1518165,0.08108 0.04658,0.172517 -0.22773,-0.02588 0.09239,0.01152 -0.172517,0.156991 -0.281204,0.02588 0.139739,0.184594 0.01898,0.170793 -0.20012,-0.02415 -0.282929,0.115587 -0.05003,0.431294 0.124213,0.0138 0.09833,0.139739 0.272578,-0.09661 0.124212,-0.250151 0.205297,-0.09488 0.0483,-0.09488 0.3139825,-0.03968 0.148366,0.213922 0.169066,0.119037 -0.129387,0.203571 0.165616,-0.02933 0.112137,-0.203571 -0.179419,-0.270852 0.08453,0.01035 0.188044,0.201845 0.01035,0.238075 0.155266,0.236349 0.08453,-0.305356 0.10006,-0.03795 c 0.08849,0.120068 0.153324,0.259924 0.224272,0.391615 l 0.312258,0.05866 0.167342,0.139739 -0.101782,0.115586 -0.19839,0.143191 -0.698478,0.401749 -0.338135,-0.162167 -0.181144,-0.0017 -0.153541,0.141464 -0.3346845,-0.43647 -0.255327,-0.108686 -0.39679,0.0017 -0.353661,0.05521 c -0.221927,0.203986 -0.448225,0.41051 -0.660739,0.624514 l -0.282929,0.519278 0.08971,0.131113 -0.222547,0.258777 0.15009,0.524453 c 0.150248,0.223139 0.303742,0.444391 0.453721,0.667643 l 0.281204,-0.193219 0.08798,0.148365 0.298456,-0.151816 0.08281,0.119038 0.276028,0.03278 0.138014,0.205295 -0.132839,0.3208853 0.163892,0.2467 -0.05521,0.391615 0.108686,0.300181 -0.132838,0.231173 c -0.03077,0.173908 -0.05878,0.338947 -0.07936,0.514103 0.05598,0.247357 0.111051,0.495047 0.162167,0.743551 l 0.01208,0.388165 -0.02243,0.194945 0.151815,0.01898 0.23635,-0.120762 0.2656775,0.03106 0.453722,-0.410592 -0.03106,-0.162166 0.29673,-0.212197 -0.172517,-0.248425 0.258777,-0.167342 0.246699,-0.119037 0.117312,-0.105236 -0.03623,-0.270853 0.07936,-0.664192 0.22945,-0.388166 0.25705,-0.227724 0.320884,-0.5934613 0.01898,-0.167342 c -0.124857,0.0011 -0.244364,0.0021 -0.365737,-0.0035 l 0.70883,-0.657076 0.369187,-0.193219 0.207021,-0.19322 0.02588,-0.232899 c -0.03163,-0.08431 -0.06297,-0.176189 -0.09489,-0.260513 l -0.182869,0.177693 -0.106961,-0.162166 -0.162165,-0.169068 0.03278,-0.301906 0.181143,0.269128 0.241526,0 c 0.09546,0.112865 0.188474,0.212993 0.269127,0.338135 l 0.172521,-0.156991 c 0.02224,-0.189276 -0.318255,-0.959474 -0.673776,-1.803982 -0.355546,-0.844248 -1.057532,-1.663071 -1.057532,-1.663071 l -0.06901,0.100061 -0.238075,0.210471 -0.232898,-0.317432 0.267402,0.03278 0.139739,-0.120762 -0.483049,-0.156991 z m -1.7044755,0.398515 -0.01898,0.156991 0.07591,0.108686 -0.02933,0.234624 -0.08453,0.307082 0.253601,-0.01898 0.203571,-0.163892 -0.144915,-0.177693 c -0.03556,-0.149676 -0.07306,-0.284172 -0.122487,-0.429569 z m -0.244975,0.288105 -0.156991,0.03278 0.0035,0.288104 0.213922,-0.08453 z m 2.7250115,2.716601 0.19667,0.30018 0.205296,0.63659 0.14664,0.217373 -0.539764,0.627747 0.131113,0.201846 c -0.07035,-0.0036 -0.140464,-0.0069 -0.212196,-0.01553 -0.09726,-0.297015 -0.166516,-0.592542 -0.231174,-0.898817 l -0.146639,-0.215647 -0.05521,-0.362287 z"
     id="path4140-2"
     inkscape:connector-curvature="0"
     sodipodi:nodetypes="cccccccccccccccccccccccccccccccccccccccccccccccccccccccccccccccccccccccccccccccccccccccccccccccccccccccccccccccccccccccccccccccccccccccccccccccccccccccccccccccccccccccccccccccccccccccccccccccccccccccccccccccccccccccccccccccccccccccccccccccccccccccccccccccccccccccccccccccccccccccccccccccccccccccccccccc" />
</svg>
