<?xml version="1.0" encoding="UTF-8" standalone="no"?>
<!-- Created with Inkscape (http://www.inkscape.org/) -->

<svg
   xmlns:dc="http://purl.org/dc/elements/1.1/"
   xmlns:cc="http://creativecommons.org/ns#"
   xmlns:rdf="http://www.w3.org/1999/02/22-rdf-syntax-ns#"
   xmlns:svg="http://www.w3.org/2000/svg"
   xmlns="http://www.w3.org/2000/svg"
   xmlns:sodipodi="http://sodipodi.sourceforge.net/DTD/sodipodi-0.dtd"
   xmlns:inkscape="http://www.inkscape.org/namespaces/inkscape"
   version="1.0"
   width="32"
   height="32"
   id="svg3540"
   inkscape:version="0.91 r13725"
   sodipodi:docname="applications-other.svg">
  <metadata
     id="metadata174409">
    <rdf:RDF>
      <cc:Work
         rdf:about="">
        <dc:format>image/svg+xml</dc:format>
        <dc:type
           rdf:resource="http://purl.org/dc/dcmitype/StillImage" />
        <dc:title />
      </cc:Work>
    </rdf:RDF>
  </metadata>
  <sodipodi:namedview
     pagecolor="#ffffff"
     bordercolor="#666666"
     borderopacity="1"
     objecttolerance="10"
     gridtolerance="10"
     guidetolerance="10"
     inkscape:pageopacity="0"
     inkscape:pageshadow="2"
     inkscape:window-width="1440"
     inkscape:window-height="854"
     id="namedview174407"
     showgrid="false"
     inkscape:zoom="2.9169743"
     inkscape:cx="-17.067203"
     inkscape:cy="37.885986"
     inkscape:window-x="0"
     inkscape:window-y="0"
     inkscape:window-maximized="1"
     inkscape:current-layer="svg3540"
     inkscape:snap-object-midpoints="true"
     inkscape:snap-center="true" />
  <defs
     id="defs3542" />
  <path
     inkscape:connector-curvature="0"
     style="opacity:1;fill:#8c8c8c;fill-opacity:1;fill-rule:evenodd;stroke:none;stroke-width:1;stroke-linecap:square;stroke-linejoin:miter;stroke-miterlimit:4;stroke-dasharray:none;stroke-opacity:1"
     d="M 16,1 C 7.7157304,1 1,7.7157282 1,16 1,24.28427 7.7157304,31 16,31 24.28427,31 31,24.28427 31,16 31,7.7157282 24.28427,1 16,1 Z"
     id="path4187-2-0"
     sodipodi:nodetypes="sssss" />
  <path
     sodipodi:nodetypes="sssss"
     inkscape:connector-curvature="0"
     style="opacity:1;fill:#ffffff;fill-opacity:1;fill-rule:evenodd;stroke:none;stroke-width:1;stroke-linecap:square;stroke-linejoin:miter;stroke-miterlimit:4;stroke-dasharray:none;stroke-opacity:1"
     d="M 16,2 C 8.2680144,2 2,8.2680133 2,16 2,23.731985 8.2680144,30 16,30 23.731985,30 30,23.731985 30,16 30,8.2680133 23.731985,2 16,2 Z"
     id="path4135" />
  <rect
     y="-11"
     x="14"
     height="4"
     width="4"
     id="rect4184"
     style="opacity:1;fill:#8c8c8c;fill-opacity:1;stroke:none;stroke-width:1;stroke-linecap:round;stroke-miterlimit:4;stroke-dasharray:none;stroke-opacity:1"
     transform="matrix(0,1,-1,0,0,0)" />
  <rect
     transform="matrix(0,1,-1,0,0,0)"
     style="opacity:1;fill:#8c8c8c;fill-opacity:1;stroke:none;stroke-width:1;stroke-linecap:round;stroke-miterlimit:4;stroke-dasharray:none;stroke-opacity:1"
     id="rect4137"
     width="4"
     height="4"
     x="14"
     y="-18" />
  <rect
     y="-25"
     x="14"
     height="4"
     width="4"
     id="rect4139"
     style="opacity:1;fill:#8c8c8c;fill-opacity:1;stroke:none;stroke-width:1;stroke-linecap:round;stroke-miterlimit:4;stroke-dasharray:none;stroke-opacity:1"
     transform="matrix(0,1,-1,0,0,0)" />
</svg>
