<?xml version="1.0" encoding="UTF-8" standalone="no"?>
<!-- Created with Inkscape (http://www.inkscape.org/) -->

<svg
   xmlns:dc="http://purl.org/dc/elements/1.1/"
   xmlns:cc="http://creativecommons.org/ns#"
   xmlns:rdf="http://www.w3.org/1999/02/22-rdf-syntax-ns#"
   xmlns:svg="http://www.w3.org/2000/svg"
   xmlns="http://www.w3.org/2000/svg"
   xmlns:sodipodi="http://sodipodi.sourceforge.net/DTD/sodipodi-0.dtd"
   xmlns:inkscape="http://www.inkscape.org/namespaces/inkscape"
   version="1.0"
   width="32"
   height="32"
   id="svg3540"
   inkscape:version="0.91 r13725"
   sodipodi:docname="preferences-desktop.svg">
  <metadata
     id="metadata174409">
    <rdf:RDF>
      <cc:Work
         rdf:about="">
        <dc:format>image/svg+xml</dc:format>
        <dc:type
           rdf:resource="http://purl.org/dc/dcmitype/StillImage" />
        <dc:title />
      </cc:Work>
    </rdf:RDF>
  </metadata>
  <sodipodi:namedview
     pagecolor="#ffffff"
     bordercolor="#666666"
     borderopacity="1"
     objecttolerance="10"
     gridtolerance="10"
     guidetolerance="10"
     inkscape:pageopacity="0"
     inkscape:pageshadow="2"
     inkscape:window-width="1440"
     inkscape:window-height="854"
     id="namedview174407"
     showgrid="false"
     inkscape:zoom="5.8339485"
     inkscape:cx="35.023612"
     inkscape:cy="13.409843"
     inkscape:window-x="0"
     inkscape:window-y="0"
     inkscape:window-maximized="1"
     inkscape:current-layer="svg3540"
     showguides="false" />
  <defs
     id="defs3542" />
  <path
     style="opacity:1;fill:#8c8c8c;fill-opacity:1;stroke:none;stroke-width:1;stroke-linecap:round;stroke-miterlimit:4;stroke-dasharray:none;stroke-opacity:1"
     d="M 12 2 L 12 5.2265625 A 11.5 11.5 0 0 0 11.216797 5.5585938 L 8.9296875 3.2714844 L 3.2714844 8.9296875 L 5.5566406 11.214844 A 11.5 11.5 0 0 0 5.234375 12 L 2 12 L 2 20 L 5.2265625 20 A 11.5 11.5 0 0 0 5.5585938 20.783203 L 3.2714844 23.070312 L 8.9296875 28.728516 L 11.214844 26.443359 A 11.5 11.5 0 0 0 12 26.765625 L 12 30 L 20 30 L 20 26.773438 A 11.5 11.5 0 0 0 20.783203 26.441406 L 23.070312 28.728516 L 28.728516 23.070312 L 26.443359 20.785156 A 11.5 11.5 0 0 0 26.765625 20 L 30 20 L 30 12 L 26.773438 12 A 11.5 11.5 0 0 0 26.441406 11.216797 L 28.728516 8.9296875 L 23.070312 3.2714844 L 20.785156 5.5566406 A 11.5 11.5 0 0 0 20 5.234375 L 20 2 L 12 2 z M 16 12 A 4 4 0 0 1 20 16 A 4 4 0 0 1 16 20 A 4 4 0 0 1 12 16 A 4 4 0 0 1 16 12 z "
     id="rect4143" />
  <path
     style="opacity:1;fill:#ffffff;fill-opacity:1;stroke:none;stroke-width:1;stroke-linecap:round;stroke-miterlimit:4;stroke-dasharray:none;stroke-opacity:1"
     d="M 13 3 L 13 6.4726562 A 10 10 0 0 0 11.380859 7.1367188 L 8.9296875 4.6855469 L 4.6855469 8.9296875 L 7.1386719 11.382812 A 10 10 0 0 0 6.4628906 13 L 3 13 L 3 19 L 6.4726562 19 A 10 10 0 0 0 7.1367188 20.619141 L 4.6855469 23.070312 L 8.9296875 27.314453 L 11.382812 24.861328 A 10 10 0 0 0 13 25.537109 L 13 29 L 19 29 L 19 25.527344 A 10 10 0 0 0 20.619141 24.863281 L 23.070312 27.314453 L 27.314453 23.070312 L 24.861328 20.617188 A 10 10 0 0 0 25.537109 19 L 29 19 L 29 13 L 25.527344 13 A 10 10 0 0 0 24.863281 11.380859 L 27.314453 8.9296875 L 23.070312 4.6855469 L 20.617188 7.1386719 A 10 10 0 0 0 19 6.4628906 L 19 3 L 13 3 z M 16 12 A 4 4 0 0 1 20 16 A 4 4 0 0 1 16 20 A 4 4 0 0 1 12 16 A 4 4 0 0 1 16 12 z "
     id="rect4151" />
  <path
     style="opacity:1;fill:#8c8c8c;fill-opacity:1;stroke:none;stroke-width:1;stroke-linecap:round;stroke-miterlimit:4;stroke-dasharray:none;stroke-opacity:1"
     d="M 16 11 A 5 5 0 0 0 11 16 A 5 5 0 0 0 16 21 A 5 5 0 0 0 21 16 A 5 5 0 0 0 16 11 z M 16 12 A 4 4 0 0 1 20 16 A 4 4 0 0 1 16 20 A 4 4 0 0 1 12 16 A 4 4 0 0 1 16 12 z "
     id="path4163" />
</svg>
