<?xml version="1.0" encoding="UTF-8" standalone="no"?>
<!-- Created with Inkscape (http://www.inkscape.org/) -->

<svg
   xmlns:dc="http://purl.org/dc/elements/1.1/"
   xmlns:cc="http://creativecommons.org/ns#"
   xmlns:rdf="http://www.w3.org/1999/02/22-rdf-syntax-ns#"
   xmlns:svg="http://www.w3.org/2000/svg"
   xmlns="http://www.w3.org/2000/svg"
   xmlns:sodipodi="http://sodipodi.sourceforge.net/DTD/sodipodi-0.dtd"
   xmlns:inkscape="http://www.inkscape.org/namespaces/inkscape"
   width="16"
   height="16"
   id="svg2"
   sodipodi:version="0.32"
   inkscape:version="0.91 r13725"
   version="1.0"
   sodipodi:docname="drive-removable-media-symbolic.svg"
   inkscape:output_extension="org.inkscape.output.svg.inkscape">
  <defs
     id="defs4" />
  <sodipodi:namedview
     id="base"
     pagecolor="#ffffff"
     bordercolor="#666666"
     borderopacity="1.0"
     gridtolerance="10000"
     guidetolerance="10"
     objecttolerance="10"
     inkscape:pageopacity="0.0"
     inkscape:pageshadow="2"
     inkscape:zoom="27.885711"
     inkscape:cx="1.5017565"
     inkscape:cy="5.0490526"
     inkscape:document-units="px"
     inkscape:current-layer="layer1"
     showgrid="false"
     inkscape:window-width="1165"
     inkscape:window-height="720"
     inkscape:window-x="141"
     inkscape:window-y="127"
     inkscape:window-maximized="0"
     showguides="true"
     inkscape:guide-bbox="true" />
  <metadata
     id="metadata7">
    <rdf:RDF>
      <cc:Work
         rdf:about="">
        <dc:format>image/svg+xml</dc:format>
        <dc:type
           rdf:resource="http://purl.org/dc/dcmitype/StillImage" />
        <dc:title />
      </cc:Work>
    </rdf:RDF>
  </metadata>
  <g
     inkscape:label="Layer 1"
     inkscape:groupmode="layer"
     id="layer1"
     transform="translate(0,-8)">
    <path
       style="opacity:1;fill:#8C8C8C;fill-opacity:1;fill-rule:evenodd;stroke:none;stroke-width:1;stroke-linecap:square;stroke-linejoin:miter;stroke-miterlimit:4;stroke-dasharray:none;stroke-opacity:1"
       d="M 2.5 1 L 1 15 L 15 15 L 13.5 1 L 2.5 1 z M 7.9628906 2.3300781 L 9.4375 4.0996094 L 8.5527344 4.0996094 L 8.5527344 6.5664062 C 9.1590258 6.5449323 9.5067279 6.2338221 9.9902344 5.7207031 C 10.028842 5.6442771 10.081711 5.4780634 10.119141 5.3339844 L 10.119141 5.2773438 L 9.7324219 5.2773438 L 9.7324219 4.0996094 L 11.5 4.0996094 L 11.5 5.2773438 L 11.205078 5.2773438 C 11.205078 5.2773438 11.101811 5.72065 10.978516 5.90625 C 10.624767 6.438762 10.143664 6.9303391 9.5664062 7.2050781 C 9.2577943 7.3519891 8.5527344 7.3535156 8.5527344 7.3535156 L 8.5527344 8.6484375 L 8.5527344 10.03125 C 8.9039016 10.184368 9.1425781 10.458559 9.1425781 10.785156 C 9.1425781 11.273493 8.6140049 11.669922 7.9628906 11.669922 C 7.3117756 11.669922 6.7851562 11.273493 6.7851562 10.785156 C 6.7851563 10.458559 7.0218798 10.184368 7.3730469 10.03125 L 7.3730469 9.2011719 L 7.3730469 8.4824219 C 6.3976034 8.3073999 5.4541408 7.681994 5.0898438 6.4375 C 4.7410822 6.340238 4.5 6.1149924 4.5 5.8496094 C 4.5 5.4957664 4.9399016 5.2050781 5.4765625 5.2050781 C 6.0132236 5.2050781 6.4335938 5.4957664 6.4335938 5.8496094 C 6.4335938 6.0694534 6.2656684 6.2674205 6.0097656 6.3828125 L 6.0292969 6.4570312 C 6.1096486 6.9044253 6.3793003 7.2731573 6.8027344 7.4882812 C 6.9200425 7.5478692 7.0689259 7.5978477 7.2070312 7.6367188 C 7.3018808 7.6634287 7.3136929 7.664575 7.3730469 7.671875 L 7.3730469 4.0996094 L 6.4902344 4.0996094 L 7.9628906 2.3300781 z M 2 13 L 14 13 L 14 14 L 2 14 L 2 13 z "
       transform="translate(0,8)"
       id="rect4243" />
  </g>
</svg>
