<?xml version="1.0" encoding="UTF-8" standalone="no"?>
<!-- Created with Inkscape (http://www.inkscape.org/) -->

<svg
   xmlns:dc="http://purl.org/dc/elements/1.1/"
   xmlns:cc="http://creativecommons.org/ns#"
   xmlns:rdf="http://www.w3.org/1999/02/22-rdf-syntax-ns#"
   xmlns:svg="http://www.w3.org/2000/svg"
   xmlns="http://www.w3.org/2000/svg"
   xmlns:sodipodi="http://sodipodi.sourceforge.net/DTD/sodipodi-0.dtd"
   xmlns:inkscape="http://www.inkscape.org/namespaces/inkscape"
   id="svg7384"
   height="16"
   width="16"
   version="1.1"
   inkscape:version="0.91 r13725"
   sodipodi:docname="folder-videos-symbolic.svg">
  <defs
     id="defs10" />
  <sodipodi:namedview
     pagecolor="#ffffff"
     bordercolor="#666666"
     borderopacity="1"
     objecttolerance="10"
     gridtolerance="10"
     guidetolerance="10"
     inkscape:pageopacity="0"
     inkscape:pageshadow="2"
     inkscape:window-width="1116"
     inkscape:window-height="609"
     id="namedview8"
     showgrid="false"
     inkscape:zoom="22.627417"
     inkscape:cx="6.7558187"
     inkscape:cy="11.679716"
     inkscape:window-x="427"
     inkscape:window-y="85"
     inkscape:window-maximized="0"
     inkscape:current-layer="svg7384"
     showguides="true"
     inkscape:guide-bbox="true" />
  <metadata
     id="metadata90">
    <rdf:RDF>
      <cc:Work
         rdf:about="">
        <dc:format>image/svg+xml</dc:format>
        <dc:type
           rdf:resource="http://purl.org/dc/dcmitype/StillImage" />
        <dc:title>Gnome Symbolic Icon Theme</dc:title>
      </cc:Work>
    </rdf:RDF>
  </metadata>
  <title
     id="title9167">Gnome Symbolic Icon Theme</title>
  <g
     id="layer13"
     transform="matrix(0,-0.87497266,0.87497266,0,-154.3896,401.63133)">
    <g
       id="g14154"
       transform="matrix(1.0343423,0,0,1,226.18678,-820)" />
    <path
       style="fill:#bebebe"
       d="M 6,2.8500027e-6 6,15 l 8.999997,0 0,-3.999998 -3.999997,0 0,3 -1,0 0,-2e-6 -1,0 0,2e-6 -1,0 0,-9.0000014 6.999997,0 0,-4.9999977499973 z M 9,6 9,7 10,7 10,6 z m 2,0 0,4.000002 3.999997,0 0,-4.000002 z m -2,2 0,1 1,0 0,-1 z m 0,2 0,1 1,0 0,-1 z m -2.4e-6,2.000002 0,1 1.0000024,0 0,-1 z"
       transform="matrix(0,1.1428929,-1.1428929,0,459.02158,175.30788)"
       id="path4925"
       inkscape:connector-curvature="0"
       sodipodi:nodetypes="cccccccccccccccccccccccccccccccccccccccc" />
  </g>
  <rect
     style="fill:#bebebe;fill-opacity:1;stroke:none"
     id="rect3200"
     width="2"
     height="15"
     x="1.9999905"
     y="1.9984014e-15"
     rx="0.5"
     ry="0.5" />
  <rect
     style="fill:#bebebe;fill-opacity:1;stroke:none"
     id="rect3202"
     width="2"
     height="7"
     x="1"
     y="7.9999866"
     rx="0.5"
     ry="0.5" />
  <path
     style="fill:#bebebe;fill-opacity:1;stroke:none"
     d="M 3,2 2,2 2,8 1.75,10 1,10 1,15 2,15 3,15 4,15 4,0 3,0 z"
     id="rect3674"
     inkscape:connector-curvature="0"
     sodipodi:nodetypes="cccccccccccc" />
</svg>
