<?xml version="1.0" encoding="UTF-8" standalone="no"?>
<!-- Created with Inkscape (http://www.inkscape.org/) -->

<svg
   xmlns:dc="http://purl.org/dc/elements/1.1/"
   xmlns:cc="http://creativecommons.org/ns#"
   xmlns:rdf="http://www.w3.org/1999/02/22-rdf-syntax-ns#"
   xmlns:svg="http://www.w3.org/2000/svg"
   xmlns="http://www.w3.org/2000/svg"
   xmlns:sodipodi="http://sodipodi.sourceforge.net/DTD/sodipodi-0.dtd"
   xmlns:inkscape="http://www.inkscape.org/namespaces/inkscape"
   id="svg7384"
   height="16"
   width="16"
   version="1.1"
   inkscape:version="0.91 r13725"
   sodipodi:docname="folder-templates.svg">
  <defs
     id="defs10" />
  <sodipodi:namedview
     pagecolor="#ffffff"
     bordercolor="#666666"
     borderopacity="1"
     objecttolerance="10"
     gridtolerance="10"
     guidetolerance="10"
     inkscape:pageopacity="1"
     inkscape:pageshadow="2"
     inkscape:window-width="1440"
     inkscape:window-height="852"
     id="namedview8"
     showgrid="false"
     inkscape:zoom="14.959728"
     inkscape:cx="4.3601992"
     inkscape:cy="13.954693"
     inkscape:window-x="0"
     inkscape:window-y="0"
     inkscape:window-maximized="1"
     inkscape:current-layer="layer13" />
  <metadata
     id="metadata90">
    <rdf:RDF>
      <cc:Work
         rdf:about="">
        <dc:format>image/svg+xml</dc:format>
        <dc:type
           rdf:resource="http://purl.org/dc/dcmitype/StillImage" />
        <dc:title>Gnome Symbolic Icon Theme</dc:title>
      </cc:Work>
    </rdf:RDF>
  </metadata>
  <title
     id="title9167">Gnome Symbolic Icon Theme</title>
  <g
     id="layer13"
     transform="matrix(0,-0.87497266,0.87497266,0,-153.3896,401.63133)">
    <path
       sodipodi:nodetypes="ccccc"
       inkscape:connector-curvature="0"
       d="m 181.02234,-459.02158 0,17.1434 10.28604,0 0,-17.1434 z"
       style="fill:#8C8C8C;fill-opacity:1;stroke:none"
       id="path4158"
       transform="matrix(0,1,-1,0,0,0)" />
    <path
       style="fill:#8C8C8C;fill-opacity:1;stroke:none"
       d="m 459.02158,177.59362 -9.14314,0 0,-1.14285 -8.00026,0 0,3.42865 17.1434,0 z"
       id="rect3967"
       inkscape:connector-curvature="0"
       sodipodi:nodetypes="ccccccc" />
    <path
       inkscape:connector-curvature="0"
       style="fill:#ffffff;fill-opacity:1;stroke:none"
       d="m 454.45001,187.8797 -1.1429,0 0,1.14289 -1.14289,0 0,-1.14289 -1.14289,0 0,1.14289 -1.14289,0 0,-1.14289 -1.1429,0 0,1.14289 -1.14289,0 0,-1.14289 -1.14289,0 0,1.14289 -1.1429,0 0,-1.14289 -1.14289,0 0,-1.14289 1.14289,0 0,-1.1429 -1.14289,0 0,-1.14289 1.14289,0 0,-1.14289 -2.28578,0 0,2.28578 0,2.28579 0,2.28578 2.28578,0 2.28579,0 2.28579,0 2.28578,0 2.28579,0 0,-2.28578 z"
       id="path4158-4" />
  </g>
</svg>
