<?xml version="1.0" encoding="UTF-8" standalone="no"?>
<!-- Created with Inkscape (http://www.inkscape.org/) -->

<svg
   xmlns:dc="http://purl.org/dc/elements/1.1/"
   xmlns:cc="http://creativecommons.org/ns#"
   xmlns:rdf="http://www.w3.org/1999/02/22-rdf-syntax-ns#"
   xmlns:svg="http://www.w3.org/2000/svg"
   xmlns="http://www.w3.org/2000/svg"
   xmlns:sodipodi="http://sodipodi.sourceforge.net/DTD/sodipodi-0.dtd"
   xmlns:inkscape="http://www.inkscape.org/namespaces/inkscape"
   id="svg3814"
   height="24"
   width="24"
   version="1.1"
   inkscape:version="0.91 r13725"
   sodipodi:docname="audio-output-none-panel.svg">
  <defs
     id="defs11" />
  <sodipodi:namedview
     pagecolor="#ffffff"
     bordercolor="#666666"
     borderopacity="1"
     objecttolerance="10"
     gridtolerance="10"
     guidetolerance="10"
     inkscape:pageopacity="0"
     inkscape:pageshadow="2"
     inkscape:window-width="640"
     inkscape:window-height="480"
     id="namedview9" />
  <metadata
     id="metadata3819">
    <rdf:RDF>
      <cc:Work
         rdf:about="">
        <dc:format>image/svg+xml</dc:format>
        <dc:type
           rdf:resource="http://purl.org/dc/dcmitype/StillImage" />
        <dc:title />
      </cc:Work>
    </rdf:RDF>
  </metadata>
  <g
     id="layer1"
     transform="translate(0,8)">
    <path
       id="rect3180-0"
       d="m8.0134 0c-0.30522 0-0.56653 0.12796-0.75 0.34375l-2.25 2.6562h-2c-0.552 0-1 0.448-1 1-0.00627 0.99607 0.00222 2.0145 0 3 0 0.552 0.448 1 1 1h2l2.1562 2.4688c0.1714 0.305 0.4693 0.531 0.8438 0.531 0.552 0 1-0.448 1-1v-9c0-0.552-0.448-1-1-1z"
       style="opacity:.3;fill-rule:evenodd" />
    <path
       id="rect3180"
       d="m8.0134-1c-0.30522 0-0.56653 0.12796-0.75 0.34375l-2.25 2.6562h-2c-0.552 0-1 0.448-1 1-0.00627 0.99607 0.00222 2.0145 0 3 0 0.552 0.448 1 1 1h2l2.1562 2.4688c0.1714 0.3049 0.4693 0.5312 0.8438 0.5312 0.552 0 1-0.448 1-1v-9c0-0.552-0.448-1-1-1z"
       style="fill-rule:evenodd;fill:#dfdbd2" />
    <path
       id="path3200"
       style="stroke:#dfd8c8;stroke-linecap:round;stroke-width:1px;fill:none"
       d="m11.512 4.4937h2.0005m1.9995 0h2.0005m1.9995 0h2.0005" />
    <path
       id="path3200-7"
       style="opacity:.3;stroke:#000;stroke-linecap:round;stroke-width:1px;fill:none"
       d="m11.512 5.5h2.0005m1.9995 0h2.0005m1.9995 0h2.0005" />
  </g>
</svg>
