<?xml version="1.0" encoding="UTF-8" standalone="no"?>
<!-- Created with Inkscape (http://www.inkscape.org/) -->

<svg
   xmlns:dc="http://purl.org/dc/elements/1.1/"
   xmlns:cc="http://creativecommons.org/ns#"
   xmlns:rdf="http://www.w3.org/1999/02/22-rdf-syntax-ns#"
   xmlns:svg="http://www.w3.org/2000/svg"
   xmlns="http://www.w3.org/2000/svg"
   xmlns:sodipodi="http://sodipodi.sourceforge.net/DTD/sodipodi-0.dtd"
   xmlns:inkscape="http://www.inkscape.org/namespaces/inkscape"
   id="svg3200"
   height="24"
   width="24"
   version="1.0"
   inkscape:version="0.91 r13725"
   sodipodi:docname="nm-no-connection.svg">
  <defs
     id="defs8" />
  <sodipodi:namedview
     pagecolor="#ffffff"
     bordercolor="#666666"
     borderopacity="1"
     objecttolerance="10"
     gridtolerance="10"
     guidetolerance="10"
     inkscape:pageopacity="0"
     inkscape:pageshadow="2"
     inkscape:window-width="1440"
     inkscape:window-height="854"
     id="namedview6"
     showgrid="false"
     inkscape:zoom="6.9532168"
     inkscape:cx="29.426344"
     inkscape:cy="15.184973"
     inkscape:window-x="0"
     inkscape:window-y="0"
     inkscape:window-maximized="1"
     inkscape:current-layer="svg3200"
     inkscape:snap-object-midpoints="true"
     inkscape:snap-center="true" />
  <metadata
     id="metadata8">
    <rdf:RDF>
      <cc:Work
         rdf:about="">
        <dc:format>image/svg+xml</dc:format>
        <dc:type
           rdf:resource="http://purl.org/dc/dcmitype/StillImage" />
        <dc:title />
      </cc:Work>
    </rdf:RDF>
  </metadata>
  <path
     inkscape:connector-curvature="0"
     style="fill:#e1e1e1;fill-opacity:1;fill-rule:nonzero;stroke:none"
     d="m 10,17 0,1 -4.75,0 0,1 4.75,0 4,0 4.75,0 0,-1 -4.75,0 -1,0 0,-1 -3,0 z"
     id="path6972-6-6" />
  <path
     inkscape:connector-curvature="0"
     style="opacity:1;fill:#e1e1e1;fill-opacity:1;stroke:none;stroke-width:1;stroke-linecap:round;stroke-miterlimit:4;stroke-dasharray:none;stroke-opacity:1"
     d="M 12,5.3378915 A 12.734306,12.734306 0 0 0 3,9.0722665 L 4.287109,10.359376 A 10.91512,10.91512 0 0 1 12,7.1582035 a 10.91512,10.91512 0 0 1 4.191406,0.841797 l 3.56836,0 A 12.734306,12.734306 0 0 0 12,5.3378915 Z"
     id="path6974-8-4" />
  <path
     inkscape:connector-curvature="0"
     style="opacity:1;fill:#e1e1e1;fill-opacity:1;stroke:none;stroke-width:1;stroke-linecap:round;stroke-miterlimit:4;stroke-dasharray:none;stroke-opacity:1"
     d="M 12,8.9765635 A 9.095933,9.095933 0 0 0 5.572265,11.644532 l 1.28711,1.28711 A 7.2767464,7.2767464 0 0 1 12,10.794923 a 7.2767464,7.2767464 0 0 1 1,0.07813 l 0,-1.8320315 a 9.095933,9.095933 0 0 0 -1,-0.06445 z"
     id="path6976-8-1" />
  <path
     inkscape:connector-curvature="0"
     style="opacity:1;fill:#e1e1e1;fill-opacity:1;stroke:none;stroke-width:1;stroke-linecap:round;stroke-miterlimit:4;stroke-dasharray:none;stroke-opacity:1"
     d="m 12,12.615235 a 5.4575598,5.4575598 0 0 0 -3.855469,1.601563 l 1.283203,1.283203 A 3.6383733,3.6383733 0 0 1 12,14.433595 a 3.6383733,3.6383733 0 0 1 1,0.144531 l 0,-1.869141 a 5.4575598,5.4575598 0 0 0 -1,-0.09375 z"
     id="path6978-5-5" />
  <rect
     style="opacity:1;fill:#d64242;fill-opacity:1;stroke:none;stroke-width:1;stroke-linecap:round;stroke-miterlimit:4;stroke-dasharray:none;stroke-opacity:1"
     id="rect4136-9"
     width="8"
     height="8"
     x="14"
     y="9.0000019" />
  <rect
     style="opacity:1;fill:#ffffff;fill-opacity:1;stroke:none;stroke-width:1;stroke-linecap:round;stroke-miterlimit:4;stroke-dasharray:none;stroke-opacity:1"
     id="rect4138-8"
     width="1"
     height="6"
     x="3.0355327"
     y="18.920315"
     transform="matrix(0.70710678,-0.70710678,0.70710678,0.70710678,0,0)" />
  <rect
     y="-6.5355325"
     x="21.420315"
     height="6"
     width="1"
     id="rect4140-1"
     style="opacity:1;fill:#ffffff;fill-opacity:1;stroke:none;stroke-width:1;stroke-linecap:round;stroke-miterlimit:4;stroke-dasharray:none;stroke-opacity:1"
     transform="matrix(0.70710678,0.70710678,-0.70710678,0.70710678,0,0)" />
</svg>
