<?xml version="1.0" encoding="UTF-8" standalone="no"?>
<!-- Created with Inkscape (http://www.inkscape.org/) -->

<svg
   xmlns:dc="http://purl.org/dc/elements/1.1/"
   xmlns:cc="http://creativecommons.org/ns#"
   xmlns:rdf="http://www.w3.org/1999/02/22-rdf-syntax-ns#"
   xmlns:svg="http://www.w3.org/2000/svg"
   xmlns="http://www.w3.org/2000/svg"
   xmlns:sodipodi="http://sodipodi.sourceforge.net/DTD/sodipodi-0.dtd"
   xmlns:inkscape="http://www.inkscape.org/namespaces/inkscape"
   id="svg3340"
   height="24"
   width="24"
   version="1.0"
   inkscape:version="0.91 r13725"
   sodipodi:docname="nm-vpn-standalone-lock.svg">
  <defs
     id="defs9" />
  <sodipodi:namedview
     pagecolor="#ffffff"
     bordercolor="#666666"
     borderopacity="1"
     objecttolerance="10"
     gridtolerance="10"
     guidetolerance="10"
     inkscape:pageopacity="0"
     inkscape:pageshadow="2"
     inkscape:window-width="640"
     inkscape:window-height="480"
     id="namedview7" />
  <metadata
     id="metadata10">
    <rdf:RDF>
      <cc:Work
         rdf:about="">
        <dc:format>image/svg+xml</dc:format>
        <dc:type
           rdf:resource="http://purl.org/dc/dcmitype/StillImage" />
        <dc:title />
      </cc:Work>
    </rdf:RDF>
  </metadata>
  <path
     id="rect2822-7"
     d="m11 4c-2.216 0-4 1.784-4 4v3h-1c-0.554 0-1 0.446-1 1v9c0 0.554 0.446 1 1 1h12c0.554 0 1-0.446 1-1v-9c0-0.554-0.446-1-1-1h-1v-3c0-2.216-1.784-4-4-4h-2zm0 2h2c1.108 0 2 0.892 2 2v3h-6v-3c0-1.108 0.892-2 2-2z"
     style="opacity:.3;fill-rule:evenodd" />
  <path
     id="rect2822"
     d="m11 2.9831c-2.216 0-4 1.784-4 4v3h-1c-0.554 0-1 0.446-1 1v9c0 0.554 0.446 1 1 1h12c0.554 0 1-0.446 1-1v-9c0-0.554-0.446-1-1-1h-1v-3c0-2.216-1.784-4-4-4h-2zm0 2h2c1.108 0 2 0.892 2 2v3h-6v-3c0-1.108 0.892-2 2-2z"
     style="fill-rule:evenodd;fill:#dfdbd2" />
  <path
     id="path3337"
     d="m11 5.2018c0.84415 0.030316 1.7017-0.073098 2.5341 0.079067 0.9056 0.24399 1.3474 1.2115 1.2472 2.0881v2.3953h-5.5625c0.0188-1.0474-0.0407-2.0998 0.0357-3.1436 0.148-0.8152 0.9185-1.4365 1.7455-1.4189z"
     style="opacity:.3;stroke:#fff;stroke-width:.5;fill:none" />
</svg>
