<?xml version="1.0" encoding="UTF-8" standalone="no"?>
<!-- Created with Inkscape (http://www.inkscape.org/) -->

<svg
   xmlns:dc="http://purl.org/dc/elements/1.1/"
   xmlns:cc="http://creativecommons.org/ns#"
   xmlns:rdf="http://www.w3.org/1999/02/22-rdf-syntax-ns#"
   xmlns:svg="http://www.w3.org/2000/svg"
   xmlns="http://www.w3.org/2000/svg"
   xmlns:xlink="http://www.w3.org/1999/xlink"
   xmlns:sodipodi="http://sodipodi.sourceforge.net/DTD/sodipodi-0.dtd"
   xmlns:inkscape="http://www.inkscape.org/namespaces/inkscape"
   version="1.0"
   width="64"
   height="64"
   id="svg2453"
   inkscape:version="0.91 r13725"
   sodipodi:docname="application-x-gzip.svg">
  <metadata
     id="metadata298222">
    <rdf:RDF>
      <cc:Work
         rdf:about="">
        <dc:format>image/svg+xml</dc:format>
        <dc:type
           rdf:resource="http://purl.org/dc/dcmitype/StillImage" />
        <dc:title />
      </cc:Work>
    </rdf:RDF>
  </metadata>
  <sodipodi:namedview
     pagecolor="#ffffff"
     bordercolor="#666666"
     borderopacity="1"
     objecttolerance="10"
     gridtolerance="10"
     guidetolerance="10"
     inkscape:pageopacity="0"
     inkscape:pageshadow="2"
     inkscape:window-width="1440"
     inkscape:window-height="852"
     id="namedview298220"
     showgrid="false"
     inkscape:zoom="5.656854"
     inkscape:cx="43.253445"
     inkscape:cy="25.757407"
     inkscape:window-x="0"
     inkscape:window-y="0"
     inkscape:window-maximized="1"
     inkscape:current-layer="svg2453"
     inkscape:snap-smooth-nodes="true"
     inkscape:snap-intersection-paths="true"
     inkscape:object-nodes="true" />
  <defs
     id="defs2455">
    <linearGradient
       id="linearGradient4110">
      <stop
         style="stop-color:#efc65b;stop-opacity:1"
         offset="0"
         id="stop4112" />
      <stop
         style="stop-color:#fbd277;stop-opacity:1"
         offset="1"
         id="stop4114" />
    </linearGradient>
    <linearGradient
       inkscape:collect="always"
       xlink:href="#linearGradient4110"
       id="linearGradient4108"
       gradientUnits="userSpaceOnUse"
       gradientTransform="matrix(1.6220276,0,0,0.90601196,-7.91764,21.023807)"
       x1="33.138153"
       y1="31.029055"
       x2="33.138153"
       y2="9.4101439" />
  </defs>
  <path
     style="fill:url(#linearGradient4108);fill-opacity:1"
     d="m 8,16 -3.999888,5 0,39 55.999776,0 0,-39 -4,-5 z"
     id="path4191"
     inkscape:connector-curvature="0"
     sodipodi:nodetypes="ccccccc" />
  <path
     style="fill:#ffffff;fill-opacity:1;stroke:none"
     d="m 29,16 6,0 1,5 0,9 -8,0 0,-9 z"
     id="rect14394"
     inkscape:connector-curvature="0"
     sodipodi:nodetypes="ccccccc" />
  <path
     style="fill:#ffffff;fill-opacity:1;stroke:none"
     d="m 4,21 55.999998,0 0,2 L 4,23 Z"
     id="rect14396"
     inkscape:connector-curvature="0"
     sodipodi:nodetypes="ccccc" />
  <rect
     style="fill:#ffffff;fill-opacity:1;stroke:none"
     id="rect3124"
     width="48"
     height="23"
     x="8"
     y="33.000004" />
  <path
     d="m 30.694832,39.836514 c -0.004,0.685256 0.156028,1.586265 -0.549251,0.5345 -2.170924,-1.671428 -5.735494,-0.407741 -6.460874,2.221367 -0.878914,2.464994 0.440882,5.744228 3.185312,6.226225 1.390436,0.317072 2.955894,-0.110933 3.82481,-1.286093 0.226466,1.905006 -1.651104,3.40683 -3.455093,2.714717 -0.845469,-0.476949 -1.508755,-1.048935 -2.546385,-0.826717 -0.836255,-0.09221 -1.58514,-0.03543 -0.616807,0.91937 1.855705,2.609858 6.680701,2.61905 8.157536,-0.38762 0.788228,-1.991297 0.397681,-4.178753 0.492749,-6.268126 0,-1.282542 0,-2.565082 0,-3.847623 -0.677332,0 -1.354665,0 -2.031997,0 z m -2.656001,1.743999 c 1.94374,-0.122547 3.070574,2.15679 2.378749,3.809998 -0.66752,2.184754 -4.332076,2.040536 -4.74266,-0.244808 -0.464059,-1.607077 0.487837,-3.659749 2.363909,-3.56519 l 2e-6,0 z m 5.7945,7.12 c 2.250666,0 4.501333,0 6.751997,0 0,-0.634667 0,-1.269335 0,-1.904002 -1.402664,0 -2.805329,0 -4.207996,0 1.301332,-1.685333 2.602664,-3.370666 3.903996,-5.056 0,-0.634665 0,-1.269332 0,-1.903997 -1.999999,0 -3.999999,0 -5.999999,0 0,0.634665 0,1.269332 0,1.903997 1.151999,0 2.303999,0 3.455999,0 -1.301332,1.685334 -2.602665,3.370667 -3.903997,5.056 0,0.634667 0,1.269335 0,1.904002 z"
     id="text3329"
     style="font-style:normal;font-variant:normal;font-weight:bold;font-stretch:normal;font-size:12px;line-height:100%;font-family:'URW Gothic L';-inkscape-font-specification:'URW Gothic L Semi-Bold';text-align:start;writing-mode:lr-tb;text-anchor:start;display:inline;opacity:1;fill:#e6b849;fill-opacity:1;stroke:none"
     inkscape:connector-curvature="0" />
</svg>
