<?xml version="1.0" encoding="UTF-8" standalone="no"?>
<!-- Created with Inkscape (http://www.inkscape.org/) -->

<svg
   xmlns:dc="http://purl.org/dc/elements/1.1/"
   xmlns:cc="http://creativecommons.org/ns#"
   xmlns:rdf="http://www.w3.org/1999/02/22-rdf-syntax-ns#"
   xmlns:svg="http://www.w3.org/2000/svg"
   xmlns="http://www.w3.org/2000/svg"
   xmlns:xlink="http://www.w3.org/1999/xlink"
   xmlns:sodipodi="http://sodipodi.sourceforge.net/DTD/sodipodi-0.dtd"
   xmlns:inkscape="http://www.inkscape.org/namespaces/inkscape"
   version="1.0"
   width="64"
   height="64"
   id="svg2466"
   inkscape:version="0.91 r13725"
   sodipodi:docname="application-vnd.ms-powerpoint.svg">
  <metadata
     id="metadata286116">
    <rdf:RDF>
      <cc:Work
         rdf:about="">
        <dc:format>image/svg+xml</dc:format>
        <dc:type
           rdf:resource="http://purl.org/dc/dcmitype/StillImage" />
        <dc:title />
      </cc:Work>
    </rdf:RDF>
  </metadata>
  <sodipodi:namedview
     pagecolor="#ffffff"
     bordercolor="#666666"
     borderopacity="1"
     objecttolerance="10"
     gridtolerance="10"
     guidetolerance="10"
     inkscape:pageopacity="0"
     inkscape:pageshadow="2"
     inkscape:window-width="1140"
     inkscape:window-height="755"
     id="namedview286114"
     showgrid="false"
     inkscape:zoom="3.4766083"
     inkscape:cx="57.988536"
     inkscape:cy="24.010844"
     inkscape:window-x="112"
     inkscape:window-y="21"
     inkscape:window-maximized="0"
     inkscape:current-layer="svg2466"
     inkscape:object-paths="true"
     inkscape:snap-intersection-paths="true"
     inkscape:object-nodes="true"
     inkscape:snap-smooth-nodes="true" />
  <defs
     id="defs2468">
    <linearGradient
       inkscape:collect="always"
       xlink:href="#linearGradient4132-6"
       id="linearGradient4138-0"
       x1="-29.694916"
       y1="44.701263"
       x2="-29.694916"
       y2="0.91525328"
       gradientUnits="userSpaceOnUse"
       gradientTransform="matrix(1.2147059,0,0,1.2806203,68.564703,2.9581416)" />
    <linearGradient
       inkscape:collect="always"
       id="linearGradient4132-6">
      <stop
         style="stop-color:#c6856f;stop-opacity:1"
         offset="0"
         id="stop4134-9" />
      <stop
         style="stop-color:#d8b79d;stop-opacity:1"
         offset="1"
         id="stop4136-8" />
    </linearGradient>
  </defs>
  <rect
     style="fill:#b96c40;fill-opacity:1;stroke:none"
     id="rect4154-0"
     width="46"
     height="60"
     x="9"
     y="2" />
  <rect
     y="3"
     x="10"
     height="58"
     width="44"
     id="rect4150-2"
     style="fill:#ffffff;fill-opacity:1;stroke:none" />
  <rect
     style="fill:url(#linearGradient4138-0);fill-opacity:1;stroke:none"
     id="rect3362-6"
     width="42"
     height="56"
     x="11"
     y="4.0000019" />
  <rect
     style="fill:#ffffff;fill-opacity:1;stroke:none"
     id="rect4140-7"
     width="30"
     height="2"
     x="17"
     y="13" />
  <rect
     y="20"
     x="17"
     height="2"
     width="30"
     id="rect4142-3"
     style="fill:#ffffff;fill-opacity:1;stroke:none" />
  <rect
     style="fill:#ffffff;fill-opacity:1;stroke:none"
     id="rect4924"
     width="30"
     height="2"
     x="17"
     y="27" />
  <rect
     y="52"
     x="-33"
     height="2"
     width="7"
     id="rect4146-2"
     style="fill:#ffffff;fill-opacity:1;stroke:none"
     transform="scale(-1,1)" />
  <path
     inkscape:connector-curvature="0"
     d="m 39.593059,45.531056 c 1.126558,0.0075 2.432738,0.04746 3.254257,-0.807339 0.628803,-0.767488 0.635653,-1.875249 0.292611,-2.75519 -0.444387,-1.004989 -1.720847,-1.214359 -2.751285,-1.18621 -0.265195,0 -0.530388,0 -0.795583,0 0,1.582912 0,3.165826 0,4.748739 z m 7.406329,-2.538498 c 0.02347,1.603696 -0.626822,3.305323 -2.092634,4.217553 -1.51457,1.003059 -3.418512,1.141284 -5.211175,1.100158 -0.223264,0.023 -0.04578,0.424315 -0.102524,0.604522 0,1.695068 0,3.390139 0,5.085209 -1.197684,0 -2.395369,0 -3.593055,0 0,-5.3323 0,-10.664598 0,-15.996898 1.862977,0.01324 3.727333,-0.02963 5.589253,0.02771 1.784107,0.104277 3.736904,0.691486 4.70401,2.215883 0.520987,0.82231 0.706252,1.798247 0.70612,2.745867 l 0,0 z"
     id="text3893-14"
     style="font-style:normal;font-variant:normal;font-weight:bold;font-stretch:normal;font-size:31.58494568px;font-family:'Droid Sans';-inkscape-font-specification:'Droid Sans Bold';fill:#ffffff;fill-opacity:1;stroke:none" />
</svg>
