<?xml version="1.0" encoding="UTF-8" standalone="no"?>
<!-- Created with Inkscape (http://www.inkscape.org/) -->

<svg
   xmlns:dc="http://purl.org/dc/elements/1.1/"
   xmlns:cc="http://creativecommons.org/ns#"
   xmlns:rdf="http://www.w3.org/1999/02/22-rdf-syntax-ns#"
   xmlns:svg="http://www.w3.org/2000/svg"
   xmlns="http://www.w3.org/2000/svg"
   xmlns:xlink="http://www.w3.org/1999/xlink"
   xmlns:sodipodi="http://sodipodi.sourceforge.net/DTD/sodipodi-0.dtd"
   xmlns:inkscape="http://www.inkscape.org/namespaces/inkscape"
   version="1.0"
   width="64"
   height="64"
   id="svg2453"
   inkscape:version="0.91 r13725"
   sodipodi:docname="application-x-compressed-tar.svg">
  <metadata
     id="metadata298222">
    <rdf:RDF>
      <cc:Work
         rdf:about="">
        <dc:format>image/svg+xml</dc:format>
        <dc:type
           rdf:resource="http://purl.org/dc/dcmitype/StillImage" />
        <dc:title />
      </cc:Work>
    </rdf:RDF>
  </metadata>
  <sodipodi:namedview
     pagecolor="#ffffff"
     bordercolor="#666666"
     borderopacity="1"
     objecttolerance="10"
     gridtolerance="10"
     guidetolerance="10"
     inkscape:pageopacity="0"
     inkscape:pageshadow="2"
     inkscape:window-width="1440"
     inkscape:window-height="852"
     id="namedview298220"
     showgrid="false"
     inkscape:zoom="2.8284272"
     inkscape:cx="-15.383619"
     inkscape:cy="29.779585"
     inkscape:window-x="0"
     inkscape:window-y="0"
     inkscape:window-maximized="1"
     inkscape:current-layer="svg2453"
     inkscape:snap-smooth-nodes="true"
     inkscape:snap-intersection-paths="true"
     inkscape:object-nodes="true" />
  <defs
     id="defs2455">
    <linearGradient
       id="linearGradient4110">
      <stop
         style="stop-color:#efc65b;stop-opacity:1"
         offset="0"
         id="stop4112" />
      <stop
         style="stop-color:#fbd277;stop-opacity:1"
         offset="1"
         id="stop4114" />
    </linearGradient>
    <linearGradient
       inkscape:collect="always"
       xlink:href="#linearGradient4110"
       id="linearGradient4108"
       gradientUnits="userSpaceOnUse"
       gradientTransform="matrix(1.6220276,0,0,0.90601196,-7.9176401,21.023811)"
       x1="33.138153"
       y1="31.029055"
       x2="33.138153"
       y2="9.4101439" />
  </defs>
  <path
     style="fill:url(#linearGradient4108);fill-opacity:1"
     d="m 7.9999999,16.000003 -3.9998879,5 0,38.999997 55.999776,0 0,-38.999997 -4,-5 z"
     id="path4191"
     inkscape:connector-curvature="0"
     sodipodi:nodetypes="ccccccc" />
  <path
     style="fill:#ffffff;fill-opacity:1;stroke:none"
     d="m 29,16.000003 6,0 1,5 L 36,30 l -8,0 0,-8.999997 z"
     id="rect14394"
     inkscape:connector-curvature="0"
     sodipodi:nodetypes="ccccccc" />
  <path
     style="fill:#ffffff;fill-opacity:1;stroke:none"
     d="m 4,21.000003 56,0 0,2 -56,0 z"
     id="rect14396"
     inkscape:connector-curvature="0"
     sodipodi:nodetypes="ccccc" />
  <rect
     style="fill:#ffffff;fill-opacity:1;stroke:none"
     id="rect3124"
     width="48"
     height="23"
     x="8"
     y="33.000011" />
  <path
     inkscape:connector-curvature="0"
     style="font-style:normal;font-variant:normal;font-weight:bold;font-stretch:normal;font-size:12px;line-height:100%;font-family:'URW Gothic L';-inkscape-font-specification:'URW Gothic L Semi-Bold';text-align:start;writing-mode:lr-tb;text-anchor:start;display:inline;fill:#e6b849;fill-opacity:1;stroke:none"
     d="m 13.07489,49.5568 c 0.664838,0 1.329677,0 1.994513,0 0,-2.16448 0,-4.32895 0,-6.49342 0.437878,-0.1068 1.400154,0.3108 1.19971,-0.43432 -0.12768,-0.41926 0.283133,-1.37702 -0.260591,-1.38024 -0.606912,0.0622 -1.165671,0.0763 -0.939119,-0.69491 0,-0.69314 0,-1.38628 0,-2.07942 -0.664836,0 -1.329675,0 -1.994513,0 0,0.92478 0,1.84955 0,2.77433 -0.533866,-0.006 -1.22699,-0.17178 -0.974763,0.60805 0.107226,0.43972 -0.311196,1.40508 0.434317,1.20651 0.783038,-0.25544 0.495485,0.55972 0.540446,1.04236 0,1.81702 0,3.63404 0,5.45106 z m 12.62365,-8.30798 c -0.609852,0 -1.219703,0 -1.829556,0 0.0029,0.69406 0.134462,1.53436 -0.546428,0.51995 -2.045508,-1.61971 -5.466529,-0.37503 -6.154156,2.11196 -0.826805,2.26339 0.375863,5.21824 2.856016,5.74241 1.367371,0.36524 2.955843,0.0115 3.84457,-1.14608 0.05933,0.4743 -0.261143,1.32842 0.521181,1.07974 0.385765,-0.13723 1.344176,0.2982 1.308373,-0.26059 0,-2.68247 0,-5.36493 0,-8.04739 z m -4.333945,1.6346 c 1.975537,-0.11407 3.070549,2.36147 2.090117,3.92904 -0.974925,1.82958 -4.22746,1.29221 -4.473513,-0.812 -0.32642,-1.50634 0.744682,-3.18796 2.383396,-3.11704 z m 5.820928,6.67338 c 0.664837,0 1.329676,0 1.994515,0 0.03368,-1.75796 -0.07201,-3.52496 0.06188,-5.27651 -0.04911,-1.43751 2.119036,-0.77839 1.722684,-2.08866 0.05756,-0.72825 0.134538,-1.62636 -0.956604,-1.02151 -1.001637,0.73982 -0.852242,0.91757 -1.16665,0.0787 -0.551942,0 -1.103886,0 -1.655828,0 0,2.76932 0,5.53865 0,8.30797 z m 5.073452,0 c 0.664839,0 1.329678,0 1.994516,0 0,-0.63985 0,-1.27969 0,-1.91953 -0.664838,0 -1.329677,0 -1.994516,0 0,0.63984 0,1.27968 0,1.91953 z m 10.366937,-8.30798 c -0.0038,0.64227 0.14624,1.48676 -0.514798,0.50097 -2.034746,-1.56658 -5.375719,-0.38216 -6.055598,2.08203 -0.823781,2.31037 0.413227,5.3839 2.985504,5.83566 1.303218,0.29719 2.770478,-0.10397 3.584889,-1.20542 0.21226,1.78551 -1.547533,3.19313 -3.238363,2.54443 -0.792434,-0.44703 -1.414114,-0.98313 -2.386656,-0.77486 -0.783798,-0.0864 -1.485707,-0.0332 -0.578116,0.8617 1.739302,2.44615 6.261637,2.45477 7.645833,-0.3633 0.738783,-1.86639 0.372734,-3.91663 0.46184,-5.87494 0,-1.20209 0,-2.40418 0,-3.60627 -0.634846,0 -1.269691,0 -1.904535,0 z m -2.489397,1.6346 c 1.821814,-0.11485 2.877965,2.0215 2.229536,3.57101 -0.625648,2.0477 -4.060334,1.91253 -4.445163,-0.22946 -0.434949,-1.50627 0.457236,-3.43018 2.215626,-3.34155 l 1e-6,0 z m 5.431024,6.67338 c 2.109487,0 4.218975,0 6.328461,0 0,-0.59486 0,-1.18971 0,-1.78457 -1.314678,0 -2.629359,0 -3.944039,0 1.219703,-1.57962 2.439404,-3.15923 3.659108,-4.73885 0,-0.59485 0,-1.18971 0,-1.78456 -1.874544,0 -3.749089,0 -5.623633,0 0,0.59485 0,1.18971 0,1.78456 1.079736,0 2.159473,0 3.239212,0 -1.219703,1.57962 -2.439407,3.15923 -3.659109,4.73885 0,0.59486 0,1.18971 0,1.78457 z"
     id="text3329" />
</svg>
