<?xml version="1.0" encoding="UTF-8" standalone="no"?>
<!-- Created with Inkscape (http://www.inkscape.org/) -->

<svg
   xmlns:dc="http://purl.org/dc/elements/1.1/"
   xmlns:cc="http://creativecommons.org/ns#"
   xmlns:rdf="http://www.w3.org/1999/02/22-rdf-syntax-ns#"
   xmlns:svg="http://www.w3.org/2000/svg"
   xmlns="http://www.w3.org/2000/svg"
   xmlns:xlink="http://www.w3.org/1999/xlink"
   xmlns:sodipodi="http://sodipodi.sourceforge.net/DTD/sodipodi-0.dtd"
   xmlns:inkscape="http://www.inkscape.org/namespaces/inkscape"
   version="1.0"
   width="64"
   height="64"
   id="svg2453"
   inkscape:version="0.91 r13725"
   sodipodi:docname="application-x-bzip-compressed-tar.svg">
  <metadata
     id="metadata298222">
    <rdf:RDF>
      <cc:Work
         rdf:about="">
        <dc:format>image/svg+xml</dc:format>
        <dc:type
           rdf:resource="http://purl.org/dc/dcmitype/StillImage" />
        <dc:title />
      </cc:Work>
    </rdf:RDF>
  </metadata>
  <sodipodi:namedview
     pagecolor="#ffffff"
     bordercolor="#666666"
     borderopacity="1"
     objecttolerance="10"
     gridtolerance="10"
     guidetolerance="10"
     inkscape:pageopacity="0"
     inkscape:pageshadow="2"
     inkscape:window-width="1440"
     inkscape:window-height="852"
     id="namedview298220"
     showgrid="false"
     inkscape:zoom="5.656854"
     inkscape:cx="34.08897"
     inkscape:cy="15.868057"
     inkscape:window-x="0"
     inkscape:window-y="0"
     inkscape:window-maximized="1"
     inkscape:current-layer="svg2453"
     inkscape:snap-smooth-nodes="true"
     inkscape:snap-intersection-paths="true"
     inkscape:object-nodes="true" />
  <defs
     id="defs2455">
    <linearGradient
       id="linearGradient4110">
      <stop
         style="stop-color:#efc65b;stop-opacity:1"
         offset="0"
         id="stop4112" />
      <stop
         style="stop-color:#fbd277;stop-opacity:1"
         offset="1"
         id="stop4114" />
    </linearGradient>
    <linearGradient
       inkscape:collect="always"
       xlink:href="#linearGradient4110"
       id="linearGradient4108"
       gradientUnits="userSpaceOnUse"
       gradientTransform="matrix(1.6220276,0,0,0.90601196,-7.91764,21.023807)"
       x1="33.138153"
       y1="31.029055"
       x2="33.138153"
       y2="9.4101439" />
  </defs>
  <path
     style="fill:url(#linearGradient4108);fill-opacity:1"
     d="m 8,16 -3.999888,5 0,39 55.999776,0 0,-39 -4,-5 z"
     id="path4191"
     inkscape:connector-curvature="0"
     sodipodi:nodetypes="ccccccc" />
  <path
     style="fill:#ffffff;fill-opacity:1;stroke:none"
     d="m 29,16 6,0 1,5 0,9 -8,0 0,-9 z"
     id="rect14394"
     inkscape:connector-curvature="0"
     sodipodi:nodetypes="ccccccc" />
  <path
     style="fill:#ffffff;fill-opacity:1;stroke:none"
     d="m 4,21 56,0 0,2 -56,0 z"
     id="rect14396"
     inkscape:connector-curvature="0"
     sodipodi:nodetypes="ccccc" />
  <rect
     style="fill:#ffffff;fill-opacity:1;stroke:none"
     id="rect3124"
     width="48"
     height="23"
     x="8"
     y="33" />
  <path
     inkscape:connector-curvature="0"
     d="m 12.092836,49.831 1.729,0 0,-5.629 1.04,0 0,-1.573 -1.04,0 0,-2.405 -1.729,0 0,2.405 -0.845,0 0,1.573 0.845,0 0,5.629 z"
     style="font-style:normal;font-variant:normal;font-weight:600;font-stretch:normal;font-size:9.75px;line-height:125%;font-family:'URW Gothic L';-inkscape-font-specification:'URW Gothic L Semi-Bold';letter-spacing:0px;word-spacing:0px;fill:#e6b849;fill-opacity:1;stroke:none;stroke-width:1px;stroke-linecap:butt;stroke-linejoin:miter;stroke-opacity:1"
     id="path14953" />
  <path
     inkscape:connector-curvature="0"
     d="m 23.035993,42.629 -1.586,0 0,0.962 c -0.598,-0.793 -1.313,-1.131 -2.353,-1.131 -2.132,0 -3.666,1.599 -3.666,3.796 0,2.171 1.521,3.744 3.627,3.744 1.014,0 1.703,-0.325 2.392,-1.105 l 0,0.936 1.586,0 0,-7.202 z m -3.757,1.417 c 1.235,0 2.119,0.923 2.119,2.236 0,0.52 -0.208,1.118 -0.52,1.482 -0.351,0.416 -0.91,0.65 -1.573,0.65 -1.261,0 -2.132,-0.858 -2.132,-2.119 0,-1.313 0.871,-2.249 2.106,-2.249 z"
     style="font-style:normal;font-variant:normal;font-weight:600;font-stretch:normal;font-size:9.75px;line-height:125%;font-family:'URW Gothic L';-inkscape-font-specification:'URW Gothic L Semi-Bold';letter-spacing:0px;word-spacing:0px;fill:#e6b849;fill-opacity:1;stroke:none;stroke-width:1px;stroke-linecap:butt;stroke-linejoin:miter;stroke-opacity:1"
     id="path14955" />
  <path
     inkscape:connector-curvature="0"
     d="m 24.325024,49.831 1.729,0 0,-4.004 c 0,-1.118 0.507,-1.677 1.547,-1.703 l 0,-1.664 -0.13,0 c -0.741,0 -1.105,0.208 -1.56,0.871 l 0,-0.702 -1.586,0 0,7.202 z"
     style="font-style:normal;font-variant:normal;font-weight:600;font-stretch:normal;font-size:9.75px;line-height:125%;font-family:'URW Gothic L';-inkscape-font-specification:'URW Gothic L Semi-Bold';letter-spacing:0px;word-spacing:0px;fill:#e6b849;fill-opacity:1;stroke:none;stroke-width:1px;stroke-linecap:butt;stroke-linejoin:miter;stroke-opacity:1"
     id="path14957" />
  <path
     inkscape:connector-curvature="0"
     d="m 28.723087,49.831 1.729,0 0,-1.664 -1.729,0 0,1.664 z"
     style="font-style:normal;font-variant:normal;font-weight:600;font-stretch:normal;font-size:9.75px;line-height:125%;font-family:'URW Gothic L';-inkscape-font-specification:'URW Gothic L Semi-Bold';letter-spacing:0px;word-spacing:0px;fill:#e6b849;fill-opacity:1;stroke:none;stroke-width:1px;stroke-linecap:butt;stroke-linejoin:miter;stroke-opacity:1"
     id="path14959" />
  <path
     inkscape:connector-curvature="0"
     d="m 32.119945,49.831 1.586,0 0,-0.923 c 0.741,0.793 1.43,1.092 2.496,1.092 1.118,0 2.002,-0.416 2.665,-1.261 0.546,-0.702 0.845,-1.599 0.845,-2.561 0,-2.171 -1.56,-3.809 -3.627,-3.809 -0.936,0 -1.573,0.26 -2.236,0.923 l 0,-3.068 -1.729,0 0,9.607 z m 3.718,-5.876 c 1.235,0 2.132,0.949 2.132,2.236 0,1.313 -0.858,2.223 -2.093,2.223 -1.248,0 -2.132,-0.923 -2.132,-2.236 0,-1.3 0.884,-2.223 2.093,-2.223 z"
     style="font-style:normal;font-variant:normal;font-weight:600;font-stretch:normal;font-size:9.75px;line-height:125%;font-family:'URW Gothic L';-inkscape-font-specification:'URW Gothic L Semi-Bold';letter-spacing:0px;word-spacing:0px;fill:#e6b849;fill-opacity:1;stroke:none;stroke-width:1px;stroke-linecap:butt;stroke-linejoin:miter;stroke-opacity:1"
     id="path14961" />
  <path
     inkscape:connector-curvature="0"
     d="m 40.259977,49.831 5.486,0 0,-1.547 -3.419,0 3.172,-4.108 0,-1.547 -4.875,0 0,1.547 2.808,0 -3.172,4.108 0,1.547 z"
     style="font-style:normal;font-variant:normal;font-weight:600;font-stretch:normal;font-size:9.75px;line-height:125%;font-family:'URW Gothic L';-inkscape-font-specification:'URW Gothic L Semi-Bold';letter-spacing:0px;word-spacing:0px;fill:#e6b849;fill-opacity:1;stroke:none;stroke-width:1px;stroke-linecap:butt;stroke-linejoin:miter;stroke-opacity:1"
     id="path14963" />
  <path
     inkscape:connector-curvature="0"
     d="m 46.499164,49.831 6.214,0 0,-1.625 -3.783,0 1.963,-1.781 c 0.702,-0.637 1.001,-0.962 1.287,-1.404 0.377,-0.546 0.572,-1.196 0.572,-1.846 0,-1.768 -1.352,-3.12 -3.133,-3.12 -1.118,0 -2.132,0.533 -2.678,1.417 -0.364,0.572 -0.507,1.144 -0.507,2.067 l 1.703,0 c 0,-1.144 0.598,-1.898 1.495,-1.898 0.793,0 1.391,0.65 1.391,1.508 0,0.624 -0.325,1.183 -1.105,1.924 l -3.419,3.237 0,1.521 z"
     style="font-style:normal;font-variant:normal;font-weight:600;font-stretch:normal;font-size:9.75px;line-height:125%;font-family:'URW Gothic L';-inkscape-font-specification:'URW Gothic L Semi-Bold';letter-spacing:0px;word-spacing:0px;fill:#e6b849;fill-opacity:1;stroke:none;stroke-width:1px;stroke-linecap:butt;stroke-linejoin:miter;stroke-opacity:1"
     id="path14965" />
</svg>
