<?xml version="1.0" encoding="UTF-8" standalone="no"?>
<!-- Created with Inkscape (http://www.inkscape.org/) -->

<svg
   xmlns:dc="http://purl.org/dc/elements/1.1/"
   xmlns:cc="http://creativecommons.org/ns#"
   xmlns:rdf="http://www.w3.org/1999/02/22-rdf-syntax-ns#"
   xmlns:svg="http://www.w3.org/2000/svg"
   xmlns="http://www.w3.org/2000/svg"
   xmlns:xlink="http://www.w3.org/1999/xlink"
   xmlns:sodipodi="http://sodipodi.sourceforge.net/DTD/sodipodi-0.dtd"
   xmlns:inkscape="http://www.inkscape.org/namespaces/inkscape"
   version="1.0"
   width="64"
   height="64"
   id="svg2453"
   inkscape:version="0.91 r13725"
   sodipodi:docname="application-x-bzip.svg">
  <metadata
     id="metadata298222">
    <rdf:RDF>
      <cc:Work
         rdf:about="">
        <dc:format>image/svg+xml</dc:format>
        <dc:type
           rdf:resource="http://purl.org/dc/dcmitype/StillImage" />
        <dc:title />
      </cc:Work>
    </rdf:RDF>
  </metadata>
  <sodipodi:namedview
     pagecolor="#ffffff"
     bordercolor="#666666"
     borderopacity="1"
     objecttolerance="10"
     gridtolerance="10"
     guidetolerance="10"
     inkscape:pageopacity="0"
     inkscape:pageshadow="2"
     inkscape:window-width="1440"
     inkscape:window-height="852"
     id="namedview298220"
     showgrid="false"
     inkscape:zoom="5.656854"
     inkscape:cx="-5.9386516"
     inkscape:cy="4.3736306"
     inkscape:window-x="0"
     inkscape:window-y="0"
     inkscape:window-maximized="1"
     inkscape:current-layer="svg2453"
     inkscape:snap-smooth-nodes="true"
     inkscape:snap-intersection-paths="true"
     inkscape:object-nodes="true" />
  <defs
     id="defs2455">
    <linearGradient
       id="linearGradient4110">
      <stop
         style="stop-color:#efc65b;stop-opacity:1"
         offset="0"
         id="stop4112" />
      <stop
         style="stop-color:#fbd277;stop-opacity:1"
         offset="1"
         id="stop4114" />
    </linearGradient>
    <linearGradient
       inkscape:collect="always"
       xlink:href="#linearGradient4110"
       id="linearGradient4108"
       gradientUnits="userSpaceOnUse"
       gradientTransform="matrix(1.6220276,0,0,0.90601196,-7.91764,21.023807)"
       x1="33.138153"
       y1="31.029055"
       x2="33.138153"
       y2="9.4101439" />
  </defs>
  <path
     style="fill:url(#linearGradient4108);fill-opacity:1"
     d="m 8,16 -3.999888,5 0,39 55.999776,0 0,-39 -4,-5 z"
     id="path4191"
     inkscape:connector-curvature="0"
     sodipodi:nodetypes="ccccccc" />
  <path
     style="fill:#ffffff;fill-opacity:1;stroke:none"
     d="m 29,16 6,0 1,5 0,9 -8,0 0,-9 z"
     id="rect14394"
     inkscape:connector-curvature="0"
     sodipodi:nodetypes="ccccccc" />
  <path
     style="fill:#ffffff;fill-opacity:1;stroke:none"
     d="m 4,21 56,0 0,2 -56,0 z"
     id="rect14396"
     inkscape:connector-curvature="0"
     sodipodi:nodetypes="ccccc" />
  <rect
     style="fill:#ffffff;fill-opacity:1;stroke:none"
     id="rect3124"
     width="48"
     height="23"
     x="8.0000019"
     y="33" />
  <path
     inkscape:connector-curvature="0"
     d="m 20.005883,49.813071 1.754248,0 0,-1.020914 C 22.579739,49.669281 23.34183,50 24.520915,50 c 1.236601,0 2.214378,-0.460131 2.947712,-1.394772 0.603922,-0.776469 0.934641,-1.768626 0.934641,-2.832679 0,-2.401308 -1.725492,-4.213072 -4.011765,-4.213072 -1.035295,0 -1.73987,0.287581 -2.473201,1.020915 l 0,-3.393464 -1.912419,0 0,10.626143 z m 4.112418,-6.499346 c 1.366013,0 2.35817,1.049673 2.35817,2.473203 0,1.452287 -0.949021,2.458824 -2.315033,2.458824 -1.380393,0 -2.358171,-1.020915 -2.358171,-2.473203 0,-1.437908 0.977778,-2.458824 2.315034,-2.458824 z"
     style="font-style:normal;font-variant:normal;font-weight:600;font-stretch:normal;font-size:9.75px;line-height:125%;font-family:'URW Gothic L';-inkscape-font-specification:'URW Gothic L Semi-Bold';letter-spacing:0px;word-spacing:0px;fill:#e6b849;fill-opacity:1;stroke:none;stroke-width:1px;stroke-linecap:butt;stroke-linejoin:miter;stroke-opacity:1"
     id="path14961" />
  <path
     inkscape:connector-curvature="0"
     d="m 29.59896,49.813071 6.067972,0 0,-1.71111 -3.781698,0 3.508496,-4.543791 0,-1.711112 -5.392159,0 0,1.711112 3.105884,0 -3.508497,4.543791 0,1.71111 z"
     style="font-style:normal;font-variant:normal;font-weight:600;font-stretch:normal;font-size:9.75px;line-height:125%;font-family:'URW Gothic L';-inkscape-font-specification:'URW Gothic L Semi-Bold';letter-spacing:0px;word-spacing:0px;fill:#e6b849;fill-opacity:1;stroke:none;stroke-width:1px;stroke-linecap:butt;stroke-linejoin:miter;stroke-opacity:1"
     id="path14963" />
  <path
     inkscape:connector-curvature="0"
     d="m 37.077777,49.813071 6.873203,0 0,-1.797385 -4.184314,0 2.171243,-1.969934 c 0.77647,-0.704576 1.107187,-1.064053 1.423527,-1.552941 0.416994,-0.603922 0.632682,-1.322876 0.632682,-2.041831 0,-1.955555 -1.495425,-3.45098 -3.465362,-3.45098 -1.2366,0 -2.358169,0.589542 -2.96209,1.56732 -0.402614,0.63268 -0.560784,1.26536 -0.560784,2.286275 l 1.883661,0 c 0,-1.26536 0.661437,-2.099347 1.653594,-2.099347 0.877125,0 1.538562,0.718954 1.538562,1.667974 0,0.690197 -0.359477,1.308497 -1.222222,2.128105 l -3.781701,3.580392 0,1.682352 z"
     style="font-style:normal;font-variant:normal;font-weight:600;font-stretch:normal;font-size:9.75px;line-height:125%;font-family:'URW Gothic L';-inkscape-font-specification:'URW Gothic L Semi-Bold';letter-spacing:0px;word-spacing:0px;fill:#e6b849;fill-opacity:1;stroke:none;stroke-width:1px;stroke-linecap:butt;stroke-linejoin:miter;stroke-opacity:1"
     id="path14965" />
</svg>
