<?xml version="1.0" encoding="UTF-8" standalone="no"?>
<!-- Created with Inkscape (http://www.inkscape.org/) -->

<svg
   xmlns:dc="http://purl.org/dc/elements/1.1/"
   xmlns:cc="http://creativecommons.org/ns#"
   xmlns:rdf="http://www.w3.org/1999/02/22-rdf-syntax-ns#"
   xmlns:svg="http://www.w3.org/2000/svg"
   xmlns="http://www.w3.org/2000/svg"
   xmlns:xlink="http://www.w3.org/1999/xlink"
   xmlns:sodipodi="http://sodipodi.sourceforge.net/DTD/sodipodi-0.dtd"
   xmlns:inkscape="http://www.inkscape.org/namespaces/inkscape"
   version="1.0"
   width="64"
   height="64"
   id="svg2466"
   inkscape:version="0.91 r13725"
   sodipodi:docname="application-vnd.ms-excel.svg">
  <metadata
     id="metadata286116">
    <rdf:RDF>
      <cc:Work
         rdf:about="">
        <dc:format>image/svg+xml</dc:format>
        <dc:type
           rdf:resource="http://purl.org/dc/dcmitype/StillImage" />
        <dc:title />
      </cc:Work>
    </rdf:RDF>
  </metadata>
  <sodipodi:namedview
     pagecolor="#ffffff"
     bordercolor="#666666"
     borderopacity="1"
     objecttolerance="10"
     gridtolerance="10"
     guidetolerance="10"
     inkscape:pageopacity="0"
     inkscape:pageshadow="2"
     inkscape:window-width="1140"
     inkscape:window-height="755"
     id="namedview286114"
     showgrid="false"
     inkscape:zoom="4.9166667"
     inkscape:cx="29.237297"
     inkscape:cy="25.513495"
     inkscape:window-x="112"
     inkscape:window-y="21"
     inkscape:window-maximized="0"
     inkscape:current-layer="svg2466"
     inkscape:object-paths="true"
     inkscape:snap-intersection-paths="true"
     inkscape:object-nodes="true"
     inkscape:snap-smooth-nodes="true" />
  <defs
     id="defs2468">
    <linearGradient
       inkscape:collect="always"
       xlink:href="#linearGradient4132"
       id="linearGradient4138"
       x1="-29.694916"
       y1="44.701263"
       x2="-29.694916"
       y2="0.91525328"
       gradientUnits="userSpaceOnUse"
       gradientTransform="matrix(1.2147059,0,0,1.2806203,68.564708,2.9581391)" />
    <linearGradient
       inkscape:collect="always"
       id="linearGradient4132">
      <stop
         style="stop-color:#6fc6a2;stop-opacity:1"
         offset="0"
         id="stop4134" />
      <stop
         style="stop-color:#9dd8c5;stop-opacity:1"
         offset="1"
         id="stop4136" />
    </linearGradient>
  </defs>
  <rect
     style="fill:#40b988;fill-opacity:1;stroke:none"
     id="rect4154-0"
     width="46"
     height="60"
     x="9"
     y="2" />
  <rect
     y="3"
     x="10"
     height="58"
     width="44"
     id="rect4150-2"
     style="fill:#ffffff;fill-opacity:1;stroke:none" />
  <rect
     style="fill:url(#linearGradient4138);fill-opacity:1;stroke:none"
     id="rect3362"
     width="42"
     height="56"
     x="11"
     y="3.9999995" />
  <rect
     style="fill:#ffffff;fill-opacity:1;stroke:none"
     id="rect4140-7"
     width="30"
     height="2"
     x="17"
     y="13" />
  <rect
     y="20"
     x="17"
     height="2"
     width="30"
     id="rect4142-3"
     style="fill:#ffffff;fill-opacity:1;stroke:none" />
  <rect
     style="fill:#ffffff;fill-opacity:1;stroke:none"
     id="rect4924"
     width="30"
     height="2"
     x="17"
     y="27" />
  <rect
     y="39"
     x="-35.467785"
     height="3"
     width="6.4677863"
     id="rect4146"
     style="fill:#ffffff;fill-opacity:1;stroke:none"
     transform="scale(-1,1)" />
  <path
     inkscape:connector-curvature="0"
     d="m 47,54 c -1.286604,0 -2.57321,0 -3.859814,0 C 42.053478,52.108755 40.96677,50.21751 39.880062,48.326265 38.793354,50.21751 37.706646,52.108755 36.619938,54 35.413292,54 34.206646,54 33,54 34.613707,51.42134 36.227414,48.842681 37.841121,46.264021 36.340083,43.842682 34.839044,41.421341 33.338006,39 c 1.242991,0 2.485981,0 3.728971,0 0.995847,1.798906 1.991694,3.597811 2.987539,5.396718 0.97404,-1.798907 1.948079,-3.597812 2.922119,-5.396718 1.213915,0 2.427831,0 3.641746,0 -1.519212,2.47948 -3.038423,4.95896 -4.557634,7.43844 C 43.707165,48.958961 45.353582,51.479481 47,54 Z"
     id="text3893-0"
     style="font-style:normal;font-variant:normal;font-weight:bold;font-stretch:normal;font-size:31.35451508px;font-family:'Droid Sans';-inkscape-font-specification:'Droid Sans Bold';fill:#ffffff;fill-opacity:1;stroke:none" />
</svg>
