<?xml version="1.0" encoding="UTF-8" standalone="no"?>
<!-- Created with Inkscape (http://www.inkscape.org/) -->

<svg
   xmlns:dc="http://purl.org/dc/elements/1.1/"
   xmlns:cc="http://creativecommons.org/ns#"
   xmlns:rdf="http://www.w3.org/1999/02/22-rdf-syntax-ns#"
   xmlns:svg="http://www.w3.org/2000/svg"
   xmlns="http://www.w3.org/2000/svg"
   xmlns:xlink="http://www.w3.org/1999/xlink"
   xmlns:sodipodi="http://sodipodi.sourceforge.net/DTD/sodipodi-0.dtd"
   xmlns:inkscape="http://www.inkscape.org/namespaces/inkscape"
   version="1.0"
   width="64"
   height="64"
   id="svg2453"
   inkscape:version="0.91 r13725"
   sodipodi:docname="application-x-rar.svg">
  <metadata
     id="metadata298222">
    <rdf:RDF>
      <cc:Work
         rdf:about="">
        <dc:format>image/svg+xml</dc:format>
        <dc:type
           rdf:resource="http://purl.org/dc/dcmitype/StillImage" />
        <dc:title />
      </cc:Work>
    </rdf:RDF>
  </metadata>
  <sodipodi:namedview
     pagecolor="#ffffff"
     bordercolor="#666666"
     borderopacity="1"
     objecttolerance="10"
     gridtolerance="10"
     guidetolerance="10"
     inkscape:pageopacity="0"
     inkscape:pageshadow="2"
     inkscape:window-width="1440"
     inkscape:window-height="852"
     id="namedview298220"
     showgrid="false"
     inkscape:zoom="2.828427"
     inkscape:cx="33.487553"
     inkscape:cy="-6.3715345"
     inkscape:window-x="0"
     inkscape:window-y="0"
     inkscape:window-maximized="1"
     inkscape:current-layer="svg2453"
     inkscape:snap-smooth-nodes="true"
     inkscape:snap-intersection-paths="true"
     inkscape:object-nodes="true" />
  <defs
     id="defs2455">
    <linearGradient
       id="linearGradient4110">
      <stop
         style="stop-color:#efc65b;stop-opacity:1"
         offset="0"
         id="stop4112" />
      <stop
         style="stop-color:#fbd277;stop-opacity:1"
         offset="1"
         id="stop4114" />
    </linearGradient>
    <linearGradient
       inkscape:collect="always"
       xlink:href="#linearGradient4110"
       id="linearGradient4108"
       gradientUnits="userSpaceOnUse"
       gradientTransform="matrix(1.6220276,0,0,0.90601196,-7.91764,21.023808)"
       x1="33.138153"
       y1="31.029055"
       x2="33.138153"
       y2="9.4101439" />
  </defs>
  <path
     style="fill:url(#linearGradient4108);fill-opacity:1"
     d="m 8,16.000001 -3.999888,5 0,38.999999 55.999778,0 0,-38.999999 -4,-5 z"
     id="path4191"
     inkscape:connector-curvature="0"
     sodipodi:nodetypes="ccccccc" />
  <path
     style="fill:#ffffff;fill-opacity:1;stroke:none"
     d="m 29,16.000001 6,0 1,5 0,9 -8,0 0,-9 z"
     id="rect14394"
     inkscape:connector-curvature="0"
     sodipodi:nodetypes="ccccccc" />
  <path
     style="fill:#ffffff;fill-opacity:1;stroke:none"
     d="m 4,21.000001 56,0 0,2 -56,0 z"
     id="rect14396"
     inkscape:connector-curvature="0"
     sodipodi:nodetypes="ccccc" />
  <rect
     style="fill:#ffffff;fill-opacity:1;stroke:none"
     id="rect3124"
     width="48"
     height="23"
     x="7.9999967"
     y="33" />
  <path
     inkscape:connector-curvature="0"
     style="font-style:normal;font-variant:normal;font-weight:bold;font-stretch:normal;font-size:12px;line-height:100%;font-family:'URW Gothic L';-inkscape-font-specification:'URW Gothic L Semi-Bold';text-align:start;writing-mode:lr-tb;text-anchor:start;display:inline;fill:#e6b849;fill-opacity:1;stroke:none"
     d="m 22.140259,49.787102 c 0.709333,0 1.418666,0 2.128,0 0.01705,-1.80363 -0.03567,-3.610149 0.02931,-5.411812 0.03427,-0.970289 0.935188,-1.671156 1.874688,-1.612188 0,-0.682668 0,-1.365334 0,-2.048001 -0.843937,-0.0974 -1.67007,0.32512 -2.08,1.072001 -0.05981,-0.262149 0.12476,-0.768693 -0.101906,-0.863998 -0.6167,0 -1.2334,0 -1.8501,0 0,2.954665 0,5.909332 0,8.863998 z M 36.24126,40.923104 c -0.65067,0 -1.30133,0 -1.952,0 0,0.394666 0,0.789333 0,1.184 -0.80514,-1.200891 -2.367789,-1.585366 -3.72908,-1.322984 -1.913899,0.269881 -3.433388,1.96134 -3.630089,3.862904 -0.303586,1.92407 0.59297,4.087901 2.424657,4.915352 1.541637,0.725302 3.610402,0.598409 4.775412,-0.753798 0.2973,-0.39586 0.1042,0.465899 0.1591,0.692671 -0.13752,0.453583 0.39402,0.238113 0.66235,0.285853 0.42988,0 0.85977,0 1.28965,0 0,-2.954666 0,-5.909333 0,-8.863998 z m -4.624001,1.743997 c 1.360041,-0.06511 2.549161,1.113013 2.595411,2.454787 0.13974,1.259354 -0.63616,2.691213 -1.977411,2.868214 -1.27435,0.287856 -2.779242,-0.407916 -3.10084,-1.738005 -0.419546,-1.39226 0.300765,-3.167767 1.805533,-3.503244 0.221149,-0.05567 0.449375,-0.0818 0.677307,-0.08175 l 0,-10e-7 z m 6.210501,7.120001 c 0.70933,0 1.41867,0 2.128,0 0.017,-1.80363 -0.0357,-3.610149 0.0293,-5.411812 0.0343,-0.970289 0.93519,-1.671156 1.87469,-1.612188 0,-0.682668 0,-1.365334 0,-2.048001 -0.84394,-0.0974 -1.67007,0.325121 -2.08,1.072001 -0.0598,-0.262149 0.12476,-0.768693 -0.10191,-0.863998 -0.6167,0 -1.2334,0 -1.8501,0 0,2.954665 0,5.909332 0,8.863998 z"
     id="text3329-4-7" />
</svg>
