<?xml version="1.0" encoding="UTF-8" standalone="no"?>
<!-- Created with Inkscape (http://www.inkscape.org/) -->

<svg
   xmlns:dc="http://purl.org/dc/elements/1.1/"
   xmlns:cc="http://creativecommons.org/ns#"
   xmlns:rdf="http://www.w3.org/1999/02/22-rdf-syntax-ns#"
   xmlns:svg="http://www.w3.org/2000/svg"
   xmlns="http://www.w3.org/2000/svg"
   xmlns:xlink="http://www.w3.org/1999/xlink"
   xmlns:sodipodi="http://sodipodi.sourceforge.net/DTD/sodipodi-0.dtd"
   xmlns:inkscape="http://www.inkscape.org/namespaces/inkscape"
   version="1.0"
   width="64"
   height="64"
   id="svg2453"
   inkscape:version="0.91 r13725"
   sodipodi:docname="application-x-cbz.svg">
  <metadata
     id="metadata298222">
    <rdf:RDF>
      <cc:Work
         rdf:about="">
        <dc:format>image/svg+xml</dc:format>
        <dc:type
           rdf:resource="http://purl.org/dc/dcmitype/StillImage" />
        <dc:title />
      </cc:Work>
    </rdf:RDF>
  </metadata>
  <sodipodi:namedview
     pagecolor="#ffffff"
     bordercolor="#666666"
     borderopacity="1"
     objecttolerance="10"
     gridtolerance="10"
     guidetolerance="10"
     inkscape:pageopacity="0"
     inkscape:pageshadow="2"
     inkscape:window-width="1440"
     inkscape:window-height="852"
     id="namedview298220"
     showgrid="false"
     inkscape:zoom="3.9999998"
     inkscape:cx="52.380096"
     inkscape:cy="3.7646467"
     inkscape:window-x="0"
     inkscape:window-y="0"
     inkscape:window-maximized="1"
     inkscape:current-layer="svg2453"
     inkscape:snap-smooth-nodes="true"
     inkscape:snap-intersection-paths="true"
     inkscape:object-nodes="true" />
  <defs
     id="defs2455">
    <linearGradient
       id="linearGradient4110">
      <stop
         style="stop-color:#efc65b;stop-opacity:1"
         offset="0"
         id="stop4112" />
      <stop
         style="stop-color:#fbd277;stop-opacity:1"
         offset="1"
         id="stop4114" />
    </linearGradient>
    <linearGradient
       inkscape:collect="always"
       xlink:href="#linearGradient4110"
       id="linearGradient4108"
       gradientUnits="userSpaceOnUse"
       gradientTransform="matrix(1.6220276,0,0,0.90601196,-7.91764,21.023808)"
       x1="33.138153"
       y1="31.029055"
       x2="33.138153"
       y2="9.4101439" />
  </defs>
  <path
     style="fill:url(#linearGradient4108);fill-opacity:1"
     d="m 8,16 -3.999888,5 0,39 55.999776,0 0,-39 -4,-5 z"
     id="path4191"
     inkscape:connector-curvature="0"
     sodipodi:nodetypes="ccccccc" />
  <path
     style="fill:#ffffff;fill-opacity:1;stroke:none"
     d="m 29,16 6,0 1,5 0,9 -8,0 0,-9 z"
     id="rect14394"
     inkscape:connector-curvature="0"
     sodipodi:nodetypes="ccccccc" />
  <path
     style="fill:#ffffff;fill-opacity:1;stroke:none"
     d="m 4,21 56,0 0,2 -56,0 z"
     id="rect14396"
     inkscape:connector-curvature="0"
     sodipodi:nodetypes="ccccc" />
  <rect
     style="fill:#ffffff;fill-opacity:1;stroke:none"
     id="rect3124"
     width="40"
     height="20"
     x="12.000001"
     y="32"
     rx="3"
     ry="3" />
  <path
     sodipodi:type="star"
     style="fill:#ffffff;fill-opacity:1;stroke:none;stroke-width:2;stroke-miterlimit:4;stroke-dasharray:none;stroke-opacity:1"
     id="path16267"
     sodipodi:sides="3"
     sodipodi:cx="33.852737"
     sodipodi:cy="39.691494"
     sodipodi:r1="3.7133629"
     sodipodi:r2="1.8566813"
     sodipodi:arg1="1.5707963"
     sodipodi:arg2="2.6179939"
     inkscape:flatsided="false"
     inkscape:rounded="0"
     inkscape:randomized="0"
     d="m 33.852738,43.404857 -1.607934,-2.785022 -1.607933,-2.785022 3.215866,0 3.215867,-10e-7 -1.607933,2.785023 z"
     inkscape:transform-center-y="1.0000008"
     transform="matrix(1.5547908,0,0,1.0771907,-20.633925,11.244692)" />
  <path
     inkscape:connector-curvature="0"
     d="m 24.542501,44.075 c -0.495,0.765 -1.065,1.095 -1.89,1.095 -1.38,0 -2.415,-1.08 -2.415,-2.535 0,-1.455 0.99,-2.505 2.37,-2.505 0.899999,0 1.53,0.375 1.935,1.14 l 2.25,0 c -0.285,-0.84 -0.555,-1.275 -1.125,-1.8 -0.81,-0.75 -1.905,-1.17 -3.06,-1.17 -2.46,0 -4.380001,1.905 -4.380001,4.35 0,2.415 1.98,4.35 4.44,4.35 1.935,0 3.435,-1.065 4.125,-2.925 l -2.25,0 z"
     style="font-style:normal;font-variant:normal;font-weight:600;font-stretch:normal;font-size:15px;line-height:125%;font-family:'URW Gothic L';-inkscape-font-specification:'URW Gothic L Semi-Bold';letter-spacing:0px;word-spacing:0px;fill:#e6b849;fill-opacity:1;stroke:none;stroke-width:1px;stroke-linecap:butt;stroke-linejoin:miter;stroke-opacity:1"
     id="path16289" />
  <path
     inkscape:connector-curvature="0"
     d="m 28.871016,46.805 1.830001,0 0,-1.065 c 0.854999,0.915 1.649999,1.26 2.88,1.26 1.29,0 2.31,-0.48 3.075,-1.455 0.63,-0.81 0.975,-1.845 0.975,-2.955 0,-2.505 -1.8,-4.395 -4.185,-4.395 -1.08,0 -1.815,0.3 -2.58,1.065 l 0,-3.54 -1.995,0 0,11.085 z m 4.290001,-6.78 c 1.424999,0 2.46,1.095 2.46,2.58 0,1.515 -0.99,2.565 -2.415,2.565 -1.44,0 -2.46,-1.065 -2.46,-2.58 0,-1.5 1.02,-2.565 2.415,-2.565 z"
     style="font-style:normal;font-variant:normal;font-weight:600;font-stretch:normal;font-size:15px;line-height:125%;font-family:'URW Gothic L';-inkscape-font-specification:'URW Gothic L Semi-Bold';letter-spacing:0px;word-spacing:0px;fill:#e6b849;fill-opacity:1;stroke:none;stroke-width:1px;stroke-linecap:butt;stroke-linejoin:miter;stroke-opacity:1"
     id="path16291" />
  <path
     inkscape:connector-curvature="0"
     d="m 39.4425,46.805 6.33,0 0,-1.785 -3.945,0 3.66,-4.74 0,-1.785 -5.625,0 0,1.785 3.24,0 -3.66,4.74 0,1.785 z"
     style="font-style:normal;font-variant:normal;font-weight:600;font-stretch:normal;font-size:15px;line-height:125%;font-family:'URW Gothic L';-inkscape-font-specification:'URW Gothic L Semi-Bold';letter-spacing:0px;word-spacing:0px;fill:#e6b849;fill-opacity:1;stroke:none;stroke-width:1px;stroke-linecap:butt;stroke-linejoin:miter;stroke-opacity:1"
     id="path16373" />
</svg>
