<?xml version="1.0" encoding="UTF-8" standalone="no"?>
<!-- Created with Inkscape (http://www.inkscape.org/) -->

<svg
   xmlns:dc="http://purl.org/dc/elements/1.1/"
   xmlns:cc="http://creativecommons.org/ns#"
   xmlns:rdf="http://www.w3.org/1999/02/22-rdf-syntax-ns#"
   xmlns:svg="http://www.w3.org/2000/svg"
   xmlns="http://www.w3.org/2000/svg"
   xmlns:xlink="http://www.w3.org/1999/xlink"
   xmlns:sodipodi="http://sodipodi.sourceforge.net/DTD/sodipodi-0.dtd"
   xmlns:inkscape="http://www.inkscape.org/namespaces/inkscape"
   width="64"
   height="64"
   viewBox="0 0 63.999999 63.999999"
   id="svg9170"
   version="1.1"
   inkscape:version="0.91 r13725"
   sodipodi:docname="audio-x-wav.svg">
  <defs
     id="defs9172">
    <linearGradient
       inkscape:collect="always"
       xlink:href="#linearGradient4132-8-9-8-16"
       id="linearGradient4307"
       gradientUnits="userSpaceOnUse"
       gradientTransform="matrix(1.2147059,0,0,1.2806203,68.564713,991.32033)"
       x1="-29.694916"
       y1="44.701263"
       x2="-29.694916"
       y2="0.91525328" />
    <linearGradient
       inkscape:collect="always"
       id="linearGradient4132-8-9-8-16">
      <stop
         style="stop-color:#62aa5d;stop-opacity:1"
         offset="0"
         id="stop4134-65-4-7-06" />
      <stop
         style="stop-color:#90ec87;stop-opacity:1"
         offset="1"
         id="stop4136-9-6-7-92" />
    </linearGradient>
  </defs>
  <sodipodi:namedview
     id="base"
     pagecolor="#ffffff"
     bordercolor="#666666"
     borderopacity="1.0"
     inkscape:pageopacity="0.0"
     inkscape:pageshadow="2"
     inkscape:zoom="5.656854"
     inkscape:cx="4.2513503"
     inkscape:cy="20.310689"
     inkscape:document-units="px"
     inkscape:current-layer="layer1"
     showgrid="false"
     units="px"
     inkscape:window-width="1440"
     inkscape:window-height="853"
     inkscape:window-x="0"
     inkscape:window-y="0"
     inkscape:window-maximized="1"
     inkscape:snap-object-midpoints="true"
     inkscape:snap-smooth-nodes="true"
     inkscape:object-nodes="true"
     inkscape:object-paths="true" />
  <metadata
     id="metadata9175">
    <rdf:RDF>
      <cc:Work
         rdf:about="">
        <dc:format>image/svg+xml</dc:format>
        <dc:type
           rdf:resource="http://purl.org/dc/dcmitype/StillImage" />
        <dc:title />
      </cc:Work>
    </rdf:RDF>
  </metadata>
  <g
     inkscape:label="Layer 1"
     inkscape:groupmode="layer"
     id="layer1"
     transform="translate(0,-988.3622)">
    <rect
       style="fill:#71be6b;fill-opacity:1;stroke:none"
       id="rect4154-0"
       width="46"
       height="60"
       x="9"
       y="990.36218" />
    <rect
       y="991.36218"
       x="10"
       height="58"
       width="44"
       id="rect4150-2"
       style="fill:#ffffff;fill-opacity:1;stroke:none" />
    <rect
       style="fill:url(#linearGradient4307);fill-opacity:1;stroke:none"
       id="rect3362-9-8-1-60"
       width="42"
       height="56"
       x="11"
       y="992.36218" />
    <rect
       y="1031.3622"
       x="10"
       height="18"
       width="44"
       id="rect4081-2-3-53"
       style="fill:#ffffff;fill-opacity:1;stroke:none" />
    <path
       style="fill:#ffffff;fill-opacity:1;stroke:none"
       d="m 12,1026.3622 0,3 7,0 0,-3 z"
       id="path4261"
       inkscape:connector-curvature="0" />
    <path
       inkscape:connector-curvature="0"
       id="path4329"
       d="m 12,1021.3622 0,3 7,0 0,-3 z"
       style="fill:#ffffff;fill-opacity:1;stroke:none" />
    <path
       style="fill:#ffffff;fill-opacity:1;stroke:none"
       d="m 12,1016.3622 0,3 7,0 0,-3 z"
       id="path4333"
       inkscape:connector-curvature="0" />
    <path
       inkscape:connector-curvature="0"
       id="path4337"
       d="m 12,1011.3622 0,3 7,0 0,-3 z"
       style="fill:#ffffff;fill-opacity:1;stroke:none" />
    <path
       style="fill:#ffffff;fill-opacity:1;stroke:none"
       d="m 12,1006.3622 0,3 7,0 0,-3 z"
       id="path4341"
       inkscape:connector-curvature="0" />
    <path
       inkscape:connector-curvature="0"
       id="path4345"
       d="m 12,1001.3622 0,3 7,0 0,-3 z"
       style="fill:#ffffff;fill-opacity:1;stroke:none" />
    <path
       inkscape:connector-curvature="0"
       id="path4349"
       d="m 20,1026.3622 0,3 7,0 0,-3 z"
       style="fill:#ffffff;fill-opacity:1;stroke:none" />
    <path
       style="fill:#ffffff;fill-opacity:1;stroke:none"
       d="m 20,1021.3622 0,3 7,0 0,-3 z"
       id="path4351"
       inkscape:connector-curvature="0" />
    <path
       inkscape:connector-curvature="0"
       id="path4353"
       d="m 20,1016.3622 0,3 7,0 0,-3 z"
       style="fill:#ffffff;fill-opacity:1;stroke:none" />
    <path
       style="fill:#ffffff;fill-opacity:1;stroke:none"
       d="m 20,1011.3622 0,3 7,0 0,-3 z"
       id="path4355"
       inkscape:connector-curvature="0" />
    <path
       inkscape:connector-curvature="0"
       id="path4357"
       d="m 20,1006.3622 0,3 7,0 0,-3 z"
       style="fill:#ffffff;fill-opacity:1;stroke:none" />
    <path
       inkscape:connector-curvature="0"
       id="path4369"
       d="m 28,1026.3622 0,3 8,0 0,-3 z"
       style="fill:#ffffff;fill-opacity:1;stroke:none" />
    <path
       style="fill:#ffffff;fill-opacity:1;stroke:none"
       d="m 28,1021.3622 0,3 8,0 0,-3 z"
       id="path4371"
       inkscape:connector-curvature="0" />
    <path
       inkscape:connector-curvature="0"
       id="path4373"
       d="m 28,1016.3622 0,3 8,0 0,-3 z"
       style="fill:#ffffff;fill-opacity:1;stroke:none" />
    <path
       style="fill:#ffffff;fill-opacity:1;stroke:none"
       d="m 28,1011.3622 0,3 8,0 0,-3 z"
       id="path4375"
       inkscape:connector-curvature="0" />
    <path
       inkscape:connector-curvature="0"
       id="path4377"
       d="m 28,1006.3622 0,3 8,0 0,-3 z"
       style="fill:#ffffff;fill-opacity:1;stroke:none" />
    <path
       style="fill:#ffffff;fill-opacity:1;stroke:none"
       d="m 28,1001.3622 0,3 8,0 0,-3 z"
       id="path4379"
       inkscape:connector-curvature="0" />
    <path
       style="fill:#ffffff;fill-opacity:1;stroke:none"
       d="m 37,1026.3622 0,3 7,0 0,-3 z"
       id="path4405"
       inkscape:connector-curvature="0" />
    <path
       inkscape:connector-curvature="0"
       id="path4407"
       d="m 37,1021.3622 0,3 7,0 0,-3 z"
       style="fill:#ffffff;fill-opacity:1;stroke:none" />
    <path
       style="fill:#ffffff;fill-opacity:1;stroke:none"
       d="m 37,1016.3622 0,3 7,0 0,-3 z"
       id="path4409"
       inkscape:connector-curvature="0" />
    <path
       inkscape:connector-curvature="0"
       id="path4411"
       d="m 37,1011.3622 0,3 7,0 0,-3 z"
       style="fill:#ffffff;fill-opacity:1;stroke:none" />
    <path
       style="fill:#ffffff;fill-opacity:1;stroke:none"
       d="m 37,1006.3622 0,3 7,0 0,-3 z"
       id="path4413"
       inkscape:connector-curvature="0" />
    <path
       style="fill:#ffffff;fill-opacity:1;stroke:none"
       d="m 45,1026.3622 0,3 7,0 0,-3 z"
       id="path4429"
       inkscape:connector-curvature="0" />
    <path
       inkscape:connector-curvature="0"
       id="path4431"
       d="m 45,1021.3622 0,3 7,0 0,-3 z"
       style="fill:#ffffff;fill-opacity:1;stroke:none" />
    <path
       style="fill:#ffffff;fill-opacity:1;stroke:none"
       d="m 45,1016.3622 0,3 7,0 0,-3 z"
       id="path4433"
       inkscape:connector-curvature="0" />
    <path
       inkscape:connector-curvature="0"
       id="path4435"
       d="m 45,1011.3622 0,3 7,0 0,-3 z"
       style="fill:#ffffff;fill-opacity:1;stroke:none" />
    <path
       style="font-style:normal;font-variant:normal;font-weight:normal;font-stretch:normal;font-size:10px;line-height:125%;font-family:'Nimbus Sans L';-inkscape-font-specification:'Nimbus Sans L';letter-spacing:1px;word-spacing:0px;fill:#489943;fill-opacity:1;stroke:none;stroke-width:1px;stroke-linecap:butt;stroke-linejoin:miter;stroke-opacity:1"
       d="m 25.41125,1043.5978 2.02125,-6.8775 -1.23375,0 -1.365,5.355 -1.351875,-5.355 -1.33875,0 -1.3125,5.355 -1.404375,-5.355 -1.2075,0 1.995,6.8775 1.23375,0 1.325625,-5.3943 1.39125,5.3943 1.246875,0 z"
       id="path4182"
       inkscape:connector-curvature="0" />
    <path
       style="font-style:normal;font-variant:normal;font-weight:normal;font-stretch:normal;font-size:10px;line-height:125%;font-family:'Nimbus Sans L';-inkscape-font-specification:'Nimbus Sans L';letter-spacing:1px;word-spacing:0px;fill:#489943;fill-opacity:1;stroke:none;stroke-width:1px;stroke-linecap:butt;stroke-linejoin:miter;stroke-opacity:1"
       d="m 35.959238,1042.9547 c -0.118125,0.026 -0.170625,0.026 -0.23625,0.026 -0.380625,0 -0.590625,-0.1969 -0.590625,-0.5382 l 0,-4.0425 c 0,-1.2206 -0.8925,-1.8768 -2.585625,-1.8768 -0.9975,0 -1.824375,0.2887 -2.28375,0.8006 -0.315,0.3544 -0.44625,0.7481 -0.4725,1.4306 l 1.1025,0 c 0.09188,-0.84 0.590625,-1.2206 1.614375,-1.2206 0.984375,0 1.535625,0.3675 1.535625,1.0237 l 0,0.2888 c 0,0.4594 -0.275625,0.6562 -1.141875,0.7612 -1.54875,0.1969 -1.785,0.2494 -2.205,0.42 -0.800625,0.3282 -1.2075,0.945 -1.2075,1.8375 0,1.2469 0.86625,2.0344 2.2575,2.0344 0.86625,0 1.561875,-0.3019 2.33625,-1.0106 0.07875,0.6956 0.42,1.0106 1.12875,1.0106 0.223125,0 0.39375,-0.026 0.748125,-0.1181 l 0,-0.8269 z m -1.91625,-1.5225 c 0,0.3675 -0.105,0.5906 -0.433125,0.8925 -0.44625,0.4069 -0.984375,0.6169 -1.6275,0.6169 -0.853125,0 -1.351875,-0.4069 -1.351875,-1.1025 0,-0.7219 0.485625,-1.0894 1.65375,-1.26 1.155,-0.1575 1.39125,-0.21 1.75875,-0.3806 l 0,1.2337 z"
       id="path4184"
       inkscape:connector-curvature="0" />
    <path
       style="font-style:normal;font-variant:normal;font-weight:normal;font-stretch:normal;font-size:10px;line-height:125%;font-family:'Nimbus Sans L';-inkscape-font-specification:'Nimbus Sans L';letter-spacing:1px;word-spacing:0px;fill:#489943;fill-opacity:1;stroke:none;stroke-width:1px;stroke-linecap:butt;stroke-linejoin:miter;stroke-opacity:1"
       d="m 41.296396,1043.5978 2.638124,-6.8775 -1.233749,0 -1.9425,5.5782 -1.8375,-5.5782 -1.23375,0 2.415,6.8775 1.194375,0 z"
       id="path4186"
       inkscape:connector-curvature="0" />
  </g>
</svg>
