<?xml version="1.0" encoding="UTF-8" standalone="no"?>
<!-- Created with Inkscape (http://www.inkscape.org/) -->

<svg
   xmlns:dc="http://purl.org/dc/elements/1.1/"
   xmlns:cc="http://creativecommons.org/ns#"
   xmlns:rdf="http://www.w3.org/1999/02/22-rdf-syntax-ns#"
   xmlns:svg="http://www.w3.org/2000/svg"
   xmlns="http://www.w3.org/2000/svg"
   xmlns:xlink="http://www.w3.org/1999/xlink"
   xmlns:sodipodi="http://sodipodi.sourceforge.net/DTD/sodipodi-0.dtd"
   xmlns:inkscape="http://www.inkscape.org/namespaces/inkscape"
   width="64"
   height="64"
   viewBox="0 0 63.999999 63.999999"
   id="svg9170"
   version="1.1"
   inkscape:version="0.91 r13725"
   sodipodi:docname="audio-x-vorbis+ogg.svg">
  <defs
     id="defs9172">
    <linearGradient
       inkscape:collect="always"
       xlink:href="#linearGradient4132-8-9-8-16"
       id="linearGradient4307"
       gradientUnits="userSpaceOnUse"
       gradientTransform="matrix(1.2147059,0,0,1.2806203,68.564713,991.32033)"
       x1="-29.694916"
       y1="44.701263"
       x2="-29.694916"
       y2="0.91525328" />
    <linearGradient
       inkscape:collect="always"
       id="linearGradient4132-8-9-8-16">
      <stop
         style="stop-color:#62aa5d;stop-opacity:1"
         offset="0"
         id="stop4134-65-4-7-06" />
      <stop
         style="stop-color:#90ec87;stop-opacity:1"
         offset="1"
         id="stop4136-9-6-7-92" />
    </linearGradient>
  </defs>
  <sodipodi:namedview
     id="base"
     pagecolor="#ffffff"
     bordercolor="#666666"
     borderopacity="1.0"
     inkscape:pageopacity="0.0"
     inkscape:pageshadow="2"
     inkscape:zoom="5.656854"
     inkscape:cx="-12.551166"
     inkscape:cy="33.70435"
     inkscape:document-units="px"
     inkscape:current-layer="layer1"
     showgrid="false"
     units="px"
     inkscape:window-width="1440"
     inkscape:window-height="853"
     inkscape:window-x="0"
     inkscape:window-y="0"
     inkscape:window-maximized="1"
     inkscape:snap-object-midpoints="true"
     inkscape:snap-smooth-nodes="true"
     inkscape:object-nodes="true"
     inkscape:object-paths="true" />
  <metadata
     id="metadata9175">
    <rdf:RDF>
      <cc:Work
         rdf:about="">
        <dc:format>image/svg+xml</dc:format>
        <dc:type
           rdf:resource="http://purl.org/dc/dcmitype/StillImage" />
        <dc:title />
      </cc:Work>
    </rdf:RDF>
  </metadata>
  <g
     inkscape:label="Layer 1"
     inkscape:groupmode="layer"
     id="layer1"
     transform="translate(0,-988.3622)">
    <rect
       style="fill:#71be6b;fill-opacity:1;stroke:none"
       id="rect4154-0"
       width="46"
       height="60"
       x="9"
       y="990.36218" />
    <rect
       y="991.36218"
       x="10"
       height="58"
       width="44"
       id="rect4150-2"
       style="fill:#ffffff;fill-opacity:1;stroke:none" />
    <rect
       style="fill:url(#linearGradient4307);fill-opacity:1;stroke:none"
       id="rect3362-9-8-1-60"
       width="42"
       height="56"
       x="11"
       y="992.36218" />
    <rect
       y="1031.3622"
       x="10"
       height="18"
       width="44"
       id="rect4081-2-3-53"
       style="fill:#ffffff;fill-opacity:1;stroke:none" />
    <path
       style="fill:#ffffff;fill-opacity:1;stroke:none"
       d="m 12,1026.3622 0,3 7,0 0,-3 z"
       id="path4261"
       inkscape:connector-curvature="0" />
    <path
       inkscape:connector-curvature="0"
       id="path4329"
       d="m 12,1021.3622 0,3 7,0 0,-3 z"
       style="fill:#ffffff;fill-opacity:1;stroke:none" />
    <path
       style="fill:#ffffff;fill-opacity:1;stroke:none"
       d="m 12,1016.3622 0,3 7,0 0,-3 z"
       id="path4333"
       inkscape:connector-curvature="0" />
    <path
       inkscape:connector-curvature="0"
       id="path4337"
       d="m 12,1011.3622 0,3 7,0 0,-3 z"
       style="fill:#ffffff;fill-opacity:1;stroke:none" />
    <path
       style="fill:#ffffff;fill-opacity:1;stroke:none"
       d="m 12,1006.3622 0,3 7,0 0,-3 z"
       id="path4341"
       inkscape:connector-curvature="0" />
    <path
       inkscape:connector-curvature="0"
       id="path4345"
       d="m 12,1001.3622 0,3 7,0 0,-3 z"
       style="fill:#ffffff;fill-opacity:1;stroke:none" />
    <path
       inkscape:connector-curvature="0"
       id="path4349"
       d="m 20,1026.3622 0,3 7,0 0,-3 z"
       style="fill:#ffffff;fill-opacity:1;stroke:none" />
    <path
       style="fill:#ffffff;fill-opacity:1;stroke:none"
       d="m 20,1021.3622 0,3 7,0 0,-3 z"
       id="path4351"
       inkscape:connector-curvature="0" />
    <path
       inkscape:connector-curvature="0"
       id="path4353"
       d="m 20,1016.3622 0,3 7,0 0,-3 z"
       style="fill:#ffffff;fill-opacity:1;stroke:none" />
    <path
       style="fill:#ffffff;fill-opacity:1;stroke:none"
       d="m 20,1011.3622 0,3 7,0 0,-3 z"
       id="path4355"
       inkscape:connector-curvature="0" />
    <path
       inkscape:connector-curvature="0"
       id="path4357"
       d="m 20,1006.3622 0,3 7,0 0,-3 z"
       style="fill:#ffffff;fill-opacity:1;stroke:none" />
    <path
       inkscape:connector-curvature="0"
       id="path4369"
       d="m 28,1026.3622 0,3 8,0 0,-3 z"
       style="fill:#ffffff;fill-opacity:1;stroke:none" />
    <path
       style="fill:#ffffff;fill-opacity:1;stroke:none"
       d="m 28,1021.3622 0,3 8,0 0,-3 z"
       id="path4371"
       inkscape:connector-curvature="0" />
    <path
       inkscape:connector-curvature="0"
       id="path4373"
       d="m 28,1016.3622 0,3 8,0 0,-3 z"
       style="fill:#ffffff;fill-opacity:1;stroke:none" />
    <path
       style="fill:#ffffff;fill-opacity:1;stroke:none"
       d="m 28,1011.3622 0,3 8,0 0,-3 z"
       id="path4375"
       inkscape:connector-curvature="0" />
    <path
       inkscape:connector-curvature="0"
       id="path4377"
       d="m 28,1006.3622 0,3 8,0 0,-3 z"
       style="fill:#ffffff;fill-opacity:1;stroke:none" />
    <path
       style="fill:#ffffff;fill-opacity:1;stroke:none"
       d="m 28,1001.3622 0,3 8,0 0,-3 z"
       id="path4379"
       inkscape:connector-curvature="0" />
    <path
       style="fill:#ffffff;fill-opacity:1;stroke:none"
       d="m 37,1026.3622 0,3 7,0 0,-3 z"
       id="path4405"
       inkscape:connector-curvature="0" />
    <path
       inkscape:connector-curvature="0"
       id="path4407"
       d="m 37,1021.3622 0,3 7,0 0,-3 z"
       style="fill:#ffffff;fill-opacity:1;stroke:none" />
    <path
       style="fill:#ffffff;fill-opacity:1;stroke:none"
       d="m 37,1016.3622 0,3 7,0 0,-3 z"
       id="path4409"
       inkscape:connector-curvature="0" />
    <path
       inkscape:connector-curvature="0"
       id="path4411"
       d="m 37,1011.3622 0,3 7,0 0,-3 z"
       style="fill:#ffffff;fill-opacity:1;stroke:none" />
    <path
       style="fill:#ffffff;fill-opacity:1;stroke:none"
       d="m 37,1006.3622 0,3 7,0 0,-3 z"
       id="path4413"
       inkscape:connector-curvature="0" />
    <path
       style="fill:#ffffff;fill-opacity:1;stroke:none"
       d="m 45,1026.3622 0,3 7,0 0,-3 z"
       id="path4429"
       inkscape:connector-curvature="0" />
    <path
       inkscape:connector-curvature="0"
       id="path4431"
       d="m 45,1021.3622 0,3 7,0 0,-3 z"
       style="fill:#ffffff;fill-opacity:1;stroke:none" />
    <path
       style="fill:#ffffff;fill-opacity:1;stroke:none"
       d="m 45,1016.3622 0,3 7,0 0,-3 z"
       id="path4433"
       inkscape:connector-curvature="0" />
    <path
       inkscape:connector-curvature="0"
       id="path4435"
       d="m 45,1011.3622 0,3 7,0 0,-3 z"
       style="fill:#ffffff;fill-opacity:1;stroke:none" />
    <path
       inkscape:connector-curvature="0"
       d="m 23.382536,1034.9395 c -2.315248,0 -3.717,1.6537 -3.717,4.4257 0,2.772 1.386002,4.4258 3.73275,4.4258 2.315247,0 3.73275,-1.6538 3.73275,-4.3628 0,-2.8507 -1.370253,-4.4887 -3.7485,-4.4887 m 0.01575,1.2127 c 1.480499,0 2.3625,1.2128 2.3625,3.2603 0,1.9372 -0.913501,3.1657 -2.3625,3.1657 -1.464749,0 -2.3625,-1.2127 -2.3625,-3.213 0,-1.9845 0.897751,-3.213 2.3625,-3.213"
       style="font-style:normal;font-variant:normal;font-weight:normal;font-stretch:normal;font-size:12px;line-height:125%;font-family:'Nimbus Sans L';-inkscape-font-specification:'Nimbus Sans L';letter-spacing:0px;word-spacing:0px;fill:#489943;fill-opacity:1;stroke:none"
       id="path4372" />
    <path
       inkscape:connector-curvature="0"
       d="m 34.354625,1035.1757 0,1.197 c -0.661499,-0.9765 -1.46475,-1.4332 -2.52,-1.4332 -2.094747,0 -3.51225,1.827 -3.51225,4.5045 0,1.3545 0.362251,2.457 1.0395,3.2445 0.61425,0.693 1.496251,1.1025 2.3625,1.1025 1.0395,0 1.764001,-0.441 2.50425,-1.4805 l 0,0.4252 c 0,1.1183 -0.14175,1.7955 -0.4725,2.2523 -0.346499,0.4882 -1.02375,0.7717 -1.827,0.7717 -0.598499,0 -1.134,-0.1575 -1.49625,-0.441 -0.299249,-0.2362 -0.42525,-0.4567 -0.504,-0.945 l -1.33875,0 c 0.14175,1.5593 1.354503,2.4885 3.29175,2.4885 1.228499,0 2.283751,-0.3937 2.81925,-1.0552 0.63,-0.756 0.86625,-1.7955 0.86625,-3.7328 l 0,-6.8985 -1.21275,0 m -2.37825,0.9765 c 1.417499,0 2.25225,1.197 2.25225,3.2603 0,1.9687 -0.850501,3.1657 -2.2365,3.1657 -1.433249,0 -2.2995,-1.2127 -2.2995,-3.213 0,-1.9845 0.882001,-3.213 2.28375,-3.213"
       style="font-style:normal;font-variant:normal;font-weight:normal;font-stretch:normal;font-size:12px;line-height:125%;font-family:'Nimbus Sans L';-inkscape-font-specification:'Nimbus Sans L';letter-spacing:0px;word-spacing:0px;fill:#489943;fill-opacity:1;stroke:none"
       id="path4374" />
    <path
       inkscape:connector-curvature="0"
       d="m 43.121715,1035.1757 0,1.197 c -0.661499,-0.9765 -1.464751,-1.4332 -2.519999,-1.4332 -2.094749,0 -3.512251,1.827 -3.512251,4.5045 0,1.3545 0.36225,2.457 1.0395,3.2445 0.614249,0.693 1.496252,1.1025 2.3625,1.1025 1.039499,0 1.764,-0.441 2.50425,-1.4805 l 0,0.4252 c 0,1.1183 -0.14175,1.7955 -0.4725,2.2523 -0.3465,0.4882 -1.023751,0.7717 -1.827,0.7717 -0.5985,0 -1.134,-0.1575 -1.49625,-0.441 -0.29925,-0.2362 -0.42525,-0.4567 -0.504,-0.945 l -1.33875,0 c 0.14175,1.5593 1.354502,2.4885 3.29175,2.4885 1.228499,0 2.28375,-0.3937 2.81925,-1.0552 0.629999,-0.756 0.86625,-1.7955 0.86625,-3.7328 l 0,-6.8985 -1.21275,0 m -2.37825,0.9765 c 1.417499,0 2.25225,1.197 2.25225,3.2603 0,1.9687 -0.850501,3.1657 -2.2365,3.1657 -1.433248,0 -2.299499,-1.2127 -2.299499,-3.213 0,-1.9845 0.882001,-3.213 2.283749,-3.213"
       style="font-style:normal;font-variant:normal;font-weight:normal;font-stretch:normal;font-size:12px;line-height:125%;font-family:'Nimbus Sans L';-inkscape-font-specification:'Nimbus Sans L';letter-spacing:0px;word-spacing:0px;fill:#489943;fill-opacity:1;stroke:none"
       id="path4376" />
  </g>
</svg>
