<?xml version="1.0" encoding="UTF-8" standalone="no"?>
<!-- Created with Inkscape (http://www.inkscape.org/) -->

<svg
   xmlns:dc="http://purl.org/dc/elements/1.1/"
   xmlns:cc="http://creativecommons.org/ns#"
   xmlns:rdf="http://www.w3.org/1999/02/22-rdf-syntax-ns#"
   xmlns:svg="http://www.w3.org/2000/svg"
   xmlns="http://www.w3.org/2000/svg"
   xmlns:xlink="http://www.w3.org/1999/xlink"
   xmlns:sodipodi="http://sodipodi.sourceforge.net/DTD/sodipodi-0.dtd"
   xmlns:inkscape="http://www.inkscape.org/namespaces/inkscape"
   width="64"
   height="64"
   viewBox="0 0 63.999999 63.999999"
   id="svg9170"
   version="1.1"
   inkscape:version="0.91 r13725"
   sodipodi:docname="audio-mpeg.svg">
  <defs
     id="defs9172">
    <linearGradient
       inkscape:collect="always"
       xlink:href="#linearGradient4132-8-9-8-16"
       id="linearGradient4307"
       gradientUnits="userSpaceOnUse"
       gradientTransform="matrix(1.2147059,0,0,1.2806203,68.564713,991.32033)"
       x1="-29.694916"
       y1="44.701263"
       x2="-29.694916"
       y2="0.91525328" />
    <linearGradient
       inkscape:collect="always"
       id="linearGradient4132-8-9-8-16">
      <stop
         style="stop-color:#62aa5d;stop-opacity:1"
         offset="0"
         id="stop4134-65-4-7-06" />
      <stop
         style="stop-color:#90ec87;stop-opacity:1"
         offset="1"
         id="stop4136-9-6-7-92" />
    </linearGradient>
  </defs>
  <sodipodi:namedview
     id="base"
     pagecolor="#ffffff"
     bordercolor="#666666"
     borderopacity="1.0"
     inkscape:pageopacity="0.0"
     inkscape:pageshadow="2"
     inkscape:zoom="3.9999998"
     inkscape:cx="75.711702"
     inkscape:cy="49.567449"
     inkscape:document-units="px"
     inkscape:current-layer="layer1"
     showgrid="false"
     units="px"
     inkscape:window-width="1440"
     inkscape:window-height="853"
     inkscape:window-x="0"
     inkscape:window-y="0"
     inkscape:window-maximized="1"
     inkscape:snap-object-midpoints="true"
     inkscape:snap-smooth-nodes="true"
     inkscape:object-nodes="true"
     inkscape:object-paths="true" />
  <metadata
     id="metadata9175">
    <rdf:RDF>
      <cc:Work
         rdf:about="">
        <dc:format>image/svg+xml</dc:format>
        <dc:type
           rdf:resource="http://purl.org/dc/dcmitype/StillImage" />
        <dc:title />
      </cc:Work>
    </rdf:RDF>
  </metadata>
  <g
     inkscape:label="Layer 1"
     inkscape:groupmode="layer"
     id="layer1"
     transform="translate(0,-988.3622)">
    <rect
       style="fill:#71be6b;fill-opacity:1;stroke:none"
       id="rect4154-0"
       width="46"
       height="60"
       x="9"
       y="990.36218" />
    <rect
       y="991.36218"
       x="10"
       height="58"
       width="44"
       id="rect4150-2"
       style="fill:#ffffff;fill-opacity:1;stroke:none" />
    <rect
       style="fill:url(#linearGradient4307);fill-opacity:1;stroke:none"
       id="rect3362-9-8-1-60"
       width="42"
       height="56"
       x="11"
       y="992.36218" />
    <rect
       y="1031.3622"
       x="10"
       height="18"
       width="44"
       id="rect4081-2-3-53"
       style="fill:#ffffff;fill-opacity:1;stroke:none" />
    <path
       style="fill:#ffffff;fill-opacity:1;stroke:none"
       d="m 12,1026.3622 0,3 7,0 0,-3 z"
       id="path4261"
       inkscape:connector-curvature="0" />
    <path
       inkscape:connector-curvature="0"
       id="path4329"
       d="m 12,1021.3622 0,3 7,0 0,-3 z"
       style="fill:#ffffff;fill-opacity:1;stroke:none" />
    <path
       style="fill:#ffffff;fill-opacity:1;stroke:none"
       d="m 12,1016.3622 0,3 7,0 0,-3 z"
       id="path4333"
       inkscape:connector-curvature="0" />
    <path
       inkscape:connector-curvature="0"
       id="path4337"
       d="m 12,1011.3622 0,3 7,0 0,-3 z"
       style="fill:#ffffff;fill-opacity:1;stroke:none" />
    <path
       style="fill:#ffffff;fill-opacity:1;stroke:none"
       d="m 12,1006.3622 0,3 7,0 0,-3 z"
       id="path4341"
       inkscape:connector-curvature="0" />
    <path
       inkscape:connector-curvature="0"
       id="path4345"
       d="m 12,1001.3622 0,3 7,0 0,-3 z"
       style="fill:#ffffff;fill-opacity:1;stroke:none" />
    <path
       inkscape:connector-curvature="0"
       id="path4349"
       d="m 20,1026.3622 0,3 7,0 0,-3 z"
       style="fill:#ffffff;fill-opacity:1;stroke:none" />
    <path
       style="fill:#ffffff;fill-opacity:1;stroke:none"
       d="m 20,1021.3622 0,3 7,0 0,-3 z"
       id="path4351"
       inkscape:connector-curvature="0" />
    <path
       inkscape:connector-curvature="0"
       id="path4353"
       d="m 20,1016.3622 0,3 7,0 0,-3 z"
       style="fill:#ffffff;fill-opacity:1;stroke:none" />
    <path
       style="fill:#ffffff;fill-opacity:1;stroke:none"
       d="m 20,1011.3622 0,3 7,0 0,-3 z"
       id="path4355"
       inkscape:connector-curvature="0" />
    <path
       inkscape:connector-curvature="0"
       id="path4357"
       d="m 20,1006.3622 0,3 7,0 0,-3 z"
       style="fill:#ffffff;fill-opacity:1;stroke:none" />
    <path
       inkscape:connector-curvature="0"
       id="path4369"
       d="m 28,1026.3622 0,3 8,0 0,-3 z"
       style="fill:#ffffff;fill-opacity:1;stroke:none" />
    <path
       style="fill:#ffffff;fill-opacity:1;stroke:none"
       d="m 28,1021.3622 0,3 8,0 0,-3 z"
       id="path4371"
       inkscape:connector-curvature="0" />
    <path
       inkscape:connector-curvature="0"
       id="path4373"
       d="m 28,1016.3622 0,3 8,0 0,-3 z"
       style="fill:#ffffff;fill-opacity:1;stroke:none" />
    <path
       style="fill:#ffffff;fill-opacity:1;stroke:none"
       d="m 28,1011.3622 0,3 8,0 0,-3 z"
       id="path4375"
       inkscape:connector-curvature="0" />
    <path
       inkscape:connector-curvature="0"
       id="path4377"
       d="m 28,1006.3622 0,3 8,0 0,-3 z"
       style="fill:#ffffff;fill-opacity:1;stroke:none" />
    <path
       style="fill:#ffffff;fill-opacity:1;stroke:none"
       d="m 28,1001.3622 0,3 8,0 0,-3 z"
       id="path4379"
       inkscape:connector-curvature="0" />
    <path
       style="fill:#ffffff;fill-opacity:1;stroke:none"
       d="m 37,1026.3622 0,3 7,0 0,-3 z"
       id="path4405"
       inkscape:connector-curvature="0" />
    <path
       inkscape:connector-curvature="0"
       id="path4407"
       d="m 37,1021.3622 0,3 7,0 0,-3 z"
       style="fill:#ffffff;fill-opacity:1;stroke:none" />
    <path
       style="fill:#ffffff;fill-opacity:1;stroke:none"
       d="m 37,1016.3622 0,3 7,0 0,-3 z"
       id="path4409"
       inkscape:connector-curvature="0" />
    <path
       inkscape:connector-curvature="0"
       id="path4411"
       d="m 37,1011.3622 0,3 7,0 0,-3 z"
       style="fill:#ffffff;fill-opacity:1;stroke:none" />
    <path
       style="fill:#ffffff;fill-opacity:1;stroke:none"
       d="m 37,1006.3622 0,3 7,0 0,-3 z"
       id="path4413"
       inkscape:connector-curvature="0" />
    <path
       style="fill:#ffffff;fill-opacity:1;stroke:none"
       d="m 45,1026.3622 0,3 7,0 0,-3 z"
       id="path4429"
       inkscape:connector-curvature="0" />
    <path
       inkscape:connector-curvature="0"
       id="path4431"
       d="m 45,1021.3622 0,3 7,0 0,-3 z"
       style="fill:#ffffff;fill-opacity:1;stroke:none" />
    <path
       style="fill:#ffffff;fill-opacity:1;stroke:none"
       d="m 45,1016.3622 0,3 7,0 0,-3 z"
       id="path4433"
       inkscape:connector-curvature="0" />
    <path
       inkscape:connector-curvature="0"
       id="path4435"
       d="m 45,1011.3622 0,3 7,0 0,-3 z"
       style="fill:#ffffff;fill-opacity:1;stroke:none" />
    <path
       d="m 18.874823,1036.8622 0,6.5625 1.18932,0 0,-4.0761 c 0,-1.0221 0.778724,-1.8427 1.741505,-1.8427 0.877831,0 1.373382,0.5112 1.373382,1.4122 l 0,4.5066 1.189321,0 0,-4.0761 c 0,-1.0221 0.778722,-1.8427 1.741505,-1.8427 0.863672,0 1.373381,0.5245 1.373381,1.4122 l 0,4.5066 1.189321,0 0,-4.9369 c 0,-1.2644 -0.764566,-1.9638 -2.152104,-1.9638 -0.991099,0 -1.585761,0.2825 -2.27953,1.076 -0.438916,-0.7533 -1.033578,-1.076 -1.99636,-1.076 -0.991099,0 -1.642395,0.3497 -2.27953,1.197 l 0,-0.8588 -1.090211,0"
       style="font-style:normal;font-variant:normal;font-weight:normal;font-stretch:normal;font-size:10.78748608px;line-height:125%;font-family:'Nimbus Sans L';-inkscape-font-specification:'Nimbus Sans L';letter-spacing:0px;word-spacing:0px;fill:#489943;fill-opacity:1;stroke:none"
       id="path4853"
       inkscape:connector-curvature="0"
       sodipodi:nodetypes="cccsssccsssccsscsccc" />
    <path
       d="m 30.687323,1047.3622 1.18932,0 0,-4.3282 c 0.622977,0.7263 1.316749,1.0491 2.279531,1.0491 1.911405,0 3.171521,-1.4661 3.171521,-3.7123 0,-2.3672 -1.217639,-3.8468 -3.185679,-3.8468 -1.005258,0 -1.812299,0.4304 -2.364483,1.2643 l 0,-0.9261 -1.09021,0 0,10.5 m 3.256472,-9.789 c 1.302588,0 2.152104,1.0895 2.152104,2.7707 0,1.6006 -0.863675,2.6901 -2.152104,2.6901 -1.245953,0 -2.067152,-1.076 -2.067152,-2.7305 0,-1.6543 0.821199,-2.7303 2.067152,-2.7303"
       style="font-style:normal;font-variant:normal;font-weight:normal;font-stretch:normal;font-size:10.78748608px;line-height:125%;font-family:'Nimbus Sans L';-inkscape-font-specification:'Nimbus Sans L';letter-spacing:0px;word-spacing:0px;fill:#489943;fill-opacity:1;stroke:none"
       id="path4855"
       inkscape:connector-curvature="0"
       sodipodi:nodetypes="cccssscccccsssc" />
    <path
       d="m 41.089981,1039.4024 0.155745,0 0.523868,-0.014 c 1.37338,0 2.08131,0.5918 2.08131,1.7351 0,1.197 -0.778724,1.91 -2.08131,1.91 -1.359223,0 -2.024677,-0.6456 -2.109629,-2.031 l -1.245955,0 c 0.05663,0.7667 0.198221,1.2644 0.438917,1.6947 0.50971,0.9146 1.500811,1.3854 2.874192,1.3854 2.06715,0 3.398058,-1.1701 3.398058,-2.9725 0,-1.2106 -0.495553,-1.8831 -1.699028,-2.2731 0.934464,-0.3498 1.401697,-1.0223 1.401697,-1.9773 0,-1.6408 -1.146845,-2.6227 -3.058251,-2.6227 -2.024674,0 -3.100729,1.0491 -3.143205,3.08 l 1.245955,0 c 0.01416,-0.5784 0.0708,-0.9011 0.226537,-1.197 0.283172,-0.5246 0.90615,-0.8473 1.684871,-0.8473 1.104368,0 1.769822,0.6186 1.769822,1.6275 0,0.6725 -0.254854,1.076 -0.807039,1.2912 -0.339805,0.1345 -0.778722,0.1882 -1.656553,0.2017 l 0,1.0088"
       style="font-style:normal;font-variant:normal;font-weight:normal;font-stretch:normal;font-size:10.78748608px;line-height:125%;font-family:'Nimbus Sans L';-inkscape-font-specification:'Nimbus Sans L';letter-spacing:0px;word-spacing:0px;fill:#489943;fill-opacity:1;stroke:none"
       id="path4857"
       inkscape:connector-curvature="0" />
  </g>
</svg>
