<?xml version="1.0" encoding="UTF-8" standalone="no"?>
<!-- Created with Inkscape (http://www.inkscape.org/) -->

<svg
   xmlns:dc="http://purl.org/dc/elements/1.1/"
   xmlns:cc="http://creativecommons.org/ns#"
   xmlns:rdf="http://www.w3.org/1999/02/22-rdf-syntax-ns#"
   xmlns:svg="http://www.w3.org/2000/svg"
   xmlns="http://www.w3.org/2000/svg"
   xmlns:xlink="http://www.w3.org/1999/xlink"
   xmlns:sodipodi="http://sodipodi.sourceforge.net/DTD/sodipodi-0.dtd"
   xmlns:inkscape="http://www.inkscape.org/namespaces/inkscape"
   width="64"
   height="64"
   viewBox="0 0 63.999999 63.999999"
   id="svg9170"
   version="1.1"
   inkscape:version="0.91 r13725"
   sodipodi:docname="audio-midi.svg">
  <defs
     id="defs9172">
    <linearGradient
       inkscape:collect="always"
       xlink:href="#linearGradient4132-8-9-8-16"
       id="linearGradient4307"
       gradientUnits="userSpaceOnUse"
       gradientTransform="matrix(1.2147059,0,0,1.2806203,68.564713,991.32033)"
       x1="-29.694916"
       y1="44.701263"
       x2="-29.694916"
       y2="0.91525328" />
    <linearGradient
       inkscape:collect="always"
       id="linearGradient4132-8-9-8-16">
      <stop
         style="stop-color:#62aa5d;stop-opacity:1"
         offset="0"
         id="stop4134-65-4-7-06" />
      <stop
         style="stop-color:#90ec87;stop-opacity:1"
         offset="1"
         id="stop4136-9-6-7-92" />
    </linearGradient>
  </defs>
  <sodipodi:namedview
     id="base"
     pagecolor="#ffffff"
     bordercolor="#666666"
     borderopacity="1.0"
     inkscape:pageopacity="0.0"
     inkscape:pageshadow="2"
     inkscape:zoom="4"
     inkscape:cx="-7.309823"
     inkscape:cy="25.536693"
     inkscape:document-units="px"
     inkscape:current-layer="layer1"
     showgrid="false"
     units="px"
     inkscape:window-width="1440"
     inkscape:window-height="853"
     inkscape:window-x="0"
     inkscape:window-y="0"
     inkscape:window-maximized="1"
     inkscape:snap-object-midpoints="true"
     inkscape:snap-smooth-nodes="true"
     inkscape:object-nodes="true"
     inkscape:object-paths="true" />
  <metadata
     id="metadata9175">
    <rdf:RDF>
      <cc:Work
         rdf:about="">
        <dc:format>image/svg+xml</dc:format>
        <dc:type
           rdf:resource="http://purl.org/dc/dcmitype/StillImage" />
        <dc:title />
      </cc:Work>
    </rdf:RDF>
  </metadata>
  <g
     inkscape:label="Layer 1"
     inkscape:groupmode="layer"
     id="layer1"
     transform="translate(0,-988.3622)">
    <rect
       style="fill:#71be6b;fill-opacity:1;stroke:none"
       id="rect4154-0"
       width="46"
       height="60"
       x="9"
       y="990.36218" />
    <rect
       y="991.36218"
       x="10"
       height="58"
       width="44"
       id="rect4150-2"
       style="fill:#ffffff;fill-opacity:1;stroke:none" />
    <rect
       style="fill:url(#linearGradient4307);fill-opacity:1;stroke:none"
       id="rect3362-9-8-1-60"
       width="42"
       height="56"
       x="11"
       y="992.36218" />
    <rect
       y="1031.3622"
       x="10"
       height="18"
       width="44"
       id="rect4081-2-3-53"
       style="fill:#ffffff;fill-opacity:1;stroke:none" />
    <path
       style="fill:#ffffff;fill-opacity:1;stroke:none"
       d="m 12,1026.3622 0,3 7,0 0,-3 z"
       id="path4261"
       inkscape:connector-curvature="0" />
    <path
       sodipodi:type="star"
       style="fill:#55b24e;fill-opacity:1;stroke:none"
       id="path3843-8-1-0-3-5-8-7"
       sodipodi:sides="3"
       sodipodi:cx="21.59201"
       sodipodi:cy="18.705576"
       sodipodi:r1="8.1929073"
       sodipodi:r2="4.0964532"
       sodipodi:arg1="2.0943951"
       sodipodi:arg2="3.1415927"
       inkscape:flatsided="false"
       inkscape:rounded="0"
       inkscape:randomized="0"
       d="m 17.495557,25.800842 0,-7.095266 0,-7.095266 6.14468,3.547634 6.144681,3.547632 -6.144681,3.547633 z"
       transform="matrix(0.65096957,0,0,0.77516475,16.610925,1026.3623)"
       inkscape:transform-center-x="-1.3333343"
       inkscape:transform-center-y="4.3005003e-05" />
    <path
       inkscape:connector-curvature="0"
       id="path4329"
       d="m 12,1021.3622 0,3 7,0 0,-3 z"
       style="fill:#ffffff;fill-opacity:1;stroke:none" />
    <path
       style="fill:#ffffff;fill-opacity:1;stroke:none"
       d="m 12,1016.3622 0,3 7,0 0,-3 z"
       id="path4333"
       inkscape:connector-curvature="0" />
    <path
       inkscape:connector-curvature="0"
       id="path4337"
       d="m 12,1011.3622 0,3 7,0 0,-3 z"
       style="fill:#ffffff;fill-opacity:1;stroke:none" />
    <path
       style="fill:#ffffff;fill-opacity:1;stroke:none"
       d="m 12,1006.3622 0,3 7,0 0,-3 z"
       id="path4341"
       inkscape:connector-curvature="0" />
    <path
       inkscape:connector-curvature="0"
       id="path4345"
       d="m 12,1001.3622 0,3 7,0 0,-3 z"
       style="fill:#ffffff;fill-opacity:1;stroke:none" />
    <path
       inkscape:connector-curvature="0"
       id="path4349"
       d="m 20,1026.3622 0,3 7,0 0,-3 z"
       style="fill:#ffffff;fill-opacity:1;stroke:none" />
    <path
       style="fill:#ffffff;fill-opacity:1;stroke:none"
       d="m 20,1021.3622 0,3 7,0 0,-3 z"
       id="path4351"
       inkscape:connector-curvature="0" />
    <path
       inkscape:connector-curvature="0"
       id="path4353"
       d="m 20,1016.3622 0,3 7,0 0,-3 z"
       style="fill:#ffffff;fill-opacity:1;stroke:none" />
    <path
       style="fill:#ffffff;fill-opacity:1;stroke:none"
       d="m 20,1011.3622 0,3 7,0 0,-3 z"
       id="path4355"
       inkscape:connector-curvature="0" />
    <path
       inkscape:connector-curvature="0"
       id="path4357"
       d="m 20,1006.3622 0,3 7,0 0,-3 z"
       style="fill:#ffffff;fill-opacity:1;stroke:none" />
    <path
       inkscape:connector-curvature="0"
       id="path4369"
       d="m 28,1026.3622 0,3 8,0 0,-3 z"
       style="fill:#ffffff;fill-opacity:1;stroke:none" />
    <path
       style="fill:#ffffff;fill-opacity:1;stroke:none"
       d="m 28,1021.3622 0,3 8,0 0,-3 z"
       id="path4371"
       inkscape:connector-curvature="0" />
    <path
       inkscape:connector-curvature="0"
       id="path4373"
       d="m 28,1016.3622 0,3 8,0 0,-3 z"
       style="fill:#ffffff;fill-opacity:1;stroke:none" />
    <path
       style="fill:#ffffff;fill-opacity:1;stroke:none"
       d="m 28,1011.3622 0,3 8,0 0,-3 z"
       id="path4375"
       inkscape:connector-curvature="0" />
    <path
       inkscape:connector-curvature="0"
       id="path4377"
       d="m 28,1006.3622 0,3 8,0 0,-3 z"
       style="fill:#ffffff;fill-opacity:1;stroke:none" />
    <path
       style="fill:#ffffff;fill-opacity:1;stroke:none"
       d="m 28,1001.3622 0,3 8,0 0,-3 z"
       id="path4379"
       inkscape:connector-curvature="0" />
    <path
       style="fill:#ffffff;fill-opacity:1;stroke:none"
       d="m 37,1026.3622 0,3 7,0 0,-3 z"
       id="path4405"
       inkscape:connector-curvature="0" />
    <path
       inkscape:connector-curvature="0"
       id="path4407"
       d="m 37,1021.3622 0,3 7,0 0,-3 z"
       style="fill:#ffffff;fill-opacity:1;stroke:none" />
    <path
       style="fill:#ffffff;fill-opacity:1;stroke:none"
       d="m 37,1016.3622 0,3 7,0 0,-3 z"
       id="path4409"
       inkscape:connector-curvature="0" />
    <path
       inkscape:connector-curvature="0"
       id="path4411"
       d="m 37,1011.3622 0,3 7,0 0,-3 z"
       style="fill:#ffffff;fill-opacity:1;stroke:none" />
    <path
       style="fill:#ffffff;fill-opacity:1;stroke:none"
       d="m 37,1006.3622 0,3 7,0 0,-3 z"
       id="path4413"
       inkscape:connector-curvature="0" />
    <path
       style="fill:#ffffff;fill-opacity:1;stroke:none"
       d="m 45,1026.3622 0,3 7,0 0,-3 z"
       id="path4429"
       inkscape:connector-curvature="0" />
    <path
       inkscape:connector-curvature="0"
       id="path4431"
       d="m 45,1021.3622 0,3 7,0 0,-3 z"
       style="fill:#ffffff;fill-opacity:1;stroke:none" />
    <path
       style="fill:#ffffff;fill-opacity:1;stroke:none"
       d="m 45,1016.3622 0,3 7,0 0,-3 z"
       id="path4433"
       inkscape:connector-curvature="0" />
    <path
       inkscape:connector-curvature="0"
       id="path4435"
       d="m 45,1011.3622 0,3 7,0 0,-3 z"
       style="fill:#ffffff;fill-opacity:1;stroke:none" />
  </g>
</svg>
