<?xml version="1.0" encoding="UTF-8" standalone="no"?>
<!-- Created with Inkscape (http://www.inkscape.org/) -->

<svg
   xmlns:dc="http://purl.org/dc/elements/1.1/"
   xmlns:cc="http://creativecommons.org/ns#"
   xmlns:rdf="http://www.w3.org/1999/02/22-rdf-syntax-ns#"
   xmlns:svg="http://www.w3.org/2000/svg"
   xmlns="http://www.w3.org/2000/svg"
   xmlns:xlink="http://www.w3.org/1999/xlink"
   xmlns:sodipodi="http://sodipodi.sourceforge.net/DTD/sodipodi-0.dtd"
   xmlns:inkscape="http://www.inkscape.org/namespaces/inkscape"
   width="64"
   height="64"
   viewBox="0 0 63.999999 63.999999"
   id="svg9170"
   version="1.1"
   inkscape:version="0.91 r13725"
   sodipodi:docname="audio-flac.svg">
  <defs
     id="defs9172">
    <linearGradient
       inkscape:collect="always"
       xlink:href="#linearGradient4132-8-9-8-16"
       id="linearGradient4307"
       gradientUnits="userSpaceOnUse"
       gradientTransform="matrix(1.2147059,0,0,1.2806203,68.564713,991.32033)"
       x1="-29.694916"
       y1="44.701263"
       x2="-29.694916"
       y2="0.91525328" />
    <linearGradient
       inkscape:collect="always"
       id="linearGradient4132-8-9-8-16">
      <stop
         style="stop-color:#62aa5d;stop-opacity:1"
         offset="0"
         id="stop4134-65-4-7-06" />
      <stop
         style="stop-color:#90ec87;stop-opacity:1"
         offset="1"
         id="stop4136-9-6-7-92" />
    </linearGradient>
  </defs>
  <sodipodi:namedview
     id="base"
     pagecolor="#ffffff"
     bordercolor="#666666"
     borderopacity="1.0"
     inkscape:pageopacity="0.0"
     inkscape:pageshadow="2"
     inkscape:zoom="3.9999998"
     inkscape:cx="-34.937139"
     inkscape:cy="43.409638"
     inkscape:document-units="px"
     inkscape:current-layer="layer1"
     showgrid="false"
     units="px"
     inkscape:window-width="1440"
     inkscape:window-height="853"
     inkscape:window-x="0"
     inkscape:window-y="0"
     inkscape:window-maximized="1"
     inkscape:snap-object-midpoints="true"
     inkscape:snap-smooth-nodes="true"
     inkscape:object-nodes="true"
     inkscape:object-paths="true" />
  <metadata
     id="metadata9175">
    <rdf:RDF>
      <cc:Work
         rdf:about="">
        <dc:format>image/svg+xml</dc:format>
        <dc:type
           rdf:resource="http://purl.org/dc/dcmitype/StillImage" />
        <dc:title />
      </cc:Work>
    </rdf:RDF>
  </metadata>
  <g
     inkscape:label="Layer 1"
     inkscape:groupmode="layer"
     id="layer1"
     transform="translate(0,-988.3622)">
    <rect
       style="fill:#71be6b;fill-opacity:1;stroke:none"
       id="rect4154-0"
       width="46"
       height="60"
       x="9"
       y="990.36218" />
    <rect
       y="991.36218"
       x="10"
       height="58"
       width="44"
       id="rect4150-2"
       style="fill:#ffffff;fill-opacity:1;stroke:none" />
    <rect
       style="fill:url(#linearGradient4307);fill-opacity:1;stroke:none"
       id="rect3362-9-8-1-60"
       width="42"
       height="56"
       x="11"
       y="992.36218" />
    <rect
       y="1031.3622"
       x="10"
       height="18"
       width="44"
       id="rect4081-2-3-53"
       style="fill:#ffffff;fill-opacity:1;stroke:none" />
    <path
       style="fill:#ffffff;fill-opacity:1;stroke:none"
       d="m 12,1026.3622 0,3 7,0 0,-3 z"
       id="path4261"
       inkscape:connector-curvature="0" />
    <path
       inkscape:connector-curvature="0"
       id="path4329"
       d="m 12,1021.3622 0,3 7,0 0,-3 z"
       style="fill:#ffffff;fill-opacity:1;stroke:none" />
    <path
       style="fill:#ffffff;fill-opacity:1;stroke:none"
       d="m 12,1016.3622 0,3 7,0 0,-3 z"
       id="path4333"
       inkscape:connector-curvature="0" />
    <path
       inkscape:connector-curvature="0"
       id="path4337"
       d="m 12,1011.3622 0,3 7,0 0,-3 z"
       style="fill:#ffffff;fill-opacity:1;stroke:none" />
    <path
       style="fill:#ffffff;fill-opacity:1;stroke:none"
       d="m 12,1006.3622 0,3 7,0 0,-3 z"
       id="path4341"
       inkscape:connector-curvature="0" />
    <path
       inkscape:connector-curvature="0"
       id="path4345"
       d="m 12,1001.3622 0,3 7,0 0,-3 z"
       style="fill:#ffffff;fill-opacity:1;stroke:none" />
    <path
       inkscape:connector-curvature="0"
       id="path4349"
       d="m 20,1026.3622 0,3 7,0 0,-3 z"
       style="fill:#ffffff;fill-opacity:1;stroke:none" />
    <path
       style="fill:#ffffff;fill-opacity:1;stroke:none"
       d="m 20,1021.3622 0,3 7,0 0,-3 z"
       id="path4351"
       inkscape:connector-curvature="0" />
    <path
       inkscape:connector-curvature="0"
       id="path4353"
       d="m 20,1016.3622 0,3 7,0 0,-3 z"
       style="fill:#ffffff;fill-opacity:1;stroke:none" />
    <path
       style="fill:#ffffff;fill-opacity:1;stroke:none"
       d="m 20,1011.3622 0,3 7,0 0,-3 z"
       id="path4355"
       inkscape:connector-curvature="0" />
    <path
       inkscape:connector-curvature="0"
       id="path4357"
       d="m 20,1006.3622 0,3 7,0 0,-3 z"
       style="fill:#ffffff;fill-opacity:1;stroke:none" />
    <path
       inkscape:connector-curvature="0"
       id="path4369"
       d="m 28,1026.3622 0,3 8,0 0,-3 z"
       style="fill:#ffffff;fill-opacity:1;stroke:none" />
    <path
       style="fill:#ffffff;fill-opacity:1;stroke:none"
       d="m 28,1021.3622 0,3 8,0 0,-3 z"
       id="path4371"
       inkscape:connector-curvature="0" />
    <path
       inkscape:connector-curvature="0"
       id="path4373"
       d="m 28,1016.3622 0,3 8,0 0,-3 z"
       style="fill:#ffffff;fill-opacity:1;stroke:none" />
    <path
       style="fill:#ffffff;fill-opacity:1;stroke:none"
       d="m 28,1011.3622 0,3 8,0 0,-3 z"
       id="path4375"
       inkscape:connector-curvature="0" />
    <path
       inkscape:connector-curvature="0"
       id="path4377"
       d="m 28,1006.3622 0,3 8,0 0,-3 z"
       style="fill:#ffffff;fill-opacity:1;stroke:none" />
    <path
       style="fill:#ffffff;fill-opacity:1;stroke:none"
       d="m 28,1001.3622 0,3 8,0 0,-3 z"
       id="path4379"
       inkscape:connector-curvature="0" />
    <path
       style="fill:#ffffff;fill-opacity:1;stroke:none"
       d="m 37,1026.3622 0,3 7,0 0,-3 z"
       id="path4405"
       inkscape:connector-curvature="0" />
    <path
       inkscape:connector-curvature="0"
       id="path4407"
       d="m 37,1021.3622 0,3 7,0 0,-3 z"
       style="fill:#ffffff;fill-opacity:1;stroke:none" />
    <path
       style="fill:#ffffff;fill-opacity:1;stroke:none"
       d="m 37,1016.3622 0,3 7,0 0,-3 z"
       id="path4409"
       inkscape:connector-curvature="0" />
    <path
       inkscape:connector-curvature="0"
       id="path4411"
       d="m 37,1011.3622 0,3 7,0 0,-3 z"
       style="fill:#ffffff;fill-opacity:1;stroke:none" />
    <path
       style="fill:#ffffff;fill-opacity:1;stroke:none"
       d="m 37,1006.3622 0,3 7,0 0,-3 z"
       id="path4413"
       inkscape:connector-curvature="0" />
    <path
       style="fill:#ffffff;fill-opacity:1;stroke:none"
       d="m 45,1026.3622 0,3 7,0 0,-3 z"
       id="path4429"
       inkscape:connector-curvature="0" />
    <path
       inkscape:connector-curvature="0"
       id="path4431"
       d="m 45,1021.3622 0,3 7,0 0,-3 z"
       style="fill:#ffffff;fill-opacity:1;stroke:none" />
    <path
       style="fill:#ffffff;fill-opacity:1;stroke:none"
       d="m 45,1016.3622 0,3 7,0 0,-3 z"
       id="path4433"
       inkscape:connector-curvature="0" />
    <path
       inkscape:connector-curvature="0"
       id="path4435"
       d="m 45,1011.3622 0,3 7,0 0,-3 z"
       style="fill:#ffffff;fill-opacity:1;stroke:none" />
    <path
       style="font-style:normal;font-variant:normal;font-weight:normal;font-stretch:normal;font-size:12px;line-height:125%;font-family:'Nimbus Sans L';-inkscape-font-specification:'Nimbus Sans L';letter-spacing:0px;word-spacing:0px;fill:#55b24e;fill-opacity:1;stroke:none"
       d="m 23.562165,1037.5002 -1.37025,0 0,-1.2545 c 0,-0.5353 0.315001,-0.8107 0.9135,-0.8107 0.11025,0 0.1575,0 0.45675,0.016 l 0,-1.0555 c -0.29925,-0.062 -0.4725,-0.076 -0.74025,-0.076 -1.212749,0 -1.93725,0.6732 -1.93725,1.8204 l 0,1.3616 -1.102499,0 0,1.0403 1.102499,0 0,6.9758 1.30725,0 0,-6.9758 1.37025,0 0,-1.0403"
       id="path5624"
       inkscape:connector-curvature="0" />
    <path
       style="font-style:normal;font-variant:normal;font-weight:normal;font-stretch:normal;font-size:12px;line-height:125%;font-family:'Nimbus Sans L';-inkscape-font-specification:'Nimbus Sans L';letter-spacing:0px;word-spacing:0px;fill:#55b24e;fill-opacity:1;stroke:none"
       d="m 26.825159,1034.3641 -1.323,0 0,11.1522 1.323,0 0,-11.1522"
       id="path5626"
       inkscape:connector-curvature="0" />
    <path
       style="font-style:normal;font-variant:normal;font-weight:normal;font-stretch:normal;font-size:12px;line-height:125%;font-family:'Nimbus Sans L';-inkscape-font-specification:'Nimbus Sans L';letter-spacing:0px;word-spacing:0px;fill:#55b24e;fill-opacity:1;stroke:none"
       d="m 36.364245,1044.7667 c -0.14175,0.03 -0.20475,0.03 -0.2835,0.03 -0.45675,0 -0.70875,-0.2294 -0.70875,-0.6271 l 0,-4.7117 c 0,-1.4228 -1.071003,-2.1876 -3.10275,-2.1876 -1.196999,0 -2.18925,0.3366 -2.7405,0.9331 -0.378,0.413 -0.5355,0.872 -0.567,1.6675 l 1.323,0 c 0.11025,-0.9791 0.708751,-1.4227 1.93725,-1.4227 1.181248,0 1.84275,0.4284 1.84275,1.1933 l 0,0.3365 c 0,0.5354 -0.330752,0.7649 -1.37025,0.8873 -1.858499,0.2295 -2.142,0.2907 -2.646,0.4895 -0.960749,0.3825 -1.449,1.1015 -1.449,2.1418 0,1.4533 1.039501,2.3711 2.709,2.3711 1.039498,0 1.874251,-0.3519 2.8035,-1.1779 0.0945,0.8107 0.504001,1.1779 1.3545,1.1779 0.26775,0 0.4725,-0.03 0.89775,-0.1378 l 0,-0.9636 m -2.2995,-1.7745 c 0,0.4282 -0.126,0.6884 -0.51975,1.0401 -0.5355,0.4742 -1.181252,0.719 -1.953,0.719 -1.023749,0 -1.62225,-0.4742 -1.62225,-1.2849 0,-0.8415 0.582751,-1.2697 1.9845,-1.4687 1.385998,-0.1835 1.6695,-0.2447 2.1105,-0.4436 l 0,1.4381"
       id="path5628"
       inkscape:connector-curvature="0" />
    <path
       style="font-style:normal;font-variant:normal;font-weight:normal;font-stretch:normal;font-size:12px;line-height:125%;font-family:'Nimbus Sans L';-inkscape-font-specification:'Nimbus Sans L';letter-spacing:0px;word-spacing:0px;fill:#55b24e;fill-opacity:1;stroke:none"
       d="m 44.123334,1040.1927 c -0.063,-0.7803 -0.23625,-1.2851 -0.55125,-1.7287 -0.566999,-0.7496 -1.55925,-1.1932 -2.709,-1.1932 -2.220747,0 -3.66975,1.7133 -3.66975,4.3752 0,2.5854 1.417503,4.2222 3.654,4.2222 1.968749,0 3.213001,-1.1474 3.3705,-3.1055 l -1.323,0 c -0.220499,1.2851 -0.89775,1.9275 -2.016,1.9275 -1.448997,0 -2.31525,-1.1472 -2.31525,-3.0442 0,-2.004 0.850504,-3.1974 2.28375,-3.1974 1.1025,0 1.795501,0.6273 1.953,1.7441 l 1.323,0"
       id="path5630"
       inkscape:connector-curvature="0" />
  </g>
</svg>
