<?xml version="1.0" encoding="UTF-8" standalone="no"?>
<!-- Created with Inkscape (http://www.inkscape.org/) -->

<svg
   xmlns:dc="http://purl.org/dc/elements/1.1/"
   xmlns:cc="http://creativecommons.org/ns#"
   xmlns:rdf="http://www.w3.org/1999/02/22-rdf-syntax-ns#"
   xmlns:svg="http://www.w3.org/2000/svg"
   xmlns="http://www.w3.org/2000/svg"
   xmlns:xlink="http://www.w3.org/1999/xlink"
   xmlns:sodipodi="http://sodipodi.sourceforge.net/DTD/sodipodi-0.dtd"
   xmlns:inkscape="http://www.inkscape.org/namespaces/inkscape"
   width="64"
   height="64"
   viewBox="0 0 63.999999 63.999999"
   id="svg9170"
   version="1.1"
   inkscape:version="0.91 r13725"
   sodipodi:docname="font-x-generic.svg">
  <defs
     id="defs9172">
    <linearGradient
       inkscape:collect="always"
       xlink:href="#linearGradient4163"
       id="linearGradient16130-1-8-71-5-2"
       gradientUnits="userSpaceOnUse"
       gradientTransform="matrix(1.2147059,0,0,1.2806203,68.564689,991.32047)"
       x1="-29.694916"
       y1="44.701263"
       x2="-29.694916"
       y2="0.91525328" />
    <linearGradient
       inkscape:collect="always"
       id="linearGradient4163">
      <stop
         style="stop-color:#f3f3f3;stop-opacity:1"
         offset="0"
         id="stop4165" />
      <stop
         style="stop-color:#fafafa;stop-opacity:1"
         offset="1"
         id="stop4167" />
    </linearGradient>
  </defs>
  <sodipodi:namedview
     id="base"
     pagecolor="#ffffff"
     bordercolor="#666666"
     borderopacity="1.0"
     inkscape:pageopacity="0.0"
     inkscape:pageshadow="2"
     inkscape:zoom="2.8284272"
     inkscape:cx="3.8893642"
     inkscape:cy="79.889794"
     inkscape:document-units="px"
     inkscape:current-layer="layer1"
     showgrid="false"
     units="px"
     inkscape:window-width="1440"
     inkscape:window-height="853"
     inkscape:window-x="0"
     inkscape:window-y="0"
     inkscape:window-maximized="1"
     inkscape:snap-object-midpoints="true"
     inkscape:snap-smooth-nodes="true"
     inkscape:object-nodes="true"
     inkscape:object-paths="true" />
  <metadata
     id="metadata9175">
    <rdf:RDF>
      <cc:Work
         rdf:about="">
        <dc:format>image/svg+xml</dc:format>
        <dc:type
           rdf:resource="http://purl.org/dc/dcmitype/StillImage" />
        <dc:title />
      </cc:Work>
    </rdf:RDF>
  </metadata>
  <g
     inkscape:label="Layer 1"
     inkscape:groupmode="layer"
     id="layer1"
     transform="translate(0,-988.3622)">
    <rect
       style="fill:#727374;fill-opacity:1;stroke:none"
       id="rect4154-0"
       width="46"
       height="60"
       x="9"
       y="990.36218" />
    <rect
       y="991.36218"
       x="10"
       height="58"
       width="44"
       id="rect4150-2"
       style="fill:#ffffff;fill-opacity:1;stroke:none" />
    <rect
       style="fill:url(#linearGradient16130-1-8-71-5-2);fill-opacity:1.0;stroke:none"
       id="rect3362-9-2-0-41-0-6"
       width="42"
       height="56"
       x="11"
       y="992.36218" />
    <path
       inkscape:connector-curvature="0"
       d="m 46.260992,1034.7199 c -1.503122,0.081 -3.19624,-0.5337 -3.27016,-2.2726 -0.923622,-4.9739 -1.677032,-9.9796 -2.530248,-14.9666 -0.706342,-4.253 -1.412684,-8.5061 -2.119026,-12.7593 -0.596512,-0.1092 -1.041082,0.048 -1.228724,0.6583 -4.921868,8.2251 -9.786702,16.4848 -14.747952,24.6859 -1.207318,1.7184 -2.295972,3.9535 -4.499978,4.5133 -0.819196,-0.2842 -0.840168,1.0874 -0.489426,1.2613 2.982406,0 5.964798,0 8.94719,0 0.164248,-0.9025 -0.0819,-1.4349 -1.135876,-1.2228 -2.046828,0.3247 -1.83092,-2.0788 -1.061004,-3.2625 0.932512,-1.8685 2.02979,-3.6505 3.035396,-5.4806 3.416238,0 6.832464,0 10.248688,0 0.33341,2.2513 0.860048,4.4804 1.02487,6.7515 0.423878,1.855 -1.655514,2.0261 -2.955932,2.0686 -0.382746,-0.081 -0.511238,1.3667 0.06902,1.1458 3.571064,0 7.1421,0 10.713162,0 0,-0.3734 0,-0.7469 0,-1.1203 z M 28.139476,1023.635 c 2.32925,-4.0375 4.658488,-8.0748 6.987738,-12.1121 0.683242,4.0373 1.366484,8.0746 2.04974,12.1121 -3.012492,0 -6.024986,0 -9.037478,0 z"
       id="text2044-0"
       style="font-style:italic;font-variant:normal;font-weight:normal;font-stretch:normal;font-size:46.60050201px;line-height:125%;font-family:'Nimbus Roman No9 L';text-align:start;writing-mode:lr-tb;text-anchor:start;display:inline;fill:#464646;fill-opacity:1;stroke:none" />
  </g>
</svg>
