<?xml version="1.0" encoding="UTF-8" standalone="no"?>
<!-- Created with Inkscape (http://www.inkscape.org/) -->

<svg
   xmlns:dc="http://purl.org/dc/elements/1.1/"
   xmlns:cc="http://creativecommons.org/ns#"
   xmlns:rdf="http://www.w3.org/1999/02/22-rdf-syntax-ns#"
   xmlns:svg="http://www.w3.org/2000/svg"
   xmlns="http://www.w3.org/2000/svg"
   xmlns:xlink="http://www.w3.org/1999/xlink"
   xmlns:sodipodi="http://sodipodi.sourceforge.net/DTD/sodipodi-0.dtd"
   xmlns:inkscape="http://www.inkscape.org/namespaces/inkscape"
   version="1.0"
   width="64"
   height="64"
   id="svg2453"
   inkscape:version="0.91 r13725"
   sodipodi:docname="image-png.svg">
  <metadata
     id="metadata298222">
    <rdf:RDF>
      <cc:Work
         rdf:about="">
        <dc:format>image/svg+xml</dc:format>
        <dc:type
           rdf:resource="http://purl.org/dc/dcmitype/StillImage" />
        <dc:title />
      </cc:Work>
    </rdf:RDF>
  </metadata>
  <sodipodi:namedview
     pagecolor="#ffffff"
     bordercolor="#666666"
     borderopacity="1"
     objecttolerance="10"
     gridtolerance="10"
     guidetolerance="10"
     inkscape:pageopacity="0"
     inkscape:pageshadow="2"
     inkscape:window-width="1440"
     inkscape:window-height="852"
     id="namedview298220"
     showgrid="false"
     inkscape:zoom="8"
     inkscape:cx="42.907926"
     inkscape:cy="30.692151"
     inkscape:window-x="0"
     inkscape:window-y="0"
     inkscape:window-maximized="1"
     inkscape:current-layer="svg2453"
     inkscape:snap-smooth-nodes="true"
     inkscape:object-nodes="true"
     inkscape:object-paths="true"
     inkscape:snap-intersection-paths="true" />
  <defs
     id="defs2455">
    <linearGradient
       inkscape:collect="always"
       id="linearGradient5472">
      <stop
         style="stop-color:#3c3c3c;stop-opacity:1"
         offset="0"
         id="stop5474" />
      <stop
         style="stop-color:#9c9c9c;stop-opacity:1"
         offset="1"
         id="stop5476" />
    </linearGradient>
    <linearGradient
       inkscape:collect="always"
       xlink:href="#linearGradient5472"
       id="linearGradient7858"
       x1="-27.097284"
       y1="34.462009"
       x2="24.301701"
       y2="34.462009"
       gradientUnits="userSpaceOnUse"
       gradientTransform="matrix(0.82,0,0,1.1627907,-34.091273,-8.0721102)" />
  </defs>
  <rect
     y="10"
     x="3"
     height="49"
     width="58"
     id="rect7862"
     style="fill:#838383;fill-opacity:1;stroke:none;stroke-width:0.40000001;stroke-miterlimit:4;stroke-dasharray:none;stroke-opacity:1" />
  <rect
     style="fill:#ffffff;fill-opacity:1;stroke:none;stroke-width:0.40000001;stroke-miterlimit:4;stroke-dasharray:none;stroke-opacity:1"
     id="rect7860"
     width="56"
     height="47"
     x="4"
     y="11" />
  <rect
     style="fill:url(#linearGradient7858);fill-opacity:1;stroke:none;stroke-width:0.40000001;stroke-miterlimit:4;stroke-dasharray:none;stroke-opacity:1"
     id="rect7850"
     width="41"
     height="50"
     x="-54.999996"
     y="7"
     transform="matrix(0,-1,1,0,0,0)" />
  <rect
     style="fill:#ffffff;fill-opacity:1;stroke:none"
     id="rect5125-6-7"
     width="56"
     height="13"
     x="4"
     y="45.000004" />
  <path
     style="font-style:normal;font-variant:normal;font-weight:normal;font-stretch:normal;font-size:16.25577927px;line-height:125%;font-family:'Nimbus Sans L';-inkscape-font-specification:'Nimbus Sans L';letter-spacing:1.06803608px;word-spacing:0px;fill:#ffffff;fill-opacity:1;stroke:none;stroke-width:1px;stroke-linecap:butt;stroke-linejoin:miter;stroke-opacity:1"
     d="m 13.25,39 1.925361,0 0,-5.770146 c 1.008523,1.141348 2.131649,1.648614 3.690275,1.648614 3.09433,0 5.134297,-2.303831 5.134297,-5.833553 C 23.999933,25.324968 22.02873,23 18.842715,23 c -1.627389,0 -2.933882,0.676355 -3.827801,1.986791 l 0,-1.669749 -1.764914,0 L 13.25,39 Z m 5.271821,-14.351386 c 2.10873,0 3.483988,1.712021 3.483988,4.354028 0,2.515192 -1.398181,4.227212 -3.483988,4.227212 -2.017044,0 -3.34646,-1.690883 -3.34646,-4.290619 0,-2.599737 1.329416,-4.290621 3.34646,-4.290621 z"
     id="path4218"
     inkscape:connector-curvature="0" />
  <path
     style="font-style:normal;font-variant:normal;font-weight:normal;font-stretch:normal;font-size:16.25577927px;line-height:125%;font-family:'Nimbus Sans L';-inkscape-font-specification:'Nimbus Sans L';letter-spacing:1.06803608px;word-spacing:0px;fill:#ffffff;fill-opacity:1;stroke:none;stroke-width:1px;stroke-linecap:butt;stroke-linejoin:miter;stroke-opacity:1"
     d="m 27.381428,23.317042 0,11.075296 1.92536,0 0,-6.108321 c 0,-2.26156 1.283574,-3.741084 3.254776,-3.741084 1.512783,0 2.475464,0.845443 2.475464,2.177015 l 0,7.67239 1.902441,0 0,-8.369881 C 36.939469,24.183621 35.449606,23 33.134589,23 c -1.787836,0 -2.933885,0.634082 -3.988247,2.177015 l 0,-1.859973 -1.764914,0 z"
     id="path4220"
     inkscape:connector-curvature="0" />
  <path
     style="font-style:normal;font-variant:normal;font-weight:normal;font-stretch:normal;font-size:16.25577927px;line-height:125%;font-family:'Nimbus Sans L';-inkscape-font-specification:'Nimbus Sans L';letter-spacing:1.06803608px;word-spacing:0px;fill:#ffffff;fill-opacity:1;stroke:none;stroke-width:1px;stroke-linecap:butt;stroke-linejoin:miter;stroke-opacity:1"
     d="m 48.978728,23.317042 0,1.60634 C 48.016048,23.612947 46.84708,23 45.311373,23 42.262887,23 40.2,25.451783 40.2,29.044915 c 0,1.817701 0.527183,3.297225 1.512783,4.354028 0.893917,0.929988 2.177492,1.479525 3.438144,1.479525 1.512783,0 2.567149,-0.591809 3.644435,-1.986789 l 0,0.570673 c 0,1.500661 -0.206289,2.409512 -0.68763,3.022456 -0.504261,0.655218 -1.489862,1.035667 -2.658831,1.035667 -0.870998,0 -1.650309,-0.211359 -2.177493,-0.591808 -0.435498,-0.317042 -0.618865,-0.612947 -0.73347,-1.268164 l -1.948282,0 C 40.795945,37.752972 42.56086,39 45.380138,39 c 1.787833,0 3.32354,-0.528403 4.102851,-1.416115 0.91684,-1.014532 1.260653,-2.409512 1.260653,-5.009248 l 0,-9.257595 -1.764915,0 z m -3.461064,1.310435 c 2.062886,0 3.277698,1.606341 3.277698,4.375165 0,2.642008 -1.237732,4.24835 -3.254778,4.24835 -2.085808,0 -3.346461,-1.627478 -3.346461,-4.311757 0,-2.663144 1.283576,-4.311758 3.323541,-4.311758 z"
     id="path4222"
     inkscape:connector-curvature="0" />
</svg>
