<?xml version="1.0" encoding="UTF-8" standalone="no"?>
<!-- Created with Inkscape (http://www.inkscape.org/) -->

<svg
   xmlns:dc="http://purl.org/dc/elements/1.1/"
   xmlns:cc="http://creativecommons.org/ns#"
   xmlns:rdf="http://www.w3.org/1999/02/22-rdf-syntax-ns#"
   xmlns:svg="http://www.w3.org/2000/svg"
   xmlns="http://www.w3.org/2000/svg"
   xmlns:xlink="http://www.w3.org/1999/xlink"
   xmlns:sodipodi="http://sodipodi.sourceforge.net/DTD/sodipodi-0.dtd"
   xmlns:inkscape="http://www.inkscape.org/namespaces/inkscape"
   version="1.0"
   width="64"
   height="64"
   id="svg2453"
   inkscape:version="0.91 r13725"
   sodipodi:docname="image-gif.svg">
  <metadata
     id="metadata298222">
    <rdf:RDF>
      <cc:Work
         rdf:about="">
        <dc:format>image/svg+xml</dc:format>
        <dc:type
           rdf:resource="http://purl.org/dc/dcmitype/StillImage" />
        <dc:title />
      </cc:Work>
    </rdf:RDF>
  </metadata>
  <sodipodi:namedview
     pagecolor="#ffffff"
     bordercolor="#666666"
     borderopacity="1"
     objecttolerance="10"
     gridtolerance="10"
     guidetolerance="10"
     inkscape:pageopacity="0"
     inkscape:pageshadow="2"
     inkscape:window-width="1440"
     inkscape:window-height="852"
     id="namedview298220"
     showgrid="false"
     inkscape:zoom="7.9999996"
     inkscape:cx="30.162621"
     inkscape:cy="31.206617"
     inkscape:window-x="0"
     inkscape:window-y="0"
     inkscape:window-maximized="1"
     inkscape:current-layer="svg2453"
     inkscape:snap-smooth-nodes="true"
     inkscape:object-nodes="true"
     inkscape:object-paths="true"
     inkscape:snap-intersection-paths="true" />
  <defs
     id="defs2455">
    <linearGradient
       inkscape:collect="always"
       xlink:href="#linearGradient5472"
       id="linearGradient7858"
       x1="-27.097284"
       y1="34.462009"
       x2="24.301701"
       y2="34.462009"
       gradientUnits="userSpaceOnUse"
       gradientTransform="matrix(0.82,0,0,1.1627907,-34.091272,-8.0721099)" />
    <linearGradient
       inkscape:collect="always"
       id="linearGradient5472">
      <stop
         style="stop-color:#3c3c3c;stop-opacity:1"
         offset="0"
         id="stop5474" />
      <stop
         style="stop-color:#9c9c9c;stop-opacity:1"
         offset="1"
         id="stop5476" />
    </linearGradient>
  </defs>
  <rect
     y="10"
     x="3"
     height="49"
     width="58"
     id="rect7862"
     style="fill:#838383;fill-opacity:1;stroke:none;stroke-width:0.40000001;stroke-miterlimit:4;stroke-dasharray:none;stroke-opacity:1" />
  <rect
     style="fill:#ffffff;fill-opacity:1;stroke:none;stroke-width:0.40000001;stroke-miterlimit:4;stroke-dasharray:none;stroke-opacity:1"
     id="rect7860"
     width="56"
     height="47"
     x="4"
     y="11" />
  <rect
     style="fill:url(#linearGradient7858);fill-opacity:1;stroke:none;stroke-width:0.40000001;stroke-miterlimit:4;stroke-dasharray:none;stroke-opacity:1"
     id="rect7850"
     width="41"
     height="50"
     x="-54.999996"
     y="7"
     transform="matrix(0,-1,1,0,0,0)" />
  <rect
     style="fill:#ffffff;fill-opacity:1;stroke:none"
     id="rect5125-6-7"
     width="56"
     height="13"
     x="4"
     y="45.000004" />
  <path
     inkscape:connector-curvature="0"
     d="m 25.39624,24.09041 0,1.609067 c -0.975568,-1.31266 -2.160184,-1.926647 -3.716445,-1.926647 -3.089296,0 -5.179795,2.455947 -5.179795,6.05518 0,1.820787 0.534237,3.302824 1.533033,4.361421 0.905884,0.931568 2.206638,1.482038 3.484166,1.482038 1.533034,0 2.601512,-0.592815 3.693219,-1.990164 l 0,0.571643 c 0,1.503208 -0.209051,2.413601 -0.696835,3.027588 -0.51101,0.656331 -1.509805,1.037427 -2.694423,1.037427 -0.882654,0 -1.672398,-0.21172 -2.206639,-0.592815 -0.441327,-0.31758 -0.627148,-0.613987 -0.743288,-1.270317 l -1.974361,0 C 17.103922,38.550854 18.892461,39.8 21.749477,39.8 c 1.811769,0 3.368029,-0.529299 4.157774,-1.418522 0.929111,-1.016254 1.277528,-2.413603 1.277528,-5.017754 l 0,-9.273314 -1.788539,0 z m -3.507395,1.312661 c 2.090501,0 3.321573,1.609069 3.321573,4.382595 0,2.646493 -1.254301,4.255562 -3.298347,4.255562 -2.113727,0 -3.391254,-1.630241 -3.391254,-4.319079 0,-2.667665 1.300755,-4.319078 3.368028,-4.319078 z"
     style="font-style:normal;font-variant:normal;font-weight:normal;font-stretch:normal;font-size:16.6038475px;line-height:125%;font-family:'Nimbus Sans L';-inkscape-font-specification:'Nimbus Sans L';letter-spacing:1.42976975px;word-spacing:0px;fill:#ffffff;fill-opacity:1;stroke:none;stroke-width:1px;stroke-linecap:butt;stroke-linejoin:miter;stroke-opacity:1"
     id="path4179" />
  <g
     transform="matrix(1.4115364,0,0,1.2637439,0.61290752,1.0676704)"
     style="font-style:normal;font-variant:normal;font-weight:normal;font-stretch:normal;font-size:20px;line-height:125%;font-family:'Nimbus Sans L';-inkscape-font-specification:'Nimbus Sans L';letter-spacing:1.93337834px;word-spacing:0px;fill:#ffffff;fill-opacity:1;stroke:none;stroke-width:1px;stroke-linecap:butt;stroke-linejoin:miter;stroke-opacity:1"
     id="text15105">
    <path
       inkscape:connector-curvature="0"
       d="m 23.782307,18.191585 -1.66,0 0,10.48 1.66,0 0,-10.48 z m 0,-4.1 -1.68,0 0,2.1 1.68,0 0,-2.1 z"
       style="font-style:normal;font-variant:normal;font-weight:normal;font-stretch:normal;font-size:20px;font-family:'Nimbus Sans L';-inkscape-font-specification:'Nimbus Sans L';letter-spacing:1.93337834px;fill:#ffffff;fill-opacity:1"
       id="path4176" />
  </g>
  <g
     transform="matrix(1.4115364,0,0,1.2637439,0.61290752,1.0676704)"
     style="font-style:normal;font-variant:normal;font-weight:normal;font-stretch:normal;font-size:20px;line-height:125%;font-family:'Nimbus Sans L';-inkscape-font-specification:'Nimbus Sans L';letter-spacing:1.93337834px;word-spacing:0px;fill:#ffffff;fill-opacity:1;stroke:none;stroke-width:1px;stroke-linecap:butt;stroke-linejoin:miter;stroke-opacity:1"
     id="text15109">
    <path
       inkscape:connector-curvature="0"
       d="m 32.270077,18.191585 -1.74,0 0,-1.64 c 0,-0.7 0.4,-1.06 1.16,-1.06 0.14,0 0.2,0 0.58,0.02 l 0,-1.38 c -0.38,-0.08 -0.6,-0.1 -0.94,-0.1 -1.54,0 -2.46,0.88 -2.46,2.38 l 0,1.78 -1.4,0 0,1.36 1.4,0 0,9.12 1.66,0 0,-9.12 1.74,0 0,-1.36 z"
       style="font-style:normal;font-variant:normal;font-weight:normal;font-stretch:normal;font-size:20px;font-family:'Nimbus Sans L';-inkscape-font-specification:'Nimbus Sans L';letter-spacing:1.93337834px;fill:#ffffff;fill-opacity:1"
       id="path4173" />
  </g>
</svg>
