<?xml version="1.0" encoding="UTF-8" standalone="no"?>
<!-- Created with Inkscape (http://www.inkscape.org/) -->

<svg
   xmlns:dc="http://purl.org/dc/elements/1.1/"
   xmlns:cc="http://creativecommons.org/ns#"
   xmlns:rdf="http://www.w3.org/1999/02/22-rdf-syntax-ns#"
   xmlns:svg="http://www.w3.org/2000/svg"
   xmlns="http://www.w3.org/2000/svg"
   xmlns:xlink="http://www.w3.org/1999/xlink"
   xmlns:sodipodi="http://sodipodi.sourceforge.net/DTD/sodipodi-0.dtd"
   xmlns:inkscape="http://www.inkscape.org/namespaces/inkscape"
   width="64"
   height="64"
   viewBox="0 0 63.999999 63.999999"
   id="svg9170"
   version="1.1"
   inkscape:version="0.91 r13725"
   sodipodi:docname="text-css.svg">
  <defs
     id="defs9172">
    <linearGradient
       inkscape:collect="always"
       xlink:href="#linearGradient4132-8"
       id="linearGradient4138-6"
       x1="-29.694916"
       y1="44.701263"
       x2="-29.694916"
       y2="0.91525328"
       gradientUnits="userSpaceOnUse"
       gradientTransform="matrix(1.2147058,0,0,1.2806203,68.56471,991.32042)" />
    <linearGradient
       inkscape:collect="always"
       id="linearGradient4132-8">
      <stop
         style="stop-color:#98c5da;stop-opacity:1"
         offset="0"
         id="stop4134-65" />
      <stop
         style="stop-color:#b4d5e4;stop-opacity:1"
         offset="1"
         id="stop4136-9" />
    </linearGradient>
  </defs>
  <sodipodi:namedview
     id="base"
     pagecolor="#ffffff"
     bordercolor="#666666"
     borderopacity="1.0"
     inkscape:pageopacity="0.0"
     inkscape:pageshadow="2"
     inkscape:zoom="5.6568544"
     inkscape:cx="34.011699"
     inkscape:cy="29.781297"
     inkscape:document-units="px"
     inkscape:current-layer="layer1"
     showgrid="false"
     units="px"
     inkscape:window-width="1440"
     inkscape:window-height="852"
     inkscape:window-x="0"
     inkscape:window-y="0"
     inkscape:window-maximized="1"
     inkscape:snap-object-midpoints="true"
     inkscape:snap-smooth-nodes="true"
     inkscape:object-nodes="true"
     inkscape:object-paths="true" />
  <metadata
     id="metadata9175">
    <rdf:RDF>
      <cc:Work
         rdf:about="">
        <dc:format>image/svg+xml</dc:format>
        <dc:type
           rdf:resource="http://purl.org/dc/dcmitype/StillImage" />
        <dc:title />
      </cc:Work>
    </rdf:RDF>
  </metadata>
  <g
     inkscape:label="Layer 1"
     inkscape:groupmode="layer"
     id="layer1"
     transform="translate(0,-988.3622)">
    <rect
       style="fill:#63a5c9;fill-opacity:1;stroke:none"
       id="rect4154-0"
       width="46"
       height="60"
       x="9"
       y="990.36218" />
    <rect
       y="991.36218"
       x="10"
       height="58"
       width="44"
       id="rect4150-2"
       style="fill:#ffffff;fill-opacity:1;stroke:none" />
    <rect
       style="fill:url(#linearGradient4138-6);fill-opacity:1;stroke:none"
       id="rect3362-9"
       width="42"
       height="56"
       x="11"
       y="992.36218" />
    <rect
       style="fill:#ffffff;fill-opacity:1;stroke:none"
       id="rect4140-7"
       width="30"
       height="2"
       x="17"
       y="1005.3622" />
    <rect
       y="1012.3622"
       x="17"
       height="2"
       width="30"
       id="rect4142-3"
       style="fill:#ffffff;fill-opacity:1;stroke:none" />
    <rect
       style="fill:#ffffff;fill-opacity:1;stroke:none"
       id="rect4144-3"
       width="30"
       height="2"
       x="17"
       y="1019.3622" />
    <path
       inkscape:connector-curvature="0"
       d="m 22.324177,1036.3685 q 1.061316,0 1.62669,-0.5258 0.575291,-0.5355 0.59513,-1.6167 l 2.182143,0 q -0.02976,0.972 -0.337241,1.7259 -0.297566,0.7539 -0.743912,1.2002 -0.446348,0.4364 -1.041478,0.7242 -0.59513,0.2776 -1.140666,0.3768 -0.545534,0.099 -1.120828,0.099 -2.172223,0 -3.481508,-1.4679 -1.309286,-1.468 -1.309286,-3.918 0,-2.569 1.239854,-4.0865 1.239854,-1.5176 3.560861,-1.5176 1.934173,0 3.144269,1.1108 1.210097,1.1012 1.210097,2.8467 l -2.162305,0 q -0.0099,-0.853 -0.644725,-1.4084 -0.624887,-0.5654 -1.477905,-0.5654 -0.753831,0 -1.309285,0.3372 -0.545537,0.3274 -0.833183,0.8829 -0.287645,0.5454 -0.41659,1.1307 -0.12895,0.5852 -0.12895,1.22 0,1.5572 0.664562,2.5095 0.664563,0.9423 1.924252,0.9423 z"
       style="font-style:normal;font-variant:normal;font-weight:bold;font-stretch:normal;font-size:15.11530685px;line-height:125%;font-family:Loma;-inkscape-font-specification:'Loma Bold';letter-spacing:0px;word-spacing:0px;fill:#ffffff;fill-opacity:1;stroke:none;stroke-width:1px;stroke-linecap:butt;stroke-linejoin:miter;stroke-opacity:1"
       id="path4378-2" />
    <path
       inkscape:connector-curvature="0"
       d="m 36.289894,1034.9997 q 0,1.5375 -1.210098,2.45 -1.200179,0.9125 -3.035162,0.9125 -1.031559,0 -1.834983,-0.248 -0.803427,-0.2479 -1.279531,-0.6249 -0.476104,-0.3769 -0.793506,-0.8926 -0.317403,-0.5158 -0.446348,-0.9721 -0.119031,-0.4562 -0.148783,-0.9522 l 2.182144,0 q 0.0992,0.8332 0.694317,1.2697 0.605049,0.4364 1.61677,0.4364 0.991883,0 1.527501,-0.3671 0.545536,-0.3768 0.545536,-0.8233 0,-0.2975 -0.0992,-0.5157 -0.09918,-0.2182 -0.238052,-0.3571 -0.138865,-0.1388 -0.436428,-0.2381 -0.287647,-0.1089 -0.535618,-0.1687 -0.238052,-0.06 -0.694318,-0.1388 -0.614967,-0.1088 -1.031558,-0.1983 -0.406674,-0.099 -0.902615,-0.2381 -0.486022,-0.1487 -0.803425,-0.3074 -0.307484,-0.1687 -0.624887,-0.4067 -0.317402,-0.2479 -0.495942,-0.5456 -0.178538,-0.2976 -0.297563,-0.7042 -0.109113,-0.4067 -0.109113,-0.9125 0,-1.4184 1.081152,-2.2517 1.091072,-0.843 2.797112,-0.843 0.843099,0 1.51758,0.1488 0.684399,0.1488 1.120828,0.4166 0.446348,0.2579 0.753832,0.5753 0.317403,0.3076 0.476104,0.6943 0.158701,0.3868 0.228133,0.7241 0.06942,0.3372 0.07935,0.6942 l -2.182143,0 q -0.0992,-1.2695 -1.864742,-1.2695 -0.952207,0 -1.388635,0.3274 -0.436428,0.3272 -0.436428,0.7538 0,0.2678 0.09919,0.4759 0.109113,0.2084 0.267809,0.3474 0.158701,0.129 0.436428,0.2379 0.287646,0.1089 0.545535,0.1687 0.26781,0.06 0.674482,0.1388 2.38052,0.4364 3.312889,1.101 0.932371,0.6645 0.932371,2.1028 z"
       style="font-style:normal;font-variant:normal;font-weight:bold;font-stretch:normal;font-size:15.11530685px;line-height:125%;font-family:Loma;-inkscape-font-specification:'Loma Bold';letter-spacing:0px;word-spacing:0px;fill:#ffffff;fill-opacity:1;stroke:none;stroke-width:1px;stroke-linecap:butt;stroke-linejoin:miter;stroke-opacity:1"
       id="path4380-3" />
    <path
       inkscape:connector-curvature="0"
       d="m 46.446779,1034.9997 q 0,1.5375 -1.210098,2.45 -1.200177,0.9125 -3.035162,0.9125 -1.031558,0 -1.834983,-0.248 -0.803426,-0.2479 -1.27953,-0.6249 -0.476104,-0.3769 -0.793507,-0.8926 -0.317403,-0.5158 -0.446346,-0.9721 -0.119032,-0.4562 -0.148783,-0.9522 l 2.182142,0 q 0.0992,0.8332 0.694319,1.2697 0.605049,0.4364 1.61677,0.4364 0.991883,0 1.527499,-0.3671 0.545536,-0.3768 0.545536,-0.8233 0,-0.2975 -0.09919,-0.5157 -0.0992,-0.2182 -0.238051,-0.3571 -0.138864,-0.1388 -0.436429,-0.2381 -0.287646,-0.1089 -0.535617,-0.1687 -0.238052,-0.06 -0.694319,-0.1388 -0.614967,-0.1088 -1.031558,-0.1983 -0.406672,-0.099 -0.902614,-0.2381 -0.486023,-0.1487 -0.803425,-0.3074 -0.307483,-0.1687 -0.624886,-0.4067 -0.317404,-0.2479 -0.495942,-0.5456 -0.17854,-0.2976 -0.297565,-0.7042 -0.109113,-0.4067 -0.109113,-0.9125 0,-1.4184 1.081151,-2.2517 1.091075,-0.843 2.797111,-0.843 0.843101,0 1.517582,0.1488 0.6844,0.1488 1.120829,0.4166 0.446346,0.2579 0.75383,0.5753 0.317403,0.3076 0.476104,0.6943 0.158702,0.3868 0.228133,0.7241 0.06942,0.3372 0.07935,0.6942 l -2.182143,0 q -0.09919,-1.2695 -1.86474,-1.2695 -0.952208,0 -1.388637,0.3274 -0.436428,0.3272 -0.436428,0.7538 0,0.2678 0.09919,0.4759 0.109112,0.2084 0.267808,0.3474 0.158702,0.129 0.436429,0.2379 0.287645,0.1089 0.545535,0.1687 0.267809,0.06 0.674481,0.1388 2.380519,0.4364 3.31289,1.101 0.93237,0.6645 0.93237,2.1028 z"
       style="font-style:normal;font-variant:normal;font-weight:bold;font-stretch:normal;font-size:15.11530685px;line-height:125%;font-family:Loma;-inkscape-font-specification:'Loma Bold';letter-spacing:0px;word-spacing:0px;fill:#ffffff;fill-opacity:1;stroke:none;stroke-width:1px;stroke-linecap:butt;stroke-linejoin:miter;stroke-opacity:1"
       id="path4382-0" />
  </g>
</svg>
