<?xml version="1.0" encoding="UTF-8" standalone="no"?>
<!-- Created with Inkscape (http://www.inkscape.org/) -->

<svg
   xmlns:dc="http://purl.org/dc/elements/1.1/"
   xmlns:cc="http://creativecommons.org/ns#"
   xmlns:rdf="http://www.w3.org/1999/02/22-rdf-syntax-ns#"
   xmlns:svg="http://www.w3.org/2000/svg"
   xmlns="http://www.w3.org/2000/svg"
   xmlns:xlink="http://www.w3.org/1999/xlink"
   xmlns:sodipodi="http://sodipodi.sourceforge.net/DTD/sodipodi-0.dtd"
   xmlns:inkscape="http://www.inkscape.org/namespaces/inkscape"
   width="64"
   height="64"
   viewBox="0 0 63.999999 63.999999"
   id="svg9170"
   version="1.1"
   inkscape:version="0.91 r13725"
   sodipodi:docname="text-x-authors.svg">
  <defs
     id="defs9172">
    <linearGradient
       inkscape:collect="always"
       xlink:href="#linearGradient4132-8"
       id="linearGradient4138-6"
       x1="-29.694916"
       y1="44.701263"
       x2="-29.694916"
       y2="0.91525328"
       gradientUnits="userSpaceOnUse"
       gradientTransform="matrix(1.2147058,0,0,1.2806203,68.56471,991.32042)" />
    <linearGradient
       inkscape:collect="always"
       id="linearGradient4132-8">
      <stop
         style="stop-color:#98c5da;stop-opacity:1"
         offset="0"
         id="stop4134-65" />
      <stop
         style="stop-color:#b4d5e4;stop-opacity:1"
         offset="1"
         id="stop4136-9" />
    </linearGradient>
  </defs>
  <sodipodi:namedview
     id="base"
     pagecolor="#ffffff"
     bordercolor="#666666"
     borderopacity="1.0"
     inkscape:pageopacity="0.0"
     inkscape:pageshadow="2"
     inkscape:zoom="5.6568544"
     inkscape:cx="13.767522"
     inkscape:cy="50.767011"
     inkscape:document-units="px"
     inkscape:current-layer="layer1"
     showgrid="false"
     units="px"
     inkscape:window-width="1440"
     inkscape:window-height="852"
     inkscape:window-x="0"
     inkscape:window-y="0"
     inkscape:window-maximized="1"
     inkscape:snap-object-midpoints="true"
     inkscape:snap-smooth-nodes="true"
     inkscape:object-nodes="true"
     inkscape:object-paths="true" />
  <metadata
     id="metadata9175">
    <rdf:RDF>
      <cc:Work
         rdf:about="">
        <dc:format>image/svg+xml</dc:format>
        <dc:type
           rdf:resource="http://purl.org/dc/dcmitype/StillImage" />
        <dc:title />
      </cc:Work>
    </rdf:RDF>
  </metadata>
  <g
     inkscape:label="Layer 1"
     inkscape:groupmode="layer"
     id="layer1"
     transform="translate(0,-988.3622)">
    <rect
       style="fill:#63a5c9;fill-opacity:1;stroke:none"
       id="rect4154-0"
       width="46"
       height="60"
       x="9"
       y="990.36218" />
    <rect
       y="991.36218"
       x="10"
       height="58"
       width="44"
       id="rect4150-2"
       style="fill:#ffffff;fill-opacity:1;stroke:none" />
    <rect
       style="fill:url(#linearGradient4138-6);fill-opacity:1;stroke:none"
       id="rect3362-9"
       width="42"
       height="56"
       x="11"
       y="992.36218" />
    <path
       style="fill:#ffffff;fill-opacity:1;stroke:none"
       d="m 32,1006.3625 c -6.460056,0.018 -6.78125,4.2771 -6.78125,6.927 0,4.0101 1.508269,5.9691 3.354169,7.917 0.245025,1.4448 -0.729169,4.0458 -0.729169,4.0458 -2.580005,2.2236 -9.249682,2.5921 -9.260416,4.4951 L 18,1034.3622 l 28,0 -0.583331,-4.6147 c -0.01092,-1.9031 -6.680412,-2.2716 -9.260419,-4.4952 0,0 -0.974191,-2.601 -0.729168,-4.0458 1.845906,-1.9479 3.354171,-3.9069 3.354171,-7.917 0,-2.6499 -0.321188,-6.909 -6.781253,-6.927 z"
       id="path4010-9"
       inkscape:connector-curvature="0"
       sodipodi:nodetypes="csccccccccsc" />
    <path
       style="fill:#ffffff;fill-opacity:1;stroke:none"
       d="m 37.280916,1005.9843 c 0,0 -4.044838,-1.6132 -5.995773,-2.575 -1.907543,-0.9402 -5.567156,-3.1165 -5.567156,-3.1165 l 1.81484,4.3811 -3.981644,-1.3349 3.300348,2.8229 -2.469214,0.1764 2.469214,4.4091 11.386106,-0.9212 z"
       id="path4633"
       inkscape:connector-curvature="0"
       sodipodi:nodetypes="cacccccccc" />
  </g>
</svg>
