<?xml version="1.0" encoding="UTF-8" standalone="no"?>
<!-- Created with Inkscape (http://www.inkscape.org/) -->

<svg
   xmlns:dc="http://purl.org/dc/elements/1.1/"
   xmlns:cc="http://creativecommons.org/ns#"
   xmlns:rdf="http://www.w3.org/1999/02/22-rdf-syntax-ns#"
   xmlns:svg="http://www.w3.org/2000/svg"
   xmlns="http://www.w3.org/2000/svg"
   xmlns:xlink="http://www.w3.org/1999/xlink"
   xmlns:sodipodi="http://sodipodi.sourceforge.net/DTD/sodipodi-0.dtd"
   xmlns:inkscape="http://www.inkscape.org/namespaces/inkscape"
   width="64"
   height="64"
   viewBox="0 0 63.999999 63.999999"
   id="svg9170"
   version="1.1"
   inkscape:version="0.91 r13725"
   sodipodi:docname="video-mp4.svg">
  <defs
     id="defs9172">
    <linearGradient
       inkscape:collect="always"
       id="linearGradient16703-64-2-1-5-92-4">
      <stop
         style="stop-color:#e187a6;stop-opacity:1"
         offset="0"
         id="stop16705-6-2-1-8-38-6" />
      <stop
         style="stop-color:#f9a7c5;stop-opacity:1"
         offset="1"
         id="stop16707-92-8-2-5-64-3" />
    </linearGradient>
    <linearGradient
       inkscape:collect="always"
       xlink:href="#linearGradient16703-64-2-1-5-92-4"
       id="linearGradient16709-9-4-3-4-2-1-9"
       x1="24.625"
       y1="-32.915985"
       x2="24.625"
       y2="-6.125"
       gradientUnits="userSpaceOnUse"
       gradientTransform="matrix(1.4,0,0,1.4736842,-1.6,-983.52007)" />
  </defs>
  <sodipodi:namedview
     id="base"
     pagecolor="#ffffff"
     bordercolor="#666666"
     borderopacity="1.0"
     inkscape:pageopacity="0.0"
     inkscape:pageshadow="2"
     inkscape:zoom="2.8284272"
     inkscape:cx="-26.610423"
     inkscape:cy="27.651032"
     inkscape:document-units="px"
     inkscape:current-layer="layer1"
     showgrid="false"
     units="px"
     inkscape:window-width="1440"
     inkscape:window-height="852"
     inkscape:window-x="0"
     inkscape:window-y="0"
     inkscape:window-maximized="1"
     inkscape:snap-object-midpoints="true"
     inkscape:snap-smooth-nodes="true"
     inkscape:object-nodes="true"
     inkscape:object-paths="true" />
  <metadata
     id="metadata9175">
    <rdf:RDF>
      <cc:Work
         rdf:about="">
        <dc:format>image/svg+xml</dc:format>
        <dc:type
           rdf:resource="http://purl.org/dc/dcmitype/StillImage" />
        <dc:title />
      </cc:Work>
    </rdf:RDF>
  </metadata>
  <g
     inkscape:label="Layer 1"
     inkscape:groupmode="layer"
     id="layer1"
     transform="translate(0,-988.3622)">
    <rect
       style="fill:#ec92b2;fill-opacity:1;stroke:none"
       id="rect4154-0-9"
       width="46"
       height="60"
       x="9"
       y="990.36218" />
    <rect
       y="991.36218"
       x="10"
       height="58"
       width="44"
       id="rect4150-2-3"
       style="fill:#ffffff;fill-opacity:1;stroke:none" />
    <rect
       style="fill:url(#linearGradient16709-9-4-3-4-2-1-9);fill-opacity:1;stroke:none"
       id="rect3362-9-0-9-7-2-9-9-94-6-5-8-80-0-7"
       width="42"
       height="56"
       x="11"
       y="-1048.3622"
       transform="scale(1,-1)" />
    <rect
       y="-20"
       x="-1048.3622"
       height="1"
       width="56"
       id="rect4497-4-36-7-7-4-7-37-4-7-0-1-0-2"
       style="fill:#ffffff;fill-opacity:1;stroke:none"
       transform="matrix(0,-1,-1,0,0,0)" />
    <rect
       transform="scale(1,-1)"
       width="4"
       height="4"
       x="13"
       y="-1017.3622"
       id="rect7270-8"
       style="fill:#ffffff;fill-opacity:1;stroke:none" />
    <rect
       transform="scale(1,-1)"
       width="4"
       height="4"
       x="13"
       y="-1025.3622"
       id="rect7272-0"
       style="fill:#ffffff;fill-opacity:1;stroke:none" />
    <rect
       style="fill:#ffffff;fill-opacity:1;stroke:none"
       id="rect7274-0"
       y="-1001.3622"
       x="13"
       height="4"
       width="4"
       transform="scale(1,-1)" />
    <rect
       style="fill:#ffffff;fill-opacity:1;stroke:none"
       id="rect7276-3"
       y="-1009.3622"
       x="13"
       height="4"
       width="4"
       transform="scale(1,-1)" />
    <rect
       transform="matrix(0,-1,1,0,0,0)"
       style="fill:#ffffff;fill-opacity:1;stroke:none"
       id="rect7280-1"
       width="56"
       height="1"
       x="-1048.3622"
       y="44" />
    <rect
       style="fill:#ffffff;fill-opacity:1;stroke:none"
       id="rect7284-6"
       y="-1017.3622"
       x="-51"
       height="4"
       width="4"
       transform="scale(-1,-1)" />
    <rect
       style="fill:#ffffff;fill-opacity:1;stroke:none"
       id="rect7286-8"
       y="-1025.3622"
       x="-51"
       height="4"
       width="4"
       transform="scale(-1,-1)" />
    <rect
       transform="scale(-1,-1)"
       width="4"
       height="4"
       x="-51"
       y="-1001.3622"
       id="rect7288-7"
       style="fill:#ffffff;fill-opacity:1;stroke:none" />
    <rect
       transform="scale(-1,-1)"
       width="4"
       height="4"
       x="-51"
       y="-1009.3622"
       id="rect7290-4"
       style="fill:#ffffff;fill-opacity:1;stroke:none" />
    <rect
       y="-1049.3622"
       x="10"
       height="20"
       width="44"
       id="rect16701-86-1-2-3-7-4-6-1-6-3"
       style="fill:#ffffff;fill-opacity:1;stroke:none"
       transform="scale(1,-1)" />
    <path
       inkscape:connector-curvature="0"
       d="m 22.205832,1037.4403 q 0.496091,-0.7587 1.17457,-1.1526 0.685774,-0.4013 1.502865,-0.4013 1.408025,0 2.144869,0.8681 0.736841,0.8683 0.736841,2.5243 l 0,4.9755 -2.626369,0 0,-4.2605 q 0.0073,-0.095 0.0073,-0.197 0.0073,-0.1018 0.0073,-0.2919 0,-0.868 -0.255342,-1.2548 -0.25534,-0.3938 -0.824387,-0.3938 -0.744138,0 -1.152684,0.6127 -0.401251,0.6128 -0.415842,1.7728 l 0,4.0125 -2.626368,0 0,-4.2605 q 0,-1.3569 -0.233455,-1.7437 -0.233455,-0.3938 -0.831683,-0.3938 -0.751434,0 -1.15998,0.6201 -0.408546,0.6128 -0.408546,1.7582 l 0,4.0197 -2.626368,0 0,-8.1709 2.626368,0 0,1.1966 q 0.481501,-0.6932 1.101615,-1.0434 0.627411,-0.3502 1.378845,-0.3502 0.846273,0 1.49557,0.4086 0.649296,0.4085 0.984888,1.1453 z"
       style="font-style:normal;font-weight:bold;font-size:11px;line-height:125%;font-family:Sans;-inkscape-font-specification:'Sans Bold';letter-spacing:0px;word-spacing:0px;fill:#e878a0;fill-opacity:1;stroke:none"
       id="path4695-9" />
    <path
       inkscape:connector-curvature="0"
       d="m 32.828032,1043.0725 0,4.2897 -2.611777,0 0,-11.2788 2.611777,0 0,1.1966 q 0.539864,-0.715 1.196457,-1.0507 0.656592,-0.3429 1.510161,-0.3429 1.510161,0 2.480459,1.2038 0.970297,1.1965 0.970297,3.086 0,1.8895 -0.970297,3.0933 -0.970298,1.1964 -2.480459,1.1964 -0.853569,0 -1.510161,-0.3356 -0.656593,-0.3428 -1.196457,-1.0578 z m 1.73632,-5.2892 q -0.838977,0 -1.291296,0.6201 -0.445024,0.6128 -0.445024,1.7728 0,1.16 0.445024,1.78 0.452319,0.6129 1.291296,0.6129 0.838979,0 1.276708,-0.6129 0.445024,-0.6127 0.445024,-1.78 0,-1.1673 -0.445024,-1.7802 -0.437729,-0.6127 -1.276708,-0.6127 z"
       style="font-style:normal;font-weight:bold;font-size:11px;line-height:125%;font-family:Sans;-inkscape-font-specification:'Sans Bold';letter-spacing:0px;word-spacing:0px;fill:#e878a0;fill-opacity:1;stroke:none"
       id="path4697-8" />
    <path
       inkscape:connector-curvature="0"
       d="m 45.171963,1035.6748 -3.078688,4.5598 3.078688,0 0,-4.5598 z m -0.46691,-2.3126 3.12246,0 0,6.8724 1.553934,0 0,2.0354 -1.553934,0 0,1.9843 -2.65555,0 0,-1.9843 -4.829599,0 0,-2.4076 4.362689,-6.5002 z"
       style="font-style:normal;font-weight:bold;font-size:11px;line-height:125%;font-family:Sans;-inkscape-font-specification:'Sans Bold';letter-spacing:0px;word-spacing:0px;fill:#e878a0;fill-opacity:1;stroke:none"
       id="path4699-5" />
  </g>
</svg>
