<?xml version="1.0" encoding="UTF-8" standalone="no"?>
<!-- Created with Inkscape (http://www.inkscape.org/) -->

<svg
   xmlns:dc="http://purl.org/dc/elements/1.1/"
   xmlns:cc="http://creativecommons.org/ns#"
   xmlns:rdf="http://www.w3.org/1999/02/22-rdf-syntax-ns#"
   xmlns:svg="http://www.w3.org/2000/svg"
   xmlns="http://www.w3.org/2000/svg"
   xmlns:xlink="http://www.w3.org/1999/xlink"
   xmlns:sodipodi="http://sodipodi.sourceforge.net/DTD/sodipodi-0.dtd"
   xmlns:inkscape="http://www.inkscape.org/namespaces/inkscape"
   width="64"
   height="64"
   viewBox="0 0 63.999999 63.999999"
   id="svg9170"
   version="1.1"
   inkscape:version="0.91 r13725"
   sodipodi:docname="video-webm.svg">
  <defs
     id="defs9172">
    <linearGradient
       inkscape:collect="always"
       id="linearGradient16703-64-2-1-5-92-4">
      <stop
         style="stop-color:#e187a6;stop-opacity:1"
         offset="0"
         id="stop16705-6-2-1-8-38-6" />
      <stop
         style="stop-color:#f9a7c5;stop-opacity:1"
         offset="1"
         id="stop16707-92-8-2-5-64-3" />
    </linearGradient>
    <linearGradient
       inkscape:collect="always"
       xlink:href="#linearGradient16703-64-2-1-5-92-4"
       id="linearGradient16709-9-4-3-4-2-1-9"
       x1="24.625"
       y1="-32.915985"
       x2="24.625"
       y2="-6.125"
       gradientUnits="userSpaceOnUse"
       gradientTransform="matrix(1.4,0,0,1.4736842,-1.600001,-983.52003)" />
  </defs>
  <sodipodi:namedview
     id="base"
     pagecolor="#ffffff"
     bordercolor="#666666"
     borderopacity="1.0"
     inkscape:pageopacity="0.0"
     inkscape:pageshadow="2"
     inkscape:zoom="11.313708"
     inkscape:cx="29.121501"
     inkscape:cy="15.625385"
     inkscape:document-units="px"
     inkscape:current-layer="layer1"
     showgrid="false"
     units="px"
     inkscape:window-width="1440"
     inkscape:window-height="851"
     inkscape:window-x="0"
     inkscape:window-y="0"
     inkscape:window-maximized="1"
     inkscape:snap-object-midpoints="true"
     inkscape:snap-smooth-nodes="true"
     inkscape:object-nodes="true"
     inkscape:object-paths="true" />
  <metadata
     id="metadata9175">
    <rdf:RDF>
      <cc:Work
         rdf:about="">
        <dc:format>image/svg+xml</dc:format>
        <dc:type
           rdf:resource="http://purl.org/dc/dcmitype/StillImage" />
        <dc:title />
      </cc:Work>
    </rdf:RDF>
  </metadata>
  <g
     inkscape:label="Layer 1"
     inkscape:groupmode="layer"
     id="layer1"
     transform="translate(0,-988.3622)">
    <rect
       style="fill:#ec92b2;fill-opacity:1;stroke:none"
       id="rect4154-0-9"
       width="46"
       height="60"
       x="9"
       y="990.36218" />
    <rect
       y="991.36218"
       x="10"
       height="58"
       width="44"
       id="rect4150-2-3"
       style="fill:#ffffff;fill-opacity:1;stroke:none" />
    <rect
       style="fill:url(#linearGradient16709-9-4-3-4-2-1-9);fill-opacity:1;stroke:none"
       id="rect3362-9-0-9-7-2-9-9-94-6-5-8-80-0-7"
       width="42"
       height="56"
       x="11"
       y="-1048.3622"
       transform="scale(1,-1)" />
    <rect
       y="-20"
       x="-1048.3622"
       height="1"
       width="56"
       id="rect4497-4-36-7-7-4-7-37-4-7-0-1-0-2"
       style="fill:#ffffff;fill-opacity:1;stroke:none"
       transform="matrix(0,-1,-1,0,0,0)" />
    <rect
       transform="scale(1,-1)"
       width="4"
       height="4"
       x="13"
       y="-1017.3622"
       id="rect7270-8"
       style="fill:#ffffff;fill-opacity:1;stroke:none" />
    <rect
       transform="scale(1,-1)"
       width="4"
       height="4"
       x="13"
       y="-1025.3622"
       id="rect7272-0"
       style="fill:#ffffff;fill-opacity:1;stroke:none" />
    <rect
       style="fill:#ffffff;fill-opacity:1;stroke:none"
       id="rect7274-0"
       y="-1001.3622"
       x="13"
       height="4"
       width="4"
       transform="scale(1,-1)" />
    <rect
       style="fill:#ffffff;fill-opacity:1;stroke:none"
       id="rect7276-3"
       y="-1009.3622"
       x="13"
       height="4"
       width="4"
       transform="scale(1,-1)" />
    <rect
       transform="matrix(0,-1,1,0,0,0)"
       style="fill:#ffffff;fill-opacity:1;stroke:none"
       id="rect7280-1"
       width="56"
       height="1"
       x="-1048.3622"
       y="44" />
    <rect
       style="fill:#ffffff;fill-opacity:1;stroke:none"
       id="rect7284-6"
       y="-1017.3622"
       x="-51"
       height="4"
       width="4"
       transform="scale(-1,-1)" />
    <rect
       style="fill:#ffffff;fill-opacity:1;stroke:none"
       id="rect7286-8"
       y="-1025.3622"
       x="-51"
       height="4"
       width="4"
       transform="scale(-1,-1)" />
    <rect
       transform="scale(-1,-1)"
       width="4"
       height="4"
       x="-51"
       y="-1001.3622"
       id="rect7288-7"
       style="fill:#ffffff;fill-opacity:1;stroke:none" />
    <rect
       transform="scale(-1,-1)"
       width="4"
       height="4"
       x="-51"
       y="-1009.3622"
       id="rect7290-4"
       style="fill:#ffffff;fill-opacity:1;stroke:none" />
    <rect
       y="-1049.3622"
       x="10"
       height="20"
       width="44"
       id="rect16701-86-1-2-3-7-4-6-1-6-3"
       style="fill:#ffffff;fill-opacity:1;stroke:none"
       transform="scale(1,-1)" />
    <path
       inkscape:connector-curvature="0"
       d="m 14.000002,1037.8378 1.884476,0 1.018049,4.3837 1.023466,-4.3837 1.619133,0 1.01805,4.3383 1.023467,-4.3383 1.884475,0 -1.597471,6.3597 -2.117329,0 -1.023466,-4.3722 -1.018051,4.3722 -2.117327,0 -1.597472,-6.3597 z"
       style="font-style:normal;font-variant:normal;font-weight:bold;font-stretch:normal;font-size:8.83278847px;line-height:125%;font-family:sans-serif;-inkscape-font-specification:'sans-serif Bold';letter-spacing:0px;word-spacing:0px;fill:#e878a0;fill-opacity:1;stroke:none;stroke-width:1px;stroke-linecap:butt;stroke-linejoin:miter;stroke-opacity:1"
       id="path3221" />
    <path
       inkscape:connector-curvature="0"
       d="m 30.841154,1041.0007 0,0.5791 -4.532489,0 q 0.07041,0.7155 0.492779,1.0732 0.422381,0.3578 1.180504,0.3578 0.611913,0 1.250902,-0.1875 0.644407,-0.193 1.3213,-0.5791 l 0,1.5672 q -0.687724,0.2725 -1.375451,0.4089 -0.687726,0.1419 -1.37545,0.1419 -1.646209,0 -2.561372,-0.8746 -0.909747,-0.88 -0.909747,-2.4643 0,-1.5558 0.893502,-2.4472 0.898916,-0.8915 2.469313,-0.8915 1.429602,0 2.285199,0.9027 0.86101,0.9029 0.86101,2.4134 z m -1.992779,-0.6758 q 0,-0.5793 -0.324909,-0.9311 -0.319497,-0.3578 -0.839352,-0.3578 -0.563178,0 -0.91516,0.335 -0.351987,0.3293 -0.43863,0.9539 l 2.518051,0 z"
       style="font-style:normal;font-variant:normal;font-weight:bold;font-stretch:normal;font-size:8.83278847px;line-height:125%;font-family:sans-serif;-inkscape-font-specification:'sans-serif Bold';letter-spacing:0px;word-spacing:0px;fill:#e878a0;fill-opacity:1;stroke:none;stroke-width:1px;stroke-linecap:butt;stroke-linejoin:miter;stroke-opacity:1"
       id="path3223" />
    <path
       inkscape:connector-curvature="0"
       d="m 35.530686,1042.8858 q 0.622743,0 0.94765,-0.477 0.330325,-0.4769 0.330325,-1.3855 0,-0.9085 -0.330325,-1.3855 -0.324907,-0.477 -0.94765,-0.477 -0.622744,0 -0.958484,0.4827 -0.330326,0.477 -0.330326,1.3798 0,0.9029 0.330326,1.3855 0.33574,0.477 0.958484,0.477 z m -1.28881,-4.1167 q 0.400722,-0.5564 0.888087,-0.8176 0.487365,-0.2669 1.120938,-0.2669 1.12094,0 1.841155,0.9369 0.720217,0.9313 0.720217,2.4018 0,1.4708 -0.720217,2.4076 -0.720215,0.9313 -1.841155,0.9313 -0.633573,0 -1.120938,-0.2613 -0.487365,-0.2667 -0.888087,-0.8233 l 0,0.9199 -1.938629,0 0,-8.8353 1.938629,0 0,3.4069 z"
       style="font-style:normal;font-variant:normal;font-weight:bold;font-stretch:normal;font-size:8.83278847px;line-height:125%;font-family:sans-serif;-inkscape-font-specification:'sans-serif Bold';letter-spacing:0px;word-spacing:0px;fill:#e878a0;fill-opacity:1;stroke:none;stroke-width:1px;stroke-linecap:butt;stroke-linejoin:miter;stroke-opacity:1"
       id="path3225" />
    <path
       inkscape:connector-curvature="0"
       d="m 45.873643,1038.8941 q 0.368231,-0.5906 0.871841,-0.8971 0.509025,-0.3124 1.115523,-0.3124 1.045125,0 1.592059,0.6756 0.546932,0.6758 0.546932,1.9647 l 0,3.8726 -1.949459,0 0,-3.3161 q 0.0054,-0.073 0.0054,-0.1533 0.0054,-0.08 0.0054,-0.2272 0,-0.6756 -0.189529,-0.9766 -0.189531,-0.3066 -0.611914,-0.3066 -0.552347,0 -0.855594,0.477 -0.297835,0.4769 -0.308666,1.3798 l 0,3.123 -1.949457,0 0,-3.3161 q 0,-1.0561 -0.173286,-1.3571 -0.173285,-0.3066 -0.617328,-0.3066 -0.557762,0 -0.861011,0.4826 -0.30325,0.4771 -0.30325,1.3685 l 0,3.1287 -1.949458,0 0,-6.3597 1.949458,0 0,0.9313 q 0.3574,-0.5394 0.81769,-0.8119 0.465704,-0.2726 1.023466,-0.2726 0.628159,0 1.110108,0.3179 0.48195,0.318 0.731047,0.8916 z"
       style="font-style:normal;font-variant:normal;font-weight:bold;font-stretch:normal;font-size:8.83278847px;line-height:125%;font-family:sans-serif;-inkscape-font-specification:'sans-serif Bold';letter-spacing:0px;word-spacing:0px;fill:#e878a0;fill-opacity:1;stroke:none;stroke-width:1px;stroke-linecap:butt;stroke-linejoin:miter;stroke-opacity:1"
       id="path3227" />
  </g>
</svg>
