<?xml version="1.0" encoding="UTF-8" standalone="no"?>
<!-- Created with Inkscape (http://www.inkscape.org/) -->

<svg
   xmlns:dc="http://purl.org/dc/elements/1.1/"
   xmlns:cc="http://creativecommons.org/ns#"
   xmlns:rdf="http://www.w3.org/1999/02/22-rdf-syntax-ns#"
   xmlns:svg="http://www.w3.org/2000/svg"
   xmlns="http://www.w3.org/2000/svg"
   xmlns:sodipodi="http://sodipodi.sourceforge.net/DTD/sodipodi-0.dtd"
   xmlns:inkscape="http://www.inkscape.org/namespaces/inkscape"
   id="svg7384"
   height="16"
   width="16"
   version="1.1"
   inkscape:version="0.91 r13725"
   sodipodi:docname="folder-publicshare.svg">
  <defs
     id="defs10" />
  <sodipodi:namedview
     pagecolor="#ffffff"
     bordercolor="#666666"
     borderopacity="1"
     objecttolerance="10"
     gridtolerance="10"
     guidetolerance="10"
     inkscape:pageopacity="0"
     inkscape:pageshadow="2"
     inkscape:window-width="1440"
     inkscape:window-height="854"
     id="namedview8"
     showgrid="false"
     inkscape:zoom="16.532195"
     inkscape:cx="10.878163"
     inkscape:cy="7.2998749"
     inkscape:window-x="0"
     inkscape:window-y="0"
     inkscape:window-maximized="1"
     inkscape:current-layer="svg7384" />
  <metadata
     id="metadata90">
    <rdf:RDF>
      <cc:Work
         rdf:about="">
        <dc:format>image/svg+xml</dc:format>
        <dc:type
           rdf:resource="http://purl.org/dc/dcmitype/StillImage" />
        <dc:title>Gnome Symbolic Icon Theme</dc:title>
      </cc:Work>
    </rdf:RDF>
  </metadata>
  <title
     id="title9167">Gnome Symbolic Icon Theme</title>
  <path
     inkscape:connector-curvature="0"
     style="fill:#8c8c8c;fill-opacity:1"
     d="m 5.0000022,-5.5e-6 0,14.9999995 2.529297,0 a 5.9999999,5.9999999 0 0 1 -1.611328,-4.083984 5.9999999,5.9999999 0 0 1 5.9999998,-6 5.9999999,5.9999999 0 0 1 2.082031,0.380859 l 0,-5.2968745 -8.9999998,0 z"
     id="path13021-3" />
  <path
     style="fill:#8c8c8c;fill-opacity:1;stroke:none"
     d="m 1.9999625,-5.5e-6 0,7.9999975 L 1,7.999992 1,15 l 2.999975,0 0,-15.0000055 z"
     id="rect3967"
     inkscape:connector-curvature="0"
     sodipodi:nodetypes="ccccccc" />
  <path
     style="fill:#8c8c8c;fill-opacity:1;fill-rule:nonzero;stroke:none"
     d="m 12.298058,5.999953 -0.160549,0.08654 -0.256874,0 -0.224754,0.02896 -0.09637,0.02887 -0.06422,0.02887 -0.160548,0 -0.128438,0.144231 -0.06422,-0.230774 -0.06422,0.08653 -0.03202,0.230774 -0.224772,0.115365 -0.19266,0.230774 0.224772,0.05766 0.160549,-0.144239 0,-0.02887 0.0322,-0.02896 c 0.117614,-0.0427 0.234396,-0.104315 0.353191,-0.144222 l 0.224772,0.115383 c 0.128569,0.129854 0.256577,0.27412 0.38532,0.403834 l 0.256875,-0.14423 -0.224763,-0.144204 -0.06422,-0.259622 -0.417423,-0.144239 0,-0.02887 0.19266,0.05766 0.128437,-0.05766 0.256875,0 c 0.063,-0.01269 0.130397,-0.021 0.192642,-0.02887 l -0.192642,0.08653 0.449526,0.46153 0.481646,-0.259613 0.931181,0.05766 0,-0.288461 -0.03202,-0.0287 -0.706418,-0.08662 -0.610075,0.02896 -0.0322,-0.173087 -0.32108,-0.02887 z m -1.284372,0.663466 0.160549,0.173069 0.192642,0.05766 0.06422,-0.17307 -0.224763,-0.14423 -0.192651,0.08653 z M 10.307285,6.49034 10.146736,6.721106 c 0,0 -0.1776018,-0.02905 -0.2247708,-0.02887 -0.697467,0.353541 -2.126709,1.139511 -2.921945,3.028805 -0.0017,0.04742 0.09626,0.346147 0.09626,0.346147 l 0.385311,0.346166 0.385312,0.201917 0.160549,0.230783 0.224771,0.288452 0.160549,0 0.09636,0.08653 0,0.02896 -0.256874,0.374996 -0.192652,0.144239 0.03202,0.08653 -0.19266,0.288461 0.19266,0.721152 0.288977,0.374987 0.128438,0.259613 -0.160549,0.432683 0.06422,0.288478 -0.256875,0.461522 c 0,0 -0.0035,-0.02362 0,0.02887 0.0017,0.02625 0.142883,0.162885 0.288995,0.288461 l 0.545861,0 0.06422,-0.02896 0.09626,-0.144222 0.289003,-0.02887 0.321089,-0.4327 0,-0.115401 0.192643,-0.17306 0.3211148,0 0.256874,-0.317309 0.06422,-0.432674 0.353209,-0.259613 0.09625,-0.317327 c -0.297674,-0.22812 -0.573037,-0.460163 -0.866949,-0.692276 l -0.09627,-0.317309 -0.2889768,-0.144221 -0.0322,-0.432701 -0.449535,-0.05766 -0.288977,-0.3173 -0.449526,0.230765 0,0.02896 c -0.104585,-0.05442 -0.236111,-0.06588 -0.321106,-0.14422 l -0.0322,-0.259605 0.06422,-0.230782 -0.256874,-0.02887 c 0.06142,-0.145189 0.131149,-0.287573 0.192642,-0.432696 l -0.160531,-0.02887 -0.192678,0.144222 -0.16054,0.02887 -0.16054,-0.144213 0.03211,-0.259613 0.09626,-0.230765 0.385321,-0.144231 0.256874,0.05766 0.06422,-0.1154 0.288986,0.1154 0.16054,0.317292 0.160548,-0.432688 0.481638,-0.201926 0.224771,-0.288453 0.3210978,-0.05766 0.224763,-0.173087 0.385311,0.02887 0.256875,-0.230757 C 10.698761,8.295818 10.492958,8.261948 10.306878,8.221206 l 0.417423,-0.08653 0.256883,0.05766 0.321081,-0.02887 0,0.288461 0.192669,-0.14424 -0.128446,-0.144221 0.06422,-0.115383 -0.09636,-0.144239 -0.128437,-0.05766 0.06422,-0.115374 -0.06422,-0.230774 -0.256884,0.05766 0.09626,-0.17307 -0.256883,-0.230774 -0.321089,0.317291 -0.03211,0.144248 -0.256883,0.0287 -0.1926428,0.259614 0,-0.288453 -0.353217,-0.230756 0,-0.201935 0.5779728,-0.173079 0.288994,-0.144221 0.09626,-0.230774 -0.128437,-0.08653 -0.160549,-0.05766 z m 3.114614,1.384601 -0.0322,0.144239 0.06422,0.08653 -0.06422,0.230774 -0.128446,0.288461 0.288986,0 0.224772,-0.14423 -0.128437,-0.173079 c -0.01855,-0.144659 -0.03045,-0.261582 -0.06422,-0.403852 l -0.16054,-0.02887 z m -0.449543,0.230756 -0.0322,0.288479 0.224763,-0.05766 -0.03211,-0.230774 -0.160548,0 z m 0.931181,0.576931 -0.192652,0.173078 -0.192677,0.144213 -0.288969,-0.02887 0.128437,0.201927 -0.0322,0.173069 -0.192642,-0.05766 -0.321098,0.08662 -0.09626,0.374996 0.128437,0.02887 0.09626,0.144222 0.288986,-0.05766 0.16054,-0.201918 0.224755,-0.08653 0.06422,-0.05766 0.321088,-0.02887 0,-0.77883 -0.09626,-0.02887 z m -0.610084,1.326904 -0.385311,0.02888 c -0.260357,0.165938 -0.518955,0.342788 -0.770633,0.519217 l -0.385294,0.432683 0.09626,0.144239 -0.256874,0.230765 0.06422,0.49037 c 0.130309,0.226898 0.287402,0.465346 0.417414,0.692305 l 0.321097,-0.144213 0.06422,0.144213 0.32108,-0.115374 0.09627,0.115374 0.288977,0.05766 0.09627,0.230774 -0.16054,0.288461 0.128437,0.230766 -0.09626,0.375004 0.06422,0.288444 -0.160548,0.201935 c -0.05469,0.159761 -0.11652,0.299398 -0.16054,0.461521 0.01216,0.1047 0.01645,0.211639 0.03202,0.317309 l 1.091721,0 0,-4.730732 -0.03202,-0.05766 -0.256875,-0.14423 -0.417423,-0.05766 z"
     id="path6534"
     inkscape:connector-curvature="0" />
</svg>
