<?xml version="1.0" encoding="UTF-8" standalone="no"?>
<!-- Created with Inkscape (http://www.inkscape.org/) -->

<svg
   xmlns:dc="http://purl.org/dc/elements/1.1/"
   xmlns:cc="http://creativecommons.org/ns#"
   xmlns:rdf="http://www.w3.org/1999/02/22-rdf-syntax-ns#"
   xmlns:svg="http://www.w3.org/2000/svg"
   xmlns="http://www.w3.org/2000/svg"
   xmlns:xlink="http://www.w3.org/1999/xlink"
   xmlns:sodipodi="http://sodipodi.sourceforge.net/DTD/sodipodi-0.dtd"
   xmlns:inkscape="http://www.inkscape.org/namespaces/inkscape"
   version="1.0"
   width="24"
   height="24"
   id="svg4569"
   sodipodi:version="0.32"
   inkscape:version="0.91 r13725"
   sodipodi:docname="network.svg"
   inkscape:output_extension="org.inkscape.output.svg.inkscape">
  <metadata
     id="metadata46">
    <rdf:RDF>
      <cc:Work
         rdf:about="">
        <dc:format>image/svg+xml</dc:format>
        <dc:type
           rdf:resource="http://purl.org/dc/dcmitype/StillImage" />
        <dc:title />
      </cc:Work>
    </rdf:RDF>
  </metadata>
  <sodipodi:namedview
     inkscape:window-height="789"
     inkscape:window-width="1438"
     inkscape:pageshadow="2"
     inkscape:pageopacity="0.0"
     guidetolerance="10.0"
     gridtolerance="10.0"
     objecttolerance="10.0"
     borderopacity="1.0"
     bordercolor="#666666"
     pagecolor="#ffffff"
     id="base"
     showgrid="false"
     showguides="true"
     inkscape:guide-bbox="true"
     inkscape:zoom="18.152356"
     inkscape:cx="7.4472654"
     inkscape:cy="7.9058016"
     inkscape:window-x="0"
     inkscape:window-y="61"
     inkscape:current-layer="svg4569"
     inkscape:window-maximized="0"
     inkscape:snap-object-midpoints="true"
     inkscape:snap-center="true">
    <inkscape:grid
       type="xygrid"
       id="grid2421"
       empspacing="5"
       visible="true"
       enabled="true"
       snapvisiblegridlinesonly="true" />
  </sodipodi:namedview>
  <defs
     id="defs4571">
    <linearGradient
       id="linearGradient3342-5">
      <stop
         id="stop3344-6"
         style="stop-color:#ffffff;stop-opacity:0"
         offset="0" />
      <stop
         id="stop3346-1"
         style="stop-color:#ffffff;stop-opacity:1"
         offset="1" />
    </linearGradient>
    <linearGradient
       inkscape:collect="always"
       xlink:href="#linearGradient3342-5"
       id="linearGradient3778-3-5-9"
       gradientUnits="userSpaceOnUse"
       gradientTransform="matrix(0.46886919,0.05565655,-0.0556618,0.46880364,1.6087869,-0.16817396)"
       x1="20"
       y1="43"
       x2="20"
       y2="2.6887112" />
  </defs>
  <circle
     style="fill:#8c8c8c;fill-opacity:1;stroke:none;stroke-width:2;stroke-miterlimit:4;stroke-dasharray:none;stroke-opacity:1"
     id="path12632-5"
     cx="12"
     cy="12"
     r="11.5" />
  <circle
     r="10.5"
     cy="12"
     cx="12"
     id="circle12630-6"
     style="fill:#ffffff;fill-opacity:1;stroke:none;stroke-width:2;stroke-miterlimit:4;stroke-dasharray:none;stroke-opacity:1" />
  <path
     style="fill:#8c8c8c;fill-opacity:1;fill-rule:nonzero;stroke:url(#linearGradient3778-3-5-9);stroke-width:0;stroke-miterlimit:4;stroke-dasharray:none"
     d="M 10.808459,3.377701 10.334192,3.4059282 10.074476,3.6007175 9.707483,3.6062811 9.3659,3.7248519 9.2021652,3.7869518 9.1457107,3.8462371 8.9085773,3.8660043 8.7307277,4.1539546 8.589575,3.7446171 8.5105388,3.8998914 8.4907716,4.3346369 8.1633027,4.5548307 7.9374602,4.9952215 8.2959839,5.0375705 8.4710108,4.7524475 8.5302961,4.6451677 C 8.7010276,4.5497327 8.8681231,4.4395527 9.0412617,4.3487478 L 9.396963,4.5237747 c 0.223116,0.198831 0.448523,0.3970599 0.671877,0.595657 L 10.466884,4.8314843 10.080131,4.6028191 9.938977,4.1991286 9.264277,4.038225 9.258577,3.956358 9.546525,4.055162 9.73849,3.899904 10.119597,3.866031 c 0.09352,-0.033545 0.186074,-0.056634 0.279477,-0.081867 L 10.139358,3.9817744 10.91004,4.673414 10.86769,5.0262906 10.503521,5.3227061 10.83099,6.2655927 11.147167,6.127271 11.593204,5.5824278 C 12.13764,5.4786499 12.631867,5.3386347 13.15433,5.1674467 l -0.05645,0.2201938 0.228665,0.2060802 0.46862,-0.2512471 -0.18632,-0.282302 -0.316176,0.1383218 -0.09033,-0.042349 c 0.02261,-0.00736 0.04501,-0.014891 0.06775,-0.022582 l 0.570319,-1.0981523 -0.903363,-0.4996732 -1.103799,-0.00278 -1.239303,0.1947877 c 0.10633,-0.024464 0.217626,-0.053771 0.32747,-0.076222 z M 8.4710041,4.7525103 8.798473,5.0517486 9.0948902,5.0884521 9.1287628,4.7807424 8.7900016,4.5803093 Z M 7.3841439,4.6226486 7.1780637,5.0178693 c 0,0 -0.2752688,0.013255 -0.3472311,0.022582 -0.9916879,0.7379435 -3.0073245,2.3543028 -3.8308286,5.7476537 0.0072,0.08183 0.2286637,0.581543 0.2286637,0.581543 l 0.6380012,0.496849 0.6605846,0.273832 0.2540714,0.403692 0.4093377,0.406514 0.2681867,-0.01694 0.1750252,0.118572 -0.00573,0.06209 -0.3331143,0.691638 -0.2399561,0.279478 0.045164,0.149611 -0.2201955,0.556134 0.4432138,1.154619 0.5307262,0.601298 0.2201954,0.414983 -0.1242162,0.796092 0.1326762,0.468618 -0.2879474,0.841258 c 0,0 -0.023138,-0.01096 -0.00851,0.07906 0.014891,0.09008 1.3567881,1.103941 1.427186,1.062357 0.070282,-0.04252 0.1355072,-0.07906 0.1355072,-0.07906 l -0.039518,-0.200436 0.2964155,-0.223016 0.1242163,-0.259718 0.4347453,-0.09315 0.4262741,-0.793266 -0.067745,-0.234311 0.2625411,-0.324645 0.5081409,-0.05364 0.321823,-0.575894 0.02541,-0.75939 0.586768,-1.263275 0.127031,-0.564604 C 9.853375,14.449134 9.363919,14.103681 8.8672427,13.760252 L 8.6668096,13.204117 8.1953672,13.031913 8.0175159,12.280992 l -0.6492921,0.0027 -1.0400146,-0.03904 -0.6521165,0.454506 -0.00851,0.07904 C 5.496879,12.704588 5.2857867,12.673805 5.1398477,12.555299 l -0.079036,-0.400868 0.050809,-0.414983 -0.4093376,0 C 4.7659211,11.478654 4.838854,11.21537 4.9027163,10.95465 L 4.6684062,10.926437 4.4030439,11.200271 4.1715559,11.284947 3.8666705,11.056283 3.8864378,10.638478 3.9965323,10.195264 4.5244357,9.8706155 4.9168354,9.9157791 5.0184698,9.7012425 5.4899124,9.8734465 5.7919749,10.381588 5.9444185,9.6193753 6.6304108,9.1676935 6.9127112,8.6341429 7.4010932,8.4958212 7.6918634,8.142943 8.2988114,8.1034248 8.6488653,7.6884417 7.7596153,7.5839928 8.3524481,7.3807353 8.7392023,7.4258993 9.261459,7.3101593 9.292519,7.8183022 9.55506,7.4908333 9.326395,7.2847532 9.411095,7.0871428 9.2304169,6.8697698 9.0215157,6.7794262 9.1118592,6.5479398 8.9819975,6.1922406 8.57266,6.3023351 8.6714634,6.0059195 8.2536576,5.6840961 7.8189139,6.2797517 7.824641,6.5084152 7.4463584,6.6213405 7.1725262,7.0927847 7.1160717,6.6156951 6.5401769,6.2854021 6.4724316,5.9240571 7.3532117,5.54295 7.7512568,5.2324192 7.8303095,4.8202589 7.64399,4.6847518 Z m 9.3695831,0.9118333 -0.654941,0.084698 -0.434741,0.2230181 -0.03106,0.2399561 -0.683171,0.3387614 0.04799,0.6408239 0.406515,-0.2286653 0.200435,0.29924 0.245602,0.1919649 0.225841,-0.4460364 -0.05927,-0.2823001 0.11574,-0.1778514 0.414981,-0.3105308 0.169381,0.025413 -0.217372,0.3613466 -0.04235,0.3528765 c 0.158924,-0.024578 0.317263,-0.027 0.47709,-0.028227 l -0.474256,0.2710077 -0.05083,0.1891422 -0.547665,0.3698146 -0.499672,-0.1891406 0.0339,-0.3048854 -0.248428,0.1326764 0.07622,0.2823002 -0.372648,-0.042349 0.151183,0.018851 -0.2823,0.2568942 -0.460152,0.042349 0.228665,0.3020626 0.03106,0.2794792 -0.327469,-0.039518 -0.462974,0.1891422 -0.08186,0.7057531 0.203257,0.022582 0.160904,0.2286636 0.446036,-0.1580889 0.203256,-0.4093378 0.33594,-0.155258 0.07904,-0.155258 0.51379,-0.064931 0.242781,0.3500538 0.276652,0.1947877 -0.211723,0.3331158 0.271007,-0.047994 0.183498,-0.3331159 -0.293596,-0.4432119 0.138323,0.016936 0.307707,0.3302914 0.01694,0.389577 0.254071,0.3867515 0.138322,-0.499672 0.163735,-0.0621 c 0.144804,0.1964756 0.250897,0.4253308 0.366992,0.640824 l 0.510968,0.095989 0.273833,0.2286639 -0.166553,0.18914 -0.324638,0.234312 -1.142963,0.657406 -0.553311,-0.265363 -0.296417,-0.0027 -0.251249,0.231487 -0.547665,-0.714224 -0.417808,-0.17785 -0.649292,0.0027 -0.578717,0.09034 c -0.363153,0.333796 -0.733459,0.671744 -1.081208,1.021932 l -0.462975,0.849728 0.146798,0.214549 -0.364167,0.423451 0.245602,0.858195 c 0.24586,0.365137 0.497031,0.727187 0.742451,1.092506 l 0.460152,-0.316175 0.143966,0.242779 0.488383,-0.248426 0.135507,0.194788 0.451682,0.05364 0.225841,0.335936 -0.217373,0.525084 0.268186,0.403691 -0.09034,0.640823 0.17785,0.491206 -0.217371,0.378282 c -0.05036,0.284577 -0.09618,0.554641 -0.129862,0.841258 0.0916,0.404767 0.181719,0.810077 0.265364,1.21672 l 0.01977,0.635178 -0.0367,0.319001 0.248424,0.03106 0.386754,-0.197611 0.434745,0.05083 0.742453,-0.671878 -0.05083,-0.265361 0.485557,-0.347231 -0.282299,-0.406514 0.423452,-0.273832 0.403689,-0.194788 0.191965,-0.172204 -0.05928,-0.443214 0.12986,-1.086857 0.375464,-0.635181 0.420628,-0.37264 0.525082,-0.971117 0.03106,-0.273832 c -0.204311,0.0019 -0.399868,0.0034 -0.598477,-0.0058 l 1.159902,-1.075215 0.604124,-0.316177 0.338761,-0.316177 0.04235,-0.381106 c -0.05176,-0.137962 -0.103036,-0.28831 -0.155274,-0.426294 l -0.29924,0.29077 -0.175028,-0.265363 -0.265359,-0.276655 0.05364,-0.494028 0.296414,0.44039 0.395225,0 c 0.156207,0.184689 0.308411,0.348534 0.440388,0.553313 l 0.282308,-0.256896 c 0.0364,-0.3097 -0.520776,-1.570022 -1.102538,-2.9519422 C 19.313966,7.4981934 18.165262,6.1583025 18.165262,6.1583025 l -0.112963,0.1637539 -0.389576,0.3444069 -0.381106,-0.5194337 0.437567,0.05364 0.228663,-0.1976104 -0.790443,-0.2568941 z m -2.78914,0.652115 -0.03106,0.256894 0.124217,0.1778496 -0.04799,0.3839299 -0.138328,0.5024974 0.414983,-0.031058 L 14.61953,7.2085231 14.382396,6.917753 C 14.324206,6.6728287 14.262842,6.4527446 14.181962,6.2148223 Z m -0.400867,0.471444 -0.256894,0.05364 0.0058,0.4714426 0.350054,-0.1383217 z m 4.459106,4.4453421 0.321822,0.491204 0.335941,1.041691 0.239956,0.355701 -0.883251,1.027221 0.214549,0.330294 c -0.115118,-0.0059 -0.22985,-0.01129 -0.34723,-0.02541 -0.159152,-0.486024 -0.27248,-0.969613 -0.378285,-1.47079 l -0.239953,-0.352877 -0.09034,-0.592833 z"
     id="path4140-2"
     inkscape:connector-curvature="0"
     sodipodi:nodetypes="cccccccccccccccccccccccccccccccccccccccccccccccccccccccccccccccccccccccccccccccccccccccccccccccccccccccccccccccccccccccccccccccccccccccccccccccccccccccccccccccccccccccccccccccccccccccccccccccccccccccccccccccccccccccccccccccccccccccccccccccccccccccccccccccccccccccccccccccccccccccccccccccccccccccccccccc" />
</svg>
