<?xml version="1.0" encoding="UTF-8" standalone="no"?>
<!-- Created with Inkscape (http://www.inkscape.org/) -->

<svg
   xmlns:dc="http://purl.org/dc/elements/1.1/"
   xmlns:cc="http://creativecommons.org/ns#"
   xmlns:rdf="http://www.w3.org/1999/02/22-rdf-syntax-ns#"
   xmlns:svg="http://www.w3.org/2000/svg"
   xmlns="http://www.w3.org/2000/svg"
   xmlns:sodipodi="http://sodipodi.sourceforge.net/DTD/sodipodi-0.dtd"
   xmlns:inkscape="http://www.inkscape.org/namespaces/inkscape"
   id="svg7384"
   height="16"
   width="16"
   version="1.1"
   inkscape:version="0.91 r13725"
   sodipodi:docname="user-trash.svg">
  <defs
     id="defs10" />
  <sodipodi:namedview
     pagecolor="#ffffff"
     bordercolor="#666666"
     borderopacity="1"
     objecttolerance="10"
     gridtolerance="10"
     guidetolerance="10"
     inkscape:pageopacity="0"
     inkscape:pageshadow="2"
     inkscape:window-width="994"
     inkscape:window-height="665"
     id="namedview8"
     showgrid="false"
     inkscape:zoom="9.5336847"
     inkscape:cx="6.0643221"
     inkscape:cy="-3.7619816"
     inkscape:window-x="297"
     inkscape:window-y="94"
     inkscape:window-maximized="0"
     inkscape:current-layer="svg7384"
     inkscape:snap-bbox="true"
     inkscape:bbox-nodes="true"
     inkscape:bbox-paths="true"
     inkscape:snap-bbox-edge-midpoints="false" />
  <metadata
     id="metadata90">
    <rdf:RDF>
      <cc:Work
         rdf:about="">
        <dc:format>image/svg+xml</dc:format>
        <dc:type
           rdf:resource="http://purl.org/dc/dcmitype/StillImage" />
        <dc:title>Gnome Symbolic Icon Theme</dc:title>
      </cc:Work>
    </rdf:RDF>
  </metadata>
  <title
     id="title9167">Gnome Symbolic Icon Theme</title>
  <path
     style="fill:#8c8c8c;fill-opacity:1;stroke:none"
     d="m 4,4.999997 0,8 8,0 0,-8 z m 1,1 1,0 0,7 -1,0 z m 2.5,0 1,0 0,7 -1,0 z m 2.53125,0 0.96875,0 -0.03125,7 -0.96875,0 z"
     id="rect2994"
     inkscape:connector-curvature="0"
     sodipodi:nodetypes="cccccccccccccccccccc" />
  <path
     style="color:#bebebe;text-indent:0pt;text-transform:none;fill:#8c8c8c;fill-opacity:1"
     d="M 4.28125,-3e-6 C 3.00188,-3e-6 3,0.9831 3,1.312497 l 0,0.6875 -2,0 0,2 7,0 7,0 0,-2 -2,0 0,-0.6875 C 13,0.9831 12.9982,-3e-6 11.71875,-3e-6 9.1440294,-1.95e-4 8,-3e-6 8,-3e-6 c 0,0 -1.1440292,-1.92e-4 -3.71875,0 z m 0.71875,1 3,0 3,0 0,1 -3,0 -3,0 0,-1 z"
     id="path2995"
     inkscape:connector-curvature="0" />
  <path
     style="color:#bebebe;text-indent:0pt;text-transform:none;fill:#8c8c8c;fill-opacity:1"
     d="m 12,4.999909 1,0 0,8.054709 C 13,14.107526 12.782267,15 11.737066,15 L 4.2620667,15 C 3.21808,15 3,14.107526 3,13.054618 l 0,-8.054534 1,0 0,7.999913 8,0 z"
     id="path2993"
     inkscape:connector-curvature="0"
     sodipodi:nodetypes="ccssssccccc" />
  <path
     sodipodi:nodetypes="ccssssccccc"
     inkscape:connector-curvature="0"
     id="path2987"
     d="m 12,15 1,0 0,-8.054709 C 13,5.892383 12.782267,4.999909 11.737066,4.999909 l -7.4749993,0 C 3.21808,4.999909 3,5.892383 3,6.945291 l 0,8.054533 1,0 0,-8.999827 8,0 z"
     style="color:#bebebe;text-indent:0pt;text-transform:none;fill:#8c8c8c;fill-opacity:1" />
</svg>
