<?xml version="1.0" encoding="UTF-8" standalone="no"?>
<!-- Created with Inkscape (http://www.inkscape.org/) -->

<svg
   xmlns:dc="http://purl.org/dc/elements/1.1/"
   xmlns:cc="http://creativecommons.org/ns#"
   xmlns:rdf="http://www.w3.org/1999/02/22-rdf-syntax-ns#"
   xmlns:svg="http://www.w3.org/2000/svg"
   xmlns="http://www.w3.org/2000/svg"
   xmlns:xlink="http://www.w3.org/1999/xlink"
   xmlns:sodipodi="http://sodipodi.sourceforge.net/DTD/sodipodi-0.dtd"
   xmlns:inkscape="http://www.inkscape.org/namespaces/inkscape"
   width="48"
   height="48"
   id="svg2"
   version="1.1"
   inkscape:version="0.91 r13725"
   sodipodi:docname="folder-music.svg">
  <defs
     id="defs4">
    <linearGradient
       id="linearGradient4420"
       inkscape:collect="always">
      <stop
         id="stop4422"
         offset="0"
         style="stop-color:#99cded;stop-opacity:1" />
      <stop
         id="stop4424"
         offset="1"
         style="stop-color:#b8ddf6;stop-opacity:1" />
    </linearGradient>
    <linearGradient
       inkscape:collect="always"
       id="linearGradient4168">
      <stop
         style="stop-color:#63c2f1;stop-opacity:1"
         offset="0"
         id="stop4170" />
      <stop
         style="stop-color:#51bbef;stop-opacity:1"
         offset="1"
         id="stop4172" />
    </linearGradient>
    <linearGradient
       inkscape:collect="always"
       xlink:href="#linearGradient4420"
       id="linearGradient8104"
       gradientUnits="userSpaceOnUse"
       gradientTransform="matrix(1.1000001,0,0,0.95652423,-2.3999963,-957.95756)"
       x1="31.004423"
       y1="1044.0774"
       x2="31.004423"
       y2="1022.0029" />
    <linearGradient
       inkscape:collect="always"
       xlink:href="#linearGradient4168"
       id="linearGradient8106"
       gradientUnits="userSpaceOnUse"
       gradientTransform="matrix(0,-0.68,1.25,0,-1.7499985,50.92)"
       x1="44.091911"
       y1="30.6"
       x2="13.331551"
       y2="30.6" />
  </defs>
  <sodipodi:namedview
     id="base"
     pagecolor="#ffffff"
     bordercolor="#27cc00"
     borderopacity="1"
     inkscape:pageopacity="0.0"
     inkscape:pageshadow="2"
     inkscape:zoom="1.2153397"
     inkscape:cx="30.158253"
     inkscape:cy="-27.814748"
     inkscape:document-units="px"
     inkscape:current-layer="svg2"
     showgrid="false"
     borderlayer="false"
     inkscape:showpageshadow="false"
     showborder="true"
     inkscape:snap-from-guide="false"
     objecttolerance="1"
     gridtolerance="1"
     guidetolerance="5"
     inkscape:window-width="1440"
     inkscape:window-height="852"
     inkscape:window-x="0"
     inkscape:window-y="0"
     inkscape:window-maximized="1"
     showguides="false"
     inkscape:guide-bbox="true">
    <inkscape:grid
       type="xygrid"
       id="grid2985"
       empspacing="5"
       visible="true"
       enabled="true"
       snapvisiblegridlinesonly="true" />
  </sodipodi:namedview>
  <metadata
     id="metadata7">
    <rdf:RDF>
      <cc:Work
         rdf:about="">
        <dc:format>image/svg+xml</dc:format>
        <dc:type
           rdf:resource="http://purl.org/dc/dcmitype/StillImage" />
        <dc:title />
      </cc:Work>
    </rdf:RDF>
  </metadata>
  <path
     sodipodi:nodetypes="ccccc"
     inkscape:connector-curvature="0"
     id="path8034"
     d="m 47.000003,13.999999 0,28.000001 -45.9999993,0 0,-28.000001 z"
     style="display:inline;fill:#89c4e9;fill-opacity:1;stroke:none" />
  <rect
     y="11.000007"
     x="1"
     height="4"
     width="19"
     id="rect8036"
     style="opacity:1;fill:#89c4e9;fill-opacity:1;stroke:none;stroke-width:2.25;stroke-linecap:round;stroke-miterlimit:4;stroke-dasharray:none;stroke-opacity:1" />
  <path
     sodipodi:nodetypes="ccccc"
     inkscape:connector-curvature="0"
     id="path8038"
     d="m 46.000003,18.999999 0,22.000001 -43.9999993,0 0,-22.000001 z"
     style="display:inline;fill:url(#linearGradient8104);fill-opacity:1;stroke:none" />
  <path
     sodipodi:nodetypes="ccccccccc"
     id="path8040"
     d="m 2.0000037,11.999999 0,3.000001 0,3 16.9999983,0 27.000001,0 0,-3 -27.000001,0 0,-3.000001 z"
     style="display:inline;opacity:1;fill:#ffffff;fill-opacity:1;fill-rule:evenodd;stroke:none;stroke-width:12;stroke-linecap:square;stroke-linejoin:miter;stroke-miterlimit:4;stroke-dasharray:none;stroke-opacity:1"
     inkscape:connector-curvature="0" />
  <path
     sodipodi:nodetypes="ccccccccccccccc"
     inkscape:connector-curvature="0"
     id="path8042"
     d="m 47.000001,29 0,13 L 18,42 l 0,-17 5,0 0,4 7,0 0,-4 4,0 10e-7,-4 5,0 0,4 4,0 0,4 z"
     style="fill:url(#linearGradient8106);fill-opacity:1;stroke:none" />
  <path
     sodipodi:nodetypes="ccccc"
     inkscape:connector-curvature="0"
     id="path8044"
     d="m 26,41 -3,0 0,-3 3,0 z"
     style="fill:#ffffff;fill-opacity:1;stroke:none" />
  <path
     style="fill:#ffffff;fill-opacity:1;stroke:none"
     d="m 30,41 -3,0 0,-3 3,0 z"
     id="path8046"
     inkscape:connector-curvature="0"
     sodipodi:nodetypes="ccccc" />
  <path
     style="fill:#ffffff;fill-opacity:1;stroke:none"
     d="m 34.000001,41 -3,0 0,-3 3,0 z"
     id="path8048"
     inkscape:connector-curvature="0"
     sodipodi:nodetypes="ccccc" />
  <path
     sodipodi:nodetypes="ccccc"
     inkscape:connector-curvature="0"
     id="path8050"
     d="m 38.000001,41 -3,0 0,-3 3,0 z"
     style="fill:#ffffff;fill-opacity:1;stroke:none" />
  <path
     style="fill:#ffffff;fill-opacity:1;stroke:none"
     d="m 42.000001,41 -3,0 0,-3 3,0 z"
     id="path8052"
     inkscape:connector-curvature="0"
     sodipodi:nodetypes="ccccc" />
  <path
     sodipodi:nodetypes="ccccc"
     inkscape:connector-curvature="0"
     id="path8054"
     d="m 46.000001,41 -3,0 0,-3 3,0 z"
     style="fill:#ffffff;fill-opacity:1;stroke:none" />
  <path
     sodipodi:nodetypes="ccccc"
     inkscape:connector-curvature="0"
     id="path8056"
     d="m 26,37 -3,0 0,-3 3,0 z"
     style="fill:#ffffff;fill-opacity:1;stroke:none" />
  <path
     style="fill:#ffffff;fill-opacity:1;stroke:none"
     d="m 30,37 -3,0 0,-3 3,0 z"
     id="path8058"
     inkscape:connector-curvature="0"
     sodipodi:nodetypes="ccccc" />
  <path
     style="fill:#ffffff;fill-opacity:1;stroke:none"
     d="m 34.000001,37 -3,0 0,-3 3,0 z"
     id="path8060"
     inkscape:connector-curvature="0"
     sodipodi:nodetypes="ccccc" />
  <path
     sodipodi:nodetypes="ccccc"
     inkscape:connector-curvature="0"
     id="path8062"
     d="m 38.000001,37 -3,0 0,-3 3,0 z"
     style="fill:#ffffff;fill-opacity:1;stroke:none" />
  <path
     style="fill:#ffffff;fill-opacity:1;stroke:none"
     d="m 42.000001,37 -3,0 0,-3 3,0 z"
     id="path8064"
     inkscape:connector-curvature="0"
     sodipodi:nodetypes="ccccc" />
  <path
     sodipodi:nodetypes="ccccc"
     inkscape:connector-curvature="0"
     id="path8066"
     d="m 46.000001,37 -3,0 0,-3 3,0 z"
     style="fill:#ffffff;fill-opacity:1;stroke:none" />
  <path
     style="fill:#ffffff;fill-opacity:1;stroke:none"
     d="m 26,33 -3,0 0,-3 3,0 z"
     id="path8068"
     inkscape:connector-curvature="0"
     sodipodi:nodetypes="ccccc" />
  <path
     sodipodi:nodetypes="ccccc"
     inkscape:connector-curvature="0"
     id="path8070"
     d="m 34.000001,33 -3,0 0,-3 3,0 z"
     style="fill:#ffffff;fill-opacity:1;stroke:none" />
  <path
     style="fill:#ffffff;fill-opacity:1;stroke:none"
     d="m 38.000001,33 -3,0 0,-3 3,0 z"
     id="path8072"
     inkscape:connector-curvature="0"
     sodipodi:nodetypes="ccccc" />
  <path
     sodipodi:nodetypes="ccccc"
     inkscape:connector-curvature="0"
     id="path8074"
     d="m 42.000001,33 -3,0 0,-3 3,0 z"
     style="fill:#ffffff;fill-opacity:1;stroke:none" />
  <path
     sodipodi:nodetypes="ccccc"
     inkscape:connector-curvature="0"
     id="path8076"
     d="m 38.000001,29 -3,0 0,-3 3,0 z"
     style="fill:#ffffff;fill-opacity:1;stroke:none" />
  <path
     style="fill:#ffffff;fill-opacity:1;stroke:none"
     d="m 22,41 -3,0 0,-3 3,0 z"
     id="path8078"
     inkscape:connector-curvature="0"
     sodipodi:nodetypes="ccccc" />
  <path
     style="fill:#ffffff;fill-opacity:1;stroke:none"
     d="m 22,37 -3,0 0,-3 3,0 z"
     id="path8080"
     inkscape:connector-curvature="0"
     sodipodi:nodetypes="ccccc" />
  <path
     sodipodi:nodetypes="ccccc"
     inkscape:connector-curvature="0"
     id="path8082"
     d="m 22,33 -3,0 0,-3 3,0 z"
     style="fill:#ffffff;fill-opacity:1;stroke:none" />
  <path
     style="fill:#ffffff;fill-opacity:1;stroke:none"
     d="m 22,29 -3,0 0,-3 3,0 z"
     id="path8084"
     inkscape:connector-curvature="0"
     sodipodi:nodetypes="ccccc" />
  <path
     style="fill:#ffffff;fill-opacity:1;stroke:none"
     d="m 34.000001,29 -3,0 0,-3 3,0 z"
     id="path8086"
     inkscape:connector-curvature="0"
     sodipodi:nodetypes="ccccc" />
  <path
     style="fill:#ffffff;fill-opacity:1;stroke:none"
     d="m 38.000001,25 -3,0 0,-3 3,0 z"
     id="path8088"
     inkscape:connector-curvature="0"
     sodipodi:nodetypes="ccccc" />
  <path
     style="fill:#ffffff;fill-opacity:1;stroke:none"
     d="m 42.000001,29 -3,0 0,-3 3,0 z"
     id="path8090"
     inkscape:connector-curvature="0"
     sodipodi:nodetypes="ccccc" />
  <path
     style="fill:#ffffff;fill-opacity:1;stroke:none"
     d="m 46.000001,33 -3,0 0,-3 3,0 z"
     id="path8092"
     inkscape:connector-curvature="0"
     sodipodi:nodetypes="ccccc" />
  <path
     sodipodi:nodetypes="ccccc"
     inkscape:connector-curvature="0"
     id="path8108"
     d="m 30,33 -3,0 0,-3 3,0 z"
     style="fill:#ffffff;fill-opacity:1;stroke:none" />
</svg>
