<?xml version="1.0" encoding="UTF-8" standalone="no"?>
<!-- Created with Inkscape (http://www.inkscape.org/) -->

<svg
   xmlns:dc="http://purl.org/dc/elements/1.1/"
   xmlns:cc="http://creativecommons.org/ns#"
   xmlns:rdf="http://www.w3.org/1999/02/22-rdf-syntax-ns#"
   xmlns:svg="http://www.w3.org/2000/svg"
   xmlns="http://www.w3.org/2000/svg"
   xmlns:xlink="http://www.w3.org/1999/xlink"
   xmlns:sodipodi="http://sodipodi.sourceforge.net/DTD/sodipodi-0.dtd"
   xmlns:inkscape="http://www.inkscape.org/namespaces/inkscape"
   width="48"
   height="48"
   id="svg2"
   version="1.1"
   inkscape:version="0.91 r13725"
   sodipodi:docname="folder-publicshare.svg">
  <defs
     id="defs4">
    <linearGradient
       id="linearGradient3959-5">
      <stop
         id="stop3961-8"
         offset="0"
         style="stop-color:#939393;stop-opacity:1" />
      <stop
         style="stop-color:#9d9d9d;stop-opacity:1;"
         offset="0.44988757"
         id="stop3963-9" />
      <stop
         id="stop3965-1"
         offset="1"
         style="stop-color:#a8a8a8;stop-opacity:1" />
    </linearGradient>
    <linearGradient
       id="linearGradient3959-47">
      <stop
         id="stop3961-3"
         offset="0"
         style="stop-color:#939393;stop-opacity:1" />
      <stop
         style="stop-color:#9d9d9d;stop-opacity:1;"
         offset="0.44988757"
         id="stop3963-0" />
      <stop
         id="stop3965-6"
         offset="1"
         style="stop-color:#a8a8a8;stop-opacity:1" />
    </linearGradient>
    <linearGradient
       id="linearGradient3959-2">
      <stop
         id="stop3961-33"
         offset="0"
         style="stop-color:#939393;stop-opacity:1" />
      <stop
         style="stop-color:#9d9d9d;stop-opacity:1;"
         offset="0.44988757"
         id="stop3963-44" />
      <stop
         id="stop3965-8"
         offset="1"
         style="stop-color:#a8a8a8;stop-opacity:1" />
    </linearGradient>
    <linearGradient
       id="linearGradient3959-29">
      <stop
         id="stop3961-0"
         offset="0"
         style="stop-color:#939393;stop-opacity:1" />
      <stop
         style="stop-color:#9d9d9d;stop-opacity:1;"
         offset="0.44988757"
         id="stop3963-8" />
      <stop
         id="stop3965-5"
         offset="1"
         style="stop-color:#a8a8a8;stop-opacity:1" />
    </linearGradient>
    <linearGradient
       id="linearGradient3959-8">
      <stop
         id="stop3961-6"
         offset="0"
         style="stop-color:#939393;stop-opacity:1" />
      <stop
         style="stop-color:#9d9d9d;stop-opacity:1;"
         offset="0.44988757"
         id="stop3963-3" />
      <stop
         id="stop3965-12"
         offset="1"
         style="stop-color:#a8a8a8;stop-opacity:1" />
    </linearGradient>
    <linearGradient
       id="linearGradient3959-86">
      <stop
         id="stop3961-82"
         offset="0"
         style="stop-color:#939393;stop-opacity:1" />
      <stop
         style="stop-color:#9d9d9d;stop-opacity:1;"
         offset="0.44988757"
         id="stop3963-5" />
      <stop
         id="stop3965-0"
         offset="1"
         style="stop-color:#a8a8a8;stop-opacity:1" />
    </linearGradient>
    <linearGradient
       id="linearGradient3959-3">
      <stop
         id="stop3961-9"
         offset="0"
         style="stop-color:#939393;stop-opacity:1" />
      <stop
         style="stop-color:#9d9d9d;stop-opacity:1;"
         offset="0.44988757"
         id="stop3963-6" />
      <stop
         id="stop3965-99"
         offset="1"
         style="stop-color:#a8a8a8;stop-opacity:1" />
    </linearGradient>
    <linearGradient
       gradientTransform="translate(-3.9999997,-9.0000004)"
       inkscape:collect="always"
       xlink:href="#linearGradient7881"
       id="linearGradient7768"
       x1="29.339367"
       y1="1044.2124"
       x2="29.339367"
       y2="1021.2756"
       gradientUnits="userSpaceOnUse" />
    <linearGradient
       id="linearGradient7881"
       inkscape:collect="always">
      <stop
         id="stop7883"
         offset="0"
         style="stop-color:#81cdf3;stop-opacity:1" />
      <stop
         id="stop7885"
         offset="1"
         style="stop-color:#a7daf7;stop-opacity:1" />
    </linearGradient>
  </defs>
  <sodipodi:namedview
     id="base"
     pagecolor="#ffffff"
     bordercolor="#27cc00"
     borderopacity="1"
     inkscape:pageopacity="0.0"
     inkscape:pageshadow="2"
     inkscape:zoom="2.6494503"
     inkscape:cx="81.78371"
     inkscape:cy="28.957694"
     inkscape:document-units="px"
     inkscape:current-layer="layer1"
     showgrid="false"
     borderlayer="false"
     inkscape:showpageshadow="false"
     showborder="true"
     inkscape:snap-from-guide="false"
     objecttolerance="1"
     gridtolerance="1"
     guidetolerance="5"
     inkscape:window-width="1440"
     inkscape:window-height="851"
     inkscape:window-x="0"
     inkscape:window-y="0"
     inkscape:window-maximized="1"
     inkscape:snap-object-midpoints="true"
     inkscape:snap-center="true"
     inkscape:object-nodes="true"
     inkscape:snap-smooth-nodes="true">
    <inkscape:grid
       type="xygrid"
       id="grid2985"
       empspacing="5"
       visible="true"
       enabled="true"
       snapvisiblegridlinesonly="true" />
  </sodipodi:namedview>
  <metadata
     id="metadata7">
    <rdf:RDF>
      <cc:Work
         rdf:about="">
        <dc:format>image/svg+xml</dc:format>
        <dc:type
           rdf:resource="http://purl.org/dc/dcmitype/StillImage" />
        <dc:title />
      </cc:Work>
    </rdf:RDF>
  </metadata>
  <g
     inkscape:label="Layer 1"
     inkscape:groupmode="layer"
     id="layer1"
     transform="translate(0,-1004.3622)">
    <path
       sodipodi:nodetypes="ccccc"
       inkscape:connector-curvature="0"
       id="path7252-38-6"
       d="m 44,1021.3622 0,23 -40,0 0,-23 z"
       style="fill:url(#linearGradient7768);fill-opacity:1;stroke:none" />
    <path
       sodipodi:nodetypes="ccccccc"
       inkscape:connector-curvature="0"
       id="path7254-8-1"
       d="m 44,1016.3622 -23,0 0,-3 -17,0 0,7 40,0 z"
       style="fill:#a3d9f7;fill-opacity:1;stroke:none" />
    <rect
       y="1016.3622"
       x="6.0000305"
       height="1"
       width="13"
       id="rect7256-8-3"
       style="opacity:1;fill:#ffffff;fill-opacity:1;fill-rule:evenodd;stroke:none;stroke-width:12;stroke-linecap:square;stroke-linejoin:miter;stroke-miterlimit:4;stroke-dasharray:none;stroke-opacity:1" />
    <rect
       style="opacity:1;fill:#ffffff;fill-opacity:1;fill-rule:evenodd;stroke:none;stroke-width:12;stroke-linecap:square;stroke-linejoin:miter;stroke-miterlimit:4;stroke-dasharray:none;stroke-opacity:1"
       id="rect7258-8-8"
       width="40"
       height="1"
       x="4.0000005"
       y="1020.3622" />
    <circle
       style="fill:#ffffff;fill-opacity:1;stroke:none"
       id="path5613-66"
       cx="32.5"
       cy="1032.8622"
       r="9.5" />
    <path
       inkscape:connector-curvature="0"
       style="fill:#81cdf3;fill-opacity:1;fill-rule:nonzero;stroke:none"
       id="path6534-4-9"
       d="m 33.730342,1025.7868 -0.930996,0 -1.043422,0.1601 c 0.08968,-0.021 0.180823,-0.043 0.273466,-0.061 l -0.09273,-0.2274 -0.401487,0.02 -0.218957,0.1634 -0.306487,0.01 -0.291336,0.1008 -0.139114,0.051 -0.0457,0.048 -0.201536,0.017 -0.148163,0.2394 -0.119417,-0.3389 -0.06831,0.1273 -0.01651,0.3633 -0.274601,0.1839 -0.190239,0.3697 0.301739,0.036 0.148163,-0.2395 0.05045,-0.089 c 0.143997,-0.08 0.282383,-0.171 0.428412,-0.2467 l 0.302186,0.144 c 0.18818,0.166 0.377535,0.3343 0.565911,0.5002 l 0.334992,-0.2444 -0.323671,-0.1873 -0.119418,-0.3388 -0.569315,-0.1352 -0.0052,-0.069 0.242925,0.083 0.16173,-0.1296 0.322772,-0.029 c 0.07888,-0.028 0.155335,-0.046 0.23411,-0.067 l -0.218954,0.1634 0.649828,0.5777 -0.03484,0.2935 -0.308759,0.2475 0.278642,0.7907 0.266682,-0.1172 0.373455,-0.4562 c 0.459185,-0.087 0.877366,-0.2012 1.31802,-0.3441 l -0.04841,0.1836 0.192479,0.1717 0.397423,-0.2098 -0.158325,-0.2353 -0.266683,0.1171 -0.07555,-0.036 c 0.01907,-0.01 0.03647,-0.014 0.05564,-0.021 l 0.48136,-0.917 -0.762247,-0.4151 z m -3.765642,1.014 0.276396,0.2492 0.249259,0.029 0.03009,-0.2534 -0.285896,-0.1692 -0.269849,0.1439 0,0 z m 6.986766,0.6536 -0.553717,0.07 -0.368014,0.1863 -0.02375,0.2001 -0.579059,0.283 0.04319,0.5327 0.341779,-0.1894 0.169862,0.2502 0.207187,0.1599 0.190236,-0.3699 -0.05178,-0.236 0.09772,-0.1508 0.349698,-0.256 0.14431,0.017 -0.182319,0.3031 -0.03484,0.2934 c 0.134037,-0.021 0.266688,-0.019 0.401488,-0.02 l -0.399006,0.2233 -0.04523,0.1569 -0.462568,0.3104 -0.420257,-0.1581 0.03009,-0.2535 -0.212623,0.11 0.06491,0.2377 -0.31487,-0.038 -0.205389,0.2733 -0.23841,0.2152 -0.389954,0.035 0.1961,0.2532 0.02555,0.233 -0.2755,-0.033 -0.391086,0.1565 -0.06968,0.587 0.303065,0.3605 c -0.30629,0.2787 -0.619405,0.56 -0.912702,0.8523 l -0.390426,0.7112 0.125305,0.1773 -0.308307,0.3557 0.207846,0.7147 c 0.207364,0.3047 0.416362,0.6078 0.623352,0.9127 l 0.390639,-0.2648 0.122136,0.2039 0.410543,-0.2083 0.113765,0.1623 0.38045,0.045 0.192935,0.2799 -0.185036,0.438 0.225952,0.338 -0.07647,0.5321 0.150858,0.4101 -0.183902,0.3165 c -0.04247,0.2375 -0.08178,0.4646 -0.110182,0.704 0.07727,0.3377 0.154934,0.6748 0.22548,1.0143 l 0.01694,0.5297 -0.03167,0.2667 0.209902,0.025 0.325491,-0.1644 0.367333,0.044 0.625432,-0.5616 -0.04026,-0.2212 0.406927,-0.29 -0.239075,-0.3395 0.359648,-0.2279 0.338613,-0.1627 0.163314,-0.143 -0.04907,-0.3711 0.107695,-0.9071 0.315776,-0.5307 0.356034,-0.3094 0.44245,-0.8134 0.02693,-0.2267 c 0,0 -0.08782,-0.2247 -0.122584,-0.3136 l 0.510293,-0.2641 0.126269,-0.2902 -0.294149,-0.3865 -0.189415,0.273 -0.505836,0.041 -0.780394,-0.6539 0.865114,-1.3928 0.60807,0.6615 0.365368,0.5548 c 0.131742,0.1543 0.259397,0.2926 0.37071,0.4635 l 0.238414,-0.2152 c 0.03069,-0.2585 -0.104132,-1.5687 -0.594797,-2.7223 -0.490709,-1.1531 -1.459989,-2.2702 -1.459987,-2.2702 l -0.09613,0.1374 -0.326629,0.2859 -0.321404,-0.4306 0.367332,0.043 0.192714,-0.1665 -0.666347,-0.2144 -0.338377,-0.1754 z m -7.905095,-0.7626 -0.172373,0.3312 c 0,0 -0.234258,0.011 -0.294953,0.019 -0.836403,0.6159 -2.535823,1.9656 -3.230365,4.798 0.0061,0.068 0.195412,0.4831 0.195412,0.4831 l 0.536059,0.4154 0.558229,0.2287 0.212835,0.3365 0.345609,0.3386 0.227772,-0.014 0.147928,0.099 -0.0063,0.054 -0.281172,0.5755 -0.200639,0.2332 0.03824,0.1263 -0.188209,0.4647 0.377707,0.9648 0.446259,0.4993 0.185012,0.3467 -0.105433,0.6639 0.113083,0.3923 -0.24295,0.7017 c 0,0 -0.02031,-0.01 -0.0079,0.067 0.01258,0.075 0.810306,0.6655 0.869682,0.6308 0.05927,-0.036 0.114453,-0.068 0.114453,-0.068 l -0.03349,-0.1663 0.248363,-0.1869 0.105615,-0.2175 0.368465,-0.078 0.357852,-0.6609 -0.05652,-0.1961 0.21851,-0.2717 0.430892,-0.043 0.270086,-0.482 0.02195,-0.6332 0.38341,-0.428 0.109491,-0.474 c -0.423056,-0.2804 -0.836874,-0.566 -1.255782,-0.8526 l -0.170758,-0.4668 -0.395603,-0.1416 -0.151753,-0.6268 -0.5458,0 -0.431106,-0.4029 -0.550785,0.381 -0.0079,0.067 c -0.144113,-0.061 -0.320233,-0.089 -0.443321,-0.188 l -0.06694,-0.3326 0.04118,-0.3468 -0.345846,-5e-4 c 0.05367,-0.2178 0.117153,-0.4386 0.171017,-0.6562 l -0.196785,-0.024 -0.226876,0.2301 -0.194751,0.072 -0.256493,-0.1928 0.01494,-0.35 0.09682,-0.3673 0.444696,-0.2719 0.327975,0.039 0.08777,-0.179 0.395601,0.1416 0.255808,0.4227 0.128495,-0.6341 0.577023,-0.3779 0.239095,-0.4452 0.412575,-0.1133 0.247912,-0.2952 0.509608,-0.034 0.293606,-0.344 c -0.246717,-0.029 -0.501063,-0.059 -0.747781,-0.089 l 0.499207,-0.1707 0.327972,0.039 0.43723,-0.097 0.02961,0.4229 0.218507,-0.2717 -0.192482,-0.1717 0.07306,-0.1672 -0.151544,-0.1803 -0.177331,-0.075 0.07625,-0.1939 -0.111051,-0.2972 -0.343814,0.095 0.08257,-0.2473 -0.353526,-0.272 -0.365085,0.4979 0.0041,0.1898 -0.317573,0.098 -0.232762,0.3918 -0.04589,-0.3978 -0.4863,-0.2741 -0.05698,-0.3045 0.742817,-0.3177 0.33658,-0.2577 0.06742,-0.3437 -0.15946,-0.1137 -0.219855,-0.053 -5e-6,0 z m 5.552023,1.3085 -0.02534,0.2134 0.102233,0.1475 -0.03801,0.3201 -0.116277,0.4191 0.349015,-0.026 0.27935,-0.2238 -0.197682,-0.2399 c -0.04907,-0.2045 -0.101405,-0.3899 -0.169626,-0.5883 l -0.183665,-0.022 z m -0.339298,0.3926 -0.217824,0.042 0.0066,0.3931 0.29292,-0.1141 -0.08165,-0.3208 0,0 z"
       sodipodi:nodetypes="ccccccccccccccccccccccccccccccccccccccccccccccccccccccccccccccccccccccccccccccccccccccccccccccccccccccccccccccccccccccccccccccccccccccccccccccccccccccccccccccccccccccccccccccccccccccccccccccccccccccccccccccccccccccccccccccccccccccccccccccccccccccccccccccccccccccccccc" />
  </g>
</svg>
