<?xml version="1.0" encoding="UTF-8" standalone="no"?>
<!-- Created with Inkscape (http://www.inkscape.org/) -->

<svg
   xmlns:dc="http://purl.org/dc/elements/1.1/"
   xmlns:cc="http://creativecommons.org/ns#"
   xmlns:rdf="http://www.w3.org/1999/02/22-rdf-syntax-ns#"
   xmlns:svg="http://www.w3.org/2000/svg"
   xmlns="http://www.w3.org/2000/svg"
   xmlns:sodipodi="http://sodipodi.sourceforge.net/DTD/sodipodi-0.dtd"
   xmlns:inkscape="http://www.inkscape.org/namespaces/inkscape"
   width="32"
   height="32"
   id="svg2"
   sodipodi:version="0.32"
   inkscape:version="0.91 r13725"
   version="1.0"
   sodipodi:docname="drive-removable-media-usb.svg"
   inkscape:output_extension="org.inkscape.output.svg.inkscape">
  <defs
     id="defs4" />
  <sodipodi:namedview
     id="base"
     pagecolor="#ffffff"
     bordercolor="#666666"
     borderopacity="1.0"
     gridtolerance="10000"
     guidetolerance="10"
     objecttolerance="10"
     inkscape:pageopacity="0.0"
     inkscape:pageshadow="2"
     inkscape:zoom="12.042913"
     inkscape:cx="-19.913841"
     inkscape:cy="15.805995"
     inkscape:document-units="px"
     inkscape:current-layer="layer1"
     showgrid="false"
     inkscape:window-width="1920"
     inkscape:window-height="1013"
     inkscape:window-x="0"
     inkscape:window-y="0"
     inkscape:window-maximized="1"
     showguides="true"
     inkscape:guide-bbox="true" />
  <metadata
     id="metadata7">
    <rdf:RDF>
      <cc:Work
         rdf:about="">
        <dc:format>image/svg+xml</dc:format>
        <dc:type
           rdf:resource="http://purl.org/dc/dcmitype/StillImage" />
        <dc:title />
      </cc:Work>
    </rdf:RDF>
  </metadata>
  <g
     inkscape:label="Layer 1"
     inkscape:groupmode="layer"
     id="layer1"
     transform="translate(0,8)">
    <path
       style="opacity:1;fill:#8c8c8c;fill-opacity:1;fill-rule:evenodd;stroke:none;stroke-width:1;stroke-linecap:square;stroke-linejoin:miter;stroke-miterlimit:4;stroke-dasharray:none;stroke-opacity:1"
       d="M 7.5,-3 5,19 27,19 24.5,-3 Z"
       id="rect4243"
       inkscape:connector-curvature="0"
       sodipodi:nodetypes="ccccc" />
    <path
       sodipodi:nodetypes="ccccc"
       inkscape:connector-curvature="0"
       id="path4741"
       d="M 8.5,-2 6.25,18 25.75,18 23.5,-2 Z"
       style="opacity:1;fill:#ffffff;fill-opacity:1;fill-rule:evenodd;stroke:none;stroke-width:1;stroke-linecap:square;stroke-linejoin:miter;stroke-miterlimit:4;stroke-dasharray:none;stroke-opacity:1" />
    <rect
       style="fill:#8c8c8c;fill-opacity:1;stroke:none;stroke-width:2;stroke-miterlimit:4;stroke-dasharray:none;stroke-opacity:1"
       id="rect4743"
       width="16"
       height="1"
       x="8.0000019"
       y="15" />
    <path
       style="display:inline;fill:#8c8c8c;fill-opacity:1;stroke:none"
       d="m 15.944735,-0.130437 -2.210526,2.6508885 1.326317,0 0,5.3570025 C 14.971496,7.866424 14.954108,7.862234 14.811841,7.822214 14.604683,7.763954 14.379908,7.690649 14.203947,7.601319 13.568795,7.278851 13.163948,6.725628 13.043421,6.054975 l -0.02763,-0.11046 c 0.383854,-0.1729876 0.635526,-0.4712365 0.635526,-0.8007877 0,-0.5304161 -0.631851,-0.9664688 -1.436842,-0.9664688 -0.804991,0 -1.464473,0.4360527 -1.464473,0.9664688 0,0.3978152 0.361066,0.7378331 0.88421,0.8836307 0.546445,1.86551 1.96315,2.802728 3.426316,3.065088 l 0,1.076923 0,1.242603 c -0.526752,0.229525 -0.884212,0.642578 -0.884212,1.132149 0,0.732026 0.791749,1.325446 1.76842,1.325446 0.976673,0 1.768421,-0.59342 1.768421,-1.325446 0,-0.489571 -0.35746,-0.902624 -0.88421,-1.132149 l 0,-2.071005 0,-1.942416 c 0,0 1.05902,-0.0015 1.521939,-0.221719 0.865887,-0.411838 1.586712,-1.148096 2.117335,-1.9463362 0.184941,-0.2782184 0.339673,-0.9427826 0.339673,-0.9427826 l 0.442104,0 0,-1.7672582 -2.652629,0 0,1.7672582 0.580262,0 0,0.082863 c -0.05615,0.2159761 -0.135502,0.4653144 -0.193422,0.5798798 -0.725259,0.7691704 -1.245823,1.238029 -2.155262,1.27022 l 0,-3.7001995 1.326316,0 z"
       id="path3218"
       inkscape:connector-curvature="0"
       sodipodi:nodetypes="ccccscccsssccccssscccaacccccccccccc" />
  </g>
</svg>
