<?xml version="1.0" encoding="UTF-8" standalone="no"?>
<!-- Created with Inkscape (http://www.inkscape.org/) -->

<svg
   xmlns:dc="http://purl.org/dc/elements/1.1/"
   xmlns:cc="http://creativecommons.org/ns#"
   xmlns:rdf="http://www.w3.org/1999/02/22-rdf-syntax-ns#"
   xmlns:svg="http://www.w3.org/2000/svg"
   xmlns="http://www.w3.org/2000/svg"
   xmlns:sodipodi="http://sodipodi.sourceforge.net/DTD/sodipodi-0.dtd"
   xmlns:inkscape="http://www.inkscape.org/namespaces/inkscape"
   id="svg7384"
   height="32"
   width="32"
   version="1.1"
   inkscape:version="0.91 r13725"
   sodipodi:docname="folder-music.svg">
  <defs
     id="defs10" />
  <sodipodi:namedview
     pagecolor="#ffffff"
     bordercolor="#666666"
     borderopacity="1"
     objecttolerance="10"
     gridtolerance="10"
     guidetolerance="10"
     inkscape:pageopacity="0"
     inkscape:pageshadow="2"
     inkscape:window-width="1920"
     inkscape:window-height="1013"
     id="namedview8"
     showgrid="false"
     inkscape:zoom="20.025879"
     inkscape:cx="4.2769893"
     inkscape:cy="8.9092412"
     inkscape:window-x="0"
     inkscape:window-y="0"
     inkscape:window-maximized="1"
     inkscape:current-layer="svg7384"
     inkscape:snap-bbox="true"
     inkscape:bbox-nodes="true"
     inkscape:bbox-paths="true"
     inkscape:snap-bbox-edge-midpoints="false" />
  <metadata
     id="metadata90">
    <rdf:RDF>
      <cc:Work
         rdf:about="">
        <dc:format>image/svg+xml</dc:format>
        <dc:type
           rdf:resource="http://purl.org/dc/dcmitype/StillImage" />
        <dc:title>Gnome Symbolic Icon Theme</dc:title>
      </cc:Work>
    </rdf:RDF>
  </metadata>
  <title
     id="title9167">Gnome Symbolic Icon Theme</title>
  <path
     sodipodi:nodetypes="ccccc"
     inkscape:connector-curvature="0"
     id="path4741-3-3"
     d="m 7,22 0,3 3,0 0,-3 z"
     style="fill:#8c8c8c;fill-opacity:1;stroke:none" />
  <path
     style="fill:#8c8c8c;fill-opacity:1;stroke:none"
     d="m 11,22 0,3 3,0 0,-3 z"
     id="path4826-2-6"
     inkscape:connector-curvature="0"
     sodipodi:nodetypes="ccccc" />
  <path
     style="fill:#8c8c8c;fill-opacity:1;stroke:none"
     d="m 15,22 0,3 3,0 0,-3 z"
     id="path4828-5-7"
     inkscape:connector-curvature="0"
     sodipodi:nodetypes="ccccc" />
  <path
     sodipodi:nodetypes="ccccc"
     inkscape:connector-curvature="0"
     id="path4830-6-5"
     d="m 19,22 0,3 3,0 0,-3 z"
     style="fill:#8c8c8c;fill-opacity:1;stroke:none" />
  <path
     style="fill:#8c8c8c;fill-opacity:1;stroke:none"
     d="m 23,22 0,3 3,0 0,-3 z"
     id="path4832-3-3"
     inkscape:connector-curvature="0"
     sodipodi:nodetypes="ccccc" />
  <path
     style="fill:#8c8c8c;fill-opacity:1;stroke:none"
     d="m 7,18 0,3 3,0 0,-3 z"
     id="path4834-9-5"
     inkscape:connector-curvature="0"
     sodipodi:nodetypes="ccccc" />
  <path
     sodipodi:nodetypes="ccccc"
     inkscape:connector-curvature="0"
     id="path4836-4-6"
     d="m 11,18 0,3 3,0 0,-3 z"
     style="fill:#8c8c8c;fill-opacity:1;stroke:none" />
  <path
     sodipodi:nodetypes="ccccc"
     inkscape:connector-curvature="0"
     id="path4838-1-2"
     d="m 15,18 0,3 3,0 0,-3 z"
     style="fill:#8c8c8c;fill-opacity:1;stroke:none" />
  <path
     style="fill:#8c8c8c;fill-opacity:1;stroke:none"
     d="m 19,18 0,3 3,0 0,-3 z"
     id="path4840-8-9"
     inkscape:connector-curvature="0"
     sodipodi:nodetypes="ccccc" />
  <path
     sodipodi:nodetypes="ccccc"
     inkscape:connector-curvature="0"
     id="path4842-0-1"
     d="m 23,18 0,3 3,0 0,-3 z"
     style="fill:#8c8c8c;fill-opacity:1;stroke:none" />
  <path
     style="fill:#8c8c8c;fill-opacity:1;stroke:none"
     d="m 11,14 0,3 3,0 0,-3 z"
     id="path4844-4-2"
     inkscape:connector-curvature="0"
     sodipodi:nodetypes="ccccc" />
  <path
     style="fill:#8c8c8c;fill-opacity:1;stroke:none"
     d="m 15,14 0,3 3,0 0,-3 z"
     id="path4846-4-7"
     inkscape:connector-curvature="0"
     sodipodi:nodetypes="ccccc" />
  <path
     sodipodi:nodetypes="ccccc"
     inkscape:connector-curvature="0"
     id="path4848-7-0"
     d="m 19,14 0,3 3,0 0,-3 z"
     style="fill:#8c8c8c;fill-opacity:1;stroke:none" />
  <path
     style="fill:#8c8c8c;fill-opacity:1;stroke:none"
     d="m 19,10 0,3 3,0 0,-3 z"
     id="path4850-4-9"
     inkscape:connector-curvature="0"
     sodipodi:nodetypes="ccccc" />
  <path
     sodipodi:nodetypes="ccccc"
     inkscape:connector-curvature="0"
     id="path4852-5-3"
     d="m 15,10 0,3 3,0 0,-3 z"
     style="fill:#8c8c8c;fill-opacity:1;stroke:none" />
  <path
     sodipodi:nodetypes="ccccc"
     inkscape:connector-curvature="0"
     id="path4854-0-6"
     d="m 19,6 0,3 3,0 0,-3 z"
     style="fill:#8c8c8c;fill-opacity:1;stroke:none" />
  <path
     sodipodi:nodetypes="ccccc"
     inkscape:connector-curvature="0"
     id="path4856-6-0"
     d="m 23,14 0,3 3,0 0,-3 z"
     style="fill:#8c8c8c;fill-opacity:1;stroke:none" />
  <path
     style="fill:#f7f7f7;fill-opacity:1;stroke:none"
     d="m 10,13 0,12 1,0 0,-12 z"
     id="path14115-6"
     inkscape:connector-curvature="0"
     sodipodi:nodetypes="ccccc" />
  <path
     sodipodi:nodetypes="ccccc"
     inkscape:connector-curvature="0"
     id="path14117-2"
     d="m 14,9 0,16 1,0 0,-16 z"
     style="fill:#f7f7f7;fill-opacity:1;stroke:none" />
  <path
     style="fill:#f7f7f7;fill-opacity:1;stroke:none"
     d="m 18,5 0,20 1,0 0,-20 z"
     id="path14119-6"
     inkscape:connector-curvature="0"
     sodipodi:nodetypes="ccccc" />
  <path
     style="fill:#f7f7f7;fill-opacity:1;stroke:none"
     d="m 22,5 0,20 1,0 0,-20 z"
     id="path14123-1"
     inkscape:connector-curvature="0"
     sodipodi:nodetypes="ccccc" />
  <path
     style="fill:#f7f7f7;fill-opacity:1;stroke:none"
     d="m 27,21 -20,0 0,1 20,0 z"
     id="path14127-7"
     inkscape:connector-curvature="0"
     sodipodi:nodetypes="ccccc" />
  <path
     sodipodi:nodetypes="ccccc"
     inkscape:connector-curvature="0"
     id="path4262"
     d="m 27,25 -20,0 0,1 20,0 z"
     style="fill:#f7f7f7;fill-opacity:1;stroke:none" />
  <path
     sodipodi:nodetypes="ccccc"
     inkscape:connector-curvature="0"
     id="path4264"
     d="m 7,17 0,9 -1,0 0,-9 z"
     style="fill:#f7f7f7;fill-opacity:1;stroke:none" />
  <path
     style="fill:#f7f7f7;fill-opacity:1;stroke:none"
     d="m 27,13 0,13 -1,0 0,-13 z"
     id="path4266"
     inkscape:connector-curvature="0"
     sodipodi:nodetypes="ccccc" />
  <path
     sodipodi:nodetypes="ccccc"
     inkscape:connector-curvature="0"
     id="path4268"
     d="m 27,17 -20.9999998,0 0,1 L 27,18 Z"
     style="fill:#f7f7f7;fill-opacity:1;stroke:none" />
  <path
     sodipodi:nodetypes="ccccc"
     inkscape:connector-curvature="0"
     id="path4272"
     d="m 27,13 -17,0 0,1 17,0 z"
     style="fill:#f7f7f7;fill-opacity:1;stroke:none" />
  <path
     style="fill:#f7f7f7;fill-opacity:1;stroke:none"
     d="m 23,9 -9,0 0,1 9,0 z"
     id="path4274"
     inkscape:connector-curvature="0"
     sodipodi:nodetypes="ccccc" />
  <path
     sodipodi:nodetypes="ccccc"
     inkscape:connector-curvature="0"
     id="path4276"
     d="m 23,5 -5,0 0,1 5,0 z"
     style="fill:#f7f7f7;fill-opacity:1;stroke:none" />
</svg>
