<?xml version="1.0" encoding="UTF-8" standalone="no"?>
<!-- Created with Inkscape (http://www.inkscape.org/) -->

<svg
   xmlns:dc="http://purl.org/dc/elements/1.1/"
   xmlns:cc="http://creativecommons.org/ns#"
   xmlns:rdf="http://www.w3.org/1999/02/22-rdf-syntax-ns#"
   xmlns:svg="http://www.w3.org/2000/svg"
   xmlns="http://www.w3.org/2000/svg"
   xmlns:xlink="http://www.w3.org/1999/xlink"
   xmlns:sodipodi="http://sodipodi.sourceforge.net/DTD/sodipodi-0.dtd"
   xmlns:inkscape="http://www.inkscape.org/namespaces/inkscape"
   version="1.0"
   width="32"
   height="32"
   id="svg4569"
   sodipodi:version="0.32"
   inkscape:version="0.91 r13725"
   sodipodi:docname="network.svg"
   inkscape:output_extension="org.inkscape.output.svg.inkscape">
  <metadata
     id="metadata46">
    <rdf:RDF>
      <cc:Work
         rdf:about="">
        <dc:format>image/svg+xml</dc:format>
        <dc:type
           rdf:resource="http://purl.org/dc/dcmitype/StillImage" />
        <dc:title />
      </cc:Work>
    </rdf:RDF>
  </metadata>
  <sodipodi:namedview
     inkscape:window-height="789"
     inkscape:window-width="1438"
     inkscape:pageshadow="2"
     inkscape:pageopacity="0.0"
     guidetolerance="10.0"
     gridtolerance="10.0"
     objecttolerance="10.0"
     borderopacity="1.0"
     bordercolor="#666666"
     pagecolor="#ffffff"
     id="base"
     showgrid="false"
     showguides="true"
     inkscape:guide-bbox="true"
     inkscape:zoom="9.076178"
     inkscape:cx="-3.7083113"
     inkscape:cy="7.9058016"
     inkscape:window-x="0"
     inkscape:window-y="61"
     inkscape:current-layer="svg4569"
     inkscape:window-maximized="0"
     inkscape:snap-object-midpoints="true"
     inkscape:snap-center="true">
    <inkscape:grid
       type="xygrid"
       id="grid2421"
       empspacing="5"
       visible="true"
       enabled="true"
       snapvisiblegridlinesonly="true" />
  </sodipodi:namedview>
  <defs
     id="defs4571">
    <linearGradient
       id="linearGradient3342-5">
      <stop
         id="stop3344-6"
         style="stop-color:#ffffff;stop-opacity:0"
         offset="0" />
      <stop
         id="stop3346-1"
         style="stop-color:#ffffff;stop-opacity:1"
         offset="1" />
    </linearGradient>
    <linearGradient
       inkscape:collect="always"
       xlink:href="#linearGradient3342-5"
       id="linearGradient3778-3-5-9"
       gradientUnits="userSpaceOnUse"
       gradientTransform="matrix(0.46886919,0.05565655,-0.0556618,0.46880364,5.6087869,3.831826)"
       x1="20"
       y1="43"
       x2="20"
       y2="2.6887112" />
  </defs>
  <circle
     style="fill:#8c8c8c;fill-opacity:1;stroke:none;stroke-width:2;stroke-miterlimit:4;stroke-dasharray:none;stroke-opacity:1"
     id="path12632-5"
     cx="16"
     cy="16"
     r="11.5" />
  <circle
     r="10.5"
     cy="16"
     cx="16"
     id="circle12630-6"
     style="fill:#ffffff;fill-opacity:1;stroke:none;stroke-width:2;stroke-miterlimit:4;stroke-dasharray:none;stroke-opacity:1" />
  <path
     style="fill:#8c8c8c;fill-opacity:1;fill-rule:nonzero;stroke:url(#linearGradient3778-3-5-9);stroke-width:0;stroke-miterlimit:4;stroke-dasharray:none"
     d="m 14.808459,7.377701 -0.474267,0.02823 -0.259716,0.19479 -0.366993,0.0056 -0.341583,0.118571 -0.163735,0.0621 -0.05645,0.05929 -0.237133,0.01977 -0.17785,0.287951 -0.141152,-0.409338 -0.07904,0.155274 -0.01977,0.434746 -0.327469,0.220194 -0.225843,0.440391 0.358524,0.04235 0.175027,-0.285124 0.05928,-0.107279 c 0.170731,-0.09544 0.337827,-0.205615 0.510965,-0.29642 l 0.355702,0.175027 c 0.223116,0.198831 0.448523,0.39706 0.671877,0.595657 l 0.398044,-0.287948 -0.386753,-0.228665 -0.141154,-0.40369 -0.6747,-0.160904 -0.0057,-0.08187 0.287948,0.0988 0.191965,-0.155258 0.381107,-0.03387 c 0.09352,-0.03355 0.186074,-0.05663 0.279477,-0.08187 l -0.259716,0.19761 0.770682,0.69164 -0.04235,0.352877 -0.364169,0.296415 0.327469,0.942887 0.316177,-0.138322 0.446037,-0.544843 C 16.137633,9.478692 16.63186,9.338677 17.154323,9.167489 l -0.05645,0.220194 0.228665,0.20608 0.46862,-0.251247 -0.18632,-0.282302 -0.316176,0.138321 -0.09033,-0.04235 c 0.02261,-0.0074 0.04501,-0.01489 0.06775,-0.02258 L 17.840401,8.035453 16.937038,7.53578 15.833239,7.53298 14.593936,7.727768 c 0.10633,-0.02446 0.217626,-0.05377 0.32747,-0.07622 z m -2.337455,1.374809 0.327469,0.299239 0.296417,0.0367 0.03387,-0.30771 -0.338761,-0.200433 z m -1.08686,-0.129861 -0.20608,0.39522 c 0,0 -0.275269,0.01326 -0.347231,0.02258 -0.9916883,0.737944 -3.0073249,2.354303 -3.830829,5.747654 0.0072,0.08183 0.2286637,0.581543 0.2286637,0.581543 l 0.6380012,0.496849 0.6605846,0.273832 0.2540714,0.403692 0.4093377,0.406514 0.2681867,-0.01694 0.1750252,0.118572 -0.00573,0.06209 -0.3331143,0.691638 -0.2399561,0.279478 0.045164,0.149611 -0.2201955,0.556134 0.4432138,1.154619 0.5307262,0.601298 0.2201954,0.414983 -0.1242162,0.796092 0.1326762,0.468618 -0.2879474,0.841258 c 0,0 -0.023138,-0.01096 -0.00851,0.07906 0.014891,0.09008 1.3567884,1.103941 1.4271864,1.062357 0.07028,-0.04252 0.135507,-0.07906 0.135507,-0.07906 l -0.03952,-0.200436 0.296415,-0.223016 0.124217,-0.259718 0.434745,-0.09315 0.426274,-0.793266 -0.06774,-0.234311 0.262541,-0.324645 0.508141,-0.05364 0.321823,-0.575894 0.02541,-0.75939 0.586768,-1.263275 0.127031,-0.564604 c -0.501601,-0.335862 -0.991057,-0.681315 -1.487733,-1.024744 l -0.200433,-0.556135 -0.471443,-0.172204 -0.177851,-0.750921 -0.649292,0.0027 -1.040015,-0.03904 -0.6521163,0.454506 -0.00851,0.07904 C 9.496879,16.704588 9.2857867,16.673805 9.1398477,16.555299 l -0.079036,-0.400868 0.050809,-0.414983 -0.4093376,0 C 8.7659211,15.478654 8.838854,15.21537 8.9027163,14.95465 l -0.2343101,-0.02821 -0.2653623,0.273834 -0.231488,0.08468 -0.3048854,-0.228664 0.019767,-0.417805 0.1100945,-0.443214 0.5279034,-0.324649 0.3923997,0.04516 0.1016344,-0.214537 0.4714426,0.172204 0.3020625,0.508142 0.1524436,-0.762213 0.6859928,-0.451682 0.2823,-0.53355 0.488382,-0.138322 0.29077,-0.352878 0.606948,-0.03952 0.350054,-0.414983 -0.88925,-0.104449 0.592833,-0.203258 0.386754,0.04516 0.522257,-0.11574 0.03106,0.508143 0.262541,-0.327469 -0.228665,-0.20608 0.0847,-0.19761 -0.180678,-0.21737 -0.208901,-0.09034 0.09034,-0.231486 -0.129861,-0.355699 -0.409338,0.110094 0.0988,-0.296415 -0.417805,-0.321824 -0.434744,0.595656 0.0057,0.228663 -0.378283,0.112925 -0.273832,0.471445 -0.05645,-0.47709 -0.575895,-0.330293 -0.06775,-0.361345 0.88078,-0.381107 0.398045,-0.310531 0.07905,-0.41216 -0.18632,-0.135507 z m 9.369583,0.911833 -0.654941,0.0847 -0.434741,0.223018 -0.03106,0.239956 -0.683171,0.338762 0.04799,0.640823 0.406515,-0.228665 0.200435,0.29924 0.245602,0.191965 0.225841,-0.446036 -0.05927,-0.2823 0.11574,-0.177852 0.414981,-0.310531 0.169381,0.02541 -0.217372,0.361347 -0.04235,0.352876 c 0.158924,-0.02458 0.317263,-0.027 0.47709,-0.02823 l -0.474256,0.271008 -0.05083,0.189142 -0.547665,0.369815 -0.499672,-0.189141 0.0339,-0.304885 -0.248428,0.132676 0.07622,0.282301 -0.372648,-0.04235 0.151183,0.01885 -0.2823,0.256894 -0.460152,0.04235 0.228665,0.302062 0.03106,0.279479 -0.327469,-0.03952 -0.462974,0.189142 -0.08186,0.705753 0.203257,0.02258 0.160904,0.228663 0.446036,-0.158088 0.203256,-0.409338 0.33594,-0.155258 0.07904,-0.155258 0.51379,-0.06493 0.242781,0.350054 0.276652,0.194787 -0.211723,0.333116 0.271007,-0.04799 0.183498,-0.333116 -0.293596,-0.443212 0.138323,0.01694 0.307707,0.330292 0.01694,0.389577 0.254071,0.386751 0.138322,-0.499672 0.163735,-0.0621 c 0.144804,0.196476 0.250897,0.425331 0.366992,0.640824 l 0.510968,0.09599 0.273833,0.228664 -0.166553,0.18914 -0.324638,0.234312 -1.142963,0.657406 -0.553311,-0.265363 -0.296417,-0.0027 -0.251249,0.231487 -0.547665,-0.714224 -0.417808,-0.17785 -0.649292,0.0027 -0.578717,0.09034 c -0.363153,0.333796 -0.733459,0.671744 -1.081208,1.021932 l -0.462975,0.849728 0.146798,0.214549 -0.364167,0.423451 0.245602,0.858195 c 0.24586,0.365137 0.497031,0.727187 0.742451,1.092506 l 0.460152,-0.316175 0.143966,0.242779 0.488383,-0.248426 0.135507,0.194788 0.451682,0.05364 0.225841,0.335936 -0.217373,0.525084 0.268186,0.403691 -0.09034,0.640823 0.17785,0.491206 -0.217371,0.378282 c -0.05036,0.284577 -0.09618,0.554641 -0.129862,0.841258 0.0916,0.404767 0.181719,0.810077 0.265364,1.21672 l 0.01977,0.635178 -0.0367,0.319001 0.248424,0.03106 0.386754,-0.197611 0.434745,0.05083 0.742453,-0.671878 -0.05083,-0.265361 0.485557,-0.347231 -0.282299,-0.406514 0.423452,-0.273832 0.403689,-0.194788 0.191965,-0.172204 -0.05928,-0.443214 0.12986,-1.086857 0.375464,-0.635181 0.420628,-0.37264 0.525082,-0.971117 0.03106,-0.273832 c -0.204311,0.0019 -0.399868,0.0034 -0.598477,-0.0058 l 1.159902,-1.075215 0.604124,-0.316177 0.338761,-0.316177 0.04235,-0.381106 c -0.05176,-0.137962 -0.103036,-0.28831 -0.155274,-0.426294 l -0.29924,0.29077 -0.175028,-0.265363 -0.265359,-0.276655 0.05364,-0.494028 0.296414,0.44039 0.395225,0 c 0.156207,0.184689 0.308411,0.348534 0.440388,0.553313 l 0.282308,-0.256896 c 0.0364,-0.3097 -0.520776,-1.570022 -1.102538,-2.951942 -0.581801,-1.381468 -1.730505,-2.721358 -1.730505,-2.721358 l -0.112963,0.163753 -0.389576,0.344407 -0.381106,-0.519433 0.437567,0.05364 0.228663,-0.197611 -0.790443,-0.256894 z m -2.78914,0.652115 -0.03106,0.256894 0.124217,0.177849 -0.04799,0.38393 -0.138328,0.502498 0.414983,-0.03106 0.333121,-0.268187 -0.237134,-0.29077 c -0.05819,-0.244924 -0.119554,-0.465008 -0.200434,-0.702931 z m -0.400867,0.471444 -0.256894,0.05364 0.0058,0.471442 0.350054,-0.138321 z m 4.459106,4.445342 0.321822,0.491204 0.335941,1.041691 0.239956,0.355701 -0.883251,1.027221 0.214549,0.330294 c -0.115118,-0.0059 -0.22985,-0.01129 -0.34723,-0.02541 -0.159152,-0.486024 -0.27248,-0.969613 -0.378285,-1.47079 l -0.239953,-0.352877 -0.09034,-0.592833 z"
     id="path4140-2"
     inkscape:connector-curvature="0"
     sodipodi:nodetypes="cccccccccccccccccccccccccccccccccccccccccccccccccccccccccccccccccccccccccccccccccccccccccccccccccccccccccccccccccccccccccccccccccccccccccccccccccccccccccccccccccccccccccccccccccccccccccccccccccccccccccccccccccccccccccccccccccccccccccccccccccccccccccccccccccccccccccccccccccccccccccccccccccccccccccccccc" />
</svg>
