<?xml version="1.0" encoding="UTF-8" standalone="no"?>
<!-- Created with Inkscape (http://www.inkscape.org/) -->

<svg
   xmlns:dc="http://purl.org/dc/elements/1.1/"
   xmlns:cc="http://creativecommons.org/ns#"
   xmlns:rdf="http://www.w3.org/1999/02/22-rdf-syntax-ns#"
   xmlns:svg="http://www.w3.org/2000/svg"
   xmlns="http://www.w3.org/2000/svg"
   xmlns:sodipodi="http://sodipodi.sourceforge.net/DTD/sodipodi-0.dtd"
   xmlns:inkscape="http://www.inkscape.org/namespaces/inkscape"
   id="svg7384"
   height="24"
   width="24"
   version="1.1"
   inkscape:version="0.91 r13725"
   sodipodi:docname="align-vertical-bottom.svg">
  <defs
     id="defs10" />
  <sodipodi:namedview
     pagecolor="#ffffff"
     bordercolor="#666666"
     borderopacity="1"
     objecttolerance="10"
     gridtolerance="10"
     guidetolerance="10"
     inkscape:pageopacity="0"
     inkscape:pageshadow="2"
     inkscape:window-width="1440"
     inkscape:window-height="855"
     id="namedview8"
     showgrid="false"
     inkscape:zoom="15.633668"
     inkscape:cx="1.9791358"
     inkscape:cy="9.8178589"
     inkscape:window-x="0"
     inkscape:window-y="0"
     inkscape:window-maximized="1"
     inkscape:current-layer="svg7384"
     inkscape:snap-bbox="true"
     inkscape:bbox-nodes="true"
     inkscape:bbox-paths="true"
     inkscape:snap-bbox-midpoints="true"
     inkscape:snap-bbox-edge-midpoints="true"
     inkscape:object-nodes="true"
     inkscape:snap-smooth-nodes="true"
     inkscape:snap-object-midpoints="true"
     showguides="true"
     inkscape:guide-bbox="true" />
  <metadata
     id="metadata90">
    <rdf:RDF>
      <cc:Work
         rdf:about="">
        <dc:format>image/svg+xml</dc:format>
        <dc:type
           rdf:resource="http://purl.org/dc/dcmitype/StillImage" />
        <dc:title>Gnome Symbolic Icon Theme</dc:title>
      </cc:Work>
    </rdf:RDF>
  </metadata>
  <title
     id="title9167">Gnome Symbolic Icon Theme</title>
  <rect
     style="opacity:1;fill:#575757;fill-opacity:1;stroke:none;stroke-width:2.25;stroke-linecap:round;stroke-miterlimit:4;stroke-dasharray:none;stroke-opacity:1"
     id="rect4978"
     width="22"
     height="22"
     x="-23"
     y="1"
     transform="matrix(0,-1,1,0,0,0)" />
  <rect
     y="2"
     x="-22"
     height="20"
     width="20"
     id="rect4980"
     style="opacity:1;fill:#ffffff;fill-opacity:1;stroke:none;stroke-width:2.25;stroke-linecap:round;stroke-miterlimit:4;stroke-dasharray:none;stroke-opacity:1"
     transform="matrix(0,-1,1,0,0,0)" />
  <rect
     style="opacity:1;fill:#3d9fdb;fill-opacity:1;stroke:none;stroke-width:2.25;stroke-linecap:round;stroke-miterlimit:4;stroke-dasharray:none;stroke-opacity:1"
     id="rect4982"
     width="6"
     height="18"
     x="-21"
     y="3"
     transform="matrix(0,-1,1,0,0,0)" />
  <rect
     style="opacity:1;fill:#8c8c8c;fill-opacity:1;stroke:none;stroke-width:2.25;stroke-linecap:round;stroke-miterlimit:4;stroke-dasharray:none;stroke-opacity:1"
     id="rect4990"
     width="1"
     height="1"
     x="-13"
     y="5"
     transform="matrix(0,-1,1,0,0,0)" />
  <rect
     y="5"
     x="-11"
     height="1"
     width="1"
     id="rect4992"
     style="opacity:1;fill:#8c8c8c;fill-opacity:1;stroke:none;stroke-width:2.25;stroke-linecap:round;stroke-miterlimit:4;stroke-dasharray:none;stroke-opacity:1"
     transform="matrix(0,-1,1,0,0,0)" />
  <rect
     style="opacity:1;fill:#8c8c8c;fill-opacity:1;stroke:none;stroke-width:2.25;stroke-linecap:round;stroke-miterlimit:4;stroke-dasharray:none;stroke-opacity:1"
     id="rect4994"
     width="1"
     height="1"
     x="-7"
     y="5"
     transform="matrix(0,-1,1,0,0,0)" />
  <rect
     style="opacity:1;fill:#8c8c8c;fill-opacity:1;stroke:none;stroke-width:2.25;stroke-linecap:round;stroke-miterlimit:4;stroke-dasharray:none;stroke-opacity:1"
     id="rect4996"
     width="1"
     height="1"
     x="-13"
     y="7"
     transform="matrix(0,-1,1,0,0,0)" />
  <rect
     y="7"
     x="-11"
     height="1"
     width="1"
     id="rect4998"
     style="opacity:1;fill:#8c8c8c;fill-opacity:1;stroke:none;stroke-width:2.25;stroke-linecap:round;stroke-miterlimit:4;stroke-dasharray:none;stroke-opacity:1"
     transform="matrix(0,-1,1,0,0,0)" />
  <rect
     style="opacity:1;fill:#8c8c8c;fill-opacity:1;stroke:none;stroke-width:2.25;stroke-linecap:round;stroke-miterlimit:4;stroke-dasharray:none;stroke-opacity:1"
     id="rect5000"
     width="1"
     height="1"
     x="-7"
     y="7"
     transform="matrix(0,-1,1,0,0,0)" />
  <rect
     y="9"
     x="-13"
     height="1"
     width="1"
     id="rect5002"
     style="opacity:1;fill:#8c8c8c;fill-opacity:1;stroke:none;stroke-width:2.25;stroke-linecap:round;stroke-miterlimit:4;stroke-dasharray:none;stroke-opacity:1"
     transform="matrix(0,-1,1,0,0,0)" />
  <rect
     style="opacity:1;fill:#8c8c8c;fill-opacity:1;stroke:none;stroke-width:2.25;stroke-linecap:round;stroke-miterlimit:4;stroke-dasharray:none;stroke-opacity:1"
     id="rect5004"
     width="1"
     height="1"
     x="-11"
     y="9"
     transform="matrix(0,-1,1,0,0,0)" />
  <rect
     y="9"
     x="-7"
     height="1"
     width="1"
     id="rect5006"
     style="opacity:1;fill:#8c8c8c;fill-opacity:1;stroke:none;stroke-width:2.25;stroke-linecap:round;stroke-miterlimit:4;stroke-dasharray:none;stroke-opacity:1"
     transform="matrix(0,-1,1,0,0,0)" />
  <rect
     y="5"
     x="-5"
     height="1"
     width="1"
     id="rect5708"
     style="opacity:1;fill:#8c8c8c;fill-opacity:1;stroke:none;stroke-width:2.25;stroke-linecap:round;stroke-miterlimit:4;stroke-dasharray:none;stroke-opacity:1"
     transform="matrix(0,-1,1,0,0,0)" />
  <rect
     y="7"
     x="-5"
     height="1"
     width="1"
     id="rect5710"
     style="opacity:1;fill:#8c8c8c;fill-opacity:1;stroke:none;stroke-width:2.25;stroke-linecap:round;stroke-miterlimit:4;stroke-dasharray:none;stroke-opacity:1"
     transform="matrix(0,-1,1,0,0,0)" />
  <rect
     style="opacity:1;fill:#8c8c8c;fill-opacity:1;stroke:none;stroke-width:2.25;stroke-linecap:round;stroke-miterlimit:4;stroke-dasharray:none;stroke-opacity:1"
     id="rect5712"
     width="1"
     height="1"
     x="-5"
     y="9"
     transform="matrix(0,-1,1,0,0,0)" />
  <rect
     style="opacity:1;fill:#8c8c8c;fill-opacity:1;stroke:none;stroke-width:2.25;stroke-linecap:round;stroke-miterlimit:4;stroke-dasharray:none;stroke-opacity:1"
     id="rect5714"
     width="1"
     height="1"
     x="-13"
     y="14.000001"
     transform="matrix(0,-1,1,0,0,0)" />
  <rect
     y="14.000001"
     x="-11"
     height="1"
     width="1"
     id="rect5716"
     style="opacity:1;fill:#8c8c8c;fill-opacity:1;stroke:none;stroke-width:2.25;stroke-linecap:round;stroke-miterlimit:4;stroke-dasharray:none;stroke-opacity:1"
     transform="matrix(0,-1,1,0,0,0)" />
  <rect
     style="opacity:1;fill:#8c8c8c;fill-opacity:1;stroke:none;stroke-width:2.25;stroke-linecap:round;stroke-miterlimit:4;stroke-dasharray:none;stroke-opacity:1"
     id="rect5718"
     width="1"
     height="1"
     x="-7"
     y="14.000001"
     transform="matrix(0,-1,1,0,0,0)" />
  <rect
     y="16"
     x="-13"
     height="1"
     width="1"
     id="rect5720"
     style="opacity:1;fill:#8c8c8c;fill-opacity:1;stroke:none;stroke-width:2.25;stroke-linecap:round;stroke-miterlimit:4;stroke-dasharray:none;stroke-opacity:1"
     transform="matrix(0,-1,1,0,0,0)" />
  <rect
     style="opacity:1;fill:#8c8c8c;fill-opacity:1;stroke:none;stroke-width:2.25;stroke-linecap:round;stroke-miterlimit:4;stroke-dasharray:none;stroke-opacity:1"
     id="rect5722"
     width="1"
     height="1"
     x="-11"
     y="16"
     transform="matrix(0,-1,1,0,0,0)" />
  <rect
     y="16"
     x="-7"
     height="1"
     width="1"
     id="rect5724"
     style="opacity:1;fill:#8c8c8c;fill-opacity:1;stroke:none;stroke-width:2.25;stroke-linecap:round;stroke-miterlimit:4;stroke-dasharray:none;stroke-opacity:1"
     transform="matrix(0,-1,1,0,0,0)" />
  <rect
     y="18"
     x="-13"
     height="1"
     width="1"
     id="rect5726"
     style="opacity:1;fill:#8c8c8c;fill-opacity:1;stroke:none;stroke-width:2.25;stroke-linecap:round;stroke-miterlimit:4;stroke-dasharray:none;stroke-opacity:1"
     transform="matrix(0,-1,1,0,0,0)" />
  <rect
     style="opacity:1;fill:#8c8c8c;fill-opacity:1;stroke:none;stroke-width:2.25;stroke-linecap:round;stroke-miterlimit:4;stroke-dasharray:none;stroke-opacity:1"
     id="rect5728"
     width="1"
     height="1"
     x="-11"
     y="18"
     transform="matrix(0,-1,1,0,0,0)" />
  <rect
     y="18"
     x="-7"
     height="1"
     width="1"
     id="rect5730"
     style="opacity:1;fill:#8c8c8c;fill-opacity:1;stroke:none;stroke-width:2.25;stroke-linecap:round;stroke-miterlimit:4;stroke-dasharray:none;stroke-opacity:1"
     transform="matrix(0,-1,1,0,0,0)" />
  <rect
     y="14.000001"
     x="-5"
     height="1"
     width="1"
     id="rect5738"
     style="opacity:1;fill:#8c8c8c;fill-opacity:1;stroke:none;stroke-width:2.25;stroke-linecap:round;stroke-miterlimit:4;stroke-dasharray:none;stroke-opacity:1"
     transform="matrix(0,-1,1,0,0,0)" />
  <rect
     style="opacity:1;fill:#8c8c8c;fill-opacity:1;stroke:none;stroke-width:2.25;stroke-linecap:round;stroke-miterlimit:4;stroke-dasharray:none;stroke-opacity:1"
     id="rect5740"
     width="1"
     height="1"
     x="-5"
     y="16"
     transform="matrix(0,-1,1,0,0,0)" />
  <rect
     style="opacity:1;fill:#8c8c8c;fill-opacity:1;stroke:none;stroke-width:2.25;stroke-linecap:round;stroke-miterlimit:4;stroke-dasharray:none;stroke-opacity:1"
     id="rect5742"
     width="1"
     height="1"
     x="-5"
     y="18"
     transform="matrix(0,-1,1,0,0,0)" />
</svg>
