<?xml version="1.0" encoding="UTF-8" standalone="no"?>
<!-- Created with Inkscape (http://www.inkscape.org/) -->

<svg
   xmlns:dc="http://purl.org/dc/elements/1.1/"
   xmlns:cc="http://creativecommons.org/ns#"
   xmlns:rdf="http://www.w3.org/1999/02/22-rdf-syntax-ns#"
   xmlns:svg="http://www.w3.org/2000/svg"
   xmlns="http://www.w3.org/2000/svg"
   xmlns:sodipodi="http://sodipodi.sourceforge.net/DTD/sodipodi-0.dtd"
   xmlns:inkscape="http://www.inkscape.org/namespaces/inkscape"
   version="1.1"
   width="24"
   height="24"
   id="svg3682"
   inkscape:version="0.91 r13725"
   sodipodi:docname="media-playback-stop.svg">
  <metadata
     id="metadata37">
    <rdf:RDF>
      <cc:Work
         rdf:about="">
        <dc:format>image/svg+xml</dc:format>
        <dc:type
           rdf:resource="http://purl.org/dc/dcmitype/StillImage" />
        <dc:title />
      </cc:Work>
    </rdf:RDF>
  </metadata>
  <sodipodi:namedview
     pagecolor="#ffffff"
     bordercolor="#666666"
     borderopacity="1"
     objecttolerance="10"
     gridtolerance="10"
     guidetolerance="10"
     inkscape:pageopacity="0"
     inkscape:pageshadow="2"
     inkscape:window-width="1440"
     inkscape:window-height="851"
     id="namedview35"
     showgrid="false"
     inkscape:zoom="3.940285"
     inkscape:cx="-20.347895"
     inkscape:cy="22.191168"
     inkscape:window-x="0"
     inkscape:window-y="0"
     inkscape:window-maximized="1"
     inkscape:current-layer="svg3682" />
  <defs
     id="defs3684" />
  <path
     style="display:inline;opacity:1;fill:#ee615a;fill-opacity:1;stroke:none;stroke-width:12;stroke-linecap:square;stroke-linejoin:miter;stroke-miterlimit:4;stroke-dasharray:none;stroke-opacity:1"
     d="M 19.773047,4.2269528 A 11,11 0 0 1 23,12 11,11 0 0 1 11.999999,23 11,11 0 0 1 4.226954,19.773047 L 19.773047,4.2269528 Z"
     id="path12749"
     inkscape:connector-curvature="0" />
  <path
     style="display:inline;opacity:1;fill:#ee5c55;fill-opacity:1;stroke:none;stroke-width:12;stroke-linecap:square;stroke-linejoin:miter;stroke-miterlimit:4;stroke-dasharray:none;stroke-opacity:1"
     d="M 11.999999,0.99999975 A 11,11 0 0 1 19.773047,4.2269528 L 11.999999,12 19.773047,19.773047 A 11,11 0 0 1 11.999999,23 11,11 0 0 1 1,12 11,11 0 0 1 11.999999,0.99999975 Z"
     id="rect4236-5-9"
     inkscape:connector-curvature="0" />
  <path
     style="display:inline;opacity:1;fill:#f14941;fill-opacity:1;stroke:none;stroke-width:12;stroke-linecap:square;stroke-linejoin:miter;stroke-miterlimit:4;stroke-dasharray:none;stroke-opacity:1"
     d="m 11.999999,12 7.773048,7.773047 A 11,11 0 0 1 11.999999,23 11,11 0 0 1 4.226954,19.773047 L 11.999999,12 Z"
     id="path12756"
     inkscape:connector-curvature="0" />
  <path
     style="display:inline;opacity:1;fill:#f2736e;fill-opacity:1;stroke:none;stroke-width:12;stroke-linecap:square;stroke-linejoin:miter;stroke-miterlimit:4;stroke-dasharray:none;stroke-opacity:1"
     d="M 11.999999,0.99999975 A 11,11 0 0 1 19.773047,4.2269528 L 11.999999,12 4.226954,4.2269528 a 11,11 0 0 1 7.773045,-3.22695305 z"
     id="path12753"
     inkscape:connector-curvature="0" />
  <rect
     style="opacity:1;fill:#ffffff;fill-opacity:1;fill-rule:evenodd;stroke:none;stroke-width:1;stroke-linecap:square;stroke-linejoin:miter;stroke-miterlimit:4;stroke-dasharray:none;stroke-opacity:1"
     id="rect4342"
     width="8"
     height="8"
     x="8.000001"
     y="8.000001" />
</svg>
