<?xml version="1.0" encoding="UTF-8" standalone="no"?>
<!-- Created with Inkscape (http://www.inkscape.org/) -->

<svg
   xmlns:dc="http://purl.org/dc/elements/1.1/"
   xmlns:cc="http://creativecommons.org/ns#"
   xmlns:rdf="http://www.w3.org/1999/02/22-rdf-syntax-ns#"
   xmlns:svg="http://www.w3.org/2000/svg"
   xmlns="http://www.w3.org/2000/svg"
   xmlns:sodipodi="http://sodipodi.sourceforge.net/DTD/sodipodi-0.dtd"
   xmlns:inkscape="http://www.inkscape.org/namespaces/inkscape"
   width="24"
   height="24"
   id="svg2473"
   sodipodi:version="0.32"
   inkscape:version="0.91 r13725"
   version="1.0"
   sodipodi:docname="media-playback-pause.svg"
   inkscape:output_extension="org.inkscape.output.svg.inkscape">
  <defs
     id="defs2475" />
  <sodipodi:namedview
     id="base"
     pagecolor="#ffffff"
     bordercolor="#666666"
     borderopacity="1.0"
     inkscape:pageopacity="0.0"
     inkscape:pageshadow="2"
     inkscape:zoom="4.694779"
     inkscape:cx="-10.48322"
     inkscape:cy="11.70972"
     inkscape:current-layer="layer1"
     showgrid="true"
     inkscape:document-units="px"
     inkscape:grid-bbox="true"
     inkscape:window-width="1440"
     inkscape:window-height="851"
     inkscape:window-x="0"
     inkscape:window-y="0"
     inkscape:window-maximized="1" />
  <metadata
     id="metadata2478">
    <rdf:RDF>
      <cc:Work
         rdf:about="">
        <dc:format>image/svg+xml</dc:format>
        <dc:type
           rdf:resource="http://purl.org/dc/dcmitype/StillImage" />
        <dc:title />
      </cc:Work>
    </rdf:RDF>
  </metadata>
  <g
     id="layer1"
     inkscape:label="Layer 1"
     inkscape:groupmode="layer">
    <path
       style="display:inline;opacity:1;fill:#fccd4c;fill-opacity:1;stroke:none;stroke-width:12;stroke-linecap:square;stroke-linejoin:miter;stroke-miterlimit:4;stroke-dasharray:none;stroke-opacity:1"
       d="M 4.2269525,4.226953 A 11,11 0 0 0 0.9999995,12 11,11 0 0 0 12,23 11,11 0 0 0 19.773046,19.773047 L 4.2269525,4.226953 Z"
       id="path12749"
       inkscape:connector-curvature="0" />
    <path
       style="display:inline;opacity:1;fill:#ffce44;fill-opacity:1;stroke:none;stroke-width:12;stroke-linecap:square;stroke-linejoin:miter;stroke-miterlimit:4;stroke-dasharray:none;stroke-opacity:1"
       d="M 12.000001,1 A 11,11 0 0 0 4.2269525,4.226953 L 12,12 4.2269525,19.773047 A 11,11 0 0 0 12,23 11,11 0 0 0 23,12 11,11 0 0 0 12,1 Z"
       id="rect4236-5-9"
       inkscape:connector-curvature="0" />
    <path
       style="display:inline;opacity:1;fill:#ffc833;fill-opacity:1;stroke:none;stroke-width:12;stroke-linecap:square;stroke-linejoin:miter;stroke-miterlimit:4;stroke-dasharray:none;stroke-opacity:1"
       d="M 12.000001,12 4.2269525,19.773047 A 11,11 0 0 0 12,23 11,11 0 0 0 19.773046,19.773047 L 12,12 Z"
       id="path12756"
       inkscape:connector-curvature="0" />
    <path
       style="display:inline;opacity:1;fill:#ffd561;fill-opacity:1;stroke:none;stroke-width:12;stroke-linecap:square;stroke-linejoin:miter;stroke-miterlimit:4;stroke-dasharray:none;stroke-opacity:1"
       d="M 12.000001,1 A 11,11 0 0 0 4.2269525,4.226953 L 12,12 19.773046,4.226953 A 11,11 0 0 0 12,1 Z"
       id="path12753"
       inkscape:connector-curvature="0" />
    <rect
       style="display:inline;opacity:1;fill:#fcc93e;fill-opacity:1;stroke:none;stroke-width:12;stroke-linecap:square;stroke-linejoin:miter;stroke-miterlimit:4;stroke-dasharray:none;stroke-opacity:1"
       id="rect12841"
       width="4"
       height="10"
       x="10.000001"
       y="7.000001" />
    <rect
       style="display:inline;fill:#ffffff;fill-opacity:1;stroke:none"
       id="rect4619-4-1"
       width="3"
       height="10"
       x="8.000001"
       y="7.000001" />
    <rect
       y="7.000001"
       x="13.000001"
       height="10"
       width="3"
       id="rect4621-9-9"
       style="display:inline;fill:#ffffff;fill-opacity:1;stroke:none" />
  </g>
</svg>
