<?xml version="1.0" encoding="UTF-8" standalone="no"?>
<!-- Created with Inkscape (http://www.inkscape.org/) -->

<svg
   xmlns:dc="http://purl.org/dc/elements/1.1/"
   xmlns:cc="http://creativecommons.org/ns#"
   xmlns:rdf="http://www.w3.org/1999/02/22-rdf-syntax-ns#"
   xmlns:svg="http://www.w3.org/2000/svg"
   xmlns="http://www.w3.org/2000/svg"
   xmlns:xlink="http://www.w3.org/1999/xlink"
   xmlns:sodipodi="http://sodipodi.sourceforge.net/DTD/sodipodi-0.dtd"
   xmlns:inkscape="http://www.inkscape.org/namespaces/inkscape"
   width="64"
   height="64"
   viewBox="0 0 63.999999 63.999999"
   id="svg4141"
   version="1.1"
   inkscape:version="0.91 r13725"
   sodipodi:docname="folder-music.svg">
  <defs
     id="defs4143">
    <linearGradient
       inkscape:collect="always"
       xlink:href="#linearGradient4420"
       id="linearGradient4739-8-2-1-5"
       gradientUnits="userSpaceOnUse"
       gradientTransform="matrix(1.4500001,0,0,1.2608706,-2.8,-272.4432)"
       x1="31.004423"
       y1="1044.0774"
       x2="31.004423"
       y2="1022.0029" />
    <linearGradient
       id="linearGradient4420"
       inkscape:collect="always">
      <stop
         id="stop4422"
         offset="0"
         style="stop-color:#99cded;stop-opacity:1" />
      <stop
         id="stop4424"
         offset="1"
         style="stop-color:#b8ddf6;stop-opacity:1" />
    </linearGradient>
    <linearGradient
       inkscape:collect="always"
       xlink:href="#linearGradient4168"
       id="linearGradient8106"
       gradientUnits="userSpaceOnUse"
       gradientTransform="matrix(0,-0.88695648,1.6304347,0,0.2391332,1056.7291)"
       x1="42.02766"
       y1="30.6"
       x2="13.046826"
       y2="30.6" />
    <linearGradient
       inkscape:collect="always"
       id="linearGradient4168">
      <stop
         style="stop-color:#63c2f1;stop-opacity:1"
         offset="0"
         id="stop4170" />
      <stop
         style="stop-color:#51bbef;stop-opacity:1"
         offset="1"
         id="stop4172" />
    </linearGradient>
    <linearGradient
       inkscape:collect="always"
       xlink:href="#linearGradient4420"
       id="linearGradient4454"
       gradientUnits="userSpaceOnUse"
       gradientTransform="matrix(1.4500001,0,0,1.2608706,63.985714,-272.4432)"
       x1="31.004423"
       y1="1044.0774"
       x2="31.004423"
       y2="1022.0029" />
    <linearGradient
       inkscape:collect="always"
       xlink:href="#linearGradient4168"
       id="linearGradient4456"
       gradientUnits="userSpaceOnUse"
       gradientTransform="matrix(0,-0.88695648,1.6304347,0,65.024847,1056.7291)"
       x1="44.091911"
       y1="30.6"
       x2="13.331551"
       y2="30.6" />
  </defs>
  <sodipodi:namedview
     id="base"
     pagecolor="#ffffff"
     bordercolor="#1ecc00"
     borderopacity="1"
     inkscape:pageopacity="0.0"
     inkscape:pageshadow="2"
     inkscape:zoom="15.839192"
     inkscape:cx="36.761373"
     inkscape:cy="18.669296"
     inkscape:document-units="px"
     inkscape:current-layer="layer1"
     showgrid="false"
     inkscape:showpageshadow="false"
     units="px"
     inkscape:window-width="1440"
     inkscape:window-height="855"
     inkscape:window-x="0"
     inkscape:window-y="0"
     inkscape:window-maximized="1" />
  <metadata
     id="metadata4146">
    <rdf:RDF>
      <cc:Work
         rdf:about="">
        <dc:format>image/svg+xml</dc:format>
        <dc:type
           rdf:resource="http://purl.org/dc/dcmitype/StillImage" />
        <dc:title />
      </cc:Work>
    </rdf:RDF>
  </metadata>
  <g
     inkscape:label="Layer 1"
     inkscape:groupmode="layer"
     id="layer1"
     transform="translate(0,-988.3622)">
    <path
       style="display:inline;fill:#89c4e9;fill-opacity:1;stroke:none"
       d="m 2,1004.3622 0,41 60,0 0,-37 -35,0 0,-4 z"
       id="path4729-36-2-94-5"
       inkscape:connector-curvature="0"
       sodipodi:nodetypes="ccccccc" />
    <path
       style="display:inline;fill:url(#linearGradient4739-8-2-1-5);fill-opacity:1;stroke:none"
       d="m 61,1015.3622 0,29 -58,0 0,-29 z"
       id="path4735-63-0-4-8"
       inkscape:connector-curvature="0"
       sodipodi:nodetypes="ccccc" />
    <path
       inkscape:connector-curvature="0"
       style="display:inline;opacity:1;fill:#ffffff;fill-opacity:1;fill-rule:evenodd;stroke:none;stroke-width:12;stroke-linecap:square;stroke-linejoin:miter;stroke-miterlimit:4;stroke-dasharray:none;stroke-opacity:1"
       d="m 3,1005.3622 0,9 58,0 0,-5 -35,0 0,-4 z"
       id="rect4737-20-9-5-6"
       sodipodi:nodetypes="ccccccc" />
    <path
       sodipodi:nodetypes="ccccccccccccccc"
       inkscape:connector-curvature="0"
       id="path8042"
       d="m 62,1029.3622 0,16 -36,0 0,-21 6,0 0,5 9,0 0,-5 5,0 0,-5.0001 5.999848,2e-4 3.04e-4,4.9999 4.999848,0 0,5 z"
       style="fill:url(#linearGradient8106);fill-opacity:1;stroke:none" />
    <path
       style="fill:#ffffff;fill-opacity:1;stroke:none"
       d="m 30.999942,1044.3622 -3.999942,0 0,-4 3.999942,0 z"
       id="path8078"
       inkscape:connector-curvature="0"
       sodipodi:nodetypes="ccccc" />
    <path
       sodipodi:nodetypes="ccccc"
       inkscape:connector-curvature="0"
       id="path4281"
       d="m 30.999942,1039.3622 -3.999942,0 0,-4 3.999942,0 z"
       style="fill:#ffffff;fill-opacity:1;stroke:none" />
    <path
       style="fill:#ffffff;fill-opacity:1;stroke:none"
       d="m 30.999942,1034.3622 -3.999942,0 0,-4 3.999942,0 z"
       id="path4283"
       inkscape:connector-curvature="0"
       sodipodi:nodetypes="ccccc" />
    <path
       sodipodi:nodetypes="ccccc"
       inkscape:connector-curvature="0"
       id="path4285"
       d="m 30.999942,1029.3622 -3.999942,0 0,-4 3.999942,0 z"
       style="fill:#ffffff;fill-opacity:1;stroke:none" />
    <path
       sodipodi:nodetypes="ccccc"
       inkscape:connector-curvature="0"
       id="path4287"
       d="m 35.999942,1044.3622 -3.999942,0 0,-4 3.999942,0 z"
       style="fill:#ffffff;fill-opacity:1;stroke:none" />
    <path
       style="fill:#ffffff;fill-opacity:1;stroke:none"
       d="m 35.999942,1039.3622 -3.999942,0 0,-4 3.999942,0 z"
       id="path4289"
       inkscape:connector-curvature="0"
       sodipodi:nodetypes="ccccc" />
    <path
       sodipodi:nodetypes="ccccc"
       inkscape:connector-curvature="0"
       id="path4291"
       d="m 35.999942,1034.3622 -3.999942,0 0,-4 3.999942,0 z"
       style="fill:#ffffff;fill-opacity:1;stroke:none" />
    <path
       style="fill:#ffffff;fill-opacity:1;stroke:none"
       d="m 40.999942,1044.3622 -3.999942,0 0,-4 3.999942,0 z"
       id="path4293"
       inkscape:connector-curvature="0"
       sodipodi:nodetypes="ccccc" />
    <path
       sodipodi:nodetypes="ccccc"
       inkscape:connector-curvature="0"
       id="path4295"
       d="m 40.999942,1039.3622 -3.999942,0 0,-4 3.999942,0 z"
       style="fill:#ffffff;fill-opacity:1;stroke:none" />
    <path
       style="fill:#ffffff;fill-opacity:1;stroke:none"
       d="m 40.999942,1034.3622 -3.999942,0 0,-4 3.999942,0 z"
       id="path4297"
       inkscape:connector-curvature="0"
       sodipodi:nodetypes="ccccc" />
    <path
       sodipodi:nodetypes="ccccc"
       inkscape:connector-curvature="0"
       id="path4299"
       d="m 45.999942,1044.3622 -3.999942,0 0,-4 3.999942,0 z"
       style="fill:#ffffff;fill-opacity:1;stroke:none" />
    <path
       style="fill:#ffffff;fill-opacity:1;stroke:none"
       d="m 45.999942,1039.3622 -3.999942,0 0,-4 3.999942,0 z"
       id="path4301"
       inkscape:connector-curvature="0"
       sodipodi:nodetypes="ccccc" />
    <path
       sodipodi:nodetypes="ccccc"
       inkscape:connector-curvature="0"
       id="path4303"
       d="m 45.999942,1034.3622 -3.999942,0 0,-4 3.999942,0 z"
       style="fill:#ffffff;fill-opacity:1;stroke:none" />
    <path
       style="fill:#ffffff;fill-opacity:1;stroke:none"
       d="m 45.999942,1029.3622 -3.999942,0 0,-4 3.999942,0 z"
       id="path4305"
       inkscape:connector-curvature="0"
       sodipodi:nodetypes="ccccc" />
    <path
       style="fill:#ffffff;fill-opacity:1;stroke:none"
       d="m 50.999942,1044.3622 -3.999942,0 0,-4 3.999942,0 z"
       id="path4307"
       inkscape:connector-curvature="0"
       sodipodi:nodetypes="ccccc" />
    <path
       sodipodi:nodetypes="ccccc"
       inkscape:connector-curvature="0"
       id="path4309"
       d="m 50.999942,1039.3622 -3.999942,0 0,-4 3.999942,0 z"
       style="fill:#ffffff;fill-opacity:1;stroke:none" />
    <path
       style="fill:#ffffff;fill-opacity:1;stroke:none"
       d="m 50.999942,1034.3622 -3.999942,0 0,-4 3.999942,0 z"
       id="path4311"
       inkscape:connector-curvature="0"
       sodipodi:nodetypes="ccccc" />
    <path
       sodipodi:nodetypes="ccccc"
       inkscape:connector-curvature="0"
       id="path4313"
       d="m 50.999942,1029.3622 -3.999942,0 0,-4 3.999942,0 z"
       style="fill:#ffffff;fill-opacity:1;stroke:none" />
    <path
       style="fill:#ffffff;fill-opacity:1;stroke:none"
       d="m 50.999942,1024.3622 -3.999942,0 0,-4 3.999942,0 z"
       id="path4315"
       inkscape:connector-curvature="0"
       sodipodi:nodetypes="ccccc" />
    <path
       sodipodi:nodetypes="ccccc"
       inkscape:connector-curvature="0"
       id="path4317"
       d="m 55.999942,1044.3622 -3.999942,0 0,-4 3.999942,0 z"
       style="fill:#ffffff;fill-opacity:1;stroke:none" />
    <path
       style="fill:#ffffff;fill-opacity:1;stroke:none"
       d="m 55.999942,1039.3622 -3.999942,0 0,-4 3.999942,0 z"
       id="path4319"
       inkscape:connector-curvature="0"
       sodipodi:nodetypes="ccccc" />
    <path
       sodipodi:nodetypes="ccccc"
       inkscape:connector-curvature="0"
       id="path4321"
       d="m 55.999942,1034.3622 -3.999942,0 0,-4 3.999942,0 z"
       style="fill:#ffffff;fill-opacity:1;stroke:none" />
    <path
       style="fill:#ffffff;fill-opacity:1;stroke:none"
       d="m 55.999942,1029.3622 -3.999942,0 0,-4 3.999942,0 z"
       id="path4323"
       inkscape:connector-curvature="0"
       sodipodi:nodetypes="ccccc" />
    <path
       style="fill:#ffffff;fill-opacity:1;stroke:none"
       d="m 60.999942,1044.3622 -3.999942,0 0,-4 3.999942,0 z"
       id="path4325"
       inkscape:connector-curvature="0"
       sodipodi:nodetypes="ccccc" />
    <path
       sodipodi:nodetypes="ccccc"
       inkscape:connector-curvature="0"
       id="path4327"
       d="m 60.999942,1039.3622 -3.999942,0 0,-4 3.999942,0 z"
       style="fill:#ffffff;fill-opacity:1;stroke:none" />
    <path
       style="fill:#ffffff;fill-opacity:1;stroke:none"
       d="m 60.999942,1034.3622 -3.999942,0 0,-4 3.999942,0 z"
       id="path4329"
       inkscape:connector-curvature="0"
       sodipodi:nodetypes="ccccc" />
    <path
       sodipodi:nodetypes="ccccccc"
       inkscape:connector-curvature="0"
       id="path4394"
       d="m 68.785714,1004.3622 0,41 59.999996,0 0,-37 -34.999996,0 0,-4 z"
       style="display:inline;fill:#89c4e9;fill-opacity:1;stroke:none" />
    <path
       sodipodi:nodetypes="ccccc"
       inkscape:connector-curvature="0"
       id="path4396"
       d="m 127.78571,1015.3622 0,29 -57.999996,0 0,-29 z"
       style="display:inline;fill:url(#linearGradient4454);fill-opacity:1;stroke:none" />
    <path
       sodipodi:nodetypes="ccccccc"
       id="path4398"
       d="m 69.785714,1005.3622 0,9 57.999996,0 0,-5 -34.999996,0 0,-4 z"
       style="display:inline;opacity:1;fill:#ffffff;fill-opacity:1;fill-rule:evenodd;stroke:none;stroke-width:12;stroke-linecap:square;stroke-linejoin:miter;stroke-miterlimit:4;stroke-dasharray:none;stroke-opacity:1"
       inkscape:connector-curvature="0" />
    <path
       style="fill:url(#linearGradient4456);fill-opacity:1;stroke:none"
       d="m 128.6118,1028.1378 0,16.9565 -37.826086,0 0,-22.1739 1.304348,0 5.217391,0 0,5.2174 5.217387,0 3.91305,0 0,-5.2174 5.05435,0 0.16304,-5.2174 6.52174,0 0,5.2174 5.21739,0 0,5.2174 z"
       id="path4400"
       inkscape:connector-curvature="0"
       sodipodi:nodetypes="ccccccccccccccccc" />
    <path
       sodipodi:nodetypes="ccccc"
       inkscape:connector-curvature="0"
       id="path4402"
       d="m 95.785656,1044.3622 -3.999942,0 0,-4 3.999942,0 z"
       style="fill:#ffffff;fill-opacity:1;stroke:none" />
    <path
       style="fill:#ffffff;fill-opacity:1;stroke:none"
       d="m 95.785656,1039.3622 -3.999942,0 0,-4 3.999942,0 z"
       id="path4404"
       inkscape:connector-curvature="0"
       sodipodi:nodetypes="ccccc" />
    <path
       sodipodi:nodetypes="ccccc"
       inkscape:connector-curvature="0"
       id="path4406"
       d="m 95.785656,1034.3622 -3.999942,0 0,-4 3.999942,0 z"
       style="fill:#ffffff;fill-opacity:1;stroke:none" />
    <path
       style="fill:#ffffff;fill-opacity:1;stroke:none"
       d="m 95.785656,1029.3622 -3.999942,0 0,-4 3.999942,0 z"
       id="path4408"
       inkscape:connector-curvature="0"
       sodipodi:nodetypes="ccccc" />
    <path
       style="fill:#ffffff;fill-opacity:1;stroke:none"
       d="m 100.78566,1044.3622 -3.999946,0 0,-4 3.999946,0 z"
       id="path4410"
       inkscape:connector-curvature="0"
       sodipodi:nodetypes="ccccc" />
    <path
       sodipodi:nodetypes="ccccc"
       inkscape:connector-curvature="0"
       id="path4412"
       d="m 100.78566,1039.3622 -3.999946,0 0,-4 3.999946,0 z"
       style="fill:#ffffff;fill-opacity:1;stroke:none" />
    <path
       style="fill:#ffffff;fill-opacity:1;stroke:none"
       d="m 100.78566,1034.3622 -3.999946,0 0,-4 3.999946,0 z"
       id="path4414"
       inkscape:connector-curvature="0"
       sodipodi:nodetypes="ccccc" />
    <path
       sodipodi:nodetypes="ccccc"
       inkscape:connector-curvature="0"
       id="path4416"
       d="m 105.78566,1044.3622 -3.99995,0 0,-4 3.99995,0 z"
       style="fill:#ffffff;fill-opacity:1;stroke:none" />
    <path
       style="fill:#ffffff;fill-opacity:1;stroke:none"
       d="m 105.78566,1039.3622 -3.99995,0 0,-4 3.99995,0 z"
       id="path4418"
       inkscape:connector-curvature="0"
       sodipodi:nodetypes="ccccc" />
    <path
       sodipodi:nodetypes="ccccc"
       inkscape:connector-curvature="0"
       id="path4420"
       d="m 105.78566,1034.3622 -3.99995,0 0,-4 3.99995,0 z"
       style="fill:#ffffff;fill-opacity:1;stroke:none" />
    <path
       style="fill:#ffffff;fill-opacity:1;stroke:none"
       d="m 110.78566,1044.3622 -3.99995,0 0,-4 3.99995,0 z"
       id="path4422"
       inkscape:connector-curvature="0"
       sodipodi:nodetypes="ccccc" />
    <path
       sodipodi:nodetypes="ccccc"
       inkscape:connector-curvature="0"
       id="path4424"
       d="m 110.78566,1039.3622 -3.99995,0 0,-4 3.99995,0 z"
       style="fill:#ffffff;fill-opacity:1;stroke:none" />
    <path
       style="fill:#ffffff;fill-opacity:1;stroke:none"
       d="m 110.78566,1034.3622 -3.99995,0 0,-4 3.99995,0 z"
       id="path4426"
       inkscape:connector-curvature="0"
       sodipodi:nodetypes="ccccc" />
    <path
       sodipodi:nodetypes="ccccc"
       inkscape:connector-curvature="0"
       id="path4428"
       d="m 110.78566,1029.3622 -3.99995,0 0,-4 3.99995,0 z"
       style="fill:#ffffff;fill-opacity:1;stroke:none" />
    <path
       sodipodi:nodetypes="ccccc"
       inkscape:connector-curvature="0"
       id="path4430"
       d="m 115.78566,1044.3622 -3.99995,0 0,-4 3.99995,0 z"
       style="fill:#ffffff;fill-opacity:1;stroke:none" />
    <path
       style="fill:#ffffff;fill-opacity:1;stroke:none"
       d="m 115.78566,1039.3622 -3.99995,0 0,-4 3.99995,0 z"
       id="path4432"
       inkscape:connector-curvature="0"
       sodipodi:nodetypes="ccccc" />
    <path
       sodipodi:nodetypes="ccccc"
       inkscape:connector-curvature="0"
       id="path4434"
       d="m 115.78566,1034.3622 -3.99995,0 0,-4 3.99995,0 z"
       style="fill:#ffffff;fill-opacity:1;stroke:none" />
    <path
       style="fill:#ffffff;fill-opacity:1;stroke:none"
       d="m 115.78566,1029.3622 -3.99995,0 0,-4 3.99995,0 z"
       id="path4436"
       inkscape:connector-curvature="0"
       sodipodi:nodetypes="ccccc" />
    <path
       sodipodi:nodetypes="ccccc"
       inkscape:connector-curvature="0"
       id="path4438"
       d="m 115.78566,1024.3622 -3.99995,0 0,-4 3.99995,0 z"
       style="fill:#ffffff;fill-opacity:1;stroke:none" />
    <path
       style="fill:#ffffff;fill-opacity:1;stroke:none"
       d="m 120.78566,1044.3622 -3.99995,0 0,-4 3.99995,0 z"
       id="path4440"
       inkscape:connector-curvature="0"
       sodipodi:nodetypes="ccccc" />
    <path
       sodipodi:nodetypes="ccccc"
       inkscape:connector-curvature="0"
       id="path4442"
       d="m 120.78566,1039.3622 -3.99995,0 0,-4 3.99995,0 z"
       style="fill:#ffffff;fill-opacity:1;stroke:none" />
    <path
       style="fill:#ffffff;fill-opacity:1;stroke:none"
       d="m 120.78566,1034.3622 -3.99995,0 0,-4 3.99995,0 z"
       id="path4444"
       inkscape:connector-curvature="0"
       sodipodi:nodetypes="ccccc" />
    <path
       sodipodi:nodetypes="ccccc"
       inkscape:connector-curvature="0"
       id="path4446"
       d="m 120.78566,1029.3622 -3.99995,0 0,-4 3.99995,0 z"
       style="fill:#ffffff;fill-opacity:1;stroke:none" />
    <path
       sodipodi:nodetypes="ccccc"
       inkscape:connector-curvature="0"
       id="path4448"
       d="m 125.78566,1044.3622 -3.99995,0 0,-4 3.99995,0 z"
       style="fill:#ffffff;fill-opacity:1;stroke:none" />
    <path
       style="fill:#ffffff;fill-opacity:1;stroke:none"
       d="m 125.78566,1039.3622 -3.99995,0 0,-4 3.99995,0 z"
       id="path4450"
       inkscape:connector-curvature="0"
       sodipodi:nodetypes="ccccc" />
    <path
       sodipodi:nodetypes="ccccc"
       inkscape:connector-curvature="0"
       id="path4452"
       d="m 125.78566,1034.3622 -3.99995,0 0,-4 3.99995,0 z"
       style="fill:#ffffff;fill-opacity:1;stroke:none" />
  </g>
</svg>
