<?xml version="1.0" encoding="UTF-8" standalone="no"?>
<!-- Created with Inkscape (http://www.inkscape.org/) -->

<svg
   xmlns:dc="http://purl.org/dc/elements/1.1/"
   xmlns:cc="http://creativecommons.org/ns#"
   xmlns:rdf="http://www.w3.org/1999/02/22-rdf-syntax-ns#"
   xmlns:svg="http://www.w3.org/2000/svg"
   xmlns="http://www.w3.org/2000/svg"
   xmlns:xlink="http://www.w3.org/1999/xlink"
   xmlns:sodipodi="http://sodipodi.sourceforge.net/DTD/sodipodi-0.dtd"
   xmlns:inkscape="http://www.inkscape.org/namespaces/inkscape"
   width="64"
   height="64"
   viewBox="0 0 63.999999 63.999999"
   id="svg4141"
   version="1.1"
   inkscape:version="0.91 r13725"
   sodipodi:docname="folder-templates.svg">
  <defs
     id="defs4143">
    <linearGradient
       inkscape:collect="always"
       xlink:href="#linearGradient4420"
       id="linearGradient4739-8-2-1-5"
       gradientUnits="userSpaceOnUse"
       gradientTransform="matrix(1.4500001,0,0,1.2608706,-2.8,-272.4432)"
       x1="31.004423"
       y1="1044.0774"
       x2="31.004423"
       y2="1022.0029" />
    <linearGradient
       id="linearGradient4420"
       inkscape:collect="always">
      <stop
         id="stop4422"
         offset="0"
         style="stop-color:#99cded;stop-opacity:1" />
      <stop
         id="stop4424"
         offset="1"
         style="stop-color:#b8ddf6;stop-opacity:1" />
    </linearGradient>
    <linearGradient
       inkscape:collect="always"
       xlink:href="#linearGradient4149"
       id="linearGradient4155"
       x1="28"
       y1="28.5"
       x2="43"
       y2="28.5"
       gradientUnits="userSpaceOnUse"
       gradientTransform="matrix(0,-2.066664,1.3157895,0,12.000002,1103.2288)" />
    <linearGradient
       inkscape:collect="always"
       id="linearGradient4149">
      <stop
         style="stop-color:#63c2f1;stop-opacity:1"
         offset="0"
         id="stop4151" />
      <stop
         style="stop-color:#51bbef;stop-opacity:1"
         offset="1"
         id="stop4153" />
    </linearGradient>
  </defs>
  <sodipodi:namedview
     id="base"
     pagecolor="#ffffff"
     bordercolor="#1ecc00"
     borderopacity="1"
     inkscape:pageopacity="0.0"
     inkscape:pageshadow="2"
     inkscape:zoom="15.839192"
     inkscape:cx="41.314737"
     inkscape:cy="18.333186"
     inkscape:document-units="px"
     inkscape:current-layer="layer1"
     showgrid="false"
     inkscape:showpageshadow="false"
     units="px"
     inkscape:window-width="1440"
     inkscape:window-height="855"
     inkscape:window-x="0"
     inkscape:window-y="0"
     inkscape:window-maximized="1" />
  <metadata
     id="metadata4146">
    <rdf:RDF>
      <cc:Work
         rdf:about="">
        <dc:format>image/svg+xml</dc:format>
        <dc:type
           rdf:resource="http://purl.org/dc/dcmitype/StillImage" />
        <dc:title />
      </cc:Work>
    </rdf:RDF>
  </metadata>
  <g
     inkscape:label="Layer 1"
     inkscape:groupmode="layer"
     id="layer1"
     transform="translate(0,-988.3622)">
    <path
       style="display:inline;fill:#89c4e9;fill-opacity:1;stroke:none"
       d="m 2,1004.3622 0,41 60,0 0,-37 -35,0 0,-4 z"
       id="path4729-36-2-94-5"
       inkscape:connector-curvature="0"
       sodipodi:nodetypes="ccccccc" />
    <path
       style="display:inline;fill:url(#linearGradient4739-8-2-1-5);fill-opacity:1;stroke:none"
       d="m 61,1015.3622 0,29 -58,0 0,-29 z"
       id="path4735-63-0-4-8"
       inkscape:connector-curvature="0"
       sodipodi:nodetypes="ccccc" />
    <path
       inkscape:connector-curvature="0"
       style="display:inline;opacity:1;fill:#ffffff;fill-opacity:1;fill-rule:evenodd;stroke:none;stroke-width:12;stroke-linecap:square;stroke-linejoin:miter;stroke-miterlimit:4;stroke-dasharray:none;stroke-opacity:1"
       d="m 3,1005.3622 0,9 58,0 0,-5 -35,0 0,-4 z"
       id="rect4737-20-9-5-6"
       sodipodi:nodetypes="ccccccc" />
    <path
       style="fill:url(#linearGradient4155);fill-opacity:1;stroke:none"
       d="m 62,1045.3622 -25,0 0,-31 25,0 z"
       id="rect6363-1-9-80-7-74-4-8-7"
       inkscape:connector-curvature="0"
       sodipodi:nodetypes="ccccc" />
    <path
       sodipodi:nodetypes="ccccc"
       inkscape:connector-curvature="0"
       id="path3347"
       d="m 38,1044.3622 0,-29 23,0 0,29 z"
       style="fill:#ffffff;fill-opacity:1;stroke:none" />
    <rect
       y="1028.3622"
       x="-47"
       height="3"
       width="3"
       id="rect4179"
       style="fill:#51bbef;fill-opacity:1;stroke:none"
       transform="scale(-1,1)" />
    <rect
       transform="matrix(0,-1,-1,0,0,0)"
       style="fill:#51bbef;fill-opacity:1;stroke:none"
       id="rect4193"
       width="4"
       height="1"
       x="-1035.3622"
       y="-40" />
    <rect
       y="-40"
       x="-1043.3622"
       height="1"
       width="6"
       id="rect5382"
       style="fill:#51bbef;fill-opacity:1;stroke:none"
       transform="matrix(0,-1,-1,0,0,0)" />
    <rect
       transform="scale(1,-1)"
       style="fill:#51bbef;fill-opacity:1;stroke:none"
       id="rect5384"
       width="6"
       height="1"
       x="39"
       y="-1043.3622" />
    <rect
       transform="scale(-1,1)"
       style="fill:#51bbef;fill-opacity:1;stroke:none"
       id="rect5386"
       width="6"
       height="1"
       x="-60"
       y="1042.3622" />
    <rect
       y="-60"
       x="-1043.3622"
       height="1"
       width="6"
       id="rect5388"
       style="fill:#51bbef;fill-opacity:1;stroke:none"
       transform="matrix(0,-1,-1,0,0,0)" />
    <rect
       y="-1043.3622"
       x="48"
       height="1"
       width="3"
       id="rect5390"
       style="fill:#51bbef;fill-opacity:1;stroke:none"
       transform="scale(1,-1)" />
    <rect
       y="-40"
       x="-1028.3622"
       height="1"
       width="4"
       id="rect5392"
       style="fill:#51bbef;fill-opacity:1;stroke:none"
       transform="matrix(0,-1,-1,0,0,0)" />
    <rect
       transform="scale(1,-1)"
       style="fill:#51bbef;fill-opacity:1;stroke:none"
       id="rect5394"
       width="6"
       height="1"
       x="39"
       y="-1017.3622" />
    <rect
       y="39"
       x="1016.3622"
       height="1"
       width="6"
       id="rect5396"
       style="fill:#51bbef;fill-opacity:1;stroke:none"
       transform="matrix(0,1,1,0,0,0)" />
    <rect
       transform="scale(1,-1)"
       style="fill:#51bbef;fill-opacity:1;stroke:none"
       id="rect5398"
       width="3"
       height="1"
       x="48"
       y="-1017.3622" />
    <rect
       y="59"
       x="1016.3622"
       height="1"
       width="6"
       id="rect5400"
       style="fill:#51bbef;fill-opacity:1;stroke:none"
       transform="matrix(0,1,1,0,0,0)" />
    <rect
       transform="scale(-1,1)"
       style="fill:#51bbef;fill-opacity:1;stroke:none"
       id="rect5402"
       width="6"
       height="1"
       x="-60"
       y="1016.3622" />
    <rect
       y="-60"
       x="-1035.3622"
       height="1"
       width="4"
       id="rect5404"
       style="fill:#51bbef;fill-opacity:1;stroke:none"
       transform="matrix(0,-1,-1,0,0,0)" />
    <rect
       transform="matrix(0,-1,-1,0,0,0)"
       style="fill:#51bbef;fill-opacity:1;stroke:none"
       id="rect5406"
       width="4"
       height="1"
       x="-1028.3622"
       y="-60" />
    <rect
       transform="scale(-1,1)"
       style="fill:#51bbef;fill-opacity:1;stroke:none"
       id="rect5408"
       width="3"
       height="3"
       x="-51"
       y="1028.3622" />
    <rect
       transform="scale(-1,1)"
       style="fill:#51bbef;fill-opacity:1;stroke:none"
       id="rect5410"
       width="3"
       height="3"
       x="-55"
       y="1028.3622" />
    <rect
       y="1024.3622"
       x="-51"
       height="3"
       width="3"
       id="rect5412"
       style="fill:#51bbef;fill-opacity:1;stroke:none"
       transform="scale(-1,1)" />
    <rect
       transform="scale(-1,1)"
       style="fill:#51bbef;fill-opacity:1;stroke:none"
       id="rect5414"
       width="3"
       height="3"
       x="-51"
       y="1032.3622" />
  </g>
</svg>
