<?xml version="1.0" encoding="UTF-8" standalone="no"?>
<!-- Created with Inkscape (http://www.inkscape.org/) -->

<svg
   xmlns:dc="http://purl.org/dc/elements/1.1/"
   xmlns:cc="http://creativecommons.org/ns#"
   xmlns:rdf="http://www.w3.org/1999/02/22-rdf-syntax-ns#"
   xmlns:svg="http://www.w3.org/2000/svg"
   xmlns="http://www.w3.org/2000/svg"
   xmlns:xlink="http://www.w3.org/1999/xlink"
   xmlns:sodipodi="http://sodipodi.sourceforge.net/DTD/sodipodi-0.dtd"
   xmlns:inkscape="http://www.inkscape.org/namespaces/inkscape"
   version="1.0"
   width="48"
   height="48"
   id="svg4486"
   sodipodi:version="0.32"
   inkscape:version="0.91 r13725"
   sodipodi:docname="application-x-bzip-compressed-tar.svg"
   inkscape:output_extension="org.inkscape.output.svg.inkscape">
  <metadata
     id="metadata51">
    <rdf:RDF>
      <cc:Work
         rdf:about="">
        <dc:format>image/svg+xml</dc:format>
        <dc:type
           rdf:resource="http://purl.org/dc/dcmitype/StillImage" />
        <dc:title />
      </cc:Work>
    </rdf:RDF>
  </metadata>
  <sodipodi:namedview
     inkscape:window-height="462"
     inkscape:window-width="1162"
     inkscape:pageshadow="2"
     inkscape:pageopacity="0.0"
     guidetolerance="10.0"
     gridtolerance="10.0"
     objecttolerance="10.0"
     borderopacity="1.0"
     bordercolor="#666666"
     pagecolor="#ffffff"
     id="base"
     showgrid="false"
     inkscape:zoom="6.3418637"
     inkscape:cx="35.102885"
     inkscape:cy="24.416589"
     inkscape:window-x="276"
     inkscape:window-y="62"
     inkscape:current-layer="svg4486"
     inkscape:window-maximized="0"
     showguides="true"
     inkscape:guide-bbox="true" />
  <defs
     id="defs4488">
    <linearGradient
       id="linearGradient4110">
      <stop
         style="stop-color:#efc65b;stop-opacity:1"
         offset="0"
         id="stop4112" />
      <stop
         style="stop-color:#fbd277;stop-opacity:1"
         offset="1"
         id="stop4114" />
    </linearGradient>
    <linearGradient
       inkscape:collect="always"
       xlink:href="#linearGradient4110"
       id="linearGradient4108"
       gradientUnits="userSpaceOnUse"
       gradientTransform="matrix(1.2165207,0,0,0.67950897,-5.9382299,15.767855)"
       x1="33.138153"
       y1="31.029055"
       x2="33.138153"
       y2="9.4101439" />
  </defs>
  <path
     style="fill:url(#linearGradient4108);fill-opacity:1"
     d="m 6,12 -2.9999164,4 0,29 41.9998324,0 0,-29 -3,-4 z"
     id="path4191"
     inkscape:connector-curvature="0"
     sodipodi:nodetypes="ccccccc" />
  <path
     style="fill:#ffffff;fill-opacity:1;stroke:none"
     d="m 22,12 4,0 1,4 0,7 -6,0 0,-7 z"
     id="rect14394"
     inkscape:connector-curvature="0"
     sodipodi:nodetypes="ccccccc" />
  <path
     style="fill:#ffffff;fill-opacity:1;stroke:none"
     d="m 3,16 42,0 0,1 -42,0 z"
     id="rect14396"
     inkscape:connector-curvature="0"
     sodipodi:nodetypes="ccccc" />
  <rect
     style="fill:#ffffff;fill-opacity:1;stroke:none"
     id="rect3124"
     width="36"
     height="17"
     x="6"
     y="25" />
  <g
     style="font-size:10.26890182px;font-style:normal;font-weight:normal;line-height:125%;letter-spacing:0px;word-spacing:0px;fill:#e6b849;fill-opacity:1;stroke:none;font-family:Sans"
     id="text3910" />
  <path
     inkscape:connector-curvature="0"
     d="m 9.069627,37.27325 1.29675,0 0,-4.22175 0.78,0 0,-1.17975 -0.78,0 0,-1.80375 -1.29675,0 0,1.80375 -0.63375,0 0,1.17975 0.63375,0 0,4.22175 z"
     style="font-style:normal;font-variant:normal;font-weight:600;font-stretch:normal;font-size:9.75px;line-height:125%;font-family:'URW Gothic L';-inkscape-font-specification:'URW Gothic L Semi-Bold';letter-spacing:0px;word-spacing:0px;fill:#e6b849;fill-opacity:1;stroke:none;stroke-width:1px;stroke-linecap:butt;stroke-linejoin:miter;stroke-opacity:1"
     id="path14953" />
  <path
     inkscape:connector-curvature="0"
     d="m 17.276995,31.87175 -1.1895,0 0,0.7215 c -0.4485,-0.59475 -0.98475,-0.84825 -1.76475,-0.84825 -1.599,0 -2.7495,1.19925 -2.7495,2.847 0,1.62825 1.14075,2.808 2.72025,2.808 0.7605,0 1.27725,-0.24375 1.794,-0.82875 l 0,0.702 1.1895,0 0,-5.4015 z m -2.81775,1.06275 c 0.92625,0 1.58925,0.69225 1.58925,1.677 0,0.39 -0.156,0.8385 -0.39,1.1115 -0.26325,0.312 -0.6825,0.4875 -1.17975,0.4875 -0.94575,0 -1.599,-0.6435 -1.599,-1.58925 0,-0.98475 0.65325,-1.68675 1.5795,-1.68675 z"
     style="font-style:normal;font-variant:normal;font-weight:600;font-stretch:normal;font-size:9.75px;line-height:125%;font-family:'URW Gothic L';-inkscape-font-specification:'URW Gothic L Semi-Bold';letter-spacing:0px;word-spacing:0px;fill:#e6b849;fill-opacity:1;stroke:none;stroke-width:1px;stroke-linecap:butt;stroke-linejoin:miter;stroke-opacity:1"
     id="path14955" />
  <path
     inkscape:connector-curvature="0"
     d="m 18.243768,37.27325 1.29675,0 0,-3.003 c 0,-0.8385 0.38025,-1.25775 1.16025,-1.27725 l 0,-1.248 -0.0975,0 c -0.55575,0 -0.82875,0.156 -1.17,0.65325 l 0,-0.5265 -1.1895,0 0,5.4015 z"
     style="font-style:normal;font-variant:normal;font-weight:600;font-stretch:normal;font-size:9.75px;line-height:125%;font-family:'URW Gothic L';-inkscape-font-specification:'URW Gothic L Semi-Bold';letter-spacing:0px;word-spacing:0px;fill:#e6b849;fill-opacity:1;stroke:none;stroke-width:1px;stroke-linecap:butt;stroke-linejoin:miter;stroke-opacity:1"
     id="path14957" />
  <path
     inkscape:connector-curvature="0"
     d="m 21.542315,37.27325 1.29675,0 0,-1.248 -1.29675,0 0,1.248 z"
     style="font-style:normal;font-variant:normal;font-weight:600;font-stretch:normal;font-size:9.75px;line-height:125%;font-family:'URW Gothic L';-inkscape-font-specification:'URW Gothic L Semi-Bold';letter-spacing:0px;word-spacing:0px;fill:#e6b849;fill-opacity:1;stroke:none;stroke-width:1px;stroke-linecap:butt;stroke-linejoin:miter;stroke-opacity:1"
     id="path14959" />
  <path
     inkscape:connector-curvature="0"
     d="m 24.089959,37.27325 1.1895,0 0,-0.69225 c 0.55575,0.59475 1.0725,0.819 1.872,0.819 0.8385,0 1.5015,-0.312 1.99875,-0.94575 0.4095,-0.5265 0.63375,-1.19925 0.63375,-1.92075 0,-1.62825 -1.17,-2.85675 -2.72025,-2.85675 -0.702,0 -1.17975,0.195 -1.677,0.69225 l 0,-2.301 -1.29675,0 0,7.20525 z m 2.7885,-4.407 c 0.92625,0 1.599,0.71175 1.599,1.677 0,0.98475 -0.6435,1.66725 -1.56975,1.66725 -0.936,0 -1.599,-0.69225 -1.599,-1.677 0,-0.975 0.663,-1.66725 1.56975,-1.66725 z"
     style="font-style:normal;font-variant:normal;font-weight:600;font-stretch:normal;font-size:9.75px;line-height:125%;font-family:'URW Gothic L';-inkscape-font-specification:'URW Gothic L Semi-Bold';letter-spacing:0px;word-spacing:0px;fill:#e6b849;fill-opacity:1;stroke:none;stroke-width:1px;stroke-linecap:butt;stroke-linejoin:miter;stroke-opacity:1"
     id="path14961" />
  <path
     inkscape:connector-curvature="0"
     d="m 30.194983,37.27325 4.1145,0 0,-1.16025 -2.56425,0 2.379,-3.081 0,-1.16025 -3.65625,0 0,1.16025 2.106,0 -2.379,3.081 0,1.16025 z"
     style="font-style:normal;font-variant:normal;font-weight:600;font-stretch:normal;font-size:9.75px;line-height:125%;font-family:'URW Gothic L';-inkscape-font-specification:'URW Gothic L Semi-Bold';letter-spacing:0px;word-spacing:0px;fill:#e6b849;fill-opacity:1;stroke:none;stroke-width:1px;stroke-linecap:butt;stroke-linejoin:miter;stroke-opacity:1"
     id="path14963" />
  <path
     inkscape:connector-curvature="0"
     d="m 34.874373,37.27325 4.6605,0 0,-1.21875 -2.83725,0 1.47225,-1.33575 c 0.5265,-0.47775 0.75075,-0.7215 0.96525,-1.053 0.28275,-0.4095 0.429,-0.897 0.429,-1.3845 0,-1.326 -1.014,-2.34 -2.34975,-2.34 -0.8385,0 -1.599,0.39975 -2.0085,1.06275 -0.273,0.429 -0.38025,0.858 -0.38025,1.55025 l 1.27725,0 c 0,-0.858 0.4485,-1.4235 1.12125,-1.4235 0.59475,0 1.04325,0.4875 1.04325,1.131 0,0.468 -0.24375,0.88725 -0.82875,1.443 l -2.56425,2.42775 0,1.14075 z"
     style="font-style:normal;font-variant:normal;font-weight:600;font-stretch:normal;font-size:9.75px;line-height:125%;font-family:'URW Gothic L';-inkscape-font-specification:'URW Gothic L Semi-Bold';letter-spacing:0px;word-spacing:0px;fill:#e6b849;fill-opacity:1;stroke:none;stroke-width:1px;stroke-linecap:butt;stroke-linejoin:miter;stroke-opacity:1"
     id="path14965" />
</svg>
