<?xml version="1.0" encoding="UTF-8" standalone="no"?>
<!-- Created with Inkscape (http://www.inkscape.org/) -->

<svg
   xmlns:dc="http://purl.org/dc/elements/1.1/"
   xmlns:cc="http://creativecommons.org/ns#"
   xmlns:rdf="http://www.w3.org/1999/02/22-rdf-syntax-ns#"
   xmlns:svg="http://www.w3.org/2000/svg"
   xmlns="http://www.w3.org/2000/svg"
   xmlns:xlink="http://www.w3.org/1999/xlink"
   xmlns:sodipodi="http://sodipodi.sourceforge.net/DTD/sodipodi-0.dtd"
   xmlns:inkscape="http://www.inkscape.org/namespaces/inkscape"
   version="1.0"
   width="48"
   height="48"
   id="svg4486"
   sodipodi:version="0.32"
   inkscape:version="0.91 r13725"
   sodipodi:docname="application-x-bzip.svg"
   inkscape:output_extension="org.inkscape.output.svg.inkscape">
  <metadata
     id="metadata51">
    <rdf:RDF>
      <cc:Work
         rdf:about="">
        <dc:format>image/svg+xml</dc:format>
        <dc:type
           rdf:resource="http://purl.org/dc/dcmitype/StillImage" />
        <dc:title />
      </cc:Work>
    </rdf:RDF>
  </metadata>
  <sodipodi:namedview
     inkscape:window-height="462"
     inkscape:window-width="1162"
     inkscape:pageshadow="2"
     inkscape:pageopacity="0.0"
     guidetolerance="10.0"
     gridtolerance="10.0"
     objecttolerance="10.0"
     borderopacity="1.0"
     bordercolor="#666666"
     pagecolor="#ffffff"
     id="base"
     showgrid="false"
     inkscape:zoom="6.3418637"
     inkscape:cx="10.898644"
     inkscape:cy="24.219909"
     inkscape:window-x="195"
     inkscape:window-y="170"
     inkscape:current-layer="svg4486"
     inkscape:window-maximized="0"
     showguides="true"
     inkscape:guide-bbox="true" />
  <defs
     id="defs4488">
    <linearGradient
       id="linearGradient4110">
      <stop
         style="stop-color:#efc65b;stop-opacity:1"
         offset="0"
         id="stop4112" />
      <stop
         style="stop-color:#fbd277;stop-opacity:1"
         offset="1"
         id="stop4114" />
    </linearGradient>
    <linearGradient
       inkscape:collect="always"
       xlink:href="#linearGradient4110"
       id="linearGradient4108"
       gradientUnits="userSpaceOnUse"
       gradientTransform="matrix(1.2165207,0,0,0.67950897,-5.9382299,15.767855)"
       x1="33.138153"
       y1="31.029055"
       x2="33.138153"
       y2="9.4101439" />
  </defs>
  <path
     style="fill:url(#linearGradient4108);fill-opacity:1"
     d="m 6,12 -2.9999164,4 0,29 41.9998324,0 0,-29 -3,-4 z"
     id="path4191"
     inkscape:connector-curvature="0"
     sodipodi:nodetypes="ccccccc" />
  <path
     style="fill:#ffffff;fill-opacity:1;stroke:none"
     d="m 22,12 4,0 1,4 0,7 -6,0 0,-7 z"
     id="rect14394"
     inkscape:connector-curvature="0"
     sodipodi:nodetypes="ccccccc" />
  <path
     style="fill:#ffffff;fill-opacity:1;stroke:none"
     d="m 3,16 42,0 0,1 -42,0 z"
     id="rect14396"
     inkscape:connector-curvature="0"
     sodipodi:nodetypes="ccccc" />
  <rect
     style="fill:#ffffff;fill-opacity:1;stroke:none"
     id="rect3124"
     width="36"
     height="17"
     x="6"
     y="25" />
  <g
     style="font-size:10.26890182px;font-style:normal;font-weight:normal;line-height:125%;letter-spacing:0px;word-spacing:0px;fill:#e6b849;fill-opacity:1;stroke:none;font-family:Sans"
     id="text3910" />
  <path
     inkscape:connector-curvature="0"
     d="m 14.664155,37.847058 1.435295,0 0,-0.835293 C 16.770036,37.729411 17.393567,38 18.358273,38 c 1.011765,0 1.811764,-0.376471 2.411764,-1.141177 0.494118,-0.635294 0.764705,-1.447059 0.764705,-2.317647 0,-1.964705 -1.411764,-3.447058 -3.282354,-3.447058 -0.847057,0 -1.423529,0.235294 -2.023528,0.835294 l 0,-2.77647 -1.564706,0 0,8.694116 z m 3.364705,-5.317647 c 1.117648,0 1.929412,0.858825 1.929412,2.023531 0,1.188235 -0.776471,2.011763 -1.894118,2.011763 -1.129411,0 -1.929411,-0.835294 -1.929411,-2.023529 0,-1.176469 0.800001,-2.011765 1.894117,-2.011765 z"
     style="font-style:normal;font-variant:normal;font-weight:600;font-stretch:normal;font-size:9.75px;line-height:125%;font-family:'URW Gothic L';-inkscape-font-specification:'URW Gothic L Semi-Bold';letter-spacing:0px;word-spacing:0px;fill:#e6b849;fill-opacity:1;stroke:none;stroke-width:1px;stroke-linecap:butt;stroke-linejoin:miter;stroke-opacity:1"
     id="path14961" />
  <path
     inkscape:connector-curvature="0"
     d="m 22.030701,37.847058 4.964703,0 0,-1.4 -3.094116,0 2.870587,-3.717645 0,-1.400001 -4.411765,0 0,1.400001 2.541178,0 -2.870588,3.717645 0,1.4 z"
     style="font-style:normal;font-variant:normal;font-weight:600;font-stretch:normal;font-size:9.75px;line-height:125%;font-family:'URW Gothic L';-inkscape-font-specification:'URW Gothic L Semi-Bold';letter-spacing:0px;word-spacing:0px;fill:#e6b849;fill-opacity:1;stroke:none;stroke-width:1px;stroke-linecap:butt;stroke-linejoin:miter;stroke-opacity:1"
     id="path14963" />
  <path
     inkscape:connector-curvature="0"
     d="m 27.677022,37.847058 5.623528,0 0,-1.470587 -3.423529,0 1.776471,-1.611766 c 0.635294,-0.57647 0.905884,-0.870588 1.164706,-1.270588 C 33.159374,33 33.335846,32.411764 33.335846,31.82353 33.335846,30.22353 32.112316,29 30.500552,29 29.488788,29 28.57114,29.482352 28.077022,30.282353 27.74761,30.8 27.618198,31.317647 27.618198,32.15294 l 1.541176,0 c 0,-1.035293 0.541176,-1.717645 1.352941,-1.717645 0.717648,0 1.258824,0.588234 1.258824,1.364706 0,0.564705 -0.294118,1.070588 -0.999999,1.741176 l -3.094119,2.929412 0,1.376469 z"
     style="font-style:normal;font-variant:normal;font-weight:600;font-stretch:normal;font-size:9.75px;line-height:125%;font-family:'URW Gothic L';-inkscape-font-specification:'URW Gothic L Semi-Bold';letter-spacing:0px;word-spacing:0px;fill:#e6b849;fill-opacity:1;stroke:none;stroke-width:1px;stroke-linecap:butt;stroke-linejoin:miter;stroke-opacity:1"
     id="path14965" />
</svg>
