<?xml version="1.0" encoding="UTF-8" standalone="no"?>
<!-- Created with Inkscape (http://www.inkscape.org/) -->

<svg
   xmlns:dc="http://purl.org/dc/elements/1.1/"
   xmlns:cc="http://creativecommons.org/ns#"
   xmlns:rdf="http://www.w3.org/1999/02/22-rdf-syntax-ns#"
   xmlns:svg="http://www.w3.org/2000/svg"
   xmlns="http://www.w3.org/2000/svg"
   xmlns:xlink="http://www.w3.org/1999/xlink"
   xmlns:sodipodi="http://sodipodi.sourceforge.net/DTD/sodipodi-0.dtd"
   xmlns:inkscape="http://www.inkscape.org/namespaces/inkscape"
   version="1.0"
   width="48"
   height="48"
   id="svg4018"
   inkscape:version="0.91 r13725"
   sodipodi:docname="application-vnd.flowblade-project.svg">
  <metadata
     id="metadata217738">
    <rdf:RDF>
      <cc:Work
         rdf:about="">
        <dc:format>image/svg+xml</dc:format>
        <dc:type
           rdf:resource="http://purl.org/dc/dcmitype/StillImage" />
        <dc:title />
      </cc:Work>
    </rdf:RDF>
  </metadata>
  <sodipodi:namedview
     pagecolor="#ffffff"
     bordercolor="#666666"
     borderopacity="1"
     objecttolerance="10"
     gridtolerance="10"
     guidetolerance="10"
     inkscape:pageopacity="0"
     inkscape:pageshadow="2"
     inkscape:window-width="1440"
     inkscape:window-height="855"
     id="namedview217736"
     showgrid="false"
     inkscape:zoom="8.59433"
     inkscape:cx="28.676254"
     inkscape:cy="28.703815"
     inkscape:window-x="0"
     inkscape:window-y="0"
     inkscape:window-maximized="1"
     inkscape:current-layer="svg4018"
     showguides="true"
     inkscape:guide-bbox="true" />
  <defs
     id="defs4020">
    <linearGradient
       id="linearGradient4274"
       inkscape:collect="always">
      <stop
         id="stop4276"
         offset="0"
         style="stop-color:#e78ead;stop-opacity:1" />
      <stop
         id="stop4278"
         offset="1"
         style="stop-color:#f9a7c5;stop-opacity:1" />
    </linearGradient>
    <linearGradient
       inkscape:collect="always"
       xlink:href="#linearGradient4274"
       id="linearGradient4238"
       x1="-42"
       y1="-23.886944"
       x2="-6"
       y2="-23.886944"
       gradientUnits="userSpaceOnUse"
       gradientTransform="matrix(0.69444443,0,0,2.2082769,-1.8333334,28.748982)" />
  </defs>
  <rect
     transform="scale(1,-1)"
     y="-46"
     x="7"
     height="44"
     width="34"
     id="rect5634-0-6-0-7-5-3"
     style="fill:#ffffff;fill-opacity:1;stroke:none" />
  <rect
     transform="matrix(0,-1,-1,0,0,0)"
     style="fill:#ec92b2;fill-opacity:1;stroke:none"
     id="rect4154"
     width="5"
     height="1"
     x="-46"
     y="-8" />
  <rect
     y="-46"
     x="7"
     height="1"
     width="5"
     id="rect4156"
     style="fill:#ec92b2;fill-opacity:1;stroke:none"
     transform="scale(1,-1)" />
  <rect
     transform="scale(1,-1)"
     style="fill:#ec92b2;fill-opacity:1;stroke:none"
     id="rect4170"
     width="5"
     height="1"
     x="17"
     y="-46" />
  <rect
     y="-46"
     x="26"
     height="1"
     width="5"
     id="rect4172"
     style="fill:#ec92b2;fill-opacity:1;stroke:none"
     transform="scale(1,-1)" />
  <rect
     transform="scale(1,-1)"
     style="fill:#ec92b2;fill-opacity:1;stroke:none"
     id="rect4174"
     width="5"
     height="1"
     x="36"
     y="-46" />
  <rect
     y="-41"
     x="-46"
     height="1"
     width="5"
     id="rect4176"
     style="fill:#ec92b2;fill-opacity:1;stroke:none"
     transform="matrix(0,-1,-1,0,0,0)" />
  <rect
     transform="matrix(0,-1,-1,0,0,0)"
     style="fill:#ec92b2;fill-opacity:1;stroke:none"
     id="rect4178"
     width="5"
     height="1"
     x="-36"
     y="-41" />
  <rect
     y="-41"
     x="-26"
     height="1"
     width="5"
     id="rect4180"
     style="fill:#ec92b2;fill-opacity:1;stroke:none"
     transform="matrix(0,-1,-1,0,0,0)" />
  <rect
     transform="matrix(0,-1,-1,0,0,0)"
     style="fill:#ec92b2;fill-opacity:1;stroke:none"
     id="rect4182"
     width="5"
     height="1"
     x="-16"
     y="-41" />
  <rect
     y="-41"
     x="-7"
     height="1"
     width="5"
     id="rect4186"
     style="fill:#ec92b2;fill-opacity:1;stroke:none"
     transform="matrix(0,-1,-1,0,0,0)" />
  <rect
     y="-3"
     x="36"
     height="1"
     width="5"
     id="rect4188"
     style="fill:#ec92b2;fill-opacity:1;stroke:none"
     transform="scale(1,-1)" />
  <rect
     transform="scale(1,-1)"
     style="fill:#ec92b2;fill-opacity:1;stroke:none"
     id="rect4192"
     width="5"
     height="1"
     x="7"
     y="-3" />
  <rect
     y="-3"
     x="17"
     height="1"
     width="5"
     id="rect4194"
     style="fill:#ec92b2;fill-opacity:1;stroke:none"
     transform="scale(1,-1)" />
  <rect
     transform="scale(1,-1)"
     style="fill:#ec92b2;fill-opacity:1;stroke:none"
     id="rect4196"
     width="5"
     height="1"
     x="26"
     y="-3" />
  <rect
     y="-8"
     x="-36"
     height="1"
     width="5"
     id="rect4198"
     style="fill:#ec92b2;fill-opacity:1;stroke:none"
     transform="matrix(0,-1,-1,0,0,0)" />
  <rect
     transform="matrix(0,-1,-1,0,0,0)"
     style="fill:#ec92b2;fill-opacity:1;stroke:none"
     id="rect4200"
     width="5"
     height="1"
     x="-26"
     y="-8" />
  <rect
     y="-8"
     x="-16"
     height="1"
     width="5"
     id="rect4202"
     style="fill:#ec92b2;fill-opacity:1;stroke:none"
     transform="matrix(0,-1,-1,0,0,0)" />
  <rect
     transform="matrix(0,-1,-1,0,0,0)"
     style="fill:#ec92b2;fill-opacity:1;stroke:none"
     id="rect4204"
     width="5"
     height="1"
     x="-7"
     y="-8" />
  <rect
     y="-37"
     x="-31"
     height="26"
     width="25"
     id="rect4497-4-36-7-7-4-7-37-4-7-0-1-0"
     style="fill:url(#linearGradient4238);fill-opacity:1;stroke:none"
     transform="matrix(0,-1,-1,0,0,0)" />
  <rect
     style="fill:#ffffff;fill-opacity:1;stroke:none"
     id="rect16697-4-2-3-8-8-0"
     y="-17"
     x="12"
     height="3"
     width="3"
     transform="scale(1,-1)" />
  <rect
     transform="scale(1,-1)"
     width="3"
     height="3"
     x="12"
     y="-23"
     id="rect4214"
     style="fill:#ffffff;fill-opacity:1;stroke:none" />
  <rect
     transform="scale(1,-1)"
     width="3"
     height="3"
     x="12"
     y="-11"
     id="rect4228"
     style="fill:#ffffff;fill-opacity:1;stroke:none" />
  <rect
     y="-37"
     x="17"
     height="2"
     width="2"
     id="rect4266"
     style="fill:#f5a2c0;fill-opacity:1;stroke:none"
     transform="scale(1,-1)" />
  <rect
     transform="matrix(0,-1,-1,0,0,0)"
     style="fill:#ffffff;fill-opacity:1;stroke:none"
     id="rect4268"
     width="25"
     height="1"
     x="-31"
     y="-17" />
  <rect
     style="fill:#ffffff;fill-opacity:1;stroke:none"
     id="rect4280"
     y="-29"
     x="12"
     height="3"
     width="3"
     transform="scale(1,-1)" />
  <rect
     transform="scale(-1,-1)"
     width="3"
     height="3"
     x="-36"
     y="-17"
     id="rect4290"
     style="fill:#ffffff;fill-opacity:1;stroke:none" />
  <rect
     style="fill:#ffffff;fill-opacity:1;stroke:none"
     id="rect4292"
     y="-23"
     x="-36"
     height="3"
     width="3"
     transform="scale(-1,-1)" />
  <rect
     style="fill:#ffffff;fill-opacity:1;stroke:none"
     id="rect4294"
     y="-11"
     x="-36"
     height="3"
     width="3"
     transform="scale(-1,-1)" />
  <rect
     y="31"
     x="-31"
     height="1"
     width="25"
     id="rect4296"
     style="fill:#ffffff;fill-opacity:1;stroke:none"
     transform="matrix(0,-1,1,0,0,0)" />
  <rect
     transform="scale(-1,-1)"
     width="3"
     height="3"
     x="-36"
     y="-29"
     id="rect4298"
     style="fill:#ffffff;fill-opacity:1;stroke:none" />
  <rect
     transform="matrix(0,-1,-1,0,0,0)"
     style="fill:#ec92b2;fill-opacity:1;stroke:none"
     id="rect4300"
     width="12"
     height="1"
     x="-42"
     y="-12" />
  <rect
     y="-37"
     x="-42"
     height="1"
     width="12"
     id="rect4302"
     style="fill:#ec92b2;fill-opacity:1;stroke:none"
     transform="matrix(0,-1,-1,0,0,0)" />
  <rect
     y="-42"
     x="11"
     height="1"
     width="26"
     id="rect4304"
     style="fill:#ec92b2;fill-opacity:1;stroke:none"
     transform="scale(1,-1)" />
  <rect
     transform="scale(1,-1)"
     style="fill:#f5a2c0;fill-opacity:1;stroke:none"
     id="rect4310"
     width="2"
     height="2"
     x="23"
     y="-37" />
  <rect
     y="-37"
     x="29"
     height="2"
     width="2"
     id="rect4312"
     style="fill:#f5a2c0;fill-opacity:1;stroke:none"
     transform="scale(1,-1)" />
</svg>
