<?xml version="1.0" encoding="UTF-8" standalone="no"?>
<!-- Created with Inkscape (http://www.inkscape.org/) -->

<svg
   xmlns:dc="http://purl.org/dc/elements/1.1/"
   xmlns:cc="http://creativecommons.org/ns#"
   xmlns:rdf="http://www.w3.org/1999/02/22-rdf-syntax-ns#"
   xmlns:svg="http://www.w3.org/2000/svg"
   xmlns="http://www.w3.org/2000/svg"
   xmlns:xlink="http://www.w3.org/1999/xlink"
   xmlns:sodipodi="http://sodipodi.sourceforge.net/DTD/sodipodi-0.dtd"
   xmlns:inkscape="http://www.inkscape.org/namespaces/inkscape"
   version="1.0"
   width="48"
   height="48"
   id="svg4486"
   sodipodi:version="0.32"
   inkscape:version="0.91 r13725"
   sodipodi:docname="application-7zip.svg"
   inkscape:output_extension="org.inkscape.output.svg.inkscape">
  <metadata
     id="metadata51">
    <rdf:RDF>
      <cc:Work
         rdf:about="">
        <dc:format>image/svg+xml</dc:format>
        <dc:type
           rdf:resource="http://purl.org/dc/dcmitype/StillImage" />
        <dc:title />
      </cc:Work>
    </rdf:RDF>
  </metadata>
  <sodipodi:namedview
     inkscape:window-height="462"
     inkscape:window-width="1162"
     inkscape:pageshadow="2"
     inkscape:pageopacity="0.0"
     guidetolerance="10.0"
     gridtolerance="10.0"
     objecttolerance="10.0"
     borderopacity="1.0"
     bordercolor="#666666"
     pagecolor="#ffffff"
     id="base"
     showgrid="false"
     inkscape:zoom="3.1709318"
     inkscape:cx="19.476462"
     inkscape:cy="36.677949"
     inkscape:window-x="276"
     inkscape:window-y="168"
     inkscape:current-layer="svg4486"
     inkscape:window-maximized="0"
     showguides="true"
     inkscape:guide-bbox="true" />
  <defs
     id="defs4488">
    <linearGradient
       id="linearGradient4110">
      <stop
         style="stop-color:#efc65b;stop-opacity:1"
         offset="0"
         id="stop4112" />
      <stop
         style="stop-color:#fbd277;stop-opacity:1"
         offset="1"
         id="stop4114" />
    </linearGradient>
    <linearGradient
       inkscape:collect="always"
       xlink:href="#linearGradient4110"
       id="linearGradient4108"
       gradientUnits="userSpaceOnUse"
       gradientTransform="matrix(1.2165207,0,0,0.67950897,-5.9382299,15.767855)"
       x1="33.138153"
       y1="31.029055"
       x2="33.138153"
       y2="9.4101439" />
  </defs>
  <path
     style="fill:url(#linearGradient4108);fill-opacity:1"
     d="m 6,12 -2.9999164,4 0,29 41.9998324,0 0,-29 -3,-4 z"
     id="path4191"
     inkscape:connector-curvature="0"
     sodipodi:nodetypes="ccccccc" />
  <path
     style="fill:#ffffff;fill-opacity:1;stroke:none"
     d="m 22,12 4,0 1,4 0,7 -6,0 0,-7 z"
     id="rect14394"
     inkscape:connector-curvature="0"
     sodipodi:nodetypes="ccccccc" />
  <path
     style="fill:#ffffff;fill-opacity:1;stroke:none"
     d="m 3,16 42,0 0,1 -42,0 z"
     id="rect14396"
     inkscape:connector-curvature="0"
     sodipodi:nodetypes="ccccc" />
  <rect
     style="fill:#ffffff;fill-opacity:1;stroke:none"
     id="rect3124"
     width="36"
     height="17"
     x="6"
     y="25" />
  <path
     inkscape:connector-curvature="0"
     id="text3329"
     style="fill:#e6b849;fill-opacity:1"
     d="m 13.192129,38.143 h 1.8 c 1.08,-2.456 2.16,-4.912 3.24,-7.368 v -1.5 h -5.22 v 1.5 h 3.54 c -1.12,2.456 -2.24,4.912 -3.36,7.368 z m 6.0066,0 h 5.064 v -1.428 h -3.156 l 2.928,-3.792 v -1.428 h -4.5 v 1.428 h 2.592 l -2.928,3.792 v 1.428 z m 5.9392,0 h 1.596 v -6.648 h -1.596 v 6.648 z m 0,-7.368 h 1.596 v -1.5 h -1.596 v 1.5 z m 2.8828,9.588 h 1.596 v -2.844 c 1.5027,1.4596 4.3091,0.76654 5.0506,-1.1697 0.79425,-1.7371 0.08508,-4.1721 -1.8234,-4.8113 -1.1307,-0.40611 -2.5539,-0.21369 -3.3592,0.73698 -0.08219,-0.25043 0.20116,-0.8664 -0.21786,-0.78 h -1.2461 v 8.868 z m 3.444,-7.56 c 1.4784,-0.05671 2.3679,1.7667 1.6837,2.9926 -0.57098,1.3057 -2.5934,1.3782 -3.3025,0.16457 -0.84594,-1.2619 0.01461,-3.2113 1.6187,-3.1572 l -10e-7,-1e-6 z" />
</svg>
