<?xml version="1.0" encoding="UTF-8" standalone="no"?>
<!-- Created with Inkscape (http://www.inkscape.org/) -->

<svg
   xmlns:dc="http://purl.org/dc/elements/1.1/"
   xmlns:cc="http://creativecommons.org/ns#"
   xmlns:rdf="http://www.w3.org/1999/02/22-rdf-syntax-ns#"
   xmlns:svg="http://www.w3.org/2000/svg"
   xmlns="http://www.w3.org/2000/svg"
   xmlns:xlink="http://www.w3.org/1999/xlink"
   xmlns:sodipodi="http://sodipodi.sourceforge.net/DTD/sodipodi-0.dtd"
   xmlns:inkscape="http://www.inkscape.org/namespaces/inkscape"
   version="1.0"
   width="48"
   height="48"
   id="svg3578"
   inkscape:version="0.91 r13725"
   sodipodi:docname="application-x-apple-diskimage.svg">
  <metadata
     id="metadata119201">
    <rdf:RDF>
      <cc:Work
         rdf:about="">
        <dc:format>image/svg+xml</dc:format>
        <dc:type
           rdf:resource="http://purl.org/dc/dcmitype/StillImage" />
        <dc:title />
      </cc:Work>
    </rdf:RDF>
  </metadata>
  <sodipodi:namedview
     pagecolor="#ffffff"
     bordercolor="#666666"
     borderopacity="1"
     objecttolerance="10"
     gridtolerance="10"
     guidetolerance="10"
     inkscape:pageopacity="0"
     inkscape:pageshadow="2"
     inkscape:window-width="1440"
     inkscape:window-height="852"
     id="namedview119199"
     showgrid="false"
     inkscape:zoom="3.9999998"
     inkscape:cx="31.799563"
     inkscape:cy="29.936625"
     inkscape:window-x="0"
     inkscape:window-y="0"
     inkscape:window-maximized="1"
     inkscape:current-layer="svg3578"
     inkscape:snap-center="true"
     inkscape:snap-object-midpoints="true"
     inkscape:object-nodes="true"
     inkscape:snap-intersection-paths="true"
     inkscape:object-paths="true"
     inkscape:snap-smooth-nodes="true" />
  <defs
     id="defs3580">
    <linearGradient
       inkscape:collect="always"
       id="linearGradient4667">
      <stop
         style="stop-color:#4da1cc;stop-opacity:1"
         offset="0"
         id="stop4669" />
      <stop
         style="stop-color:#76bce8;stop-opacity:1"
         offset="1"
         id="stop4671" />
    </linearGradient>
    <linearGradient
       inkscape:collect="always"
       xlink:href="#linearGradient4667"
       id="linearGradient16130-1-8-71-5-4"
       gradientUnits="userSpaceOnUse"
       gradientTransform="matrix(0.98333336,0,0,0.77751945,53.59998,6.3674545)"
       x1="-29.694916"
       y1="44.701263"
       x2="-29.694916"
       y2="0.91525328" />
  </defs>
  <rect
     style="fill:#4ea1cc;fill-opacity:1;stroke:none"
     id="rect4154-0-5-2-8-1-2"
     width="38"
     height="38"
     x="5"
     y="5"
     ry="3"
     rx="3" />
  <rect
     y="6.0000005"
     x="6"
     height="36"
     width="36"
     id="rect4150-2-6-8-8-2-5"
     style="fill:#ffffff;fill-opacity:1;stroke:none"
     ry="2"
     rx="2" />
  <rect
     style="fill:url(#linearGradient16130-1-8-71-5-4);fill-opacity:1;stroke:none"
     id="rect3362-9-2-0-41-0-3"
     width="34"
     height="34"
     x="7"
     y="7.0000005"
     ry="1"
     rx="1" />
  <path
     transform="matrix(-0.42386307,-0.48169517,-0.88381487,1.2376702,43.008757,10.00861)"
     d="M 17.324116,13.199262 14.515612,10.390758 17.324116,7.5822535 20.13262,10.390757 Z"
     inkscape:randomized="0"
     inkscape:rounded="0"
     inkscape:flatsided="true"
     sodipodi:arg2="2.3561945"
     sodipodi:arg1="1.5707963"
     sodipodi:r2="1.9859123"
     sodipodi:r1="2.8085041"
     sodipodi:cy="10.390758"
     sodipodi:cx="17.324116"
     sodipodi:sides="4"
     id="path4509"
     style="opacity:1;fill:#ffffff;fill-opacity:1;stroke:none;stroke-width:2.25;stroke-linecap:round;stroke-miterlimit:4;stroke-dasharray:none;stroke-opacity:1"
     sodipodi:type="star" />
  <path
     style="opacity:1;fill:#ffffff;fill-opacity:1;stroke:none;stroke-width:2.25;stroke-linecap:round;stroke-miterlimit:4;stroke-dasharray:none;stroke-opacity:1"
     d="M 20.791592,18 A 10.372246,9.3873183 0 0 0 14,26.802902 10.372246,9.3873183 0 0 0 22.316029,35.993124 5.1861231,4.6936593 0 0 1 24.372246,35.603514 5.1861231,4.6936593 0 0 1 26.448721,36 10.372246,9.3873183 0 0 0 34,30.279602 5.1861231,4.6936593 0 0 1 29.474804,25.629489 5.1861231,4.6936593 0 0 1 32.731325,21.275019 10.372246,9.3873183 0 0 0 27.9529,18.004583 10.372246,9.3873183 0 0 1 24.372246,18.588999 10.372246,9.3873183 0 0 1 20.791592,18 Z"
     id="path4511"
     inkscape:connector-curvature="0" />
  <path
     sodipodi:type="star"
     style="opacity:1;fill:#ffffff;fill-opacity:1;stroke:none;stroke-width:2.25;stroke-linecap:round;stroke-miterlimit:4;stroke-dasharray:none;stroke-opacity:1"
     id="path4524"
     sodipodi:sides="4"
     sodipodi:cx="17.324116"
     sodipodi:cy="10.390758"
     sodipodi:r1="2.8085041"
     sodipodi:r2="1.9859123"
     sodipodi:arg1="1.5707963"
     sodipodi:arg2="2.3561945"
     inkscape:flatsided="true"
     inkscape:rounded="0"
     inkscape:randomized="0"
     d="M 17.324116,13.199262 14.515612,10.390758 17.324116,7.5822535 20.13262,10.390757 Z"
     transform="matrix(0.42386307,-0.48169517,0.88381487,1.2376702,4.9912434,10.00861)" />
  <path
     style="opacity:1;fill:#54a5d1;fill-opacity:1;stroke:none;stroke-width:2.25;stroke-linecap:round;stroke-miterlimit:4;stroke-dasharray:none;stroke-opacity:1"
     d="M 23.974609 34.726562 C 22.296942 34.726562 20.853997 35.245266 20.105469 36 L 27.841797 36 C 27.093124 35.245532 25.651917 34.726562 23.974609 34.726562 z "
     id="path4526" />
</svg>
