<?xml version="1.0" encoding="UTF-8" standalone="no"?>
<!-- Created with Inkscape (http://www.inkscape.org/) -->

<svg
   xmlns:dc="http://purl.org/dc/elements/1.1/"
   xmlns:cc="http://creativecommons.org/ns#"
   xmlns:rdf="http://www.w3.org/1999/02/22-rdf-syntax-ns#"
   xmlns:svg="http://www.w3.org/2000/svg"
   xmlns="http://www.w3.org/2000/svg"
   xmlns:xlink="http://www.w3.org/1999/xlink"
   xmlns:sodipodi="http://sodipodi.sourceforge.net/DTD/sodipodi-0.dtd"
   xmlns:inkscape="http://www.inkscape.org/namespaces/inkscape"
   version="1.0"
   width="48"
   height="48"
   id="svg4486"
   sodipodi:version="0.32"
   inkscape:version="0.91 r13725"
   sodipodi:docname="application-x-cbr.svg"
   inkscape:output_extension="org.inkscape.output.svg.inkscape">
  <metadata
     id="metadata51">
    <rdf:RDF>
      <cc:Work
         rdf:about="">
        <dc:format>image/svg+xml</dc:format>
        <dc:type
           rdf:resource="http://purl.org/dc/dcmitype/StillImage" />
        <dc:title />
      </cc:Work>
    </rdf:RDF>
  </metadata>
  <sodipodi:namedview
     inkscape:window-height="556"
     inkscape:window-width="1162"
     inkscape:pageshadow="2"
     inkscape:pageopacity="0.0"
     guidetolerance="10.0"
     gridtolerance="10.0"
     objecttolerance="10.0"
     borderopacity="1.0"
     bordercolor="#666666"
     pagecolor="#ffffff"
     id="base"
     showgrid="false"
     inkscape:zoom="20.72146"
     inkscape:cx="25.700944"
     inkscape:cy="19.214985"
     inkscape:window-x="99"
     inkscape:window-y="53"
     inkscape:current-layer="svg4486"
     inkscape:window-maximized="0"
     showguides="true"
     inkscape:guide-bbox="true" />
  <defs
     id="defs4488">
    <linearGradient
       id="linearGradient4110">
      <stop
         style="stop-color:#efc65b;stop-opacity:1"
         offset="0"
         id="stop4112" />
      <stop
         style="stop-color:#fbd277;stop-opacity:1"
         offset="1"
         id="stop4114" />
    </linearGradient>
    <linearGradient
       inkscape:collect="always"
       xlink:href="#linearGradient4110"
       id="linearGradient4108"
       gradientUnits="userSpaceOnUse"
       gradientTransform="matrix(1.2165207,0,0,0.67950897,-5.9382299,15.767855)"
       x1="33.138153"
       y1="31.029055"
       x2="33.138153"
       y2="9.4101439" />
  </defs>
  <path
     style="fill:url(#linearGradient4108);fill-opacity:1"
     d="m 6,12 -2.9999164,4 0,29 41.9998324,0 0,-29 -3,-4 z"
     id="path4191"
     inkscape:connector-curvature="0"
     sodipodi:nodetypes="ccccccc" />
  <path
     style="fill:#ffffff;fill-opacity:1;stroke:none"
     d="m 22,12 4,0 1,4 0,6 -6,0 0,-6 z"
     id="rect14394"
     inkscape:connector-curvature="0"
     sodipodi:nodetypes="ccccccc" />
  <path
     style="fill:#ffffff;fill-opacity:1;stroke:none"
     d="m 3,16 42,0 0,1 -42,0 z"
     id="rect14396"
     inkscape:connector-curvature="0"
     sodipodi:nodetypes="ccccc" />
  <rect
     style="fill:#ffffff;fill-opacity:1;stroke:none"
     id="rect3124"
     width="28"
     height="16"
     x="10"
     y="23"
     rx="2.8"
     ry="3.2" />
  <path
     inkscape:connector-curvature="0"
     d="m 18.881184,32.692155 c -0.390559,0.603589 -0.840294,0.863962 -1.491223,0.863962 -1.08883,0 -1.905452,-0.852126 -1.905452,-2.000133 0,-1.148006 0.781116,-1.976462 1.869947,-1.976462 0.710105,0 1.207182,0.295878 1.526728,0.899469 l 1.775265,0 c -0.224866,-0.662766 -0.437898,-1.005986 -0.887632,-1.420214 -0.639097,-0.591755 -1.503059,-0.923138 -2.414361,-0.923138 -1.940959,0 -3.455852,1.503058 -3.455852,3.432181 0,1.905452 1.562233,3.43218 3.503191,3.43218 1.526728,0 2.710239,-0.840294 3.254655,-2.307845 l -1.775267,0 z"
     style="font-style:normal;font-variant:normal;font-weight:600;font-stretch:normal;font-size:15px;line-height:125%;font-family:'URW Gothic L';-inkscape-font-specification:'URW Gothic L Semi-Bold';letter-spacing:0px;word-spacing:0px;fill:#e6b849;fill-opacity:1;stroke:none;stroke-width:1px;stroke-linecap:butt;stroke-linejoin:miter;stroke-opacity:1"
     id="path16289" />
  <path
     inkscape:connector-curvature="0"
     d="m 21.929814,34.846144 1.443883,0 0,-0.840294 C 24.048298,34.727793 24.675558,35 25.646039,35 c 1.017817,0 1.822604,-0.378724 2.426195,-1.148005 0.497076,-0.639095 0.769283,-1.455719 0.769283,-2.331516 0,-1.976462 -1.420214,-3.467686 -3.301994,-3.467686 -0.85213,0 -1.432048,0.236701 -2.035639,0.840292 l 0,-2.793085 -1.57407,0 0,8.746144 z m 3.384842,-5.349468 c 1.124334,0 1.940957,0.863963 1.940957,2.035639 0,1.195345 -0.781117,2.023802 -1.905452,2.023802 -1.136169,0 -1.940958,-0.840292 -1.940958,-2.035638 0,-1.18351 0.804789,-2.023803 1.905453,-2.023803 z"
     style="font-style:normal;font-variant:normal;font-weight:600;font-stretch:normal;font-size:15px;line-height:125%;font-family:'URW Gothic L';-inkscape-font-specification:'URW Gothic L Semi-Bold';letter-spacing:0px;word-spacing:0px;fill:#e6b849;fill-opacity:1;stroke:none;stroke-width:1px;stroke-linecap:butt;stroke-linejoin:miter;stroke-opacity:1"
     id="path16291" />
  <path
     sodipodi:type="star"
     style="fill:#ffffff;fill-opacity:1;stroke:none;stroke-width:2;stroke-miterlimit:4;stroke-dasharray:none;stroke-opacity:1"
     id="path17038"
     sodipodi:sides="3"
     sodipodi:cx="24.033054"
     sodipodi:cy="41.726311"
     sodipodi:r1="3.0060451"
     sodipodi:r2="1.5030226"
     sodipodi:arg1="1.5707963"
     sodipodi:arg2="2.6179939"
     inkscape:flatsided="false"
     inkscape:rounded="0"
     inkscape:randomized="0"
     d="m 24.033054,44.732356 -1.301655,-2.254534 -1.301656,-2.254534 2.603311,0 2.603312,0 -1.301656,2.254534 z"
     inkscape:transform-center-y="0.8333349"
     transform="matrix(1.1523785,0,0,1.1088767,-3.6951751,-5.6026657)" />
  <path
     inkscape:connector-curvature="0"
     d="m 30.298604,34.801085 1.53074,0 0,-3.561826 c 0,-0.994537 1.351307,-1.491806 2.272052,-1.514934 l 0,-1.48024 -1.017536,0 c -0.656031,0 -0.978292,0.185031 -1.381118,0.774813 l 0,-0.624476 -1.404138,0 z"
     style="font-style:normal;font-variant:normal;font-weight:600;font-stretch:normal;font-size:15px;line-height:125%;font-family:'URW Gothic L';-inkscape-font-specification:'URW Gothic L Semi-Bold';letter-spacing:0px;word-spacing:0px;fill:#e6b849;fill-opacity:1;stroke:none;stroke-width:1px;stroke-linecap:butt;stroke-linejoin:miter;stroke-opacity:1"
     id="path16293"
     sodipodi:nodetypes="ccsccscccc" />
</svg>
