<?xml version="1.0" encoding="UTF-8" standalone="no"?>
<!-- Created with Inkscape (http://www.inkscape.org/) -->

<svg
   xmlns:dc="http://purl.org/dc/elements/1.1/"
   xmlns:cc="http://creativecommons.org/ns#"
   xmlns:rdf="http://www.w3.org/1999/02/22-rdf-syntax-ns#"
   xmlns:svg="http://www.w3.org/2000/svg"
   xmlns="http://www.w3.org/2000/svg"
   xmlns:xlink="http://www.w3.org/1999/xlink"
   xmlns:sodipodi="http://sodipodi.sourceforge.net/DTD/sodipodi-0.dtd"
   xmlns:inkscape="http://www.inkscape.org/namespaces/inkscape"
   version="1.0"
   width="48"
   height="48"
   id="svg2453"
   inkscape:version="0.91 r13725"
   sodipodi:docname="image-x-xcf.svg">
  <metadata
     id="metadata298222">
    <rdf:RDF>
      <cc:Work
         rdf:about="">
        <dc:format>image/svg+xml</dc:format>
        <dc:type
           rdf:resource="http://purl.org/dc/dcmitype/StillImage" />
      </cc:Work>
    </rdf:RDF>
  </metadata>
  <sodipodi:namedview
     pagecolor="#ffffff"
     bordercolor="#666666"
     borderopacity="1"
     objecttolerance="10"
     gridtolerance="10"
     guidetolerance="10"
     inkscape:pageopacity="0"
     inkscape:pageshadow="2"
     inkscape:window-width="1440"
     inkscape:window-height="855"
     id="namedview298220"
     showgrid="false"
     inkscape:zoom="1.9931507"
     inkscape:cx="96.995165"
     inkscape:cy="89.066329"
     inkscape:window-x="0"
     inkscape:window-y="0"
     inkscape:window-maximized="1"
     inkscape:current-layer="svg2453" />
  <defs
     id="defs2455">
    <linearGradient
       gradientTransform="translate(3.0566406e-7,-1.21e-6)"
       inkscape:collect="always"
       xlink:href="#linearGradient4730"
       id="linearGradient4236"
       x1="22.375"
       y1="41.740829"
       x2="22.375"
       y2="10.328576"
       gradientUnits="userSpaceOnUse" />
    <linearGradient
       id="linearGradient4730"
       inkscape:collect="always">
      <stop
         id="stop4732"
         offset="0"
         style="stop-color:#3c3c3c;stop-opacity:1" />
      <stop
         id="stop4734"
         offset="1"
         style="stop-color:#7d7d7d;stop-opacity:1" />
    </linearGradient>
  </defs>
  <rect
     y="7"
     x="2"
     height="37"
     width="44"
     id="rect4240"
     style="fill:#646464;fill-opacity:1;stroke:none;stroke-width:0.40000001;stroke-miterlimit:4;stroke-dasharray:none;stroke-opacity:1" />
  <rect
     style="fill:#ffffff;fill-opacity:1;stroke:none;stroke-width:0.40000001;stroke-miterlimit:4;stroke-dasharray:none;stroke-opacity:1"
     id="rect4238"
     width="42"
     height="35"
     x="3"
     y="8" />
  <rect
     style="fill:url(#linearGradient4236);fill-opacity:1;stroke:none;stroke-width:0.40000001;stroke-miterlimit:4;stroke-dasharray:none;stroke-opacity:1"
     id="rect4220"
     width="38"
     height="31"
     x="5"
     y="10" />
  <path
     id="path4894-7"
     inkscape:connector-curvature="0"
     d="m 15.019637,10.739809 c 0,0 2.404819,6.139893 9.112354,6.489372 14.056714,0.729287 17.083412,-6.421749 17.517126,-7.453732 0.433723,-1.0319833 0.959898,-0.8300003 1.00886,0.158454 C 44.018389,51.946249 9.0680483,31.269112 8.3254326,24.074124 15.704339,22.512499 14.257827,18.316708 14.257827,18.316708 l 0.76181,-7.576899 z"
     style="color:#000000;display:inline;overflow:visible;visibility:visible;fill:#ffffff;fill-opacity:1;fill-rule:evenodd;stroke:#ffffff;stroke-width:0.60865796;stroke-linecap:butt;stroke-linejoin:miter;stroke-miterlimit:10;stroke-dasharray:none;stroke-dashoffset:0;stroke-opacity:1;marker:none" />
  <path
     inkscape:connector-curvature="0"
     d="m 19.002809,28.724606 c 6.604877,1.863464 10.117632,0.879084 12.236651,-0.515298 -0.475164,-0.72476 -1.319191,-1.544566 -1.319191,-1.544566 0,0 2.292393,0.833744 3.034913,1.965488 0.740396,1.128491 0.172594,1.744786 -0.147858,3.090885 -0.386883,-1.233853 -1.246793,-1.751707 -1.331197,-2.236612 -1.99062,2.354611 -6.462668,1.905418 -12.473317,-0.759897 z"
     style="color:#000000;display:inline;overflow:visible;visibility:visible;fill:#555555;fill-opacity:1;fill-rule:evenodd;stroke:none;stroke-width:0.9999997;marker:none"
     id="path6480-0-1" />
  <path
     inkscape:connector-curvature="0"
     d="m 21.635082,20.217656 a 4.0597023,4.0720971 4.7087973 1 1 -8.09535,-0.624537 4.0597023,4.0720971 4.7087973 0 1 8.09535,0.624537 z"
     style="color:#000000;display:inline;overflow:visible;visibility:visible;fill:#ffffff;fill-opacity:1;fill-rule:evenodd;stroke:#ffffff;stroke-width:0.60865802;stroke-linecap:butt;stroke-linejoin:miter;stroke-miterlimit:10;stroke-dasharray:none;stroke-dashoffset:0;stroke-opacity:1;marker:none"
     id="path4357-6-0" />
  <path
     id="path4898-6"
     inkscape:connector-curvature="0"
     d="M 13.453819,21.125312 A 6.1017235,4.3290186 58.856199 0 1 6.0698836,25.646414 6.1017235,4.3290186 58.856199 1 1 13.453819,21.125312 Z"
     style="color:#000000;display:inline;overflow:visible;visibility:visible;fill:#ffffff;fill-opacity:1;fill-rule:evenodd;stroke:#ffffff;stroke-width:0.60865819;stroke-linecap:butt;stroke-linejoin:miter;stroke-miterlimit:10;stroke-dasharray:none;stroke-dashoffset:0;stroke-opacity:1;marker:none" />
  <path
     id="path4900-0"
     inkscape:connector-curvature="0"
     d="m 30.664281,21.35816 a 4.7657362,4.7802867 4.7087964 0 1 -9.503235,-0.733143 4.7657362,4.7802867 4.7087964 1 1 9.503235,0.733143 z"
     style="color:#000000;display:inline;overflow:visible;visibility:visible;fill:#ffffff;fill-opacity:1;fill-rule:evenodd;stroke:#ffffff;stroke-width:0.60865796;stroke-linecap:butt;stroke-linejoin:miter;stroke-miterlimit:10;stroke-dasharray:none;stroke-dashoffset:0;stroke-opacity:1;marker:none" />
  <path
     inkscape:connector-curvature="0"
     d="m 26.106843,30.950695 c 1.479645,0.257875 2.85786,-0.053 3.433163,-0.211329 0.140575,-0.547049 0.659098,-1.577722 2.167292,-1.531891 l -0.456435,-0.967472 c 0,0 -2.061723,1.194935 -4.18221,1.430886 l -0.96181,1.279806 z"
     style="color:#000000;display:inline;overflow:visible;visibility:visible;fill:#555555;fill-opacity:1;fill-rule:evenodd;stroke:none;stroke-width:0.9999997;marker:none"
     id="path8532-2-8" />
  <g
     transform="matrix(-0.03928095,-0.25315745,0.25273945,-0.03953157,27.920641,29.548099)"
     id="g8463-68-3-4-4"
     style="fill:#ffffff;fill-opacity:1;stroke:#cfcfcf;stroke-width:0.966317;stroke-opacity:1">
    <path
       inkscape:connector-curvature="0"
       d="m -23.364209,23.568336 3.710098,3.469175 C -11.307128,20.656664 -2.5600338,6.9381374 -2.5600338,6.9381374 -0.58371893,4.6957251 -2.6769537,3.1876548 -4.7249404,4.5402186 c 0,0 -12.9703626,10.1148664 -18.6392686,19.0281174 z"
       style="color:#000000;display:inline;overflow:visible;visibility:visible;fill:#ffffff;fill-opacity:1;fill-rule:nonzero;stroke:#ffffff;stroke-width:2.3775773;stroke-linecap:round;stroke-linejoin:miter;stroke-miterlimit:4;stroke-dasharray:none;stroke-dashoffset:0;stroke-opacity:1;marker:none"
       id="path6937-0-8-2-7" />
    <path
       inkscape:connector-curvature="0"
       d="m -30.449715,32.813894 2.24632,1.93382 8.492766,-7.367031 0.275061,-0.705828 1.094405,-0.01782 c -0.4375,-1.5625 -2.941514,-4.383455 -4.816514,-4.383455 l 0.08202,1.090075 -0.669991,0.380027 -6.704066,9.070207 z"
       style="color:#000000;display:inline;overflow:visible;visibility:visible;fill:#ffffff;fill-opacity:1;fill-rule:nonzero;stroke:#ffffff;stroke-width:2.3775773;stroke-linecap:round;stroke-linejoin:miter;stroke-miterlimit:4;stroke-dasharray:none;stroke-dashoffset:0;stroke-opacity:1;marker:none"
       id="path6935-5-3-3-4" />
    <path
       inkscape:connector-curvature="0"
       d="m -45.341208,42.769835 c 10.443958,0 18.370039,1.24373 19.870605,-6.354738 1.209249,-6.123314 -7.210534,-9.057368 -11.38287,-3.590861 -4.019277,5.265971 -8.487735,9.945599 -8.487735,9.945599 z"
       style="color:#000000;display:inline;overflow:visible;visibility:visible;fill:#ffffff;fill-opacity:1;fill-rule:nonzero;stroke:#ffffff;stroke-width:2.34375525;stroke-miterlimit:4;stroke-dasharray:none;stroke-opacity:1;marker:none"
       id="path6933-1-6-2-3" />
    <path
       inkscape:connector-curvature="0"
       d="m -40.554362,40.520338 c 0,0 7.083856,0.275438 10.536733,-4.304937 1.221618,-1.620525 3.316916,1.969039 1.698637,3.299993 -3.495454,2.874822 -12.235363,1.00494 -12.235363,1.00494 z"
       style="color:#000000;display:inline;overflow:visible;visibility:visible;fill:#ffffff;fill-opacity:1;fill-rule:nonzero;stroke:none;stroke-width:0.91134036;marker:none"
       id="path1571-2-5-9-3" />
  </g>
  <rect
     style="fill:#ffffff;fill-opacity:1;stroke:none"
     id="rect5125"
     width="42"
     height="10"
     x="2.9999974"
     y="33.099678" />
  <g
     transform="matrix(1.0162808,0,0,0.98398002,-2.4228329e-6,-0.90032334)"
     style="font-style:normal;font-variant:normal;font-weight:normal;font-stretch:normal;font-size:10.76853848px;line-height:125%;font-family:'Nimbus Sans L';-inkscape-font-specification:'Nimbus Sans L';letter-spacing:1px;word-spacing:0px;fill:#a8a8a8;fill-opacity:1;stroke:none"
     id="text5127">
    <path
       d="m 18.294735,39.517845 1.895263,-2.72444 -1.012243,0 -1.356835,2.046022 -1.356836,-2.046022 -1.023011,0 1.884494,2.767514 -1.99218,2.8752 1.023011,0 1.432216,-2.164476 1.410678,2.164476 1.044549,0 -1.949106,-2.918274"
       id="path5210"
       inkscape:connector-curvature="0"
       style="fill:#555555;fill-opacity:1" />
    <path
       d="m 26.7045,38.688668 c -0.04307,-0.549195 -0.161528,-0.904558 -0.376899,-1.216845 -0.387667,-0.527658 -1.066086,-0.839946 -1.852189,-0.839946 -1.518362,0 -2.509069,1.206078 -2.509069,3.079802 0,1.819881 0.96917,2.972116 2.498301,2.972116 1.346066,0 2.196782,-0.807641 2.304467,-2.186013 l -0.904557,0 c -0.15076,0.904556 -0.613808,1.356836 -1.378373,1.356836 -0.990705,0 -1.582975,-0.807642 -1.582975,-2.142939 0,-1.410677 0.581502,-2.250625 1.561438,-2.250625 0.753797,0 1.227613,0.441511 1.335299,1.227614 l 0.904557,0"
       id="path5212"
       inkscape:connector-curvature="0"
       style="fill:#555555;fill-opacity:1" />
    <path
       d="m 31.897653,36.793405 -1.33092,0 0,-0.88302 c 0,-0.376899 0.215371,-0.570733 0.624575,-0.570733 0.07538,0 0.107685,0 0.312287,0.01077 l 0,-0.743029 c -0.204602,-0.04307 -0.323056,-0.05384 -0.506121,-0.05384 -0.829177,0 -1.32453,0.473816 -1.32453,1.281456 l 0,0.9584 -1.14739,0 0,0.732261 1.14739,0 0,4.910453 0.893789,0 0,-4.910453 1.33092,0 0,-0.732261"
       id="path5214"
       inkscape:connector-curvature="0"
       sodipodi:nodetypes="ccssccssccccccccc"
       style="fill:#555555;fill-opacity:1" />
  </g>
  <circle
     r="2.3954999"
     cy="20.551638"
     cx="18.412447"
     style="fill:#555555;fill-opacity:1;stroke:none"
     id="path5480" />
  <circle
     r="2.5734661"
     cy="21.803068"
     cx="26.999998"
     style="fill:#555555;fill-opacity:1;stroke:none"
     id="path5480-7" />
  <circle
     r="2.5734661"
     cy="20.430185"
     cx="25.881353"
     id="path5504"
     style="fill:#ffffff;fill-opacity:1;stroke:none" />
  <circle
     r="2.3954999"
     cy="19.178755"
     cx="17.649734"
     id="path5506"
     style="fill:#ffffff;fill-opacity:1;stroke:none" />
</svg>
