<?xml version="1.0" encoding="UTF-8" standalone="no"?>
<!-- Created with Inkscape (http://www.inkscape.org/) -->

<svg
   xmlns:dc="http://purl.org/dc/elements/1.1/"
   xmlns:cc="http://creativecommons.org/ns#"
   xmlns:rdf="http://www.w3.org/1999/02/22-rdf-syntax-ns#"
   xmlns:svg="http://www.w3.org/2000/svg"
   xmlns="http://www.w3.org/2000/svg"
   xmlns:xlink="http://www.w3.org/1999/xlink"
   xmlns:sodipodi="http://sodipodi.sourceforge.net/DTD/sodipodi-0.dtd"
   xmlns:inkscape="http://www.inkscape.org/namespaces/inkscape"
   version="1.0"
   width="48"
   height="48"
   id="svg2453"
   inkscape:version="0.91 r13725"
   sodipodi:docname="image-x-win-bitmap.svg">
  <metadata
     id="metadata298222">
    <rdf:RDF>
      <cc:Work
         rdf:about="">
        <dc:format>image/svg+xml</dc:format>
        <dc:type
           rdf:resource="http://purl.org/dc/dcmitype/StillImage" />
        <dc:title />
      </cc:Work>
    </rdf:RDF>
  </metadata>
  <sodipodi:namedview
     pagecolor="#ffffff"
     bordercolor="#666666"
     borderopacity="1"
     objecttolerance="10"
     gridtolerance="10"
     guidetolerance="10"
     inkscape:pageopacity="0"
     inkscape:pageshadow="2"
     inkscape:window-width="1288"
     inkscape:window-height="567"
     id="namedview298220"
     showgrid="false"
     inkscape:zoom="6.4128646"
     inkscape:cx="21.258559"
     inkscape:cy="31.927924"
     inkscape:window-x="0"
     inkscape:window-y="0"
     inkscape:window-maximized="0"
     inkscape:current-layer="layer1" />
  <defs
     id="defs2455">
    <linearGradient
       gradientTransform="translate(7.684082e-6,1.4e-6)"
       inkscape:collect="always"
       xlink:href="#linearGradient5472"
       id="linearGradient4236"
       x1="22.375"
       y1="42.272984"
       x2="22.375"
       y2="10.0625"
       gradientUnits="userSpaceOnUse" />
    <linearGradient
       inkscape:collect="always"
       id="linearGradient5472">
      <stop
         style="stop-color:#3c3c3c;stop-opacity:1"
         offset="0"
         id="stop5474" />
      <stop
         style="stop-color:#9c9c9c;stop-opacity:1"
         offset="1"
         id="stop5476" />
    </linearGradient>
  </defs>
  <g
     id="layer1">
    <rect
       y="7"
       x="2"
       height="37"
       width="44"
       id="rect4240"
       style="fill:#838383;fill-opacity:1;stroke:none;stroke-width:0.40000001;stroke-miterlimit:4;stroke-dasharray:none;stroke-opacity:1" />
    <rect
       style="fill:#ffffff;fill-opacity:1;stroke:none;stroke-width:0.40000001;stroke-miterlimit:4;stroke-dasharray:none;stroke-opacity:1"
       id="rect4238"
       width="42"
       height="35"
       x="3"
       y="8" />
    <rect
       style="fill:url(#linearGradient4236);fill-opacity:1;stroke:none;stroke-width:0.40000001;stroke-miterlimit:4;stroke-dasharray:none;stroke-opacity:1"
       id="rect4220"
       width="38"
       height="31"
       x="5"
       y="10" />
    <rect
       style="fill:#ffffff;fill-opacity:1;stroke:none"
       id="rect5125-7-7"
       width="42"
       height="10"
       x="2.9999893"
       y="33.000004" />
    <g
       transform="matrix(1.0365637,0,0,0.97404923,59.460242,-2.9142635)"
       style="font-style:normal;font-variant:normal;font-weight:normal;font-stretch:normal;font-size:13.79077816px;line-height:125%;font-family:Sans;-inkscape-font-specification:Sans;letter-spacing:0px;word-spacing:0px;fill:#ffffff;fill-opacity:1;stroke:none;stroke-width:0.39808109;stroke-miterlimit:4;stroke-dasharray:none;stroke-opacity:1"
       id="text3191-7-3">
      <path
         d="m -43.219216,26.131757 q 0,-1.366957 -0.565637,-2.141342 -0.558904,-0.781118 -1.542035,-0.781118 -0.983132,0 -1.548769,0.781118 -0.558904,0.774385 -0.558904,2.141342 0,1.366957 0.558904,2.148075 0.565637,0.774385 1.548769,0.774385 0.983131,0 1.542035,-0.774385 0.565637,-0.781118 0.565637,-2.148075 z m -4.215345,-2.632908 q 0.390559,-0.673377 0.983132,-0.996599 0.599306,-0.329955 1.427561,-0.329955 1.373691,0 2.22888,1.090872 0.861924,1.090872 0.861924,2.86859 0,1.777717 -0.861924,2.868589 -0.855189,1.090872 -2.22888,1.090872 -0.828255,0 -1.427561,-0.323221 -0.592573,-0.329955 -0.983132,-1.003333 l 0,1.131275 -1.245749,0 0,-10.477759 1.245749,0 0,4.080669 z"
         id="path4419"
         inkscape:connector-curvature="0"
         style="stroke:none;stroke-width:0.39808109;stroke-miterlimit:4;stroke-dasharray:none;stroke-opacity:1" />
      <path
         d="m -34.007407,23.801869 q 0.464631,-0.834988 1.111074,-1.232281 0.646442,-0.397293 1.521834,-0.397293 1.178411,0 1.81812,0.828255 0.639709,0.821521 0.639709,2.343355 l 0,4.552034 -1.245749,0 0,-4.511632 q 0,-1.084138 -0.383826,-1.609373 -0.383825,-0.525234 -1.171677,-0.525234 -0.96293,0 -1.521834,0.639709 -0.558904,0.639708 -0.558904,1.744048 l 0,4.262482 -1.245749,0 0,-4.511632 q 0,-1.090872 -0.383825,-1.609373 -0.383825,-0.525234 -1.185145,-0.525234 -0.949463,0 -1.508366,0.646442 -0.558904,0.639709 -0.558904,1.737315 l 0,4.262482 -1.245749,0 0,-7.541832 1.245749,0 0,1.171678 q 0.424228,-0.69358 1.016801,-1.023535 0.592572,-0.329955 1.407359,-0.329955 0.821521,0 1.393892,0.417494 0.579105,0.417495 0.85519,1.21208 z"
         id="path4421"
         inkscape:connector-curvature="0"
         style="stroke:none;stroke-width:0.39808109;stroke-miterlimit:4;stroke-dasharray:none;stroke-opacity:1" />
      <path
         d="m -25.240027,28.764664 0,3.999864 -1.245749,0 0,-10.410421 1.245749,0 0,1.144742 q 0.39056,-0.673377 0.983132,-0.996599 0.599306,-0.329955 1.427561,-0.329955 1.373691,0 2.228881,1.090872 0.861923,1.090872 0.861923,2.86859 0,1.777717 -0.861923,2.868589 -0.85519,1.090872 -2.228881,1.090872 -0.828255,0 -1.427561,-0.323221 -0.592572,-0.329955 -0.983132,-1.003333 z m 4.215346,-2.632907 q 0,-1.366957 -0.565638,-2.141342 -0.558903,-0.781118 -1.542035,-0.781118 -0.983132,0 -1.548769,0.781118 -0.558904,0.774385 -0.558904,2.141342 0,1.366957 0.558904,2.148075 0.565637,0.774385 1.548769,0.774385 0.983132,0 1.542035,-0.774385 0.565638,-0.781118 0.565638,-2.148075 z"
         id="path4423"
         inkscape:connector-curvature="0"
         style="stroke:none;stroke-width:0.39808109;stroke-miterlimit:4;stroke-dasharray:none;stroke-opacity:1" />
    </g>
  </g>
</svg>
