<?xml version="1.0" encoding="UTF-8" standalone="no"?>
<!-- Created with Inkscape (http://www.inkscape.org/) -->

<svg
   xmlns:dc="http://purl.org/dc/elements/1.1/"
   xmlns:cc="http://creativecommons.org/ns#"
   xmlns:rdf="http://www.w3.org/1999/02/22-rdf-syntax-ns#"
   xmlns:svg="http://www.w3.org/2000/svg"
   xmlns="http://www.w3.org/2000/svg"
   xmlns:xlink="http://www.w3.org/1999/xlink"
   xmlns:sodipodi="http://sodipodi.sourceforge.net/DTD/sodipodi-0.dtd"
   xmlns:inkscape="http://www.inkscape.org/namespaces/inkscape"
   version="1.0"
   width="48"
   height="48"
   id="svg2453"
   inkscape:version="0.91 r13725"
   sodipodi:docname="image-tiff.svg">
  <metadata
     id="metadata300464">
    <rdf:RDF>
      <cc:Work
         rdf:about="">
        <dc:format>image/svg+xml</dc:format>
        <dc:type
           rdf:resource="http://purl.org/dc/dcmitype/StillImage" />
      </cc:Work>
    </rdf:RDF>
  </metadata>
  <sodipodi:namedview
     pagecolor="#ffffff"
     bordercolor="#666666"
     borderopacity="1"
     objecttolerance="10"
     gridtolerance="10"
     guidetolerance="10"
     inkscape:pageopacity="0"
     inkscape:pageshadow="2"
     inkscape:window-width="1440"
     inkscape:window-height="852"
     id="namedview300462"
     showgrid="false"
     inkscape:zoom="5.8961589"
     inkscape:cx="39.157804"
     inkscape:cy="5.2296019"
     inkscape:window-x="0"
     inkscape:window-y="0"
     inkscape:window-maximized="1"
     inkscape:current-layer="svg2453" />
  <defs
     id="defs2455">
    <linearGradient
       gradientTransform="translate(7.5390625e-7,-1.5e-6)"
       inkscape:collect="always"
       xlink:href="#linearGradient5472"
       id="linearGradient4236"
       x1="22.375"
       y1="42.272984"
       x2="22.375"
       y2="10.0625"
       gradientUnits="userSpaceOnUse" />
    <linearGradient
       inkscape:collect="always"
       id="linearGradient5472">
      <stop
         style="stop-color:#3c3c3c;stop-opacity:1"
         offset="0"
         id="stop5474" />
      <stop
         style="stop-color:#9c9c9c;stop-opacity:1"
         offset="1"
         id="stop5476" />
    </linearGradient>
  </defs>
  <rect
     y="7"
     x="2"
     height="37"
     width="44"
     id="rect4240"
     style="fill:#838383;fill-opacity:1;stroke:none;stroke-width:0.40000001;stroke-miterlimit:4;stroke-dasharray:none;stroke-opacity:1" />
  <rect
     style="fill:#ffffff;fill-opacity:1;stroke:none;stroke-width:0.40000001;stroke-miterlimit:4;stroke-dasharray:none;stroke-opacity:1"
     id="rect4238"
     width="42"
     height="35"
     x="3"
     y="8" />
  <rect
     style="fill:url(#linearGradient4236);fill-opacity:1;stroke:none;stroke-width:0.40000001;stroke-miterlimit:4;stroke-dasharray:none;stroke-opacity:1"
     id="rect4220"
     width="38"
     height="31"
     x="5"
     y="10" />
  <rect
     style="fill:#ffffff;fill-opacity:1;stroke:none"
     id="rect5125"
     width="42"
     height="10"
     x="2.9999967"
     y="33.000004" />
  <g
     style="font-style:normal;font-variant:normal;font-weight:normal;font-stretch:normal;font-size:15px;line-height:125%;font-family:'Nimbus Sans L';-inkscape-font-specification:'Nimbus Sans L';letter-spacing:1.75px;word-spacing:0px;fill:#ffffff;fill-opacity:1;stroke:none;stroke-width:1px;stroke-linecap:butt;stroke-linejoin:miter;stroke-opacity:1"
     id="text4195"
     transform="matrix(1.2639671,0,0,1.0596026,-4.9132472,-1.0092713)">
    <path
       d="m 16.189922,18.795001 -1.29,0 0,-2.16 -1.245,0 0,2.16 -1.065,0 0,1.02 1.065,0 0,5.94 c 0,0.795 0.54,1.245 1.515,1.245 0.3,0 0.6,-0.03 1.02,-0.105 l 0,-1.05 c -0.165,0.045 -0.36,0.06 -0.6,0.06 -0.54,0 -0.69,-0.15 -0.69,-0.705 l 0,-5.385 1.29,0 0,-1.02 z"
       id="path4195"
       inkscape:connector-curvature="0" />
    <path
       d="m 20.540078,18.795001 -1.245,0 0,7.86 1.245,0 0,-7.86 z m 0,-3.075 -1.26,0 0,1.575 1.26,0 0,-1.575 z"
       id="path4197"
       inkscape:connector-curvature="0" />
    <path
       d="m 27.249922,18.795001 -1.305,0 0,-1.23 c 0,-0.525 0.3,-0.795 0.87,-0.795 0.105,0 0.15,0 0.435,0.015 l 0,-1.035 c -0.285,-0.06 -0.45,-0.075 -0.705,-0.075 -1.155,0 -1.845,0.66 -1.845,1.785 l 0,1.335 -1.05,0 0,1.02 1.05,0 0,6.84 1.245,0 0,-6.84 1.305,0 0,-1.02 z"
       id="path4199"
       inkscape:connector-curvature="0" />
    <path
       d="m 33.160078,18.795001 -1.305,0 0,-1.23 c 0,-0.525 0.3,-0.795 0.87,-0.795 0.105,0 0.15,0 0.435,0.015 l 0,-1.035 c -0.285,-0.06 -0.45,-0.075 -0.705,-0.075 -1.155,0 -1.845,0.66 -1.845,1.785 l 0,1.335 -1.05,0 0,1.02 1.05,0 0,6.84 1.245,0 0,-6.84 1.305,0 0,-1.02 z"
       id="path4201"
       inkscape:connector-curvature="0" />
  </g>
</svg>
