<?xml version="1.0" encoding="UTF-8" standalone="no"?>
<!-- Created with Inkscape (http://www.inkscape.org/) -->

<svg
   xmlns:dc="http://purl.org/dc/elements/1.1/"
   xmlns:cc="http://creativecommons.org/ns#"
   xmlns:rdf="http://www.w3.org/1999/02/22-rdf-syntax-ns#"
   xmlns:svg="http://www.w3.org/2000/svg"
   xmlns="http://www.w3.org/2000/svg"
   xmlns:xlink="http://www.w3.org/1999/xlink"
   xmlns:sodipodi="http://sodipodi.sourceforge.net/DTD/sodipodi-0.dtd"
   xmlns:inkscape="http://www.inkscape.org/namespaces/inkscape"
   version="1.0"
   width="48"
   height="48"
   id="svg4486"
   sodipodi:version="0.32"
   inkscape:version="0.91 r13725"
   sodipodi:docname="text-x-css.svg"
   inkscape:output_extension="org.inkscape.output.svg.inkscape">
  <metadata
     id="metadata51">
    <rdf:RDF>
      <cc:Work
         rdf:about="">
        <dc:format>image/svg+xml</dc:format>
        <dc:type
           rdf:resource="http://purl.org/dc/dcmitype/StillImage" />
        <dc:title />
      </cc:Work>
    </rdf:RDF>
  </metadata>
  <sodipodi:namedview
     inkscape:window-height="693"
     inkscape:window-width="1007"
     inkscape:pageshadow="2"
     inkscape:pageopacity="0.0"
     guidetolerance="10.0"
     gridtolerance="10.0"
     objecttolerance="10.0"
     borderopacity="1.0"
     bordercolor="#666666"
     pagecolor="#ffffff"
     id="base"
     showgrid="false"
     inkscape:zoom="7.6831419"
     inkscape:cx="13.656783"
     inkscape:cy="24.439549"
     inkscape:window-x="318"
     inkscape:window-y="615"
     inkscape:current-layer="svg4486"
     inkscape:window-maximized="0"
     inkscape:snap-object-midpoints="true" />
  <defs
     id="defs4488">
    <linearGradient
       inkscape:collect="always"
       xlink:href="#linearGradient4132-8"
       id="linearGradient4138-6"
       x1="-29.694916"
       y1="44.701263"
       x2="-29.694916"
       y2="0.91525328"
       gradientUnits="userSpaceOnUse"
       gradientTransform="matrix(0.86764708,0,0,0.91472876,50.117651,3.255814)" />
    <linearGradient
       inkscape:collect="always"
       id="linearGradient4132-8">
      <stop
         style="stop-color:#98c5da;stop-opacity:1"
         offset="0"
         id="stop4134-65" />
      <stop
         style="stop-color:#b4d5e4;stop-opacity:1"
         offset="1"
         id="stop4136-9" />
    </linearGradient>
  </defs>
  <rect
     style="fill:#63a5c9;fill-opacity:1;stroke:none"
     id="rect4154-0"
     width="34"
     height="44"
     x="7"
     y="2" />
  <rect
     y="3"
     x="8"
     height="42"
     width="32"
     id="rect4150-2"
     style="fill:#ffffff;fill-opacity:1;stroke:none" />
  <rect
     style="fill:url(#linearGradient4138-6);fill-opacity:1;stroke:none"
     id="rect3362-9"
     width="30"
     height="40"
     x="9"
     y="4.0000005" />
  <rect
     style="fill:#ffffff;fill-opacity:1;stroke:none"
     id="rect4140-7"
     width="22"
     height="2"
     x="13"
     y="13" />
  <rect
     y="18"
     x="13"
     height="2"
     width="22"
     id="rect4142-3"
     style="fill:#ffffff;fill-opacity:1;stroke:none" />
  <rect
     style="fill:#ffffff;fill-opacity:1;stroke:none"
     id="rect4144-3"
     width="22"
     height="2"
     x="13"
     y="23" />
  <g
     style="font-style:normal;font-variant:normal;font-weight:bold;font-stretch:normal;font-size:15.11530685px;line-height:125%;font-family:Loma;-inkscape-font-specification:'Loma Bold';letter-spacing:0px;word-spacing:0px;fill:#ffffff;fill-opacity:1;stroke:none;stroke-width:1px;stroke-linecap:butt;stroke-linejoin:miter;stroke-opacity:1"
     id="text4376">
    <path
       d="m 16.800301,36.011871 q 0.789716,0 1.210406,-0.391167 0.42807,-0.398548 0.442831,-1.203025 l 1.623715,0 q -0.02214,0.723291 -0.250938,1.284211 -0.221416,0.560919 -0.553539,0.893043 -0.332124,0.324742 -0.774955,0.538778 -0.442831,0.206654 -0.84876,0.280459 -0.405928,0.07381 -0.833999,0.07381 -1.616334,0 -2.590562,-1.092318 -0.974229,-1.092317 -0.974229,-2.915305 0,-1.911555 0.922565,-3.040775 0.922565,-1.12922 2.649607,-1.12922 1.439202,0 2.339625,0.826619 0.900424,0.819238 0.900424,2.118209 l -1.608954,0 q -0.0074,-0.634725 -0.479734,-1.048034 -0.464973,-0.420689 -1.099697,-0.420689 -0.56092,0 -0.974229,0.250937 -0.405929,0.243557 -0.619964,0.656867 -0.214035,0.405928 -0.309982,0.841379 -0.09595,0.435451 -0.09595,0.907804 0,1.158742 0.494495,1.867272 0.494495,0.701149 1.431821,0.701149 z"
       style=""
       id="path4378" />
    <path
       d="m 27.192075,34.99336 q 0,1.14398 -0.900424,1.822988 -0.893043,0.679008 -2.258439,0.679008 -0.767574,0 -1.365396,-0.184513 -0.597823,-0.184513 -0.952088,-0.464973 -0.354265,-0.28046 -0.590441,-0.664247 -0.236177,-0.383787 -0.332124,-0.723291 -0.08857,-0.339504 -0.110708,-0.70853 l 1.623715,0 q 0.07381,0.619964 0.516636,0.944707 0.450212,0.324743 1.203025,0.324743 0.738052,0 1.136601,-0.273079 0.405928,-0.28046 0.405928,-0.612584 0,-0.221415 -0.07381,-0.383787 -0.0738,-0.162371 -0.177132,-0.265698 -0.103328,-0.103328 -0.324743,-0.177133 -0.214036,-0.08119 -0.398549,-0.125469 -0.177132,-0.04428 -0.516636,-0.103327 -0.457592,-0.08119 -0.767574,-0.147611 -0.302602,-0.07381 -0.671628,-0.177132 -0.361645,-0.110708 -0.597822,-0.228796 -0.228796,-0.125469 -0.464973,-0.302602 -0.236176,-0.184513 -0.369026,-0.405928 -0.132849,-0.221416 -0.221415,-0.524017 -0.08119,-0.302602 -0.08119,-0.679008 0,-1.055415 0.804477,-1.675378 0.811857,-0.627345 2.081307,-0.627345 0.627344,0 1.129219,0.110708 0.509256,0.110708 0.833999,0.309982 0.332124,0.191894 0.56092,0.42807 0.236177,0.228796 0.354265,0.516637 0.118088,0.28784 0.169752,0.538778 0.05166,0.250938 0.05904,0.516636 l -1.623715,0 q -0.07381,-0.944706 -1.387538,-0.944706 -0.70853,0 -1.033272,0.243557 -0.324743,0.243557 -0.324743,0.560919 0,0.199274 0.07381,0.354265 0.08119,0.154991 0.199274,0.258319 0.118088,0.09595 0.324743,0.177132 0.214035,0.08119 0.405928,0.125469 0.199275,0.04428 0.501876,0.103327 1.771325,0.324743 2.465094,0.819238 0.693769,0.494495 0.693769,1.564671 z"
       style=""
       id="path4380" />
    <path
       d="m 34.749728,34.99336 q 0,1.14398 -0.900423,1.822988 -0.893043,0.679008 -2.25844,0.679008 -0.767574,0 -1.365396,-0.184513 -0.597822,-0.184513 -0.952087,-0.464973 -0.354265,-0.28046 -0.590442,-0.664247 -0.236177,-0.383787 -0.332123,-0.723291 -0.08857,-0.339504 -0.110708,-0.70853 l 1.623714,0 q 0.07381,0.619964 0.516637,0.944707 0.450212,0.324743 1.203025,0.324743 0.738052,0 1.1366,-0.273079 0.405929,-0.28046 0.405929,-0.612584 0,-0.221415 -0.07381,-0.383787 -0.07381,-0.162371 -0.177132,-0.265698 -0.103327,-0.103328 -0.324743,-0.177133 -0.214035,-0.08119 -0.398548,-0.125469 -0.177133,-0.04428 -0.516637,-0.103327 -0.457592,-0.08119 -0.767574,-0.147611 -0.302601,-0.07381 -0.671627,-0.177132 -0.361646,-0.110708 -0.597822,-0.228796 -0.228796,-0.125469 -0.464973,-0.302602 -0.236177,-0.184513 -0.369026,-0.405928 -0.13285,-0.221416 -0.221416,-0.524017 -0.08119,-0.302602 -0.08119,-0.679008 0,-1.055415 0.804477,-1.675378 0.811858,-0.627345 2.081307,-0.627345 0.627344,0 1.12922,0.110708 0.509256,0.110708 0.833999,0.309982 0.332123,0.191894 0.560919,0.42807 0.236177,0.228796 0.354265,0.516637 0.118089,0.28784 0.169752,0.538778 0.05166,0.250938 0.05904,0.516636 l -1.623714,0 q -0.07381,-0.944706 -1.387538,-0.944706 -0.70853,0 -1.033273,0.243557 -0.324743,0.243557 -0.324743,0.560919 0,0.199274 0.07381,0.354265 0.08119,0.154991 0.199274,0.258319 0.118089,0.09595 0.324743,0.177132 0.214035,0.08119 0.405929,0.125469 0.199274,0.04428 0.501875,0.103327 1.771325,0.324743 2.465094,0.819238 0.693769,0.494495 0.693769,1.564671 z"
       style=""
       id="path4382" />
  </g>
</svg>
