<?xml version="1.0" encoding="UTF-8" standalone="no"?>
<!-- Created with Inkscape (http://www.inkscape.org/) -->

<svg
   xmlns:dc="http://purl.org/dc/elements/1.1/"
   xmlns:cc="http://creativecommons.org/ns#"
   xmlns:rdf="http://www.w3.org/1999/02/22-rdf-syntax-ns#"
   xmlns:svg="http://www.w3.org/2000/svg"
   xmlns="http://www.w3.org/2000/svg"
   xmlns:xlink="http://www.w3.org/1999/xlink"
   xmlns:sodipodi="http://sodipodi.sourceforge.net/DTD/sodipodi-0.dtd"
   xmlns:inkscape="http://www.inkscape.org/namespaces/inkscape"
   version="1.0"
   width="48"
   height="48"
   id="svg4486"
   sodipodi:version="0.32"
   inkscape:version="0.91 r13725"
   sodipodi:docname="text-x-python.svg"
   inkscape:output_extension="org.inkscape.output.svg.inkscape">
  <metadata
     id="metadata51">
    <rdf:RDF>
      <cc:Work
         rdf:about="">
        <dc:format>image/svg+xml</dc:format>
        <dc:type
           rdf:resource="http://purl.org/dc/dcmitype/StillImage" />
        <dc:title />
      </cc:Work>
    </rdf:RDF>
  </metadata>
  <sodipodi:namedview
     inkscape:window-height="693"
     inkscape:window-width="1007"
     inkscape:pageshadow="2"
     inkscape:pageopacity="0.0"
     guidetolerance="10.0"
     gridtolerance="10.0"
     objecttolerance="10.0"
     borderopacity="1.0"
     bordercolor="#666666"
     pagecolor="#ffffff"
     id="base"
     showgrid="false"
     inkscape:zoom="3.9495668"
     inkscape:cx="25.816279"
     inkscape:cy="26.139433"
     inkscape:window-x="431"
     inkscape:window-y="132"
     inkscape:current-layer="svg4486"
     inkscape:window-maximized="0"
     inkscape:snap-object-midpoints="true" />
  <defs
     id="defs4488">
    <linearGradient
       inkscape:collect="always"
       xlink:href="#linearGradient4132-8"
       id="linearGradient4138-6"
       x1="-29.694916"
       y1="44.701263"
       x2="-29.694916"
       y2="0.91525328"
       gradientUnits="userSpaceOnUse"
       gradientTransform="matrix(0.86764708,0,0,0.91472876,50.117651,3.255814)" />
    <linearGradient
       inkscape:collect="always"
       id="linearGradient4132-8">
      <stop
         style="stop-color:#98c5da;stop-opacity:1"
         offset="0"
         id="stop4134-65" />
      <stop
         style="stop-color:#b4d5e4;stop-opacity:1"
         offset="1"
         id="stop4136-9" />
    </linearGradient>
  </defs>
  <rect
     style="fill:#63a5c9;fill-opacity:1;stroke:none"
     id="rect4154-0"
     width="34"
     height="44"
     x="7"
     y="2" />
  <rect
     y="3"
     x="8"
     height="42"
     width="32"
     id="rect4150-2"
     style="fill:#ffffff;fill-opacity:1;stroke:none" />
  <rect
     style="fill:url(#linearGradient4138-6);fill-opacity:1;stroke:none"
     id="rect3362-9"
     width="30"
     height="40"
     x="9"
     y="4.0000005" />
  <rect
     style="fill:#fff1b4;fill-opacity:1;stroke:none"
     id="rect4140-7"
     width="22"
     height="2"
     x="13"
     y="12" />
  <rect
     y="17"
     x="13"
     height="2"
     width="22"
     id="rect4142-3"
     style="fill:#fff1b4;fill-opacity:1;stroke:none" />
  <path
     inkscape:connector-curvature="0"
     d="m 22.077306,36.333333 0,1.666667 -1.623441,0 q -1.630923,0 -2.379053,-0.651852 -0.748128,-0.651851 -0.748128,-2.081481 l 0,-1.422222 q 0,-1.111111 -0.403991,-1.540742 -0.40399,-0.437037 -1.466333,-0.437037 l -0.45636,0 0,-1.651851 0.45636,0 q 1.062343,0 1.466333,-0.42963 0.403991,-0.429629 0.403991,-1.54074 l 0,-1.518519 q 0,-1.42963 0.748128,-2.074074 Q 18.822943,24 20.453865,24 l 1.623441,0 0,1.666667 -0.516209,0 q -1.054864,0 -1.376559,0.325925 -0.314215,0.318519 -0.314215,1.370371 l 0,1.22963 q 0,1.162963 -0.336657,1.688888 -0.336659,0.525927 -1.159602,0.711111 0.830424,0.2 1.159602,0.725927 0.336657,0.525925 0.336657,1.681481 l 0,1.22963 q 0,1.05926 0.314215,1.377778 0.321695,0.325925 1.376559,0.325925 l 0.516209,0 z"
     style="font-style:normal;font-variant:normal;font-weight:bold;font-stretch:normal;font-size:15.24584579px;line-height:125%;font-family:sans-serif;-inkscape-font-specification:'sans-serif Bold';letter-spacing:0px;word-spacing:0px;fill:#fff1b4;fill-opacity:1;stroke:none;stroke-width:1px;stroke-linecap:butt;stroke-linejoin:miter;stroke-opacity:1"
     id="path11242" />
  <path
     inkscape:connector-curvature="0"
     d="m 25.922693,36.333333 0.523691,0 q 1.047382,0 1.361596,-0.325925 0.321695,-0.318518 0.321695,-1.377778 l 0,-1.22963 q 0,-1.155556 0.336659,-1.681481 0.336659,-0.525927 1.167083,-0.725927 -0.830424,-0.185184 -1.167083,-0.711111 -0.336659,-0.525925 -0.336659,-1.688888 l 0,-1.22963 q 0,-1.051852 -0.321695,-1.370371 -0.314214,-0.325925 -1.361596,-0.325925 l -0.523691,0 0,-1.666667 1.623442,0 q 1.630923,0 2.379052,0.651852 0.748131,0.644444 0.748131,2.074074 l 0,1.518519 q 0,1.111111 0.40399,1.54074 0.40399,0.42963 1.466334,0.42963 l 0.456359,0 0,1.651851 -0.456359,0 q -1.062344,0 -1.466334,0.437037 -0.40399,0.429631 -0.40399,1.540742 l 0,1.422222 q 0,1.42963 -0.748131,2.081481 Q 29.177058,38 27.546135,38 l -1.623442,0 0,-1.666667 z"
     style="font-style:normal;font-variant:normal;font-weight:bold;font-stretch:normal;font-size:15.24584579px;line-height:125%;font-family:sans-serif;-inkscape-font-specification:'sans-serif Bold';letter-spacing:0px;word-spacing:0px;fill:#fff1b4;fill-opacity:1;stroke:none;stroke-width:1px;stroke-linecap:butt;stroke-linejoin:miter;stroke-opacity:1"
     id="path11244" />
</svg>
