<?xml version="1.0" encoding="UTF-8" standalone="no"?>
<!-- Created with Inkscape (http://www.inkscape.org/) -->

<svg
   xmlns:dc="http://purl.org/dc/elements/1.1/"
   xmlns:cc="http://creativecommons.org/ns#"
   xmlns:rdf="http://www.w3.org/1999/02/22-rdf-syntax-ns#"
   xmlns:svg="http://www.w3.org/2000/svg"
   xmlns="http://www.w3.org/2000/svg"
   xmlns:xlink="http://www.w3.org/1999/xlink"
   xmlns:sodipodi="http://sodipodi.sourceforge.net/DTD/sodipodi-0.dtd"
   xmlns:inkscape="http://www.inkscape.org/namespaces/inkscape"
   version="1.0"
   width="48"
   height="48"
   id="svg4486"
   sodipodi:version="0.32"
   inkscape:version="0.91 r13725"
   sodipodi:docname="text-xml.svg"
   inkscape:output_extension="org.inkscape.output.svg.inkscape">
  <metadata
     id="metadata51">
    <rdf:RDF>
      <cc:Work
         rdf:about="">
        <dc:format>image/svg+xml</dc:format>
        <dc:type
           rdf:resource="http://purl.org/dc/dcmitype/StillImage" />
        <dc:title />
      </cc:Work>
    </rdf:RDF>
  </metadata>
  <sodipodi:namedview
     inkscape:window-height="693"
     inkscape:window-width="1007"
     inkscape:pageshadow="2"
     inkscape:pageopacity="0.0"
     guidetolerance="10.0"
     gridtolerance="10.0"
     objecttolerance="10.0"
     borderopacity="1.0"
     bordercolor="#666666"
     pagecolor="#ffffff"
     id="base"
     showgrid="false"
     inkscape:zoom="5.9097138"
     inkscape:cx="28.015308"
     inkscape:cy="29.996262"
     inkscape:window-x="146"
     inkscape:window-y="43"
     inkscape:current-layer="svg4486"
     inkscape:window-maximized="0"
     inkscape:snap-object-midpoints="true" />
  <defs
     id="defs4488">
    <linearGradient
       inkscape:collect="always"
       xlink:href="#linearGradient4132-8"
       id="linearGradient4138-6"
       x1="-29.694916"
       y1="44.701263"
       x2="-29.694916"
       y2="0.91525328"
       gradientUnits="userSpaceOnUse"
       gradientTransform="matrix(0.86764708,0,0,0.91472876,50.117651,3.255814)" />
    <linearGradient
       inkscape:collect="always"
       id="linearGradient4132-8">
      <stop
         style="stop-color:#98c5da;stop-opacity:1"
         offset="0"
         id="stop4134-65" />
      <stop
         style="stop-color:#b4d5e4;stop-opacity:1"
         offset="1"
         id="stop4136-9" />
    </linearGradient>
  </defs>
  <rect
     style="fill:#63a5c9;fill-opacity:1;stroke:none"
     id="rect4154-0"
     width="34"
     height="44"
     x="7"
     y="2" />
  <rect
     y="3"
     x="8"
     height="42"
     width="32"
     id="rect4150-2"
     style="fill:#ffffff;fill-opacity:1;stroke:none" />
  <rect
     style="fill:url(#linearGradient4138-6);fill-opacity:1;stroke:none"
     id="rect3362-9"
     width="30"
     height="40"
     x="9"
     y="4.0000005" />
  <rect
     style="fill:#ffffff;fill-opacity:1;stroke:none"
     id="rect4140-7"
     width="22"
     height="2"
     x="13"
     y="13" />
  <rect
     y="18"
     x="13"
     height="2"
     width="22"
     id="rect4142-3"
     style="fill:#ffffff;fill-opacity:1;stroke:none" />
  <rect
     style="fill:#ffffff;fill-opacity:1;stroke:none"
     id="rect4144-3"
     width="22"
     height="2"
     x="13"
     y="23" />
  <path
     inkscape:connector-curvature="0"
     d="m 12.6,37.999996 2.222291,-3.706055 -2.027589,-3.424072 1.879884,0 1.174927,2.13501 1.349487,-2.13501 1.886597,0 -2.175293,3.356934 2.363281,3.773193 -1.859741,0 -1.524048,-2.477417 -1.483765,2.477417 -1.806031,0 z"
     style="font-style:normal;font-variant:normal;font-weight:bold;font-stretch:normal;font-size:13.75px;line-height:125%;font-family:Loma;-inkscape-font-specification:'Loma Bold';letter-spacing:1px;word-spacing:0px;fill:#ffffff;fill-opacity:1;stroke:none;stroke-width:1px;stroke-linecap:butt;stroke-linejoin:miter;stroke-opacity:1"
     id="path4956-1" />
  <path
     inkscape:connector-curvature="0"
     d="m 23.974244,31.991085 q -0.436401,0 -0.745239,0.17456 -0.302124,0.167847 -0.463257,0.469971 -0.154419,0.302124 -0.221557,0.637817 -0.06714,0.32898 -0.06714,0.731812 l 0,3.994751 -1.477051,0 0,-7.130127 1.477051,0 0,0.483398 q 0.29541,-0.322265 0.751953,-0.510253 0.456543,-0.194703 1.013794,-0.194703 1.450195,0 1.893311,0.926514 0.281982,-0.463257 0.953369,-0.691528 0.671386,-0.234986 1.362915,-0.234986 0.510254,0 0.899658,0.140992 0.396118,0.140991 0.637817,0.369262 0.2417,0.228272 0.396119,0.557251 0.154418,0.322266 0.208129,0.657959 0.06042,0.335694 0.06042,0.731812 l 0,4.894409 -1.477051,0 0,-4.786987 q 0,-0.570679 -0.26184,-0.892945 -0.261841,-0.328979 -0.731812,-0.328979 -0.315552,0 -0.59082,0.08057 -0.268555,0.07385 -0.510254,0.248413 -0.234985,0.174561 -0.375977,0.490113 -0.140991,0.315551 -0.140991,0.751953 l 0,4.437866 -1.477051,0 0,-4.927979 q 0,-0.570678 -0.315551,-0.825805 -0.308838,-0.255127 -0.798951,-0.255127 z"
     style="font-style:normal;font-variant:normal;font-weight:bold;font-stretch:normal;font-size:13.75px;line-height:125%;font-family:Loma;-inkscape-font-specification:'Loma Bold';letter-spacing:1px;word-spacing:0px;fill:#ffffff;fill-opacity:1;stroke:none;stroke-width:1px;stroke-linecap:butt;stroke-linejoin:miter;stroke-opacity:1"
     id="path4958-1" />
  <path
     inkscape:connector-curvature="0"
     d="m 33,37.999996 0,-9.842529 1.477051,0 0,9.842529 -1.477051,0 z"
     style="font-style:normal;font-variant:normal;font-weight:bold;font-stretch:normal;font-size:13.75px;line-height:125%;font-family:Loma;-inkscape-font-specification:'Loma Bold';letter-spacing:1px;word-spacing:0px;fill:#ffffff;fill-opacity:1;stroke:none;stroke-width:1px;stroke-linecap:butt;stroke-linejoin:miter;stroke-opacity:1"
     id="path4960-6" />
</svg>
