<?xml version="1.0" encoding="UTF-8" standalone="no"?>
<!-- Created with Inkscape (http://www.inkscape.org/) -->

<svg
   xmlns:dc="http://purl.org/dc/elements/1.1/"
   xmlns:cc="http://creativecommons.org/ns#"
   xmlns:rdf="http://www.w3.org/1999/02/22-rdf-syntax-ns#"
   xmlns:svg="http://www.w3.org/2000/svg"
   xmlns="http://www.w3.org/2000/svg"
   xmlns:xlink="http://www.w3.org/1999/xlink"
   xmlns:sodipodi="http://sodipodi.sourceforge.net/DTD/sodipodi-0.dtd"
   xmlns:inkscape="http://www.inkscape.org/namespaces/inkscape"
   version="1.0"
   width="48"
   height="48"
   id="svg4018"
   inkscape:version="0.91 r13725"
   sodipodi:docname="video-webm.svg">
  <metadata
     id="metadata217738">
    <rdf:RDF>
      <cc:Work
         rdf:about="">
        <dc:format>image/svg+xml</dc:format>
        <dc:type
           rdf:resource="http://purl.org/dc/dcmitype/StillImage" />
        <dc:title />
      </cc:Work>
    </rdf:RDF>
  </metadata>
  <sodipodi:namedview
     pagecolor="#ffffff"
     bordercolor="#666666"
     borderopacity="1"
     objecttolerance="10"
     gridtolerance="10"
     guidetolerance="10"
     inkscape:pageopacity="0"
     inkscape:pageshadow="2"
     inkscape:window-width="1174"
     inkscape:window-height="729"
     id="namedview217736"
     showgrid="false"
     inkscape:zoom="8.7271795"
     inkscape:cx="26.666005"
     inkscape:cy="18.210119"
     inkscape:window-x="44"
     inkscape:window-y="14"
     inkscape:window-maximized="0"
     inkscape:current-layer="svg4018"
     showguides="true"
     inkscape:guide-bbox="true" />
  <defs
     id="defs4020">
    <linearGradient
       inkscape:collect="always"
       xlink:href="#linearGradient16703-64-2-1-5-92-4"
       id="linearGradient16709-9-4-3-4-2-1-22"
       x1="24.625"
       y1="-43.80312"
       x2="24.625"
       y2="-6.125"
       gradientUnits="userSpaceOnUse"
       gradientTransform="matrix(1,0,0,1.0526316,-2.9546875e-6,2.3158064)" />
    <linearGradient
       inkscape:collect="always"
       id="linearGradient16703-64-2-1-5-92-4">
      <stop
         style="stop-color:#e187a6;stop-opacity:1"
         offset="0"
         id="stop16705-6-2-1-8-38-6" />
      <stop
         style="stop-color:#f9a7c5;stop-opacity:1"
         offset="1"
         id="stop16707-92-8-2-5-64-3" />
    </linearGradient>
  </defs>
  <rect
     transform="scale(1,-1)"
     y="-46"
     x="7"
     height="44"
     width="34"
     id="rect5634-0-6-0-7-5-3-00"
     style="fill:#ec92b2;fill-opacity:1;stroke:none" />
  <rect
     y="-45"
     x="8"
     height="42"
     width="32"
     id="rect16630-60-2-5-3"
     style="fill:#ffffff;fill-opacity:1;stroke:none"
     transform="scale(1,-1)" />
  <rect
     style="fill:url(#linearGradient16709-9-4-3-4-2-1-22);fill-opacity:1;stroke:none"
     id="rect3362-9-0-9-7-2-9-9-94-6-5-8-80-0-4"
     width="30"
     height="40"
     x="9"
     y="-44"
     transform="scale(1,-1)" />
  <rect
     style="fill:#ffffff;fill-opacity:1;stroke:none"
     id="rect16697-4-2-3-8-8-0"
     y="-16.000017"
     x="10"
     height="3"
     width="3"
     transform="scale(1,-1)" />
  <rect
     width="3"
     height="3"
     x="10"
     y="-10.000017"
     id="rect16699-1-9-19-2-0-2"
     style="fill:#ffffff;fill-opacity:1;stroke:none"
     transform="scale(1,-1)" />
  <rect
     transform="scale(1,-1)"
     width="3"
     height="3"
     x="10"
     y="-22.000019"
     id="rect16711-80-4-0-5-1-1"
     style="fill:#ffffff;fill-opacity:1;stroke:none" />
  <rect
     style="fill:#ffffff;fill-opacity:1;stroke:none"
     id="rect16697-4-2-6-2-9-6-9"
     y="-16.000017"
     x="-38"
     height="3"
     width="3"
     transform="scale(-1,-1)" />
  <rect
     width="3"
     height="3"
     x="-38"
     y="-10.000017"
     id="rect16699-1-9-3-5-8-5-6"
     style="fill:#ffffff;fill-opacity:1;stroke:none"
     transform="scale(-1,-1)" />
  <rect
     transform="scale(-1,-1)"
     width="3"
     height="3"
     x="-38"
     y="-22.000019"
     id="rect16711-80-4-4-6-6-1-3"
     style="fill:#ffffff;fill-opacity:1;stroke:none" />
  <rect
     y="-15"
     x="-44"
     height="1"
     width="40"
     id="rect4497-4-36-7-7-4-7-37-4-7-0-1-0"
     style="fill:#ffffff;fill-opacity:1;stroke:none"
     transform="matrix(0,-1,-1,0,0,0)" />
  <rect
     y="33"
     x="-44"
     height="1"
     width="40"
     id="rect4497-4-36-7-7-4-7-37-4-0-8-1-3-2"
     style="fill:#ffffff;fill-opacity:1;stroke:none"
     transform="matrix(0,-1,1,0,0,0)" />
  <rect
     y="-45"
     x="8"
     height="14"
     width="32"
     id="rect16701-86-1-2-3-7-4-6-1-6"
     style="fill:#ffffff;fill-opacity:1;stroke:none"
     transform="scale(1,-1)" />
  <rect
     style="fill:#ffffff;fill-opacity:1;stroke:none"
     id="rect5037"
     y="-28"
     x="10"
     height="3"
     width="3"
     transform="scale(1,-1)" />
  <rect
     style="fill:#ffffff;fill-opacity:1;stroke:none"
     id="rect5039"
     y="-28"
     x="-38"
     height="3"
     width="3"
     transform="scale(-1,-1)" />
  <path
     inkscape:connector-curvature="0"
     d="m 10.000002,36.925552 1.465704,0 0.791816,3.409464 0.796029,-3.409464 1.259326,0 0.791817,3.374132 0.796029,-3.374132 1.465703,0 -1.242478,4.946372 -1.646811,0 -0.796029,-3.40063 -0.791817,3.40063 -1.64681,0 -1.242479,-4.946372 z"
     style="font-style:normal;font-variant:normal;font-weight:bold;font-stretch:normal;font-size:8.83278847px;line-height:125%;font-family:sans-serif;-inkscape-font-specification:'sans-serif Bold';letter-spacing:0px;word-spacing:0px;fill:#e878a0;fill-opacity:1;stroke:none;stroke-width:1px;stroke-linecap:butt;stroke-linejoin:miter;stroke-opacity:1"
     id="path3221" />
  <path
     inkscape:connector-curvature="0"
     d="m 23.098676,39.385489 0,0.450473 -3.525269,0 q 0.05476,0.556467 0.383272,0.834701 0.32852,0.278233 0.918171,0.278233 0.475932,0 0.972923,-0.145741 0.501205,-0.150158 1.027678,-0.450473 l 0,1.218927 Q 22.340554,41.783597 21.805656,41.88959 21.270758,42 20.735861,42 q -1.280385,0 -1.992178,-0.680126 -0.707581,-0.684543 -0.707581,-1.916719 0,-1.210095 0.694946,-1.90347 0.699157,-0.693376 1.920577,-0.693376 1.111913,0 1.777377,0.702209 0.669674,0.702208 0.669674,1.876971 z m -1.549939,-0.525552 q 0,-0.450474 -0.252707,-0.72429 -0.248497,-0.278233 -0.652829,-0.278233 -0.438027,0 -0.711792,0.260567 -0.273767,0.256151 -0.341156,0.741956 l 1.958484,0 z"
     style="font-style:normal;font-variant:normal;font-weight:bold;font-stretch:normal;font-size:8.83278847px;line-height:125%;font-family:sans-serif;-inkscape-font-specification:'sans-serif Bold';letter-spacing:0px;word-spacing:0px;fill:#e878a0;fill-opacity:1;stroke:none;stroke-width:1px;stroke-linecap:butt;stroke-linejoin:miter;stroke-opacity:1"
     id="path3223" />
  <path
     inkscape:connector-curvature="0"
     d="m 26.746089,40.851735 q 0.484356,0 0.737063,-0.370977 0.256919,-0.370979 0.256919,-1.077603 0,-0.706625 -0.256919,-1.077602 -0.252707,-0.370979 -0.737063,-0.370979 -0.484356,0 -0.745487,0.375395 -0.25692,0.370978 -0.25692,1.073186 0,0.702208 0.25692,1.077603 0.261131,0.370977 0.745487,0.370977 z m -1.002407,-3.201893 q 0.311672,-0.432808 0.690734,-0.635961 0.379062,-0.207572 0.871841,-0.207572 0.871842,0 1.43201,0.728707 0.560168,0.72429 0.560168,1.868139 0,1.143848 -0.560168,1.872555 Q 28.178099,42 27.306257,42 q -0.492779,0 -0.871841,-0.203155 -0.379062,-0.20757 -0.690734,-0.640378 l 0,0.715457 -1.507822,0 0,-6.871924 1.507822,0 0,2.649842 z"
     style="font-style:normal;font-variant:normal;font-weight:bold;font-stretch:normal;font-size:8.83278847px;line-height:125%;font-family:sans-serif;-inkscape-font-specification:'sans-serif Bold';letter-spacing:0px;word-spacing:0px;fill:#e878a0;fill-opacity:1;stroke:none;stroke-width:1px;stroke-linecap:butt;stroke-linejoin:miter;stroke-opacity:1"
     id="path3225" />
  <path
     inkscape:connector-curvature="0"
     d="m 34.790612,37.747004 q 0.286402,-0.459306 0.678098,-0.697792 0.395909,-0.242903 0.86763,-0.242903 0.812875,0 1.238267,0.525553 0.425391,0.525552 0.425391,1.528075 l 0,3.011987 -1.516245,0 0,-2.57918 q 0.0042,-0.05742 0.0042,-0.119242 0.0042,-0.06183 0.0042,-0.176657 0,-0.525551 -0.147412,-0.759621 -0.147413,-0.238486 -0.475933,-0.238486 -0.429603,0 -0.665462,0.370978 -0.231649,0.370978 -0.240073,1.073187 l 0,2.429021 -1.516245,0 0,-2.57918 q 0,-0.82145 -0.134778,-1.05552 -0.134777,-0.238486 -0.480144,-0.238486 -0.433815,0 -0.669675,0.375394 -0.235861,0.370979 -0.235861,1.064354 l 0,2.433438 -1.516245,0 0,-4.946372 1.516245,0 0,0.72429 q 0.277978,-0.419558 0.635981,-0.631545 0.362214,-0.211988 0.796029,-0.211988 0.488568,0 0.863417,0.247319 0.37485,0.247318 0.568593,0.693376 z"
     style="font-style:normal;font-variant:normal;font-weight:bold;font-stretch:normal;font-size:8.83278847px;line-height:125%;font-family:sans-serif;-inkscape-font-specification:'sans-serif Bold';letter-spacing:0px;word-spacing:0px;fill:#e878a0;fill-opacity:1;stroke:none;stroke-width:1px;stroke-linecap:butt;stroke-linejoin:miter;stroke-opacity:1"
     id="path3227" />
</svg>
