<?xml version="1.0" encoding="UTF-8" standalone="no"?>
<!-- Created with Inkscape (http://www.inkscape.org/) -->

<svg
   xmlns:dc="http://purl.org/dc/elements/1.1/"
   xmlns:cc="http://creativecommons.org/ns#"
   xmlns:rdf="http://www.w3.org/1999/02/22-rdf-syntax-ns#"
   xmlns:svg="http://www.w3.org/2000/svg"
   xmlns="http://www.w3.org/2000/svg"
   xmlns:sodipodi="http://sodipodi.sourceforge.net/DTD/sodipodi-0.dtd"
   xmlns:inkscape="http://www.inkscape.org/namespaces/inkscape"
   id="svg7384"
   height="24"
   width="24"
   version="1.1"
   inkscape:version="0.91 r13725"
   sodipodi:docname="applications-development.svg">
  <defs
     id="defs10" />
  <sodipodi:namedview
     pagecolor="#ffffff"
     bordercolor="#666666"
     borderopacity="1"
     objecttolerance="10"
     gridtolerance="10"
     guidetolerance="10"
     inkscape:pageopacity="0"
     inkscape:pageshadow="2"
     inkscape:window-width="1440"
     inkscape:window-height="854"
     id="namedview8"
     showgrid="false"
     inkscape:zoom="5.6568545"
     inkscape:cx="2.248779"
     inkscape:cy="9.8366521"
     inkscape:window-x="0"
     inkscape:window-y="0"
     inkscape:window-maximized="1"
     inkscape:current-layer="svg7384"
     inkscape:snap-bbox="true"
     inkscape:bbox-nodes="true"
     inkscape:bbox-paths="false"
     inkscape:snap-bbox-edge-midpoints="false"
     inkscape:snap-smooth-nodes="true"
     inkscape:object-nodes="true" />
  <metadata
     id="metadata90">
    <rdf:RDF>
      <cc:Work
         rdf:about="">
        <dc:format>image/svg+xml</dc:format>
        <dc:type
           rdf:resource="http://purl.org/dc/dcmitype/StillImage" />
        <dc:title>Gnome Symbolic Icon Theme</dc:title>
      </cc:Work>
    </rdf:RDF>
  </metadata>
  <title
     id="title9167">Gnome Symbolic Icon Theme</title>
  <rect
     style="fill:#ffffff;fill-opacity:1;stroke:none;stroke-width:2;stroke-miterlimit:4;stroke-dasharray:none;stroke-opacity:1"
     id="rect4739"
     width="18"
     height="22"
     x="3"
     y="1" />
  <path
     style="fill:#ffffff;fill-opacity:1;stroke:none"
     d="M 3.999999,1.9999995 3.999999,22 20,22 l -1e-6,-20.0000005 z"
     id="rect2994"
     inkscape:connector-curvature="0"
     sodipodi:nodetypes="ccccc" />
  <rect
     style="fill:#8c8c8c;fill-opacity:1;stroke:none;stroke-width:2;stroke-miterlimit:4;stroke-dasharray:none;stroke-opacity:1"
     id="rect4161"
     width="1"
     height="4"
     x="3"
     y="19" />
  <rect
     y="-7"
     x="22"
     height="4"
     width="1"
     id="rect4163"
     style="fill:#8c8c8c;fill-opacity:1;stroke:none;stroke-width:2;stroke-miterlimit:4;stroke-dasharray:none;stroke-opacity:1"
     transform="matrix(0,1,-1,0,0,0)" />
  <rect
     y="17"
     x="-23"
     height="4"
     width="1"
     id="rect4185"
     style="fill:#8c8c8c;fill-opacity:1;stroke:none;stroke-width:2;stroke-miterlimit:4;stroke-dasharray:none;stroke-opacity:1"
     transform="matrix(0,-1,1,0,0,0)" />
  <rect
     style="fill:#8c8c8c;fill-opacity:1;stroke:none;stroke-width:2;stroke-miterlimit:4;stroke-dasharray:none;stroke-opacity:1"
     id="rect4187"
     width="1"
     height="4"
     x="20"
     y="19" />
  <rect
     y="-5"
     x="3"
     height="4"
     width="1"
     id="rect4189"
     style="fill:#8c8c8c;fill-opacity:1;stroke:none;stroke-width:2;stroke-miterlimit:4;stroke-dasharray:none;stroke-opacity:1"
     transform="scale(1,-1)" />
  <rect
     transform="matrix(0,-1,-1,0,0,0)"
     style="fill:#8c8c8c;fill-opacity:1;stroke:none;stroke-width:2;stroke-miterlimit:4;stroke-dasharray:none;stroke-opacity:1"
     id="rect4191"
     width="1"
     height="4"
     x="-2"
     y="-7" />
  <rect
     transform="matrix(0,1,1,0,0,0)"
     style="fill:#8c8c8c;fill-opacity:1;stroke:none;stroke-width:2;stroke-miterlimit:4;stroke-dasharray:none;stroke-opacity:1"
     id="rect4193"
     width="1"
     height="4"
     x="1"
     y="17" />
  <rect
     y="-5"
     x="20"
     height="4"
     width="1"
     id="rect4195"
     style="fill:#8c8c8c;fill-opacity:1;stroke:none;stroke-width:2;stroke-miterlimit:4;stroke-dasharray:none;stroke-opacity:1"
     transform="scale(1,-1)" />
  <rect
     transform="scale(1,-1)"
     style="fill:#8c8c8c;fill-opacity:1;stroke:none;stroke-width:2;stroke-miterlimit:4;stroke-dasharray:none;stroke-opacity:1"
     id="rect4197"
     width="1"
     height="4"
     x="3"
     y="-11" />
  <rect
     y="-17"
     x="3"
     height="4"
     width="1"
     id="rect4199"
     style="fill:#8c8c8c;fill-opacity:1;stroke:none;stroke-width:2;stroke-miterlimit:4;stroke-dasharray:none;stroke-opacity:1"
     transform="scale(1,-1)" />
  <rect
     y="-11"
     x="20"
     height="4"
     width="1"
     id="rect4201"
     style="fill:#8c8c8c;fill-opacity:1;stroke:none;stroke-width:2;stroke-miterlimit:4;stroke-dasharray:none;stroke-opacity:1"
     transform="scale(1,-1)" />
  <rect
     transform="scale(1,-1)"
     style="fill:#8c8c8c;fill-opacity:1;stroke:none;stroke-width:2;stroke-miterlimit:4;stroke-dasharray:none;stroke-opacity:1"
     id="rect4203"
     width="1"
     height="4"
     x="20"
     y="-17" />
  <rect
     y="10"
     x="1"
     height="4"
     width="1"
     id="rect4205"
     style="fill:#8c8c8c;fill-opacity:1;stroke:none;stroke-width:2;stroke-miterlimit:4;stroke-dasharray:none;stroke-opacity:1"
     transform="matrix(0,1,1,0,0,0)" />
  <rect
     transform="matrix(0,1,1,0,0,0)"
     style="fill:#8c8c8c;fill-opacity:1;stroke:none;stroke-width:2;stroke-miterlimit:4;stroke-dasharray:none;stroke-opacity:1"
     id="rect4207"
     width="1"
     height="4"
     x="22"
     y="10" />
  <path
     style="fill:#8c8c8c;fill-opacity:1;stroke:none"
     d="m 13.066987,9.1519241 -3,5.1961519 0.866026,0.499999 3,-5.1961512 z"
     id="path4219"
     inkscape:connector-curvature="0"
     sodipodi:nodetypes="ccccc" />
  <path
     sodipodi:nodetypes="ccccc"
     inkscape:connector-curvature="0"
     id="path4386"
     d="m 6,9 0,6 1,0 0,-6 z"
     style="fill:#8c8c8c;fill-opacity:1;stroke:none" />
  <path
     style="fill:#8c8c8c;fill-opacity:1;stroke:none"
     d="M 10,8 6,8 6,9 10,9 Z"
     id="path4388"
     inkscape:connector-curvature="0"
     sodipodi:nodetypes="ccccc" />
  <path
     sodipodi:nodetypes="ccccc"
     inkscape:connector-curvature="0"
     id="path4390"
     d="m 10,15 -4,0 0,1 4,0 z"
     style="fill:#8c8c8c;fill-opacity:1;stroke:none" />
  <path
     style="fill:#8c8c8c;fill-opacity:1;stroke:none"
     d="m 18,9 0,6 -1,0 0,-6 z"
     id="path4473"
     inkscape:connector-curvature="0"
     sodipodi:nodetypes="ccccc" />
  <path
     sodipodi:nodetypes="ccccc"
     inkscape:connector-curvature="0"
     id="path4475"
     d="m 14,8 4,0 0,1 -4,0 z"
     style="fill:#8c8c8c;fill-opacity:1;stroke:none" />
  <path
     style="fill:#8c8c8c;fill-opacity:1;stroke:none"
     d="m 14,15 4,0 0,1 -4,0 z"
     id="path4477"
     inkscape:connector-curvature="0"
     sodipodi:nodetypes="ccccc" />
</svg>
