<?xml version="1.0" encoding="UTF-8" standalone="no"?>
<!-- Created with Inkscape (http://www.inkscape.org/) -->

<svg
   xmlns:dc="http://purl.org/dc/elements/1.1/"
   xmlns:cc="http://creativecommons.org/ns#"
   xmlns:rdf="http://www.w3.org/1999/02/22-rdf-syntax-ns#"
   xmlns:svg="http://www.w3.org/2000/svg"
   xmlns="http://www.w3.org/2000/svg"
   xmlns:sodipodi="http://sodipodi.sourceforge.net/DTD/sodipodi-0.dtd"
   xmlns:inkscape="http://www.inkscape.org/namespaces/inkscape"
   version="1.0"
   width="24"
   height="24"
   id="svg3540"
   inkscape:version="0.91 r13725"
   sodipodi:docname="media-optical.svg">
  <metadata
     id="metadata174409">
    <rdf:RDF>
      <cc:Work
         rdf:about="">
        <dc:format>image/svg+xml</dc:format>
        <dc:type
           rdf:resource="http://purl.org/dc/dcmitype/StillImage" />
        <dc:title />
      </cc:Work>
    </rdf:RDF>
  </metadata>
  <sodipodi:namedview
     pagecolor="#ffffff"
     bordercolor="#666666"
     borderopacity="1"
     objecttolerance="10"
     gridtolerance="10"
     guidetolerance="10"
     inkscape:pageopacity="0"
     inkscape:pageshadow="2"
     inkscape:window-width="1179"
     inkscape:window-height="846"
     id="namedview174407"
     showgrid="false"
     inkscape:zoom="8.250449"
     inkscape:cx="-10.162354"
     inkscape:cy="21.595199"
     inkscape:window-x="213"
     inkscape:window-y="4"
     inkscape:window-maximized="0"
     inkscape:current-layer="svg3540" />
  <defs
     id="defs3542" />
  <path
     inkscape:connector-curvature="0"
     style="opacity:1;fill:#8c8c8c;fill-opacity:1;fill-rule:evenodd;stroke:none;stroke-width:1;stroke-linecap:square;stroke-linejoin:miter;stroke-miterlimit:4;stroke-dasharray:none;stroke-opacity:1"
     d="M 12,0.5 C 5.6487263,0.5 0.5,5.6487248 0.5,12 0.5,18.351274 5.6487263,23.5 12,23.5 18.351274,23.5 23.5,18.351274 23.5,12 23.5,5.6487248 18.351274,0.5 12,0.5 Z"
     id="path4187-2-0"
     sodipodi:nodetypes="sssss" />
  <path
     id="path5323"
     d="M 12,1.4999999 C 6.2010111,1.4999999 1.5000001,6.2010099 1.5000001,12 1.5000001,17.798988 6.2010111,22.5 12,22.5 17.79899,22.5 22.5,17.798988 22.5,12 22.5,6.2010099 17.79899,1.4999999 12,1.4999999 Z"
     style="opacity:1;fill:#ffffff;fill-opacity:1;fill-rule:evenodd;stroke:none;stroke-width:1;stroke-linecap:square;stroke-linejoin:miter;stroke-miterlimit:4;stroke-dasharray:none;stroke-opacity:1"
     inkscape:connector-curvature="0"
     sodipodi:nodetypes="sssss" />
  <path
     sodipodi:nodetypes="sssss"
     id="path5325"
     d="m 12,9 c -1.656854,0 -2.9999998,1.343145 -2.9999998,3 0,1.656855 1.3431458,3 2.9999998,3 1.656854,0 3,-1.343145 3,-3 0,-1.656855 -1.343146,-3 -3,-3 z"
     style="opacity:1;fill:#8c8c8c;fill-opacity:1;fill-rule:evenodd;stroke:none;stroke-width:1;stroke-linecap:square;stroke-linejoin:miter;stroke-miterlimit:4;stroke-dasharray:none;stroke-opacity:1"
     inkscape:connector-curvature="0" />
</svg>
