<?xml version="1.0" encoding="UTF-8" standalone="no"?>
<!-- Created with Inkscape (http://www.inkscape.org/) -->

<svg
   xmlns:dc="http://purl.org/dc/elements/1.1/"
   xmlns:cc="http://creativecommons.org/ns#"
   xmlns:rdf="http://www.w3.org/1999/02/22-rdf-syntax-ns#"
   xmlns:svg="http://www.w3.org/2000/svg"
   xmlns="http://www.w3.org/2000/svg"
   xmlns:xlink="http://www.w3.org/1999/xlink"
   xmlns:sodipodi="http://sodipodi.sourceforge.net/DTD/sodipodi-0.dtd"
   xmlns:inkscape="http://www.inkscape.org/namespaces/inkscape"
   width="16"
   height="16"
   id="svg3867"
   version="1.1"
   inkscape:version="0.91 r13725"
   sodipodi:docname="application-xml.svg">
  <defs
     id="defs3869">
    <linearGradient
       id="linearGradient4873-3">
      <stop
         id="stop4875-3"
         style="stop-color:#ffffff;stop-opacity:1"
         offset="0" />
      <stop
         id="stop4877-8"
         style="stop-color:#ffffff;stop-opacity:0"
         offset="1" />
    </linearGradient>
    <linearGradient
       inkscape:collect="always"
       xlink:href="#linearGradient4873-3"
       id="linearGradient3778-1-7"
       gradientUnits="userSpaceOnUse"
       gradientTransform="matrix(0.29941074,0.03554534,-0.03554454,0.2994039,1.5339694,32.066283)"
       x1="20"
       y1="43"
       x2="20"
       y2="2.6887112" />
  </defs>
  <sodipodi:namedview
     id="base"
     pagecolor="#ffffff"
     bordercolor="#666666"
     borderopacity="1.0"
     inkscape:pageopacity="0.0"
     inkscape:pageshadow="2"
     inkscape:zoom="12.09375"
     inkscape:cx="6.6049865"
     inkscape:cy="18.021221"
     inkscape:current-layer="layer1"
     showgrid="true"
     inkscape:grid-bbox="true"
     inkscape:document-units="px"
     inkscape:window-width="1440"
     inkscape:window-height="852"
     inkscape:window-x="0"
     inkscape:window-y="0"
     inkscape:window-maximized="1"
     showguides="true"
     inkscape:guide-bbox="true" />
  <metadata
     id="metadata3872">
    <rdf:RDF>
      <cc:Work
         rdf:about="">
        <dc:format>image/svg+xml</dc:format>
        <dc:type
           rdf:resource="http://purl.org/dc/dcmitype/StillImage" />
        <dc:title />
      </cc:Work>
    </rdf:RDF>
  </metadata>
  <g
     id="layer1"
     inkscape:label="Layer 1"
     inkscape:groupmode="layer"
     transform="translate(0,-32)">
    <circle
       style="fill:#6bb6de;fill-opacity:1;stroke:none;stroke-width:2;stroke-miterlimit:4;stroke-dasharray:none;stroke-opacity:1"
       id="path4146-6"
       cx="8"
       cy="40"
       r="7" />
    <path
       d="m 13.957579,40.707057 c -0.390627,3.290384 -3.374789,5.641108 -6.6647976,5.250526 -3.290306,-0.390617 -5.64098,-3.374712 -5.250356,-6.665065 0.390609,-3.290235 3.374588,-5.640705 6.664897,-5.250088 3.2900056,0.390582 5.6408656,3.374393 5.2502566,6.664627 l 0,0 z"
       id="path6495-5"
       style="fill:#ffffff;fill-opacity:1;fill-rule:nonzero;stroke:url(#linearGradient3778-1-7);stroke-width:0;stroke-miterlimit:4;stroke-dasharray:none"
       inkscape:connector-curvature="0" />
    <path
       d="m 9.3626524,35.106096 -0.6541,-0.0812 -0.747004,0.02341 c 0.06477,-0.0066 0.130808,-0.01503 0.19751,-0.02037 l -0.04572,-0.167787 -0.283868,-0.02028 -0.16786,0.09612 -0.215755,-0.02325 -0.213358,0.04585 -0.102135,0.02403 -0.03628,0.03032 -0.143055,-0.0055 -0.124593,0.155631 -0.05495,-0.248365 -0.05889,0.08355 -0.04268,0.253924 -0.208705,0.105746 -0.165311,0.243595 0.208994,0.05097 0.124594,-0.155632 0.04305,-0.05804 c 0.108001,-0.04367 0.213071,-0.09603 0.32218,-0.136803 l 0.200053,0.127105 c 0.118067,0.132733 0.236742,0.267248 0.354959,0.399853 l 0.256315,-0.143073 -0.211464,-0.159262 -0.05495,-0.248363 -0.388547,-0.143715 0.0022,-0.04842 0.163624,0.07907 0.12474,-0.07728 0.22935,0.007 c 0.05782,-0.01302 0.11308,-0.01894 0.170244,-0.02701 l -0.167842,0.09612 0.4073,0.461567 -0.04957,0.203291 -0.238148,0.14751 0.128223,0.579518 0.197439,-0.05955 0.301466,-0.288709 c 0.330115,-0.02161 0.633805,-0.0664 0.955709,-0.12914 l -0.04972,0.124941 0.120596,0.137097 0.297248,-0.11352 -0.09115,-0.178878 -0.197438,0.05955 -0.05001,-0.03177 c 0.01393,-0.0028 0.02684,-0.0068 0.04085,-0.0095 l 0.416689,-0.60326 -0.500203,-0.356953 z m -2.733152,0.390751 0.172939,0.198817 0.172644,0.04211 0.04283,-0.17556 -0.186459,-0.143385 -0.201945,0.07803 0,0 z m 4.5235956,1.056637 -0.395092,0.0015 -0.274564,0.09948 -0.03381,0.1386 -0.43115,0.149399 -0.01522,0.378106 0.256394,-0.103895 0.09799,0.190331 0.131945,0.130075 0.165312,-0.243597 -0.01613,-0.170389 0.08156,-0.09759 0.267662,-0.150095 0.09995,0.02438 -0.154037,0.197393 -0.04957,0.203291 c 0.09596,-0.0029 0.189047,0.0095 0.283869,0.02028 l -0.299504,0.12276 -0.04521,0.106462 -0.351624,0.178585 -0.281833,-0.147052 0.04281,-0.175578 -0.15884,0.05916 0.0253,0.172609 -0.2180896,-0.05318 -0.167713,0.174478 -0.185953,0.130863 -0.277037,-0.0088 0.11616,0.194762 -0.002,0.165954 -0.190819,-0.04653 -0.288233,0.07656 -0.09916,0.40658 0.118122,0.02882 0.07975,0.146721 0.27464,-0.06028 0.151708,-0.227331 0.20878,-0.06655 0.05889,-0.08355 0.308806,-0.0029 0.1184886,0.224698 0.150113,0.134512 -0.149527,0.178915 0.165734,-0.0086 0.131358,-0.183346 -0.143568,-0.279765 0.08179,0.01995 0.159334,0.215083 -0.01778,0.230635 0.123072,0.245397 0.117553,-0.284614 0.102135,-0.02405 c 0.07181,0.125693 0.117608,0.269164 0.17105,0.403949 l 0.295353,0.09161 0.145604,0.152991 -0.111082,0.100173 -0.210958,0.114987 -0.254433,-0.06206 -0.309168,-0.192881 -0.177155,-0.02361 -0.163277,0.11682 -0.2733216,-0.458263 -0.236399,-0.135979 -0.383825,-0.04466 -0.349656,0.01265 c -0.239085,0.16962 -0.483188,0.340533 -0.714303,0.520887 l -0.335198,0.466493 0.07291,0.135263 -0.247089,0.22365 0.08498,0.520018 c 0.11968,0.231924 0.240645,0.462795 0.360044,0.694794 l 0.297176,-0.152698 0.0684,0.153743 0.306335,-0.111301 0.06607,0.123805 0.263514,0.06426 0.11165,0.213242 -0.167493,0.292015 0.12991,0.256854 -0.09924,0.367399 0.07095,0.301217 -0.156292,0.206635 -0.104485,1.122973 2.0542616,-1.460025 0.2673,-0.345994 0.276677,-0.187064 0.380483,-0.533769 0.03832,-0.15708 c -0.121238,-0.01357 -0.23724,-0.02752 -0.35431,-0.04724 l 1.136838,-2.884963 -0.831927,-1.720378 -0.07931,0.08835 -0.253996,0.173011 -0.189075,-0.330023 0.25443,0.06206 0.149673,-0.100558 -0.449971,-0.207645 -0.222807,-0.15224 z m -5.1596666,-1.211766 -0.149453,0.218091 c 0,0 -0.165605,-0.0121 -0.208923,-0.01173 -0.640476,0.361386 -1.950201,1.164639 -2.680478,3.095867 -0.0016,0.04853 0.09603,0.356283 0.09603,0.356283 l 0.341221,0.33776 0.372772,0.208395 0.120816,0.254637 0.213936,0.267556 0.161241,0.0099 0.09552,0.08204 -0.009,0.03696 -0.246801,0.380361 -0.160948,0.146759 0.01613,0.09203 -0.172004,0.310497 0.182967,0.710345 0.270926,0.389146 0.100393,0.259446 -0.130863,0.457589 0.04594,0.285327 -0.230736,0.472391 c 0,0 -0.01357,-0.0077 -0.01118,0.0462 0.0024,0.0539 0.512569,0.537043 0.557265,0.51772 0.0447,-0.01987 0.08622,-0.03771 0.08622,-0.03771 l -0.0094,-0.119753 0.190531,-0.110165 0.09282,-0.143788 0.265625,-0.02334 0.308009,-0.433965 -0.02297,-0.14267 0.176788,-0.17226 0.306551,0.0062 0.231026,-0.31568 0.06958,-0.443166 0.306045,-0.268013 0.11748,-0.32379 c -0.273495,-0.233175 -0.539907,-0.469255 -0.809801,-0.70653 l -0.0801,-0.342608 -0.265914,-0.133375 -0.05306,-0.453495 -0.383822,-0.04466 -0.268528,-0.320032 -0.419667,0.220721 -0.01118,0.0462 c -0.09603,-0.05557 -0.217462,-0.08993 -0.295511,-0.169969 l -0.01861,-0.239497 0.05859,-0.240253 -0.243015,-0.0299 c 0.05634,-0.14839 0.119826,-0.29817 0.176293,-0.446508 l -0.136309,-0.03324 -0.179116,0.142322 -0.142982,0.03366 -0.163771,-0.157428 0.04042,-0.244684 0.09946,-0.249869 0.335775,-0.153065 0.227168,0.0554 0.07698,-0.118287 0.265912,0.133375 0.143641,0.318943 0.144522,-0.434676 0.437838,-0.216289 0.206091,-0.292391 0.299645,-0.0444 0.199474,-0.186313 0.361069,0.01953 0.23575,-0.216628 -0.517944,-0.126321 0.365434,-0.07731 0.227169,0.0554 0.315564,-0.03073 -0.0154,0.299752 0.176788,-0.17226 -0.120597,-0.137096 0.06565,-0.111265 -0.09108,-0.1397 -0.118195,-0.06798 0.07016,-0.129745 -0.05264,-0.218427 -0.249705,0.037 0.07916,-0.166705 -0.225203,-0.221357 -0.299139,0.318648 -0.01338,0.133797 -0.231532,0.04143 -0.197077,0.255427 0.0017,-0.283484 -0.318326,-0.234276 -0.01412,-0.218803 0.549206,-0.159757 0.258574,-0.152313 0.07676,-0.23582 -0.102355,-0.0935 -0.149967,-0.05616 -2e-6,0 z m 3.45928,1.39426 -0.03606,0.14784 0.05925,0.112346 -0.05408,0.221769 -0.117554,0.284614 0.247524,0.01137 0.215464,-0.133467 -0.118415,-0.185522 c -0.01705,-0.147877 -0.03793,-0.282588 -0.06891,-0.42799 l -0.127215,-0.03104 z m -0.272024,0.246939 -0.156658,0.01082 -0.029,0.276839 0.21561,-0.05511 -0.02996,-0.232476 0,0 z m 2.0697076,3.079563 0.154971,0.311918 0.516552,-0.076 c 0,0 -0.335038,1.095993 -0.300805,1.323011 -0.0678,-0.01173 -0.133595,-0.02279 -0.202164,-0.03951 -0.05966,-0.296587 -0.09277,-0.589095 -0.119716,-0.890724 l -0.118489,-0.224701 -0.0097,-0.354816 0.07938,-0.04917 0,-2e-6 z"
       id="path6534-7"
       style="fill:#6bb6de;fill-opacity:1;fill-rule:nonzero;stroke:none"
       inkscape:connector-curvature="0"
       sodipodi:nodetypes="cccccccccccccccccccccccccccccccccccccccccccccccccccccccccccccccccccccccccccccccccccccccccccccccccccccccccccccccccccccccccccccccccccccccccccccccccccccccccccccccccccccccccccccccccccccccccccccccccccccccccccccccccccccccccccccccccccccccccccccccccccccccccccccccccccccccccccccccccccccccccccc" />
  </g>
</svg>
