<?xml version="1.0" encoding="UTF-8" standalone="no"?>
<!-- Created with Inkscape (http://www.inkscape.org/) -->

<svg
   xmlns:dc="http://purl.org/dc/elements/1.1/"
   xmlns:cc="http://creativecommons.org/ns#"
   xmlns:rdf="http://www.w3.org/1999/02/22-rdf-syntax-ns#"
   xmlns:svg="http://www.w3.org/2000/svg"
   xmlns="http://www.w3.org/2000/svg"
   xmlns:sodipodi="http://sodipodi.sourceforge.net/DTD/sodipodi-0.dtd"
   xmlns:inkscape="http://www.inkscape.org/namespaces/inkscape"
   version="1.0"
   width="16"
   height="16"
   id="svg4018"
   inkscape:version="0.91 r13725"
   sodipodi:docname="unknown.svg">
  <metadata
     id="metadata217738">
    <rdf:RDF>
      <cc:Work
         rdf:about="">
        <dc:format>image/svg+xml</dc:format>
        <dc:type
           rdf:resource="http://purl.org/dc/dcmitype/StillImage" />
        <dc:title />
      </cc:Work>
    </rdf:RDF>
  </metadata>
  <sodipodi:namedview
     pagecolor="#ffffff"
     bordercolor="#666666"
     borderopacity="1"
     objecttolerance="10"
     gridtolerance="10"
     guidetolerance="10"
     inkscape:pageopacity="0"
     inkscape:pageshadow="2"
     inkscape:window-width="1440"
     inkscape:window-height="852"
     id="namedview217736"
     showgrid="false"
     inkscape:zoom="8"
     inkscape:cx="29.194001"
     inkscape:cy="29.389893"
     inkscape:window-x="0"
     inkscape:window-y="0"
     inkscape:window-maximized="1"
     inkscape:current-layer="svg4018"
     showguides="true"
     inkscape:guide-bbox="true" />
  <defs
     id="defs4020" />
  <rect
     transform="scale(1,-1)"
     y="-16"
     x="1"
     height="16"
     width="14"
     id="rect5634-0-6-0-7-5-3"
     style="fill:#b2b2b2;fill-opacity:1;stroke:none" />
  <rect
     style="fill:#ffffff;fill-opacity:1;stroke:none"
     id="rect4146"
     width="12"
     height="14"
     x="2"
     y="-15"
     transform="scale(1,-1)" />
  <rect
     transform="scale(1,-1)"
     y="-14"
     x="3"
     height="12"
     width="10"
     id="rect4148"
     style="fill:#b2b2b2;fill-opacity:1;stroke:none" />
  <g
     style="font-style:normal;font-variant:normal;font-weight:bold;font-stretch:normal;font-size:15px;line-height:125%;font-family:Sawasdee;-inkscape-font-specification:'Sawasdee Bold';letter-spacing:0px;word-spacing:0px;fill:#ffffff;fill-opacity:1;stroke:none;stroke-width:1px;stroke-linecap:butt;stroke-linejoin:miter;stroke-opacity:1"
     id="text4150">
    <path
       d="m 7.1796875,12.156494 q 0.2490234,-0.249023 0.6079102,-0.249023 0.3588867,0 0.6005859,0.249023 0.2490234,0.241699 0.2490234,0.593262 0,0.344238 -0.2490234,0.578613 -0.2416992,0.234375 -0.6005859,0.234375 -0.3588868,0 -0.6079102,-0.234375 -0.2416992,-0.234375 -0.2416992,-0.578613 0,-0.351563 0.2416992,-0.593262 z m 1.2158203,-1.047363 -1.1645508,0 0,-1.083985 q 0,-0.520019 0.1464844,-0.9960933 Q 7.53125,8.5529785 7.7729492,8.1940918 8.0146484,7.8278809 8.300293,7.498291 8.5932617,7.1687012 8.8789063,6.8903809 9.171875,6.6120605 9.4135742,6.3557129 9.6552734,6.0993652 9.8017578,5.8356934 9.9555664,5.5646973 9.9555664,5.3156738 q 0,-0.7836914 -0.5200195,-1.2670898 -0.5126953,-0.4833985 -1.2890625,-0.4833985 -0.8935547,0 -1.5014649,0.5566407 -0.6005859,0.5493164 -0.6005859,1.1938476 l 0,0.2490235 -1.1425781,0 0,-0.2490235 q 0,-0.7617187 0.4321289,-1.4208984 0.4394531,-0.6665039 1.1865234,-1.0620117 0.7543945,-0.3955078 1.6259766,-0.3955078 1.2670898,0 2.1093746,0.8203125 0.842286,0.8203125 0.842286,2.0581054 0,0.3955078 -0.153809,0.769043 -0.146484,0.3662109 -0.388184,0.6665039 -0.234375,0.300293 -0.527343,0.6005859 Q 9.7431641,7.6447754 9.4575195,7.9450684 9.171875,8.2380371 8.9301758,8.5456543 8.6958008,8.8532715 8.5419922,9.2341309 8.3955078,9.6149902 8.3955078,10.025146 l 0,1.083985 z"
       id="path4173"
       style="" />
  </g>
</svg>
