<?xml version="1.0" encoding="UTF-8" standalone="no"?>
<!-- Created with Inkscape (http://www.inkscape.org/) -->

<svg
   xmlns:dc="http://purl.org/dc/elements/1.1/"
   xmlns:cc="http://creativecommons.org/ns#"
   xmlns:rdf="http://www.w3.org/1999/02/22-rdf-syntax-ns#"
   xmlns:svg="http://www.w3.org/2000/svg"
   xmlns="http://www.w3.org/2000/svg"
   xmlns:sodipodi="http://sodipodi.sourceforge.net/DTD/sodipodi-0.dtd"
   xmlns:inkscape="http://www.inkscape.org/namespaces/inkscape"
   width="32"
   height="32"
   id="svg2"
   sodipodi:version="0.32"
   inkscape:version="0.91 r13725"
   version="1.0"
   sodipodi:docname="drive-removable-media.svg"
   inkscape:output_extension="org.inkscape.output.svg.inkscape">
  <defs
     id="defs4" />
  <sodipodi:namedview
     id="base"
     pagecolor="#ffffff"
     bordercolor="#666666"
     borderopacity="1.0"
     gridtolerance="10000"
     guidetolerance="10"
     objecttolerance="10"
     inkscape:pageopacity="0.0"
     inkscape:pageshadow="2"
     inkscape:zoom="3.0107283"
     inkscape:cx="-45.880224"
     inkscape:cy="-31.930625"
     inkscape:document-units="px"
     inkscape:current-layer="layer1"
     showgrid="false"
     inkscape:window-width="1323"
     inkscape:window-height="836"
     inkscape:window-x="115"
     inkscape:window-y="16"
     inkscape:window-maximized="0"
     showguides="true"
     inkscape:guide-bbox="true" />
  <metadata
     id="metadata7">
    <rdf:RDF>
      <cc:Work
         rdf:about="">
        <dc:format>image/svg+xml</dc:format>
        <dc:type
           rdf:resource="http://purl.org/dc/dcmitype/StillImage" />
        <dc:title />
      </cc:Work>
    </rdf:RDF>
  </metadata>
  <g
     inkscape:label="Layer 1"
     inkscape:groupmode="layer"
     id="layer1"
     transform="translate(0,8)">
    <path
       style="opacity:1;fill:#8c8c8c;fill-opacity:1;fill-rule:evenodd;stroke:none;stroke-width:1;stroke-linecap:square;stroke-linejoin:miter;stroke-miterlimit:4;stroke-dasharray:none;stroke-opacity:1"
       d="M 6,-5 3,21 29,21 26,-5 Z"
       id="rect4243"
       inkscape:connector-curvature="0"
       sodipodi:nodetypes="ccccc" />
    <path
       sodipodi:nodetypes="ccccc"
       inkscape:connector-curvature="0"
       id="path4741"
       d="M 7,-4 4.25,20 27.75,20 25,-4 Z"
       style="opacity:1;fill:#ffffff;fill-opacity:1;fill-rule:evenodd;stroke:none;stroke-width:1;stroke-linecap:square;stroke-linejoin:miter;stroke-miterlimit:4;stroke-dasharray:none;stroke-opacity:1" />
    <rect
       style="fill:#8c8c8c;fill-opacity:1;stroke:none;stroke-width:2;stroke-miterlimit:4;stroke-dasharray:none;stroke-opacity:1"
       id="rect4743"
       width="18"
       height="1"
       x="7"
       y="16" />
    <path
       style="display:inline;fill:#8c8c8c;fill-opacity:1;stroke:none"
       d="m 15.936843,-2.000002 -2.526314,3.0295859 1.51579,0 0,6.1222871 C 14.824571,7.139261 14.804699,7.134471 14.642107,7.088741 14.405355,7.022161 14.14847,6.938381 13.947372,6.83629 13.221484,6.467755 12.758802,5.8355004 12.621057,5.0690401 l -0.03158,-0.12624 c 0.43869,-0.1977 0.726315,-0.5385559 0.726315,-0.9151856 0,-0.6061897 -0.722115,-1.1045355 -1.642104,-1.1045355 -0.91999,0 -1.673683,0.4983458 -1.673683,1.1045355 0,0.4546457 0.412647,0.8432375 1.010525,1.0098633 0.624507,2.1320112 2.243598,3.2031162 3.915787,3.5029562 l 0,1.230769 0,1.420118 c -0.602002,0.262313 -1.010527,0.734374 -1.010527,1.293884 0,0.836601 0.904855,1.514795 2.02105,1.514795 1.116198,0 2.021052,-0.678194 2.021052,-1.514795 0,-0.55951 -0.408525,-1.031571 -1.010525,-1.293884 l 0,-2.366863 0,-2.219903 c 0,0 1.210308,-0.0017 1.739358,-0.253393 C 19.67631,5.8804901 20.50011,5.0390526 21.106536,4.1267784 21.317897,3.8088146 21.494734,3.049313 21.494734,3.049313 l 0.505261,0 0,-2.0197231 -3.031575,0 0,2.0197231 0.663156,0 0,0.0947 c -0.06417,0.2468298 -0.154859,0.5317878 -0.221053,0.6627196 -0.828868,0.8790516 -1.423797,1.4148899 -2.463156,1.4516796 l 0,-4.2287981 1.515789,0 z"
       id="path3218"
       inkscape:connector-curvature="0"
       sodipodi:nodetypes="ccccscccsssccccssscccaacccccccccccc" />
  </g>
</svg>
