<?xml version="1.0" encoding="UTF-8" standalone="no"?>
<!-- Created with Inkscape (http://www.inkscape.org/) -->

<svg
   xmlns:dc="http://purl.org/dc/elements/1.1/"
   xmlns:cc="http://creativecommons.org/ns#"
   xmlns:rdf="http://www.w3.org/1999/02/22-rdf-syntax-ns#"
   xmlns:svg="http://www.w3.org/2000/svg"
   xmlns="http://www.w3.org/2000/svg"
   xmlns:sodipodi="http://sodipodi.sourceforge.net/DTD/sodipodi-0.dtd"
   xmlns:inkscape="http://www.inkscape.org/namespaces/inkscape"
   version="1.0"
   width="32"
   height="32"
   id="svg3540"
   inkscape:version="0.91 r13725"
   sodipodi:docname="media-optical-audio.svg">
  <metadata
     id="metadata174409">
    <rdf:RDF>
      <cc:Work
         rdf:about="">
        <dc:format>image/svg+xml</dc:format>
        <dc:type
           rdf:resource="http://purl.org/dc/dcmitype/StillImage" />
        <dc:title />
      </cc:Work>
    </rdf:RDF>
  </metadata>
  <sodipodi:namedview
     pagecolor="#ffffff"
     bordercolor="#666666"
     borderopacity="1"
     objecttolerance="10"
     gridtolerance="10"
     guidetolerance="10"
     inkscape:pageopacity="0"
     inkscape:pageshadow="2"
     inkscape:window-width="1920"
     inkscape:window-height="1021"
     id="namedview174407"
     showgrid="false"
     inkscape:zoom="8.250449"
     inkscape:cx="-37.82457"
     inkscape:cy="21.595199"
     inkscape:window-x="0"
     inkscape:window-y="0"
     inkscape:window-maximized="1"
     inkscape:current-layer="svg3540" />
  <defs
     id="defs3542" />
  <path
     inkscape:connector-curvature="0"
     style="opacity:1;fill:#8c8c8c;fill-opacity:1;fill-rule:evenodd;stroke:none;stroke-width:1;stroke-linecap:square;stroke-linejoin:miter;stroke-miterlimit:4;stroke-dasharray:none;stroke-opacity:1"
     d="M 16,2.5 C 8.544157,2.5 2.5,8.5441554 2.5,16 2.5,23.455843 8.544157,29.5 16,29.5 23.455843,29.5 29.5,23.455843 29.5,16 29.5,8.5441554 23.455843,2.5 16,2.5 Z"
     id="path4187-2-0"
     sodipodi:nodetypes="sssss" />
  <path
     id="path5323"
     d="M 16,3.9999998 C 9.3725838,3.9999998 4.0000001,9.3725828 4.0000001,16 4.0000001,22.627415 9.3725838,28 16,28 22.627417,28 28,22.627415 28,16 28,9.3725828 22.627417,3.9999998 16,3.9999998 Z"
     style="opacity:1;fill:#ffffff;fill-opacity:1;fill-rule:evenodd;stroke:none;stroke-width:1;stroke-linecap:square;stroke-linejoin:miter;stroke-miterlimit:4;stroke-dasharray:none;stroke-opacity:1"
     inkscape:connector-curvature="0"
     sodipodi:nodetypes="sssss" />
  <path
     sodipodi:nodetypes="sssss"
     id="path5325"
     d="m 16,12.5 c -1.932997,0 -3.5,1.567002 -3.5,3.5 0,1.932998 1.567003,3.5 3.5,3.5 1.932997,0 3.5,-1.567002 3.5,-3.5 0,-1.932998 -1.567003,-3.5 -3.5,-3.5 z"
     style="opacity:1;fill:#8c8c8c;fill-opacity:1;fill-rule:evenodd;stroke:none;stroke-width:1;stroke-linecap:square;stroke-linejoin:miter;stroke-miterlimit:4;stroke-dasharray:none;stroke-opacity:1"
     inkscape:connector-curvature="0" />
</svg>
