<?xml version="1.0" encoding="UTF-8" standalone="no"?>
<!-- Created with Inkscape (http://www.inkscape.org/) -->

<svg
   xmlns:dc="http://purl.org/dc/elements/1.1/"
   xmlns:cc="http://creativecommons.org/ns#"
   xmlns:rdf="http://www.w3.org/1999/02/22-rdf-syntax-ns#"
   xmlns:svg="http://www.w3.org/2000/svg"
   xmlns="http://www.w3.org/2000/svg"
   xmlns:xlink="http://www.w3.org/1999/xlink"
   xmlns:sodipodi="http://sodipodi.sourceforge.net/DTD/sodipodi-0.dtd"
   xmlns:inkscape="http://www.inkscape.org/namespaces/inkscape"
   version="1.0"
   width="32"
   height="32"
   id="svg4569"
   sodipodi:version="0.32"
   inkscape:version="0.91 r13725"
   sodipodi:docname="network.svg"
   inkscape:output_extension="org.inkscape.output.svg.inkscape">
  <metadata
     id="metadata46">
    <rdf:RDF>
      <cc:Work
         rdf:about="">
        <dc:format>image/svg+xml</dc:format>
        <dc:type
           rdf:resource="http://purl.org/dc/dcmitype/StillImage" />
        <dc:title />
      </cc:Work>
    </rdf:RDF>
  </metadata>
  <sodipodi:namedview
     inkscape:window-height="789"
     inkscape:window-width="1438"
     inkscape:pageshadow="2"
     inkscape:pageopacity="0.0"
     guidetolerance="10.0"
     gridtolerance="10.0"
     objecttolerance="10.0"
     borderopacity="1.0"
     bordercolor="#666666"
     pagecolor="#ffffff"
     id="base"
     showgrid="false"
     showguides="true"
     inkscape:guide-bbox="true"
     inkscape:zoom="9.076178"
     inkscape:cx="0.76432473"
     inkscape:cy="7.9058016"
     inkscape:window-x="0"
     inkscape:window-y="61"
     inkscape:current-layer="svg4569"
     inkscape:window-maximized="0"
     inkscape:snap-object-midpoints="true"
     inkscape:snap-center="true">
    <inkscape:grid
       type="xygrid"
       id="grid2421"
       empspacing="5"
       visible="true"
       enabled="true"
       snapvisiblegridlinesonly="true" />
  </sodipodi:namedview>
  <defs
     id="defs4571">
    <linearGradient
       id="linearGradient3342-5">
      <stop
         id="stop3344-6"
         style="stop-color:#ffffff;stop-opacity:0"
         offset="0" />
      <stop
         id="stop3346-1"
         style="stop-color:#ffffff;stop-opacity:1"
         offset="1" />
    </linearGradient>
    <linearGradient
       inkscape:collect="always"
       xlink:href="#linearGradient3342-5"
       id="linearGradient3778-3-5-9"
       gradientUnits="userSpaceOnUse"
       gradientTransform="matrix(0.54378686,0.06454956,-0.06455565,0.54371083,4.1364939,1.8875574)"
       x1="20"
       y1="43"
       x2="20"
       y2="2.6887112" />
  </defs>
  <circle
     style="fill:#8c8c8c;fill-opacity:1;stroke:none;stroke-width:2;stroke-miterlimit:4;stroke-dasharray:none;stroke-opacity:1"
     id="path12632-5"
     cx="16"
     cy="16"
     r="13.5" />
  <circle
     cy="16"
     cx="16"
     id="circle12630-6"
     style="fill:#ffffff;fill-opacity:1;stroke:none;stroke-width:2;stroke-miterlimit:4;stroke-dasharray:none;stroke-opacity:1"
     r="12" />
  <path
     style="fill:#8c8c8c;fill-opacity:1;fill-rule:nonzero;stroke:url(#linearGradient3778-3-5-9);stroke-width:0;stroke-miterlimit:4;stroke-dasharray:none"
     d="m 14.806124,6.0000057 -0.550047,0.032741 -0.301214,0.2259143 -0.425633,0.00649 -0.396162,0.1375168 -0.189897,0.072023 -0.06547,0.068763 -0.275024,0.022929 -0.206267,0.333961 -0.163707,-0.4747436 -0.09167,0.1800842 -0.02293,0.5042113 -0.379793,0.2553775 -0.261929,0.5107584 0.415811,0.049117 0.202993,-0.3306822 0.06875,-0.1244204 c 0.19802,-0.1106857 0.391816,-0.2384648 0.592617,-0.343779 l 0.412539,0.2029935 c 0.258765,0.230601 0.520189,0.4605037 0.779231,0.6908333 L 14.409963,7.6861365 13.961414,7.4209346 13.797705,6.9527414 13.015199,6.7661276 l -0.0066,-0.094951 0.333957,0.1145867 0.222638,-0.1800657 0.442001,-0.039281 c 0.108464,-0.038911 0.215806,-0.065679 0.324134,-0.094951 l -0.301215,0.2291848 0.893825,0.8021528 -0.04912,0.409261 -0.422356,0.3437774 0.379793,1.093545 0.366697,-0.1604237 0.517306,-0.6319 c 0.631428,-0.12036 1.204625,-0.2827472 1.810569,-0.4812882 l -0.06549,0.2553765 0.265202,0.2390082 0.543497,-0.2913921 -0.21609,-0.3274093 -0.366696,0.1604224 -0.104763,-0.049117 c 0.02622,-0.00859 0.0522,-0.01727 0.07857,-0.026188 l 0.661447,-1.2736188 -1.047706,-0.5795127 -1.280168,-0.00325 -1.437324,0.225912 c 0.12332,-0.028368 0.252399,-0.062361 0.379794,-0.088399 z m -2.710941,1.5944812 0.379793,0.3470525 0.343779,0.042565 0.03928,-0.3568771 -0.392889,-0.232459 z M 10.834659,7.4438762 10.595651,7.9022459 c 0,0 -0.319251,0.015379 -0.402713,0.026188 -1.1501432,0.8558554 -3.4878462,2.7304821 -4.4429329,6.6660351 0.00835,0.0949 0.2652005,0.674464 0.2652005,0.674464 l 0.7399434,0.576238 0.7661353,0.317586 0.2946679,0.468195 0.4747432,0.471468 0.3110387,-0.01965 0.2029911,0.137517 -0.00662,0.07201 -0.3863413,0.802151 -0.2782967,0.324134 0.052381,0.173517 -0.2553792,0.644994 0.5140322,1.339109 0.6155273,0.697375 0.2553788,0.481291 -0.1440639,0.923295 0.1538763,0.543496 -0.3339575,0.975677 c 0,0 -0.026833,-0.01272 -0.00988,0.09169 0.01727,0.104473 1.5735818,1.280333 1.6552278,1.232105 0.08151,-0.04931 0.157159,-0.09169 0.157159,-0.09169 l -0.04583,-0.232462 0.343778,-0.25865 0.144064,-0.301217 0.504211,-0.108034 0.494385,-0.920017 -0.07856,-0.27175 0.304491,-0.376518 0.589334,-0.06221 0.373245,-0.667912 0.02947,-0.880729 0.680524,-1.465126 0.147328,-0.654818 c -0.581751,-0.389527 -1.149413,-0.790177 -1.72545,-1.18848 L 12.3223,17.396521 11.775528,17.196802 11.56926,16.325896 l -0.753039,0.0032 -1.2061926,-0.04528 -0.7563141,0.527129 -0.00988,0.09167 c -0.1979826,-0.0854 -0.4428041,-0.121108 -0.612061,-0.258549 l -0.091664,-0.46492 0.058927,-0.48129 -0.4747432,0 c 0.073807,-0.302465 0.1583927,-0.607817 0.2324591,-0.910197 l -0.271749,-0.03272 -0.3077629,0.317588 -0.268476,0.09821 -0.3536012,-0.2652 0.022926,-0.484563 0.1276858,-0.514033 0.6122538,-0.376523 0.4550987,0.05237 0.117874,-0.248816 0.546772,0.199719 0.3503271,0.589335 0.176802,-0.884002 0.7956025,-0.523854 0.327408,-0.618803 0.566417,-0.160423 0.33723,-0.409262 0.703928,-0.04583 0.405987,-0.48129 -1.031337,-0.121139 0.687558,-0.235735 0.448551,0.05237 0.605705,-0.134233 0.03602,0.589336 0.304491,-0.379793 -0.265203,-0.239009 0.09823,-0.229184 -0.209558,-0.252129 -0.24228,-0.1047746 0.104775,-0.2684734 -0.15061,-0.4125338 -0.474745,0.1276852 0.114587,-0.3437773 -0.484563,-0.3732463 -0.504209,0.6908323 0.0066,0.2651995 L 10.906786,9.7619303 10.5892,10.308704 10.523727,9.7553832 9.8558141,9.3723148 9.7772413,8.9532328 10.798756,8.511231 11.260402,8.1510822 11.352085,7.6730657 11.135994,7.5159069 Z m 10.866691,1.0575291 -0.75959,0.098233 -0.504206,0.2586527 -0.03602,0.278297 -0.79233,0.3928907 0.05566,0.7432163 0.471469,-0.265202 0.232462,0.347054 0.284845,0.222637 0.261927,-0.517305 -0.06874,-0.3274069 0.134234,-0.2062697 0.481287,-0.3601489 0.196446,0.02947 -0.252104,0.4190844 -0.04911,0.4092601 c 0.184317,-0.02851 0.367956,-0.03132 0.553321,-0.03274 l -0.550034,0.31431 -0.05895,0.219364 -0.635173,0.428905 -0.579512,-0.219362 0.03932,-0.353601 -0.288123,0.153876 0.0884,0.327408 -0.432192,-0.04911 0.17534,0.02186 -0.327407,0.297941 -0.533676,0.04912 0.265202,0.350326 0.03602,0.324135 -0.379793,-0.04583 -0.53695,0.219364 -0.09494,0.81852 0.235734,0.02619 0.186614,0.2652 0.517305,-0.183348 0.235733,-0.474743 0.389618,-0.180066 0.09167,-0.180066 0.595885,-0.0753 0.281573,0.405987 0.320858,0.225911 -0.245554,0.386343 0.31431,-0.05566 0.212818,-0.386343 -0.340508,-0.514029 0.160425,0.01965 0.356873,0.383067 0.01965,0.451825 0.294667,0.448547 0.160424,-0.579511 0.189897,-0.07202 c 0.167941,0.22787 0.290986,0.493292 0.425632,0.743218 l 0.592612,0.111326 0.317587,0.265201 -0.193165,0.219362 -0.37651,0.271751 -1.32559,0.762449 -0.641721,-0.307764 -0.34378,-0.0032 -0.291394,0.268474 -0.635173,-0.828345 -0.484568,-0.206268 -0.753038,0.0032 -0.671186,0.104774 c -0.421179,0.387131 -0.850655,0.779078 -1.253968,1.18522 l -0.536951,0.985501 0.170254,0.248831 -0.422354,0.491112 0.284844,0.99532 c 0.285145,0.42348 0.576449,0.843379 0.861083,1.267071 l 0.533676,-0.366695 0.16697,0.281571 0.566419,-0.28812 0.157159,0.225911 0.523853,0.06221 0.261927,0.389612 -0.252105,0.608984 0.311037,0.468194 -0.104775,0.743217 0.206268,0.569692 -0.252104,0.438726 c -0.05841,0.330048 -0.111548,0.643264 -0.150611,0.975677 0.106236,0.469442 0.210754,0.939514 0.307765,1.411132 l 0.02293,0.736669 -0.04256,0.369973 0.288119,0.03602 0.44855,-0.229186 0.504211,0.05895 0.861084,-0.779233 -0.05895,-0.307762 0.563142,-0.402712 -0.327406,-0.471469 0.491112,-0.317586 0.468193,-0.225911 0.222637,-0.19972 -0.06875,-0.514032 0.150609,-1.260519 0.435457,-0.736673 0.487838,-0.432182 0.608981,-1.126286 0.03602,-0.317585 c -0.236956,0.0022 -0.46376,0.004 -0.694104,-0.0067 l 1.345235,-1.247017 0.700654,-0.366696 0.392889,-0.366697 0.04912,-0.442 c -0.06006,-0.160034 -0.119526,-0.334404 -0.180111,-0.494437 l -0.347053,0.337231 -0.202995,-0.307764 -0.307759,-0.32086 0.06221,-0.572965 0.343777,0.510757 0.458375,0 c 0.181167,0.2142 0.35769,0.404224 0.510756,0.641723 l 0.327416,-0.297943 c 0.04222,-0.359185 -0.603988,-1.820887 -1.278706,-3.423615 -0.674766,-1.602204 -2.007014,-3.1561869 -2.007014,-3.1561869 l -0.131012,0.1899181 -0.451825,0.3994376 -0.442,-0.6024299 0.507484,0.062211 0.265199,-0.2291861 -0.916743,-0.2979415 z m -3.2348,0.7563124 -0.03602,0.2979415 0.144065,0.2062664 -0.05566,0.4452754 -0.16043,0.582789 0.48129,-0.03602 0.38635,-0.311041 -0.275023,-0.33723 C 18.883631,9.8216393 18.812462,9.5663896 18.718659,9.2904503 Z m -0.464919,0.5467732 -0.297941,0.062211 0.0067,0.5467711 0.405987,-0.160423 z m 5.171599,5.1556351 0.373244,0.56969 0.38962,1.208137 0.278296,0.412536 -1.02438,1.191354 0.24883,0.38307 c -0.133511,-0.0068 -0.266576,-0.01309 -0.402711,-0.02947 C 22.851547,18.13176 22.720111,17.570901 22.5974,16.989644 l -0.278293,-0.409261 -0.104776,-0.687557 z"
     id="path4140-2"
     inkscape:connector-curvature="0"
     sodipodi:nodetypes="cccccccccccccccccccccccccccccccccccccccccccccccccccccccccccccccccccccccccccccccccccccccccccccccccccccccccccccccccccccccccccccccccccccccccccccccccccccccccccccccccccccccccccccccccccccccccccccccccccccccccccccccccccccccccccccccccccccccccccccccccccccccccccccccccccccccccccccccccccccccccccccccccccccccccccccc" />
</svg>
