<?xml version="1.0" encoding="UTF-8" standalone="no"?>
<!-- Created with Inkscape (http://www.inkscape.org/) -->

<svg
   xmlns:dc="http://purl.org/dc/elements/1.1/"
   xmlns:cc="http://creativecommons.org/ns#"
   xmlns:rdf="http://www.w3.org/1999/02/22-rdf-syntax-ns#"
   xmlns:svg="http://www.w3.org/2000/svg"
   xmlns="http://www.w3.org/2000/svg"
   xmlns:sodipodi="http://sodipodi.sourceforge.net/DTD/sodipodi-0.dtd"
   xmlns:inkscape="http://www.inkscape.org/namespaces/inkscape"
   id="svg7384"
   height="32"
   width="32"
   version="1.1"
   inkscape:version="0.91 r13725"
   sodipodi:docname="user-trash-full.svg">
  <defs
     id="defs10" />
  <sodipodi:namedview
     pagecolor="#ffffff"
     bordercolor="#666666"
     borderopacity="1"
     objecttolerance="10"
     gridtolerance="10"
     guidetolerance="10"
     inkscape:pageopacity="0"
     inkscape:pageshadow="2"
     inkscape:window-width="1440"
     inkscape:window-height="854"
     id="namedview8"
     showgrid="false"
     inkscape:zoom="7.0802175"
     inkscape:cx="11.260271"
     inkscape:cy="14.37235"
     inkscape:window-x="0"
     inkscape:window-y="0"
     inkscape:window-maximized="1"
     inkscape:current-layer="svg7384"
     inkscape:snap-bbox="true"
     inkscape:bbox-nodes="true"
     inkscape:bbox-paths="true"
     inkscape:snap-bbox-edge-midpoints="false" />
  <metadata
     id="metadata90">
    <rdf:RDF>
      <cc:Work
         rdf:about="">
        <dc:format>image/svg+xml</dc:format>
        <dc:type
           rdf:resource="http://purl.org/dc/dcmitype/StillImage" />
        <dc:title>Gnome Symbolic Icon Theme</dc:title>
      </cc:Work>
    </rdf:RDF>
  </metadata>
  <title
     id="title9167">Gnome Symbolic Icon Theme</title>
  <rect
     y="9"
     x="5"
     height="20"
     width="22"
     id="rect13400"
     style="fill:#8c8c8c;fill-opacity:1;stroke:none;stroke-width:2;stroke-miterlimit:4;stroke-dasharray:none;stroke-opacity:1" />
  <path
     sodipodi:nodetypes="ccccc"
     inkscape:connector-curvature="0"
     id="path13402"
     d="M 1,7 1,8 31,8 31,7 Z"
     style="color:#bebebe;text-indent:0pt;text-transform:none;fill:#8c8c8c;fill-opacity:1" />
  <path
     sodipodi:nodetypes="ccccc"
     inkscape:connector-curvature="0"
     id="path13404"
     d="M 6,9 6,28 26,28 26,9 Z"
     style="fill:#ffffff;fill-opacity:1;stroke:none" />
  <path
     style="color:#bebebe;text-indent:0pt;text-transform:none;fill:#8c8c8c;fill-opacity:1"
     d="M 7,3 7,7 25,7 25,3 Z"
     id="path13406"
     inkscape:connector-curvature="0"
     sodipodi:nodetypes="ccccc" />
  <path
     sodipodi:nodetypes="ccccc"
     inkscape:connector-curvature="0"
     id="path13408"
     d="M 8,4 8,7 24,7 24,4 Z"
     style="color:#bebebe;text-indent:0pt;text-transform:none;fill:#f9f9f9;fill-opacity:1" />
  <path
     sodipodi:nodetypes="ccccc"
     inkscape:connector-curvature="0"
     id="path13410"
     d="m 8,25 0,1 1,0 0,-1 z"
     style="fill:#8c8c8c;fill-opacity:1;stroke:none" />
  <path
     style="fill:#ffffff;fill-opacity:1;stroke:none"
     d="M 1,8 1,9 31,9 31,8 Z"
     id="path13470"
     inkscape:connector-curvature="0"
     sodipodi:nodetypes="ccccc" />
  <path
     style="fill:#8c8c8c;fill-opacity:1;stroke:none"
     d="m 10,25 0,1 1,0 0,-1 z"
     id="path4295"
     inkscape:connector-curvature="0"
     sodipodi:nodetypes="ccccc" />
  <path
     sodipodi:nodetypes="ccccc"
     inkscape:connector-curvature="0"
     id="path4297"
     d="m 12,25 0,1 1,0 0,-1 z"
     style="fill:#8c8c8c;fill-opacity:1;stroke:none" />
  <path
     style="fill:#8c8c8c;fill-opacity:1;stroke:none"
     d="m 8,23 0,1 1,0 0,-1 z"
     id="path4299"
     inkscape:connector-curvature="0"
     sodipodi:nodetypes="ccccc" />
  <path
     sodipodi:nodetypes="ccccc"
     inkscape:connector-curvature="0"
     id="path4301"
     d="m 10,23 0,1 1,0 0,-1 z"
     style="fill:#8c8c8c;fill-opacity:1;stroke:none" />
  <path
     style="fill:#8c8c8c;fill-opacity:1;stroke:none"
     d="m 12,23 0,1 1,0 0,-1 z"
     id="path4303"
     inkscape:connector-curvature="0"
     sodipodi:nodetypes="ccccc" />
  <path
     sodipodi:nodetypes="ccccc"
     inkscape:connector-curvature="0"
     id="path4305"
     d="m 8,21 0,1 1,0 0,-1 z"
     style="fill:#8c8c8c;fill-opacity:1;stroke:none" />
  <path
     style="fill:#8c8c8c;fill-opacity:1;stroke:none"
     d="m 10,21 0,1 1,0 0,-1 z"
     id="path4307"
     inkscape:connector-curvature="0"
     sodipodi:nodetypes="ccccc" />
  <path
     sodipodi:nodetypes="ccccc"
     inkscape:connector-curvature="0"
     id="path4309"
     d="m 12,21 0,1 1,0 0,-1 z"
     style="fill:#8c8c8c;fill-opacity:1;stroke:none" />
  <path
     style="fill:#8c8c8c;fill-opacity:1;stroke:none"
     d="m 8,15 0,1 1,0 0,-1 z"
     id="path4311"
     inkscape:connector-curvature="0"
     sodipodi:nodetypes="ccccc" />
  <path
     sodipodi:nodetypes="ccccc"
     inkscape:connector-curvature="0"
     id="path4313"
     d="m 10,15 0,1 1,0 0,-1 z"
     style="fill:#8c8c8c;fill-opacity:1;stroke:none" />
  <path
     style="fill:#8c8c8c;fill-opacity:1;stroke:none"
     d="m 12,15 0,1 1,0 0,-1 z"
     id="path4315"
     inkscape:connector-curvature="0"
     sodipodi:nodetypes="ccccc" />
  <path
     sodipodi:nodetypes="ccccc"
     inkscape:connector-curvature="0"
     id="path4317"
     d="m 8,13 0,1 1,0 0,-1 z"
     style="fill:#8c8c8c;fill-opacity:1;stroke:none" />
  <path
     style="fill:#8c8c8c;fill-opacity:1;stroke:none"
     d="m 10,13 0,1 1,0 0,-1 z"
     id="path4319"
     inkscape:connector-curvature="0"
     sodipodi:nodetypes="ccccc" />
  <path
     sodipodi:nodetypes="ccccc"
     inkscape:connector-curvature="0"
     id="path4321"
     d="m 12,13 0,1 1,0 0,-1 z"
     style="fill:#8c8c8c;fill-opacity:1;stroke:none" />
  <path
     style="fill:#8c8c8c;fill-opacity:1;stroke:none"
     d="m 8,11 0,1 1,0 0,-1 z"
     id="path4323"
     inkscape:connector-curvature="0"
     sodipodi:nodetypes="ccccc" />
  <path
     sodipodi:nodetypes="ccccc"
     inkscape:connector-curvature="0"
     id="path4325"
     d="m 10,11 0,1 1,0 0,-1 z"
     style="fill:#8c8c8c;fill-opacity:1;stroke:none" />
  <path
     style="fill:#8c8c8c;fill-opacity:1;stroke:none"
     d="m 12,11 0,1 1,0 0,-1 z"
     id="path4327"
     inkscape:connector-curvature="0"
     sodipodi:nodetypes="ccccc" />
  <path
     style="fill:#8c8c8c;fill-opacity:1;stroke:none"
     d="m 19,25 0,1 1,0 0,-1 z"
     id="path4329"
     inkscape:connector-curvature="0"
     sodipodi:nodetypes="ccccc" />
  <path
     sodipodi:nodetypes="ccccc"
     inkscape:connector-curvature="0"
     id="path4331"
     d="m 21,25 0,1 1,0 0,-1 z"
     style="fill:#8c8c8c;fill-opacity:1;stroke:none" />
  <path
     style="fill:#8c8c8c;fill-opacity:1;stroke:none"
     d="m 23,25 0,1 1,0 0,-1 z"
     id="path4333"
     inkscape:connector-curvature="0"
     sodipodi:nodetypes="ccccc" />
  <path
     sodipodi:nodetypes="ccccc"
     inkscape:connector-curvature="0"
     id="path4335"
     d="m 19,23 0,1 1,0 0,-1 z"
     style="fill:#8c8c8c;fill-opacity:1;stroke:none" />
  <path
     style="fill:#8c8c8c;fill-opacity:1;stroke:none"
     d="m 21,23 0,1 1,0 0,-1 z"
     id="path4337"
     inkscape:connector-curvature="0"
     sodipodi:nodetypes="ccccc" />
  <path
     sodipodi:nodetypes="ccccc"
     inkscape:connector-curvature="0"
     id="path4339"
     d="m 23,23 0,1 1,0 0,-1 z"
     style="fill:#8c8c8c;fill-opacity:1;stroke:none" />
  <path
     style="fill:#8c8c8c;fill-opacity:1;stroke:none"
     d="m 19,21 0,1 1,0 0,-1 z"
     id="path4341"
     inkscape:connector-curvature="0"
     sodipodi:nodetypes="ccccc" />
  <path
     sodipodi:nodetypes="ccccc"
     inkscape:connector-curvature="0"
     id="path4343"
     d="m 21,21 0,1 1,0 0,-1 z"
     style="fill:#8c8c8c;fill-opacity:1;stroke:none" />
  <path
     style="fill:#8c8c8c;fill-opacity:1;stroke:none"
     d="m 23,21 0,1 1,0 0,-1 z"
     id="path4345"
     inkscape:connector-curvature="0"
     sodipodi:nodetypes="ccccc" />
  <path
     sodipodi:nodetypes="ccccc"
     inkscape:connector-curvature="0"
     id="path4347"
     d="m 19,15 0,1 1,0 0,-1 z"
     style="fill:#8c8c8c;fill-opacity:1;stroke:none" />
  <path
     style="fill:#8c8c8c;fill-opacity:1;stroke:none"
     d="m 21,15 0,1 1,0 0,-1 z"
     id="path4349"
     inkscape:connector-curvature="0"
     sodipodi:nodetypes="ccccc" />
  <path
     sodipodi:nodetypes="ccccc"
     inkscape:connector-curvature="0"
     id="path4351"
     d="m 23,15 0,1 1,0 0,-1 z"
     style="fill:#8c8c8c;fill-opacity:1;stroke:none" />
  <path
     style="fill:#8c8c8c;fill-opacity:1;stroke:none"
     d="m 19,13 0,1 1,0 0,-1 z"
     id="path4353"
     inkscape:connector-curvature="0"
     sodipodi:nodetypes="ccccc" />
  <path
     sodipodi:nodetypes="ccccc"
     inkscape:connector-curvature="0"
     id="path4355"
     d="m 21,13 0,1 1,0 0,-1 z"
     style="fill:#8c8c8c;fill-opacity:1;stroke:none" />
  <path
     style="fill:#8c8c8c;fill-opacity:1;stroke:none"
     d="m 23,13 0,1 1,0 0,-1 z"
     id="path4357"
     inkscape:connector-curvature="0"
     sodipodi:nodetypes="ccccc" />
  <path
     sodipodi:nodetypes="ccccc"
     inkscape:connector-curvature="0"
     id="path4359"
     d="m 19,11 0,1 1,0 0,-1 z"
     style="fill:#8c8c8c;fill-opacity:1;stroke:none" />
  <path
     style="fill:#8c8c8c;fill-opacity:1;stroke:none"
     d="m 21,11 0,1 1,0 0,-1 z"
     id="path4361"
     inkscape:connector-curvature="0"
     sodipodi:nodetypes="ccccc" />
  <path
     sodipodi:nodetypes="ccccc"
     inkscape:connector-curvature="0"
     id="path4363"
     d="m 23,11 0,1 1,0 0,-1 z"
     style="fill:#8c8c8c;fill-opacity:1;stroke:none" />
  <path
     sodipodi:nodetypes="ccccc"
     inkscape:connector-curvature="0"
     id="path4365"
     d="m 8,19 0,1 1,0 0,-1 z"
     style="fill:#8c8c8c;fill-opacity:1;stroke:none" />
  <path
     style="fill:#8c8c8c;fill-opacity:1;stroke:none"
     d="m 10,19 0,1 1,0 0,-1 z"
     id="path4367"
     inkscape:connector-curvature="0"
     sodipodi:nodetypes="ccccc" />
  <path
     sodipodi:nodetypes="ccccc"
     inkscape:connector-curvature="0"
     id="path4369"
     d="m 12,19 0,1 1,0 0,-1 z"
     style="fill:#8c8c8c;fill-opacity:1;stroke:none" />
  <path
     style="fill:#8c8c8c;fill-opacity:1;stroke:none"
     d="m 8,17 0,1 1,0 0,-1 z"
     id="path4371"
     inkscape:connector-curvature="0"
     sodipodi:nodetypes="ccccc" />
  <path
     sodipodi:nodetypes="ccccc"
     inkscape:connector-curvature="0"
     id="path4373"
     d="m 10,17 0,1 1,0 0,-1 z"
     style="fill:#8c8c8c;fill-opacity:1;stroke:none" />
  <path
     style="fill:#8c8c8c;fill-opacity:1;stroke:none"
     d="m 12,17 0,1 1,0 0,-1 z"
     id="path4375"
     inkscape:connector-curvature="0"
     sodipodi:nodetypes="ccccc" />
  <path
     style="fill:#8c8c8c;fill-opacity:1;stroke:none"
     d="m 19,19 0,1 1,0 0,-1 z"
     id="path4377"
     inkscape:connector-curvature="0"
     sodipodi:nodetypes="ccccc" />
  <path
     sodipodi:nodetypes="ccccc"
     inkscape:connector-curvature="0"
     id="path4379"
     d="m 21,19 0,1 1,0 0,-1 z"
     style="fill:#8c8c8c;fill-opacity:1;stroke:none" />
  <path
     style="fill:#8c8c8c;fill-opacity:1;stroke:none"
     d="m 23,19 0,1 1,0 0,-1 z"
     id="path4381"
     inkscape:connector-curvature="0"
     sodipodi:nodetypes="ccccc" />
  <path
     sodipodi:nodetypes="ccccc"
     inkscape:connector-curvature="0"
     id="path4383"
     d="m 19,17 0,1 1,0 0,-1 z"
     style="fill:#8c8c8c;fill-opacity:1;stroke:none" />
  <path
     style="fill:#8c8c8c;fill-opacity:1;stroke:none"
     d="m 21,17 0,1 1,0 0,-1 z"
     id="path4385"
     inkscape:connector-curvature="0"
     sodipodi:nodetypes="ccccc" />
  <path
     sodipodi:nodetypes="ccccc"
     inkscape:connector-curvature="0"
     id="path4387"
     d="m 23,17 0,1 1,0 0,-1 z"
     style="fill:#8c8c8c;fill-opacity:1;stroke:none" />
  <path
     style="fill:#8c8c8c;fill-opacity:1;stroke:none"
     d="m 14,25 0,1 1,0 0,-1 z"
     id="path4833"
     inkscape:connector-curvature="0"
     sodipodi:nodetypes="ccccc" />
  <path
     sodipodi:nodetypes="ccccc"
     inkscape:connector-curvature="0"
     id="path4835"
     d="m 14,23 0,1 1,0 0,-1 z"
     style="fill:#8c8c8c;fill-opacity:1;stroke:none" />
  <path
     style="fill:#8c8c8c;fill-opacity:1;stroke:none"
     d="m 14,21 0,1 1,0 0,-1 z"
     id="path4837"
     inkscape:connector-curvature="0"
     sodipodi:nodetypes="ccccc" />
  <path
     sodipodi:nodetypes="ccccc"
     inkscape:connector-curvature="0"
     id="path4839"
     d="m 14,15 0,1 1,0 0,-1 z"
     style="fill:#8c8c8c;fill-opacity:1;stroke:none" />
  <path
     style="fill:#8c8c8c;fill-opacity:1;stroke:none"
     d="m 14,13 0,1 1,0 0,-1 z"
     id="path4841"
     inkscape:connector-curvature="0"
     sodipodi:nodetypes="ccccc" />
  <path
     sodipodi:nodetypes="ccccc"
     inkscape:connector-curvature="0"
     id="path4843"
     d="m 14,11 0,1 1,0 0,-1 z"
     style="fill:#8c8c8c;fill-opacity:1;stroke:none" />
  <path
     style="fill:#8c8c8c;fill-opacity:1;stroke:none"
     d="m 14,19 0,1 1,0 0,-1 z"
     id="path4845"
     inkscape:connector-curvature="0"
     sodipodi:nodetypes="ccccc" />
  <path
     sodipodi:nodetypes="ccccc"
     inkscape:connector-curvature="0"
     id="path4847"
     d="m 14,17 0,1 1,0 0,-1 z"
     style="fill:#8c8c8c;fill-opacity:1;stroke:none" />
  <path
     sodipodi:nodetypes="ccccc"
     inkscape:connector-curvature="0"
     id="path4849"
     d="m 17,25 0,1 1,0 0,-1 z"
     style="fill:#8c8c8c;fill-opacity:1;stroke:none" />
  <path
     style="fill:#8c8c8c;fill-opacity:1;stroke:none"
     d="m 17,23 0,1 1,0 0,-1 z"
     id="path4851"
     inkscape:connector-curvature="0"
     sodipodi:nodetypes="ccccc" />
  <path
     sodipodi:nodetypes="ccccc"
     inkscape:connector-curvature="0"
     id="path4853"
     d="m 17,21 0,1 1,0 0,-1 z"
     style="fill:#8c8c8c;fill-opacity:1;stroke:none" />
  <path
     style="fill:#8c8c8c;fill-opacity:1;stroke:none"
     d="m 17,15 0,1 1,0 0,-1 z"
     id="path4855"
     inkscape:connector-curvature="0"
     sodipodi:nodetypes="ccccc" />
  <path
     sodipodi:nodetypes="ccccc"
     inkscape:connector-curvature="0"
     id="path4857"
     d="m 17,13 0,1 1,0 0,-1 z"
     style="fill:#8c8c8c;fill-opacity:1;stroke:none" />
  <path
     style="fill:#8c8c8c;fill-opacity:1;stroke:none"
     d="m 17,11 0,1 1,0 0,-1 z"
     id="path4859"
     inkscape:connector-curvature="0"
     sodipodi:nodetypes="ccccc" />
  <path
     sodipodi:nodetypes="ccccc"
     inkscape:connector-curvature="0"
     id="path4861"
     d="m 17,19 0,1 1,0 0,-1 z"
     style="fill:#8c8c8c;fill-opacity:1;stroke:none" />
  <path
     style="fill:#8c8c8c;fill-opacity:1;stroke:none"
     d="m 17,17 0,1 1,0 0,-1 z"
     id="path4863"
     inkscape:connector-curvature="0"
     sodipodi:nodetypes="ccccc" />
</svg>
