<?xml version="1.0" encoding="UTF-8" standalone="no"?>
<!-- Created with Inkscape (http://www.inkscape.org/) -->

<svg
   xmlns:dc="http://purl.org/dc/elements/1.1/"
   xmlns:cc="http://creativecommons.org/ns#"
   xmlns:rdf="http://www.w3.org/1999/02/22-rdf-syntax-ns#"
   xmlns:svg="http://www.w3.org/2000/svg"
   xmlns="http://www.w3.org/2000/svg"
   xmlns:sodipodi="http://sodipodi.sourceforge.net/DTD/sodipodi-0.dtd"
   xmlns:inkscape="http://www.inkscape.org/namespaces/inkscape"
   version="1.0"
   width="16"
   height="16"
   id="svg2457"
   inkscape:version="0.91 r13725"
   sodipodi:docname="bonobo-component-browser.svg">
  <metadata
     id="metadata23">
    <rdf:RDF>
      <cc:Work
         rdf:about="">
        <dc:format>image/svg+xml</dc:format>
        <dc:type
           rdf:resource="http://purl.org/dc/dcmitype/StillImage" />
        <dc:title />
      </cc:Work>
    </rdf:RDF>
  </metadata>
  <sodipodi:namedview
     pagecolor="#ffffff"
     bordercolor="#666666"
     borderopacity="1"
     objecttolerance="10"
     gridtolerance="10"
     guidetolerance="10"
     inkscape:pageopacity="0"
     inkscape:pageshadow="2"
     inkscape:window-width="1440"
     inkscape:window-height="851"
     id="namedview21"
     showgrid="false"
     inkscape:zoom="14.584078"
     inkscape:cx="6.9513224"
     inkscape:cy="2.8243766"
     inkscape:window-x="0"
     inkscape:window-y="0"
     inkscape:window-maximized="1"
     inkscape:current-layer="layer1" />
  <defs
     id="defs2459" />
  <g
     id="layer1"
     transform="matrix(0.640625,0,0,0.640625,5.75,5.75)">
    <rect
       y="-7.4146342"
       x="0.39024401"
       height="21.853659"
       width="6.2439022"
       id="rect38225"
       style="fill:#ffffff;fill-opacity:1;stroke:none" />
    <rect
       transform="matrix(0,1,-1,0,0,0)"
       y="-14.439025"
       x="0.39024401"
       height="21.853659"
       width="6.2439022"
       id="rect38158"
       style="fill:#ffffff;fill-opacity:1;stroke:none" />
    <rect
       style="fill:#ffffff;fill-opacity:1;stroke:none"
       id="rect38160"
       width="6.2439022"
       height="21.853659"
       x="-3.1219511"
       y="-15.893825"
       transform="matrix(-0.70710678,0.70710678,-0.70710678,-0.70710678,0,0)" />
    <rect
       style="fill:#ffffff;fill-opacity:1;stroke:none"
       id="rect38156"
       width="6.2439022"
       height="21.853659"
       x="1.8450422"
       y="-10.926829"
       transform="matrix(0.70710678,0.70710678,-0.70710678,0.70710678,0,0)" />
    <rect
       y="-9.3658524"
       x="3.4060163"
       height="18.731707"
       width="3.1219511"
       id="rect14621"
       style="fill:#2d2d2f;fill-opacity:1;stroke:none"
       transform="matrix(0.70710678,0.70710678,-0.70710678,0.70710678,0,0)" />
    <rect
       transform="matrix(0,1,-1,0,0,0)"
       style="fill:#2d2d2f;fill-opacity:1;stroke:none"
       id="rect14623"
       width="3.1219511"
       height="18.731707"
       x="1.95122"
       y="-12.878049" />
    <rect
       y="-14.332843"
       x="-1.5609751"
       height="18.731707"
       width="3.1219511"
       id="rect14625"
       style="fill:#2d2d2f;fill-opacity:1;stroke:none"
       transform="matrix(-0.70710678,0.70710678,-0.70710678,-0.70710678,0,0)" />
    <rect
       style="fill:#2d2d2f;fill-opacity:1;stroke:none"
       id="rect14605"
       width="3.1219511"
       height="18.731707"
       x="1.95122"
       y="-5.8536582" />
    <path
       id="path14603"
       d="m 10.926828,3.5121944 c 0,4.094991 -3.3196432,7.4146346 -7.4146332,7.4146346 -4.09498999,0 -7.4146339,-3.3196436 -7.4146339,-7.4146346 0,-4.09498902 3.31964391,-7.414634 7.4146339,-7.414634 4.09499,0 7.4146332,3.31964498 7.4146332,7.414634 z"
       style="fill:#2d2d2f;fill-opacity:1;stroke:none"
       inkscape:connector-curvature="0" />
    <path
       style="fill:#ffffff;fill-opacity:1;stroke:none"
       d="m 6.6341448,3.5121944 c 0,1.724206 -1.397745,3.121952 -3.121951,3.121952 -1.724206,0 -3.12195199,-1.397746 -3.12195199,-3.121952 0,-1.724206 1.39774599,-3.12195102 3.12195199,-3.12195102 1.724206,0 3.121951,1.39774502 3.121951,3.12195102 z"
       id="path14599"
       inkscape:connector-curvature="0" />
  </g>
</svg>
