<?xml version="1.0" encoding="UTF-8" standalone="no"?>
<!-- Created with Inkscape (http://www.inkscape.org/) -->

<svg
   xmlns:dc="http://purl.org/dc/elements/1.1/"
   xmlns:cc="http://creativecommons.org/ns#"
   xmlns:rdf="http://www.w3.org/1999/02/22-rdf-syntax-ns#"
   xmlns:svg="http://www.w3.org/2000/svg"
   xmlns="http://www.w3.org/2000/svg"
   xmlns:sodipodi="http://sodipodi.sourceforge.net/DTD/sodipodi-0.dtd"
   xmlns:inkscape="http://www.inkscape.org/namespaces/inkscape"
   width="16"
   height="16"
   id="svg2473"
   sodipodi:version="0.32"
   inkscape:version="0.91 r13725"
   version="1.0"
   sodipodi:docname="help-browser.svg"
   inkscape:output_extension="org.inkscape.output.svg.inkscape">
  <defs
     id="defs2475" />
  <sodipodi:namedview
     id="base"
     pagecolor="#ffffff"
     bordercolor="#666666"
     borderopacity="1.0"
     inkscape:pageopacity="0.0"
     inkscape:pageshadow="2"
     inkscape:zoom="33.958896"
     inkscape:cx="10.540563"
     inkscape:cy="8.6930278"
     inkscape:current-layer="layer1"
     showgrid="true"
     inkscape:document-units="px"
     inkscape:grid-bbox="true"
     inkscape:window-width="1440"
     inkscape:window-height="852"
     inkscape:window-x="0"
     inkscape:window-y="0"
     inkscape:window-maximized="1"
     inkscape:object-paths="true"
     inkscape:snap-intersection-paths="true"
     inkscape:object-nodes="true"
     inkscape:snap-smooth-nodes="true" />
  <metadata
     id="metadata2478">
    <rdf:RDF>
      <cc:Work
         rdf:about="">
        <dc:format>image/svg+xml</dc:format>
        <dc:type
           rdf:resource="http://purl.org/dc/dcmitype/StillImage" />
        <dc:title />
      </cc:Work>
    </rdf:RDF>
  </metadata>
  <g
     id="layer1"
     inkscape:label="Layer 1"
     inkscape:groupmode="layer"
     transform="translate(0,-8)">
    <circle
       style="opacity:1;fill:#d480da;fill-opacity:1;fill-rule:evenodd;stroke:none;stroke-width:1;stroke-linecap:square;stroke-linejoin:miter;stroke-miterlimit:4;stroke-dasharray:none;stroke-opacity:1"
       id="path4167"
       cx="8"
       cy="16"
       r="7" />
    <path
       style="font-style:normal;font-weight:bold;font-size:10.77894783px;line-height:125%;font-family:Sans;-inkscape-font-specification:'Sans Bold';letter-spacing:0px;word-spacing:0px;display:inline;fill:#ffffff;fill-opacity:1;stroke:none"
       d="M 7.8613281 3.9492188 C 7.5206768 3.9492278 7.1692065 3.9841286 6.8066406 4.0566406 C 6.444577 4.1290606 6.0485804 4.240892 5.6171875 4.390625 L 5.4824219 4.4375 L 5.4824219 6.5996094 L 5.7910156 6.4003906 C 6.1381486 6.1757806 6.4694086 6.0098716 6.78125 5.9003906 L 6.7832031 5.9003906 C 7.0957508 5.7873506 7.3785342 5.7324289 7.6347656 5.7324219 C 7.9055111 5.7324289 8.0895929 5.7937414 8.2128906 5.8964844 L 8.2128906 5.8984375 L 8.2148438 5.8984375 C 8.3378168 5.9983575 8.3925748 6.1165093 8.3925781 6.3164062 C 8.3925751 6.4386872 8.3592962 6.5629187 8.2792969 6.6992188 L 8.2773438 6.7011719 L 8.2773438 6.703125 C 8.2010327 6.838136 8.0683953 6.9970569 7.8789062 7.1699219 L 7.5429688 7.4746094 L 7.5410156 7.4746094 C 7.1607453 7.8261824 6.9042847 8.1176855 6.7675781 8.3828125 L 6.7695312 8.3828125 C 6.6371898 8.6353285 6.5722634 9.0331103 6.5722656 9.3476562 L 6.6835938 9.3476562 L 6.9726562 9.3476562 L 8.4726562 9.3476562 L 8.5839844 9.3476562 L 8.8730469 9.3476562 C 8.8730437 9.2208782 8.9005242 9.0253362 8.9570312 8.9257812 L 8.9570312 8.9238281 C 9.0087792 8.8301881 9.1555758 8.6599667 9.3867188 8.4492188 L 9.7226562 8.1484375 L 9.7246094 8.1464844 C 10.065311 7.8239044 10.31472 7.5170479 10.466797 7.2167969 C 10.618612 6.9131539 10.693353 6.5715679 10.693359 6.2011719 C 10.693353 5.4873259 10.44033 4.9030501 9.9433594 4.5175781 C 9.9433594 4.5175781 9.9414062 4.5175781 9.9414062 4.5175781 C 9.4437769 4.1294581 8.7440143 3.9492267 7.8613281 3.9492188 z M 6.5722656 10.126953 L 6.5722656 12.347656 L 8.8730469 12.347656 L 8.8730469 10.126953 L 8.5839844 10.126953 L 8.4726562 10.126953 L 6.9726562 10.126953 L 6.6835938 10.126953 L 6.5722656 10.126953 z "
       transform="translate(0,8)"
       id="path7561" />
  </g>
</svg>
