<?xml version="1.0" encoding="UTF-8" standalone="no"?>
<!-- Created with Inkscape (http://www.inkscape.org/) -->

<svg
   xmlns:dc="http://purl.org/dc/elements/1.1/"
   xmlns:cc="http://creativecommons.org/ns#"
   xmlns:rdf="http://www.w3.org/1999/02/22-rdf-syntax-ns#"
   xmlns:svg="http://www.w3.org/2000/svg"
   xmlns="http://www.w3.org/2000/svg"
   xmlns:sodipodi="http://sodipodi.sourceforge.net/DTD/sodipodi-0.dtd"
   xmlns:inkscape="http://www.inkscape.org/namespaces/inkscape"
   version="1.0"
   width="16"
   height="16"
   id="svg4486"
   sodipodi:version="0.32"
   inkscape:version="0.91 r13725"
   sodipodi:docname="application-x-trash.svg"
   inkscape:output_extension="org.inkscape.output.svg.inkscape">
  <metadata
     id="metadata51">
    <rdf:RDF>
      <cc:Work
         rdf:about="">
        <dc:format>image/svg+xml</dc:format>
        <dc:type
           rdf:resource="http://purl.org/dc/dcmitype/StillImage" />
        <dc:title />
      </cc:Work>
    </rdf:RDF>
  </metadata>
  <sodipodi:namedview
     inkscape:window-height="852"
     inkscape:window-width="1440"
     inkscape:pageshadow="2"
     inkscape:pageopacity="0.0"
     guidetolerance="10.0"
     gridtolerance="10.0"
     objecttolerance="10.0"
     borderopacity="1.0"
     bordercolor="#666666"
     pagecolor="#ffffff"
     id="base"
     showgrid="false"
     inkscape:zoom="32.947697"
     inkscape:cx="8.851535"
     inkscape:cy="9.1254238"
     inkscape:window-x="0"
     inkscape:window-y="0"
     inkscape:current-layer="svg4486"
     inkscape:window-maximized="1"
     showguides="true"
     inkscape:guide-bbox="true" />
  <defs
     id="defs4488" />
  <path
     style="fill:#a7d8ff;fill-opacity:1"
     d="m 2,5 2.38e-5,1.8333333 0,9.1666667 11.9999522,0 0,-9.1666667 L 14,5 Z"
     id="path4191"
     inkscape:connector-curvature="0"
     sodipodi:nodetypes="ccccccc" />
  <path
     sodipodi:nodetypes="ccccccc"
     inkscape:connector-curvature="0"
     id="path4138"
     d="M 0,2 3.18e-5,2.3333346 3.18e-5,4 15.999968,4 l 0,-1.6666654 L 16,2 Z"
     style="fill:#a7d8ff;fill-opacity:1" />
  <path
     style="fill:#a7d8ff;fill-opacity:1"
     d="m 4,0 1.6e-5,0.3333346 0,1.6666654 7.999968,0 0,-1.6666654 L 12,0 Z"
     id="path4140"
     inkscape:connector-curvature="0"
     sodipodi:nodetypes="ccccccc" />
  <path
     style="fill:#ffffff;fill-opacity:1"
     d="m 4,8 1.59e-5,0.1666673 0,0.8333327 7.9999681,0 0,-0.8333327 L 12,8 Z"
     id="path4161"
     inkscape:connector-curvature="0"
     sodipodi:nodetypes="ccccccc" />
  <path
     sodipodi:nodetypes="ccccccc"
     inkscape:connector-curvature="0"
     id="path4163"
     d="m 4,9.9999996 1.59e-5,0.1666674 0,0.833333 7.9999681,0 0,-0.833333 L 12,9.9999996 Z"
     style="fill:#ffffff;fill-opacity:1" />
  <path
     style="fill:#ffffff;fill-opacity:1"
     d="m 4,12 1.59e-5,0.166667 0,0.833333 7.9999681,0 0,-0.833333 L 12,12 Z"
     id="path4165"
     inkscape:connector-curvature="0"
     sodipodi:nodetypes="ccccccc" />
  <path
     sodipodi:nodetypes="ccccccc"
     inkscape:connector-curvature="0"
     id="path4167"
     d="m 5,1 1.19e-5,0.1666673 0,0.8333327 5.9999761,0 0,-0.8333327 L 11,1 Z"
     style="fill:#ffffff;fill-opacity:1" />
  <path
     sodipodi:nodetypes="ccccccc"
     inkscape:connector-curvature="0"
     id="path4169"
     d="m 2,4 2.39e-5,0.1666673 0,0.8333327 11.9999521,0 0,-0.8333327 L 14,4 Z"
     style="fill:#ffffff;fill-opacity:1" />
</svg>
